Music_AscorbiaIsland:
	musicheader 4, 1, Music_AscorbiaIsland_Ch1
	musicheader 1, 2, Music_AscorbiaIsland_Ch2
	musicheader 1, 3, Music_AscorbiaIsland_Ch3
	musicheader 1, 4, Music_AscorbiaIsland_Ch4

Music_AscorbiaIsland_Ch1:
	tempo $C0
	volume $77
	stereopanning $f
Music_AscorbiaIsland_Ch1_loop:
	tone $0001
	octave 2
	notetype $C, $00
	note C#, 1
	note __, 2
	dutycycle 2
	intensity $C7
	note C#, 3
	note G#, 3
	octave 3
	note C#, 10
	octave 2
	note C_, 3
	note G#, 3
	octave 3
	note C_, 6
	octave 2
	note G#, 2
	note C_, 2
	octave 1
	note B_, 3
	octave 2
	note F#, 3
	note B_, 10
	note C#, 3
	note E_, 3
	note G#, 4
	note F#, 2
	note E_, 2
	note C#, 2
	octave 1
	note A_, 3
	octave 2
	note E_, 3
	note A_, 10
	note C_, 3
	note E_, 3
	octave 3
	note C_, 6
	octave 2
	note A_, 2
	note F#, 2
	octave 1
	note B_, 3
	octave 2
	note E_, 3
	note B_, 10
	note E_, 4
	octave 1
	note B_, 4
	octave 2
	note D#, 4
	intensity $B5
	octave 1
	note B_, 2
	intensity $B2
	octave 2
	note C_, 2
	dutycycle 1
	intensity $A5
	octave 4
	note C#, 2
	intensity $A2
	octave 3
	note C#, 1
	note E_, 1
	intensity $A5
	note F#, 2
	intensity $A2
	note G#, 1
	intensity $A5
	note E_, 2
	notetype $6, $A2
	note G#, 1
	intensity $98
	slidepitchto 1, 3, E_
	octave 4
	note A_, 1
	octave 5
	notetype $5, $91
	note E_, 1
	notetype $7, $91
	note __, 1
	notetype $5, $91
	note E_, 1
	notetype $7, $91
	note __, 1
	notetype $5, $91
	note D#, 1
	notetype $7, $91
	note __, 1
	notetype $C, $98
	note E_, 1
	intensity $93
	note E_, 1
	intensity $A3
	octave 3
	note G#, 1
	intensity $A5
	octave 4
	note C_, 2
	intensity $A2
	octave 3
	note C_, 1
	note D#, 1
	intensity $A5
	note F#, 2
	intensity $A2
	note E_, 1
	intensity $A5
	note D#, 2
	notetype $6, $A2
	note G#, 1
	intensity $98
	slidepitchto 1, 3, E_
	octave 4
	note G#, 1
	octave 5
	notetype $5, $91
	note D#, 1
	notetype $7, $91
	note __, 1
	notetype $5, $91
	note D#, 1
	notetype $7, $91
	note __, 1
	notetype $5, $91
	note D_, 1
	notetype $7, $91
	note __, 1
	notetype $C, $98
	note D#, 1
	intensity $93
	note D#, 1
	intensity $A3
	octave 3
	note F#, 1
	intensity $A5
	note B_, 2
	intensity $A2
	octave 2
	note B_, 1
	octave 3
	note D_, 1
	intensity $A5
	note E_, 2
	intensity $A2
	note F#, 1
	intensity $A5
	note D_, 2
	notetype $6, $A2
	note F#, 1
	intensity $98
	slidepitchto 1, 3, D_
	octave 4
	note G_, 1
	octave 5
	notetype $5, $91
	note D_, 1
	notetype $7, $91
	note __, 1
	notetype $5, $91
	note D_, 1
	notetype $7, $91
	note __, 1
	notetype $5, $91
	note C#, 1
	notetype $7, $91
	note __, 1
	notetype $C, $98
	note D_, 1
	intensity $93
	note D_, 1
	note __, 1
	intensity $B5
	octave 3
	note C#, 1
	note D_, 1
	note G#, 1
	note F#, 1
	note B_, 1
	note C#, 2
	note F_, 1
	octave 5
	notetype $5, $91
	note F_, 1
	notetype $7, $91
	note __, 1
	notetype $5, $91
	note F_, 1
	notetype $7, $91
	note __, 1
	notetype $5, $91
	note C#, 1
	notetype $7, $91
	note __, 1
	notetype $C, $92
	note F_, 2
	intensity $91
	note C#, 1
	note F_, 1
	note C#, 1
	intensity $B5
	octave 3
	note A_, 3
	note B_, 3
	intensity $B2
	note A_, 1
	notetype $6, $A2
	note A_, 1
	intensity $92
	slidepitchto 1, 3, D#
	octave 4
	note G#, 1
	octave 5
	notetype $5, $91
	note E_, 1
	notetype $7, $91
	note __, 1
	notetype $5, $91
	note E_, 1
	notetype $7, $91
	note __, 1
	notetype $C, $91
	note D#, 1
	intensity $92
	note E_, 2
	notetype $5, $91
	note D#, 1
	notetype $7, $91
	note __, 1
	notetype $5, $91
	note E_, 1
	notetype $7, $91
	note __, 1
	notetype $C, $91
	note C#, 1
	intensity $B5
	octave 3
	note A_, 3
	note B_, 3
	octave 4
	notetype $9, $B2
	note C_, 2
	slidepitchto 1, 3, E_
	notetype $6, $92
	note A_, 1
	octave 5
	notetype $5, $91
	note E_, 1
	notetype $7, $91
	note __, 1
	notetype $5, $91
	note E_, 1
	notetype $7, $91
	note __, 1
	notetype $C, $91
	note D#, 1
	intensity $92
	note E_, 2
	notetype $5, $91
	note D#, 1
	notetype $7, $91
	note __, 1
	notetype $5, $91
	note F#, 1
	notetype $7, $91
	note __, 1
	notetype $C, $91
	note E_, 1
	intensity $B3
	octave 3
	note B_, 1
	note A_, 1
	note D#, 1
	note F#, 2
	note __, 1
	octave 2
	note B_, 1
	octave 3
	note D#, 1
	note __, 1
	note F#, 2
	note __, 1
	note D#, 1
	octave 2
	note B_, 1
	octave 3
	note F#, 2
	note B_, 1
	note A_, 1
	note D#, 1
	note F#, 2
	note __, 1
	octave 2
	note B_, 1
	octave 3
	note D#, 1
	note __, 1
	note F#, 2
	note __, 1
	note D#, 1
	octave 2
	note B_, 1
	note F#, 1
	note G#, 1
	dutycycle 2
	intensity $B7
	vibrato $00, $23
	octave 3
	note A_, 6
	note E_, 4
	note C#, 2
	note B_, 2
	intensity $B3
	note A_, 2
	intensity $B7
	note G#, 6
	intensity $B5
	note D#, 6
	intensity $A3
	note E_, 2
	note D#, 2
	intensity $B7
	note B_, 6
	note F#, 6
	note A_, 2
	intensity $B3
	note E_, 2
	intensity $B7
	note G_, 4
	intensity $B3
	note D_, 2
	intensity $B5
	note G_, 3
	note F#, 3
	note E_, 2
	note D_, 2
	note D_, 3
	octave 2
	note A#, 3
	octave 3
	note E_, 4
	intensity $B2
	note D_, 1
	note __, 1
	intensity $B3
	note D_, 2
	intensity $A3
	note G_, 2
	intensity $B5
	note F#, 3
	note E_, 3
	note D_, 3
	note C_, 3
	intensity $B3
	octave 2
	note A_, 2
	intensity $A3
	note F#, 2
	intensity $B7
	octave 3
	note D_, 3
	octave 2
	note A#, 3
	intensity $B5
	octave 3
	note E_, 4
	intensity $B3
	note D_, 1
	note __, 1
	note D_, 2
	note G_, 2
	intensity $B5
	note A_, 4
	note G_, 4
	intensity $B7
	note E_, 4
	intensity $B5
	octave 2
	note A_, 2
	octave 3
	note C#, 2
	octave 2
	note C_, 3
	note D#, 3
	intensity $B7
	note G#, 6
	note __, 1
	loopchannel 0, Music_AscorbiaIsland_Ch1_loop

Music_AscorbiaIsland_Ch2:
	stereopanning $f0
Music_AscorbiaIsland_Ch2_loop:
	dutycycle 2
	tone $0002
	octave 3
	notetype $C, $C2
	note G#, 1
	octave 4
	note C_, 1
	intensity $C5
	note D#, 1
	vibrato $00, $13
	note E_, 6
	note F#, 6
	note G#, 4
	intensity $C7
	note D#, 14
	intensity $C2
	octave 3
	note B_, 1
	octave 4
	note C#, 1
	intensity $C5
	note D_, 6
	note E_, 6
	note D_, 4
	intensity $C7
	note C#, 8
	note __, 2
	intensity $C5
	octave 3
	note B_, 2
	octave 4
	note C#, 2
	note E_, 2
	note G#, 3
	note F#, 3
	intensity $C2
	note E_, 1
	note __, 1
	intensity $C5
	note E_, 5
	note __, 1
	intensity $C2
	note E_, 1
	note F#, 1
	intensity $C5
	note G_, 3
	note F#, 3
	intensity $C2
	note E_, 1
	note __, 1
	intensity $C5
	note C_, 5
	note __, 1
	intensity $C2
	note D_, 1
	note C_, 1
	intensity $C5
	octave 3
	note B_, 6
	intensity $C2
	octave 4
	note G#, 1
	note __, 1
	intensity $C7
	note G#, 8
	note __, 4
	intensity $C5
	note G#, 4
	note A_, 3
	note G#, 3
	note D#, 2
	intensity $C2
	note E_, 1
	octave 3
	note B_, 1
	octave 4
	note E_, 1
	note __, 1
	dutycycle 1
	intensity $B8
	octave 3
	note E_, 2
	dutycycle 2
	intensity $C2
	octave 4
	note G#, 1
	note E_, 1
	note G#, 1
	dutycycle 1
	intensity $B8
	octave 3
	note E_, 2
	dutycycle 2
	intensity $C2
	octave 4
	note F#, 1
	note __, 2
	note E_, 1
	note __, 1
	note D#, 1
	octave 3
	note B_, 1
	octave 4
	note D#, 1
	note __, 1
	dutycycle 1
	intensity $B8
	octave 3
	note D#, 2
	dutycycle 2
	intensity $C2
	octave 5
	note C_, 1
	octave 4
	note G#, 1
	octave 5
	note C_, 1
	dutycycle 1
	intensity $B8
	octave 3
	note D#, 2
	dutycycle 2
	intensity $C2
	octave 4
	note G#, 1
	note __, 1
	octave 3
	note G#, 1
	note B_, 1
	octave 4
	note C#, 1
	note D_, 1
	octave 3
	note B_, 1
	octave 4
	note D_, 1
	note __, 1
	dutycycle 1
	intensity $B8
	octave 3
	note D_, 2
	dutycycle 2
	intensity $C2
	note B_, 1
	octave 4
	note C#, 1
	note D_, 1
	dutycycle 1
	intensity $B8
	octave 3
	note D_, 2
	dutycycle 2
	intensity $C2
	octave 4
	note E_, 1
	note __, 1
	octave 3
	note A_, 1
	octave 4
	note D_, 1
	note E_, 1
	intensity $C5
	note F_, 3
	note C#, 3
	octave 3
	note G#, 3
	note F_, 3
	intensity $C2
	note C#, 1
	note G#, 1
	octave 4
	note C#, 1
	note E_, 1
	intensity $C5
	note G#, 2
	note __, 1
	note F#, 2
	note __, 1
	note E_, 1
	note __, 1
	note E_, 5
	note __, 1
	octave 3
	note A_, 1
	note B_, 1
	octave 4
	note C_, 2
	note __, 1
	note E_, 2
	note __, 1
	note F#, 1
	note __, 1
	note G_, 4
	note __, 1
	note F#, 1
	note E_, 1
	note G_, 1
	intensity $C8
	note F#, 6
	intensity $C7
	note F#, 6
	intensity $4D
	note F#, 4
	intensity $C2
	note F#, 2
	note __, 2
	dutycycle 1
	intensity $A5
	octave 2
	note B_, 4
	octave 3
	note D#, 4
	intensity $A2
	note F#, 1
	note __, 1
	intensity $C2
	note B_, 1
	octave 4
	note C_, 1
	intensity $C5
	note C#, 3
	note D#, 3
	note E_, 1
	notetype $6, $C5
	note __, 1
	intensity $C8
	note D#, 1
	intensity $C5
	note E_, 4
	note __, 2
	note F#, 4
	note __, 2
	note E_, 3
	intensity $C8
	note G_, 1
	intensity $C5
	note G#, 6
	note D#, 6
	note C_, 2
	note __, 2
	octave 3
	note G#, 8
	note __, 4
	note G#, 2
	note B_, 2
	octave 4
	note D_, 6
	note E_, 6
	note D_, 2
	note __, 1
	intensity $C8
	note E_, 1
	intensity $C5
	note F#, 4
	note __, 2
	note G_, 4
	note __, 2
	note F#, 3
	intensity $C8
	octave 3
	note A_, 1
	note B_, 12
	intensity $C7
	note B_, 16
	intensity $C5
	note G_, 2
	note A_, 2
	note A#, 6
	octave 4
	note C_, 6
	octave 3
	note A#, 2
	note __, 1
	intensity $C8
	octave 4
	note C_, 1
	intensity $C5
	note D_, 6
	octave 3
	note A#, 6
	octave 4
	note C_, 2
	note __, 1
	intensity $C8
	note C_, 1
	intensity $C5
	note D_, 6
	octave 3
	note A_, 6
	note G_, 2
	note F#, 10
	note __, 2
	note D_, 2
	note F#, 2
	note A_, 2
	note A#, 6
	octave 4
	note C_, 6
	octave 3
	note A#, 2
	note __, 1
	intensity $C8
	octave 4
	note C#, 1
	intensity $C5
	note D_, 6
	octave 3
	note A#, 5
	intensity $C8
	octave 4
	note D#, 1
	intensity $C5
	note F_, 2
	note __, 2
	intensity $C8
	note E_, 12
	intensity $C7
	note E_, 16
	note __, 4
	dutycycle 2
	octave 3
	note G#, 12
	octave 4
	note C_, 12
	note __, 2
	loopchannel 0, Music_AscorbiaIsland_Ch2_loop

Music_AscorbiaIsland_Ch3:
Music_AscorbiaIsland_Ch3_loop:
	octave 5
	notetype $C, $00
	note C#, 1
	note __, 2
	dutycycle 1
	intensity $11
	vibrato $00, $23
	note C#, 12
	octave 4
	note G#, 2
	octave 5
	note C#, 2
	note C_, 14
	octave 4
	note G#, 2
	note B_, 6
	note F#, 8
	note A_, 2
	note G#, 6
	note E_, 8
	note C#, 2
	note A_, 6
	note E_, 10
	octave 5
	note C_, 6
	octave 4
	note G_, 10
	note E_, 6
	note G#, 8
	note B_, 8
	octave 5
	note E_, 5
	note D#, 3
	note C_, 2
	dutycycle 5
	octave 3
	notetype $9, $15
	note C#, 2
	notetype $6, $15
	note __, 1
	notetype $7, $15
	note E_, 1
	notetype $5, $25
	note E_, 1
	notetype $7, $15
	note C#, 1
	notetype $5, $25
	note C#, 1
	notetype $7, $15
	note G#, 1
	notetype $5, $25
	note G#, 1
	notetype $7, $15
	note E_, 1
	notetype $5, $25
	note E_, 1
	octave 4
	notetype $7, $15
	note C#, 1
	notetype $5, $25
	note C#, 1
	notetype $C, $15
	note C#, 1
	note __, 1
	octave 3
	notetype $8, $15
	note G#, 2
	note __, 1
	notetype $C, $15
	note E_, 1
	note __, 1
	notetype $5, $15
	note C#, 1
	notetype $7, $25
	note C#, 1
	notetype $5, $15
	note C#, 1
	notetype $7, $15
	note __, 1
	note D#, 1
	notetype $5, $25
	note D#, 1
	notetype $9, $15
	note C_, 2
	notetype $6, $15
	note __, 1
	notetype $7, $15
	note D#, 1
	notetype $5, $25
	note D#, 1
	notetype $7, $15
	note C_, 1
	notetype $5, $25
	note C_, 1
	notetype $7, $15
	note F#, 1
	notetype $5, $25
	note F#, 1
	notetype $7, $15
	note D#, 1
	notetype $5, $25
	note D#, 1
	octave 4
	notetype $7, $15
	note C_, 1
	notetype $5, $25
	note C_, 1
	notetype $C, $15
	note C_, 1
	note __, 1
	octave 3
	notetype $8, $15
	note G#, 2
	note __, 1
	notetype $C, $15
	note D#, 1
	note __, 1
	notetype $8, $15
	note C_, 2
	note __, 1
	notetype $7, $15
	note D#, 1
	notetype $5, $25
	note D#, 1
	octave 2
	notetype $E, $15
	note B_, 1
	notetype $3, $15
	note B_, 1
	notetype $7, $15
	note __, 1
	octave 3
	note D_, 1
	notetype $5, $25
	note D_, 1
	octave 2
	notetype $7, $15
	note B_, 1
	notetype $5, $25
	note B_, 1
	octave 3
	notetype $7, $15
	note F#, 1
	notetype $5, $25
	note F#, 1
	notetype $7, $15
	note D_, 1
	notetype $5, $25
	note D_, 1
	notetype $7, $15
	note B_, 1
	notetype $5, $25
	note B_, 1
	notetype $C, $15
	note B_, 1
	note __, 1
	notetype $8, $15
	note F#, 2
	note __, 1
	notetype $C, $15
	note D_, 1
	note __, 1
	octave 2
	notetype $7, $15
	note B_, 1
	notetype $5, $25
	note B_, 1
	octave 3
	notetype $7, $15
	note C#, 1
	notetype $5, $25
	note C#, 1
	notetype $7, $15
	note D#, 1
	notetype $5, $25
	note D#, 1
	notetype $E, $15
	note G#, 2
	notetype $8, $15
	note __, 1
	notetype $E, $15
	note F_, 2
	notetype $8, $15
	note __, 1
	note C#, 2
	note __, 1
	notetype $C, $15
	note C#, 1
	octave 2
	note G#, 1
	octave 3
	note C#, 1
	note F_, 1
	octave 2
	note G#, 1
	octave 3
	note C#, 1
	note D#, 1
	note F_, 1
	octave 2
	notetype $9, $15
	note A_, 2
	notetype $6, $15
	note __, 1
	octave 3
	notetype $7, $15
	note C#, 1
	notetype $5, $25
	note C#, 1
	octave 2
	notetype $7, $15
	note A_, 1
	notetype $5, $25
	note A_, 1
	octave 3
	notetype $7, $15
	note E_, 1
	notetype $5, $25
	note E_, 1
	notetype $7, $15
	note C#, 1
	notetype $5, $25
	note C#, 1
	notetype $7, $15
	note A_, 1
	notetype $5, $25
	note A_, 1
	notetype $C, $15
	note A_, 1
	octave 2
	notetype $7, $15
	note A_, 1
	notetype $4, $25
	note A_, 1
	notetype $1, $25
	note __, 1
	intensity $15
	octave 3
	note A_, 12
	note E_, 7
	intensity $25
	note E_, 4
	note __, 1
	intensity $15
	note A_, 12
	octave 2
	note A_, 7
	intensity $25
	note A_, 4
	note __, 1
	intensity $15
	octave 3
	note A_, 12
	note C#, 7
	intensity $25
	note C#, 4
	note __, 1
	intensity $15
	note A_, 12
	notetype $9, $15
	note C_, 2
	notetype $6, $15
	note __, 1
	notetype $7, $15
	note E_, 1
	notetype $5, $25
	note E_, 1
	notetype $7, $15
	note C_, 1
	notetype $5, $25
	note C_, 1
	notetype $7, $15
	note G_, 1
	notetype $5, $25
	note G_, 1
	notetype $7, $15
	note E_, 1
	notetype $5, $25
	note E_, 1
	octave 4
	notetype $C, $15
	note C_, 1
	octave 3
	note A_, 1
	notetype $7, $15
	note C_, 1
	notetype $5, $25
	note C_, 1
	octave 4
	notetype $C, $15
	note C_, 1
	octave 3
	notetype $7, $15
	note G_, 1
	notetype $5, $25
	note G_, 1
	octave 4
	notetype $C, $15
	note C_, 1
	octave 3
	notetype $7, $15
	note C_, 1
	notetype $5, $25
	note C_, 1
	octave 4
	notetype $C, $15
	note C_, 1
	octave 3
	notetype $7, $15
	note A_, 1
	notetype $5, $25
	note A_, 1
	notetype $7, $15
	note G_, 1
	notetype $5, $25
	note G_, 1
	octave 2
	notetype $9, $15
	note B_, 2
	notetype $6, $15
	note __, 1
	octave 3
	note D#, 2
	octave 2
	note B_, 2
	octave 3
	note F#, 2
	note D#, 2
	note A_, 2
	note B_, 2
	octave 2
	note B_, 2
	octave 3
	note F#, 2
	note D#, 2
	note A_, 2
	octave 2
	note B_, 2
	octave 3
	note E_, 2
	note F#, 2
	octave 2
	note B_, 2
	octave 3
	notetype $A, $15
	note F#, 4
	notetype $8, $15
	note __, 1
	note D#, 5
	note __, 1
	octave 2
	note B_, 5
	note __, 1
	notetype $C, $15
	note B_, 1
	note __, 1
	octave 3
	note C_, 1
	notetype $5, $15
	note C_, 1
	notetype $7, $15
	note __, 1
	octave 2
	note A_, 1
	notetype $5, $25
	note A_, 1
	octave 3
	notetype $7, $15
	note E_, 1
	notetype $5, $25
	note E_, 1
	notetype $7, $15
	note A_, 1
	notetype $5, $25
	note A_, 1
	notetype $7, $15
	note E_, 1
	notetype $5, $25
	note E_, 1
	notetype $8, $15
	note A_, 2
	note __, 1
	octave 2
	notetype $7, $15
	note A_, 1
	notetype $5, $25
	note A_, 1
	octave 3
	notetype $7, $15
	note E_, 1
	notetype $5, $25
	note E_, 1
	notetype $7, $15
	note A_, 1
	notetype $5, $25
	note A_, 1
	notetype $8, $15
	note E_, 2
	note __, 1
	notetype $7, $15
	note A_, 1
	notetype $5, $25
	note A_, 1
	octave 2
	notetype $7, $15
	note A_, 1
	notetype $5, $25
	note A_, 1
	octave 3
	notetype $7, $15
	note E_, 1
	notetype $5, $25
	note E_, 1
	notetype $7, $15
	note B_, 1
	notetype $5, $25
	note B_, 1
	notetype $7, $15
	note A_, 1
	notetype $5, $25
	note A_, 1
	octave 2
	notetype $7, $15
	note G#, 1
	notetype $5, $25
	note G#, 1
	octave 3
	notetype $7, $15
	note D#, 1
	notetype $5, $25
	note D#, 1
	notetype $7, $15
	note G#, 1
	notetype $5, $25
	note G#, 1
	notetype $7, $15
	note D#, 1
	notetype $5, $25
	note D#, 1
	notetype $8, $15
	note G#, 2
	note __, 1
	octave 2
	notetype $7, $15
	note G#, 1
	notetype $5, $25
	note G#, 1
	octave 3
	notetype $7, $15
	note D#, 1
	notetype $5, $25
	note D#, 1
	notetype $7, $15
	note G#, 1
	notetype $5, $25
	note G#, 1
	notetype $8, $15
	note D#, 2
	note __, 1
	octave 4
	notetype $7, $15
	note C_, 1
	notetype $5, $25
	note C_, 1
	octave 2
	notetype $7, $15
	note G#, 1
	notetype $5, $25
	note G#, 1
	octave 3
	notetype $7, $15
	note D#, 1
	notetype $5, $25
	note D#, 1
	notetype $7, $15
	note A_, 1
	notetype $5, $25
	note A_, 1
	notetype $7, $15
	note G#, 1
	notetype $5, $25
	note G#, 1
	octave 2
	notetype $7, $15
	note B_, 1
	notetype $5, $25
	note B_, 1
	octave 3
	notetype $7, $15
	note F#, 1
	notetype $5, $25
	note F#, 1
	notetype $7, $15
	note B_, 1
	notetype $5, $25
	note B_, 1
	notetype $7, $15
	note F#, 1
	notetype $5, $25
	note F#, 1
	notetype $8, $15
	note B_, 2
	note __, 1
	octave 2
	notetype $7, $15
	note B_, 1
	notetype $5, $25
	note B_, 1
	octave 3
	notetype $7, $15
	note F#, 1
	notetype $5, $25
	note F#, 1
	notetype $7, $15
	note B_, 1
	notetype $5, $25
	note B_, 1
	octave 2
	notetype $7, $15
	note B_, 1
	notetype $5, $25
	note B_, 1
	octave 3
	notetype $7, $15
	note F#, 1
	notetype $5, $25
	note F#, 1
	octave 4
	notetype $7, $15
	note D_, 1
	notetype $5, $25
	note D_, 1
	octave 2
	notetype $7, $15
	note B_, 1
	notetype $5, $25
	note B_, 1
	octave 3
	notetype $7, $15
	note F#, 1
	notetype $5, $25
	note F#, 1
	notetype $7, $15
	note B_, 1
	notetype $5, $25
	note B_, 1
	notetype $7, $15
	note D_, 1
	notetype $5, $25
	note D_, 1
	octave 2
	notetype $7, $15
	note G_, 1
	notetype $5, $25
	note G_, 1
	octave 3
	notetype $7, $15
	note D_, 1
	notetype $5, $25
	note D_, 1
	notetype $7, $15
	note G_, 1
	notetype $5, $25
	note G_, 1
	notetype $7, $15
	note D_, 1
	notetype $5, $25
	note D_, 1
	octave 4
	notetype $8, $15
	note D_, 2
	note __, 1
	octave 3
	note B_, 2
	note __, 1
	notetype $7, $15
	note G_, 1
	notetype $5, $25
	note G_, 1
	octave 2
	notetype $7, $15
	note G_, 1
	notetype $5, $25
	note G_, 1
	octave 3
	notetype $7, $15
	note D_, 1
	notetype $5, $25
	note D_, 1
	octave 4
	notetype $7, $15
	note D_, 1
	notetype $5, $25
	note D_, 1
	octave 3
	notetype $7, $15
	note D_, 1
	notetype $5, $25
	note D_, 1
	notetype $7, $15
	note G_, 1
	notetype $5, $25
	note G_, 1
	notetype $7, $15
	note B_, 1
	notetype $5, $25
	note B_, 1
	notetype $7, $15
	note G_, 1
	notetype $5, $25
	note G_, 1
	octave 2
	notetype $7, $15
	note G_, 1
	notetype $5, $25
	note G_, 1
	octave 3
	notetype $7, $15
	note D_, 1
	notetype $5, $25
	note D_, 1
	notetype $7, $15
	note G_, 1
	notetype $5, $25
	note G_, 1
	notetype $8, $15
	note A#, 2
	note __, 1
	notetype $7, $15
	note F_, 1
	notetype $5, $25
	note F_, 1
	octave 2
	notetype $7, $15
	note G_, 1
	notetype $5, $25
	note G_, 1
	notetype $7, $15
	note A#, 1
	notetype $5, $25
	note A#, 1
	notetype $7, $15
	note G_, 1
	notetype $5, $25
	note G_, 1
	octave 3
	notetype $7, $15
	note D_, 1
	notetype $5, $25
	note D_, 1
	notetype $7, $15
	note G_, 1
	notetype $5, $25
	note G_, 1
	octave 4
	notetype $7, $15
	note D_, 1
	notetype $5, $25
	note D_, 1
	octave 2
	notetype $7, $15
	note A#, 1
	notetype $5, $25
	note A#, 1
	octave 3
	notetype $7, $15
	note D_, 1
	notetype $5, $25
	note D_, 1
	notetype $7, $15
	note G_, 1
	notetype $5, $25
	note G_, 1
	notetype $7, $15
	note A#, 1
	notetype $5, $25
	note A#, 1
	octave 2
	notetype $7, $15
	note A_, 1
	notetype $5, $25
	note A_, 1
	octave 3
	notetype $7, $15
	note D_, 1
	notetype $5, $25
	note D_, 1
	notetype $7, $15
	note A_, 1
	notetype $5, $25
	note A_, 1
	notetype $8, $15
	note F#, 2
	note __, 1
	notetype $7, $15
	note D_, 1
	notetype $5, $25
	note D_, 1
	octave 2
	notetype $7, $15
	note A_, 1
	notetype $5, $25
	note A_, 1
	octave 3
	notetype $7, $15
	note D_, 1
	notetype $5, $25
	note D_, 1
	octave 2
	notetype $7, $15
	note A_, 1
	notetype $5, $25
	note A_, 1
	octave 3
	notetype $7, $15
	note F#, 1
	notetype $5, $25
	note F#, 1
	notetype $7, $15
	note A_, 1
	notetype $5, $25
	note A_, 1
	notetype $7, $15
	note F#, 1
	notetype $5, $25
	note F#, 1
	octave 2
	notetype $7, $15
	note A_, 1
	notetype $5, $25
	note A_, 1
	octave 3
	notetype $7, $15
	note D_, 1
	notetype $5, $25
	note D_, 1
	notetype $7, $15
	note A_, 1
	notetype $5, $25
	note A_, 1
	octave 4
	notetype $7, $15
	note C_, 1
	notetype $5, $25
	note C_, 1
	octave 2
	notetype $7, $15
	note G_, 1
	notetype $5, $25
	note G_, 1
	octave 3
	notetype $7, $15
	note D_, 1
	notetype $5, $25
	note D_, 1
	notetype $7, $15
	note G_, 1
	notetype $5, $25
	note G_, 1
	notetype $7, $15
	note D_, 1
	notetype $5, $25
	note D_, 1
	notetype $8, $15
	note G_, 2
	note __, 1
	notetype $7, $15
	note D_, 1
	notetype $5, $25
	note D_, 1
	octave 2
	notetype $7, $15
	note A#, 1
	notetype $5, $25
	note A#, 1
	notetype $7, $15
	note G_, 1
	notetype $5, $25
	note G_, 1
	octave 3
	notetype $7, $15
	note D_, 1
	notetype $5, $25
	note D_, 1
	notetype $7, $15
	note G_, 1
	notetype $5, $25
	note G_, 1
	notetype $7, $15
	note D_, 1
	notetype $5, $25
	note D_, 1
	notetype $8, $15
	note A#, 2
	note __, 1
	notetype $7, $15
	note G_, 1
	notetype $5, $25
	note G_, 1
	notetype $7, $15
	note D_, 1
	notetype $5, $25
	note D_, 1
	octave 2
	notetype $7, $15
	note A_, 1
	notetype $5, $25
	note A_, 1
	octave 3
	notetype $7, $15
	note E_, 1
	notetype $5, $25
	note E_, 1
	notetype $7, $15
	note A_, 1
	notetype $5, $25
	note A_, 1
	notetype $7, $15
	note E_, 1
	notetype $5, $25
	note E_, 1
	notetype $7, $15
	note A_, 1
	notetype $5, $25
	note A_, 1
	notetype $7, $15
	note E_, 1
	notetype $5, $25
	note E_, 1
	octave 2
	notetype $7, $15
	note A_, 1
	notetype $5, $25
	note A_, 1
	octave 3
	notetype $7, $15
	note E_, 1
	notetype $5, $25
	note E_, 1
	octave 4
	notetype $7, $15
	note C#, 1
	notetype $5, $25
	note C#, 1
	octave 3
	notetype $7, $15
	note A_, 1
	notetype $5, $25
	note A_, 1
	notetype $7, $15
	note E_, 1
	notetype $5, $25
	note E_, 1
	notetype $7, $15
	note A_, 1
	notetype $5, $25
	note A_, 1
	octave 4
	notetype $7, $15
	note E_, 1
	notetype $5, $25
	note E_, 1
	notetype $7, $15
	note C#, 1
	notetype $5, $25
	note C#, 1
	octave 3
	notetype $7, $15
	note A_, 1
	notetype $5, $25
	note A_, 1
	notetype $7, $15
	note E_, 1
	notetype $5, $25
	note E_, 1
	dutycycle 1
	intensity $11
	slidepitchto 1, 4, D#
	octave 4
	note D#, 12
	slidepitchto 1, 3, C_
	notetype $C, $11
	note D#, 1
	octave 5
	note C_, 6
	note __, 1
	loopchannel 0, Music_AscorbiaIsland_Ch3_loop

Music_AscorbiaIsland_Ch4:
	togglenoise 2
Music_AscorbiaIsland_Ch4_loop:
	notetype $C
	note __, 16
	note __, 16
	note __, 16
	note __, 16
	note __, 16
	note __, 16
	note __, 16
	note __, 7
	note D#, 1
	note __, 3
	note D#, 1
	note __, 3
	note D#, 1
	note __, 1
	note C#, 1
	note C#, 1
	note G#, 1
	note __, 1
	note F_, 1
	note F_, 1
	note C#, 1
	note __, 1
	note D_, 1
	note F_, 1
	note D_, 1
	note __, 1
	note F_, 1
	note F_, 1
	note C#, 1
	note __, 1
	note D_, 1
	note F#, 1
	note D_, 1
	note __, 1
	note F_, 1
	note F_, 1
	note C#, 1
	note __, 1
	note D_, 1
	note F_, 1
	note D_, 1
	note __, 1
	note F_, 1
	note F_, 1
	note C#, 1
	note __, 1
	note D_, 1
	note F#, 1
	note D_, 1
	note __, 1
	note F_, 1
	note F_, 1
	note C#, 1
	note __, 1
	note D_, 1
	note F_, 1
	note D_, 1
	note __, 1
	note F_, 1
	note F_, 1
	note C#, 1
	note __, 1
	note D_, 1
	note F#, 1
	note C#, 1
	note __, 2
	note C#, 1
	note __, 2
	note C#, 1
	note __, 2
	note C#, 1
	note __, 2
	note D_, 1
	note D_, 1
	note D_, 1
	note D_, 1
	note G#, 1
	note __, 1
	note F_, 1
	note F_, 1
	note C#, 1
	note __, 1
	note D_, 1
	note F_, 1
	note D_, 1
	note __, 1
	note F_, 1
	note F_, 1
	note C#, 1
	note __, 1
	note D_, 1
	note F#, 1
	note D_, 1
	note __, 1
	note F_, 1
	note F_, 1
	note C#, 1
	note __, 1
	note D_, 1
	note F_, 1
	note D_, 1
	note __, 1
	note F_, 1
	note F_, 1
	note C#, 1
	note __, 1
	note D_, 1
	note F#, 1
	note C#, 1
	note F_, 1
	note D#, 1
	note C#, 1
	note F_, 1
	note D#, 1
	note C#, 1
	note F_, 1
	note D#, 1
	note C#, 1
	note F_, 1
	note D#, 1
	note C#, 1
	note G_, 1
	note C#, 1
	note G_, 1
	note C#, 1
	note F_, 1
	note D#, 1
	note C#, 1
	note F_, 1
	note D#, 1
	note C#, 1
	note F_, 1
	note D#, 1
	note C#, 1
	note F_, 1
	note D#, 1
	note C#, 1
	note __, 1
	note C#, 1
	note C#, 1
	note G#, 1
	note __, 1
	note F_, 1
	note F_, 1
	note C#, 1
	note __, 1
	note D_, 1
	note F_, 1
	note D_, 1
	note __, 1
	note F_, 1
	note F_, 1
	note C#, 1
	note __, 1
	note D_, 1
	note F#, 1
	note D_, 1
	note __, 1
	note F_, 1
	note F_, 1
	note C#, 1
	note __, 1
	note D_, 1
	note F_, 1
	note D_, 1
	note __, 1
	note F_, 1
	note F_, 1
	note C#, 1
	note __, 1
	note D_, 1
	note F#, 1
	note C#, 1
	note __, 1
	note F_, 1
	note F_, 1
	note C#, 1
	note __, 1
	note D_, 1
	note F_, 1
	note D_, 1
	note __, 1
	note F_, 1
	note F_, 1
	note C#, 1
	note __, 1
	note D_, 1
	note F#, 1
	note C#, 1
	note C#, 1
	note C#, 1
	note C#, 1
	note D#, 1
	note D#, 1
	note C#, 1
	note C#, 1
	note C#, 1
	note C#, 1
	note D#, 1
	note D#, 1
	note C#, 1
	note C#, 1
	note G#, 1
	note __, 1
	note G#, 1
	note __, 1
	note F_, 1
	note F_, 1
	note C#, 1
	note __, 1
	note D_, 1
	note F_, 1
	note D_, 1
	note __, 1
	note F_, 1
	note F_, 1
	note C#, 1
	note __, 1
	note D_, 1
	note F#, 1
	note D_, 1
	note __, 1
	note F_, 1
	note F_, 1
	note C#, 1
	note __, 1
	note D_, 1
	note F_, 1
	note D_, 1
	note __, 1
	note F_, 1
	note F_, 1
	note C#, 1
	note __, 1
	note D_, 1
	note F#, 1
	note C#, 1
	note __, 1
	note F_, 1
	note F_, 1
	note C#, 1
	note __, 1
	note D_, 1
	note F_, 1
	note D_, 1
	note __, 1
	note F_, 1
	note F_, 1
	note C#, 1
	note __, 1
	note D_, 1
	note F#, 1
	note C#, 1
	note __, 1
	note F_, 1
	note C#, 1
	note __, 1
	note F_, 1
	note C#, 1
	note __, 1
	note F_, 1
	note C#, 1
	note __, 1
	note D#, 1
	note F_, 1
	note C#, 1
	note G#, 1
	note __, 1
	note G#, 1
	note __, 12
	loopchannel 0, Music_AscorbiaIsland_Ch4_loop

