Music_BWWild: ; cfd9e
	musicheader 4, 1, Music_BWWild_Ch1
	musicheader 1, 2, Music_BWWild_Ch2
	musicheader 1, 3, Music_BWWild_Ch3
	musicheader 1, 4, Music_BWWild_Ch4


Music_BWWild_Ch1:
		tempo $32
		volume $77
		dutycycle 1
		notetype 12, $92
;Channel1_Bar1:
		octave 5
		note D#, 2
		note G_, 2
		note A#, 2
		note D#, 2
		note G_, 2
		note A#, 2
		note D#, 2
		note G_, 2
		note A#, 2
		note D#, 2
		note G_, 2
		note A#, 2
		note D#, 2
		note G_, 2
		note A#, 2
		note D#, 2
;Channel1_Bar2:
		note G_, 2
		note A#, 2
		note D#, 2
		note G_, 2
		note A#, 2
		note D#, 2
		note G_, 2
		note A#, 2
		note D#, 2
		note G_, 2
		note A#, 2
		note D#, 2
		note G_, 2
		note A#, 2
		note D#, 2
		note A#, 2
;Channel1_Bar3:
		notetype 12, $A4
		note C_, 4
		notetype 12, $54
		db $EF ; WARNING: unconverted
		db $F0 ; WARNING: unconverted
		note C_, 4
		db $EF ; WARNING: unconverted
		db $0F ; WARNING: unconverted
		note C_, 4
		octave 4
		notetype 12, $A4
		db $EF ; WARNING: unconverted
		db $FF ; WARNING: unconverted
		note G_, 4
		notetype 12, $54
		db $EF ; WARNING: unconverted
		db $F0 ; WARNING: unconverted
		note G_, 4
		db $EF ; WARNING: unconverted
		db $0F ; WARNING: unconverted
		note G_, 4
		octave 5
		notetype 12, $A4
		db $EF ; WARNING: unconverted
		db $FF ; WARNING: unconverted
		note C_, 4
		notetype 12, $54
		db $EF ; WARNING: unconverted
		db $F0 ; WARNING: unconverted
		note C_, 4
;Channel1_Bar4:
		octave 4
		notetype 12, $A4
		db $EF ; WARNING: unconverted
		db $FF ; WARNING: unconverted
		note A#, 4
		notetype 12, $54
		db $EF ; WARNING: unconverted
		db $F0 ; WARNING: unconverted
		note A#, 4
		db $EF ; WARNING: unconverted
		db $0F ; WARNING: unconverted
		note A#, 4
		notetype 12, $A4
		db $EF ; WARNING: unconverted
		db $FF ; WARNING: unconverted
		note A_, 4
		db $EF ; WARNING: unconverted
		db $F0 ; WARNING: unconverted
		notetype 12, $54
		note A_, 4
		octave 5
		notetype 12, $A4
		db $EF ; WARNING: unconverted
		db $FF ; WARNING: unconverted
		note C_, 4
		notetype 12, $54
		db $EF ; WARNING: unconverted
		db $F0 ; WARNING: unconverted
		note C_, 4
		db $EF ; WARNING: unconverted
		db $0F ; WARNING: unconverted
		note C_, 4
;Channel1_Bar5:
		tempo $65
		notetype 12, $97
		octave 4
		note C_, 8
		octave 5
		note C_, 8
;Channel1_Bar6:
		octave 4
		note C_, 6
		octave 5
		note C_, 10
		db $EF ; WARNING: unconverted
		db $FF ; WARNING: unconverted
;Channel1_Bar7:
		tempo $32
		notetype 12, $E3
		octave 4
		note G_, 4
		note __, 8
		octave 5
		note C_, 4
		note __, 8
		octave 4
		note G_, 4
		note __, 4
;Channel1_Bar8:
		octave 5
		note D#, 4
		note __, 8
		note C#, 4
		note __, 4
		note C_, 12
;Channel1_Bar9:
		notetype 12, $B7
		tempo $65
		db $EF ; WARNING: unconverted
		db $F0 ; WARNING: unconverted
		octave 4
		note D#, 8
		octave 5
		note D#, 8
;Channel1_Bar10:
		octave 4
		note G_, 6
		octave 5
		notetype 12, $BF
		note G_, 10
;Channel1_Bar11:
Music_BWWild_Ch1_Loop:
		notetype 12, $B7
		tempo $65
		octave 4
		note C_, 6
		note F_, 6
		note G_, 4
;Channel1_Bar12:
		note A#, 6
		note A_, 4
		note G_, 2
		note F_, 2
		note __, 2
;Channel1_Bar13:
		note D#, 12
		note G_, 1
		note __, 3
;Channel1_Bar14:
		note D#, 2
		note G_, 2
		note __, 2
		note A#, 10
;Channel1_Bar15:
		note A_, 6
		note G_, 6
		note F_, 1
		note __, 3
;Channel1_Bar16:
		note A#, 6
		note A_, 6
		note G_, 1
		note __, 3
;Channel1_Bar17:
		octave 5
		note D#, 8
		note D_, 8
;Channel1_Bar18:
		octave 4
		note G_, 6
		note A#, 6
		note G_, 4
;Channel1_Bar19:
		note A_, 16
;Channel1_Bar20:
		octave 5
		note C_, 12
		octave 4
		note F_, 1
		note G_, 1
		note A#, 1
		octave 5
		note C_, 1
;Channel1_Bar21:
		note D#, 8
		note F_, 8
;Channel1_Bar22:
		note D#, 6
		note D_, 6
		octave 4
		note A#, 4
;Channel1_Bar23:
		octave 5
		note C_, 14
		note D#, 1
		note E_, 1
;Channel1_Bar24:
		note F_, 16
;Channel1_Bar25:
		db $EF ; WARNING: unconverted
		db $0F ; WARNING: unconverted
		octave 4
		note D#, 1
		note __, 1
		note F_, 1
		note __, 3
		note G_, 10
;Channel1_Bar26:
		note A#, 6
		note A_, 1
		note G#, 1
		note G_, 8
;Channel1_Bar27:
		note F_, 1
		note __, 1
		note G_, 1
		note __, 3
		note A_, 6
		note F_, 4
;Channel1_Bar28:
		octave 5
		note C_, 6
		octave 4
		note B_, 1
		note A#, 1
		note A_, 8
;Channel1_Bar29:
		note G_, 1
		note __, 1
		note A_, 1
		note __, 3
		note A#, 6
		note G_, 4
;Channel1_Bar30:
		octave 5
		note D#, 6
		note D_, 6
		octave 4
		note A#, 4
;Channel1_Bar31:
		note A_, 14
		note A#, 1
		note B_, 1
;Channel1_Bar32:
		octave 5
		note C_, 16
;Channel1_Bar33:
		notetype 12, $E7
		db $EF ; WARNING: unconverted
		db $F0 ; WARNING: unconverted
		octave 4
		note D#, 1
		note __, 1
		note F_, 1
		note __, 3
		note G_, 10
;Channel1_Bar34:
		note A#, 6
		note A_, 1
		note G#, 1
		note G_, 8
;Channel1_Bar35:
		note F_, 1
		note __, 1
		note G_, 1
		note __, 3
		note A_, 6
		note F_, 4
;Channel1_Bar36:
		octave 5
		note C_, 6
		octave 4
		note B_, 1
		note A#, 1
		note A_, 8
;Channel1_Bar37:
		note G_, 1
		note __, 1
		note A_, 1
		note __, 3
		note A#, 6
		note G_, 4
;Channel1_Bar38:
		octave 5
		note D#, 4
		note D_, 4
		note C_, 4
		octave 4
		note A#, 4
;Channel1_Bar39:
		octave 5
		note C_, 14
		note D#, 1
		note E_, 1
		notetype 12, $98
;Channel1_Bar40:
		note F_, 14
		note G_, 2
;Channel1_Bar41:
		tempo $32
		note G#, 16
;Channel1_Bar42:
		note G#, 16
		note G#, 16
		note G#, 12
		note G_, 4
;Channel1_Bar43:
		note F_, 16
		note F_, 16
		note F_, 16
;Channel1_Bar44:
		note F_, 12
		note G_, 4
;Channel1_Bar45:
		note G#, 16
		note G#, 16
		note G#, 16
;Channel1_Bar46:
		note G#, 12
		note A_, 4
;Channel1_Bar47:
		note A#, 16
		note A#, 16
;Channel1_Bar48:
		note A#, 16
		note A#, 16
;Channel1_Bar49:
		note D_, 16
		note D_, 16
;Channel1_Bar50:
		octave 4
		note A#, 16
		note A#, 16
		notetype 12, $97
;Channel1_Bar51:
		loopchannel 0, Music_BWWild_Ch1_Loop
		endchannel

; ===========================================================================
Music_BWWild_Ch2:
		dutycycle 1
		notetype 12, $92
;Channel2_Bar1:
		octave 4
		note A#, 2
		note A_, 2
		note G#, 2
		note A_, 2
		note G#, 2
		note G_, 2
		note G#, 2
		note G_, 2
		note F#, 2
		note G_, 2
		note F#, 2
		note F_, 2
		note F#, 2
		note F_, 2
		note E_, 2
		note F_, 2
;Channel2_Bar2:
		note E_, 2
		note D#, 2
		note E_, 2
		note D#, 2
		note D_, 2
		note D#, 2
		note D_, 2
		note C#, 2
		note D_, 2
		note C#, 2
		note C_, 2
		note C#, 2
		note C_, 2
		octave 3
		note B_, 2
		octave 4
		note C_, 2
		octave 3
		note B_, 2
;Channel2_Bar3:
		octave 5
		notetype 12, $A4
		note C_, 4
		notetype 12, $54
		db $EF ; WARNING: unconverted
		db $F0 ; WARNING: unconverted
		note C_, 4
		db $EF ; WARNING: unconverted
		db $0F ; WARNING: unconverted
		note C_, 4
		octave 4
		notetype 12, $A4
		db $EF ; WARNING: unconverted
		db $FF ; WARNING: unconverted
		note G_, 4
		notetype 12, $54
		db $EF ; WARNING: unconverted
		db $F0 ; WARNING: unconverted
		note G_, 4
		db $EF ; WARNING: unconverted
		db $0F ; WARNING: unconverted
		note G_, 4
		octave 5
		notetype 12, $A4
		db $EF ; WARNING: unconverted
		db $FF ; WARNING: unconverted
		note C_, 4
		notetype 12, $54
		db $EF ; WARNING: unconverted
		db $F0 ; WARNING: unconverted
		note C_, 4
;Channel2_Bar4:
		octave 4
		notetype 12, $A4
		db $EF ; WARNING: unconverted
		db $FF ; WARNING: unconverted
		note A#, 4
		notetype 12, $54
		db $EF ; WARNING: unconverted
		db $F0 ; WARNING: unconverted
		note A#, 4
		db $EF ; WARNING: unconverted
		db $0F ; WARNING: unconverted
		note A#, 4
		notetype 12, $A4
		db $EF ; WARNING: unconverted
		db $FF ; WARNING: unconverted
		note A_, 4
		db $EF ; WARNING: unconverted
		db $F0 ; WARNING: unconverted
		notetype 12, $54
		note A_, 4
		octave 5
		notetype 12, $A4
		db $EF ; WARNING: unconverted
		db $FF ; WARNING: unconverted
		note C_, 4
		notetype 12, $54
		db $EF ; WARNING: unconverted
		db $F0 ; WARNING: unconverted
		note C_, 4
		db $EF ; WARNING: unconverted
		db $0F ; WARNING: unconverted
		note C_, 4
		db $EF ; WARNING: unconverted
		db $F0 ; WARNING: unconverted
;Channel2_Bar5:
		notetype 12, $97
		octave 2
		note G_, 8
		octave 3
		note G_, 8
;Channel2_Bar6:
		octave 2
		note G_, 6
		octave 3
		note G_, 10
;Channel2_Bar7:
		octave 4
		notetype 12, $A4
		note G_, 4
		notetype 12, $54
		db $EF ; WARNING: unconverted
		db $F0 ; WARNING: unconverted
		note G_, 4
		db $EF ; WARNING: unconverted
		db $0F ; WARNING: unconverted
		note G_, 4
		octave 5
		notetype 12, $A4
		db $EF ; WARNING: unconverted
		db $FF ; WARNING: unconverted
		note C_, 4
		notetype 12, $54
		db $EF ; WARNING: unconverted
		db $F0 ; WARNING: unconverted
		note C_, 4
		db $EF ; WARNING: unconverted
		db $0F ; WARNING: unconverted
		note C_, 4
		octave 4
		notetype 12, $A4
		db $EF ; WARNING: unconverted
		db $FF ; WARNING: unconverted
		note G_, 4
		notetype 12, $54
		db $EF ; WARNING: unconverted
		db $F0 ; WARNING: unconverted
		note G_, 4
;Channel2_Bar8:
		octave 5
		notetype 12, $A4
		db $EF ; WARNING: unconverted
		db $FF ; WARNING: unconverted
		note D#, 4
		notetype 12, $54
		db $EF ; WARNING: unconverted
		db $F0 ; WARNING: unconverted
		note D#, 4
		db $EF ; WARNING: unconverted
		db $0F ; WARNING: unconverted
		note D#, 4
		notetype 12, $A4
		db $EF ; WARNING: unconverted
		db $FF ; WARNING: unconverted
		note C#, 4
		db $EF ; WARNING: unconverted
		db $F0 ; WARNING: unconverted
		notetype 12, $54
		note C#, 4
		notetype 12, $A4
		db $EF ; WARNING: unconverted
		db $FF ; WARNING: unconverted
		note C_, 4
		notetype 12, $54
		db $EF ; WARNING: unconverted
		db $F0 ; WARNING: unconverted
		note C_, 4
		db $EF ; WARNING: unconverted
		db $0F ; WARNING: unconverted
		note C_, 4
		db $EF ; WARNING: unconverted
		db $0F ; WARNING: unconverted
;Channel2_Bar9:
		notetype 12, $B7
		octave 4
		note C_, 8
		note A#, 8
;Channel2_Bar10:
		note D#, 6
		octave 5
		notetype 12, $BF
		note D#, 10
;Channel2_Bar11:
Music_BWWild_Ch2_Loop:
		notetype 12, $B7
		octave 3
		note C_, 6
		note F_, 6
		note G_, 4
;Channel2_Bar12:
		note A#, 6
		note A_, 4
		note G_, 2
		note F_, 2
		note __, 2
;Channel2_Bar13:
		note D#, 12
		note G_, 1
		note __, 3
;Channel2_Bar14:
		note D#, 2
		note G_, 2
		note __, 2
		note A#, 10
;Channel2_Bar15:
		note A_, 6
		note G_, 6
		note F_, 1
		note __, 3
;Channel2_Bar16:
		note A#, 6
		note A_, 6
		note G_, 1
		note __, 3
;Channel2_Bar17:
		octave 4
		note D#, 8
		note D_, 8
;Channel2_Bar18:
		octave 3
		note G_, 6
		note A#, 6
		note G_, 4
;Channel2_Bar19:
		note D#, 1
		note E_, 1
		note F_, 1
		note F#, 1
		note G_, 1
		note G#, 1
		note A_, 1
		note A#, 1
		note B_, 1
		octave 4
		note C_, 1
		note C#, 1
		note D_, 1
		note D#, 1
		note E_, 1
		note D#, 1
		note D_, 1
;Channel2_Bar20:
		note C#, 1
		note C_, 1
		octave 3
		note B_, 1
		note A#, 1
		note A_, 1
		note G#, 1
		note G_, 1
		note F#, 1
		note F_, 1
		note E_, 1
		note D#, 1
		note E_, 1
		note F_, 1
		note G_, 1
		note A#, 1
		octave 4
		note C_, 1
;Channel2_Bar21:
		note D#, 8
		note F_, 8
;Channel2_Bar22:
		note D#, 6
		note D_, 6
		octave 3
		note A#, 4
;Channel2_Bar23:
		octave 4
		note C_, 14
		note D#, 1
		note E_, 1
;Channel2_Bar24:
		note F_, 16
;Channel2_Bar25:
		db $EF ; WARNING: unconverted
		db $F0 ; WARNING: unconverted
		octave 3
		note D#, 1
		note __, 1
		note F_, 1
		note __, 3
		note G_, 10
;Channel2_Bar26:
		note A#, 6
		note A_, 1
		note G#, 1
		note G_, 8
;Channel2_Bar27:
		note F_, 1
		note __, 1
		note G_, 1
		note __, 3
		note A_, 6
		note F_, 4
;Channel2_Bar28:
		octave 4
		note C_, 6
		octave 3
		note B_, 1
		note A#, 1
		note A_, 8
;Channel2_Bar29:
		note G_, 1
		note __, 1
		note A_, 1
		note __, 3
		note A#, 6
		note G_, 4
;Channel2_Bar30:
		octave 4
		note D#, 6
		note D_, 6
		octave 3
		note A#, 4
;Channel2_Bar31:
		note A_, 14
		note A#, 1
		note B_, 1
;Channel2_Bar32:
		octave 4
		note C_, 16
;Channel2_Bar33:
		db $EF ; WARNING: unconverted
		db $0F ; WARNING: unconverted
		note __, 10
		octave 2
		note A#, 1
		note __, 1
		octave 3
		note D_, 1
		note __, 1
		note D#, 2
;Channel2_Bar34:
		note G_, 6
		note F#, 1
		note F_, 1
		note D#, 8
;Channel2_Bar35:
		note __, 10
		note C_, 1
		note __, 1
		note E_, 1
		note __, 1
		note F_, 2
;Channel2_Bar36:
		note A_, 6
		note G#, 1
		note G_, 1
		note F_, 8
;Channel2_Bar37:
		note __, 10
		note D#, 1
		note __, 1
		note F_, 1
		note __, 1
		note G_, 2
;Channel2_Bar38:
		note A#, 6
		note G#, 1
		note G_, 1
		note F_, 8
;Channel2_Bar39:
		octave 4
		note C_, 1
		note __, 1
		octave 3
		note B_, 1
		note __, 3
		octave 4
		note C_, 1
		note __, 5
		note C_, 1
		note __, 5
;Channel2_Bar40:
		note C_, 1
		note __, 5
		note F_, 1
		note __, 3
		note C_, 4
;Channel2_Bar41:
		notetype 12, $87
		note G#, 5
		note __, 1
		note A#, 5
		note G#, 5
		note A#, 5
		note __, 1
		note G#, 5
		note A#, 5
		note G#, 5
		note __, 1
;Channel2_Bar42:
		note A#, 5
		note G#, 5
		note A#, 5
		note __, 1
		note G#, 5
		note A#, 5
		note F_, 5
		note __, 1
		note G_, 5
;Channel2_Bar43:
		note F_, 5
		note G_, 5
		note __, 1
		note F_, 5
		note G_, 5
		note F_, 5
		note __, 1
		note G_, 5
		note F_, 5
;Channel2_Bar44:
		note G_, 5
		note __, 1
		note F_, 5
		note G_, 5
		note G#, 5
		note __, 1
		note A#, 5
		note G#, 5
		note A#, 5
		note __, 1
;Channel2_Bar45:
		note G#, 5
		note A#, 5
		note G#, 5
		note __, 1
		note A#, 5
		note G#, 5
		note A#, 5
		note __, 1
;Channel2_Bar46:
		note G#, 5
		note A#, 5
		note F_, 5
		note __, 1
		note A#, 5
		note F_, 5
		note A#, 5
		note __, 1
		note F_, 5
;Channel2_Bar47:
		note A#, 5
		note F_, 5
		note __, 1
		note A#, 5
		note F_, 5
		note A#, 5
		note __, 1
		note F_, 5
		note A#, 5
;Channel2_Bar48:
		note F_, 5
		note __, 1
		note A#, 5
		note F_, 5
		note A#, 5
		note __, 1
		note F_, 5
		note A#, 5
		note F_, 5
		note __, 1
;Channel2_Bar49:
		note A#, 5
		note F_, 5
		note A#, 5
		note __, 1
		note F_, 5
		note A#, 5
		loopchannel 0, Music_BWWild_Ch2_Loop
		endchannel

; ===========================================================================
Music_BWWild_Ch3:
		notetype 12, $15
;Channel3_Bar1:
		octave 2
		intensity $12
		note G_, 4
		octave 1
		note G_, 4
		octave 2
		note C#, 3
		note D_, 3
		note D#, 2
		note D_, 3
		note D#, 3
		note E_, 2
		note D#, 3
		note E_, 3
		note F_, 2
;Channel3_Bar2:
		note E_, 3
		note F_, 3
		note F#, 2
		note F_, 3
		note F#, 3
		note G_, 2
		note F#, 3
		note G_, 3
		note G#, 2
		note G_, 3
		note G#, 3
		note A_, 2
;Channel3_Bar3:
		note C_, 4
		note C#, 8
		note C_, 8
		note F#, 4
		note F_, 4
		note D#, 4
;Channel3_Bar4:
		note C_, 4
		note F#, 8
		note F_, 8
		note D#, 4
		note F_, 4
		note D#, 4
;Channel3_Bar5:
		note C_, 2
		note C#, 4
		note C_, 4
		note F#, 2
		note F_, 2
		note D#, 2
;Channel3_Bar6:
		note C_, 2
		note F#, 4
		note F_, 4
		note D#, 2
		note F_, 2
		note D#, 2
;Channel3_Bar7:
		note C_, 4
		note C#, 8
		note C_, 8
		note F#, 4
		note F_, 4
		note D#, 4
;Channel3_Bar8:
		note C_, 4
		note F#, 8
		note F_, 8
		note D#, 4
		note F_, 4
		note D#, 4
;Channel3_Bar9:
		note C_, 2
		note C#, 4
		note C_, 4
;Channel3_Bar10:
		note F#, 2
		note F_, 2
		note D#, 2
		note C_, 2
		note A#, 4
		note G_, 4
;Channel3_Bar11:
		note D#, 2
		note F_, 2
		note G_, 2
Music_BWWild_Ch3_Loop:
		note C_, 2
		note G_, 2
		note C_, 2
		note G_, 2
		note C_, 2
;Channel3_Bar12:
		note G_, 2
		note C_, 2
		note G_, 2
		note C_, 2
		note G_, 2
		note C_, 2
		note G_, 2
		note C_, 2
;Channel3_Bar13:
		note G_, 2
		note C_, 2
		note G_, 2
		note D#, 2
		note G_, 2
		note D#, 2
		note G_, 2
		note D#, 2
;Channel3_Bar14:
		note G_, 2
		note D#, 2
		note G_, 2
		note D#, 2
		note G_, 2
		note D#, 2
		note G_, 2
		note D#, 2
;Channel3_Bar15:
		note G_, 2
		note D#, 2
		note G_, 2
		note F_, 2
		note A_, 2
		note F_, 2
		note A_, 2
		note F_, 2
;Channel3_Bar16:
		note A_, 2
		note F_, 2
		note A_, 2
		note D#, 2
		note G_, 2
		note D#, 2
		note G_, 2
		note D#, 2
;Channel3_Bar17:
		note G_, 2
		note D#, 2
		note G_, 2
		note C_, 2
		note G_, 2
		octave 3
		note C_, 2
		octave 2
		note G_, 2
		note C_, 2
;Channel3_Bar18:
		octave 3
		note C_, 2
		octave 2
		note C_, 2
		note G_, 2
		note D#, 2
		note G_, 2
		note D#, 2
		note G_, 2
		note D#, 2
;Channel3_Bar19:
		note G_, 2
		note D#, 2
		note G_, 2
		note F_, 2
		note A_, 2
		note F_, 2
		note A_, 2
		note F_, 2
;Channel3_Bar20:
		note A_, 2
		note F_, 2
		note A_, 2
		note F_, 2
		octave 3
		note C_, 2
		octave 2
		note F_, 2
		octave 3
		note C_, 2
		octave 2
		note F_, 2
;Channel3_Bar21:
		octave 3
		note C_, 2
		octave 2
		note F_, 2
		note G_, 2
		note C_, 2
		note G_, 2
		octave 3
		note C_, 2
		octave 2
		note G_, 2
		note A_, 2
;Channel3_Bar22:
		octave 3
		note C_, 2
		octave 2
		note C_, 2
		note F_, 2
		note D#, 2
		note G_, 2
		note D#, 2
		note G_, 2
		note D#, 2
;Channel3_Bar23:
		note G_, 2
		note D#, 2
		note G_, 2
		note F_, 2
		note A_, 2
		note F_, 2
		note A_, 2
		note F_, 2
;Channel3_Bar24:
		note A_, 2
		note F_, 2
		note A_, 2
		note F_, 2
		note A_, 2
		note F_, 2
		note A_, 2
		note F_, 2
;Channel3_Bar25:
		note A_, 2
		note F_, 2
		note A_, 2
		note D#, 2
		note G_, 2
		note D#, 2
		note G_, 2
		note D#, 2
;Channel3_Bar26:
		note G_, 2
		note F#, 2
		note G_, 2
		note D#, 2
		note G_, 2
		note D#, 2
		note G_, 2
		note D#, 2
;Channel3_Bar27:
		note G_, 2
		note F#, 2
		note G_, 2
		note F_, 2
		note A_, 2
		note F_, 2
		note A_, 2
		note F_, 2
;Channel3_Bar28:
		note A_, 2
		note F_, 2
		note A_, 2
		note F_, 2
		note A_, 2
		note F_, 2
		note A_, 2
		note F_, 2
;Channel3_Bar29:
		note A_, 2
		note F_, 2
		note A_, 2
		note D#, 2
		note G_, 2
		note D#, 2
		note G_, 2
		note D#, 2
;Channel3_Bar30:
		note G_, 2
		note D#, 2
		note G_, 2
		note D#, 2
		note G_, 2
		note D#, 2
		note G_, 2
		note D#, 2
;Channel3_Bar31:
		note G_, 2
		note D#, 2
		note G_, 2
		note F_, 2
		note A_, 2
		note F_, 2
		note A_, 2
		note F_, 2
;Channel3_Bar32:
		note A_, 2
		note F_, 2
		note A_, 2
		note F_, 2
		note C_, 2
		note F_, 2
		note C_, 2
		note F_, 2
;Channel3_Bar33:
		note C_, 2
		note F_, 2
		note C_, 2
		note D#, 2
		note G_, 2
		note D#, 2
		note G_, 2
		note D#, 2
;Channel3_Bar34:
		note G_, 2
		note D#, 2
		note G_, 2
		note D#, 2
		note G_, 2
		note D#, 2
		note G_, 2
		note D#, 2
;Channel3_Bar35:
		note G_, 2
		note D#, 2
		note G_, 2
		note F_, 2
		note A_, 2
		note F_, 2
		note A_, 2
		note F_, 2
;Channel3_Bar36:
		note A_, 2
		note F_, 2
		note A_, 2
		note F_, 2
		note A_, 2
		note F_, 2
		note A_, 2
		note F_, 2
;Channel3_Bar37:
		note A_, 2
		note F_, 2
		note A_, 2
		note D#, 2
		note G_, 2
		note D#, 2
		note G_, 2
		note D#, 2
;Channel3_Bar38:
		note G_, 2
		note D#, 2
		note G_, 2
		note D#, 2
		note G_, 2
		note D_, 2
		note A_, 2
		note C_, 2
;Channel3_Bar39:
		note A#, 2
		octave 1
		note A#, 2
		octave 3
		note C_, 2
		octave 2
		note C_, 2
		note F_, 2
		note A_, 2
		note C_, 2
		note F_, 2
;Channel3_Bar40:
		note A_, 2
		note F_, 2
		note A_, 2
		note C_, 2
		octave 3
		note C_, 4
		octave 2
		note A_, 4
;Channel3_Bar41:
		note F_, 2
		note C_, 4
;----x2 tempo
		note D#, 4
		note G#, 4
		note D#, 4
		note G#, 4
		note D#, 4
;Channel3_Bar42:
		note G#, 4
		note D#, 4
		note G#, 4
		note D#, 4
		note A#, 8
		note G#, 8
;Channel3_Bar43:
		note D#, 4
		note G#, 4
		note D#, 4
		note C_, 4
		note F_, 4
		note C_, 4
		note F_, 4
		note C_, 4
;Channel3_Bar44:
		note F_, 4
		note C_, 4
		note F_, 4
		note C_, 4
		note G_, 8
		note F_, 8
;Channel3_Bar45:
		note C_, 4
		note D#, 4
		note F_, 4
		note D#, 4
		note G#, 4
		note D#, 4
		note G#, 4
		note D#, 4
;Channel3_Bar46:
		note G#, 4
		note D#, 4
		note G#, 4
		note D#, 4
		octave 3
		note C_, 8
		octave 2
		note A#, 8
;Channel3_Bar47:
		note G#, 4
		note D#, 4
		note G#, 4
		note F_, 4
		note A#, 4
		note F_, 4
		note A#, 4
		note F_, 4
;Channel3_Bar48:
		note A#, 4
		note F_, 4
		note A#, 4
		note F_, 4
		octave 3
		note F_, 8
		note D_, 8
;Channel3_Bar49:
		octave 2
		note A#, 4
		octave 3
		note D_, 4
		note F_, 4
		octave 2
		note F_, 4
		note A#, 4
		note F_, 4
		note A#, 4
		note F_, 4
;Channel3_Bar50:
		note A#, 4
		note F_, 4
		note A#, 4
		octave 1
		note A#, 4
		octave 2
		note F_, 8
		note A#, 8
;Channel3_Bar51:
		note D_, 4
		octave 1
		note A#, 4
		octave 2
		note D_, 4
		loopchannel 0, Music_BWWild_Ch3_Loop
		endchannel

; ===========================================================================
Music_BWWild_Ch4:
		notetype $C
		togglenoise 5
;Channel4_Bar1:
		note D_, 4
		note D_, 16
		note __, 16
		note __, 12
;Channel4_Bar2:
		note D_, 4
		note D_, 4
		note D_, 2
		note D_, 2
		note D_, 2
		note D_, 2
;Channel4_Bar3:
		note D_, 4
		note C#, 4
		note D_, 8
		note D_, 4
		note C#, 4
		note D_, 4
		note D_, 4
;Channel4_Bar4:
		note D_, 8
		note D_, 8
		note D_, 8
		note D_, 4
		note D_, 4
;Channel4_Bar5:
		note D_, 2
		note C#, 2
		note D_, 4
		note D_, 2
		note C#, 2
		note D_, 2
		note D_, 2
;Channel4_Bar6:
		note D_, 4
		note D_, 4
		note D_, 4
		note D_, 4
;Channel4_Bar7:
		note D_, 8
		note D_, 8
		note D_, 8
		note D_, 8
;Channel4_Bar8:
		note D_, 8
		note D_, 8
		note D_, 8
		note D_, 8
;Channel4_Bar9:
		note D_, 4
		note D_, 4
		note D_, 4
		note D_, 4
;Channel4_Bar10:
		note D_, 4
		note D_, 4
		note D_, 2
		note C_, 2
		note D_, 1
		note D_, 1
		note D_, 1
		note D_, 1
;Channel4_Bar11:
Music_BWWild_Ch4_Loop:
		note D_, 4
		note C_, 4
		note D_, 4
		note C_, 4
;Channel4_Bar12:
		note D_, 2
		note D_, 2
		note C_, 4
		note D_, 2
		note D_, 2
		note C_, 4
;Channel4_Bar13:
		note D_, 4
		note C_, 4
		note D_, 2
		note D_, 2
		note C_, 4
;Channel4_Bar14:
		note D_, 2
		note D_, 2
		note C_, 4
		note D_, 2
		note D_, 2
		note C_, 2
		note C_, 2
;Channel4_Bar15:
		note D_, 2
		note D_, 4
		note C_, 4
		note D_, 2
		note C_, 4
;Channel4_Bar16:
		note D_, 4
		note C_, 4
		note D_, 2
		note D_, 1
		note D_, 1
		note C_, 4
;Channel4_Bar17:
		note D_, 2
		note D_, 2
		note C_, 4
		note D_, 2
		note D_, 1
		note D_, 1
		note C_, 4
;Channel4_Bar18:
		note D_, 4
		note D_, 4
		note D_, 2
		note D_, 2
		note C_, 2
		note C_, 2
;Channel4_Bar19:
		note D_, 4
		note C_, 2
		note D_, 4
		note D_, 2
		note C_, 4
;Channel4_Bar20:
		note D_, 4
		note C_, 2
		note D_, 4
		note D_, 2
		note C_, 2
		note C_, 2
;Channel4_Bar21:
		note D_, 2
		note D_, 2
		note C_, 4
		note D_, 2
		note D_, 2
		note C_, 4
;Channel4_Bar22:
		note C_, 2
		note D_, 2
		note D_, 2
		note C_, 2
		note D_, 2
		note D_, 2
		note C_, 2
		note D_, 2
;Channel4_Bar23:
		note D_, 4
		note C_, 4
		note D_, 2
		note D_, 2
		note C_, 4
;Channel4_Bar24:
		note D_, 2
		note D_, 2
		note C_, 2
		note D_, 2
		note D_, 2
		note D_, 2
		note C_, 2
		note C_, 1
		note C_, 1
;Channel4_Bar25:
		note D_, 4
		note D_, 2
		note C_, 4
		note D_, 2
		note C_, 4
;Channel4_Bar26:
		note D_, 4
		note C_, 4
		note D_, 2
		note D_, 2
		note C_, 4
;Channel4_Bar27:
		note D_, 2
		note D#, 2
		note C_, 2
		note D_, 4
		note D_, 2
		note D_, 2
		note C_, 1
		note C_, 1
;Channel4_Bar28:
		note D_, 4
		note C_, 4
		note D_, 2
		note D_, 2
		note C_, 4
;Channel4_Bar29:
		note D_, 2
		note D_, 4
		note C_, 2
		note D_, 2
		note D_, 2
		note C_, 4
;Channel4_Bar30:
		note D_, 4
		note C_, 4
		note D_, 2
		note D_, 2
		note C_, 4
;Channel4_Bar31:
		note D_, 4
		note C_, 4
		note D_, 2
		note D_, 2
		note C_, 4
;Channel4_Bar32:
		note D_, 4
		note C_, 4
		note D_, 2
		note C_, 1
		note C_, 1
		note C_, 2
		note C_, 1
		note C_, 1
;Channel4_Bar33:
		note D_, 4
		note C_, 4
		note D_, 2
		note D_, 2
		note C_, 2
		note D_, 2
;Channel4_Bar34:
		note D_, 4
		note C_, 4
		note D_, 2
		note D_, 2
		note C_, 4
;Channel4_Bar35:
		note D_, 4
		note C_, 4
		note D_, 2
		note D_, 2
		note C_, 4
;Channel4_Bar36:
		note D_, 4
		note C_, 4
		note D_, 2
		note D_, 2
		note C_, 4
;Channel4_Bar37:
		note D_, 4
		note C_, 4
		note D_, 2
		note D_, 2
		note C_, 4
;Channel4_Bar38:
		note D_, 4
		note C_, 4
		note D_, 2
		note D_, 2
		note C_, 4
;Channel4_Bar39:
		note D_, 2
		note D_, 2
		note D_, 2
		note C_, 2
		note D_, 2
		note D_, 2
		note C_, 2
		note C_, 2
;Channel4_Bar40:
		note D_, 2
		note C_, 2
		note D_, 2
		note D_, 2
		note C_, 2
		note D_, 2
		note D_, 2
		note C_, 2
;Channel4_Bar41:
		note D_, 8
		note C_, 8
		note D_, 4
		note D_, 4
		note C_, 8
;Channel4_Bar42:
		note D_, 8
		note C_, 8
		note D_, 4
		note D_, 4
		note C_, 8
;Channel4_Bar43:
		note D_, 8
		note C_, 8
		note D_, 4
		note D_, 4
		note C_, 8
;Channel4_Bar44:
		note D_, 8
		note C_, 8
		note D_, 4
		note D_, 4
		note C_, 8
;Channel4_Bar45:
		note D_, 8
		note C_, 8
		note D_, 4
		note D_, 4
		note C_, 8
;Channel4_Bar46:
		note D_, 8
		note C_, 8
		note D_, 4
		note D_, 4
		note C_, 8
;Channel4_Bar47:
		note D_, 8
		note C_, 8
		note D_, 4
		note D_, 4
		note C_, 8
;Channel4_Bar48:
		note D_, 8
		note C_, 8
		note D_, 4
		note D_, 4
		note C_, 8
;Channel4_Bar49:
		note C_, 4
		note D_, 4
		note D_, 4
		note C_, 4
		note D_, 4
		note D_, 4
		note C_, 4
		note D_, 4
;Channel4_Bar50:
		note D_, 4
		note C_, 4
		note D_, 4
		note D_, 4
		note C_, 4
		note C_, 4
		note D_, 4
		note C_, 4
;Channel4_Bar51:
		loopchannel 0, Music_BWWild_Ch4_Loop
		endchannel