Music_CastleRoute:
	musicheader 4, 1, Music_CastleRoute_Ch1
	musicheader 1, 2, Music_CastleRoute_Ch2
	musicheader 1, 3, Music_CastleRoute_Ch3
	musicheader 1, 4, Music_CastleRoute_Ch4

Music_CastleRoute_Ch1:
	tempo $80
	volume $77
	stereopanning $77
Music_CastleRoute_Ch1_loop:
	sound_duty $10
	octave 3
	notetype $C, $C1
	note E_, 1
	intensity $91
	note E_, 1
	intensity $C1
	note B_, 1
	intensity $91
	note B_, 1
	intensity $C1
	octave 4
	note E_, 1
	intensity $91
	note E_, 1
	intensity $C1
	note G_, 1
	intensity $91
	note G_, 1
	intensity $C1
	note E_, 1
	intensity $91
	note E_, 1
	intensity $C1
	octave 3
	note B_, 1
	intensity $91
	note B_, 1
	intensity $C1
	note E_, 1
	intensity $91
	note E_, 1
	intensity $C1
	note B_, 1
	intensity $91
	note B_, 1
	intensity $C1
	octave 4
	note E_, 1
	intensity $91
	note E_, 1
	intensity $C1
	note G_, 1
	intensity $91
	note G_, 1
	intensity $C1
	note E_, 1
	intensity $91
	note E_, 1
	intensity $C1
	octave 3
	note B_, 1
	intensity $91
	note B_, 1
	intensity $C1
	note G_, 1
	intensity $91
	note G_, 1
	intensity $C1
	note B_, 1
	intensity $91
	note B_, 1
	intensity $C1
	octave 4
	note E_, 1
	intensity $91
	note E_, 1
	intensity $C1
	note G_, 1
	intensity $91
	note G_, 1
	intensity $C1
	note E_, 1
	intensity $91
	note E_, 1
	intensity $C1
	octave 3
	note B_, 1
	intensity $91
	note B_, 1
	intensity $C1
	note A_, 1
	intensity $91
	note A_, 1
	intensity $C1
	octave 4
	note E_, 1
	intensity $91
	note E_, 1
	intensity $C1
	note A_, 1
	intensity $91
	note A_, 1
	intensity $C1
	note B_, 1
	intensity $91
	note B_, 1
	intensity $C1
	note A_, 1
	intensity $91
	note A_, 1
	intensity $C1
	note E_, 1
	intensity $91
	note E_, 1
	intensity $C1
	octave 3
	note E_, 1
	intensity $91
	note E_, 1
	intensity $C1
	note B_, 1
	intensity $91
	note B_, 1
	intensity $C1
	octave 4
	note E_, 1
	intensity $91
	note E_, 1
	intensity $C1
	note G_, 1
	intensity $91
	note G_, 1
	intensity $C1
	note E_, 1
	intensity $91
	note E_, 1
	intensity $C1
	octave 3
	note B_, 1
	intensity $91
	note B_, 1
	intensity $C1
	note E_, 1
	intensity $91
	note E_, 1
	intensity $C1
	note B_, 1
	intensity $91
	note B_, 1
	intensity $C1
	octave 4
	note E_, 1
	intensity $91
	note E_, 1
	intensity $C1
	note G_, 1
	intensity $91
	note G_, 1
	intensity $C1
	note E_, 1
	intensity $91
	note E_, 1
	intensity $C1
	octave 3
	note B_, 1
	intensity $91
	note B_, 1
	intensity $C1
	note G_, 1
	intensity $91
	note G_, 1
	intensity $C1
	note B_, 1
	intensity $91
	note B_, 1
	intensity $C1
	octave 4
	note E_, 1
	intensity $91
	note E_, 1
	intensity $C1
	note G_, 1
	intensity $91
	note G_, 1
	intensity $C1
	note E_, 1
	intensity $91
	note E_, 1
	intensity $C1
	octave 3
	note B_, 1
	intensity $91
	note B_, 1
	intensity $C1
	note A_, 1
	intensity $91
	note A_, 1
	intensity $C1
	octave 4
	note E_, 1
	intensity $91
	note E_, 1
	intensity $C1
	note A_, 1
	intensity $91
	note A_, 1
	intensity $C1
	note B_, 1
	intensity $91
	note B_, 1
	intensity $C1
	note A_, 1
	intensity $91
	note A_, 1
	intensity $C1
	note E_, 1
	intensity $91
	note E_, 1
	sound_duty $55
	intensity $C6
	octave 2
	note B_, 2
	octave 3
	note D_, 2
	note E_, 2
	note A_, 14
	note __, 4
	note D_, 2
	note E_, 2
	note G_, 2
	octave 4
	note D_, 6
	intensity $D7
	octave 3
	note E_, 6
	note D_, 6
	intensity $C6
	octave 2
	note B_, 2
	octave 3
	note D_, 2
	note E_, 2
	note A_, 14
	note __, 4
	note D_, 2
	note E_, 2
	note G_, 2
	octave 4
	note D_, 6
	intensity $D7
	octave 3
	note A_, 6
	octave 4
	note F#, 6
	sound_duty $10
	intensity $C1
	octave 3
	note E_, 1
	intensity $91
	note E_, 1
	intensity $C1
	note B_, 1
	intensity $91
	note B_, 1
	intensity $C1
	octave 4
	note E_, 1
	intensity $91
	note E_, 1
	intensity $C1
	note G_, 1
	intensity $91
	note G_, 1
	intensity $C1
	note E_, 1
	intensity $91
	note E_, 1
	intensity $C1
	octave 3
	note B_, 1
	intensity $91
	note B_, 1
	intensity $C1
	note E_, 1
	intensity $91
	note E_, 1
	intensity $C1
	note B_, 1
	intensity $91
	note B_, 1
	intensity $C1
	octave 4
	note E_, 1
	intensity $91
	note E_, 1
	intensity $C1
	note G_, 1
	intensity $91
	note G_, 1
	intensity $C1
	note E_, 1
	intensity $91
	note E_, 1
	intensity $C1
	octave 3
	note B_, 1
	intensity $91
	note B_, 1
	intensity $C1
	note G_, 1
	intensity $91
	note G_, 1
	intensity $C1
	note B_, 1
	intensity $91
	note B_, 1
	intensity $C1
	octave 4
	note E_, 1
	intensity $91
	note E_, 1
	intensity $C1
	note G_, 1
	intensity $91
	note G_, 1
	intensity $C1
	note E_, 1
	intensity $91
	note E_, 1
	intensity $C1
	octave 3
	note B_, 1
	intensity $91
	note B_, 1
	intensity $C1
	note A_, 1
	intensity $91
	note A_, 1
	intensity $C1
	octave 4
	note E_, 1
	intensity $91
	note E_, 1
	intensity $C1
	note A_, 1
	intensity $91
	note A_, 1
	intensity $C1
	note B_, 1
	intensity $91
	note B_, 1
	intensity $C1
	note A_, 1
	intensity $91
	note A_, 1
	intensity $C1
	note E_, 1
	intensity $91
	note E_, 1
	intensity $C1
	octave 3
	note E_, 1
	intensity $91
	note E_, 1
	intensity $C1
	note B_, 1
	intensity $91
	note B_, 1
	intensity $C1
	octave 4
	note E_, 1
	intensity $91
	note E_, 1
	intensity $C1
	note G_, 1
	intensity $91
	note G_, 1
	intensity $C1
	note E_, 1
	intensity $91
	note E_, 1
	intensity $C1
	octave 3
	note B_, 1
	intensity $91
	note B_, 1
	intensity $C1
	note E_, 1
	intensity $91
	note E_, 1
	intensity $C1
	note B_, 1
	intensity $91
	note B_, 1
	intensity $C1
	octave 4
	note E_, 1
	intensity $91
	note E_, 1
	intensity $C1
	note G_, 1
	intensity $91
	note G_, 1
	intensity $C1
	note E_, 1
	intensity $91
	note E_, 1
	intensity $C1
	octave 3
	note B_, 1
	intensity $91
	note B_, 1
	intensity $C1
	note G_, 1
	intensity $91
	note G_, 1
	intensity $C1
	note B_, 1
	intensity $91
	note B_, 1
	intensity $C1
	octave 4
	note E_, 1
	intensity $91
	note E_, 1
	intensity $C1
	note G_, 1
	intensity $91
	note G_, 1
	intensity $C1
	note E_, 1
	intensity $91
	note E_, 1
	intensity $C1
	octave 3
	note B_, 1
	intensity $91
	note B_, 1
	intensity $C1
	note A_, 1
	intensity $91
	note A_, 1
	intensity $C1
	octave 4
	note E_, 1
	intensity $91
	note E_, 1
	intensity $C1
	note A_, 1
	intensity $91
	note A_, 1
	intensity $C1
	note B_, 1
	intensity $91
	note B_, 1
	intensity $C1
	note A_, 1
	intensity $91
	note A_, 1
	intensity $C1
	note E_, 1
	intensity $91
	note E_, 1
	sound_duty $00
	intensity $D7
	vibrato $04, $24
	octave 3
	note E_, 12
	note A_, 12
	note B_, 12
	note D_, 12
	note F#, 12
	note F#, 12
	note F#, 12
	note A_, 12
	loopchannel 0, Music_CastleRoute_Ch1_loop

Music_CastleRoute_Ch2:
	sound_duty $55
	octave 3
	notetype $C, $D2
	note B_, 4
	intensity $84
	note B_, 2
	intensity $D2
	note A_, 4
	intensity $84
	note A_, 2
	intensity $D2
	note G_, 4
	intensity $84
	note G_, 2
	intensity $D2
	note F#, 4
	intensity $84
	note F#, 2
Music_CastleRoute_Ch2_loop:
	intensity $D2
	note B_, 4
	intensity $84
	note B_, 2
	intensity $D2
	note G_, 4
	intensity $84
	note G_, 2
	intensity $D2
	note A_, 4
	intensity $84
	note A_, 2
	intensity $D2
	note D_, 4
	intensity $84
	note D_, 2
	intensity $D2
	note B_, 4
	intensity $84
	note B_, 2
	intensity $D2
	note A_, 4
	intensity $84
	note A_, 2
	intensity $D2
	note G_, 4
	intensity $84
	note G_, 2
	intensity $D2
	note F#, 4
	intensity $84
	note F#, 2
	intensity $D2
	note B_, 4
	intensity $84
	note B_, 2
	intensity $D2
	note G_, 4
	intensity $84
	note G_, 2
	intensity $D2
	note D_, 4
	intensity $84
	note D_, 2
	intensity $D2
	note F#, 4
	intensity $84
	note F#, 2
	intensity $D2
	octave 4
	note E_, 2
	note __, 1
	note E_, 1
	note E_, 2
	intensity $D7
	vibrato $02, $24
	note B_, 16
	note __, 2
	intensity $D1
	note G_, 2
	note __, 1
	note G_, 1
	note G_, 2
	intensity $D7
	note B_, 6
	note A_, 6
	note F#, 6
	sound_duty $00
	note E_, 2
	note __, 1
	note E_, 1
	note E_, 2
	note B_, 16
	note __, 2
	intensity $D1
	note G_, 2
	note __, 1
	note G_, 1
	note G_, 2
	intensity $D7
	note B_, 6
	sound_duty $55
	note F#, 6
	note A_, 6
	sound_duty $BA
	intensity $B1
	vibrato $00, $00
	octave 5
	note G_, 2
	note E_, 2
	note G_, 2
	note G_, 2
	note E_, 2
	note G_, 2
	note G_, 2
	note E_, 2
	note G_, 2
	note A_, 2
	note G_, 2
	note E_, 2
	intensity $91
	octave 6
	note D_, 2
	note D_, 2
	note D_, 2
	note E_, 2
	note D_, 2
	intensity $B1
	octave 5
	note A_, 2
	intensity $91
	octave 6
	note D_, 2
	note D_, 2
	note D_, 2
	intensity $B1
	octave 5
	note F#, 2
	note F#, 2
	note F#, 2
	note G_, 2
	note E_, 2
	note G_, 2
	note G_, 2
	note E_, 2
	note G_, 2
	note G_, 2
	note E_, 2
	note G_, 2
	note A_, 2
	note G_, 2
	note E_, 2
	intensity $91
	octave 6
	note D_, 2
	note D_, 2
	note D_, 2
	note E_, 2
	note D_, 2
	intensity $B1
	octave 5
	note A_, 2
	intensity $91
	octave 6
	note D_, 2
	note D_, 2
	note D_, 2
	intensity $B1
	octave 5
	note F#, 2
	note F#, 2
	note F#, 2
	sound_duty $55
	intensity $D7
	vibrato $04, $24
	octave 4
	note G_, 12
	note F#, 12
	note E_, 12
	octave 3
	note B_, 12
	octave 4
	note D_, 12
	octave 3
	note A_, 12
	octave 4
	note D_, 12
	note F#, 12
	intensity $D0
	note G_, 12
	intensity $D7
	note G_, 12
	octave 3
	vibrato $00, $00
	loopchannel 0, Music_CastleRoute_Ch2_loop

Music_CastleRoute_Ch3:
Music_CastleRoute_Ch3_loop:
	dutycycle 6
	octave 3
	notetype $C, $16
	note E_, 12
	vibrato $00, $24
	note E_, 12
	note B_, 12
	note D_, 12
	note E_, 12
	note E_, 12
	note B_, 12
	note D_, 12
	dutycycle 8
	intensity $18
	vibrato $00, $22
	octave 4
	note G_, 2
	note E_, 2
	octave 3
	note B_, 2
	octave 4
	note G_, 2
	note E_, 2
	octave 3
	note B_, 2
	octave 4
	note G_, 2
	note E_, 2
	octave 3
	note B_, 2
	octave 4
	note G_, 2
	note E_, 2
	octave 3
	note B_, 2
	octave 4
	note G_, 2
	note E_, 2
	note D_, 2
	note G_, 2
	note E_, 2
	note D_, 2
	octave 2
	note A_, 6
	octave 3
	note A_, 6
	octave 4
	note G_, 2
	note E_, 2
	octave 3
	note B_, 2
	octave 4
	note G_, 2
	note E_, 2
	octave 3
	note B_, 2
	octave 4
	note G_, 2
	note E_, 2
	octave 3
	note B_, 2
	octave 4
	note G_, 2
	note E_, 2
	octave 3
	note B_, 2
	octave 4
	note G_, 2
	note E_, 2
	note D_, 2
	note G_, 2
	note E_, 2
	note D_, 2
	note A_, 2
	note F#, 2
	note D_, 2
	note A_, 2
	note B_, 2
	octave 5
	note D_, 2
	dutycycle 2
	intensity $12
	vibrato $00, $14
	note G_, 2
	note E_, 2
	note G_, 2
	note A_, 2
	note G_, 2
	note A_, 2
	note B_, 4
	note G_, 2
	note E_, 6
	octave 6
	note C_, 2
	note D_, 2
	note D_, 2
	octave 5
	note A_, 2
	note G_, 2
	note F#, 2
	note D_, 6
	note F#, 6
	note G_, 2
	note E_, 2
	note G_, 2
	note A_, 2
	note G_, 2
	note A_, 2
	note B_, 4
	note G_, 2
	note E_, 6
	octave 6
	note C_, 2
	note D_, 2
	note D_, 2
	octave 5
	note A_, 2
	note G_, 2
	note F#, 2
	octave 6
	note D_, 6
	octave 5
	note A_, 6
	note B_, 10
	note E_, 1
	note F_, 1
	note F#, 10
	note F_, 2
	note E_, 2
	octave 4
	note B_, 2
	octave 5
	note E_, 2
	note F#, 2
	note E_, 2
	note F#, 2
	note G_, 2
	note D_, 2
	octave 4
	note B_, 2
	note A_, 2
	note G_, 2
	note D_, 2
	octave 3
	note A_, 10
	note B_, 1
	octave 4
	note C_, 1
	note D_, 10
	note C#, 1
	note D_, 1
	note F#, 10
	note A_, 1
	octave 5
	note D_, 1
	note A_, 12
	vibrato $00, $00
	loopchannel 0, Music_CastleRoute_Ch3_loop

Music_CastleRoute_Ch4:
	togglenoise 4
Music_CastleRoute_Ch4_loop:
	notetype $C
	note D_, 2
	note A#, 1
	note A_, 1
	note G#, 1
	note __, 1
	note B_, 1
	note __, 1
	note G#, 1
	note __, 1
	note G#, 1
	note __, 1
	loopchannel 0, Music_CastleRoute_Ch4_loop
