;demix by Froggestspirit
Music_CipherPeon:
	musicheader 4, 1, Music_CipherPeon_Ch1
	musicheader 1, 2, Music_CipherPeon_Ch2
	musicheader 1, 3, Music_CipherPeon_Ch3
	musicheader 1, 4, Music_CipherPeon_Ch4

Music_CipherPeon_Ch1:
	tempo $83
	volume $77
	stereopanning $77
	notetype $C, $00
	note __, 16
	note __, 16
	note __, 16
	note __, 15
Music_CipherPeon_Ch1_loop:
	notetype $8, $B7
	note __, 1
	dutycycle 1
	octave 3
	note A_, 16
	note __, 1
	notetype $6, $B7
	note __, 1
	notetype $8, $B2
	note B_, 3
	note A_, 6
	note G_, 6
	note E_, 6
	note E_, 6
	notetype $E, $B7
	note F_, 12
	dutycycle 0
	notetype $C, $B2
	note B_, 2
	note A_, 4
	note G_, 4
	note E_, 4
	notetype $E, $B2
	note E_, 5
	dutycycle 1
	intensity $B7
	note A_, 10
	notetype $1, $B2
	note __, 2
	notetype $C, $B2
	note B_, 2
	note A_, 4
	note G_, 4
	note E_, 4
	note E_, 4
	intensity $B7
	note F_, 14
	dutycycle 0
	intensity $B2
	note B_, 2
	note A_, 4
	note G_, 4
	note E_, 4
	notetype $E, $B2
	note E_, 5
	dutycycle 1
	intensity $B7
	note A_, 10
	notetype $1, $B2
	note __, 2
	octave 4
	notetype $D, $B2
	note C_, 2
	octave 3
	note B_, 3
	notetype $1, $B2
	note __, 7
	notetype $C, $B2
	note A_, 4
	note A_, 4
	note B_, 6
	octave 4
	intensity $B7
	note D_, 11
	notetype $1, $B7
	note __, 10
	notetype $C, $B2
	note F_, 2
	note D_, 4
	note D_, 4
	note D_, 4
	note D_, 6
	intensity $B7
	note D_, 16
	note __, 3
	notetype $1, $B7
	note __, 10
	notetype $C, $B2
	note D_, 4
	note D_, 2
	note D_, 4
	notetype $D, $B2
	note D_, 2
	intensity $B7
	note E_, 16
	note __, 13
	notetype $1, $B7
	note __, 3
	notetype $D, $B7
	note C_, 10
	notetype $1, $B7
	note __, 12
	notetype $C, $B2
	note D_, 2
	note C_, 4
	octave 3
	note B_, 4
	note G_, 4
	note G_, 4
	intensity $B7
	note A_, 14
	dutycycle 0
	intensity $B2
	octave 4
	note D_, 2
	note C_, 4
	octave 3
	note B_, 4
	note G_, 4
	notetype $E, $B2
	note G_, 5
	dutycycle 1
	octave 4
	intensity $B7
	note C_, 10
	notetype $1, $B2
	note __, 2
	notetype $C, $B2
	note D_, 2
	note C_, 4
	octave 3
	note B_, 4
	note G_, 4
	note G_, 4
	intensity $B7
	note A_, 14
	dutycycle 0
	intensity $B2
	octave 4
	note D_, 2
	note C_, 4
	octave 3
	note B_, 4
	note G_, 4
	notetype $E, $B2
	note G_, 5
	dutycycle 1
	octave 4
	intensity $B7
	note C_, 10
	notetype $1, $B2
	note __, 2
	notetype $D, $B2
	note E_, 2
	note D_, 3
	notetype $1, $B2
	note __, 7
	notetype $C, $B2
	note C_, 4
	note C_, 4
	note D_, 6
	intensity $B7
	note F_, 11
	notetype $1, $B7
	note __, 10
	notetype $C, $B7
	intensity $B2
	note A_, 2
	notetype $A, $B2
	note G_, 5
	note F_, 4
	notetype $6, $B2
	note F_, 1
	note F_, 8
	intensity $B7
	note G_, 12
	note A_, 16
	note __, 16
	note __, 7
	notetype $1, $B7
	note __, 4
	notetype $6, $B2
	note F_, 8
	note F_, 4
	note G_, 8
	notetype $D, $B2
	note A_, 2
	intensity $B7
	note G_, 16
	note __, 13
	notetype $1, $B7
	note __, 3
	dutycycle 2
	octave 5
	notetype $C, $81
	note D_, 1
	note A_, 1
	octave 6
	note E_, 1
	note D_, 1
	note A_, 1
	note G_, 1
	note D_, 1
	notetype $A, $81
	note E_, 1
	notetype $C, $81
	note A_, 1
	octave 7
	note D_, 1
	octave 6
	note A_, 1
	note E_, 1
	note A_, 1
	note E_, 1
	note C_, 1
	octave 5
	note A_, 1
	octave 6
	note C_, 1
	octave 5
	note A_, 1
	octave 6
	note D_, 1
	note C_, 1
	note E_, 1
	note C_, 1
	note D_, 1
	note E_, 1
	octave 5
	note A_, 1
	octave 6
	note E_, 1
	note A_, 1
	octave 7
	note C#, 1
	octave 6
	note A_, 1
	note D_, 1
	note C_, 1
	octave 5
	note A_, 1
	note D_, 1
	note B_, 1
	note G_, 1
	octave 6
	note D_, 1
	note B_, 1
	note G_, 1
	note D_, 1
	notetype $A, $81
	note E_, 1
	notetype $C, $81
	note B_, 1
	note G_, 1
	note D_, 1
	note B_, 1
	note G_, 1
	note D_, 1
	octave 5
	note B_, 1
	note G_, 1
	note B_, 1
	note G_, 1
	octave 6
	note D_, 1
	octave 5
	note B_, 1
	octave 6
	note G_, 1
	note D_, 1
	octave 5
	note A_, 1
	note B_, 1
	octave 6
	note D_, 1
	note G_, 1
	note B_, 1
	note G_, 1
	note B_, 1
	note G_, 1
	note D_, 1
	octave 5
	note B_, 1
	note D_, 1
	note A_, 1
	octave 6
	note E_, 1
	note D_, 1
	note A_, 1
	note G_, 1
	note D_, 1
	notetype $A, $81
	note E_, 1
	notetype $C, $81
	note A_, 1
	octave 7
	note D_, 1
	octave 6
	note A_, 1
	note E_, 1
	note A_, 1
	note E_, 1
	note C_, 1
	octave 5
	note A_, 1
	octave 6
	note C_, 1
	octave 5
	note A_, 1
	octave 6
	note D_, 1
	note C_, 1
	note E_, 1
	note C_, 1
	note D_, 1
	note E_, 1
	octave 5
	note A_, 1
	octave 6
	note E_, 1
	note A_, 1
	octave 7
	note C#, 1
	octave 6
	note A_, 1
	note D_, 1
	note C_, 1
	octave 5
	note A_, 1
	note D_, 1
	note B_, 1
	note G_, 1
	octave 6
	note D_, 1
	note B_, 1
	note G_, 1
	note D_, 1
	notetype $A, $81
	note E_, 1
	notetype $C, $81
	note B_, 1
	note G_, 1
	note D_, 1
	note B_, 1
	note G_, 1
	note D_, 1
	octave 5
	note B_, 1
	note G_, 1
	note B_, 1
	note G_, 1
	octave 6
	note D_, 1
	octave 5
	note B_, 1
	octave 6
	note G_, 1
	note D_, 1
	octave 5
	note A_, 1
	note B_, 1
	octave 6
	note D_, 1
	note G_, 1
	note B_, 1
	note G_, 1
	note B_, 1
	note G_, 1
	note D_, 1
	octave 5
	notetype $A, $81
	note B_, 1
	dutycycle 1
	octave 3
	notetype $C, $B7
	note A#, 16
	octave 4
	note C_, 15
	notetype $1, $B7
	note __, 10
	notetype $C, $B7
	octave 3
	note A_, 16
	note __, 15
	loopchannel 0, Music_CipherPeon_Ch1_loop

Music_CipherPeon_Ch2:
	octave 5
	notetype $C, $00
	note __, 16
	note __, 16
	note __, 16
	note __, 15
Music_CipherPeon_Ch2_loop:
	notetype $8, $C7
	note __, 1
	dutycycle 1
	octave 4
	note C_, 16
	note __, 1
	notetype $6, $C7
	note __, 1
	notetype $8, $C2
	note D_, 3
	note C_, 6
	octave 3
	note B_, 6
	note G_, 6
	note G_, 6
	notetype $E, $C7
	note A_, 12
	dutycycle 0
	octave 4
	notetype $C, $C2
	note D_, 2
	note C_, 4
	octave 3
	note B_, 4
	note G_, 4
	notetype $E, $C2
	note G_, 5
	dutycycle 1
	octave 4
	intensity $C7
	note C_, 10
	notetype $1, $C2
	note __, 2
	notetype $C, $C2
	note D_, 2
	note C_, 4
	octave 3
	note B_, 4
	note G_, 4
	note G_, 4
	intensity $C7
	note A_, 14
	dutycycle 0
	intensity $C2
	octave 4
	note D_, 2
	note C_, 4
	octave 3
	note B_, 4
	note G_, 4
	notetype $E, $C2
	note G_, 5
	dutycycle 1
	octave 4
	intensity $C7
	note C_, 10
	notetype $1, $C2
	note __, 2
	notetype $D, $C2
	note E_, 2
	note D_, 3
	notetype $1, $C2
	note __, 7
	notetype $C, $C2
	note C_, 4
	note C_, 4
	note D_, 6
	intensity $C7
	note F_, 11
	notetype $1, $C7
	note __, 10
	notetype $C, $C2
	note A_, 2
	note G_, 4
	note F_, 4
	note F_, 4
	note G_, 6
	intensity $C7
	note A_, 16
	note __, 3
	notetype $1, $C7
	note __, 10
	notetype $C, $C2
	note F_, 4
	note F_, 2
	note G_, 4
	note A_, 2
	intensity $C7
	note G_, 16
	note C_, 15
	notetype $1, $C7
	note __, 6
	notetype $C, $C7
	dutycycle 2
	vibrato $10, $23
	octave 5
	notetype $D, $B8
	note E_, 4
	notetype $B, $B8
	note C_, 2
	octave 4
	notetype $C, $B8
	note A_, 12
	octave 5
	note C_, 4
	note E_, 4
	note G_, 2
	note F_, 1
	note E_, 1
	note C_, 1
	octave 4
	note A_, 1
	notetype $E, $B8
	note G_, 5
	notetype $C, $B8
	note A_, 11
	note E_, 1
	note F_, 1
	note G_, 1
	note A_, 1
	note B_, 1
	octave 5
	note C_, 1
	note D_, 1
	note E_, 3
	note C_, 3
	note C_, 2
	note E_, 4
	note C_, 2
	note G_, 3
	notetype $A, $B8
	note G_, 1
	notetype $C, $B8
	note A_, 4
	octave 6
	note C_, 3
	note C_, 1
	octave 5
	note B_, 1
	note G_, 1
	note E_, 1
	note D_, 1
	note G_, 1
	note E_, 1
	note D_, 1
	octave 4
	note B_, 1
	note G_, 1
	note A_, 1
	note B_, 1
	octave 5
	note C_, 1
	note D_, 1
	note E_, 1
	note C_, 3
	note D_, 3
	notetype $B, $B8
	note E_, 2
	notetype $C, $B8
	note C_, 9
	note E_, 1
	note C_, 1
	octave 4
	note A_, 1
	octave 5
	note D_, 1
	octave 4
	note B_, 1
	note G_, 1
	octave 5
	note C_, 1
	octave 4
	note A_, 1
	note F_, 1
	note B_, 1
	note G_, 1
	note E_, 1
	note A_, 1
	note E_, 1
	note C_, 1
	octave 3
	note A_, 4
	octave 4
	note C_, 2
	note F_, 2
	notetype $B, $B8
	note __, 2
	notetype $C, $B8
	note A_, 4
	octave 5
	note C_, 8
	note D_, 4
	note C_, 2
	octave 4
	note B_, 2
	note G_, 2
	note A_, 4
	octave 5
	note D_, 2
	note F_, 2
	notetype $B, $B8
	note __, 2
	notetype $C, $B8
	note A_, 4
	octave 6
	note C_, 8
	octave 5
	note A_, 4
	note F_, 2
	note D_, 4
	note A_, 2
	note F_, 2
	note D_, 2
	note A_, 3
	notetype $A, $B8
	note A_, 1
	notetype $C, $B8
	note F_, 2
	note D_, 2
	note F_, 2
	intensity $C2
	note A_, 1
	note F_, 1
	note D_, 1
	note F_, 1
	note A_, 1
	note F_, 1
	note D_, 1
	note F_, 1
	note A_, 1
	note F_, 1
	note D_, 1
	note F_, 1
	note A_, 1
	note F_, 1
	note D_, 1
	note F_, 1
	note G_, 2
	note D_, 2
	note C_, 2
	octave 4
	note G_, 2
	notetype $A, $C2
	note __, 1
	notetype $C, $C2
	note G_, 1
	note E_, 1
	note D_, 1
	note G_, 1
	note E_, 1
	note D_, 1
	note C_, 1
	note G_, 2
	octave 5
	note C_, 2
	note F_, 2
	intensity $C7
	note E_, 9
	notetype $A, $C7
	note __, 1
	dutycycle 1
	vibrato $00, $00
	octave 4
	notetype $C, $C7
	note E_, 16
	note __, 11
	notetype $1, $C7
	note __, 10
	notetype $C, $C7
	note D_, 2
	note C_, 2
	octave 3
	note B_, 16
	note __, 11
	notetype $1, $C7
	note __, 10
	notetype $C, $C7
	note G_, 2
	note A_, 2
	octave 4
	note E_, 16
	note __, 11
	notetype $1, $C7
	note __, 10
	notetype $C, $C7
	note D_, 2
	note C_, 2
	octave 3
	note B_, 16
	note __, 11
	notetype $1, $C7
	note __, 10
	notetype $C, $C7
	note G_, 2
	note A_, 2
	octave 4
	note C_, 6
	note D_, 6
	note F_, 4
	note G_, 6
	notetype $E, $C7
	note A_, 5
	notetype $C, $C7
	note E_, 4
	note D_, 16
	note __, 15
	loopchannel 0, Music_CipherPeon_Ch2_loop

Music_CipherPeon_Ch3:
	dutycycle 4
	octave 2
	notetype $C, $24
	note D_, 1
	octave 3
	note D_, 1
	octave 2
	note A_, 1
	note A_, 1
	octave 3
	notetype $A, $24
	note D_, 1
	octave 4
	notetype $C, $24
	note D_, 1
	octave 2
	note A_, 1
	octave 3
	note A_, 1
	octave 2
	note D_, 1
	octave 3
	note D_, 1
	octave 2
	note A_, 1
	note A_, 1
	octave 3
	note D_, 1
	octave 4
	note D_, 1
	octave 2
	note A_, 1
	octave 3
	note A_, 1
	octave 2
	note D_, 1
	octave 3
	note D_, 1
	octave 2
	note A_, 1
	note A_, 1
	octave 3
	note D_, 1
	octave 4
	note D_, 1
	octave 2
	note A_, 1
	octave 3
	note A_, 1
	octave 2
	note D_, 1
	octave 3
	note D_, 1
	octave 2
	note A_, 1
	note A_, 1
	octave 3
	note D_, 1
	octave 4
	note D_, 1
	octave 2
	note A_, 1
	octave 3
	note A_, 1
	octave 2
	note D_, 1
	octave 3
	note D_, 1
	octave 2
	note A_, 1
	note A_, 1
	octave 3
	notetype $A, $24
	note D_, 1
	octave 4
	notetype $C, $24
	note D_, 1
	octave 2
	note A_, 1
	octave 3
	note A_, 1
	octave 2
	note D_, 1
	octave 3
	note D_, 1
	octave 2
	note A_, 1
	note A_, 1
	octave 3
	note D_, 1
	octave 4
	note D_, 1
	octave 2
	note A_, 1
	octave 3
	note A_, 1
	octave 2
	note D_, 1
	octave 3
	note D_, 1
	octave 2
	note A_, 1
	note A_, 1
	octave 3
	note D_, 1
	octave 4
	note D_, 1
	octave 2
	note A_, 1
	octave 3
	note A_, 1
	octave 2
	note D_, 1
	octave 3
	note D_, 1
	octave 2
	note A_, 1
	note A_, 1
	octave 3
	note D_, 1
	octave 4
	note D_, 1
	octave 2
	note A_, 1
	octave 3
	note A_, 1
Music_CipherPeon_Ch3_loop:
	notetype $C, $24
	octave 2
	note D_, 1
	octave 3
	note D_, 1
	octave 2
	note A_, 1
	note A_, 1
	octave 3
	notetype $A, $24
	note D_, 1
	octave 4
	notetype $C, $24
	note D_, 1
	octave 2
	note A_, 1
	octave 3
	note A_, 1
	octave 2
	note D_, 1
	octave 3
	note D_, 1
	octave 2
	note A_, 1
	note A_, 1
	octave 3
	note D_, 1
	octave 4
	note D_, 1
	octave 2
	note A_, 1
	octave 3
	note A_, 1
	octave 2
	note D_, 1
	octave 3
	note D_, 1
	octave 2
	note A_, 1
	note A_, 1
	octave 3
	note D_, 1
	octave 4
	note D_, 1
	octave 2
	note A_, 1
	octave 3
	note A_, 1
	octave 2
	note D_, 1
	octave 3
	note D_, 1
	octave 2
	note A_, 1
	note A_, 1
	octave 3
	note D_, 1
	octave 4
	note D_, 1
	octave 2
	note A_, 1
	octave 3
	note A_, 1
	octave 2
	note D_, 1
	octave 3
	note D_, 1
	octave 2
	note A_, 1
	note A_, 1
	octave 3
	notetype $A, $24
	note D_, 1
	octave 4
	notetype $C, $24
	note D_, 1
	octave 2
	note A_, 1
	octave 3
	note A_, 1
	octave 2
	note D_, 1
	octave 3
	note D_, 1
	octave 2
	note A_, 1
	note A_, 1
	octave 3
	note D_, 1
	octave 4
	note D_, 1
	octave 2
	note A_, 1
	octave 3
	note A_, 1
	octave 2
	note D_, 1
	octave 3
	note D_, 1
	octave 2
	note A_, 1
	note A_, 1
	octave 3
	note D_, 1
	octave 4
	note D_, 1
	octave 2
	note A_, 1
	octave 3
	note A_, 1
	octave 2
	note D_, 1
	octave 3
	note D_, 1
	octave 2
	note A_, 1
	note A_, 1
	octave 3
	note D_, 1
	octave 4
	note D_, 1
	octave 2
	note A_, 1
	octave 3
	note A_, 1
	octave 2
	note D_, 1
	octave 3
	note D_, 1
	octave 2
	note A_, 1
	note A_, 1
	octave 3
	notetype $A, $24
	note D_, 1
	octave 4
	notetype $C, $24
	note D_, 1
	octave 2
	note A_, 1
	octave 3
	note A_, 1
	octave 2
	note D_, 1
	octave 3
	note D_, 1
	octave 2
	note A_, 1
	note A_, 1
	octave 3
	note D_, 1
	octave 4
	note D_, 1
	octave 2
	note A_, 1
	octave 3
	note A_, 1
	octave 2
	note D_, 1
	octave 3
	note D_, 1
	octave 2
	note A_, 1
	note A_, 1
	octave 3
	note D_, 1
	octave 4
	note D_, 1
	octave 2
	note A_, 1
	octave 3
	note A_, 1
	octave 2
	note D_, 1
	octave 3
	note D_, 1
	octave 2
	note A_, 1
	note A_, 1
	octave 3
	note D_, 1
	octave 4
	note D_, 1
	octave 2
	note A_, 1
	octave 3
	note A_, 1
	octave 2
	note D_, 1
	octave 3
	note D_, 1
	octave 2
	note A_, 1
	note A_, 1
	octave 3
	notetype $A, $24
	note D_, 1
	octave 4
	notetype $C, $24
	note D_, 1
	octave 2
	note A_, 1
	octave 3
	note A_, 1
	octave 2
	note D_, 1
	octave 3
	note D_, 1
	octave 2
	note A_, 1
	note A_, 1
	octave 3
	note D_, 1
	octave 4
	note D_, 1
	octave 2
	note A_, 1
	octave 3
	note A_, 1
	octave 2
	note D_, 1
	octave 3
	note D_, 1
	octave 2
	note A_, 1
	note A_, 1
	octave 3
	note D_, 1
	octave 4
	note D_, 1
	octave 2
	note A_, 1
	octave 3
	note A_, 1
	octave 2
	note D_, 1
	octave 3
	note D_, 1
	octave 2
	note A_, 1
	note A_, 1
	octave 3
	note D_, 1
	octave 4
	note D_, 1
	octave 2
	note A_, 1
	octave 3
	note A_, 1
	octave 2
	note G_, 1
	octave 3
	note G_, 1
	note D_, 1
	note D_, 1
	note G_, 1
	octave 4
	notetype $A, $24
	note G_, 1
	octave 3
	notetype $C, $24
	note D_, 1
	octave 4
	note D_, 1
	octave 2
	note G_, 1
	octave 3
	note G_, 1
	note D_, 1
	note D_, 1
	note G_, 1
	octave 4
	note G_, 1
	octave 3
	note D_, 1
	octave 4
	note D_, 1
	octave 2
	note G_, 1
	octave 3
	note G_, 1
	note D_, 1
	note D_, 1
	note G_, 1
	octave 4
	note G_, 1
	octave 3
	note D_, 1
	octave 4
	note D_, 1
	octave 2
	note G_, 1
	octave 3
	note G_, 1
	note D_, 1
	note D_, 1
	note G_, 1
	octave 4
	note G_, 1
	octave 3
	note D_, 1
	octave 4
	note D_, 1
	octave 2
	note A#, 1
	octave 3
	note A#, 1
	note F_, 1
	note F_, 1
	note A#, 1
	octave 4
	notetype $A, $24
	note A#, 1
	octave 3
	notetype $C, $24
	note F_, 1
	octave 4
	note F_, 1
	octave 2
	note A#, 1
	octave 3
	note A#, 1
	note F_, 1
	note F_, 1
	note A#, 1
	octave 4
	note A#, 1
	octave 3
	note F_, 1
	octave 4
	note F_, 1
	octave 2
	note A#, 1
	octave 3
	note A#, 1
	note F_, 1
	note F_, 1
	note A#, 1
	octave 4
	note A#, 1
	octave 3
	note F_, 1
	octave 4
	note F_, 1
	octave 2
	note A#, 1
	octave 3
	note A#, 1
	note F_, 1
	note F_, 1
	note A#, 1
	octave 4
	note A#, 1
	octave 3
	note F_, 1
	octave 4
	note F_, 1
	octave 2
	note B_, 1
	octave 3
	note B_, 1
	note F_, 1
	note F_, 1
	note B_, 1
	octave 4
	notetype $A, $24
	note B_, 1
	octave 3
	notetype $C, $24
	note F_, 1
	octave 4
	note F_, 1
	octave 2
	note B_, 1
	octave 3
	note B_, 1
	note F_, 1
	note F_, 1
	note B_, 1
	octave 4
	note B_, 1
	octave 3
	note F_, 1
	octave 4
	note F_, 1
	octave 2
	note B_, 1
	octave 3
	note B_, 1
	note F_, 1
	note F_, 1
	note B_, 1
	octave 4
	note B_, 1
	octave 3
	note F_, 1
	octave 4
	note F_, 1
	octave 2
	note B_, 1
	octave 3
	note B_, 1
	note F_, 1
	note F_, 1
	note B_, 1
	octave 4
	note B_, 1
	octave 3
	note F#, 1
	octave 4
	note F_, 1
	octave 3
	note C_, 1
	octave 4
	note C_, 1
	octave 3
	note G_, 1
	note G_, 1
	octave 4
	note C_, 1
	octave 5
	notetype $A, $24
	note C_, 1
	octave 3
	notetype $C, $24
	note G_, 1
	octave 4
	note G_, 1
	octave 3
	note C_, 1
	octave 4
	note C_, 1
	octave 3
	note G_, 1
	note G_, 1
	octave 4
	note C_, 1
	octave 5
	note C_, 1
	octave 3
	note G_, 1
	octave 4
	note G_, 1
	octave 3
	note C_, 1
	octave 4
	note C_, 1
	octave 3
	note G_, 1
	note G_, 1
	octave 4
	note C_, 1
	octave 5
	note C_, 1
	octave 3
	note G_, 1
	octave 4
	note G_, 1
	octave 3
	note C_, 1
	octave 4
	note C_, 1
	octave 3
	note G_, 1
	note G_, 1
	octave 4
	note C_, 1
	octave 5
	note C_, 1
	octave 3
	note G_, 1
	octave 4
	note G_, 1
	octave 2
	note D_, 1
	octave 3
	note D_, 1
	octave 2
	note A_, 1
	note A_, 1
	octave 3
	note D_, 1
	octave 4
	notetype $A, $24
	note D_, 1
	octave 2
	notetype $C, $24
	note A_, 1
	octave 3
	note A_, 1
	octave 2
	note D_, 1
	octave 3
	note D_, 1
	octave 2
	note A_, 1
	note A_, 1
	octave 3
	note D_, 1
	octave 4
	note D_, 1
	octave 2
	note A_, 1
	octave 3
	note A_, 1
	octave 2
	note D_, 1
	octave 3
	note D_, 1
	octave 2
	note A_, 1
	note A_, 1
	octave 3
	note D_, 1
	octave 4
	note D_, 1
	octave 2
	note A_, 1
	octave 3
	note A_, 1
	octave 2
	note D_, 1
	octave 3
	note D_, 1
	octave 2
	note A_, 1
	note A_, 1
	octave 3
	note D_, 1
	octave 4
	note D_, 1
	octave 2
	note A_, 1
	octave 3
	note A_, 1
	octave 2
	note D_, 1
	octave 3
	note D_, 1
	octave 2
	note A_, 1
	note A_, 1
	octave 3
	note D_, 1
	octave 4
	notetype $A, $24
	note D_, 1
	octave 2
	notetype $C, $24
	note A_, 1
	octave 3
	note A_, 1
	octave 2
	note D_, 1
	octave 3
	note D_, 1
	octave 2
	note A_, 1
	note A_, 1
	octave 3
	note D_, 1
	octave 4
	note D_, 1
	octave 2
	note A_, 1
	octave 3
	note A_, 1
	octave 2
	note D_, 1
	octave 3
	note D_, 1
	octave 2
	note A_, 1
	note A_, 1
	octave 3
	note D_, 1
	octave 4
	note D_, 1
	octave 2
	note A_, 1
	octave 3
	note A_, 1
	octave 2
	note D_, 1
	octave 3
	note D_, 1
	octave 2
	note A_, 1
	note A_, 1
	octave 3
	note D_, 1
	octave 4
	note D_, 1
	octave 2
	note A_, 1
	octave 3
	note A_, 1
	octave 2
	note D_, 1
	octave 3
	note D_, 1
	octave 2
	note A_, 1
	note A_, 1
	octave 3
	note D_, 1
	octave 4
	note D_, 1
	octave 2
	notetype $A, $24
	note A_, 1
	octave 3
	notetype $C, $24
	note A_, 1
	octave 2
	note D_, 1
	octave 3
	note D_, 1
	octave 2
	note A_, 1
	note A_, 1
	octave 3
	note D_, 1
	octave 4
	note D_, 1
	octave 2
	note A_, 1
	octave 3
	note A_, 1
	octave 2
	note D_, 1
	octave 3
	note D_, 1
	octave 2
	note A_, 1
	note A_, 1
	octave 3
	note D_, 1
	octave 4
	note D_, 1
	octave 2
	note A_, 1
	octave 3
	note A_, 1
	octave 2
	note D_, 1
	octave 3
	note D_, 1
	octave 2
	note A_, 1
	note A_, 1
	octave 3
	note D_, 1
	octave 4
	note D_, 1
	octave 2
	note A_, 1
	octave 3
	note A_, 1
	octave 2
	note D_, 1
	octave 3
	note D_, 1
	octave 2
	note A_, 1
	note A_, 1
	octave 3
	note D_, 1
	octave 4
	note D_, 1
	octave 2
	notetype $A, $24
	note A_, 1
	octave 3
	notetype $C, $24
	note A_, 1
	octave 2
	note D_, 1
	octave 3
	note D_, 1
	octave 2
	note A_, 1
	note A_, 1
	octave 3
	note D_, 1
	octave 4
	note D_, 1
	octave 2
	note A_, 1
	octave 3
	note A_, 1
	octave 2
	note D_, 1
	octave 3
	note D_, 1
	octave 2
	note A_, 1
	note A_, 1
	octave 3
	note D_, 1
	octave 4
	note D_, 1
	octave 2
	note A_, 1
	octave 3
	note A_, 1
	octave 2
	note D_, 1
	octave 3
	note D_, 1
	octave 2
	note A_, 1
	note A_, 1
	octave 3
	note D_, 1
	octave 4
	note D_, 1
	octave 2
	note A_, 1
	octave 3
	note A_, 1
	octave 2
	note G_, 1
	octave 3
	note G_, 1
	note D_, 1
	note D_, 1
	note G_, 1
	octave 4
	note G_, 1
	octave 3
	notetype $A, $24
	note D_, 1
	octave 4
	notetype $C, $24
	note D_, 1
	octave 2
	note G_, 1
	octave 3
	note G_, 1
	note D_, 1
	note D_, 1
	note G_, 1
	octave 4
	note G_, 1
	octave 3
	note D_, 1
	octave 4
	note D_, 1
	octave 2
	note G_, 1
	octave 3
	note G_, 1
	note D_, 1
	note D_, 1
	note G_, 1
	octave 4
	note G_, 1
	octave 3
	note D_, 1
	octave 4
	note D_, 1
	octave 2
	note G_, 1
	octave 3
	note G_, 1
	note D_, 1
	note D_, 1
	note G_, 1
	octave 4
	note G_, 1
	octave 3
	note D_, 1
	octave 4
	note D_, 1
	octave 2
	note A#, 1
	octave 3
	note A#, 1
	note F_, 1
	note F_, 1
	note A#, 1
	octave 4
	note A#, 1
	octave 3
	notetype $A, $24
	note F_, 1
	octave 4
	notetype $C, $24
	note F_, 1
	octave 2
	note A#, 1
	octave 3
	note A#, 1
	note F_, 1
	note F_, 1
	note A#, 1
	octave 4
	note A#, 1
	octave 3
	note F_, 1
	octave 4
	note F_, 1
	octave 2
	note A#, 1
	octave 3
	note A#, 1
	note F_, 1
	note F_, 1
	note A#, 1
	octave 4
	note A#, 1
	octave 3
	note F_, 1
	octave 4
	note F_, 1
	octave 2
	note A#, 1
	octave 3
	note A#, 1
	note F_, 1
	note F_, 1
	note A#, 1
	octave 4
	note A#, 1
	octave 3
	note F_, 1
	octave 4
	note F_, 1
	octave 2
	note B_, 1
	octave 3
	note B_, 1
	note F_, 1
	note F_, 1
	note B_, 1
	octave 4
	note B_, 1
	octave 3
	notetype $A, $24
	note F_, 1
	octave 4
	notetype $C, $24
	note F_, 1
	octave 2
	note B_, 1
	octave 3
	note B_, 1
	note F_, 1
	note F_, 1
	note B_, 1
	octave 4
	note B_, 1
	octave 3
	note F_, 1
	octave 4
	note F_, 1
	octave 2
	note B_, 1
	octave 3
	note B_, 1
	note F_, 1
	note F_, 1
	note B_, 1
	octave 4
	note B_, 1
	octave 3
	note F_, 1
	octave 4
	note F_, 1
	octave 2
	note B_, 1
	octave 3
	note B_, 1
	note F_, 1
	note F_, 1
	note B_, 1
	octave 4
	note B_, 1
	octave 3
	note F#, 1
	octave 4
	note F_, 1
	octave 3
	note C_, 1
	octave 4
	note C_, 1
	octave 3
	note G_, 1
	note G_, 1
	octave 4
	note C_, 1
	octave 5
	note C_, 1
	octave 3
	notetype $A, $24
	note G_, 1
	octave 4
	notetype $C, $24
	note G_, 1
	octave 3
	note C_, 1
	octave 4
	note C_, 1
	octave 3
	note G_, 1
	note G_, 1
	octave 4
	note C_, 1
	octave 5
	note C_, 1
	octave 3
	note G_, 1
	octave 4
	note G_, 1
	octave 3
	note C_, 1
	octave 4
	note C_, 1
	octave 3
	note G_, 1
	note G_, 1
	octave 4
	note C_, 1
	octave 5
	note C_, 1
	octave 3
	note G_, 1
	octave 4
	note G_, 1
	octave 3
	note C_, 1
	octave 4
	note C_, 1
	octave 3
	note G_, 1
	note G_, 1
	octave 4
	note C_, 1
	octave 5
	note C_, 1
	octave 3
	note G_, 1
	octave 4
	note G_, 1
	octave 2
	note D_, 1
	note __, 1
	note D_, 1
	note __, 1
	octave 5
	note D_, 1
	octave 4
	note D_, 1
	octave 5
	note D_, 1
	octave 3
	notetype $A, $24
	note D_, 1
	notetype $C, $24
	note G_, 1
	note A_, 1
	octave 2
	note G_, 1
	note A_, 1
	octave 3
	note A_, 1
	octave 2
	note D_, 1
	note __, 2
	note D_, 1
	note __, 1
	note D_, 1
	note __, 1
	octave 5
	note D_, 1
	octave 4
	note D_, 1
	octave 5
	note D_, 1
	octave 3
	note D_, 1
	note G_, 1
	note A_, 1
	octave 2
	note G_, 1
	note A_, 1
	octave 3
	note A_, 1
	octave 2
	note D_, 1
	note __, 2
	note D_, 1
	note __, 1
	note D_, 1
	note __, 1
	octave 5
	note D_, 1
	octave 3
	note B_, 1
	octave 5
	note D_, 1
	octave 3
	notetype $A, $24
	note E_, 1
	notetype $C, $24
	note G_, 1
	note A_, 1
	octave 2
	note A_, 1
	octave 3
	note E_, 1
	note G_, 1
	octave 2
	note D_, 1
	note __, 2
	note D_, 1
	note __, 1
	note D_, 1
	note __, 1
	octave 5
	note D_, 1
	octave 3
	note B_, 1
	octave 5
	note D_, 1
	octave 3
	note E_, 1
	note G_, 1
	note A_, 1
	octave 2
	note A_, 1
	octave 3
	note E_, 1
	note G_, 1
	octave 2
	note D_, 1
	note __, 2
	note D_, 1
	note __, 1
	note D_, 1
	note __, 1
	octave 5
	note D_, 1
	octave 4
	note D_, 1
	octave 5
	note D_, 1
	octave 3
	notetype $A, $24
	note D_, 1
	notetype $C, $24
	note G_, 1
	note A_, 1
	octave 2
	note G_, 1
	note A_, 1
	octave 3
	note A_, 1
	octave 2
	note D_, 1
	note __, 2
	note D_, 1
	note __, 1
	note D_, 1
	note __, 1
	octave 5
	note D_, 1
	octave 4
	note D_, 1
	octave 5
	note D_, 1
	octave 3
	note D_, 1
	note G_, 1
	note A_, 1
	octave 2
	note G_, 1
	note A_, 1
	octave 3
	note A_, 1
	octave 2
	note D_, 1
	note __, 2
	note D_, 1
	note __, 1
	note D_, 1
	note __, 1
	octave 5
	note D_, 1
	octave 3
	note B_, 1
	octave 5
	note D_, 1
	octave 3
	notetype $A, $24
	note E_, 1
	notetype $C, $24
	note G_, 1
	note A_, 1
	octave 2
	note A_, 1
	octave 3
	note E_, 1
	note G_, 1
	octave 2
	note D_, 1
	note __, 2
	note D_, 1
	note __, 1
	note D_, 1
	note __, 1
	octave 5
	note D_, 1
	octave 3
	note B_, 1
	octave 5
	note D_, 1
	octave 3
	note E_, 1
	note G_, 1
	note A_, 1
	octave 2
	note A_, 1
	octave 3
	note E_, 1
	note G_, 1
	octave 2
	note D_, 1
	note __, 2
	note D#, 1
	note __, 1
	note D#, 1
	note D#, 1
	note A#, 1
	octave 3
	note F_, 1
	octave 4
	note F_, 1
	octave 3
	notetype $B, $24
	note A#, 2
	notetype $C, $24
	note F_, 1
	octave 4
	note A#, 1
	octave 2
	note D#, 1
	note A#, 1
	note D#, 1
	octave 4
	note A#, 1
	octave 2
	note D#, 1
	note F_, 1
	note __, 1
	note F_, 1
	note F_, 1
	octave 3
	note C_, 1
	note G_, 1
	octave 4
	note G_, 1
	note C_, 2
	octave 3
	note G_, 1
	octave 5
	note C_, 1
	octave 2
	note F_, 1
	octave 3
	note C_, 1
	octave 2
	note F_, 1
	octave 5
	note C_, 1
	octave 2
	note F_, 1
	note D_, 1
	octave 5
	note D_, 1
	octave 2
	note D_, 1
	note D_, 1
	note D_, 1
	octave 3
	note D_, 1
	octave 5
	note D_, 1
	octave 2
	note D_, 1
	notetype $A, $24
	note __, 1
	notetype $C, $24
	note A_, 1
	octave 4
	note E_, 1
	note D_, 1
	octave 3
	note A_, 1
	note D_, 1
	octave 2
	note D_, 1
	note __, 1
	note D_, 1
	note __, 1
	note D_, 1
	note D_, 1
	octave 3
	note A_, 1
	octave 2
	note D_, 1
	octave 5
	note D_, 1
	octave 2
	note D_, 1
	octave 5
	note D_, 1
	octave 3
	note A_, 1
	octave 4
	note D_, 1
	octave 3
	note D_, 1
	octave 2
	note A_, 1
	note D_, 1
	notetype $4, $24
	note __, 5
	loopchannel 0, Music_CipherPeon_Ch3_loop

Music_CipherPeon_Ch4:
	togglenoise 3
	notetype $C
	note B_, 4
	note D#, 3
	notetype $A
	note D#, 1
	notetype $C
	note D#, 4
	note D#, 4
	note D#, 4
	note D#, 4
	note D#, 4
	note D#, 4
	note D#, 4
	note D#, 3
	notetype $A
	note D#, 1
	notetype $C
	note D#, 4
	note D#, 4
	note D#, 4
	note D#, 4
	note D#, 4
	note D#, 3
	notetype $4
	note __, 1
Music_CipherPeon_Ch4_loop:
	note __, 2
	note B_, 12
	note C_, 9
	notetype $A
	note C_, 1
	notetype $C
	note D#, 2
	note D#, 2
	note C_, 4
	note D#, 4
	note C_, 4
	note D#, 2
	note D#, 2
	note C_, 2
	note C_, 2
	note D#, 4
	note C_, 3
	notetype $A
	note C_, 1
	notetype $C
	note D#, 2
	note D#, 2
	note C_, 4
	note D#, 4
	note C_, 4
	note D#, 2
	note D#, 2
	note C_, 3
	note C_, 1
	note D#, 4
	note C_, 3
	notetype $A
	note C_, 1
	notetype $C
	note D#, 2
	note D#, 2
	note C_, 4
	note D#, 4
	note C_, 4
	note D#, 2
	note D#, 2
	note C_, 2
	note C_, 2
	note D#, 4
	note C_, 3
	notetype $A
	note C_, 1
	notetype $C
	note D#, 2
	note D#, 2
	note C_, 4
	note D#, 4
	note C_, 4
	note D#, 2
	note D#, 2
	note C_, 3
	note C_, 1
	note B_, 4
	note C_, 3
	notetype $A
	note C_, 1
	notetype $C
	note D#, 2
	note D#, 2
	note C_, 2
	note C_, 2
	note D#, 4
	note C_, 4
	note D#, 2
	note D#, 2
	note C_, 3
	note C_, 1
	note B_, 4
	note C_, 3
	notetype $A
	note C_, 1
	notetype $C
	note D#, 2
	note D#, 2
	note C_, 2
	note C_, 2
	note D#, 4
	note C_, 4
	note D#, 2
	note D#, 2
	note C_, 3
	note C_, 1
	note B_, 4
	note C_, 3
	notetype $A
	note C_, 1
	notetype $C
	note D#, 2
	note D#, 2
	note C_, 4
	note D#, 4
	note C_, 4
	note D#, 2
	note D#, 2
	note C_, 4
	note B_, 4
	note C_, 3
	notetype $A
	note C_, 1
	notetype $C
	note D#, 2
	note D#, 2
	note C_, 4
	note D#, 4
	note C_, 4
	note D#, 2
	note D#, 2
	note C_, 3
	note C_, 1
	note B_, 4
	note C_, 3
	notetype $A
	note C_, 1
	notetype $C
	note D#, 2
	note D#, 2
	note C_, 2
	note C_, 2
	note D#, 4
	note C_, 4
	note D#, 2
	note D#, 2
	note C_, 3
	note C_, 1
	note D#, 4
	note C_, 3
	notetype $A
	note C_, 1
	notetype $C
	note D#, 2
	note D#, 2
	note C_, 2
	note C_, 2
	note D#, 4
	note C_, 4
	note D#, 2
	note D#, 2
	note C_, 3
	note C_, 1
	note D#, 4
	note C_, 3
	notetype $A
	note C_, 1
	notetype $C
	note D#, 2
	note D#, 2
	note C_, 2
	note C_, 2
	note D#, 4
	note C_, 4
	note D#, 2
	note D#, 2
	note C_, 3
	note C_, 1
	note D#, 4
	note C_, 3
	notetype $A
	note C_, 1
	notetype $C
	note D#, 2
	note D#, 2
	note C_, 2
	note C_, 2
	note D#, 4
	note C_, 4
	note D#, 2
	note D#, 2
	note C_, 3
	note C_, 1
	note B_, 4
	note C_, 3
	notetype $A
	note C_, 1
	notetype $C
	note D#, 2
	note D#, 2
	note C_, 2
	note C_, 2
	note D#, 4
	note C_, 4
	note D#, 2
	note D#, 2
	note C_, 3
	note C_, 1
	note B_, 4
	note C_, 3
	notetype $A
	note C_, 1
	notetype $C
	note D#, 2
	note D#, 2
	note C_, 2
	note C_, 2
	note D#, 4
	note C_, 4
	note D#, 2
	note D#, 2
	note C_, 3
	note C_, 1
	note D#, 4
	note C_, 3
	notetype $A
	note C_, 1
	notetype $C
	note D#, 2
	note D#, 2
	note C_, 4
	note D#, 4
	note C_, 4
	note D#, 2
	note D#, 2
	note C_, 4
	note B_, 4
	note C_, 3
	notetype $A
	note C_, 1
	notetype $C
	note D#, 2
	note C_, 4
	note C_, 2
	note D#, 4
	note C_, 3
	note C_, 1
	note D#, 4
	note C_, 4
	note D#, 4
	note D#, 3
	notetype $A
	note D#, 1
	notetype $C
	note D#, 4
	note D#, 4
	note D#, 4
	note D#, 4
	note D#, 4
	note D#, 4
	note D#, 4
	note D#, 3
	notetype $A
	note D#, 1
	notetype $C
	note D#, 4
	note D#, 4
	note D#, 4
	note D#, 4
	note D#, 4
	note D#, 4
	note D#, 4
	note D#, 3
	notetype $A
	note D#, 1
	notetype $C
	note D#, 4
	note D#, 4
	note D#, 4
	note D#, 4
	note D#, 4
	note D#, 4
	note D#, 4
	note D#, 3
	notetype $A
	note D#, 1
	notetype $C
	note D#, 4
	note D#, 4
	note D#, 4
	note D#, 4
	note D#, 4
	note D#, 4
	note B_, 4
	note C_, 3
	notetype $A
	note C_, 1
	notetype $C
	note D#, 4
	note C_, 4
	note B_, 4
	note C_, 4
	note D#, 1
	note C_, 3
	note C_, 3
	note C_, 1
	note B_, 4
	note C_, 3
	notetype $A
	note C_, 1
	notetype $4
	note D#, 12
	note C_, 12
	note D#, 12
	note C_, 9
	note C_, 3
	note D#, 3
	note C_, 9
	note C_, 6
	note C_, 3
	loopchannel 0, Music_CipherPeon_Ch4_loop