Music_CityOrange:
	musicheader 4, 1, Music_CityOrange_Ch1
	musicheader 1, 2, Music_CityOrange_Ch2
	musicheader 1, 3, Music_CityOrange_Ch3
	musicheader 1, 4, Music_CityOrange_Ch4

Music_CityOrange_Ch1:
	tempo $99
	volume $77
	stereopanning $f
	tone $0002
Music_CityOrange_Ch1_loop:
	dutycycle 1
	octave 3
	notetype $C, $93
	note E_, 2
	intensity $62
	octave 2
	note A_, 1
	note __, 1
	dutycycle 2
	intensity $93
	octave 3
	note F#, 1
	note __, 1
	note E_, 2
	dutycycle 1
	intensity $62
	octave 2
	note A_, 1
	note __, 1
	dutycycle 2
	intensity $93
	octave 3
	note E_, 2
	note C#, 1
	note __, 1
	note C#, 2
	note E_, 2
	dutycycle 1
	intensity $62
	octave 2
	note A_, 1
	note __, 1
	dutycycle 2
	intensity $93
	octave 3
	note F#, 1
	note __, 1
	note E_, 2
	dutycycle 1
	intensity $62
	octave 2
	note A_, 1
	note __, 1
	dutycycle 2
	intensity $93
	octave 3
	note E_, 2
	intensity $94
	note F#, 3
	note __, 1
	note E_, 2
	dutycycle 1
	intensity $62
	octave 2
	note A_, 1
	note __, 1
	dutycycle 2
	intensity $93
	octave 3
	note F#, 1
	note __, 1
	note E_, 2
	dutycycle 1
	intensity $62
	octave 2
	note A_, 1
	note __, 1
	dutycycle 2
	intensity $93
	octave 3
	note E_, 2
	note F#, 1
	note __, 1
	note F#, 2
	note D_, 2
	dutycycle 1
	intensity $62
	octave 2
	note G_, 1
	note __, 1
	dutycycle 2
	intensity $93
	octave 3
	note E_, 1
	note __, 1
	note D_, 2
	dutycycle 1
	intensity $62
	octave 2
	note G_, 1
	note __, 1
	dutycycle 2
	intensity $93
	octave 3
	note D_, 2
	note E_, 1
	note __, 1
	note E_, 2
	note F#, 2
	dutycycle 1
	intensity $62
	octave 2
	note F#, 1
	note __, 1
	dutycycle 2
	intensity $93
	octave 3
	note A_, 1
	note __, 1
	note F#, 2
	dutycycle 1
	intensity $62
	octave 2
	note F#, 1
	note __, 1
	dutycycle 2
	intensity $93
	octave 3
	note F#, 2
	note A_, 1
	note __, 1
	note F#, 2
	note E_, 2
	note A_, 2
	note F#, 2
	note C#, 2
	note __, 2
	octave 2
	note A_, 2
	note __, 2
	note A_, 2
	octave 3
	note D_, 2
	intensity $63
	octave 2
	note A_, 1
	note __, 1
	intensity $93
	octave 3
	note E_, 1
	note __, 1
	note D_, 2
	intensity $63
	octave 2
	note A_, 1
	note __, 1
	intensity $93
	octave 3
	note E_, 2
	note D_, 2
	note F_, 2
	octave 2
	note A_, 2
	intensity $63
	note F#, 1
	note __, 1
	note F#, 2
	intensity $93
	note B_, 2
	intensity $63
	note F#, 1
	note __, 1
	intensity $93
	octave 3
	note C_, 2
	intensity $63
	octave 2
	note F#, 2
	intensity $4E
	octave 3
	note C#, 4
	intensity $96
	note C#, 4
	intensity $4D
	octave 2
	note A_, 4
	intensity $96
	note A_, 6
	dutycycle 0
	intensity $58
	octave 4
	note E_, 2
	intensity $92
	note B_, 1
	note A_, 1
	note E_, 1
	note A_, 1
	note B_, 1
	note A_, 1
	note E_, 1
	note F#, 1
	note A_, 1
	note B_, 1
	note A_, 1
	note E_, 1
	note D_, 1
	note C#, 1
	dutycycle 2
	intensity $94
	octave 3
	note D_, 6
	note E_, 6
	note F#, 4
	note C#, 6
	note G#, 6
	note F_, 4
	note F#, 6
	note D_, 6
	note C#, 4
	note F#, 6
	note E_, 4
	note C#, 2
	octave 2
	note B_, 4
	octave 3
	note G_, 4
	note D_, 4
	octave 2
	note B_, 4
	octave 3
	note D_, 4
	note G#, 4
	note E_, 4
	octave 2
	note B_, 4
	octave 3
	note D#, 2
	note E_, 2
	note G#, 4
	note E_, 4
	note G#, 4
	note D#, 2
	note E_, 2
	intensity $A3
	note E_, 2
	note __, 1
	note F#, 2
	note __, 1
	intensity $A5
	note G#, 6
	intensity $93
	octave 2
	note G#, 4
	note __, 2
	octave 3
	note E_, 2
	note F#, 2
	note E_, 2
	note A_, 2
	note E_, 2
	note D_, 2
	note C#, 2
	note __, 2
	note E_, 2
	note F#, 2
	note E_, 2
	note A_, 2
	note E_, 2
	note B_, 2
	note A_, 2
	note __, 2
	note E_, 1
	note F_, 1
	intensity $95
	note F#, 2
	note E_, 2
	note A_, 2
	intensity $93
	note F#, 1
	note G#, 1
	intensity $95
	note A_, 2
	note B_, 2
	octave 4
	note C#, 4
	octave 3
	note B_, 2
	notetype $9, $A8
	note A#, 2
	notetype $6, $58
	note G#, 1
	intensity $48
	note F#, 1
	intensity $38
	note D_, 1
	intensity $32
	octave 2
	note A_, 1
	note __, 1
	intensity $93
	note A_, 8
	note A_, 4
	octave 3
	note D_, 4
	intensity $63
	octave 2
	note A_, 2
	note __, 2
	intensity $93
	octave 3
	note E_, 2
	note __, 2
	note D_, 4
	intensity $63
	octave 2
	note A_, 2
	note __, 2
	intensity $93
	octave 3
	note E_, 4
	note D_, 4
	note F_, 4
	octave 2
	note A_, 4
	intensity $63
	note F#, 2
	note __, 2
	note F#, 4
	intensity $93
	note B_, 4
	intensity $63
	note F#, 2
	note __, 2
	intensity $93
	octave 3
	note C_, 4
	intensity $63
	octave 2
	note F#, 4
	intensity $A8
	octave 3
	note C#, 16
	intensity $A7
	note C#, 12
	note __, 4
	intensity $A8
	note C#, 4
	intensity $A6
	note C#, 12
	intensity $95
	octave 2
	note B_, 8
	note A_, 8
	intensity $93
	note A_, 4
	octave 3
	note D_, 4
	intensity $63
	octave 2
	note A_, 2
	note __, 2
	intensity $93
	octave 3
	note E_, 2
	note __, 2
	note D_, 4
	intensity $63
	octave 2
	note A_, 2
	note __, 2
	intensity $93
	octave 3
	note E_, 4
	note D_, 4
	octave 2
	note B_, 4
	octave 3
	note D_, 4
	intensity $63
	octave 2
	note A_, 2
	note __, 2
	note A_, 2
	note __, 2
	intensity $93
	octave 3
	note E_, 4
	intensity $63
	octave 2
	note A_, 2
	note __, 2
	note A_, 2
	note __, 2
	intensity $A5
	octave 3
	note D_, 8
	loopchannel 0, Music_CityOrange_Ch1_loop

Music_CityOrange_Ch2:
	stereopanning $f0
	tone $0000
	dutycycle 1
	octave 3
	notetype $C, $A2
	note E_, 2
	dutycycle 0
	intensity $52
	octave 5
	note A_, 1
	note __, 1
Music_CityOrange_Ch2_loop:
	tone $0000
	dutycycle 0
	notetype $C, $52
	octave 5
	note A_, 1
	note __, 1
	dutycycle 1
	intensity $A2
	octave 3
	note E_, 2
	dutycycle 0
	intensity $52
	octave 5
	note A_, 1
	note __, 1
	note A_, 1
	note __, 1
	dutycycle 1
	intensity $A2
	octave 3
	note F#, 2
	dutycycle 0
	intensity $52
	octave 5
	note A_, 1
	note __, 1
	dutycycle 1
	intensity $A2
	octave 3
	note E_, 2
	dutycycle 0
	intensity $52
	octave 5
	note A_, 1
	note __, 1
	note A_, 1
	note __, 1
	dutycycle 1
	intensity $A2
	octave 3
	note E_, 2
	dutycycle 0
	intensity $52
	octave 5
	note A_, 1
	note __, 1
	note A_, 1
	note __, 1
	dutycycle 1
	tone $0001
	intensity $A2
	octave 3
	note C#, 2
	intensity $C2
	note A_, 1
	note B_, 1
	intensity $C3
	vibrato $00, $24
	octave 4
	note C#, 4
	note __, 2
	note D_, 4
	note __, 2
	note E_, 4
	note C#, 4
	note __, 2
	note D_, 4
	note E_, 4
	note D#, 1
	note D_, 1
	note C#, 4
	note __, 2
	note D_, 4
	note E_, 2
	note D_, 2
	note F#, 4
	note E_, 2
	note F#, 2
	octave 3
	note A_, 4
	octave 4
	note C#, 2
	octave 3
	note B_, 2
	octave 4
	notetype $9, $C3
	note C#, 2
	octave 3
	notetype $6, $C3
	note A#, 1
	note B_, 4
	intensity $C5
	note A_, 12
	note A_, 4
	note B_, 4
	note A_, 4
	intensity $C3
	octave 4
	note C_, 4
	note __, 4
	octave 3
	note B_, 4
	note __, 4
	note A_, 4
	note __, 4
	note F_, 4
	note __, 4
	intensity $C7
	note E_, 16
	notetype $F, $C6
	note C#, 8
	octave 2
	notetype $C, $96
	note A_, 6
	note B_, 6
	intensity $A3
	octave 3
	note C#, 2
	intensity $B3
	note E_, 1
	note A_, 1
	intensity $C3
	note B_, 2
	note A_, 2
	note G#, 2
	note A_, 5
	note __, 1
	intensity $A3
	octave 2
	note B_, 2
	octave 3
	note D_, 2
	intensity $C3
	note B_, 2
	note A_, 2
	note G#, 2
	note F_, 4
	note __, 2
	intensity $A3
	note C#, 2
	octave 2
	note B_, 2
	intensity $C3
	octave 3
	note B_, 2
	note A_, 2
	note G#, 2
	intensity $5D
	octave 4
	note D_, 4
	intensity $B5
	note C#, 4
	intensity $C3
	octave 3
	note A_, 2
	note B_, 2
	octave 4
	note C#, 2
	octave 3
	note B_, 2
	intensity $C5
	note A#, 4
	note G_, 4
	note F#, 2
	octave 4
	note D_, 3
	note C#, 3
	note D_, 4
	intensity $C3
	note C#, 2
	octave 3
	note B_, 2
	note F#, 2
	intensity $C5
	octave 4
	note D_, 3
	note C#, 3
	octave 3
	note B_, 4
	note G#, 2
	octave 4
	note C#, 2
	intensity $C2
	octave 3
	note B_, 1
	note __, 1
	intensity $C3
	note B_, 2
	octave 4
	note C#, 2
	note __, 2
	octave 3
	note B_, 4
	note G#, 2
	note A_, 2
	note B_, 1
	note __, 1
	note B_, 2
	note __, 1
	octave 4
	note C#, 2
	note __, 1
	intensity $5D
	note D_, 4
	intensity $A7
	note D_, 4
	intensity $B3
	octave 3
	note A_, 1
	note B_, 1
	intensity $C3
	octave 4
	note C#, 4
	note D_, 4
	note C#, 4
	octave 3
	note A_, 2
	note E_, 2
	intensity $C2
	octave 4
	note C#, 2
	intensity $C3
	note C#, 2
	note D_, 2
	note C#, 4
	note __, 4
	octave 3
	note E_, 2
	octave 4
	note C#, 2
	note D_, 2
	note E_, 2
	note C#, 2
	note __, 2
	note C#, 2
	note E_, 4
	note F#, 2
	note G_, 2
	note E_, 2
	notetype $9, $C8
	note F#, 2
	notetype $6, $88
	note E_, 1
	intensity $68
	note C_, 1
	intensity $48
	octave 3
	note A_, 1
	intensity $32
	note F#, 1
	note __, 1
	intensity $C3
	octave 4
	note C#, 4
	octave 3
	note B_, 4
	octave 4
	note C#, 3
	octave 3
	note A#, 1
	note B_, 4
	intensity $C5
	note A_, 12
	note A_, 4
	note B_, 4
	note A_, 4
	intensity $C3
	octave 4
	note C_, 4
	note __, 4
	octave 3
	note B_, 4
	note __, 4
	note A_, 4
	note __, 4
	note F_, 4
	note __, 4
	notetype $F, $C8
	note E_, 8
	notetype $C, $C7
	note E_, 6
	intensity $6F
	note A_, 4
	intensity $A4
	note A_, 4
	intensity $B4
	octave 4
	note C#, 4
	intensity $C2
	note C#, 2
	intensity $C3
	note F#, 2
	notetype $9, $C3
	note C#, 2
	octave 3
	notetype $6, $C3
	note A#, 1
	note B_, 4
	intensity $C5
	note A_, 12
	note A_, 4
	note B_, 4
	note A_, 4
	octave 4
	note C_, 8
	note __, 4
	intensity $C3
	octave 3
	note B_, 8
	note A_, 4
	note B_, 4
	note __, 4
	intensity $C8
	note A_, 4
	intensity $C2
	note A_, 8
	loopchannel 0, Music_CityOrange_Ch2_loop

Music_CityOrange_Ch3:
Music_CityOrange_Ch3_loop:
	dutycycle 4
	octave 3
	notetype $C, $14
	note A_, 2
	note E_, 1
	note __, 1
	note E_, 2
	note A_, 2
	note E_, 1
	note __, 1
	note E_, 2
	note A_, 2
	note E_, 2
	note A_, 2
	note E_, 1
	note __, 1
	note E_, 2
	note A_, 2
	note A_, 1
	note __, 1
	note E_, 2
	note C#, 2
	octave 2
	note B_, 2
	octave 3
	note A_, 2
	note E_, 1
	note __, 1
	note E_, 2
	note A_, 2
	note E_, 1
	note __, 1
	note E_, 2
	note A_, 2
	note E_, 2
	note G_, 2
	note D_, 1
	note __, 1
	note D_, 2
	note G_, 2
	note D_, 1
	note __, 1
	note D_, 2
	note G_, 2
	note D_, 2
	note F#, 2
	note C#, 1
	note __, 1
	note C#, 2
	note F#, 2
	note C#, 1
	note __, 1
	note C#, 1
	note __, 1
	note C#, 2
	note E_, 2
	note F#, 2
	note C#, 1
	note __, 1
	note E_, 2
	note F#, 2
	note D#, 2
	octave 2
	note B_, 2
	note __, 2
	octave 3
	note C#, 2
	note D_, 2
	note F#, 1
	note __, 1
	note D_, 2
	note F#, 2
	note D_, 1
	note __, 1
	note D_, 2
	note F#, 2
	note D_, 2
	note F_, 2
	note D_, 1
	note __, 1
	note D_, 2
	note F_, 2
	note D_, 1
	note __, 1
	note D_, 2
	note F_, 2
	note D_, 2
	note E_, 2
	note C#, 2
	note G_, 1
	note __, 1
	note E_, 2
	note A_, 2
	note E_, 2
	note C#, 1
	note __, 1
	note E_, 2
	note C#, 2
	note E_, 2
	note G_, 1
	note __, 1
	note E_, 2
	note A_, 2
	note E_, 2
	note C#, 1
	note __, 1
	note E_, 2
	note D_, 2
	note F#, 2
	note D_, 1
	note __, 1
	note F#, 2
	note A_, 2
	note F#, 2
	note D_, 1
	note __, 1
	note F#, 2
	note C#, 2
	note F_, 2
	note C#, 1
	note __, 1
	note F_, 2
	note G#, 2
	note F_, 2
	note C#, 1
	note __, 1
	octave 2
	note B_, 2
	octave 3
	note C#, 2
	note E_, 2
	note C#, 1
	note __, 1
	note E_, 2
	note C#, 2
	note F_, 2
	note C#, 1
	note __, 1
	note F_, 2
	note F#, 2
	note E_, 1
	note __, 1
	note C#, 2
	octave 2
	note A#, 6
	note B_, 2
	note A#, 2
	octave 3
	note G_, 2
	note D_, 1
	note __, 1
	note D_, 2
	note G_, 2
	note D_, 1
	note __, 1
	note D_, 2
	note G_, 2
	note D_, 2
	note G#, 2
	note E_, 1
	note __, 1
	note E_, 2
	note G#, 2
	note E_, 1
	note __, 1
	note E_, 2
	note G#, 2
	note E_, 2
	note B_, 2
	note E_, 1
	note __, 1
	note E_, 2
	note B_, 2
	note E_, 1
	note __, 1
	note E_, 2
	note G#, 2
	note E_, 1
	note B_, 1
	note G#, 1
	note __, 1
	note F#, 2
	note __, 2
	note E_, 5
	note __, 1
	note E_, 4
	note A_, 2
	note E_, 1
	note __, 1
	note E_, 2
	note A_, 2
	note E_, 1
	note __, 1
	note E_, 2
	note A_, 2
	note E_, 2
	note G_, 2
	note D_, 1
	note __, 1
	note D_, 2
	note G_, 2
	note D_, 1
	note __, 1
	note D_, 2
	note G_, 2
	note D_, 2
	note F#, 2
	note C#, 1
	note __, 1
	note C#, 2
	note F#, 2
	note C#, 1
	note __, 1
	note C#, 1
	note __, 1
	note C#, 2
	note E_, 2
	note F#, 2
	note C#, 1
	note __, 1
	note E_, 2
	note D#, 2
	note __, 2
	octave 2
	note B_, 2
	note __, 2
	note B_, 2
	octave 3
	note D_, 2
	note F#, 1
	note __, 1
	note D_, 2
	note F#, 2
	note D_, 1
	note __, 1
	note D_, 2
	note F#, 2
	note D_, 2
	note F_, 2
	note D_, 1
	note __, 1
	note D_, 2
	note F_, 2
	note D_, 1
	note __, 1
	note D_, 2
	note F_, 2
	note D_, 2
	note E_, 2
	note C#, 2
	note G_, 1
	note __, 1
	note E_, 2
	note A_, 2
	note E_, 2
	note C#, 1
	note __, 1
	note E_, 2
	note C#, 2
	note E_, 2
	note G_, 1
	note __, 1
	note E_, 2
	note A_, 2
	note E_, 2
	note C#, 1
	note __, 1
	note E_, 2
	note D_, 2
	note F#, 1
	note __, 1
	note D_, 2
	note F#, 2
	note D_, 1
	note __, 1
	note D_, 2
	note F#, 2
	note D_, 2
	note F_, 2
	note __, 4
	note F_, 2
	note __, 4
	note F_, 4
	loopchannel 0, Music_CityOrange_Ch3_loop

Music_CityOrange_Ch4:
	togglenoise 2
	notetype $C
	note C#, 1
	note __, 1
	note B_, 1
	note __, 1
Music_CityOrange_Ch4_loop:
	notetype $C
	note C_, 1
	note __, 1
	note B_, 1
	note D_, 1
	note C#, 1
	note D_, 1
	note B_, 1
	note __, 1
	note C_, 1
	note __, 1
	note B_, 1
	note D#, 1
	note D#, 1
	note __, 1
	note B_, 1
	note __, 1
	note C_, 1
	note __, 1
	note B_, 1
	note D_, 1
	note C#, 1
	note D_, 1
	note B_, 1
	note __, 1
	note C_, 1
	note __, 3
	note G#, 1
	note __, 1
	note B_, 1
	note __, 1
	note C_, 1
	note __, 1
	note B_, 1
	note D_, 1
	note C#, 1
	note D_, 1
	note B_, 1
	note __, 1
	note C_, 1
	note __, 1
	note B_, 1
	note D#, 1
	note D#, 1
	note __, 1
	note B_, 1
	note __, 1
	note C_, 1
	note __, 1
	note B_, 1
	note D_, 1
	note C#, 1
	note D_, 1
	note B_, 1
	note __, 1
	note C_, 1
	note __, 1
	note B_, 1
	note D#, 1
	note D#, 1
	note __, 1
	note B_, 1
	note __, 1
	note C_, 1
	note __, 1
	note B_, 1
	note D_, 1
	note C#, 1
	note D_, 1
	note B_, 1
	note __, 1
	note C_, 1
	note __, 1
	note B_, 1
	note D#, 1
	note D#, 1
	note C#, 1
	note B_, 1
	note __, 1
	note G#, 1
	note __, 1
	note G#, 1
	note __, 9
	note G#, 1
	note __, 1
	note B_, 1
	note __, 1
	note C_, 1
	note __, 1
	note B_, 1
	note D_, 1
	note C#, 1
	note D_, 1
	note B_, 1
	note __, 1
	note C_, 1
	note __, 1
	note B_, 1
	note D#, 1
	note D#, 1
	note __, 1
	note B_, 1
	note __, 1
	note C_, 1
	note __, 1
	note B_, 1
	note D_, 1
	note C#, 1
	note D_, 1
	note B_, 1
	note __, 1
	note C_, 1
	note __, 1
	note B_, 1
	note D#, 1
	note D#, 1
	note __, 1
	note B_, 1
	note __, 1
	note C_, 1
	note __, 1
	note B_, 1
	note D_, 1
	note C#, 1
	note D_, 1
	note B_, 1
	note __, 1
	note C_, 1
	note __, 1
	note B_, 1
	note D#, 1
	note D#, 1
	note __, 1
	note B_, 1
	note __, 1
	note C_, 1
	note __, 1
	note B_, 1
	note D_, 1
	note C#, 1
	note D_, 1
	note B_, 1
	note __, 1
	note C_, 1
	note __, 3
	note G#, 1
	note __, 1
	note B_, 1
	note __, 1
	note C_, 1
	note __, 1
	note B_, 1
	note D_, 1
	note C#, 1
	note D_, 1
	note B_, 1
	note __, 1
	note C_, 1
	note __, 1
	note B_, 1
	note D#, 1
	note D#, 1
	note __, 1
	note B_, 1
	note __, 1
	note C_, 1
	note __, 1
	note B_, 1
	note D_, 1
	note C#, 1
	note D_, 1
	note B_, 1
	note __, 1
	note C_, 1
	note __, 1
	note B_, 1
	note D#, 1
	note D#, 1
	note __, 1
	note B_, 1
	note __, 1
	note C_, 1
	note __, 1
	note B_, 1
	note D_, 1
	note C#, 1
	note D_, 1
	note B_, 1
	note __, 1
	note C_, 1
	note __, 1
	note B_, 1
	note D#, 1
	note D#, 1
	note __, 1
	note B_, 1
	note __, 1
	note C_, 1
	note __, 1
	note G#, 1
	note __, 9
	note G#, 1
	note __, 1
	note B_, 1
	note __, 1
	note C_, 1
	note __, 1
	note B_, 1
	note D_, 1
	note C#, 1
	note D_, 1
	note B_, 1
	note __, 1
	note C_, 1
	note __, 1
	note B_, 1
	note D#, 1
	note D#, 1
	note __, 1
	note B_, 1
	note __, 1
	note C_, 1
	note __, 1
	note B_, 1
	note D_, 1
	note C#, 1
	note D_, 1
	note B_, 1
	note __, 1
	note C_, 1
	note __, 1
	note B_, 1
	note D#, 1
	note D#, 1
	note __, 1
	note B_, 1
	note __, 1
	note C_, 1
	note __, 1
	note B_, 1
	note D_, 1
	note C#, 1
	note D_, 1
	note B_, 1
	note __, 1
	note C_, 1
	note __, 1
	note B_, 1
	note D#, 1
	note D#, 1
	note __, 1
	note B_, 1
	note __, 1
	note C_, 1
	note __, 1
	note G#, 1
	note __, 9
	note G#, 1
	note __, 1
	note B_, 1
	note __, 1
	note C_, 1
	note __, 1
	note B_, 1
	note D_, 1
	note C#, 1
	note D_, 1
	note B_, 1
	note __, 1
	note C_, 1
	note __, 1
	note B_, 1
	note D#, 1
	note D#, 1
	note __, 1
	note B_, 1
	note __, 1
	note C_, 1
	note __, 1
	note B_, 1
	note D_, 1
	note C#, 1
	note D_, 1
	note B_, 1
	note __, 1
	note C_, 1
	note __, 1
	note B_, 1
	note D#, 1
	note D#, 1
	note __, 1
	note B_, 1
	note __, 1
	note C_, 1
	note __, 1
	note B_, 1
	note D_, 1
	note C#, 1
	note D_, 1
	note B_, 1
	note __, 1
	note C_, 1
	note __, 1
	note B_, 1
	note D#, 1
	note D#, 1
	note D_, 1
	note B_, 1
	note __, 1
	note C_, 1
	note __, 1
	note G#, 1
	note __, 9
	note G#, 1
	note __, 1
	note B_, 1
	note __, 1
	note C_, 1
	note __, 1
	note B_, 1
	note D_, 1
	note C#, 1
	note D_, 1
	note B_, 1
	note __, 1
	note C_, 1
	note __, 1
	note B_, 1
	note D#, 1
	note D#, 1
	note __, 1
	note B_, 1
	note __, 1
	note C_, 1
	note __, 1
	note B_, 1
	note D_, 1
	note C#, 1
	note D_, 1
	note B_, 1
	note __, 1
	note C_, 1
	note __, 1
	note B_, 1
	note D#, 1
	note D#, 1
	note __, 1
	note B_, 1
	note __, 1
	note C_, 1
	note __, 1
	note B_, 1
	note D_, 1
	note C#, 1
	note D_, 1
	note B_, 1
	note __, 1
	note C_, 1
	note __, 1
	note B_, 1
	note D#, 1
	note D#, 1
	note __, 1
	note B_, 1
	note __, 1
	note C_, 1
	note __, 1
	note B_, 1
	note D_, 1
	note C#, 1
	note D_, 1
	note B_, 1
	note __, 1
	note C_, 1
	note __, 1
	note B_, 1
	note __, 1
	note G#, 1
	note __, 1
	note D#, 1
	note D_, 1
	note D#, 1
	note __, 1
	note D#, 1
	note __, 1
	note D_, 1
	note __, 1
	note D#, 1
	note __, 1
	note D_, 1
	note D#, 1
	note C#, 1
	note __, 1
	note G#, 1
	note __, 11
	note G#, 1
	note __, 3
	note G#, 1
	note __, 1
	note B_, 1
	note __, 1
	loopchannel 0, Music_CityOrange_Ch4_loop

