Music_CrimsonRoute:
	musicheader 4, 1, Music_CrimsonRoute_Ch1
	musicheader 1, 2, Music_CrimsonRoute_Ch2
	musicheader 1, 3, Music_CrimsonRoute_Ch3
	musicheader 1, 4, Music_CrimsonRoute_Ch4

Music_CrimsonRoute_Ch1:
	tempo $A5
	volume $77
	stereopanning $f
	notetype $C, $00
	note __, 4
	dutycycle 1
	tone $0001
	intensity $0F
	octave 2
	note G#, 2
	intensity $38
	note G#, 2
Music_CrimsonRoute_Ch1_loop:
	dutycycle 2
	octave 4
	notetype $6, $71
	note C_, 1
	note D#, 1
	note C_, 1
	octave 3
	note A#, 1
	octave 4
	note D#, 1
	note D_, 1
	note C_, 1
	note D#, 1
	note G#, 1
	note F_, 1
	note D#, 1
	note F_, 1
	note G#, 1
	note C_, 1
	note D_, 1
	note D#, 1
	octave 5
	note C_, 1
	octave 4
	note A#, 1
	note G#, 1
	note D#, 1
	note F_, 1
	note G#, 1
	note F_, 1
	note D#, 1
	octave 5
	note C_, 1
	octave 4
	note A#, 1
	note G#, 1
	note D#, 1
	note F_, 1
	note G#, 1
	octave 5
	note C_, 1
	note D#, 2
	note __, 7
	dutycycle 0
	intensity $A2
	octave 2
	note G#, 4
	intensity $A5
	note G#, 6
	note __, 14
	dutycycle 2
	intensity $71
	octave 3
	note G#, 1
	note B_, 1
	note G#, 1
	note A#, 1
	note B_, 1
	note A#, 1
	note G#, 1
	note B_, 1
	octave 4
	note E_, 1
	note C#, 1
	octave 3
	note B_, 1
	octave 4
	note C#, 1
	note E_, 1
	octave 3
	note A#, 1
	note B_, 1
	octave 4
	note C#, 1
	note G#, 1
	note F#, 1
	note E_, 1
	octave 3
	note B_, 1
	octave 4
	note C#, 1
	note E_, 1
	note C#, 1
	octave 3
	note B_, 1
	octave 4
	note G#, 1
	note F#, 1
	note E_, 1
	note F#, 1
	note E_, 1
	note G#, 1
	octave 5
	note C#, 1
	note E_, 2
	note __, 7
	dutycycle 0
	intensity $A2
	octave 2
	note B_, 4
	intensity $A5
	note B_, 6
	note __, 14
	intensity $B3
	note B_, 4
	note __, 2
	note B_, 4
	note __, 2
	note B_, 4
	note __, 4
	note B_, 2
	note __, 2
	note B_, 4
	note G#, 4
	octave 3
	note E_, 4
	note __, 2
	note E_, 4
	note __, 2
	note E_, 4
	note __, 4
	note E_, 2
	note __, 2
	note E_, 4
	note D_, 4
	note __, 4
	intensity $A5
	note G_, 2
	note __, 2
	note D#, 2
	note G_, 2
	note __, 2
	note G#, 2
	note __, 2
	note G_, 2
	note G#, 2
	note __, 2
	note G_, 4
	note D#, 4
	note __, 4
	intensity $A2
	note A#, 2
	note __, 2
	intensity $A1
	note A#, 2
	intensity $A2
	note A#, 2
	note __, 2
	intensity $A5
	note A#, 10
	note __, 8
	intensity $92
	octave 5
	note G#, 2
	note F#, 2
	note D#, 2
	note G#, 2
	note F#, 2
	note D#, 2
	note G#, 2
	note F#, 2
	note D#, 2
	note G#, 2
	note F#, 2
	note D#, 2
	octave 6
	note C_, 2
	octave 5
	note G#, 2
	dutycycle 2
	intensity $B2
	note C#, 4
	note D#, 4
	note __, 4
	note F_, 4
	note __, 2
	note G#, 4
	note __, 2
	dutycycle 1
	intensity $83
	octave 3
	note C_, 4
	note __, 4
	note C_, 4
	dutycycle 0
	intensity $92
	octave 5
	note D#, 2
	note F#, 2
	note B_, 2
	note D#, 2
	note B_, 2
	note F#, 2
	note D#, 2
	note F#, 2
	note B_, 2
	octave 6
	note C#, 2
	octave 5
	note B_, 2
	note F#, 2
	note D#, 2
	octave 4
	note B_, 2
	dutycycle 2
	intensity $B2
	octave 5
	note G#, 4
	note F#, 4
	note __, 4
	note G#, 4
	note __, 2
	note D#, 4
	note __, 2
	note F#, 4
	note C#, 4
	octave 4
	note A#, 4
	dutycycle 0
	intensity $92
	octave 5
	note E_, 2
	note C#, 2
	octave 4
	note B_, 2
	octave 5
	note F#, 2
	note E_, 2
	octave 4
	note B_, 2
	octave 5
	note G#, 2
	note F#, 2
	note C#, 2
	note E_, 2
	note F#, 2
	note G#, 2
	note B_, 2
	note F#, 2
	note G#, 2
	note E_, 2
	dutycycle 1
	intensity $98
	octave 2
	note E_, 2
	note __, 2
	octave 1
	note B_, 2
	octave 2
	note E_, 2
	note __, 2
	octave 1
	note B_, 2
	octave 2
	note E_, 2
	note __, 4
	octave 1
	note B_, 2
	octave 2
	note E_, 2
	note __, 2
	intensity $78
	octave 1
	note B_, 4
	octave 2
	note E_, 4
	dutycycle 0
	intensity $92
	octave 5
	note A#, 2
	note F#, 2
	note C#, 2
	note E_, 2
	note F#, 2
	note C#, 2
	octave 4
	note A#, 2
	octave 5
	note C#, 2
	note F#, 2
	note C#, 2
	note F#, 2
	note A#, 2
	note C#, 2
	note F#, 2
	note A#, 2
	note F#, 2
	intensity $81
	note F#, 1
	note D#, 1
	note C#, 1
	octave 4
	note A#, 1
	octave 5
	note F#, 1
	note D#, 1
	note C#, 1
	note F#, 1
	note G#, 1
	note F#, 1
	note D#, 1
	note F#, 1
	note A#, 1
	note F#, 1
	note G#, 1
	note A#, 1
	octave 6
	note C#, 1
	octave 5
	note B_, 1
	note A#, 1
	note G#, 1
	note A#, 1
	note G#, 1
	note F#, 1
	note F_, 1
	note F#, 1
	note D#, 1
	note C#, 1
	octave 4
	note B_, 1
	note A#, 1
	octave 5
	note C#, 1
	note E_, 1
	note F#, 1
	intensity $A2
	octave 3
	note B_, 4
	note __, 2
	note B_, 2
	note __, 4
	octave 2
	note B_, 4
	intensity $A3
	note B_, 8
	intensity $A5
	note B_, 8
	intensity $A2
	octave 4
	note C#, 4
	note __, 2
	note C#, 2
	note __, 4
	octave 3
	note C#, 4
	intensity $A3
	note C#, 8
	intensity $A5
	note C#, 8
	intensity $91
	octave 5
	note B_, 2
	note __, 2
	octave 4
	note B_, 2
	octave 5
	note B_, 2
	note __, 2
	octave 4
	note B_, 2
	octave 5
	note B_, 2
	octave 4
	note B_, 2
	note __, 2
	octave 5
	note B_, 2
	note __, 2
	octave 4
	note B_, 2
	octave 5
	note B_, 2
	note __, 2
	octave 4
	note B_, 2
	note __, 2
	octave 5
	note B_, 2
	note __, 2
	octave 4
	note B_, 2
	octave 5
	note B_, 2
	note __, 2
	octave 4
	note B_, 2
	octave 5
	note B_, 2
	octave 4
	note B_, 2
	note __, 2
	octave 5
	note B_, 2
	note __, 2
	octave 4
	note B_, 2
	octave 5
	note B_, 2
	note __, 2
	octave 4
	note B_, 2
	note __, 2
	intensity $A2
	octave 3
	note B_, 4
	note __, 2
	note B_, 2
	note __, 4
	octave 2
	note B_, 4
	intensity $A3
	note B_, 8
	intensity $A5
	note B_, 8
	intensity $A3
	octave 3
	note A_, 4
	note __, 2
	note E_, 4
	note __, 2
	note A_, 4
	note __, 2
	note E_, 4
	note __, 2
	intensity $A5
	note C#, 8
	intensity $A7
	note D#, 12
	note F#, 16
	note __, 8
	intensity $A2
	note F#, 2
	note __, 2
	note F#, 2
	note __, 2
	note D#, 2
	note __, 2
	note F#, 2
	note __, 2
	note D#, 2
	note __, 2
	note F#, 2
	note __, 2
	note F#, 4
	note __, 4
	note F_, 2
	note __, 2
	note F_, 2
	note __, 2
	note D_, 2
	note __, 2
	note F_, 2
	note __, 2
	note D_, 2
	note F_, 2
	note __, 2
	note F_, 2
	note D_, 4
	intensity $A3
	octave 2
	note A#, 6
	octave 3
	note C#, 6
	note F_, 2
	intensity $A5
	note G_, 6
	dutycycle 1
	intensity $A2
	octave 2
	note G_, 4
	intensity $A5
	note G_, 8
	loopchannel 0, Music_CrimsonRoute_Ch1_loop

Music_CrimsonRoute_Ch2:
	stereopanning $f0
	notetype $C, $00
	note __, 4
	dutycycle 1
	tone $0002
	intensity $0D
	octave 3
	note D#, 4
Music_CrimsonRoute_Ch2_loop:
	notetype $C, $C3
	vibrato $00, $23
	note G#, 2
	note __, 2
	note D#, 1
	note G#, 1
	note __, 1
	note D#, 2
	note C_, 1
	note D#, 2
	note G#, 2
	note D#, 2
	dutycycle 2
	intensity $A5
	note C_, 2
	note __, 1
	note C#, 2
	note __, 1
	note D#, 3
	note __, 1
	note C_, 4
	dutycycle 1
	intensity $C3
	note G#, 2
	note E_, 2
	note __, 2
	octave 2
	note B_, 1
	octave 3
	note E_, 1
	note __, 1
	note B_, 2
	octave 2
	note B_, 1
	octave 3
	note E_, 2
	note B_, 2
	note G#, 2
	dutycycle 2
	intensity $A5
	octave 2
	note B_, 2
	note __, 1
	octave 3
	note C#, 2
	note __, 1
	note E_, 3
	note __, 1
	octave 2
	note B_, 4
	note __, 4
	dutycycle 1
	intensity $C2
	octave 3
	note G#, 1
	note __, 1
	note G#, 1
	note __, 1
	note E_, 1
	note __, 1
	note G#, 1
	note __, 1
	note E_, 1
	note __, 1
	note G#, 1
	note __, 1
	note E_, 2
	note __, 2
	note B_, 1
	note __, 1
	note B_, 1
	note __, 1
	note G#, 1
	note __, 1
	note B_, 1
	note __, 1
	note G#, 1
	note __, 1
	octave 4
	note E_, 1
	note __, 1
	octave 3
	note B_, 2
	note __, 2
	octave 4
	note D#, 1
	note __, 1
	note C#, 1
	note D#, 1
	note __, 1
	note D#, 1
	note __, 1
	note C#, 1
	note D#, 1
	note __, 1
	note C#, 2
	note D#, 2
	note __, 2
	note D#, 1
	note __, 1
	note C#, 1
	note D#, 1
	note __, 1
	intensity $C5
	note G_, 3
	dutycycle 2
	intensity $98
	vibrato $10, $45
	octave 2
	note D#, 2
	note G_, 2
	note A#, 2
	intensity $B8
	octave 3
	note C_, 8
	intensity $88
	note C_, 2
	intensity $B8
	note C#, 1
	intensity $88
	note C#, 1
	note __, 2
	intensity $B8
	note D#, 10
	intensity $88
	note D#, 2
	intensity $B8
	note G#, 1
	intensity $88
	note G#, 1
	note __, 4
	intensity $B8
	note F#, 12
	intensity $88
	note F#, 2
	intensity $B8
	note C#, 10
	intensity $88
	note C#, 2
	intensity $B8
	octave 2
	note A#, 2
	intensity $88
	note A#, 2
	intensity $B8
	octave 3
	note C#, 2
	octave 2
	note B_, 10
	intensity $88
	note B_, 2
	intensity $B8
	note G#, 2
	octave 3
	note E_, 12
	intensity $88
	note E_, 2
	intensity $B8
	octave 2
	note B_, 4
	octave 3
	notetype $B, $B8
	note C#, 6
	notetype $6, $B8
	note E_, 1
	note F#, 12
	note C#, 2
	octave 2
	note B_, 2
	note A#, 12
	note B_, 4
	note F#, 15
	notetype $4, $B8
	note F#, 1
	notetype $2, $B8
	note __, 1
	intensity $88
	note F#, 12
	dutycycle 1
	intensity $C2
	vibrato $00, $23
	octave 3
	note G_, 12
	note __, 6
	note G_, 6
	note __, 12
	intensity $C3
	note D_, 12
	intensity $C2
	note G_, 6
	note __, 6
	intensity $C3
	note D_, 12
	intensity $C2
	note G_, 6
	note B_, 12
	note __, 6
	note A_, 12
	note __, 6
	note A_, 6
	note __, 12
	intensity $C3
	note E_, 12
	intensity $C2
	octave 4
	note C#, 6
	note __, 6
	octave 3
	note A_, 6
	note __, 6
	note E_, 6
	note F_, 6
	notetype $C, $C8
	note F#, 4
	intensity $C5
	note F#, 3
	note E_, 1
	intensity $C8
	note D#, 5
	intensity $C5
	note D#, 3
	note __, 2
	dutycycle 0
	intensity $A2
	octave 4
	note F#, 1
	note D#, 1
	octave 3
	note B_, 1
	intensity $82
	octave 4
	note F#, 1
	note D#, 1
	octave 3
	note B_, 1
	intensity $64
	octave 4
	note F#, 1
	note D#, 1
	octave 3
	note B_, 1
	octave 4
	note F#, 1
	note D#, 1
	octave 3
	note B_, 1
	note F#, 1
	dutycycle 1
	intensity $B3
	note D_, 1
	note D#, 1
	note F#, 1
	intensity $C2
	note G_, 2
	note __, 1
	note G_, 1
	note __, 2
	intensity $C3
	note D_, 2
	intensity $C2
	note G_, 1
	note __, 1
	intensity $C3
	note D_, 2
	intensity $C2
	note G_, 1
	intensity $C3
	note B_, 2
	note __, 1
	octave 4
	note C#, 2
	note __, 1
	octave 3
	note A_, 2
	note __, 1
	octave 4
	note E_, 2
	note __, 1
	note C#, 2
	note __, 1
	octave 3
	note E_, 1
	note F_, 1
	intensity $C8
	note F#, 3
	intensity $C5
	note F#, 3
	notetype $9, $C5
	note __, 2
	notetype $6, $C1
	note A_, 1
	intensity $C8
	note B_, 10
	intensity $C5
	note B_, 6
	note __, 8
	intensity $B2
	note B_, 2
	note __, 2
	note B_, 2
	note __, 2
	note B_, 2
	note __, 2
	note B_, 2
	note __, 2
	note B_, 2
	note __, 2
	note B_, 2
	note __, 2
	note B_, 4
	note __, 4
	note A#, 2
	note __, 2
	note A#, 2
	note __, 2
	note A#, 2
	note __, 2
	note A#, 2
	note __, 2
	note A#, 2
	note A#, 2
	note __, 2
	note A#, 2
	note A#, 4
	note __, 4
	note G_, 2
	note G#, 2
	note A#, 4
	note G_, 2
	intensity $C4
	octave 4
	note D#, 6
	intensity $C2
	octave 3
	note D#, 2
	note __, 2
	intensity $C5
	note D#, 6
	note __, 2
	loopchannel 0, Music_CrimsonRoute_Ch2_loop

Music_CrimsonRoute_Ch3:
	notetype $C, $00
	note __, 8
Music_CrimsonRoute_Ch3_loop:
	dutycycle 4
	notetype $C, $14
	octave 3
	note D#, 2
	note __, 2
	note C_, 1
	note __, 1
	note G#, 8
	dutycycle 2
	intensity $12
	vibrato $00, $15
	octave 6
	note C_, 1
	octave 5
	note A#, 1
	octave 6
	note C_, 1
	note __, 1
	note C#, 1
	note __, 1
	note C_, 1
	note C#, 1
	notetype $6, $12
	note __, 1
	octave 5
	note B_, 1
	octave 6
	note C_, 5
	octave 5
	note G_, 1
	note G#, 4
	note __, 8
	dutycycle 4
	intensity $14
	vibrato $00, $00
	octave 3
	note E_, 4
	note __, 4
	octave 2
	note B_, 2
	note __, 2
	octave 3
	note E_, 16
	dutycycle 2
	intensity $12
	vibrato $00, $15
	octave 5
	note B_, 2
	note G#, 2
	note B_, 2
	note __, 2
	octave 6
	note C#, 2
	note __, 2
	octave 5
	note B_, 2
	octave 6
	note C#, 2
	note __, 1
	octave 5
	note A#, 1
	note B_, 5
	note G_, 1
	note G#, 4
	note __, 8
	dutycycle 4
	intensity $14
	vibrato $00, $00
	octave 3
	note E_, 6
	note __, 2
	octave 2
	note B_, 6
	note __, 2
	octave 3
	note E_, 6
	note __, 2
	octave 2
	note B_, 6
	note __, 2
	octave 3
	note E_, 6
	note __, 2
	octave 2
	note B_, 6
	note __, 2
	octave 3
	note F#, 6
	note __, 2
	note E_, 6
	note __, 2
	note D#, 6
	note G_, 6
	note A#, 6
	note G_, 6
	note D#, 4
	note G_, 4
	note D#, 6
	note G_, 6
	note A#, 8
	note __, 12
	note D#, 2
	note __, 2
	note G#, 2
	note D#, 2
	note __, 2
	note G#, 2
	note D#, 2
	note C_, 2
	note G#, 2
	note __, 2
	note D#, 2
	note G#, 2
	note D#, 2
	note __, 2
	note D#, 2
	note C_, 2
	note D#, 2
	note __, 6
	note D#, 2
	note C_, 2
	note C#, 2
	note D#, 2
	note __, 2
	note D#, 2
	note C_, 2
	note C#, 2
	note D#, 2
	note __, 2
	note C_, 2
	note __, 2
	note C#, 2
	note __, 2
	note F#, 2
	note C#, 2
	note __, 2
	note F#, 2
	note C#, 2
	octave 2
	note A#, 2
	octave 3
	note F#, 2
	note __, 2
	note C#, 2
	note F#, 2
	note C#, 2
	note __, 2
	note C#, 2
	octave 2
	note A#, 2
	octave 3
	note C#, 2
	note __, 6
	note C#, 2
	octave 2
	note A#, 2
	octave 3
	note C_, 2
	note C#, 2
	note __, 2
	note C#, 2
	octave 2
	note A#, 2
	note __, 2
	octave 3
	note C#, 2
	note __, 2
	octave 2
	note B_, 2
	note __, 2
	octave 3
	note E_, 2
	note __, 2
	note G#, 2
	note E_, 2
	note __, 2
	note G#, 2
	note E_, 2
	octave 2
	note B_, 2
	octave 3
	note G#, 2
	note __, 2
	note E_, 2
	note G#, 2
	note E_, 2
	note __, 2
	note E_, 2
	octave 2
	note B_, 2
	dutycycle 3
	intensity $13
	vibrato $00, $24
	octave 4
	note G#, 2
	note B_, 2
	note __, 2
	octave 5
	note E_, 2
	note __, 2
	note F#, 2
	note __, 2
	octave 4
	note B_, 2
	octave 5
	note E_, 2
	note __, 2
	note F#, 2
	note __, 1
	note D#, 1
	note E_, 4
	octave 4
	note B_, 4
	dutycycle 4
	intensity $14
	vibrato $00, $00
	octave 3
	note F#, 2
	note __, 2
	note C#, 2
	note F#, 2
	note __, 2
	note C#, 2
	note F#, 2
	note A#, 2
	note C#, 2
	note F#, 2
	note A#, 2
	note __, 2
	note A#, 2
	note __, 2
	note G#, 2
	note D#, 2
	note F#, 2
	note __, 2
	note C#, 2
	note F#, 2
	note __, 4
	note C#, 2
	octave 2
	note A#, 2
	note __, 2
	octave 3
	note C#, 2
	octave 2
	note A#, 2
	octave 3
	note C#, 2
	note F#, 2
	note __, 2
	note C#, 4
	octave 2
	note G_, 2
	note __, 2
	octave 3
	note D_, 4
	note __, 4
	note D_, 2
	note __, 2
	note D_, 2
	note __, 2
	note D_, 4
	octave 2
	note B_, 4
	note G_, 4
	note A_, 2
	note __, 2
	octave 3
	note C#, 4
	note __, 4
	note C#, 2
	note __, 2
	note C#, 2
	note __, 2
	note C#, 4
	octave 2
	note A_, 4
	note E_, 4
	note B_, 2
	note __, 2
	note F#, 2
	octave 3
	note D#, 4
	octave 2
	note F#, 2
	note B_, 2
	note __, 2
	note F#, 2
	octave 3
	note D#, 4
	octave 2
	note F#, 2
	note B_, 2
	note A_, 2
	note B_, 4
	note B_, 2
	note __, 2
	note F#, 2
	octave 3
	note E_, 4
	octave 2
	note F#, 2
	note B_, 2
	note __, 2
	note F#, 2
	octave 3
	note F#, 4
	octave 2
	note F#, 2
	octave 3
	note F#, 2
	note D#, 2
	octave 2
	note B_, 4
	note G_, 2
	note __, 2
	octave 3
	note D_, 4
	note __, 4
	note D_, 2
	note __, 2
	note D_, 2
	note __, 2
	note D_, 4
	octave 2
	note B_, 4
	note G_, 4
	octave 3
	note E_, 2
	note __, 2
	note C#, 2
	note A_, 4
	note E_, 2
	octave 4
	note C#, 4
	octave 3
	note E_, 2
	note A_, 2
	note E_, 2
	note C#, 2
	note E_, 2
	note C#, 2
	note E_, 2
	note D#, 2
	note D#, 4
	octave 2
	note B_, 2
	note __, 2
	octave 3
	note B_, 2
	note __, 2
	note F#, 4
	octave 2
	note B_, 2
	octave 3
	note E_, 2
	note __, 2
	octave 2
	note B_, 2
	octave 3
	note D#, 4
	octave 2
	note B_, 4
	note __, 4
	octave 3
	note D#, 2
	note __, 2
	note D#, 2
	note __, 2
	octave 2
	note B_, 1
	note __, 1
	note B_, 2
	octave 3
	note D#, 2
	note __, 2
	octave 2
	note B_, 2
	note __, 2
	octave 3
	note D#, 2
	note E_, 2
	note D#, 2
	octave 2
	note B_, 2
	note __, 4
	octave 3
	note F_, 2
	note __, 2
	note F_, 2
	note __, 2
	note D_, 1
	note __, 1
	octave 2
	note A#, 2
	octave 3
	note D_, 2
	note __, 2
	octave 2
	note A#, 2
	note __, 2
	octave 3
	note D_, 2
	note A#, 2
	note F_, 2
	note __, 2
	note D#, 2
	note __, 2
	note G_, 4
	note F_, 4
	note D#, 2
	note A#, 6
	note G_, 4
	note D#, 4
	note C#, 4
	loopchannel 0, Music_CrimsonRoute_Ch3_loop

Music_CrimsonRoute_Ch4:
	togglenoise 1
	notetype $C
	note E_, 1
	note __, 1
	note A_, 1
	note __, 1
	note D#, 1
	note __, 1
	note F_, 1
	note D#, 1
Music_CrimsonRoute_Ch4_loop:
	notetype $C
	note F#, 1
	note __, 1
	note A#, 1
	note __, 1
	note D#, 1
	note __, 1
	note A#, 1
	note E_, 1
	note A_, 1
	note __, 1
	note A#, 1
	note __, 1
	note D#, 1
	note __, 1
	note A#, 1
	note E_, 1
	note A_, 1
	note __, 1
	note A#, 1
	note __, 1
	note D#, 1
	note __, 1
	note A#, 1
	note E_, 1
	note A_, 1
	note __, 1
	note A#, 1
	note __, 1
	note D#, 1
	note __, 1
	note A#, 1
	note E_, 1
	note F_, 1
	note __, 1
	note A#, 1
	note __, 1
	note D#, 1
	note __, 1
	note A#, 1
	note E_, 1
	note A_, 1
	note __, 1
	note A#, 1
	note __, 1
	note D#, 1
	note __, 1
	note A#, 1
	note E_, 1
	note A_, 1
	note __, 1
	note A#, 1
	note __, 1
	note D#, 1
	note __, 1
	note A#, 1
	note E_, 1
	note A_, 1
	note __, 1
	note A#, 1
	note __, 1
	note D#, 1
	note __, 1
	note A#, 1
	note E_, 1
	note F#, 1
	note __, 1
	note A#, 1
	note __, 1
	note D#, 1
	note __, 1
	note A#, 1
	note E_, 1
	note A_, 1
	note __, 1
	note A#, 1
	note __, 1
	note D#, 1
	note __, 1
	note A#, 1
	note E_, 1
	note A_, 1
	note __, 1
	note A#, 1
	note __, 1
	note D#, 1
	note __, 1
	note A#, 1
	note E_, 1
	note A_, 1
	note __, 1
	note A#, 1
	note __, 1
	note D#, 1
	note __, 1
	note A#, 1
	note D#, 1
	note F#, 1
	note __, 1
	note A#, 1
	note __, 1
	note D#, 1
	note __, 1
	note A#, 1
	note E_, 1
	note A_, 1
	note __, 1
	note A#, 1
	note __, 1
	note D#, 1
	note __, 1
	note A#, 1
	note D#, 1
	note F_, 1
	note __, 1
	note A#, 1
	note __, 1
	note D#, 1
	note __, 1
	note A#, 1
	note F#, 1
	note __, 8
	note F#, 1
	note __, 1
	note A#, 1
	note __, 1
	note D#, 1
	note __, 1
	note A#, 1
	note E_, 1
	note A_, 1
	note __, 1
	note A#, 1
	note __, 1
	note D#, 1
	note __, 1
	note A#, 1
	note __, 1
	note A_, 1
	note __, 1
	note A#, 1
	note __, 1
	note D#, 1
	note __, 1
	note A#, 1
	note E_, 1
	note A_, 1
	note __, 1
	note A#, 1
	note A_, 1
	note D#, 1
	note __, 1
	note A#, 1
	note E_, 1
	note F_, 1
	note __, 1
	note A#, 1
	note __, 1
	note D#, 1
	note __, 1
	note A#, 1
	note E_, 1
	note A_, 1
	note __, 1
	note A#, 1
	note __, 1
	note D#, 1
	note __, 1
	note A#, 1
	note __, 1
	note A_, 1
	note __, 1
	note A#, 1
	note __, 1
	note D#, 1
	note __, 1
	note A#, 1
	note E_, 1
	note A_, 1
	note __, 1
	note A#, 1
	note A_, 1
	note D#, 1
	note __, 1
	note A#, 1
	note __, 1
	note F#, 1
	note __, 1
	note A#, 1
	note __, 1
	note D#, 1
	note __, 1
	note A#, 1
	note E_, 1
	note A_, 1
	note __, 1
	note A#, 1
	note __, 1
	note D#, 1
	note __, 1
	note A#, 1
	note __, 1
	note A_, 1
	note __, 1
	note A#, 1
	note __, 1
	note D#, 1
	note __, 1
	note A#, 1
	note __, 1
	note A_, 1
	note E_, 1
	note A#, 1
	note __, 1
	note D#, 1
	note __, 1
	note A#, 1
	note E_, 1
	note F_, 1
	note __, 1
	note A#, 1
	note __, 1
	note D#, 1
	note __, 1
	note A#, 1
	note E_, 1
	note A_, 1
	note __, 1
	note A#, 1
	note __, 1
	note D#, 1
	note __, 1
	note A#, 1
	note __, 1
	note A_, 1
	note __, 1
	note A#, 1
	note __, 1
	note D#, 1
	note __, 1
	note A#, 1
	note __, 1
	note A_, 1
	note E_, 1
	note A#, 1
	note A_, 1
	note D#, 1
	note __, 1
	note D#, 1
	note __, 1
	note F#, 1
	note __, 1
	note A_, 1
	note D#, 1
	note __, 1
	note A_, 1
	note F#, 1
	note __, 1
	note D#, 1
	note A_, 1
	note F_, 1
	note A_, 1
	note F_, 1
	note D#, 1
	note __, 2
	note F#, 1
	note __, 1
	note A_, 1
	note D#, 1
	note __, 1
	note A_, 1
	note F#, 1
	note __, 1
	note D#, 1
	note A_, 1
	note D#, 1
	note A_, 1
	note F#, 1
	note F_, 1
	note F#, 1
	note __, 1
	note F#, 1
	note __, 1
	note A#, 1
	note __, 1
	note D#, 1
	note __, 1
	note A#, 1
	note E_, 1
	note A_, 1
	note __, 1
	note A#, 1
	note __, 1
	note D#, 1
	note __, 1
	note A#, 1
	note __, 1
	note A_, 1
	note __, 1
	note A#, 1
	note __, 1
	note D#, 1
	note __, 1
	note A#, 1
	note E_, 1
	note A_, 1
	note __, 1
	note A#, 1
	note A_, 1
	note D#, 1
	note E_, 1
	note D#, 1
	note __, 1
	note F#, 1
	note __, 1
	note A_, 1
	note D#, 1
	note __, 1
	note A_, 1
	note F#, 1
	note __, 1
	note D#, 1
	note A_, 1
	note F_, 1
	note A_, 1
	note F_, 1
	note D#, 1
	note __, 2
	note F#, 1
	note __, 1
	note A_, 1
	note D#, 1
	note __, 1
	note A_, 1
	note F#, 1
	note __, 1
	note A_, 1
	note D#, 1
	note __, 1
	note A_, 1
	note F#, 1
	note F_, 1
	note D#, 1
	note __, 1
	note F#, 1
	note __, 1
	note A#, 1
	note __, 1
	note D#, 1
	note __, 1
	note A#, 1
	note E_, 1
	note A_, 1
	note __, 1
	note A#, 1
	note __, 1
	note D#, 1
	note __, 1
	note A#, 1
	note __, 1
	note A_, 1
	note __, 1
	note A#, 1
	note __, 1
	note D#, 1
	note __, 1
	note A#, 1
	note E_, 1
	note A_, 1
	note __, 1
	note A#, 1
	note A_, 1
	note D#, 1
	note __, 1
	note F_, 1
	note __, 1
	note E_, 1
	note __, 1
	note A#, 1
	note __, 1
	note D#, 1
	note __, 1
	note A#, 1
	note E_, 1
	note A_, 1
	note __, 1
	note A#, 1
	note A_, 1
	note D#, 1
	note __, 1
	note F_, 1
	note __, 1
	note A_, 1
	note __, 1
	note A#, 1
	note __, 1
	note F#, 1
	note __, 1
	note A#, 1
	note D#, 1
	note __, 8
	loopchannel 0, Music_CrimsonRoute_Ch4_loop

