Music_CrossBattle:
	musicheader 4, 1, Music_CrossBattle_Ch1
	musicheader 1, 2, Music_CrossBattle_Ch2
	musicheader 1, 3, Music_CrossBattle_Ch3
	musicheader 1, 4, Music_CrossBattle_Ch4

Music_CrossBattle_Ch1:
	tempo $6E
	volume $77
	stereopanning $77
	dutycycle 1
	vibrato $04, $24
	octave 4
	notetype $C, $D1
	note A#, 1
	note A_, 1
	note G#, 1
	note F#, 1
	note A#, 1
	note G#, 1
	note F#, 1
	note F_, 1
	note A#, 1
	note F#, 1
	note F_, 1
	note E_, 1
	note A#, 1
	note E_, 1
	note D#, 1
	note D_, 1
	note A#, 1
	note D#, 1
	note D_, 1
	note C#, 1
	note A#, 1
	note D_, 1
	note C#, 1
	note C_, 1
	note A#, 1
	note C#, 1
	note C_, 1
	octave 3
	note B_, 1
	octave 4
	note A#, 1
	note C_, 1
	octave 3
	note B_, 1
	note A#, 1
	dutycycle 2
	tone $0002
	intensity $70
	octave 2
	note D_, 2
	octave 3
	note D_, 2
	octave 2
	note C_, 2
	octave 3
	note C_, 2
	octave 1
	note A#, 2
	octave 2
	note A#, 2
	octave 1
	note G#, 2
	octave 2
	note G#, 2
	note C_, 2
	octave 3
	note C_, 2
	octave 2
	note C_, 2
	octave 3
	note C_, 2
	octave 2
	note F_, 2
	octave 3
	note F_, 2
	octave 2
	note F_, 2
	octave 3
	note F_, 2
	octave 2
	note D_, 2
	octave 3
	note D_, 2
	octave 2
	note C_, 2
	octave 3
	note C_, 2
	octave 1
	note A#, 2
	octave 2
	note A#, 2
	octave 1
	note G#, 2
	octave 2
	note G#, 2
	note C_, 2
	octave 3
	note C_, 2
	octave 2
	note C_, 2
	octave 3
	note C_, 2
	octave 2
	note F_, 2
	octave 3
	note F_, 2
	octave 2
	note F_, 2
	octave 3
	note F_, 2
	octave 2
	note D_, 2
	octave 3
	note D_, 2
	octave 2
	note C_, 2
	octave 3
	note C_, 2
	octave 1
	note A#, 2
	octave 2
	note A#, 2
	octave 1
	note G#, 2
	octave 2
	note G#, 2
	note C_, 2
	octave 3
	note C_, 2
	octave 2
	note C_, 2
	octave 3
	note C_, 2
	octave 2
	note F_, 2
	octave 3
	note F_, 2
	octave 2
	note F_, 2
	octave 3
	note F_, 2
	octave 2
	note D_, 2
	octave 3
	note D_, 2
	octave 2
	note C_, 2
	octave 3
	note C_, 2
	octave 1
	note A#, 2
	octave 2
	note A#, 2
	octave 1
	note G#, 2
	octave 2
	note G#, 2
	note C_, 2
	octave 3
	note C_, 2
	octave 2
	note C_, 2
	octave 3
	note C_, 2
	octave 2
	note F_, 2
	octave 3
	note F_, 2
	octave 2
	note F_, 2
	octave 3
	note F_, 2
Music_CrossBattle_Ch1_loop:
	octave 3
	intensity $A4
	dutycycle 2
	note G_, 6
	note D_, 6
	note G_, 4
	note G#, 4
	note G_, 4
	note F_, 4
	note G#, 4
	note G_, 6
	note D_, 6
	note G_, 4
	note F_, 6
	octave 2
	note A#, 6
	octave 3
	note F_, 4
	note G_, 6
	note D_, 6
	note G_, 4
	note G#, 6
	note D#, 6
	note G#, 4
	note G_, 8
	note D_, 8
	note F_, 4
	note D#, 4
	note A#, 4
	note F_, 4
	note G_, 6
	note D_, 6
	note G_, 4
	note G#, 4
	note G_, 4
	note F_, 4
	note G#, 4
	note G_, 6
	note D_, 6
	note G_, 4
	note F_, 6
	octave 2
	note A#, 6
	octave 3
	note F_, 4
	note G_, 6
	note D_, 6
	note G_, 4
	note G#, 4
	note A#, 4
	octave 4
	note C_, 4
	note D#, 4
	octave 5
	note D#, 4
	note D_, 4
	note C_, 4
	octave 4
	note A#, 4
	octave 5
	note C_, 4
	octave 4
	note A#, 4
	note F_, 4
	note D_, 4
	tone $0000
	intensity $A7
	octave 3
	note G_, 6
	note F_, 2
	note G_, 2
	note G#, 2
	note A#, 4
	note G_, 8
	note D_, 8
	note D#, 6
	note F_, 2
	note G_, 2
	note G#, 2
	note A#, 4
	octave 4
	note C_, 8
	octave 3
	note F_, 8
	note G_, 6
	note F_, 2
	note G_, 2
	note G#, 2
	note A#, 4
	note G_, 8
	note D_, 8
	note D#, 6
	note F_, 2
	note G_, 2
	note G#, 2
	note A#, 4
	octave 4
	note C_, 8
	octave 3
	note F_, 8
	intensity $97
	note G_, 2
	note A#, 2
	octave 4
	note C_, 2
	note D_, 2
	note D#, 4
	note D_, 2
	note C_, 2
	note D_, 4
	octave 3
	note A#, 4
	note G_, 4
	octave 4
	note D_, 4
	note C_, 2
	octave 3
	note A#, 2
	octave 4
	note C_, 2
	note D_, 2
	note D#, 4
	note D_, 2
	note C_, 2
	note G_, 4
	note F_, 4
	note D_, 4
	octave 3
	note A#, 4
	octave 4
	note C_, 2
	octave 3
	note A#, 2
	octave 4
	note C_, 2
	note D_, 2
	note D#, 4
	note D_, 2
	note C_, 2
	note D_, 4
	octave 3
	note A#, 4
	note G_, 4
	octave 4
	note D_, 4
	note C_, 2
	octave 3
	note A#, 2
	octave 4
	note C_, 2
	note D_, 2
	note D#, 4
	note D_, 2
	octave 3
	note A#, 2
	octave 4
	note C_, 4
	note D#, 4
	note D_, 4
	octave 3
	note A#, 4
	dutycycle 0
	intensity $D4
	note G_, 2
	note C_, 2
	note __, 2
	note C_, 4
	note D#, 2
	note F_, 2
	note G_, 2
	note D#, 4
	note G#, 4
	note G_, 4
	note D#, 4
	intensity $D7
	octave 2
	note A#, 8
	octave 3
	note D_, 8
	note F_, 8
	note D_, 8
	intensity $D4
	note G_, 2
	note C_, 2
	note __, 2
	note C_, 4
	note D#, 2
	note F_, 2
	note G_, 2
	note G#, 4
	note A#, 4
	octave 4
	note C_, 4
	note D_, 2
	note D#, 2
	intensity $D7
	note F_, 8
	octave 3
	note D_, 8
	octave 2
	note A#, 8
	note F_, 8
	dutycycle 1
	intensity $A5
	note D#, 6
	note F_, 6
	note G_, 4
	note F_, 6
	note A_, 6
	note F_, 4
	note A#, 6
	note G#, 6
	note A#, 4
	octave 3
	note D_, 6
	octave 2
	note A_, 6
	octave 3
	note C_, 4
	note D#, 6
	note F_, 6
	note G_, 4
	note F_, 6
	note A_, 6
	note F_, 4
	note A#, 6
	note G#, 6
	note A#, 4
	octave 4
	note D_, 6
	octave 3
	note A_, 6
	octave 4
	note C_, 4
	loopchannel 0, Music_CrossBattle_Ch1_loop

Music_CrossBattle_Ch2:
	dutycycle 1
	vibrato $04, $24
	octave 4
	notetype $C, $D1
	note D_, 1
	note C#, 1
	note C_, 1
	octave 3
	note A#, 1
	octave 4
	note D_, 1
	note C_, 1
	octave 3
	note A#, 1
	note A_, 1
	octave 4
	note D_, 1
	octave 3
	note A#, 1
	note A_, 1
	note G#, 1
	octave 4
	note D_, 1
	octave 3
	note G#, 1
	note G_, 1
	note F#, 1
	octave 4
	note D_, 1
	octave 3
	note G_, 1
	note F#, 1
	note F_, 1
	octave 4
	note D_, 1
	octave 3
	note F#, 1
	note F_, 1
	note E_, 1
	octave 4
	note D_, 1
	octave 3
	note F_, 1
	note E_, 1
	note D#, 1
	octave 4
	note D_, 1
	octave 3
	note E_, 1
	note D#, 1
	note D_, 1
	note G_, 2
	intensity $D4
	note G_, 4
	note G#, 4
	note A#, 2
	note G#, 2
	note F_, 2
	note G_, 4
	note D#, 4
	note F_, 4
	note C_, 4
	intensity $D1
	note G_, 2
	intensity $D4
	note G_, 4
	note G#, 4
	note A#, 2
	note G#, 2
	note F_, 2
	note G_, 4
	note G#, 4
	note A#, 4
	note F_, 4
	intensity $D1
	octave 4
	note G_, 2
	intensity $D4
	note G_, 4
	note G#, 4
	note A#, 2
	note G#, 2
	note F_, 2
	note G_, 4
	note D#, 4
	note F_, 4
	note C_, 4
	intensity $D1
	note G_, 2
	intensity $D4
	note G_, 4
	note G#, 4
	note A#, 2
	note G#, 2
	note F_, 2
	note G_, 4
	note G#, 4
	note A#, 4
	note F_, 4
Music_CrossBattle_Ch2_loop:
	intensity $D5
	octave 4
	note C_, 2
	octave 3
	note A#, 2
	note G#, 2
	note F#, 2
	note G_, 4
	note F_, 2
	note D#, 2
	note C#, 2
	octave 2
	note A#, 2
	octave 3
	note C#, 2
	octave 2
	note A#, 2
	octave 3
	note D#, 4
	note C#, 2
	octave 2
	note B_, 2
	intensity $D7
	octave 3
	note C_, 16
	intensity $D5
	octave 2
	note A_, 4
	note A#, 4
	octave 3
	note C_, 4
	note D_, 4
	note D#, 2
	note C_, 2
	note D#, 2
	note F_, 2
	note G_, 4
	note F_, 2
	note G_, 2
	note G#, 2
	note G_, 2
	note A#, 2
	octave 4
	note C_, 2
	note C#, 4
	note C_, 2
	octave 3
	note B_, 2
	intensity $D7
	octave 4
	note C_, 16
	intensity $1F
	octave 3
	note A#, 16
	intensity $D4
	octave 4
	note C_, 4
	octave 3
	note A#, 4
	note G_, 4
	note D#, 4
	note F_, 4
	note D#, 4
	note C#, 4
	octave 2
	note A#, 4
	intensity $D7
	octave 3
	note C_, 16
	note D_, 4
	note C_, 4
	note F_, 4
	note D_, 4
	note D#, 6
	note C_, 6
	note D#, 4
	note F_, 4
	note G_, 4
	note G#, 4
	note A#, 4
	octave 4
	note C_, 16
	intensity $1C
	note D#, 8
	note D_, 8
	intensity $D4
	note C_, 2
	octave 3
	note A#, 2
	octave 4
	note C_, 2
	note D_, 2
	note D#, 4
	note D_, 2
	note C_, 2
	note D_, 4
	octave 3
	note A#, 4
	note G_, 4
	octave 4
	note D_, 4
	note C_, 2
	octave 3
	note A#, 2
	octave 4
	note C_, 2
	note D_, 2
	note D#, 4
	note D_, 2
	note C_, 2
	note G_, 4
	note F_, 4
	note D_, 4
	octave 3
	note A#, 4
	octave 4
	note C_, 2
	octave 3
	note A#, 2
	octave 4
	note C_, 2
	note D_, 2
	note D#, 4
	note D_, 2
	note C_, 2
	note D_, 4
	octave 3
	note A#, 4
	note G_, 4
	octave 4
	note D_, 4
	note C_, 2
	octave 3
	note A#, 2
	octave 4
	note C_, 2
	note D_, 2
	note D#, 4
	note D_, 2
	octave 3
	note A#, 2
	octave 4
	note C_, 4
	note D#, 4
	note D_, 4
	octave 3
	note A#, 4
	intensity $D7
	octave 4
	note C_, 16
	note F_, 8
	octave 3
	note A#, 8
	octave 4
	note D#, 12
	note D_, 2
	note D#, 2
	note F_, 4
	note G_, 4
	note F_, 4
	note D_, 4
	note G_, 12
	note D#, 4
	note F_, 4
	note D#, 4
	note D_, 4
	note F_, 4
	note D#, 12
	note C_, 4
	note A#, 16
	intensity $D4
	note D#, 6
	note C_, 6
	note D#, 2
	note F_, 2
	note G_, 4
	note F_, 4
	note D#, 4
	note C_, 4
	note F_, 6
	octave 3
	note A#, 6
	octave 4
	note F_, 4
	note D#, 4
	note F_, 4
	note D#, 4
	note D_, 4
	note D#, 6
	note C_, 6
	note D#, 2
	note F_, 2
	note G_, 4
	note F_, 4
	note D#, 4
	note G_, 2
	note G#, 2
	note A#, 8
	note G#, 8
	note G_, 8
	note D_, 8
	intensity $D5
	octave 3
	note C_, 6
	note D_, 6
	note D#, 4
	note D_, 6
	note F_, 6
	note D_, 4
	note G_, 6
	note F_, 6
	note G_, 4
	note A#, 6
	note G_, 6
	note A_, 4
	octave 4
	note C_, 6
	note D_, 6
	note D#, 4
	note D_, 6
	note F_, 6
	note D_, 4
	note G_, 6
	note F_, 6
	note G_, 4
	octave 3
	note A_, 4
	note G_, 4
	octave 4
	note C_, 4
	octave 3
	note A_, 4
	loopchannel 0, Music_CrossBattle_Ch2_loop

Music_CrossBattle_Ch3:
	dutycycle 5
	octave 2
	notetype $C, $15
	note G_, 2
	octave 3
	note G_, 2
	octave 2
	note G_, 2
	octave 3
	note F#, 2
	octave 2
	note G_, 2
	octave 3
	note F_, 2
	octave 2
	note G_, 2
	octave 3
	note E_, 2
	octave 2
	note G_, 2
	octave 3
	note D#, 2
	octave 2
	note G_, 2
	octave 3
	note C#, 2
	octave 2
	note G_, 2
	octave 3
	note C_, 2
	octave 2
	note G_, 2
	note A#, 2
	dutycycle 4
	intensity $14
	note G_, 2
	octave 3
	note G_, 2
	octave 2
	note G_, 2
	octave 3
	note F_, 2
	octave 2
	note G_, 2
	octave 3
	note G_, 2
	octave 2
	note G_, 2
	octave 3
	note G#, 2
	octave 2
	note G_, 2
	octave 3
	note G_, 2
	octave 2
	note G_, 2
	octave 3
	note F_, 2
	octave 2
	note G_, 2
	octave 3
	note D#, 2
	octave 2
	note G_, 2
	octave 3
	note F_, 2
	octave 2
	note G_, 2
	octave 3
	note G_, 2
	octave 2
	note G_, 2
	octave 3
	note F_, 2
	octave 2
	note G_, 2
	octave 3
	note G_, 2
	octave 2
	note G_, 2
	octave 3
	note G#, 2
	octave 2
	note G_, 2
	octave 3
	note G_, 2
	octave 2
	note G_, 2
	octave 3
	note F_, 2
	octave 2
	note G_, 2
	octave 3
	note D#, 2
	octave 2
	note G_, 2
	octave 3
	note D_, 2
	octave 2
	note G_, 2
	octave 3
	note G_, 2
	octave 2
	note G_, 2
	octave 3
	note F_, 2
	octave 2
	note G_, 2
	octave 3
	note G_, 2
	octave 2
	note G_, 2
	octave 3
	note G#, 2
	octave 2
	note G_, 2
	octave 3
	note G_, 2
	octave 2
	note G_, 2
	octave 3
	note F_, 2
	octave 2
	note G_, 2
	octave 3
	note D#, 2
	octave 2
	note G_, 2
	octave 3
	note F_, 2
	octave 2
	note G_, 2
	octave 3
	note G_, 2
	octave 2
	note G_, 2
	octave 3
	note F_, 2
	octave 2
	note G_, 2
	octave 3
	note G_, 2
	octave 2
	note G_, 2
	octave 3
	note G#, 2
	octave 2
	note G_, 2
	octave 3
	note G_, 2
	octave 2
	note G_, 2
	octave 3
	note A_, 2
	octave 2
	note G_, 2
	octave 3
	note A#, 2
	octave 2
	note G_, 2
	octave 4
	note C_, 2
Music_CrossBattle_Ch3_loop:
	octave 2
	note G_, 2
	octave 3
	note G_, 2
	octave 2
	note G_, 2
	octave 3
	note G_, 2
	octave 2
	note G_, 2
	octave 3
	note G_, 2
	octave 2
	note G_, 2
	octave 3
	note G_, 2
	octave 2
	note G#, 2
	octave 3
	note G#, 2
	octave 2
	note G#, 2
	octave 3
	note G#, 2
	octave 2
	note G#, 2
	octave 3
	note G#, 2
	octave 2
	note G#, 2
	octave 3
	note G#, 2
	octave 2
	note G_, 2
	octave 3
	note G_, 2
	octave 2
	note G_, 2
	octave 3
	note G_, 2
	octave 2
	note G_, 2
	octave 3
	note G_, 2
	octave 2
	note G_, 2
	octave 3
	note G_, 2
	octave 2
	note F_, 2
	octave 3
	note F_, 2
	octave 2
	note F_, 2
	octave 3
	note F_, 2
	octave 2
	note F_, 2
	octave 3
	note F_, 2
	octave 2
	note F_, 2
	octave 3
	note F_, 2
	octave 2
	note G_, 2
	octave 3
	note G_, 2
	octave 2
	note G_, 2
	octave 3
	note G_, 2
	octave 2
	note G_, 2
	octave 3
	note G_, 2
	octave 2
	note G_, 2
	octave 3
	note G_, 2
	octave 2
	note G#, 2
	octave 3
	note G#, 2
	octave 2
	note G#, 2
	octave 3
	note G#, 2
	octave 2
	note G#, 2
	octave 3
	note G#, 2
	octave 2
	note G#, 2
	octave 3
	note G#, 2
	octave 2
	note G_, 2
	octave 3
	note G_, 2
	octave 2
	note G_, 2
	octave 3
	note G_, 2
	octave 2
	note G_, 2
	octave 3
	note G_, 2
	octave 2
	note G_, 2
	octave 3
	note G_, 2
	octave 2
	note A#, 2
	octave 3
	note A#, 2
	octave 2
	note A#, 2
	octave 3
	note A#, 2
	octave 2
	note A#, 2
	octave 3
	note A#, 2
	octave 2
	note A#, 2
	octave 3
	note A#, 2
	octave 2
	note G_, 2
	octave 3
	note G_, 2
	octave 2
	note G_, 2
	octave 3
	note G_, 2
	octave 2
	note G_, 2
	octave 3
	note G_, 2
	octave 2
	note G_, 2
	octave 3
	note G_, 2
	octave 2
	note G#, 2
	octave 3
	note G#, 2
	octave 2
	note G#, 2
	octave 3
	note G#, 2
	octave 2
	note G#, 2
	octave 3
	note G#, 2
	octave 2
	note G#, 2
	octave 3
	note G#, 2
	octave 2
	note G_, 2
	octave 3
	note G_, 2
	octave 2
	note G_, 2
	octave 3
	note G_, 2
	octave 2
	note G_, 2
	octave 3
	note G_, 2
	octave 2
	note G_, 2
	octave 3
	note G_, 2
	octave 2
	note F_, 2
	octave 3
	note F_, 2
	octave 2
	note F_, 2
	octave 3
	note F_, 2
	octave 2
	note F_, 2
	octave 3
	note F_, 2
	octave 2
	note F_, 2
	octave 3
	note F_, 2
	octave 2
	note G_, 2
	octave 3
	note G_, 2
	octave 2
	note G_, 2
	octave 3
	note G_, 2
	octave 2
	note G_, 2
	octave 3
	note G_, 2
	octave 2
	note G_, 2
	octave 3
	note G_, 2
	octave 2
	note G#, 2
	octave 3
	note G#, 2
	octave 2
	note G#, 2
	octave 3
	note G#, 2
	octave 2
	note G#, 2
	octave 3
	note G#, 2
	octave 2
	note G#, 2
	octave 3
	note G#, 2
	octave 2
	note A#, 2
	octave 3
	note A#, 2
	octave 2
	note A#, 2
	octave 3
	note A#, 2
	octave 2
	note A#, 2
	octave 3
	note A#, 2
	octave 2
	note A#, 2
	octave 3
	note A#, 2
	note F_, 2
	octave 4
	note F_, 2
	octave 3
	note F_, 2
	octave 4
	note F_, 2
	octave 3
	note F_, 2
	octave 4
	note F_, 2
	octave 3
	note F_, 2
	octave 4
	note F_, 2
	dutycycle 8
	intensity $18
	octave 3
	note C_, 2
	octave 4
	note C_, 2
	octave 3
	note C_, 2
	octave 4
	note C_, 2
	octave 2
	note A#, 2
	octave 3
	note A#, 2
	octave 2
	note A#, 2
	octave 3
	note A#, 2
	octave 2
	note G_, 2
	octave 3
	note G_, 2
	octave 2
	note G_, 2
	octave 3
	note G_, 2
	octave 2
	note G_, 2
	octave 3
	note G_, 2
	octave 2
	note G_, 2
	octave 3
	note G_, 2
	octave 2
	note G#, 2
	octave 3
	note G#, 2
	octave 2
	note G#, 2
	octave 3
	note G#, 2
	octave 2
	note G#, 2
	octave 3
	note G#, 2
	octave 2
	note G#, 2
	octave 3
	note G#, 2
	octave 2
	note A#, 2
	octave 3
	note A#, 2
	octave 2
	note A#, 2
	octave 3
	note A#, 2
	octave 2
	note A#, 2
	octave 3
	note A#, 2
	octave 2
	note A#, 2
	octave 3
	note A#, 2
	note C_, 2
	octave 4
	note C_, 2
	octave 3
	note C_, 2
	octave 4
	note C_, 2
	octave 2
	note A#, 2
	octave 3
	note A#, 2
	octave 2
	note A#, 2
	octave 3
	note A#, 2
	octave 2
	note G_, 2
	octave 3
	note G_, 2
	octave 2
	note G_, 2
	octave 3
	note G_, 2
	octave 2
	note G_, 2
	octave 3
	note G_, 2
	octave 2
	note G_, 2
	octave 3
	note G_, 2
	octave 2
	note G#, 2
	octave 3
	note G#, 2
	octave 2
	note G#, 2
	octave 3
	note G#, 2
	octave 2
	note G#, 2
	octave 3
	note G#, 2
	octave 2
	note G#, 2
	octave 3
	note G#, 2
	octave 2
	note A#, 2
	octave 3
	note A#, 2
	octave 2
	note A#, 2
	octave 3
	note A#, 2
	octave 2
	note A#, 2
	octave 3
	note A#, 2
	octave 2
	note A#, 2
	octave 3
	note A#, 2
	note C_, 2
	octave 4
	note C_, 2
	octave 3
	note C_, 2
	octave 4
	note C_, 2
	octave 2
	note A#, 2
	octave 3
	note A#, 2
	octave 2
	note A#, 2
	octave 3
	note A#, 2
	octave 2
	note G_, 2
	octave 3
	note G_, 2
	octave 2
	note G_, 2
	octave 3
	note G_, 2
	octave 2
	note G_, 2
	octave 3
	note G_, 2
	octave 2
	note G_, 2
	octave 3
	note G_, 2
	octave 2
	note G#, 2
	octave 3
	note G#, 2
	octave 2
	note G#, 2
	octave 3
	note G#, 2
	octave 2
	note G#, 2
	octave 3
	note G#, 2
	octave 2
	note G#, 2
	octave 3
	note G#, 2
	octave 2
	note A#, 2
	octave 3
	note A#, 2
	octave 2
	note A#, 2
	octave 3
	note A#, 2
	octave 2
	note A#, 2
	octave 3
	note A#, 2
	octave 2
	note A#, 2
	octave 3
	note A#, 2
	note C_, 2
	octave 4
	note C_, 2
	octave 3
	note C_, 2
	octave 4
	note C_, 2
	octave 2
	note A#, 2
	octave 3
	note A#, 2
	octave 2
	note A#, 2
	octave 3
	note A#, 2
	octave 2
	note G_, 2
	octave 3
	note G_, 2
	octave 2
	note G_, 2
	octave 3
	note G_, 2
	octave 2
	note G_, 2
	octave 3
	note G_, 2
	octave 2
	note G_, 2
	octave 3
	note G_, 2
	octave 2
	note G#, 2
	octave 3
	note G#, 2
	octave 2
	note G#, 2
	octave 3
	note G#, 2
	octave 2
	note G#, 2
	octave 3
	note G#, 2
	octave 2
	note G#, 2
	octave 3
	note G#, 2
	octave 2
	note A#, 2
	octave 3
	note A#, 2
	octave 2
	note A#, 2
	octave 3
	note A#, 2
	octave 2
	note A#, 2
	octave 3
	note A#, 2
	octave 2
	note A#, 2
	octave 3
	note A#, 2
	dutycycle 4
	intensity $14
	octave 2
	note G#, 2
	octave 3
	note G#, 2
	octave 2
	note G#, 2
	octave 3
	note G#, 2
	octave 2
	note G#, 2
	octave 3
	note G#, 2
	octave 2
	note G#, 2
	octave 3
	note G#, 2
	octave 2
	note A#, 2
	octave 3
	note A#, 2
	octave 2
	note A#, 2
	octave 3
	note A#, 2
	octave 2
	note A#, 2
	octave 3
	note A#, 2
	octave 2
	note A#, 2
	octave 3
	note A#, 2
	note D_, 2
	octave 4
	note D_, 2
	octave 3
	note D_, 2
	octave 4
	note D_, 2
	octave 3
	note D_, 2
	octave 4
	note D_, 2
	octave 3
	note D_, 2
	octave 4
	note D_, 2
	octave 2
	note A#, 2
	octave 3
	note A#, 2
	octave 2
	note A#, 2
	octave 3
	note A#, 2
	octave 2
	note A#, 2
	octave 3
	note A#, 2
	octave 2
	note A#, 2
	octave 3
	note A#, 2
	octave 2
	note C_, 2
	octave 3
	note C_, 2
	octave 2
	note C_, 2
	octave 3
	note C_, 2
	octave 2
	note C_, 2
	octave 3
	note C_, 2
	octave 2
	note C_, 2
	octave 3
	note C_, 2
	octave 2
	note G#, 2
	octave 3
	note G#, 2
	octave 2
	note G#, 2
	octave 3
	note G#, 2
	octave 2
	note G#, 2
	octave 3
	note G#, 2
	octave 2
	note G#, 2
	octave 3
	note G#, 2
	octave 2
	note A#, 2
	octave 3
	note A#, 2
	octave 2
	note A#, 2
	octave 3
	note A#, 2
	octave 2
	note A#, 2
	octave 3
	note A#, 2
	octave 2
	note A#, 2
	octave 3
	note A#, 2
	note D_, 2
	octave 4
	note D_, 2
	octave 3
	note D_, 2
	octave 4
	note D_, 2
	octave 3
	note D_, 2
	octave 4
	note D_, 2
	octave 3
	note D_, 2
	octave 4
	note D_, 2
	octave 3
	note C_, 4
	octave 2
	note C_, 4
	octave 3
	note C_, 4
	octave 2
	note C_, 4
	octave 3
	note D_, 4
	octave 2
	note D_, 4
	octave 3
	note D_, 4
	octave 2
	note D_, 4
	octave 3
	note D#, 4
	octave 2
	note D#, 4
	octave 3
	note D#, 4
	octave 2
	note D#, 4
	octave 3
	note F_, 4
	octave 2
	note F_, 4
	octave 3
	note F_, 4
	octave 2
	note F_, 4
	octave 3
	note C_, 4
	octave 2
	note C_, 4
	octave 3
	note C_, 4
	octave 2
	note C_, 4
	octave 3
	note D_, 4
	octave 2
	note D_, 4
	octave 3
	note D_, 4
	octave 2
	note D_, 4
	octave 3
	note D#, 4
	octave 2
	note D#, 4
	octave 3
	note D#, 4
	octave 2
	note D#, 4
	note F_, 2
	octave 3
	note F_, 2
	octave 2
	note F_, 2
	octave 3
	note F_, 2
	octave 2
	note F_, 2
	octave 3
	note F_, 2
	octave 2
	note F_, 2
	octave 3
	note F_, 2
	loopchannel 0, Music_CrossBattle_Ch3_loop

Music_CrossBattle_Ch4:
	togglenoise 3
	notetype $C
	note C_, 2
	note __, 2
	note C_, 2
	note __, 2
	note C_, 2
	note __, 2
	note C_, 2
	note C#, 1
	note C#, 1
	note B_, 2
	note D#, 1
	note D#, 1
	note C_, 2
	note C#, 1
	note C#, 1
	note B_, 2
	note D#, 2
	note C_, 2
	note C#, 1
	note C#, 1
	note B_, 2
	note D#, 1
	note D#, 1
	note C_, 2
	note C#, 1
	note C#, 1
	note D_, 2
	note D#, 2
	note C_, 2
	note C#, 1
	note C#, 1
	note B_, 2
	note D#, 1
	note D#, 1
	note C_, 2
	note C#, 1
	note C#, 1
	note D_, 2
	note D#, 2
	note C_, 2
	note C#, 1
	note C#, 1
	note B_, 2
	note D#, 1
	note D#, 1
	note C_, 2
	note C#, 1
	note C#, 1
	note D_, 2
	note D#, 2
	note C_, 2
	note C#, 1
	note C#, 1
	note B_, 2
	note D#, 1
	note D#, 1
	note C_, 2
	note C#, 1
	note C#, 1
	note C#, 1
	note C#, 1
	note C#, 1
	note C#, 1
	note D_, 1
	note D_, 1
	note D_, 1
	note D_, 1
	note B_, 2
	note D#, 1
	note D#, 1
	note C_, 2
	note C#, 1
	note C#, 1
	note D_, 2
	note D#, 2
	note C_, 2
	note C#, 1
	note C#, 1
	note B_, 2
	note D#, 1
	note D#, 1
	note C_, 2
	note C#, 1
	note C#, 1
	note D_, 2
	note D#, 2
	note C_, 2
	note C#, 1
	note C#, 1
	note B_, 2
	note D#, 1
	note D#, 1
	note C_, 2
	note C#, 1
	note C#, 1
	note D_, 2
	note D#, 2
	note C_, 2
	note C#, 1
	note C#, 1
	note B_, 2
	note D#, 1
	note D#, 1
	note C_, 2
	note C#, 1
	note C#, 1
	note C#, 1
	note C#, 1
	note C#, 1
	note C#, 1
	note D_, 1
	note D_, 1
	note D_, 1
	note D_, 1
Music_CrossBattle_Ch4_loop:
	note B_, 2
	note D#, 2
	note C_, 2
	note D_, 2
	note D#, 2
	note D#, 2
	note C_, 2
	note D_, 2
	note D#, 2
	note D#, 2
	note C_, 2
	note D_, 1
	note D_, 1
	note D#, 2
	note D#, 2
	note C_, 2
	note D_, 2
	note B_, 2
	note D#, 2
	note C_, 2
	note D_, 2
	note D#, 2
	note D#, 2
	note C_, 2
	note D_, 2
	note D#, 2
	note D#, 2
	note C_, 2
	note D_, 1
	note D_, 1
	note D#, 2
	note D#, 2
	note C_, 2
	note D_, 2
	note B_, 2
	note D#, 2
	note C_, 2
	note D_, 2
	note D#, 2
	note D#, 2
	note C_, 2
	note D_, 2
	note D#, 2
	note D#, 2
	note C_, 2
	note D_, 1
	note D_, 1
	note D#, 2
	note D#, 2
	note C_, 2
	note D_, 2
	note B_, 2
	note D#, 2
	note C_, 2
	note D_, 2
	note D#, 2
	note D#, 2
	note C_, 2
	note D_, 2
	note D#, 2
	note D#, 2
	note C_, 2
	note D_, 1
	note D_, 1
	note D#, 2
	note D#, 2
	note C_, 2
	note D_, 2
	note B_, 2
	note D#, 2
	note C_, 2
	note D_, 2
	note D#, 2
	note D#, 2
	note C_, 2
	note D_, 2
	note D#, 2
	note D#, 2
	note C_, 2
	note D_, 1
	note D_, 1
	note D#, 2
	note D#, 2
	note C_, 2
	note D_, 2
	note B_, 2
	note D#, 2
	note C_, 2
	note D_, 2
	note D#, 2
	note D#, 2
	note C_, 2
	note D_, 2
	note D#, 2
	note D#, 2
	note C_, 2
	note D_, 1
	note D_, 1
	note D#, 2
	note D#, 2
	note C_, 2
	note D_, 2
	note B_, 2
	note D#, 2
	note C_, 2
	note D_, 2
	note D#, 2
	note D#, 2
	note C_, 2
	note D_, 2
	note D#, 2
	note D#, 2
	note C_, 2
	note D_, 1
	note D_, 1
	note D#, 2
	note D#, 2
	note C_, 2
	note D_, 2
	note B_, 2
	note D#, 1
	note D#, 1
	note C_, 2
	note D#, 1
	note D#, 1
	note C_, 2
	note D#, 1
	note D#, 1
	note C_, 2
	note D#, 1
	note D#, 1
	note C#, 1
	note C#, 1
	note C#, 1
	note C#, 1
	note D#, 1
	note D#, 1
	note D#, 1
	note D#, 1
	note D_, 1
	note D_, 1
	note D_, 1
	note D_, 1
	note C_, 1
	note C_, 1
	note C_, 1
	note C_, 1
	note B_, 2
	note D#, 2
	note C_, 2
	note D_, 2
	note D#, 2
	note D#, 2
	note C_, 2
	note D_, 2
	note D#, 2
	note D#, 2
	note C_, 2
	note D_, 1
	note D_, 1
	note D#, 2
	note D#, 2
	note C_, 2
	note D_, 2
	note B_, 2
	note D#, 2
	note C_, 2
	note D_, 2
	note D#, 2
	note D#, 2
	note C_, 2
	note D_, 2
	note D#, 2
	note D#, 2
	note C_, 2
	note D_, 1
	note D_, 1
	note D#, 2
	note D#, 2
	note C_, 2
	note D_, 2
	note B_, 2
	note D#, 2
	note C_, 2
	note D_, 2
	note D#, 2
	note D#, 2
	note C_, 2
	note D_, 2
	note D#, 2
	note D#, 2
	note C_, 2
	note D_, 1
	note D_, 1
	note D#, 2
	note D#, 2
	note C_, 2
	note D_, 2
	note B_, 2
	note D#, 2
	note C_, 2
	note D_, 2
	note D#, 2
	note D#, 2
	note C_, 2
	note D_, 2
	note D#, 2
	note D#, 2
	note C_, 2
	note D_, 1
	note D_, 1
	note D#, 2
	note D#, 2
	note C_, 2
	note D_, 2
	note B_, 2
	note D#, 2
	note C_, 2
	note D_, 2
	note D#, 2
	note D#, 2
	note C_, 2
	note D_, 2
	note D#, 2
	note D#, 2
	note C_, 2
	note D_, 1
	note D_, 1
	note D#, 2
	note D#, 2
	note C_, 2
	note D_, 2
	note B_, 2
	note D#, 2
	note C_, 2
	note D_, 2
	note D#, 2
	note D#, 2
	note C_, 2
	note D_, 2
	note D#, 2
	note D#, 2
	note C_, 2
	note D_, 1
	note D_, 1
	note D#, 2
	note D#, 2
	note C_, 2
	note D_, 2
	note B_, 2
	note D#, 2
	note C_, 2
	note D_, 2
	note D#, 2
	note D#, 2
	note C_, 2
	note D_, 2
	note D#, 2
	note D#, 2
	note C_, 2
	note D_, 1
	note D_, 1
	note D#, 2
	note D#, 2
	note C_, 2
	note D_, 2
	note C_, 2
	note D#, 1
	note D#, 1
	note C_, 2
	note D#, 1
	note D#, 1
	note C_, 2
	note D#, 1
	note D#, 1
	note C_, 2
	note D#, 1
	note D#, 1
	note C#, 1
	note C#, 1
	note C#, 1
	note C#, 1
	note D#, 1
	note D#, 1
	note D#, 1
	note D#, 1
	note D_, 1
	note D_, 1
	note D_, 1
	note D_, 1
	note C_, 1
	note C_, 1
	note C_, 1
	note C_, 1
	note B_, 2
	note D#, 2
	note C_, 2
	note D_, 2
	note D#, 2
	note D#, 2
	note C_, 2
	note D_, 2
	note D#, 2
	note D#, 2
	note C_, 2
	note D_, 1
	note D_, 1
	note D#, 2
	note D#, 2
	note C_, 2
	note D_, 2
	note B_, 2
	note D#, 2
	note C_, 2
	note D_, 2
	note D#, 2
	note D#, 2
	note C_, 2
	note D_, 2
	note D#, 2
	note D#, 2
	note C_, 2
	note D_, 1
	note D_, 1
	note D#, 2
	note D#, 2
	note C_, 2
	note D_, 2
	note B_, 2
	note D#, 2
	note C_, 2
	note D_, 2
	note D#, 2
	note D#, 2
	note C_, 2
	note D_, 2
	note D#, 2
	note D#, 2
	note C_, 2
	note D_, 1
	note D_, 1
	note D#, 2
	note D#, 2
	note D_, 2
	note C_, 1
	note C_, 1
	note C_, 2
	note D#, 1
	note D#, 1
	note C_, 2
	note D#, 1
	note D#, 1
	note C_, 2
	note D#, 1
	note D#, 1
	note C_, 2
	note D#, 1
	note D#, 1
	note C#, 1
	note C#, 1
	note C#, 1
	note C#, 1
	note D#, 1
	note D#, 1
	note D#, 1
	note D#, 1
	note D_, 1
	note D_, 1
	note D_, 1
	note D_, 1
	note C_, 1
	note C_, 1
	note C_, 1
	note C_, 1
	note B_, 2
	note __, 10
	note C_, 2
	note C_, 2
	note B_, 2
	note __, 6
	note C_, 2
	note __, 2
	note C_, 2
	note D#, 2
	note B_, 2
	note __, 10
	note C_, 2
	note D#, 2
	note B_, 2
	note __, 2
	note D#, 2
	note __, 2
	note D#, 2
	note __, 2
	note C#, 2
	note C#, 2
	note B_, 2
	note __, 10
	note C_, 2
	note C_, 2
	note B_, 2
	note __, 6
	note B_, 2
	note __, 2
	note C_, 2
	note D#, 2
	note B_, 2
	note D#, 1
	note D#, 1
	note C_, 2
	note D#, 1
	note D#, 1
	note C_, 2
	note D#, 1
	note D#, 1
	note C_, 2
	note D#, 1
	note D#, 1
	note C#, 1
	note C#, 1
	note C#, 1
	note C#, 1
	note D#, 1
	note D#, 1
	note D#, 1
	note D#, 1
	note D_, 1
	note D_, 1
	note D_, 1
	note D_, 1
	note C_, 1
	note C_, 1
	note C_, 1
	note C_, 1
	loopchannel 0, Music_CrossBattle_Ch4_loop
