Music_CrystalCave:
	musicheader 4, 1, Music_CrystalCave_Ch1
	musicheader 1, 2, Music_CrystalCave_Ch2
	musicheader 1, 3, Music_CrystalCave_Ch3
	musicheader 1, 4, Music_CrystalCave_Ch4

Music_CrystalCave_Ch1:
	tempo $89
	volume $77
	stereopanning $f
	octave 3
	notetype $C, $00
	note D#, 2
	note __, 16
	note __, 14
Music_CrystalCave_Ch1_loop:
        notetype $C, $00
	dutycycle 1
	intensity $95
        octave 3
	note D#, 4
	note __, 2
	note D#, 2
	note __, 2
	note D#, 4
	note D_, 2
	note D#, 4
	note __, 2
	note D#, 2
	note __, 2
	note D#, 4
	note F_, 2
	note D#, 4
	note __, 2
	note D#, 2
	note __, 2
	note D#, 4
	note D_, 2
	note D#, 4
	note __, 2
	note F_, 2
	note __, 2
	note D#, 4
	note G_, 2
	note D#, 4
	note __, 2
	note D#, 2
	note __, 2
	note D#, 4
	note D_, 2
	note D#, 4
	note __, 2
	note D#, 2
	note __, 2
	note D#, 4
	note F_, 2
	intensity $A5
	note G_, 4
	note __, 2
	note G#, 2
	note __, 2
	note G_, 4
	note F_, 2
	note D#, 4
	note D_, 2
	note C_, 6
	octave 2
	note B_, 2
	octave 3
	note D_, 2
	note G_, 6
	note F_, 4
	note G_, 4
	note G#, 2
	note G_, 4
	note F_, 4
	note D#, 4
	note D_, 4
	note C_, 6
	note D#, 6
	note G_, 4
	note D_, 2
	note D#, 2
	note D_, 2
	note C_, 6
	octave 2
	note B_, 4
	octave 3
	note G_, 6
	note F_, 4
	note D#, 2
	note D_, 2
	note G#, 2
	note G_, 4
	note G#, 4
	note G_, 4
	note F_, 4
	note G_, 2
	note F_, 4
	note D#, 4
	note C_, 2
	octave 2
	note G_, 2
	octave 3
	note C_, 2
	note D#, 6
	note D_, 4
	note C_, 2
	octave 2
	note G_, 4
	note G#, 6
	octave 3
	note C_, 6
	note D#, 4
	note D_, 6
	note D#, 4
	note F_, 4
	note D#, 2
	note C_, 6
	note D_, 6
	note D#, 4
	note F_, 6
	note D#, 4
	note D#, 2
	note D_, 2
	octave 2
	note A#, 2
	note G#, 4
	octave 3
	note C_, 4
	note D#, 4
	note F_, 2
	note G#, 4
	note D#, 4
	note D_, 4
	note D#, 2
	note D_, 2
	octave 2
	note A#, 2
	intensity $A8
	octave 3
	note G_, 6
	intensity $A5
	note G_, 4
	intensity $3D
	note G_, 6
	intensity $A5
	note D#, 4
	note __, 2
	note D#, 2
	note __, 2
	note D#, 2
	note D_, 2
	octave 2
	note A#, 2
	octave 3
	note G_, 2
	note C_, 2
	note F_, 2
	note G_, 4
	note D#, 6
	note F_, 2
	note C_, 2
	note D#, 2
	note F_, 4
	note D_, 6
	note G_, 2
	note C_, 2
	note F_, 2
	note G_, 4
	note D#, 6
	note F_, 2
	note C_, 2
	note D#, 2
	note F_, 4
	note D_, 6
	note G_, 2
	note C_, 2
	note F_, 2
	note G_, 4
	note D#, 6
	note F_, 2
	note C_, 2
	note D#, 2
	note F_, 4
	note D_, 6
	note D#, 2
	octave 2
	note G_, 2
	octave 3
	note C_, 2
	note D#, 4
	note C_, 6
	note D#, 4
	note D_, 2
	note C_, 6
	octave 2
	note B_, 4
	loopchannel 0, Music_CrystalCave_Ch1_loop
Music_CrystalCave_Ch2:
        stereopanning $f0
	dutycycle 1
	tone $0001
	octave 3
	notetype $C, $88
	note C_, 8
	octave 2
	note G#, 8
	octave 3
	note C_, 8
	octave 2
	note F_, 8
Music_CrystalCave_Ch2_loop:
	dutycycle 2
        tone $0002
	notetype $C, $88
	intensity $D5
        octave 3
	note C_, 4
	octave 2
	note G_, 2
	octave 3
	note C_, 4
	octave 2
	note G_, 6
	octave 3
	note C_, 4
	octave 2
	note G_, 2
	octave 3
	note C_, 4
	octave 2
	note G#, 6
	octave 3
	note C_, 4
	octave 2
	note G_, 2
	octave 3
	note C_, 4
	octave 2
	note G_, 6
	note G#, 4
	note A#, 4
	note G#, 4
	note G_, 2
	note A#, 2
	octave 3
	note C_, 4
	octave 2
	note G_, 2
	octave 3
	note C_, 4
	octave 2
	note G_, 6
	octave 3
	note C_, 4
	octave 2
	note G_, 2
	octave 3
	note C_, 4
	octave 2
	note G#, 6
	octave 3
	note C_, 4
	octave 2
	note B_, 2
	octave 3
	note C_, 4
	note D_, 6
	note G#, 4
	note G_, 2
	note G#, 4
	note B_, 3
	intensity $C2
	note B_, 1
	octave 4
	note C_, 1
	note D_, 1
	intensity $C5
	note D#, 4
	note C_, 2
	note D#, 4
	note D_, 4
	note C_, 4
	octave 3
	note A#, 4
	octave 4
	note C_, 4
	note D_, 2
	note C_, 2
	intensity $C2
	octave 3
	note A#, 1
	note G_, 1
	intensity $C7
	note G#, 6
	octave 4
	note C_, 10
	octave 3
	note B_, 6
	intensity $C5
	octave 4
	note C_, 4
	note D_, 4
	intensity $C2
	note C_, 1
	note D_, 1
	intensity $C5
	note D#, 4
	note C_, 2
	note D#, 4
	note D_, 4
	note C_, 4
	note D_, 4
	note D#, 4
	note D_, 2
	note D#, 2
	intensity $C2
	note F_, 1
	note G_, 1
	intensity $C7
	note G#, 6
	intensity $C5
	note C_, 4
	octave 3
	note G#, 2
	note A#, 2
	octave 4
	note C_, 2
	octave 3
	note B_, 6
	octave 4
	note C_, 4
	octave 3
	note G_, 2
	octave 4
	note D_, 4
	note __, 4
	note G#, 4
	note G_, 4
	note F_, 2
	note D#, 4
	note D_, 4
	note C_, 4
	note D_, 4
	intensity $C2
	note C_, 1
	note G_, 1
	octave 5
	note C_, 1
	octave 4
	note G_, 1
	note C_, 1
	intensity $92
	octave 5
	note C_, 1
	octave 4
	note G_, 1
	note C_, 1
	intensity $72
	octave 5
	note C_, 1
	octave 4
	note G_, 1
	note C_, 1
	intensity $52
	octave 5
	note C_, 1
	octave 4
	note G_, 1
	note C_, 1
	intensity $42
	octave 5
	note C_, 1
	octave 4
	note G_, 1
	note C_, 1
	note __, 1
	intensity $C2
	note G_, 1
	note D_, 1
	octave 3
	note G_, 1
	intensity $92
	octave 4
	note G_, 1
	note D_, 1
	octave 3
	note G_, 1
	intensity $72
	octave 4
	note G_, 1
	note D_, 1
	octave 3
	note G_, 1
	intensity $52
	octave 4
	note G_, 1
	note D_, 1
	octave 3
	note G_, 1
	intensity $42
	octave 4
	note G_, 1
	note D_, 1
	octave 3
	note G_, 1
	note __, 5
	intensity $C5
	note G#, 4
	octave 4
	note C_, 4
	note D#, 4
	intensity $C7
	note D_, 6
	note C_, 6
	intensity $C2
	octave 3
	note A#, 2
	octave 4
	note C_, 1
	octave 3
	note A#, 1
	intensity $C8
	vibrato $00, $23
	octave 4
	note C_, 6
	intensity $C5
	note C_, 4
	intensity $5D
	note C_, 6
	intensity $C2
	vibrato $00, $00
	octave 5
	note C_, 1
	octave 4
	note G_, 1
	note C_, 1
	intensity $92
	octave 5
	note C_, 1
	octave 4
	note G_, 1
	note C_, 1
	intensity $72
	octave 5
	note C_, 1
	octave 4
	note G_, 1
	note C_, 1
	intensity $52
	octave 5
	note C_, 1
	octave 4
	note G_, 1
	note C_, 1
	intensity $42
	octave 5
	note C_, 1
	octave 4
	note G_, 1
	note C_, 1
	note __, 1
	intensity $C2
	octave 6
	note C_, 1
	intensity $42
	note C_, 1
	note __, 1
	intensity $A2
	note C_, 1
	intensity $42
	note C_, 1
	note __, 1
	intensity $92
	note C_, 1
	intensity $42
	note C_, 1
	note __, 1
	intensity $72
	note C_, 1
	intensity $42
	note C_, 1
	note __, 1
	intensity $72
	note C_, 1
	intensity $42
	note C_, 1
	note __, 2
	intensity $C2
	octave 5
	note G_, 1
	intensity $42
	note G_, 1
	note __, 1
	intensity $A2
	note G_, 1
	intensity $42
	note G_, 1
	note __, 1
	intensity $92
	note G_, 1
	intensity $42
	note G_, 1
	note __, 1
	intensity $72
	note G_, 1
	intensity $42
	note G_, 1
	note __, 1
	intensity $72
	note G_, 1
	intensity $42
	note G_, 1
	note __, 2
	intensity $C2
	note A#, 1
	intensity $42
	note A#, 1
	note __, 1
	intensity $A2
	note A#, 1
	intensity $42
	note A#, 1
	note __, 1
	intensity $92
	note A#, 1
	intensity $42
	note A#, 1
	note __, 1
	intensity $72
	note A#, 1
	intensity $42
	note A#, 1
	note __, 1
	intensity $72
	note A#, 1
	intensity $42
	note A#, 1
	note __, 2
	intensity $C2
	note F_, 1
	intensity $42
	note F_, 1
	note __, 1
	intensity $A2
	note F_, 1
	intensity $42
	note F_, 1
	note __, 1
	intensity $92
	note F_, 1
	intensity $42
	note F_, 1
	note __, 1
	intensity $72
	note F_, 1
	intensity $42
	note F_, 1
	note __, 1
	intensity $72
	note F_, 1
	intensity $42
	note F_, 1
	note __, 2
	intensity $C2
	octave 6
	note C_, 1
	intensity $42
	note C_, 1
	note __, 1
	intensity $A2
	note C_, 1
	intensity $42
	note C_, 1
	note __, 1
	intensity $92
	note C_, 1
	intensity $42
	note C_, 1
	note __, 1
	intensity $72
	note C_, 1
	intensity $42
	note C_, 1
	note __, 1
	intensity $72
	note C_, 1
	intensity $42
	note C_, 1
	note __, 2
	intensity $C2
	octave 5
	note G_, 1
	intensity $42
	note G_, 1
	note __, 1
	intensity $A2
	note G_, 1
	intensity $42
	note G_, 1
	note __, 1
	intensity $92
	note G_, 1
	intensity $42
	note G_, 1
	note __, 1
	intensity $72
	note G_, 1
	intensity $42
	note G_, 1
	note __, 1
	intensity $72
	note G_, 1
	intensity $42
	note G_, 1
	note __, 2
	intensity $C2
	note A#, 1
	intensity $42
	note A#, 1
	note __, 1
	intensity $A2
	note A#, 1
	intensity $42
	note A#, 1
	note __, 1
	intensity $92
	note A#, 1
	intensity $42
	note A#, 1
	note __, 1
	intensity $72
	note A#, 1
	intensity $42
	note A#, 1
	note __, 1
	intensity $72
	note A#, 1
	intensity $42
	note A#, 1
	note __, 2
	intensity $C2
	note F_, 1
	intensity $42
	note F_, 1
	note __, 1
	intensity $A2
	note F_, 1
	intensity $42
	note F_, 1
	note __, 1
	intensity $92
	note F_, 1
	intensity $42
	note F_, 1
	note __, 1
	intensity $72
	note F_, 1
	intensity $42
	note F_, 1
	note __, 1
	intensity $72
	note F_, 1
	intensity $42
	note F_, 1
	note __, 2
	loopchannel 0, Music_CrystalCave_Ch2_loop

Music_CrystalCave_Ch3:
	dutycycle 9
	octave 3
	notetype $C, $19
	note C_, 2
	note G_, 2
	note D#, 2
	note C_, 2
	note F_, 2
	note D#, 2
	note C_, 2
	note C#, 2
	note C_, 2
	note G_, 2
	note D#, 2
	note C_, 2
	note F_, 2
	note D#, 2
	note C_, 2
	note F_, 2
Music_CrystalCave_Ch3_loop:
        notetype $C, $19
        octave 3
	note C_, 2
	note G_, 2
	note D#, 2
	note C_, 2
	note F_, 2
	note D#, 2
	note C_, 2
	note C#, 2
	note C_, 2
	note G_, 2
	note D#, 2
	note C_, 2
	note F_, 2
	note D#, 2
	note C_, 2
	note D#, 2
	note C_, 2
	note G_, 2
	note D#, 2
	note C_, 2
	note F_, 2
	note D#, 2
	note C_, 2
	note C#, 2
	note D#, 4
	note D_, 4
	note C_, 4
	note D_, 2
	octave 2
	note B_, 2
	octave 3
	note C_, 2
	note G_, 2
	note D#, 2
	note C_, 2
	note F_, 2
	note D#, 2
	note C_, 2
	note C#, 2
	note C_, 2
	note G_, 2
	note D#, 2
	note C_, 2
	note F_, 2
	note D#, 2
	note C_, 2
	note D#, 2
	note C_, 2
	note G_, 2
	note D#, 2
	note F_, 2
	note G_, 2
	note F_, 2
	note G_, 2
	note D#, 2
	note F_, 6
	note D#, 6
	octave 2
	note B_, 4
	octave 3
	note C_, 2
	note G_, 2
	note D#, 2
	note C_, 2
	note F_, 2
	note D#, 2
	note C_, 2
	note C#, 2
	note C_, 2
	note G_, 2
	note D#, 2
	note C_, 2
	note F_, 2
	note D#, 2
	note C_, 2
	note D#, 2
	octave 2
	note G#, 2
	octave 3
	note D#, 2
	note D_, 2
	octave 2
	note G#, 2
	octave 3
	note D#, 2
	note C_, 2
	octave 2
	note G#, 2
	octave 3
	note C_, 2
	octave 2
	note G_, 2
	octave 3
	note F_, 2
	note D#, 2
	octave 2
	note G_, 2
	octave 3
	note D_, 2
	note C_, 2
	octave 2
	note G_, 2
	octave 3
	note D_, 2
	note C_, 2
	note G_, 2
	note D#, 2
	note C_, 2
	note F_, 2
	note D#, 2
	note C_, 2
	note C#, 2
	note C_, 2
	note G_, 2
	note D#, 2
	note C_, 2
	note F_, 2
	note D#, 2
	note C_, 2
	note D#, 2
	octave 2
	note G#, 2
	octave 3
	note D#, 2
	note D_, 2
	octave 2
	note G#, 2
	octave 3
	note D#, 2
	note C_, 2
	octave 2
	note G#, 2
	octave 3
	note C_, 2
	octave 2
	note G_, 2
	octave 3
	note F_, 2
	note D#, 2
	octave 2
	note G_, 2
	octave 3
	note D_, 2
	note C_, 2
	octave 2
	note G_, 2
	octave 3
	note D_, 2
	octave 2
	note G#, 2
	octave 3
	note C_, 2
	note D#, 2
	octave 2
	note G#, 2
	octave 3
	note C_, 2
	note D#, 2
	octave 2
	note G#, 2
	note A_, 2
	note A#, 2
	octave 3
	note D_, 2
	note F_, 2
	octave 2
	note A#, 2
	octave 3
	note D_, 2
	note F_, 2
	octave 2
	note A#, 2
	note B_, 2
	octave 3
	note C_, 2
	note D#, 2
	note G_, 2
	note C_, 2
	note D#, 2
	note G_, 2
	note C_, 2
	octave 2
	note A#, 2
	octave 3
	note C_, 2
	note D#, 2
	note G_, 2
	note C_, 2
	note D_, 2
	note D#, 2
	note C_, 2
	octave 2
	note A#, 2
	note G#, 2
	octave 3
	note C_, 2
	note D#, 2
	octave 2
	note G#, 2
	octave 3
	note C_, 2
	note D#, 2
	octave 2
	note G#, 2
	note A_, 2
	note A#, 2
	octave 3
	note D_, 2
	note F_, 2
	octave 2
	note A#, 2
	octave 3
	note D_, 2
	note F_, 2
	octave 2
	note A#, 2
	note B_, 2
	octave 3
	note C_, 2
	note D#, 2
	note G_, 2
	note C_, 2
	note D#, 2
	note G_, 2
	note C_, 2
	octave 2
	note A#, 2
	octave 3
	note C_, 2
	note D#, 2
	note G_, 2
	note D#, 4
	note C_, 2
	note D_, 4
	note C_, 2
	note G_, 2
	note D#, 2
	note C_, 2
	note F_, 2
	note D#, 2
	note C_, 2
	note C#, 2
	note C_, 2
	note G_, 2
	note D#, 2
	note C_, 2
	note F_, 2
	note D#, 2
	note C_, 2
	note D#, 2
	note C_, 2
	note G_, 2
	note D#, 2
	note C_, 2
	note F_, 2
	note D#, 2
	note C_, 2
	note C#, 2
	note C_, 2
	note G_, 2
	note D#, 2
	note C_, 2
	note F_, 2
	note D#, 2
	note C_, 2
	note F_, 2
	note C_, 2
	note G_, 2
	note D#, 2
	note C_, 2
	note F_, 2
	note D#, 2
	note C_, 2
	note C#, 2
	note C_, 2
	note G_, 2
	note D#, 2
	note C_, 2
	note F_, 2
	note D#, 2
	note C_, 2
	note D#, 2
	note C_, 2
	note G_, 2
	note D#, 2
	note C_, 2
	note F_, 2
	note D#, 2
	note C_, 2
	note C#, 2
	note D#, 4
	note D_, 4
	note C_, 4
	note D_, 2
	octave 2
	note B_, 2
	loopchannel 0, Music_CrystalCave_Ch3_loop

Music_CrystalCave_Ch4:
	notetype $C
	note __, 16
	note __, 14
	togglenoise 1
	note A#, 2
	note A#, 2
	note A#, 2
	note __, 2
	note A#, 2
	note __, 2
	note A#, 2
	note __, 2
	note A#, 2
	note A#, 2
	note A#, 2
	note __, 2
	note A#, 2
	note __, 2
	note A#, 2
	note __, 2
	note A#, 2
	note A#, 2
	note A#, 2
	note __, 2
	note A#, 2
	note __, 2
	note A#, 2
	note __, 2
	note A#, 2
	note A#, 2
	note __, 2
	note A#, 2
	note __, 2
	note A#, 2
	note __, 2
	note F_, 2
	note __, 2
Music_CrystalCave_Ch4_loop:
        notetype $C
	note F_, 2
	note A#, 2
	note F#, 2
	note A#, 2
	note __, 2
	note A#, 2
	note __, 2
	note A#, 2
	note A#, 2
	note A#, 2
	note F#, 2
	note A#, 2
	note __, 2
	note A#, 2
	note __, 2
	note A#, 2
	note A#, 2
	note A#, 2
	note F#, 2
	note A#, 2
	note __, 2
	note A#, 2
	note __, 2
	note A#, 2
	note F_, 2
	note __, 10
	note F_, 2
	note __, 2
	note F_, 2
	note A#, 2
	note F#, 2
	note A#, 2
	note __, 2
	note A#, 2
	note F#, 2
	note A#, 2
	note A#, 2
	note A#, 2
	note F#, 2
	note A#, 2
	note __, 2
	note A#, 2
	note F#, 2
	note A#, 2
	note A#, 2
	note A#, 2
	note F#, 2
	note A#, 2
	note __, 2
	note A#, 2
	note F#, 2
	note A#, 2
	note A#, 2
	note A#, 2
	note F#, 2
	note A#, 2
	note __, 2
	note A#, 2
	note F#, 2
	note A#, 2
	note F_, 2
	note A#, 2
	note F#, 2
	note A#, 2
	note __, 2
	note A#, 2
	note F#, 2
	note A#, 2
	note A#, 2
	note A#, 2
	note F#, 2
	note A#, 2
	note __, 2
	note A#, 2
	note F#, 2
	note A#, 2
	note A#, 2
	note A#, 2
	note F#, 2
	note A#, 2
	note __, 2
	note A#, 2
	note F#, 2
	note A#, 2
	note F_, 2
	note __, 2
	note A#, 2
	note A#, 2
	note __, 2
	note A#, 2
	note F_, 2
	note __, 2
	note F_, 2
	note A#, 2
	note F#, 2
	note A#, 2
	note A#, 2
	note A#, 2
	note F#, 2
	note A#, 2
	note A#, 2
	note A#, 2
	note F#, 2
	note A#, 2
	note __, 2
	note A#, 2
	note F#, 2
	note A#, 2
	note A#, 2
	note A#, 2
	note F#, 2
	note A#, 2
	note __, 2
	note A#, 2
	note F#, 2
	note A#, 2
	note A#, 2
	note A#, 2
	note F#, 2
	note A#, 2
	note __, 2
	note A#, 2
	note F#, 2
	note A#, 2
	note F_, 2
	note A#, 2
	note F#, 2
	note A#, 2
	note __, 2
	note A#, 2
	note F#, 2
	note A#, 2
	note A#, 2
	note A#, 2
	note F#, 2
	note A#, 2
	note __, 2
	note A#, 2
	note F#, 2
	note A#, 2
	note A#, 2
	note A#, 2
	note F#, 2
	note A#, 2
	note __, 2
	note A#, 2
	note F#, 2
	note A#, 2
	note F_, 2
	note __, 2
	note A#, 2
	note A#, 2
	note __, 2
	note A#, 2
	note F_, 2
	note __, 2
	note F_, 2
	note A#, 1
	note A#, 1
	note F#, 2
	note A#, 1
	note A#, 1
	note __, 1
	note A#, 1
	note A#, 1
	note __, 1
	note F#, 2
	note A#, 2
	note A#, 1
	note A#, 1
	note A#, 1
	note A#, 1
	note F#, 2
	note A#, 1
	note A#, 1
	note __, 1
	note A#, 1
	note A#, 1
	note __, 1
	note F#, 2
	note A#, 2
	note A#, 1
	note A#, 1
	note A#, 1
	note A#, 1
	note F#, 2
	note A#, 1
	note A#, 1
	note __, 1
	note A#, 1
	note A#, 1
	note __, 1
	note F#, 2
	note A#, 2
	note A#, 1
	note A#, 1
	note A#, 1
	note A#, 1
	note F#, 2
	note A#, 1
	note A#, 1
	note __, 1
	note A#, 1
	note A#, 1
	note __, 1
	note F#, 2
	note A#, 2
	note F_, 2
	note A#, 1
	note A#, 1
	note F#, 2
	note A#, 1
	note A#, 1
	note __, 1
	note A#, 1
	note A#, 1
	note __, 1
	note F#, 2
	note A#, 2
	note A#, 1
	note A#, 1
	note A#, 1
	note A#, 1
	note F#, 2
	note A#, 1
	note A#, 1
	note __, 1
	note A#, 1
	note A#, 1
	note __, 1
	note F#, 2
	note A#, 2
	note A#, 1
	note A#, 1
	note A#, 1
	note A#, 1
	note F#, 2
	note A#, 1
	note A#, 1
	note __, 1
	note A#, 1
	note A#, 1
	note __, 1
	note F#, 2
	note A#, 2
	note F_, 2
	note __, 10
	note F_, 2
	note __, 2
	note F_, 2
	note A#, 2
	note __, 2
	note A#, 2
	note __, 2
	note A#, 2
	note __, 2
	note A#, 2
	note A#, 2
	note A#, 2
	note __, 2
	note A#, 2
	note __, 2
	note A#, 2
	note __, 2
	note A#, 2
	note A#, 2
	note A#, 2
	note __, 2
	note A#, 2
	note __, 2
	note A#, 2
	note __, 2
	note A#, 2
	note A#, 2
	note A#, 2
	note __, 2
	note A#, 2
	note __, 2
	note A#, 2
	note F_, 2
	note __, 2
	loopchannel 0, Music_CrystalCave_Ch4_loop

