Music_DrakeBattle:
	musicheader 4, 1, Music_DrakeBattle_Ch1
	musicheader 1, 2, Music_DrakeBattle_Ch2
	musicheader 1, 3, Music_DrakeBattle_Ch3
	musicheader 1, 4, Music_DrakeBattle_Ch4

Music_DrakeBattle_Ch1:
	tempo $78
	volume $77
	stereopanning $77
	dutycycle 1
	tone $0001
	vibrato $10, $24
	octave 3
	notetype $C, $C2
	note G_, 1
	note E_, 1
	note C_, 1
	octave 4
	note C_, 1
	octave 3
	note G_, 1
	note E_, 1
	note C_, 1
	octave 4
	note C_, 1
	octave 3
	note F_, 1
	note D_, 1
	octave 2
	note A#, 1
	octave 3
	note A#, 1
	note F_, 1
	note D_, 1
	octave 2
	note A#, 1
	octave 3
	note A#, 1
	note E_, 1
	note C_, 1
	octave 2
	note A_, 1
	octave 3
	note A_, 1
	note E_, 1
	note C_, 1
	octave 2
	note A_, 1
	octave 3
	note A_, 1
	intensity $C5
	note F_, 4
	note G_, 4
	intensity $A5
	note E_, 4
	octave 2
	note G_, 2
	octave 3
	note C_, 4
	octave 2
	note G_, 2
	octave 3
	note C_, 2
	note E_, 2
	note D_, 2
	octave 2
	note A#, 2
	note G_, 2
	intensity $A2
	octave 3
	note F_, 2
	note __, 2
	octave 2
	note A#, 2
	intensity $A5
	octave 3
	note D_, 2
	note F_, 2
	note G_, 4
	note C_, 2
	note E_, 4
	note C_, 2
	note E_, 2
	note G_, 2
	note F_, 2
	note D_, 2
	octave 2
	note A#, 2
	intensity $A2
	octave 3
	note A#, 2
	note __, 2
	intensity $A5
	note D_, 2
	note F_, 2
	note G_, 2
Music_DrakeBattle_Ch1_loop:
	notetype $C, $A5
	octave 3
	note E_, 4
	note F_, 2
	note G_, 2
	note F_, 1
	note __, 1
	note E_, 2
	note D_, 2
	note C_, 2
	note D_, 2
	note __, 1
	note E_, 1
	note F_, 4
	note E_, 2
	note D_, 2
	note E_, 2
	note F_, 2
	note E_, 4
	note F_, 2
	note G_, 2
	note F_, 1
	note __, 1
	note E_, 1
	note F_, 1
	note D_, 2
	note C_, 2
	note D_, 1
	note __, 1
	note D_, 1
	note E_, 1
	note F_, 4
	note E_, 2
	note D_, 2
	note E_, 2
	note F_, 2
	octave 4
	note C_, 4
	octave 3
	note A#, 2
	octave 4
	note C_, 2
	octave 3
	note A#, 2
	note A_, 2
	note G_, 1
	note __, 1
	note F_, 2
	intensity $A2
	note A#, 1
	note __, 2
	note F_, 1
	intensity $A5
	note F_, 4
	note E_, 2
	note D_, 2
	note E_, 2
	note F_, 2
	octave 4
	note C_, 4
	octave 3
	note A#, 2
	octave 4
	note C_, 2
	octave 3
	note A#, 2
	note A_, 2
	note G_, 1
	note __, 1
	note F_, 2
	intensity $A2
	note D_, 1
	note __, 1
	intensity $A5
	note D_, 1
	note E_, 1
	note F_, 4
	note A#, 2
	note F_, 1
	note D_, 1
	note A_, 2
	note F_, 2
	note E_, 4
	note F_, 2
	note G_, 2
	intensity $A2
	note F_, 1
	note __, 1
	intensity $A5
	note E_, 2
	note D_, 2
	note C_, 2
	note D_, 2
	note __, 1
	note E_, 1
	note F_, 4
	dutycycle 0
	intensity $A2
	octave 4
	note F_, 1
	note __, 2
	intensity $A1
	note D_, 1
	intensity $A5
	note D_, 4
	dutycycle 1
	octave 3
	note E_, 4
	note F_, 2
	note G_, 2
	note F_, 1
	note __, 1
	note E_, 1
	note F_, 1
	note D_, 2
	note C_, 2
	note D_, 1
	note E_, 1
	note F_, 5
	note __, 1
	dutycycle 0
	intensity $A2
	octave 4
	note F_, 2
	note F_, 2
	note F_, 2
	note F_, 2
	dutycycle 1
	intensity $A5
	note C_, 4
	octave 3
	note A#, 2
	octave 4
	note C_, 2
	octave 3
	note A#, 2
	note A_, 2
	note G_, 1
	note __, 1
	note F_, 2
	intensity $A2
	note A#, 1
	note __, 2
	note F_, 1
	intensity $A5
	note F_, 4
	intensity $A2
	octave 4
	note D_, 1
	note __, 2
	octave 3
	note A#, 1
	intensity $A5
	note A#, 4
	octave 4
	note C_, 4
	octave 3
	note A#, 2
	octave 4
	note C_, 2
	octave 3
	note A#, 2
	note A_, 2
	note G_, 1
	note __, 1
	note F_, 2
	note D_, 1
	note __, 1
	note D_, 1
	note E_, 1
	note G_, 4
	note __, 2
	note A#, 2
	note __, 1
	note B_, 3
	intensity $A2
	note E_, 1
	note __, 1
	intensity $A5
	note C_, 2
	note E_, 2
	note G_, 2
	note F_, 2
	note E_, 2
	note D_, 2
	note E_, 2
	note F_, 4
	note E_, 4
	note D_, 2
	note E_, 2
	note C_, 2
	note D_, 2
	note C_, 1
	note D_, 1
	note E_, 5
	note __, 1
	note C_, 2
	note E_, 2
	note D_, 2
	note C_, 2
	octave 2
	note G#, 4
	octave 3
	note C_, 4
	octave 2
	note A#, 4
	octave 3
	note D_, 4
	intensity $A2
	note E_, 1
	note __, 1
	intensity $A5
	note C_, 2
	note E_, 2
	note G_, 2
	note F_, 2
	note E_, 2
	note D_, 2
	note E_, 2
	note F_, 4
	note E_, 4
	note D_, 2
	note E_, 2
	note C_, 2
	note D_, 2
	intensity $A2
	note C_, 1
	note __, 1
	intensity $A5
	note C_, 2
	note D_, 2
	note E_, 3
	note __, 1
	note E_, 2
	note F_, 2
	note G_, 3
	note __, 1
	note A_, 2
	note A#, 4
	octave 4
	note C_, 8
	octave 3
	note G#, 2
	note D#, 2
	note C_, 2
	note D#, 4
	note G#, 2
	note D#, 2
	note C_, 2
	note F#, 2
	note C#, 2
	octave 2
	note A#, 2
	octave 3
	note C#, 4
	note D#, 2
	note F#, 4
	note G_, 2
	note D_, 2
	note C_, 2
	octave 2
	note B_, 4
	octave 3
	note C_, 2
	note D_, 2
	note F_, 4
	note C_, 2
	note F_, 2
	note D_, 4
	note C_, 2
	intensity $A7
	note F_, 4
	intensity $A5
	note G_, 2
	note D_, 2
	note C_, 2
	octave 2
	note B_, 4
	octave 3
	note D_, 2
	note G_, 2
	note A_, 4
	note G_, 2
	note A_, 2
	note A#, 4
	note A_, 2
	note G_, 2
	note E_, 2
	intensity $A3
	note C_, 2
	intensity $81
	note F_, 1
	note __, 1
	note C_, 1
	note __, 1
	note F_, 1
	note __, 1
	note C_, 1
	note __, 1
	note F_, 1
	note __, 1
	note C_, 1
	note __, 1
	note F_, 1
	note __, 1
	note C_, 1
	note __, 1
	note F_, 1
	note __, 1
	note C_, 1
	note __, 1
	note F_, 1
	note __, 1
	note C_, 1
	note __, 1
	note F_, 1
	note __, 1
	note C_, 1
	note __, 1
	note F_, 1
	note __, 1
	octave 2
	note B_, 1
	note __, 1
	octave 3
	note E_, 1
	note __, 1
	octave 2
	note B_, 1
	note __, 1
	octave 3
	note E_, 1
	note __, 1
	octave 2
	note B_, 1
	note __, 1
	octave 3
	note E_, 1
	note __, 1
	intensity $95
	octave 4
	note G_, 2
	note A_, 2
	intensity $92
	octave 5
	note D_, 1
	note E_, 1
	note D_, 1
	note C_, 1
	octave 4
	note B_, 1
	octave 5
	note C_, 1
	octave 4
	note B_, 1
	note A_, 1
	note D_, 1
	note E_, 1
	note D_, 1
	note E_, 1
	note D_, 1
	note E_, 1
	note D_, 1
	note E_, 1
	intensity $82
	note D_, 1
	note __, 1
	intensity $81
	octave 3
	note F_, 1
	note __, 1
	note C_, 1
	note __, 1
	note F_, 1
	note __, 1
	note C_, 1
	note __, 1
	note F_, 1
	note __, 1
	intensity $88
	note C_, 2
	intensity $A8
	slidepitchto 1, 4, C#
	note C_, 2
	octave 4
	note C_, 2
	intensity $81
	octave 3
	note F_, 1
	note __, 1
	note C_, 1
	note __, 1
	note F_, 1
	note __, 1
	note C_, 1
	note __, 1
	note F_, 1
	note __, 1
	note C_, 1
	note __, 1
	note F_, 1
	note __, 1
	octave 2
	note B_, 1
	note __, 1
	octave 3
	note E_, 1
	note __, 1
	octave 2
	note B_, 1
	note __, 1
	octave 3
	note E_, 1
	note __, 1
	octave 2
	note B_, 1
	note __, 1
	octave 3
	note E_, 1
	note __, 1
	octave 2
	note B_, 1
	note __, 1
	octave 3
	note E_, 1
	note __, 1
	intensity $92
	octave 5
	note D_, 1
	note C_, 1
	octave 4
	note B_, 1
	note A_, 1
	note G_, 1
	note A_, 1
	note G_, 1
	note A_, 1
	note G_, 1
	note A_, 1
	note G_, 1
	note A_, 1
	intensity $A5
	octave 3
	note F_, 2
	note E_, 2
	note F_, 2
	note E_, 2
	note F_, 2
	note G_, 4
	octave 2
	note G_, 2
	octave 3
	note D_, 2
	note G_, 2
	note G#, 2
	note G_, 2
	note G#, 2
	note A#, 4
	octave 2
	note A#, 2
	octave 3
	note F_, 2
	note A#, 2
	octave 4
	note C_, 6
	octave 3
	note G_, 6
	note D_, 2
	note D#, 8
	note __, 2
	octave 2
	note G_, 4
	octave 3
	note C_, 4
	note E_, 6
	note __, 2
	octave 2
	note G#, 4
	note __, 2
	octave 3
	note F_, 10
	note F_, 4
	note G_, 4
	loopchannel 0, Music_DrakeBattle_Ch1_loop

Music_DrakeBattle_Ch2:
	tone $0002
	vibrato $10, $24
	octave 5
	notetype $C, $D8
	note C_, 4
	intensity $D4
	note C_, 2
	intensity $D2
	octave 4
	note G_, 1
	octave 5
	note C_, 1
	intensity $D8
	octave 4
	note A#, 4
	intensity $D4
	note A#, 2
	intensity $D2
	note F_, 1
	note A#, 1
	intensity $D8
	note A_, 4
	intensity $D4
	note A_, 4
	note A_, 4
	note B_, 4
	intensity $D8
	octave 5
	note C_, 8
	intensity $D4
	note C_, 6
	intensity $B4
	octave 4
	note F_, 6
	note E_, 2
	note __, 4
	note D_, 6
	intensity $B8
	note E_, 2
	intensity $B7
	note E_, 6
	note __, 6
	intensity $B4
	note F_, 6
	note E_, 2
	note __, 4
	note G_, 6
Music_DrakeBattle_Ch2_loop:
	dutycycle 1
	notetype $C, $C8
	octave 4
	note C_, 8
	intensity $C4
	note C_, 4
	octave 3
	note G_, 2
	octave 4
	note C_, 2
	intensity $C2
	note D_, 3
	intensity $C4
	octave 3
	note A#, 1
	intensity $C8
	note A#, 6
	intensity $C4
	note A#, 4
	note __, 2
	intensity $C8
	octave 4
	note C_, 8
	intensity $C4
	note C_, 4
	octave 3
	note G_, 2
	octave 4
	note C_, 2
	octave 3
	note A#, 1
	note __, 1
	note A#, 1
	octave 4
	note C_, 1
	intensity $C8
	note D_, 6
	intensity $C4
	note D_, 4
	note __, 2
	intensity $C8
	note E_, 8
	intensity $C4
	note E_, 4
	note D_, 2
	note E_, 2
	note F_, 2
	note __, 1
	intensity $C1
	note D_, 1
	intensity $C4
	note D_, 4
	note A#, 2
	note __, 1
	intensity $C1
	note F_, 1
	intensity $C4
	note F_, 4
	intensity $C8
	note E_, 8
	intensity $C4
	note E_, 4
	note D_, 2
	note E_, 2
	note F_, 2
	note D_, 1
	note F_, 1
	intensity $C8
	note A#, 6
	intensity $C4
	note A#, 4
	note __, 2
	dutycycle 0
	intensity $C8
	note C_, 6
	intensity $C4
	note C_, 4
	octave 3
	note G_, 2
	octave 4
	note C_, 2
	note E_, 2
	intensity $C2
	note D_, 3
	intensity $C1
	octave 3
	note A#, 1
	intensity $C8
	note A#, 6
	intensity $C4
	note A#, 4
	note __, 2
	intensity $C8
	octave 4
	note C_, 8
	intensity $C4
	note C_, 4
	octave 3
	note G_, 2
	octave 4
	note C_, 2
	octave 3
	note A#, 1
	octave 4
	note C_, 1
	intensity $C8
	note D_, 8
	intensity $C4
	note D_, 6
	intensity $C8
	note E_, 8
	intensity $C4
	note E_, 4
	note D_, 2
	note E_, 2
	note F_, 2
	note __, 1
	intensity $C1
	note D_, 1
	intensity $C4
	note D_, 4
	note A#, 2
	note __, 1
	intensity $C1
	note F_, 1
	intensity $C4
	note F_, 4
	intensity $C8
	note E_, 8
	intensity $C4
	note E_, 4
	note D_, 2
	note E_, 2
	note F_, 1
	note __, 1
	note D_, 1
	note F_, 1
	intensity $C8
	note G_, 6
	intensity $C4
	note G_, 4
	note __, 2
	octave 3
	note G_, 6
	octave 4
	note C_, 6
	octave 3
	note G_, 4
	note A#, 4
	note A_, 4
	note G_, 4
	note F_, 4
	note E_, 1
	note F_, 1
	note G_, 6
	note __, 2
	note G_, 2
	octave 4
	note C_, 2
	octave 3
	note G_, 2
	note A#, 4
	note G#, 4
	note G_, 4
	note F_, 4
	note G_, 6
	octave 4
	note C_, 6
	octave 3
	note G_, 4
	note A#, 4
	note A_, 4
	note G_, 4
	note F_, 4
	note __, 2
	intensity $C6
	note E_, 2
	note F_, 2
	note G_, 3
	note __, 1
	note G_, 2
	note A_, 2
	note A#, 3
	note __, 1
	octave 4
	note C_, 2
	intensity $C4
	note D_, 4
	intensity $C8
	note E_, 4
	intensity $C4
	note E_, 4
	notetype $9, $C4
	note __, 2
	vibrato $00, $22
	notetype $6, $C8
	note E_, 1
	note F_, 4
	note D#, 4
	note C_, 8
	octave 3
	note G#, 4
	note D#, 4
	note C_, 4
	note C#, 4
	note F#, 4
	note A#, 4
	octave 4
	note C#, 8
	intensity $C4
	note C#, 8
	note __, 3
	intensity $C8
	octave 3
	note A#, 1
	note B_, 8
	intensity $C4
	note B_, 4
	intensity $C8
	note G_, 12
	intensity $C4
	note G_, 12
	note __, 8
	intensity $C8
	octave 4
	note G#, 2
	note A_, 6
	intensity $C4
	note A_, 8
	note G_, 2
	note F_, 2
	intensity $C8
	note G_, 8
	intensity $C7
	note G_, 12
	intensity $C8
	note E_, 12
	note G_, 4
	note E_, 8
	note D_, 2
	intensity $C4
	note C_, 2
	intensity $C8
	note E_, 8
	intensity $C4
	note E_, 8
	note C_, 4
	note __, 16
	dutycycle 1
	intensity $C2
	vibrato $10, $24
	octave 3
	note A_, 2
	note __, 2
	note B_, 2
	note __, 2
	octave 4
	note C_, 2
	note __, 1
	note C#, 1
	note D_, 2
	note __, 2
	note C_, 2
	note __, 2
	octave 3
	note B_, 2
	note __, 2
	note A_, 2
	note __, 2
	note B_, 2
	note __, 2
	octave 4
	note F_, 2
	note __, 2
	octave 3
	note A_, 2
	note __, 2
	octave 4
	note C_, 2
	note __, 2
	octave 3
	note B_, 2
	note __, 2
	note A_, 2
	note B_, 2
	intensity $C8
	vibrato $10, $22
	note G_, 12
	intensity $C4
	vibrato $00, $22
	note G_, 12
	notetype $F, $C4
	note __, 8
	vibrato $10, $24
	notetype $C, $C4
	note G_, 2
	note A_, 2
	note B_, 2
	intensity $C2
	octave 4
	note C_, 1
	note __, 1
	octave 3
	note B_, 1
	octave 4
	note C_, 1
	octave 3
	note B_, 2
	note A_, 1
	note B_, 1
	intensity $C8
	note A_, 2
	intensity $C4
	vibrato $00, $22
	note A_, 4
	note __, 4
	intensity $C2
	vibrato $10, $24
	note A_, 1
	note __, 1
	note B_, 1
	note __, 1
	octave 4
	note C_, 1
	notetype $6, $C2
	note __, 1
	note C#, 1
	note D_, 2
	note __, 2
	note C_, 2
	note __, 2
	octave 3
	note B_, 2
	note __, 2
	note A_, 2
	note __, 2
	note B_, 2
	note __, 2
	octave 4
	note E_, 2
	note __, 2
	note D_, 2
	note __, 2
	note A_, 2
	note __, 1
	note F#, 1
	intensity $C8
	vibrato $10, $22
	note G_, 16
	intensity $C4
	vibrato $00, $22
	note G_, 8
	note __, 12
	dutycycle 0
	vibrato $10, $24
	octave 3
	note G_, 4
	note A_, 4
	note B_, 4
	octave 4
	note C_, 4
	octave 3
	note B_, 4
	octave 4
	note C_, 4
	intensity $C8
	note D_, 8
	intensity $C4
	note D_, 8
	note __, 4
	note D#, 4
	note D_, 4
	note D#, 4
	note F_, 8
	note C#, 4
	note F_, 4
	note G#, 4
	intensity $C8
	note G_, 16
	intensity $C4
	note G_, 8
	note __, 4
	intensity $C7
	note G_, 6
	note F_, 6
	note D#, 6
	intensity $C8
	octave 3
	note A#, 6
	intensity $C4
	note A#, 8
	note __, 4
	note B_, 6
	octave 4
	note E_, 6
	note G#, 4
	intensity $C8
	note B_, 2
	octave 5
	note C#, 2
	octave 4
	note B_, 6
	intensity $C2
	note B_, 6
	intensity $C8
	note F_, 8
	intensity $C4
	note F_, 8
	dutycycle 1
	octave 3
	note A_, 8
	note B_, 8
	loopchannel 0, Music_DrakeBattle_Ch2_loop

Music_DrakeBattle_Ch3:
	dutycycle 4
	octave 3
	notetype $F, $14
	note C_, 4
	notetype $C, $14
	note __, 1
	note C_, 1
	note __, 1
	note C_, 5
	note __, 1
	note C_, 1
	note __, 1
	octave 2
	note A_, 5
	note __, 1
	note A_, 1
	note __, 1
	note A_, 4
	note B_, 4
	octave 3
	note C_, 2
	note E_, 2
	note G_, 2
	note C_, 4
	note E_, 2
	note G_, 2
	note C_, 2
	octave 2
	note A#, 2
	note G_, 2
	note F_, 2
	note G_, 4
	note A#, 2
	note A_, 2
	note A#, 2
	octave 3
	note C_, 2
	note E_, 2
	note G_, 2
	note C_, 4
	note E_, 2
	note G_, 2
	note C_, 4
	octave 2
	note G_, 2
	octave 3
	note E_, 2
	note C_, 2
	octave 2
	note A#, 2
	note G_, 2
	note F_, 2
	note G_, 2
Music_DrakeBattle_Ch3_loop:
	notetype $C, $14
	octave 3
	note C_, 2
	note G_, 1
	note __, 1
	note G_, 2
	note C_, 2
	note G_, 1
	note __, 1
	note G_, 2
	note C_, 2
	note G_, 2
	octave 2
	note A#, 2
	note __, 1
	octave 3
	note F_, 1
	note F_, 2
	octave 2
	note A#, 2
	octave 3
	note F_, 1
	note __, 1
	note F_, 2
	octave 2
	note A#, 2
	octave 3
	note F_, 2
	note C_, 2
	note G_, 1
	note __, 1
	note G_, 2
	note C_, 2
	note G_, 1
	note __, 1
	note G_, 2
	note C_, 2
	note G_, 2
	octave 2
	note A#, 2
	note __, 1
	octave 3
	note F_, 1
	note F_, 2
	octave 2
	note A#, 2
	octave 3
	note F_, 2
	note A#, 4
	note F_, 2
	note C_, 2
	note G_, 1
	note __, 1
	note G_, 2
	note C_, 2
	note G_, 1
	note __, 1
	note G_, 2
	note C_, 2
	note G_, 2
	octave 2
	note A#, 2
	note __, 1
	octave 3
	note F_, 1
	note F_, 2
	octave 2
	note A#, 2
	octave 3
	note F_, 2
	note __, 1
	note F_, 1
	octave 2
	note A#, 2
	octave 3
	note F_, 2
	note C_, 2
	note G_, 1
	note __, 1
	note G_, 2
	note C_, 2
	note G_, 1
	note __, 1
	note G_, 2
	note C_, 2
	note G_, 2
	octave 2
	note A#, 2
	octave 3
	note F_, 1
	note E_, 1
	note F_, 2
	octave 2
	note A#, 2
	octave 3
	note F_, 1
	note __, 1
	octave 2
	note A#, 2
	octave 3
	note F_, 2
	note G_, 2
	note C_, 2
	note G_, 1
	note __, 1
	note G_, 2
	note C_, 2
	note G_, 1
	note __, 1
	note G_, 2
	note C_, 2
	note G_, 2
	octave 2
	note A#, 2
	note __, 1
	octave 3
	note F_, 1
	note F_, 2
	octave 2
	note A#, 2
	octave 3
	note F_, 1
	note __, 1
	note F_, 2
	octave 2
	note A#, 2
	octave 3
	note F_, 2
	note C_, 2
	note G_, 1
	note __, 1
	note G_, 2
	note C_, 2
	note G_, 1
	note __, 1
	note G_, 2
	note C_, 2
	note G_, 2
	octave 2
	note A#, 1
	octave 3
	note E_, 1
	note F_, 2
	note E_, 2
	octave 2
	note A#, 2
	octave 3
	note F_, 2
	note A#, 4
	note F_, 2
	note C_, 2
	note G_, 1
	note __, 1
	note G_, 2
	note C_, 2
	note G_, 1
	note __, 1
	note G_, 2
	note C_, 2
	note G_, 2
	octave 2
	note A#, 2
	note __, 1
	octave 3
	note F_, 1
	note F_, 2
	octave 2
	note A#, 2
	octave 3
	note F_, 2
	note __, 1
	note F_, 1
	octave 2
	note A#, 2
	octave 3
	note F_, 2
	note C_, 2
	note G_, 1
	note __, 1
	note G_, 2
	note C_, 2
	note G_, 1
	note __, 1
	note G_, 2
	note C_, 2
	note G_, 2
	octave 2
	note A#, 2
	octave 3
	note F_, 1
	note E_, 1
	note F_, 2
	octave 2
	note A#, 2
	octave 3
	note G_, 1
	note __, 1
	octave 2
	note A#, 2
	octave 3
	note F_, 2
	note G_, 2
	note C_, 2
	note G_, 1
	note __, 1
	note C_, 2
	note G_, 4
	note C_, 2
	note F_, 2
	note G_, 2
	note F_, 2
	note A#, 2
	note F_, 2
	note A#, 4
	note F_, 2
	note A#, 2
	note F_, 2
	note C_, 2
	note G_, 1
	note __, 1
	note C_, 2
	note G_, 4
	note C_, 2
	note F_, 2
	note G_, 2
	octave 2
	note G#, 2
	octave 3
	note C_, 2
	note D#, 2
	octave 2
	note G#, 2
	note A#, 2
	octave 3
	note D_, 2
	note F_, 2
	octave 2
	note A#, 2
	octave 3
	note C_, 2
	note G_, 1
	note __, 1
	note C_, 2
	note G_, 4
	note C_, 2
	note F_, 2
	note G_, 2
	note F_, 2
	note A#, 2
	note F_, 2
	note A#, 4
	note F_, 2
	note A#, 2
	note F_, 2
	note C_, 2
	note G_, 1
	note __, 1
	note C_, 2
	note G_, 4
	note C_, 2
	note F_, 2
	note G_, 2
	note F_, 2
	note A#, 2
	note F_, 2
	note A#, 2
	note F_, 2
	note A#, 2
	note A_, 2
	note F_, 2
	note G#, 2
	note D#, 2
	note G#, 2
	note D#, 2
	note G#, 2
	note D#, 2
	note G#, 2
	note D#, 2
	note F#, 2
	note C#, 2
	note F#, 2
	note C#, 2
	note F#, 2
	note C#, 2
	note F#, 2
	note C#, 2
	octave 2
	note G_, 2
	note B_, 2
	octave 3
	note D_, 2
	octave 2
	note G_, 4
	note B_, 2
	octave 3
	note D_, 2
	octave 2
	note G_, 4
	octave 3
	note C_, 2
	note D_, 2
	note C_, 2
	note F_, 2
	note D_, 2
	note G_, 2
	note F_, 2
	octave 2
	note G_, 2
	note B_, 2
	octave 3
	note D_, 2
	octave 2
	note G_, 4
	note B_, 2
	octave 3
	note D_, 2
	octave 2
	note G_, 4
	octave 3
	note C_, 2
	note F_, 2
	note E_, 4
	octave 2
	note G_, 6
	octave 3
	note F_, 1
	note __, 1
	note F_, 1
	note __, 1
	note F_, 1
	note __, 1
	note F_, 1
	note __, 1
	note F_, 1
	note __, 1
	note F_, 1
	note __, 1
	note F_, 1
	note __, 1
	note F_, 1
	note __, 1
	note F_, 1
	note __, 1
	note F_, 1
	note __, 1
	note F_, 1
	note __, 1
	note F_, 1
	note __, 1
	note F_, 1
	note __, 1
	note F_, 1
	note __, 1
	note F_, 1
	note __, 1
	note F_, 1
	note __, 1
	note E_, 1
	note __, 1
	note E_, 1
	note __, 1
	note E_, 1
	note __, 1
	note E_, 1
	note __, 1
	note E_, 1
	note __, 1
	note E_, 1
	note __, 1
	note E_, 1
	note __, 1
	note E_, 1
	note __, 1
	note E_, 1
	note __, 1
	note E_, 1
	note __, 1
	note E_, 1
	note __, 1
	note E_, 1
	note __, 1
	note E_, 2
	note C_, 2
	note D_, 2
	note E_, 2
	note F_, 1
	note __, 1
	note F_, 1
	note __, 1
	note F_, 1
	note __, 1
	note F_, 1
	note __, 1
	note F_, 1
	note __, 1
	note F_, 1
	note __, 1
	note F_, 1
	note __, 1
	note F_, 1
	note __, 1
	note F_, 1
	note __, 1
	note F_, 1
	note __, 1
	note F_, 1
	note __, 1
	note F_, 1
	note __, 1
	note F_, 1
	note __, 1
	note F_, 1
	note __, 1
	note F_, 1
	note __, 1
	note F_, 1
	note __, 1
	note E_, 1
	note __, 1
	note E_, 1
	note __, 1
	note E_, 1
	note __, 1
	note E_, 1
	note __, 1
	note E_, 1
	note __, 1
	note E_, 1
	note __, 1
	note E_, 1
	note __, 1
	note E_, 1
	note __, 1
	note E_, 1
	note __, 1
	note E_, 1
	note __, 1
	note E_, 1
	note __, 1
	note E_, 1
	note __, 1
	note E_, 2
	note C_, 2
	note E_, 2
	note G_, 2
	note F_, 6
	note E_, 10
	note D#, 6
	note C#, 10
	note C_, 12
	octave 2
	note G_, 2
	note F_, 16
	note __, 2
	note F#, 12
	note B_, 2
	note A_, 8
	note __, 2
	note A_, 4
	note B_, 2
	octave 3
	note D_, 2
	loopchannel 0, Music_DrakeBattle_Ch3_loop

Music_DrakeBattle_Ch4:
	togglenoise 2
	notetype $C
	note G#, 4
	note __, 2
	note D_, 1
	note D_, 1
	note G#, 4
	note __, 2
	note D_, 1
	note D_, 1
	note G#, 4
	note __, 2
	note D_, 1
	note D_, 1
	note G#, 2
	note G_, 2
	note G#, 2
	note G_, 2
	note G#, 2
	note G_, 2
	note A#, 2
	note G_, 2
	note D#, 2
	note G_, 2
	note A#, 2
	note G_, 2
	note D#, 2
	note G_, 2
	note A#, 2
	note G_, 2
	note F_, 2
	note A#, 2
	note G_, 2
	note D#, 2
	note G#, 2
	note G_, 2
	note A#, 2
	note G_, 2
	note D#, 2
	note G_, 2
	note A#, 2
	note G_, 2
	note D#, 2
	note G_, 2
	note A#, 2
	note G_, 2
	note F_, 2
	note A#, 2
	note G_, 2
	note D#, 2
Music_DrakeBattle_Ch4_loop:
	notetype $C
	note G#, 2
	note D#, 2
	note A#, 2
	note G_, 2
	note C#, 2
	note G_, 2
	note A#, 2
	note D#, 2
	note G_, 2
	note C#, 2
	note A#, 2
	note G_, 2
	note D#, 2
	note G_, 2
	note A#, 2
	note D#, 2
	note G_, 2
	note C#, 2
	note A#, 2
	note G_, 2
	note D#, 2
	note G_, 2
	note A#, 2
	note D#, 2
	note G_, 2
	note C#, 2
	note A#, 2
	note G_, 2
	note D#, 2
	note G_, 2
	note A#, 2
	note D#, 2
	note G#, 2
	note D#, 2
	note A#, 2
	note G_, 2
	note C#, 2
	note G_, 2
	note A#, 2
	note D#, 2
	note G_, 2
	note C#, 2
	note A#, 2
	note G_, 2
	note D#, 2
	note G_, 2
	note A#, 2
	note D#, 2
	note G_, 2
	note C#, 2
	note A#, 2
	note G_, 2
	note D#, 2
	note G_, 2
	note A#, 2
	note D#, 2
	note G_, 2
	note C#, 2
	note A#, 2
	note G_, 2
	note D#, 2
	note G_, 2
	note A#, 2
	note D#, 2
	note G#, 2
	note D#, 2
	note A#, 2
	note G_, 2
	note C#, 2
	note G_, 2
	note A#, 2
	note D#, 2
	note G_, 2
	note C#, 2
	note A#, 2
	note G_, 2
	note D#, 2
	note G_, 2
	note A#, 2
	note D#, 2
	note G_, 2
	note C#, 2
	note A#, 2
	note G_, 2
	note D#, 2
	note G_, 2
	note A#, 2
	note D#, 2
	note G_, 2
	note C#, 2
	note A#, 2
	note G_, 2
	note D#, 2
	note G_, 2
	note A#, 2
	note D#, 2
	note G#, 2
	note D#, 2
	note A#, 2
	note G_, 2
	note C#, 2
	note G_, 2
	note A#, 2
	note D#, 2
	note G_, 2
	note C#, 2
	note A#, 2
	note G_, 2
	note D#, 2
	note G_, 2
	note A#, 2
	note D#, 2
	note G_, 2
	note C#, 2
	note A#, 2
	note G_, 2
	note D#, 2
	note G_, 2
	note A#, 2
	note D#, 2
	note G_, 2
	note C#, 2
	note A#, 2
	note G_, 2
	note G#, 1
	note A_, 1
	note G#, 2
	note A#, 2
	note __, 2
	note G#, 2
	note F_, 2
	note C_, 2
	note F_, 2
	note C#, 2
	note F_, 2
	note C_, 2
	note F_, 2
	note C#, 2
	note F_, 2
	note C_, 2
	note F_, 2
	note C#, 2
	note F_, 2
	note C_, 2
	note F_, 2
	note C#, 2
	note F_, 2
	note C_, 2
	note F_, 2
	note C#, 2
	note F_, 2
	note C_, 2
	note F_, 2
	note C#, 2
	note F_, 2
	note C_, 2
	note F_, 2
	note G#, 2
	note G_, 2
	note A#, 2
	note C#, 2
	note G#, 2
	note F_, 2
	note C_, 2
	note F_, 2
	note C#, 2
	note F_, 2
	note C_, 2
	note F_, 2
	note C#, 2
	note F_, 2
	note C_, 2
	note F_, 2
	note C#, 2
	note F_, 2
	note C_, 2
	note F_, 2
	note C#, 2
	note F_, 2
	note C_, 2
	note F_, 2
	note C#, 2
	note C#, 2
	note C#, 2
	note G#, 4
	note D#, 2
	note D_, 2
	note D_, 2
	note C#, 2
	note C#, 2
	note A#, 2
	note C_, 2
	note A_, 2
	note D#, 2
	note A#, 2
	note G_, 2
	note C#, 2
	note G_, 2
	note A#, 2
	note D#, 2
	note G_, 2
	note C#, 2
	note A#, 2
	note G_, 2
	note D#, 2
	note G_, 2
	note A#, 2
	note D#, 1
	note D_, 1
	note A_, 2
	note C#, 2
	note A#, 2
	note G_, 2
	note D#, 2
	note G_, 2
	note A#, 2
	note D#, 2
	note G_, 2
	note C#, 2
	note A#, 2
	note G_, 2
	note D#, 2
	note A#, 2
	note G_, 2
	note D_, 2
	note A_, 2
	note C#, 2
	note A#, 2
	note G_, 2
	note D#, 2
	note G_, 2
	note A#, 2
	note D#, 2
	note G_, 2
	note A#, 2
	note A#, 2
	note G_, 1
	note C_, 1
	note A#, 1
	note D#, 1
	note E_, 2
	note G#, 2
	note __, 2
	note G#, 2
	note __, 2
	note C#, 1
	note __, 3
	note C#, 1
	note __, 3
	note C#, 1
	note __, 3
	note C#, 1
	note __, 3
	note C#, 1
	note __, 3
	note C#, 1
	note __, 3
	note C#, 1
	note __, 3
	note C#, 1
	note __, 3
	note C#, 1
	note __, 3
	note C#, 1
	note __, 3
	note C#, 1
	note __, 3
	note C#, 1
	note __, 3
	note C#, 1
	note __, 3
	note C#, 1
	note __, 3
	note F_, 1
	note __, 3
	note G#, 2
	note __, 2
	note C#, 1
	note __, 3
	note C#, 1
	note __, 3
	note C#, 1
	note __, 3
	note C#, 1
	note __, 3
	note C#, 1
	note __, 3
	note C#, 1
	note __, 3
	note C#, 1
	note __, 3
	note C#, 1
	note __, 3
	note C#, 1
	note __, 3
	note C#, 1
	note __, 3
	note C#, 1
	note __, 3
	note C#, 1
	note __, 5
	note G#, 2
	note G_, 2
	note A#, 2
	note G#, 2
	note __, 2
	note G#, 2
	note __, 2
	note D_, 2
	note G#, 2
	note __, 2
	note D_, 2
	note D_, 2
	note __, 2
	note G#, 2
	note __, 2
	note D_, 2
	note G#, 2
	note __, 2
	note D_, 2
	note D_, 2
	note __, 2
	note G#, 2
	note __, 2
	note F_, 2
	note __, 2
	note F_, 2
	note A#, 2
	note A#, 2
	note G#, 2
	note __, 4
	note D#, 2
	note __, 2
	note D_, 2
	note D#, 2
	note A#, 2
	note __, 2
	note G#, 2
	note __, 2
	note A#, 2
	note C_, 2
	note D#, 2
	note A#, 2
	note C#, 2
	note G#, 2
	note F_, 2
	note A_, 2
	note C#, 2
	note D#, 2
	note G#, 2
	note __, 2
	note G#, 2
	note __, 2
	loopchannel 0, Music_DrakeBattle_Ch4_loop

