Music_EarlyOrangeRoute:
	musicheader 4, 1, Music_EarlyOrangeRoute_Ch1
	musicheader 1, 2, Music_EarlyOrangeRoute_Ch2
	musicheader 1, 3, Music_EarlyOrangeRoute_Ch3
	musicheader 1, 4, Music_EarlyOrangeRoute_Ch4

Music_EarlyOrangeRoute_Ch1:
	tempo $C0
	volume $77
	stereopanning $f
	notetype $C, $00
	note __, 4
Music_EarlyOrangeRoute_Ch1_loop:
	dutycycle 1
	tone $0001
	notetype $C, $A2
	vibrato $00, $13
	octave 4
	note C_, 1
	note __, 2
	note C_, 1
	note __, 9
	intensity $A5
	octave 3
	note A#, 3
	intensity $A2
	note G#, 1
	note __, 2
	note G#, 1
	note __, 10
	intensity $A3
	note G_, 2
	intensity $A2
	note F_, 1
	note __, 2
	note F_, 1
	note __, 12
	note A#, 1
	note __, 2
	note A#, 1
	note __, 2
	note A#, 1
	intensity $A7
	note A#, 7
	note __, 2
	dutycycle 0
	intensity $91
	vibrato $00, $11
	octave 4
	note D#, 1
	note C_, 1
	note D#, 1
	note G#, 1
	note D#, 1
	note F_, 1
	note D#, 1
	note C_, 1
	note D#, 1
	note F_, 1
	note D#, 1
	note G#, 1
	note C#, 1
	note C_, 1
	note C#, 1
	note D#, 1
	note F_, 1
	note C_, 1
	note D#, 1
	note G#, 1
	note D#, 1
	note F_, 1
	note D#, 1
	note C_, 1
	note D#, 1
	note F_, 1
	note D#, 1
	note G#, 1
	note C#, 1
	note D#, 1
	note C#, 1
	note C_, 1
	note F_, 1
	note D#, 1
	note F_, 1
	octave 5
	note C_, 1
	octave 4
	note F_, 1
	note C_, 1
	note D#, 1
	note F_, 1
	note D#, 1
	note F_, 1
	octave 5
	note C_, 1
	octave 4
	note F_, 1
	note D#, 1
	note C_, 1
	note D#, 1
	octave 5
	note C_, 1
	octave 4
	note G#, 1
	note F_, 1
	note D#, 1
	note F_, 1
	octave 5
	note C_, 1
	octave 4
	note D#, 1
	note F_, 1
	note G#, 1
	note F_, 1
	note C_, 1
	note D#, 1
	note G#, 1
	note F_, 1
	note D#, 1
	note C#, 1
	note C_, 1
	dutycycle 1
	intensity $A2
	vibrato $00, $13
	octave 3
	note C#, 1
	note __, 2
	note C#, 1
	note __, 1
	octave 2
	note G#, 1
	note __, 1
	note G#, 1
	intensity $A3
	octave 3
	note C#, 2
	octave 2
	note G#, 2
	note G#, 1
	note A#, 2
	note __, 1
	intensity $A2
	octave 3
	note D#, 1
	note __, 2
	note D#, 1
	note __, 1
	octave 2
	note G_, 1
	note __, 1
	note G_, 1
	intensity $A3
	note A#, 2
	octave 3
	note C_, 2
	octave 2
	note A#, 1
	octave 3
	note D#, 2
	note __, 1
	intensity $A2
	note E_, 1
	note __, 2
	note E_, 1
	note __, 1
	octave 2
	note E_, 1
	note B_, 1
	note G#, 1
	intensity $A3
	octave 3
	note E_, 2
	note C#, 2
	note E_, 2
	note F#, 1
	note E_, 1
	intensity $A2
	note D#, 1
	note __, 2
	note D#, 1
	note C#, 1
	note __, 1
	intensity $A3
	octave 2
	note A#, 1
	octave 3
	note D#, 3
	intensity $A2
	octave 2
	note A#, 1
	note __, 1
	intensity $A3
	note G_, 2
	note G_, 2
	dutycycle 2
	intensity $85
	octave 3
	note G#, 6
	note D#, 3
	note G#, 2
	intensity $81
	note D#, 1
	intensity $85
	note D#, 2
	note __, 2
	note F#, 4
	note F#, 4
	note G#, 4
	note F#, 4
	note C_, 3
	note F_, 3
	octave 4
	note C_, 4
	octave 3
	note A#, 4
	note G#, 2
	dutycycle 1
	intensity $A2
	note C_, 1
	note __, 2
	note C_, 1
	note __, 2
	intensity $A5
	note C_, 4
	intensity $A2
	note C_, 1
	note __, 1
	intensity $A3
	note C_, 4
	dutycycle 2
	intensity $85
	note A#, 6
	note F_, 3
	note A#, 2
	intensity $81
	note F_, 1
	intensity $85
	note F_, 4
	note G_, 3
	note A#, 3
	octave 4
	note D#, 3
	note C#, 3
	octave 3
	note A#, 2
	note G#, 2
	intensity $83
	octave 4
	note D#, 1
	note C#, 1
	octave 3
	note G#, 1
	note D#, 1
	note F_, 1
	note G#, 1
	note A#, 1
	octave 4
	note C#, 1
	note D#, 1
	note C#, 1
	octave 3
	note F_, 1
	note G#, 1
	octave 4
	note C#, 1
	octave 3
	note A#, 1
	octave 4
	note C#, 1
	octave 3
	note G#, 1
	intensity $95
	note A#, 3
	octave 4
	note C#, 3
	intensity $75
	note D#, 3
	intensity $1B
	note D#, 2
	intensity $64
	note D#, 4
	note __, 1
	dutycycle 1
	tone $0000
	intensity $71
	vibrato $00, $00
	octave 6
	note C_, 1
	note __, 1
	note C_, 1
	octave 5
	note G#, 1
	octave 6
	note C_, 1
	note C_, 1
	note __, 1
	note C_, 1
	note __, 1
	note C_, 1
	octave 5
	note G#, 1
	octave 6
	note C_, 1
	note C_, 1
	note __, 1
	note C_, 1
	octave 5
	note G#, 1
	octave 6
	note C_, 1
	note __, 1
	note C_, 1
	note __, 1
	note C_, 1
	note C_, 1
	octave 5
	note G_, 1
	octave 6
	note C_, 1
	note __, 1
	note C_, 1
	octave 5
	note G_, 1
	octave 6
	note C_, 1
	note C_, 1
	note __, 1
	note C_, 1
	octave 5
	note G_, 1
	octave 6
	note C_, 1
	note __, 1
	note C_, 1
	note __, 1
	note C_, 1
	note C_, 1
	octave 5
	note G_, 1
	octave 6
	note C_, 1
	note __, 1
	note C_, 1
	octave 5
	note G_, 1
	octave 6
	note C_, 1
	note C_, 1
	note __, 1
	note C_, 1
	octave 5
	note G_, 1
	intensity $82
	vibrato $00, $11
	note D#, 1
	note C#, 1
	octave 4
	note G_, 1
	note A#, 1
	intensity $92
	octave 5
	note D#, 1
	note C#, 1
	octave 4
	note G_, 1
	note A#, 1
	octave 5
	note D#, 1
	note C#, 1
	octave 4
	note G_, 1
	note A#, 1
	octave 5
	note D#, 1
	note C#, 1
	note D#, 1
	octave 4
	note A#, 1
	loopchannel 0, Music_EarlyOrangeRoute_Ch1_loop

Music_EarlyOrangeRoute_Ch2:
	stereopanning $f0
	notetype $C, $00
	note __, 2
	dutycycle 1
	tone $0002
	octave 3
	notetype $6, $B2
	note D#, 1
	note F_, 1
	note G_, 1
	note A#, 1
Music_EarlyOrangeRoute_Ch2_loop:
	notetype $6, $C2
	vibrato $00, $13
	octave 4
	note D#, 2
	note __, 4
	note D#, 2
	note __, 4
	octave 3
	note G#, 2
	octave 4
	note C_, 2
	intensity $C5
	note F_, 4
	note D#, 4
	intensity $C2
	note C#, 2
	intensity $C5
	note D#, 6
	intensity $C2
	note C_, 2
	note __, 4
	note C_, 2
	note __, 4
	octave 3
	note F_, 2
	note G#, 2
	intensity $C5
	octave 4
	note C#, 4
	note C_, 4
	octave 3
	note A#, 4
	octave 4
	note C_, 4
	intensity $C2
	octave 3
	note G#, 2
	note __, 4
	note G#, 2
	note __, 4
	note D#, 2
	note F_, 2
	intensity $C5
	note G#, 4
	note D#, 2
	note G#, 2
	octave 4
	note C_, 4
	note F_, 2
	note G_, 2
	intensity $C2
	note D#, 2
	note __, 4
	note D#, 2
	note __, 4
	note F_, 2
	intensity $C5
	note D#, 6
	dutycycle 2
	intensity $C3
	vibrato $00, $43
	octave 3
	note D#, 2
	note __, 2
	note F_, 2
	note __, 2
	note G_, 4
	intensity $C5
	note A#, 8
	note G#, 8
	note G_, 2
	note G#, 2
	note G_, 2
	note D#, 4
	note C_, 2
	note F_, 2
	note D#, 6
	intensity $C3
	note F_, 4
	note D#, 4
	note C#, 4
	intensity $C2
	note C_, 2
	note C#, 2
	note __, 2
	note D#, 2
	note __, 2
	intensity $C3
	note D#, 2
	note G_, 2
	note G#, 2
	intensity $C5
	note A#, 8
	note G#, 8
	note G_, 2
	note G#, 2
	note G_, 2
	note D#, 4
	note C_, 2
	note F_, 2
	note D#, 6
	intensity $C3
	note F_, 4
	note D#, 4
	note C#, 4
	intensity $C2
	note C_, 2
	note D#, 2
	note __, 2
	note F_, 2
	note __, 4
	dutycycle 1
	intensity $C3
	vibrato $00, $13
	note D#, 4
	intensity $C2
	note F_, 2
	note __, 4
	note F_, 2
	note __, 4
	intensity $C5
	note C#, 2
	note D#, 2
	note G_, 4
	note F_, 4
	note D#, 2
	note C#, 4
	note __, 2
	intensity $C2
	note G_, 2
	note __, 4
	note G_, 2
	note __, 4
	intensity $C5
	note C_, 2
	note D#, 2
	note G_, 4
	note F_, 4
	note D#, 2
	note G_, 4
	note __, 2
	intensity $C2
	note G#, 2
	note __, 4
	note G#, 2
	note __, 2
	intensity $C5
	octave 2
	note B_, 2
	octave 3
	note E_, 2
	note G#, 2
	intensity $C2
	note B_, 2
	note G#, 2
	note F#, 2
	note G#, 2
	intensity $C5
	note B_, 4
	octave 4
	note C#, 4
	intensity $C2
	octave 3
	note A#, 2
	note G_, 2
	octave 4
	note C#, 2
	octave 3
	note G#, 2
	intensity $C5
	note A#, 4
	intensity $C2
	note G_, 2
	intensity $C5
	octave 4
	note D#, 6
	intensity $C2
	octave 3
	note D#, 2
	note __, 2
	intensity $C5
	note G_, 4
	note A#, 4
	intensity $C8
	octave 4
	note C_, 8
	intensity $C5
	note C_, 12
	note __, 6
	intensity $C3
	octave 3
	note D#, 2
	note G#, 2
	octave 4
	note C_, 2
	note D#, 4
	note __, 4
	note C#, 4
	note __, 4
	note C_, 4
	note __, 4
	octave 3
	note A#, 4
	octave 4
	note C_, 4
	octave 3
	note G#, 2
	note G_, 4
	note F_, 4
	note G_, 2
	intensity $C8
	note G#, 8
	intensity $C5
	note G#, 12
	intensity $C2
	note F_, 2
	note __, 4
	note F_, 2
	note __, 4
	intensity $C3
	note F_, 8
	intensity $C2
	note F_, 2
	note __, 2
	intensity $C5
	note G#, 4
	octave 4
	note C_, 4
	intensity $C8
	note C#, 8
	intensity $C5
	note C#, 12
	note __, 6
	intensity $C3
	octave 3
	note F_, 2
	note G#, 2
	octave 4
	note C_, 2
	note F_, 4
	note __, 4
	note D#, 4
	note __, 4
	note C#, 4
	note __, 4
	note C_, 4
	note __, 4
	intensity $C2
	octave 3
	note A#, 2
	note G#, 2
	note __, 2
	note G_, 2
	note __, 2
	note F_, 2
	note __, 2
	intensity $C7
	note D#, 10
	intensity $C2
	note C#, 2
	note __, 2
	intensity $C7
	note F_, 12
	intensity $C2
	note D#, 2
	note __, 2
	intensity $C5
	note G_, 6
	note D#, 6
	note C#, 4
	octave 2
	note A#, 4
	note G#, 4
	intensity $C1
	octave 3
	note D#, 2
	intensity $C2
	note D#, 2
	note __, 2
	note D#, 2
	note __, 2
	intensity $C5
	note D_, 6
	note C_, 4
	note D#, 4
	note C_, 4
	octave 2
	note G_, 4
	intensity $C1
	octave 3
	note D#, 2
	intensity $C2
	note D#, 2
	note __, 2
	note D#, 2
	note __, 2
	intensity $C5
	note F_, 6
	note D#, 4
	note D_, 4
	note D#, 4
	note C_, 4
	intensity $C1
	note G_, 2
	intensity $C2
	note G_, 2
	note __, 2
	note G_, 2
	note __, 2
	intensity $C5
	note F_, 6
	note D#, 4
	note G_, 4
	note D#, 4
	note C#, 4
	intensity $C1
	note A#, 2
	intensity $C2
	note A#, 2
	note __, 2
	note A#, 2
	note __, 2
	intensity $C5
	note G_, 6
	note A#, 4
	octave 4
	note C#, 4
	note D#, 4
	loopchannel 0, Music_EarlyOrangeRoute_Ch2_loop

Music_EarlyOrangeRoute_Ch3:
	notetype $C, $00
	note __, 4
Music_EarlyOrangeRoute_Ch3_loop:
	dutycycle 7
	notetype $C, $27
	octave 3
	note G#, 1
	note __, 1
	note D#, 1
	note G#, 1
	note __, 1
	note D#, 2
	note C_, 2
	note C_, 1
	note C#, 2
	note D#, 2
	note G#, 2
	note F_, 1
	note __, 1
	note C_, 1
	note F_, 1
	note __, 1
	note C_, 2
	note F_, 2
	note G#, 1
	note F_, 2
	note D#, 2
	note F_, 1
	note D#, 1
	note C#, 1
	note __, 1
	octave 2
	note G#, 1
	octave 3
	note C#, 1
	note __, 1
	octave 2
	note G#, 2
	octave 3
	note C#, 2
	note F_, 1
	note D#, 1
	note C#, 1
	octave 2
	note G#, 2
	note A#, 1
	octave 3
	note C#, 1
	note D#, 1
	note __, 1
	octave 2
	note A#, 1
	octave 3
	note D#, 1
	note __, 1
	octave 2
	note A#, 1
	octave 3
	note C_, 1
	octave 2
	note A#, 3
	note __, 4
	note A#, 2
	octave 3
	note D#, 3
	note __, 1
	note G#, 3
	note __, 1
	note D#, 3
	note __, 1
	note G#, 3
	note __, 1
	note D#, 3
	note __, 1
	note G#, 3
	note __, 1
	note D#, 3
	note __, 1
	note G#, 2
	note D#, 2
	note F_, 3
	note __, 1
	octave 4
	note C_, 3
	note __, 1
	octave 3
	note F_, 3
	note __, 1
	octave 4
	note C_, 3
	note __, 1
	octave 3
	note F_, 3
	note __, 1
	octave 4
	note C_, 3
	note __, 1
	octave 3
	note F_, 3
	note __, 1
	note C_, 1
	note D#, 1
	note G#, 1
	note F_, 1
	note C#, 1
	note __, 1
	octave 2
	note G#, 1
	octave 3
	note C#, 1
	note __, 1
	octave 2
	note G#, 2
	octave 3
	note C_, 1
	note C#, 2
	note F_, 2
	octave 2
	note G#, 2
	octave 3
	note C#, 2
	note D#, 1
	note __, 1
	octave 2
	note A#, 1
	octave 3
	note D#, 1
	note __, 1
	octave 2
	note A#, 2
	octave 3
	note C#, 1
	note D#, 2
	note G_, 2
	octave 2
	note A#, 2
	octave 3
	note D#, 2
	note E_, 1
	note __, 1
	octave 2
	note B_, 1
	octave 3
	note E_, 1
	note __, 1
	octave 2
	note B_, 2
	octave 3
	note D#, 1
	note E_, 2
	note B_, 1
	note G#, 1
	octave 2
	note B_, 1
	octave 3
	note E_, 1
	note C#, 2
	note D#, 1
	note __, 1
	octave 2
	note A#, 1
	octave 3
	note D#, 1
	note __, 1
	octave 2
	note A#, 1
	octave 3
	note C#, 2
	note D#, 3
	note __, 3
	octave 2
	note A#, 2
	octave 3
	note D#, 3
	note C_, 1
	note G#, 3
	note C_, 1
	note D#, 2
	note C_, 2
	note G#, 1
	note C_, 1
	note D#, 1
	note C_, 1
	note C#, 2
	note __, 2
	note F#, 2
	note C#, 2
	note C#, 2
	octave 2
	note A#, 2
	octave 3
	note F#, 2
	note C#, 2
	note C_, 3
	octave 2
	note G#, 1
	octave 3
	note F_, 3
	octave 2
	note G#, 1
	octave 3
	note C_, 2
	octave 2
	note G#, 2
	octave 3
	note F_, 2
	note C_, 1
	note __, 1
	note C_, 3
	octave 2
	note G#, 1
	octave 3
	note F_, 3
	note G_, 1
	note G#, 3
	note G_, 1
	note C_, 2
	note D#, 2
	note F_, 3
	note C#, 1
	note A#, 3
	note C#, 1
	note F_, 2
	note A#, 2
	note C#, 2
	note F_, 1
	note A#, 1
	note A#, 2
	note __, 2
	note G#, 2
	note __, 2
	note G_, 2
	note __, 2
	note F_, 2
	note D_, 2
	note D#, 2
	note F_, 1
	note G_, 2
	octave 2
	note A#, 1
	octave 3
	note D#, 2
	note F_, 1
	note G_, 2
	octave 2
	note A#, 1
	octave 3
	note D#, 1
	note F_, 1
	note D#, 2
	note F_, 1
	note G_, 1
	note F_, 2
	note D#, 1
	note D_, 1
	note D#, 2
	note G_, 1
	note F_, 1
	note D#, 1
	note D_, 1
	note C#, 1
	note C_, 1
	octave 2
	note A#, 1
	note G_, 1
	octave 3
	note D#, 2
	note G#, 1
	note __, 1
	note D#, 1
	note G#, 1
	note D#, 1
	note A#, 3
	note G#, 2
	note G_, 2
	note G#, 2
	note C_, 2
	note G_, 1
	note __, 1
	note C_, 1
	note G_, 1
	note C_, 1
	note G#, 3
	note G_, 2
	note F_, 2
	note G_, 2
	note C_, 2
	note G_, 1
	note __, 1
	note C_, 1
	note G_, 1
	note C_, 1
	note G#, 3
	note G_, 2
	note C_, 2
	note D#, 2
	note F_, 2
	note A#, 1
	note __, 1
	note D#, 1
	note A#, 1
	note D#, 1
	note A#, 3
	note F_, 2
	note G_, 2
	note A#, 2
	loopchannel 0, Music_EarlyOrangeRoute_Ch3_loop

Music_EarlyOrangeRoute_Ch4:
	togglenoise 1
	notetype $6
	note C#, 1
	note E_, 1
	note E_, 1
	note E_, 1
	note E_, 1
	note E_, 1
	note E_, 1
	note E_, 1
Music_EarlyOrangeRoute_Ch4_loop:
	notetype $6
	note C#, 2
	note C_, 2
	note C_, 2
	note C#, 2
	note C_, 2
	note C_, 2
	note C#, 2
	note C_, 2
	note C_, 2
	note C_, 2
	note D_, 2
	note C_, 2
	note C#, 2
	note C_, 2
	note D_, 2
	note C_, 2
	note C#, 2
	note C_, 2
	note C_, 2
	note C#, 2
	note C_, 2
	note C_, 2
	note C#, 2
	note C_, 2
	note C_, 2
	note C_, 2
	note D_, 2
	note C_, 2
	note C#, 2
	note C_, 2
	note D_, 2
	note C_, 2
	note C#, 2
	note C_, 2
	note C_, 2
	note C#, 2
	note C_, 2
	note C_, 2
	note C#, 2
	note C_, 2
	note C_, 2
	note C_, 2
	note D_, 2
	note C_, 2
	note C#, 2
	note C_, 2
	note D_, 2
	note __, 2
	note D_, 2
	note C_, 2
	note B_, 2
	note C_, 2
	note C#, 2
	note B_, 2
	note B_, 2
	note D_, 2
	note __, 16
	note D_, 2
	note __, 2
	note C_, 2
	note B_, 2
	note C#, 2
	note __, 2
	note C_, 2
	note B_, 2
	note C_, 2
	note __, 2
	note C_, 2
	note B_, 2
	note C#, 2
	note __, 2
	note C_, 2
	note B_, 2
	note C_, 2
	note __, 2
	note C_, 2
	note B_, 2
	note C#, 2
	note __, 2
	note C_, 2
	note B_, 2
	note C_, 2
	note __, 2
	note C_, 2
	note B_, 2
	note C#, 2
	note __, 2
	note C_, 2
	note B_, 2
	note D_, 2
	note __, 2
	note C_, 2
	note B_, 2
	note C#, 2
	note __, 2
	note C_, 2
	note B_, 2
	note C_, 2
	note __, 2
	note C_, 2
	note B_, 2
	note C#, 2
	note __, 2
	note C_, 2
	note B_, 2
	note C_, 2
	note __, 2
	note C_, 2
	note B_, 2
	note C#, 2
	note __, 2
	note C_, 2
	note B_, 2
	note C_, 2
	note __, 2
	note C_, 2
	note B_, 2
	note C#, 2
	note __, 2
	note B_, 2
	note __, 2
	note C#, 2
	note C_, 2
	note C_, 2
	note C#, 2
	note C_, 2
	note C_, 2
	note C#, 2
	note C_, 2
	note C_, 2
	note C_, 2
	note D_, 2
	note C_, 2
	note C#, 2
	note C_, 2
	note D_, 2
	note C_, 2
	note C#, 2
	note C_, 2
	note C_, 2
	note C#, 2
	note C_, 2
	note C_, 2
	note C#, 2
	note C_, 2
	note C_, 2
	note C_, 2
	note D_, 2
	note C_, 2
	note C#, 2
	note C_, 2
	note D_, 2
	note C_, 2
	note C#, 2
	note C_, 2
	note C_, 2
	note C#, 2
	note C_, 2
	note C_, 2
	note C#, 2
	note C_, 2
	note C_, 2
	note C_, 2
	note D_, 2
	note C_, 2
	note C#, 2
	note C_, 2
	note D_, 2
	note C_, 2
	note D_, 2
	note C_, 2
	note B_, 2
	note C_, 2
	note C#, 2
	note B_, 2
	note B_, 2
	note D_, 2
	note __, 16
	note D_, 2
	note __, 2
	note C_, 2
	note B_, 2
	note C#, 2
	note __, 2
	note C_, 2
	note B_, 2
	note C_, 2
	note __, 2
	note C_, 2
	note B_, 2
	note C#, 2
	note __, 2
	note C_, 2
	note B_, 2
	note C#, 2
	note __, 2
	note C_, 2
	note B_, 2
	note C#, 2
	note __, 2
	note C_, 2
	note B_, 2
	note C#, 2
	note __, 2
	note C_, 2
	note B_, 2
	note C#, 2
	note __, 2
	note D_, 2
	note B_, 2
	note D_, 2
	note __, 2
	note C_, 2
	note B_, 2
	note C#, 2
	note __, 2
	note C_, 2
	note B_, 2
	note C_, 2
	note __, 2
	note C_, 2
	note B_, 2
	note C#, 2
	note __, 2
	note C_, 2
	note B_, 2
	note C#, 2
	note __, 2
	note C_, 2
	note C#, 2
	note __, 2
	note C_, 2
	note C#, 2
	note B_, 2
	note C_, 2
	note __, 2
	note C#, 2
	note B_, 2
	note C#, 2
	note __, 2
	note D_, 2
	note B_, 2
	note D_, 2
	note __, 2
	note C_, 2
	note B_, 2
	note C#, 2
	note __, 2
	note C_, 2
	note B_, 2
	note C_, 2
	note __, 2
	note C_, 2
	note B_, 2
	note C#, 2
	note __, 2
	note C_, 2
	note B_, 2
	note C#, 2
	note __, 2
	note C_, 2
	note B_, 2
	note C#, 2
	note __, 2
	note C_, 2
	note B_, 2
	note C#, 2
	note __, 2
	note C_, 2
	note B_, 2
	note C#, 2
	note __, 2
	note D_, 2
	note B_, 2
	note D_, 2
	note __, 2
	note C_, 2
	note B_, 2
	note C#, 2
	note __, 2
	note C_, 2
	note B_, 2
	note C_, 2
	note __, 2
	note C_, 2
	note B_, 2
	note C#, 2
	note __, 2
	note C_, 2
	note B_, 2
	note C#, 2
	note __, 2
	note C_, 2
	note C#, 2
	note __, 2
	note C_, 2
	note D_, 2
	note __, 14
	note D#, 4
	note D_, 2
	note __, 2
	note C_, 2
	note B_, 2
	note C#, 2
	note __, 2
	note C_, 2
	note B_, 2
	note C_, 2
	note __, 2
	note C_, 2
	note B_, 2
	note C#, 2
	note B_, 2
	note C#, 2
	note B_, 2
	note D_, 2
	note __, 2
	note C_, 2
	note B_, 2
	note C#, 2
	note __, 2
	note C_, 2
	note B_, 2
	note C_, 2
	note __, 2
	note C_, 2
	note B_, 2
	note C#, 2
	note B_, 2
	note C#, 2
	note B_, 2
	note D_, 2
	note __, 2
	note C_, 2
	note B_, 2
	note C#, 2
	note __, 2
	note C_, 2
	note B_, 2
	note C_, 2
	note __, 2
	note C_, 2
	note B_, 2
	note C#, 2
	note B_, 2
	note C#, 2
	note B_, 2
	note D_, 2
	note __, 2
	note C_, 2
	note B_, 2
	note C#, 2
	note __, 2
	note C_, 2
	note B_, 2
	note C#, 2
	note __, 2
	note C_, 2
	note D_, 2
	note C_, 2
	note B_, 2
	note D_, 2
	note __, 2
	loopchannel 0, Music_EarlyOrangeRoute_Ch4_loop

