Music_KantoGymBattle:
	musicheader 4, 1, Music_KantoGymBattle_Ch1
	musicheader 1, 2, Music_KantoGymBattle_Ch2
	musicheader 1, 3, Music_KantoGymBattle_Ch3
	musicheader 1, 4, Music_KantoGymBattle_Ch4

Music_KantoGymBattle_Ch1:
	tempo $67
	volume $77
	stereopanning $77
	dutycycle 3
	tone $0002
	vibrato $12, $15
	octave 3
	notetype $C, $B2
	note A#, 1
	note A_, 1
	note G#, 1
	note G_, 1
	note G#, 1
	note G_, 1
	note F#, 1
	note G_, 1
	note F#, 1
	note F_, 1
	note F#, 1
	note F_, 1
	note E_, 1
	note F_, 1
	note E_, 1
	note D#, 1
	note E_, 1
	note D#, 1
	note D_, 1
	note D#, 1
	note D_, 1
	note C#, 1
	note D_, 1
	note C#, 1
	note C_, 1
	note C#, 1
	note C_, 1
	octave 2
	note B_, 1
	octave 3
	note C_, 1
	octave 2
	note B_, 1
	note A#, 1
	note B_, 1
Music_KantoGymBattle_Ch1_loop:
	notetype $C, $B2
	octave 2
	note A#, 2
	note A#, 6
	note A#, 2
	note A#, 6
	note A#, 2
	note A#, 8
	intensity $B7
	note B_, 2
	intensity $B2
	note A#, 2
	note A#, 6
	note A#, 2
	note A#, 6
	note A#, 2
	note A#, 8
	intensity $B7
	octave 3
	note E_, 2
	intensity $B2
	octave 2
	note A#, 2
	note A#, 6
	note A#, 2
	note A#, 6
	note A#, 2
	note A#, 8
	intensity $B7
	note B_, 2
	intensity $B2
	note A#, 2
	note A#, 6
	note A#, 2
	note A#, 6
	note A#, 2
	intensity $B4
	octave 3
	note D_, 4
	note D_, 4
	note D_, 2
	intensity $B7
	note D#, 16
	octave 2
	note A#, 4
	note G#, 4
	note A#, 4
	octave 3
	note C#, 4
	octave 2
	note G_, 4
	note D#, 2
	note G_, 2
	note G#, 4
	note D#, 2
	note G#, 2
	note A#, 4
	note G#, 4
	note A#, 4
	note F_, 4
	note C#, 4
	note F_, 4
	note A#, 4
	intensity $B4
	octave 3
	note D_, 4
	intensity $B2
	note D_, 1
	note __, 1
	note D_, 2
	note __, 2
	note D_, 1
	note __, 1
	intensity $B5
	note D#, 2
	octave 2
	note A#, 2
	octave 3
	note D#, 2
	note E_, 4
	note D#, 2
	note C#, 2
	octave 2
	note A#, 2
	note D#, 2
	note G#, 2
	note A#, 2
	octave 3
	note D#, 2
	note E_, 2
	note D#, 2
	note C#, 2
	octave 2
	note A#, 2
	intensity $B7
	note G#, 8
	note B_, 8
	octave 3
	note D#, 10
	note E_, 6
	intensity $B5
	note D#, 2
	octave 2
	note A#, 2
	octave 3
	note D#, 2
	note E_, 4
	note D#, 2
	note C#, 2
	octave 2
	note A#, 2
	note D#, 2
	note G#, 2
	note A#, 2
	octave 3
	note D#, 2
	note E_, 2
	note D#, 2
	note C#, 2
	note D#, 2
	intensity $B7
	note C#, 8
	octave 2
	note B_, 8
	note G#, 10
	octave 3
	note E_, 6
	intensity $B2
	note D#, 2
	note D#, 2
	note G_, 1
	note E_, 1
	note D#, 1
	note G_, 1
	note D#, 2
	note D#, 2
	note A#, 1
	note G#, 1
	note E_, 1
	note A#, 1
	note D#, 2
	note D#, 2
	note B_, 1
	note A#, 1
	note G#, 1
	note B_, 1
	note D#, 2
	intensity $B7
	note E_, 2
	intensity $B2
	note D#, 2
	note D#, 2
	note G_, 1
	note E_, 1
	note D#, 1
	note G_, 1
	note D#, 2
	note D#, 2
	note A#, 1
	note G#, 1
	note E_, 1
	note A#, 1
	note D#, 2
	note D#, 2
	note B_, 1
	note A#, 1
	note G#, 1
	note B_, 1
	note G#, 2
	intensity $B5
	note B_, 2
	note C#, 2
	note D_, 2
	note D#, 2
	note C#, 2
	octave 2
	note A#, 4
	note D#, 2
	note G#, 2
	note B_, 2
	octave 3
	note E_, 2
	note D#, 4
	note C#, 2
	octave 2
	note A#, 2
	note A#, 2
	note D#, 2
	note A#, 2
	octave 3
	note C#, 2
	intensity $B7
	octave 2
	note B_, 8
	note A#, 8
	note G#, 10
	note B_, 6
	intensity $B5
	octave 3
	note D#, 2
	note C#, 2
	octave 2
	note A#, 4
	note D#, 2
	note G#, 2
	note B_, 2
	octave 3
	note E_, 2
	note D#, 4
	note C#, 2
	octave 2
	note A#, 2
	note A#, 2
	note G#, 2
	note A#, 2
	octave 3
	note C#, 2
	intensity $B7
	note E_, 8
	note F#, 8
	note G_, 16
	intensity $B2
	octave 2
	note G#, 2
	note G#, 2
	intensity $B7
	octave 3
	note C#, 12
	intensity $B2
	note G#, 2
	note F_, 4
	intensity $B5
	octave 2
	note F_, 4
	note G_, 2
	note G#, 2
	note A#, 2
	intensity $B2
	note A#, 2
	note A#, 2
	intensity $B7
	octave 3
	note D#, 12
	intensity $B2
	note A#, 2
	note G_, 4
	intensity $B7
	octave 4
	note D#, 6
	intensity $4C
	octave 3
	note G_, 4
	intensity $B5
	note F_, 2
	note C_, 2
	note F_, 2
	note F#, 4
	note F_, 2
	note D#, 2
	note C_, 2
	octave 2
	note F_, 2
	note A#, 2
	octave 3
	note C_, 2
	note F_, 2
	note F#, 2
	note F_, 2
	note D#, 2
	note C_, 2
	intensity $B7
	octave 2
	note A#, 8
	octave 3
	note C#, 8
	note F_, 10
	note F#, 6
	intensity $B5
	note F_, 2
	note C_, 2
	note F_, 2
	note F#, 4
	note F_, 2
	note D#, 2
	note C_, 2
	octave 2
	note F_, 2
	note A#, 2
	octave 3
	note C_, 2
	note F_, 2
	note F#, 2
	note F_, 2
	note D#, 2
	note F_, 2
	intensity $B7
	note C#, 8
	note C_, 8
	octave 2
	note A#, 10
	intensity $B1
	octave 3
	note D#, 1
	note D#, 1
	intensity $B2
	note D#, 1
	note __, 1
	intensity $B1
	note D#, 1
	intensity $B2
	note D#, 1
	note __, 4
	intensity $82
	octave 2
	note G#, 2
	note __, 1
	note G#, 2
	note __, 3
	note G#, 2
	note __, 1
	note G#, 2
	note __, 3
	note G#, 2
	note B_, 2
	note __, 2
	intensity $84
	note A_, 4
	note __, 2
	intensity $82
	note G#, 2
	note __, 1
	note G#, 2
	note __, 3
	note G#, 2
	note __, 1
	note G#, 2
	note __, 3
	intensity $84
	note B_, 4
	intensity $82
	note G#, 2
	note G#, 2
	intensity $84
	note A_, 4
	intensity $82
	note B_, 2
	octave 3
	note C#, 2
	loopchannel 0, Music_KantoGymBattle_Ch1_loop

Music_KantoGymBattle_Ch2:
	dutycycle 3
	tone $0001
	vibrato $08, $36
	octave 4
	notetype $C, $C2
	note A#, 1
	note G#, 1
	note A#, 1
	octave 5
	note D#, 1
	octave 4
	note A#, 1
	note G#, 1
	note A#, 1
	octave 5
	note D#, 1
	octave 4
	note A#, 1
	note G#, 1
	note A#, 1
	octave 5
	note D#, 1
	octave 4
	note A#, 1
	note G#, 1
	note A#, 1
	octave 5
	note D#, 1
	octave 4
	note A#, 1
	note G#, 1
	note A#, 1
	octave 5
	note D#, 1
	octave 4
	note A#, 1
	note G#, 1
	note A#, 1
	octave 5
	note D#, 1
	octave 4
	note A#, 1
	note G#, 1
	note A#, 1
	octave 5
	note D#, 1
	octave 4
	note A#, 1
	note G#, 1
	note A#, 1
	octave 5
	note D#, 1
Music_KantoGymBattle_Ch2_loop:
	notetype $C, $C2
	octave 3
	note D#, 2
	note D#, 2
	note F#, 1
	note E_, 1
	note D#, 1
	note F#, 1
	note D#, 2
	note D#, 2
	note A#, 1
	note G#, 1
	note F#, 1
	note A#, 1
	note D#, 2
	note D#, 2
	note B_, 1
	note A#, 1
	note G#, 1
	note B_, 1
	note D_, 2
	intensity $C7
	note E_, 2
	intensity $C2
	note D#, 2
	note D#, 2
	note F#, 1
	note E_, 1
	note D#, 1
	note F#, 1
	note D#, 2
	note D#, 2
	note A#, 1
	note G#, 1
	note F#, 1
	note A#, 1
	note D#, 2
	note D#, 2
	note B_, 1
	note A#, 1
	note G#, 1
	note B_, 1
	note G#, 2
	intensity $C7
	note B_, 2
	intensity $C2
	octave 4
	note D#, 2
	note D#, 2
	note F#, 1
	note E_, 1
	note D#, 1
	note F#, 1
	note D#, 2
	note D#, 2
	note A#, 1
	note G#, 1
	note F#, 1
	note A#, 1
	note D#, 2
	note D#, 2
	note B_, 1
	note A#, 1
	note G#, 1
	note B_, 1
	note D_, 2
	intensity $C7
	note E_, 2
	intensity $C2
	note D#, 2
	note D#, 2
	note F#, 1
	note E_, 1
	note D#, 1
	note F#, 1
	note D#, 2
	note D#, 2
	note A#, 1
	note G#, 1
	note F#, 1
	note A#, 1
	note D#, 2
	note D#, 2
	note B_, 1
	note A#, 1
	note G#, 1
	note B_, 1
	note G#, 2
	intensity $C7
	note B_, 2
	note A#, 6
	note G#, 1
	note F#, 1
	note E_, 2
	note D_, 1
	note C_, 1
	octave 3
	note A#, 2
	note G#, 1
	note F#, 1
	note E_, 12
	note G#, 4
	note G_, 8
	note A#, 8
	note B_, 8
	note G#, 8
	note F#, 4
	note G#, 4
	note D_, 2
	note F_, 2
	note G#, 2
	note A_, 2
	intensity $C2
	note A#, 1
	note __, 1
	note A#, 2
	note __, 2
	note A#, 1
	note __, 1
	dutycycle 2
	intensity $D1
	note A#, 2
	intensity $A2
	note A#, 2
	intensity $D1
	note G#, 2
	intensity $A2
	note G#, 2
	intensity $D1
	note A#, 2
	intensity $A2
	note A#, 2
	intensity $C5
	note B_, 2
	octave 4
	note C#, 2
	note C#, 2
	octave 3
	note B_, 4
	note A#, 2
	note G#, 2
	note F#, 2
	note G#, 2
	note A#, 2
	dutycycle 3
	intensity $B0
	note E_, 8
	note G#, 8
	note B_, 10
	note G#, 6
	dutycycle 2
	intensity $D1
	note A#, 2
	intensity $A2
	note A#, 2
	intensity $D1
	note G#, 2
	intensity $A2
	note G#, 2
	intensity $D1
	note A#, 2
	intensity $A2
	note A#, 2
	intensity $C5
	note B_, 2
	octave 4
	note C#, 2
	note C#, 2
	octave 3
	note B_, 4
	note A#, 2
	note G#, 2
	note F#, 2
	note G#, 2
	note A#, 2
	dutycycle 3
	intensity $B0
	note E_, 8
	note G#, 8
	note B_, 10
	octave 4
	note E_, 6
	note D#, 8
	intensity $B7
	note D#, 8
	note __, 6
	intensity $A2
	octave 5
	note E_, 4
	note E_, 4
	note E_, 2
	intensity $A0
	note D#, 8
	intensity $A7
	note D#, 8
	note __, 16
	intensity $C5
	octave 3
	note A#, 4
	note B_, 4
	note G#, 4
	note A#, 4
	note B_, 4
	note G#, 4
	note E_, 4
	intensity $B0
	note D#, 8
	note D#, 16
	intensity $B7
	note D#, 12
	intensity $C5
	note A#, 4
	note B_, 4
	note G#, 4
	note A#, 4
	note B_, 4
	note G#, 4
	note B_, 4
	intensity $B0
	note A#, 8
	intensity $B7
	note A#, 8
	intensity $B0
	octave 4
	note D#, 8
	intensity $B7
	note D#, 8
	intensity $C2
	octave 3
	note C#, 2
	note C#, 2
	intensity $C7
	note F_, 8
	intensity $C2
	octave 4
	note C#, 4
	note F_, 2
	note C#, 4
	intensity $C7
	note G#, 4
	note G_, 2
	note F_, 2
	note D#, 2
	intensity $C2
	octave 3
	note D#, 2
	note D#, 2
	intensity $C7
	note G_, 8
	intensity $C2
	octave 4
	note D#, 4
	note G_, 2
	note D#, 4
	intensity $C7
	note A#, 6
	note D#, 4
	dutycycle 2
	intensity $D1
	note C_, 2
	intensity $A2
	note C_, 2
	intensity $D1
	octave 3
	note A#, 2
	intensity $A2
	note A#, 2
	intensity $D1
	octave 4
	note C_, 2
	intensity $A2
	note C_, 2
	intensity $C5
	note C#, 2
	note D#, 2
	note D#, 2
	note C#, 4
	note C_, 2
	octave 3
	note A#, 2
	note G#, 2
	note A#, 2
	octave 4
	note C_, 2
	dutycycle 3
	intensity $B0
	octave 3
	note F#, 6
	note C#, 1
	note F#, 1
	note A#, 6
	note F#, 1
	note A#, 1
	octave 4
	note C#, 10
	octave 3
	note A#, 6
	dutycycle 2
	intensity $D1
	octave 4
	note C_, 2
	intensity $A2
	note C_, 2
	intensity $D1
	octave 3
	note A#, 2
	intensity $A2
	note A#, 2
	intensity $D1
	octave 4
	note C_, 2
	intensity $A2
	note C_, 2
	intensity $C5
	note C#, 2
	note D#, 2
	note D#, 2
	note C#, 4
	note C_, 2
	octave 3
	note A#, 2
	note G#, 2
	note A#, 2
	octave 4
	note C_, 2
	dutycycle 3
	intensity $B0
	octave 3
	note A#, 8
	note G#, 8
	note F#, 8
	intensity $B2
	octave 4
	note C#, 1
	note C#, 1
	note C#, 1
	note __, 1
	note C#, 2
	octave 3
	note A#, 2
	octave 2
	note G#, 2
	note G#, 2
	note B_, 1
	note A#, 1
	note G#, 1
	note B_, 1
	note G#, 2
	note G#, 2
	octave 3
	note C#, 1
	octave 2
	note B_, 1
	note G#, 1
	octave 3
	note C#, 1
	octave 2
	note G#, 2
	note G#, 2
	octave 3
	note D#, 1
	note C#, 1
	octave 2
	note A#, 1
	octave 3
	note D#, 1
	octave 2
	note G#, 2
	intensity $B7
	octave 3
	note C#, 1
	octave 2
	note A#, 1
	octave 3
	note C#, 1
	note __, 1
	note D_, 1
	note __, 1
	octave 2
	note B_, 1
	note A#, 1
	note G#, 1
	note B_, 1
	note G#, 2
	note G#, 2
	octave 3
	note C#, 1
	octave 2
	note B_, 1
	note G#, 1
	octave 3
	note C#, 1
	octave 2
	note G#, 2
	note G#, 2
	octave 3
	note D#, 1
	note C#, 1
	octave 2
	note A#, 1
	octave 3
	note D#, 1
	note C#, 1
	note __, 1
	octave 2
	note A#, 1
	note __, 1
	note B_, 1
	note __, 1
	note A#, 1
	note __, 1
	octave 3
	note D#, 1
	note __, 1
	note C#, 1
	note __, 1
	loopchannel 0, Music_KantoGymBattle_Ch2_loop

Music_KantoGymBattle_Ch3:
	dutycycle 9
	octave 2
	notetype $C, $19
	note E_, 1
	note __, 1
	note B_, 3
	note __, 1
	note B_, 3
	note __, 1
	note B_, 3
	note __, 1
	note B_, 3
	note __, 1
	note B_, 3
	note __, 1
	note B_, 3
	note __, 1
	note B_, 2
	note G#, 2
	note B_, 2
Music_KantoGymBattle_Ch3_loop:
	notetype $C, $19
	octave 2
	note D#, 1
	note __, 1
	note D#, 1
	note __, 1
	note F#, 4
	note D#, 1
	note __, 1
	note D#, 1
	note __, 1
	note A#, 4
	note D#, 1
	note __, 1
	note D#, 1
	note __, 1
	note B_, 4
	note D_, 1
	note __, 1
	note F_, 2
	note D#, 1
	note __, 1
	note D#, 1
	note __, 1
	note F#, 4
	note D#, 1
	note __, 1
	note D#, 1
	note __, 1
	note A#, 4
	note D#, 1
	note __, 1
	note D#, 1
	note __, 1
	note B_, 4
	note D#, 1
	note __, 1
	note E_, 2
	note D#, 1
	note __, 1
	note D#, 1
	note __, 1
	note F#, 4
	note D#, 1
	note __, 1
	note D#, 1
	note __, 1
	note A#, 4
	note D#, 1
	note __, 1
	note D#, 1
	note __, 1
	note B_, 4
	note D_, 1
	note __, 1
	note F_, 2
	note D#, 1
	note __, 1
	note D#, 1
	note __, 1
	note F#, 4
	note D#, 1
	note __, 1
	note D#, 1
	note __, 1
	note A#, 4
	note D#, 1
	note __, 1
	note D#, 1
	note __, 1
	note B_, 4
	note D#, 1
	note __, 1
	note E_, 2
	note A#, 4
	note __, 2
	note A#, 2
	note __, 2
	note A#, 2
	note __, 2
	note A#, 2
	octave 1
	note A#, 1
	note __, 1
	note A#, 2
	octave 2
	note G#, 1
	note B_, 1
	note A#, 1
	note G#, 1
	octave 1
	note A#, 1
	note __, 1
	note A#, 2
	octave 3
	note C#, 1
	note D#, 1
	octave 2
	note A#, 1
	note G#, 1
	octave 1
	note A#, 1
	note __, 1
	note A#, 1
	note __, 1
	note A#, 1
	note __, 1
	octave 2
	note G#, 1
	note A#, 1
	octave 1
	note A#, 1
	octave 2
	note G#, 1
	note A#, 1
	note G#, 1
	note D_, 1
	octave 1
	note A#, 1
	octave 2
	note G#, 1
	note A#, 1
	octave 1
	note A#, 1
	note __, 1
	note A#, 2
	octave 2
	note G#, 1
	note B_, 1
	note A#, 1
	note G#, 1
	octave 1
	note A#, 1
	note __, 1
	note A#, 2
	octave 3
	note C#, 1
	note D#, 1
	octave 2
	note A#, 1
	note G#, 1
	octave 1
	note A#, 1
	note __, 1
	note A#, 2
	octave 3
	note C#, 1
	note D#, 1
	octave 2
	note A#, 1
	note G#, 1
	octave 1
	note A#, 1
	note __, 1
	note A#, 1
	note __, 1
	note A#, 1
	octave 2
	note D#, 1
	note G#, 1
	note A#, 1
	note G#, 1
	note __, 1
	note A#, 1
	note __, 1
	note F#, 1
	note __, 1
	note E_, 1
	note __, 1
	note D#, 2
	note A#, 2
	note D#, 2
	note A#, 2
	note D#, 2
	note A#, 2
	note D#, 2
	note A#, 2
	note D#, 2
	note A#, 2
	note D#, 2
	note A#, 2
	note D#, 2
	note A#, 2
	note D#, 2
	note A#, 2
	note E_, 2
	note B_, 2
	note E_, 2
	note B_, 2
	note E_, 2
	note B_, 2
	note E_, 2
	note B_, 2
	octave 1
	note B_, 2
	octave 2
	note E_, 2
	octave 1
	note B_, 2
	octave 2
	note E_, 4
	note B_, 2
	octave 3
	note E_, 2
	octave 2
	note B_, 2
	note F#, 2
	octave 3
	note C#, 2
	octave 2
	note F#, 2
	octave 3
	note C#, 2
	octave 2
	note F#, 2
	octave 3
	note C#, 2
	octave 2
	note F#, 2
	octave 3
	note C#, 2
	octave 2
	note F#, 2
	octave 3
	note C#, 2
	octave 2
	note F#, 2
	octave 3
	note C#, 2
	octave 2
	note F#, 2
	octave 3
	note C#, 2
	octave 2
	note F#, 2
	octave 3
	note C#, 2
	octave 2
	note E_, 2
	note B_, 2
	note E_, 2
	note B_, 2
	note E_, 2
	note B_, 2
	note E_, 2
	note B_, 2
	note E_, 2
	note B_, 2
	note E_, 2
	note B_, 2
	note E_, 2
	note B_, 2
	octave 3
	note E_, 2
	octave 2
	note B_, 2
	note D#, 1
	note __, 1
	note D#, 1
	note __, 1
	note A#, 4
	note D#, 1
	note __, 1
	note D#, 1
	note __, 1
	note B_, 4
	note D#, 1
	note __, 1
	note D#, 1
	note __, 1
	note A#, 4
	note D#, 1
	note __, 1
	note E_, 2
	note D#, 1
	note __, 1
	note D#, 1
	note __, 1
	note A#, 4
	note D#, 1
	note __, 1
	note D#, 1
	note __, 1
	note B_, 4
	note D#, 1
	note __, 1
	note D#, 1
	note __, 1
	note A#, 4
	note D#, 1
	note __, 1
	octave 1
	note B_, 2
	octave 2
	note D#, 1
	note __, 1
	note E_, 2
	note D#, 2
	note A#, 2
	note D#, 2
	note A#, 2
	note D#, 2
	note A#, 2
	note D#, 2
	note A#, 2
	note D#, 2
	note A#, 2
	note D#, 2
	note A#, 2
	note D#, 2
	note A#, 2
	octave 3
	note C#, 2
	octave 2
	note A#, 2
	note E_, 2
	note B_, 2
	octave 3
	note E_, 2
	octave 2
	note E_, 2
	note B_, 2
	octave 3
	note E_, 2
	octave 2
	note E_, 2
	note B_, 2
	note E_, 2
	note B_, 2
	note E_, 2
	note B_, 2
	note E_, 2
	note B_, 2
	note E_, 2
	note B_, 2
	note F#, 2
	octave 3
	note C#, 2
	octave 2
	note F#, 2
	octave 3
	note C#, 2
	octave 2
	note F#, 2
	octave 3
	note C#, 2
	octave 2
	note F#, 2
	octave 3
	note C#, 2
	octave 2
	note F#, 2
	octave 3
	note C#, 2
	octave 2
	note F#, 2
	octave 3
	note C#, 2
	octave 2
	note F#, 2
	octave 3
	note C#, 2
	octave 2
	note A#, 2
	octave 3
	note C#, 2
	octave 2
	note E_, 2
	note A#, 2
	octave 3
	note E_, 2
	note F#, 2
	note G#, 2
	note F#, 2
	note E_, 2
	note C#, 2
	octave 2
	note D#, 2
	note A#, 2
	note D#, 2
	note A#, 2
	note D#, 2
	note A#, 2
	note D#, 2
	note A#, 2
	note C#, 2
	note G#, 2
	note C#, 2
	note G#, 2
	note C#, 2
	note G#, 2
	note C#, 2
	note G#, 2
	note C#, 2
	note G#, 2
	note C#, 2
	note G#, 2
	note C#, 2
	note G#, 2
	note C#, 2
	note G#, 2
	note D#, 2
	note A#, 2
	note D#, 2
	note A#, 2
	note D#, 2
	note A#, 2
	note D#, 2
	note A#, 2
	octave 3
	note D#, 2
	octave 2
	note A#, 2
	note D#, 2
	note D_, 2
	note D_, 2
	note A#, 2
	note F#, 2
	note G_, 2
	note G#, 2
	octave 3
	note G#, 2
	octave 2
	note B_, 2
	octave 3
	note D#, 2
	octave 2
	note G#, 2
	octave 3
	note G#, 2
	octave 2
	note B_, 2
	octave 3
	note D#, 2
	octave 2
	note G#, 2
	octave 3
	note G#, 2
	octave 2
	note A#, 2
	octave 3
	note D#, 2
	octave 4
	note C_, 2
	octave 3
	note G#, 2
	octave 4
	note D#, 2
	note C_, 2
	octave 2
	note E_, 2
	note F#, 1
	note __, 1
	note F#, 2
	note C#, 2
	note D_, 4
	note C#, 2
	note D_, 2
	note F#, 2
	note A#, 2
	octave 3
	note C#, 2
	note D#, 2
	note F_, 2
	note G_, 2
	note G#, 2
	note A#, 2
	octave 2
	note G#, 2
	octave 3
	note G#, 2
	octave 2
	note B_, 2
	octave 3
	note D#, 2
	octave 2
	note G#, 2
	octave 3
	note G#, 2
	octave 2
	note B_, 2
	octave 3
	note D#, 2
	octave 2
	note G#, 2
	octave 3
	note G#, 2
	octave 2
	note A#, 2
	octave 3
	note D#, 2
	octave 4
	note C_, 2
	octave 3
	note G#, 2
	octave 4
	note D#, 2
	note C_, 2
	octave 2
	note F#, 4
	note C#, 4
	note F#, 4
	note A#, 4
	octave 3
	note C_, 2
	note C#, 2
	octave 2
	note F#, 2
	note A#, 2
	octave 3
	note C#, 2
	octave 2
	note G#, 2
	octave 3
	note C#, 1
	note __, 1
	note F#, 2
	octave 2
	note G#, 1
	note __, 1
	note G#, 1
	note __, 1
	octave 3
	note C_, 4
	octave 2
	note G#, 1
	note __, 1
	note G#, 1
	note __, 1
	octave 3
	note C#, 4
	octave 2
	note G#, 1
	note __, 1
	note G#, 1
	note __, 1
	octave 3
	note D#, 4
	octave 2
	note G#, 2
	note A_, 2
	note G#, 1
	note __, 1
	note G#, 1
	note __, 1
	octave 3
	note C_, 4
	octave 2
	note G#, 1
	note __, 1
	note G#, 1
	note __, 1
	octave 3
	note C#, 4
	octave 2
	note G#, 1
	note __, 1
	note G#, 1
	note __, 1
	octave 3
	note D#, 4
	octave 2
	note G#, 1
	note __, 1
	note A_, 2
	note G#, 2
	octave 3
	note C#, 2
	octave 2
	note G#, 2
	note B_, 2
	loopchannel 0, Music_KantoGymBattle_Ch3_loop

Music_KantoGymBattle_Ch4:
	togglenoise 2
	notetype $C
	note A#, 2
	note G#, 2
	note F_, 2
	note __, 12
	note G_, 1
	note G_, 1
	note G_, 1
	note G_, 1
	note G_, 1
	note G_, 1
	note G#, 1
	note D_, 1
	note D_, 1
	note D_, 1
	note G#, 1
	note C#, 1
	note C#, 1
	note C#, 1
Music_KantoGymBattle_Ch4_loop:
	notetype $C
	note A#, 2
	note D#, 1
	note G_, 1
	note C#, 1
	note F_, 1
	note __, 1
	note C#, 1
	note F_, 1
	note D#, 1
	note D#, 1
	note __, 1
	note C#, 1
	note F_, 1
	note __, 1
	note C#, 1
	note F_, 1
	note D#, 1
	note D#, 1
	note __, 1
	note C#, 1
	note __, 1
	note G_, 1
	note C#, 1
	note F_, 1
	note D#, 1
	note D#, 1
	note __, 1
	note G#, 2
	note D#, 1
	note G_, 1
	note C#, 1
	note F_, 1
	note __, 1
	note C#, 1
	note F_, 1
	note D#, 1
	note D#, 1
	note __, 1
	note C#, 1
	note F_, 1
	note __, 1
	note C#, 1
	note F_, 1
	note D#, 1
	note D#, 1
	note __, 1
	note C#, 1
	note __, 1
	note G_, 1
	note C#, 1
	note F_, 1
	note D#, 1
	note D#, 1
	note __, 1
	note G#, 2
	note D#, 1
	note G_, 1
	note C#, 1
	note F_, 1
	note __, 1
	note C#, 1
	note F_, 1
	note D#, 1
	note D#, 1
	note __, 1
	note C#, 1
	note F_, 1
	note __, 1
	note C#, 1
	note F_, 1
	note D#, 1
	note D#, 1
	note __, 1
	note C#, 1
	note __, 1
	note G_, 1
	note C#, 1
	note F_, 1
	note D#, 1
	note D#, 1
	note __, 1
	note G#, 2
	note D#, 1
	note G_, 1
	note C#, 1
	note F_, 1
	note __, 1
	note C#, 1
	note F_, 1
	note D#, 1
	note D#, 1
	note __, 1
	note C#, 1
	note F_, 1
	note __, 1
	note C#, 1
	note F_, 1
	note D#, 1
	note D#, 1
	note __, 1
	note C#, 1
	note __, 1
	note G_, 1
	note C#, 1
	note F_, 1
	note C#, 1
	note C#, 1
	note C#, 1
	note A#, 2
	note __, 2
	note F_, 1
	note __, 3
	note F_, 1
	note __, 3
	note C#, 1
	note __, 1
	note F_, 1
	note __, 1
	note G#, 2
	note F_, 1
	note __, 1
	note C#, 1
	note __, 1
	note D#, 1
	note C#, 1
	note __, 1
	note F_, 1
	note G_, 1
	note __, 1
	note C#, 1
	note __, 1
	note G_, 1
	note C#, 1
	note D#, 1
	note G_, 1
	note F_, 1
	note __, 1
	note C#, 1
	note __, 1
	note D#, 1
	note C#, 1
	note __, 1
	note F_, 1
	note G_, 1
	note __, 1
	note C#, 1
	note __, 1
	note G_, 1
	note C#, 1
	note D#, 1
	note G_, 1
	note F_, 1
	note __, 1
	note C#, 1
	note __, 1
	note D#, 1
	note C#, 1
	note __, 1
	note F_, 1
	note G_, 1
	note __, 1
	note C#, 1
	note __, 1
	note G_, 1
	note C#, 1
	note D#, 1
	note G_, 1
	note F_, 1
	note __, 1
	note C#, 1
	note __, 1
	note D#, 1
	note C#, 1
	note __, 1
	note F_, 1
	note G_, 1
	note __, 1
	note C#, 1
	note F_, 1
	note D_, 1
	note F_, 1
	note C#, 1
	note __, 1
	note D#, 1
	note __, 1
	note D_, 1
	note __, 1
	note F_, 1
	note __, 1
	note A#, 2
	note __, 16
	note __, 14
	note G#, 1
	note __, 7
	note G#, 1
	note __, 7
	note G#, 1
	note __, 3
	note G#, 1
	note __, 3
	note G#, 1
	note D#, 1
	note D#, 1
	note D#, 1
	note G#, 1
	note __, 1
	note G#, 1
	note __, 1
	note A#, 2
	note F_, 1
	note __, 1
	note C#, 1
	note __, 1
	note F_, 1
	note __, 1
	note G#, 1
	note __, 1
	note F_, 1
	note __, 1
	note C#, 1
	note __, 1
	note F_, 1
	note __, 1
	note G#, 1
	note __, 1
	note F_, 1
	note __, 1
	note C#, 1
	note __, 1
	note F_, 1
	note __, 1
	note G#, 1
	note __, 1
	note F_, 1
	note __, 1
	note C#, 1
	note __, 1
	note F_, 1
	note __, 1
	note G#, 2
	note D_, 1
	note __, 1
	note C#, 1
	note __, 1
	note G_, 1
	note C#, 1
	note G#, 2
	note D_, 1
	note __, 1
	note C#, 1
	note __, 1
	note G_, 1
	note C#, 1
	note G#, 2
	note G_, 1
	note __, 1
	note C#, 1
	note __, 1
	note G#, 1
	note __, 1
	note D_, 1
	note __, 1
	note G#, 2
	note __, 4
	note A#, 2
	note D#, 1
	note G_, 1
	note C#, 1
	note F_, 1
	note __, 1
	note C#, 1
	note F_, 1
	note D#, 1
	note D#, 1
	note __, 1
	note C#, 1
	note F_, 1
	note __, 1
	note C#, 1
	note F_, 1
	note D#, 1
	note D#, 1
	note __, 1
	note C#, 1
	note __, 1
	note G_, 1
	note C#, 1
	note F_, 1
	note D#, 1
	note D#, 1
	note __, 1
	note G#, 1
	note D#, 1
	note F_, 1
	note C#, 1
	note F_, 1
	note D#, 1
	note __, 1
	note G_, 1
	note C#, 1
	note F_, 1
	note D#, 1
	note C#, 1
	note F_, 1
	note D#, 1
	note D#, 1
	note __, 1
	note C#, 1
	note __, 1
	note F_, 1
	note C#, 1
	note F_, 1
	note D#, 1
	note D#, 1
	note __, 1
	note C#, 1
	note F_, 1
	note G_, 1
	note C#, 1
	note G#, 1
	note D#, 1
	note D#, 1
	note __, 1
	note A#, 2
	note G_, 1
	note __, 1
	note C#, 1
	note __, 1
	note G_, 1
	note __, 1
	note D#, 1
	note __, 1
	note G_, 1
	note __, 1
	note C#, 1
	note __, 1
	note G_, 1
	note __, 1
	note D#, 1
	note __, 1
	note G_, 1
	note __, 1
	note C#, 1
	note __, 1
	note G_, 1
	note __, 1
	note D#, 1
	note __, 1
	note G_, 1
	note __, 1
	note C#, 1
	note __, 1
	note G_, 1
	note __, 1
	note C#, 1
	note __, 1
	note C#, 1
	note __, 1
	note G_, 1
	note __, 1
	note G_, 1
	note F_, 1
	note C#, 1
	note __, 1
	note C#, 1
	note __, 1
	note G_, 1
	note __, 1
	note G_, 1
	note F_, 1
	note C#, 1
	note __, 1
	note C#, 1
	note __, 1
	note D_, 1
	note D_, 1
	note D_, 1
	note F_, 1
	note C#, 1
	note __, 1
	note C#, 1
	note __, 3
	note F_, 1
	note __, 1
	note G#, 2
	note G_, 1
	note __, 1
	note C#, 1
	note __, 1
	note G_, 1
	note __, 1
	note D#, 1
	note __, 1
	note G_, 1
	note __, 1
	note C#, 1
	note __, 1
	note G_, 1
	note __, 1
	note D#, 1
	note __, 1
	note G_, 1
	note __, 1
	note C#, 1
	note __, 1
	note G_, 1
	note __, 1
	note D#, 1
	note __, 1
	note G_, 1
	note __, 1
	note C#, 1
	note __, 1
	note G_, 1
	note __, 1
	note C#, 1
	note __, 1
	note F_, 1
	note __, 1
	note D#, 1
	note __, 1
	note D#, 1
	note __, 1
	note C#, 1
	note __, 1
	note F_, 1
	note __, 1
	note D#, 1
	note __, 1
	note D#, 1
	note C#, 1
	note G#, 1
	note __, 5
	note G#, 1
	note __, 3
	note F#, 1
	note D#, 1
	note D_, 1
	note D#, 1
	note D_, 1
	note __, 1
	note G#, 1
	note __, 1
	note C#, 1
	note __, 1
	note G#, 1
	note __, 3
	note G_, 1
	note F_, 1
	note G_, 1
	note G_, 1
	note G_, 1
	note G_, 1
	note F_, 1
	note G_, 1
	note A#, 1
	note __, 1
	note G#, 1
	note __, 3
	note A#, 1
	note __, 3
	note G#, 1
	note __, 1
	note D_, 1
	note __, 1
	note G#, 1
	note __, 1
	note G#, 1
	note __, 1
	note C#, 1
	note __, 1
	note G#, 1
	note __, 3
	note G_, 1
	note F_, 1
	note G_, 1
	note G_, 1
	note G_, 1
	note G_, 1
	note F_, 1
	note G_, 1
	note A#, 1
	note __, 1
	note G#, 1
	note __, 3
	note A#, 1
	note __, 1
	note G_, 1
	note G_, 1
	note G#, 1
	note __, 1
	note A#, 1
	note __, 1
	note G_, 1
	note G_, 1
	note G#, 1
	note __, 1
	note F_, 1
	note __, 1
	note C#, 1
	note __, 1
	note F_, 1
	note __, 1
	note D#, 1
	note __, 1
	note F_, 1
	note __, 1
	note C#, 1
	note __, 1
	note F_, 1
	note __, 1
	note D#, 1
	note __, 1
	note F_, 1
	note __, 1
	note C#, 1
	note __, 1
	note F_, 1
	note __, 1
	note D#, 1
	note __, 1
	note F_, 1
	note __, 1
	note C#, 1
	note __, 1
	note F_, 1
	note __, 1
	note D_, 1
	note __, 1
	note G_, 1
	note __, 1
	note G_, 1
	note __, 1
	note G_, 1
	note __, 1
	note D_, 1
	note __, 1
	note G_, 1
	note __, 1
	note G_, 1
	note __, 1
	note G_, 1
	note __, 1
	note D_, 1
	note __, 1
	note G_, 1
	note D#, 1
	note G_, 1
	note D#, 1
	note G_, 1
	note __, 1
	note G_, 1
	note __, 1
	note G#, 2
	note D#, 1
	note F_, 1
	note G_, 1
	note __, 1
	note A#, 2
	note D#, 1
	note __, 1
	note G#, 1
	note __, 1
	note F_, 1
	note __, 1
	note D#, 1
	note __, 1
	note F_, 1
	note __, 1
	note G#, 1
	note __, 1
	note F_, 1
	note __, 1
	note D#, 1
	note __, 1
	note F_, 1
	note __, 1
	note G#, 1
	note __, 1
	note F_, 1
	note __, 1
	note D#, 1
	note __, 1
	note F_, 1
	note __, 1
	note G#, 1
	note __, 1
	note F_, 1
	note __, 1
	note G#, 1
	note __, 1
	note C#, 1
	note __, 1
	note D#, 1
	note __, 1
	note D#, 1
	note __, 1
	note G#, 1
	note __, 1
	note C#, 1
	note __, 1
	note D#, 1
	note __, 1
	note D#, 1
	note __, 1
	note G#, 1
	note __, 1
	note C#, 1
	note __, 1
	note D#, 1
	note __, 1
	note D#, 1
	note __, 1
	note G#, 1
	note D#, 1
	note D_, 1
	note D#, 1
	note G#, 1
	note D#, 1
	note D_, 1
	note D#, 1
	note A#, 1
	note __, 1
	note D#, 1
	note G_, 1
	note C#, 1
	note F_, 1
	note __, 1
	note C#, 1
	note F_, 1
	note D#, 1
	note D#, 1
	note __, 1
	note C#, 1
	note F_, 1
	note __, 1
	note C#, 1
	note F_, 1
	note D#, 1
	note D#, 1
	note __, 1
	note C#, 1
	note __, 1
	note G_, 1
	note C#, 1
	note F_, 1
	note D#, 1
	note D#, 1
	note __, 1
	note G#, 1
	note D#, 1
	note F_, 1
	note C#, 1
	note F_, 1
	note D#, 1
	note __, 1
	note G_, 1
	note C#, 1
	note F_, 1
	note D#, 1
	note C#, 1
	note F_, 1
	note D#, 1
	note D#, 1
	note __, 1
	note C#, 1
	note __, 1
	note F_, 1
	note C#, 1
	note F_, 1
	note D#, 1
	note D#, 1
	note __, 1
	note C#, 1
	note F_, 1
	note G_, 1
	note C#, 1
	note G#, 1
	note D#, 1
	note D#, 1
	note __, 1
	note G#, 1
	note D#, 1
	note G_, 1
	note __, 1
	loopchannel 0, Music_KantoGymBattle_Ch4_loop

