Music_KantoWildBattle:
	musicheader 4, 1, Music_KantoWildBattle_Ch1
	musicheader 1, 2, Music_KantoWildBattle_Ch2
	musicheader 1, 3, Music_KantoWildBattle_Ch3
	musicheader 1, 4, Music_KantoWildBattle_Ch4

Music_KantoWildBattle_Ch1:
	tempo $68
	volume $77
	stereopanning $77
	dutycycle 3
	vibrato $06, $34
	octave 4
	notetype $C, $B3
	note D_, 1
	note C#, 1
	note C_, 1
	octave 3
	note B_, 1
	octave 4
	note C_, 1
	octave 3
	note B_, 1
	note A#, 1
	note A_, 1
	note A#, 1
	note A_, 1
	note G#, 1
	note G_, 1
	note G#, 1
	note G_, 1
	note F#, 1
	note F_, 1
	note F#, 1
	note F_, 1
	note E_, 1
	note D#, 1
	note E_, 1
	note D#, 1
	note D_, 1
	note C#, 1
	note D_, 1
	note C#, 1
	note C_, 1
	octave 2
	note B_, 1
	octave 3
	note C_, 1
	note C#, 1
	note D_, 1
	note D#, 1
	callchannel Music_KantoWildBattle_Ch1_br1
	intensity $5F
	note D#, 10
	callchannel Music_KantoWildBattle_Ch1_br1
	intensity $B5
	note D#, 10
Music_KantoWildBattle_Ch1_loop:
	intensity $A2
Music_KantoWildBattle_Ch1_sub1:
	note D#, 1
	note E_, 1
	note D#, 1
	note D_, 1
	loopchannel 2, Music_KantoWildBattle_Ch1_sub1
	note D#, 1
	note E_, 1
	note F_, 1
	note E_, 1
	note D#, 1
	note D_, 1
	note C#, 1
	note D_, 1
Music_KantoWildBattle_Ch1_sub2:
	note D#, 1
	note E_, 1
	note F_, 1
	note E_, 1
	loopchannel 2, Music_KantoWildBattle_Ch1_sub2
	callchannel Music_KantoWildBattle_Ch1_br3
	note F#, 1
	note F_, 1
	note E_, 1
	callchannel Music_KantoWildBattle_Ch1_br3
	callchannel Music_KantoWildBattle_Ch1_br4
	callchannel Music_KantoWildBattle_Ch1_br3
	callchannel Music_KantoWildBattle_Ch1_br5
	note B_, 1
	callchannel Music_KantoWildBattle_Ch1_br6
	note D#, 1
	callchannel Music_KantoWildBattle_Ch1_br6
	callchannel Music_KantoWildBattle_Ch1_br3
	note G#, 1
	note G_, 1
	note F#, 1
	note F_, 1
	callchannel Music_KantoWildBattle_Ch1_br6
	note D#, 1
	callchannel Music_KantoWildBattle_Ch1_br6
	callchannel Music_KantoWildBattle_Ch1_br3
	note G#, 1
	note G_, 1
	note F#, 1
Music_KantoWildBattle_Ch1_sub3:
	callchannel Music_KantoWildBattle_Ch1_br3
	callchannel Music_KantoWildBattle_Ch1_br4
	loopchannel 3, Music_KantoWildBattle_Ch1_sub3
	callchannel Music_KantoWildBattle_Ch1_br3
	callchannel Music_KantoWildBattle_Ch1_br5
	callchannel Music_KantoWildBattle_Ch1_br2
	note F#, 6
	note E_, 6
	note G_, 4
	intensity $B7
	note B_, 12
	octave 4
	note C_, 4
	octave 3
	note A_, 16
	callchannel Music_KantoWildBattle_Ch1_br2
	note A_, 6
	note B_, 6
	octave 4
	note C#, 4
	intensity $B7
	note D_, 16
	intensity $3F
	note A_, 16
	intensity $B5
	octave 3
	note D_, 12
	note D_, 2
	note __, 2
	note E_, 2
	note D_, 2
	note __, 12
	note D#, 12
	note D#, 2
	note __, 2
	note G_, 2
	intensity $A3
	note F_, 6
	intensity $A7
	note D#, 8
	loopchannel 0, Music_KantoWildBattle_Ch1_loop
Music_KantoWildBattle_Ch1_br1:
	intensity $B1
	note A_, 6
	note F#, 6
	note F_, 12
	note D#, 14
	note F#, 6
	note F_, 10
	endchannel
Music_KantoWildBattle_Ch1_br2:
	intensity $B5
	note E_, 4
	note D_, 4
	note E_, 4
	note G_, 4
	endchannel
Music_KantoWildBattle_Ch1_br3:
	note D#, 1
	note E_, 1
	note F_, 1
	note F#, 1
	note G_, 1
	endchannel
Music_KantoWildBattle_Ch1_br4:
	note G#, 1
	note A_, 1
	note A#, 1
	note B_, 1
	note A#, 1
	note A_, 1
	note G#, 1
	note G_, 1
	note F#, 1
	note F_, 1
	note E_, 1
	endchannel
Music_KantoWildBattle_Ch1_br5:
	note G#, 1
	note A_, 1
	note G#, 1
	note G_, 1
	note F#, 1
	note F_, 1
	note F#, 1
	note G_, 1
	note G#, 1
	note A_, 1
	note A#, 1
	endchannel
Music_KantoWildBattle_Ch1_br6:
	note E_, 1
	note F_, 1
	note F#, 1
	note F_, 1
	note E_, 1
	note D#, 1
	note E_, 1
	note F_, 1
	note F#, 1
	note F_, 1
	note E_, 1
	endchannel

Music_KantoWildBattle_Ch2:
	dutycycle 3
	vibrato $08, $25
	notetype $C, $D3
Music_KantoWildBattle_Ch2_sub1:
	octave 4
	note A_, 1
	note G#, 1
	note G_, 1
	octave 5
	note G_, 1
	loopchannel 8, Music_KantoWildBattle_Ch2_sub1
	octave 4
	intensity $D2
	note A_, 6
	octave 3
	callchannel Music_KantoWildBattle_Ch_2_br1
	intensity $A0
	note G#, 10
	intensity $D2
	note A_, 6
	callchannel Music_KantoWildBattle_Ch_2_br1
	intensity $D5
	note A_, 10
Music_KantoWildBattle_Ch2_loop:
	note A_, 6
	note G#, 6
	note F#, 4
	note A_, 6
	note B_, 6
	note A_, 4
	octave 4
	note A#, 12
	note A_, 2
	note __, 2
	note A#, 2
	note A_, 2
	note __, 4
	intensity $D7
	octave 5
	note D#, 8
	intensity $D5
	octave 4
	note D_, 6
	note C_, 6
	octave 3
	note A#, 4
	octave 4
	note D#, 6
	note D_, 6
	note C_, 4
	note G_, 6
	note F#, 6
	note E_, 4
	intensity $D7
	note C_, 4
	note D_, 4
	note E_, 4
	note G_, 4
	intensity $C0
	note A#, 16
	intensity $B0
	note A#, 16
	intensity $4E
	note A_, 16
	intensity $C7
	note A_, 16
	callchannel Music_KantoWildBattle_Ch_2_br2
	note F#, 16
	intensity $C7
	note F#, 16
	callchannel Music_KantoWildBattle_Ch_2_br2
	note A_, 16
	intensity $3F
	octave 5
	note D_, 16
	intensity $D5
	octave 4
	note F#, 12
	note F#, 2
	note __, 2
	note G_, 2
	intensity $C1
	note F#, 4
	note __, 10
	intensity $D5
	note G_, 12
	note G_, 2
	note __, 2
	note A#, 2
	intensity $D3
	note A_, 6
	intensity $D7
	note G_, 8
	intensity $D5
	octave 3
	loopchannel 0, Music_KantoWildBattle_Ch2_loop
Music_KantoWildBattle_Ch_2_br1:
	note A_, 6
	note A_, 12
	note A_, 14
	note A_, 6
	note A_, 10
	endchannel
Music_KantoWildBattle_Ch_2_br2:
	intensity $D7
	octave 3
	note G_, 8
	octave 4
	note C_, 8
	note E_, 8
	note G_, 8
	intensity $C0
	endchannel

Music_KantoWildBattle_Ch3:
	dutycycle 4
	octave 3
	notetype $C, $14
	note D#, 1
	note __, 1
	note D#, 1
	note D_, 1
	note E_, 1
	note __, 1
	note E_, 1
	note D_, 1
	note F_, 1
	note __, 1
	note F_, 1
	note D_, 1
	note F#, 1
	note __, 1
	note F#, 1
	note D_, 1
	note G_, 1
	note __, 1
	note G_, 1
	note D_, 1
	note G#, 1
	note __, 1
	note G#, 1
	note D_, 1
	note A_, 1
	note __, 1
	note A_, 1
	note D_, 1
	note A#, 2
	note A_, 2
	note D_, 2
	note A_, 2
	note D_, 2
	note A_, 2
	note D_, 2
	note A_, 2
	octave 4
	note D_, 2
	octave 3
	note A_, 2
	note D_, 2
	note A_, 2
	octave 4
	note D_, 2
	octave 3
	note A_, 2
	note A#, 2
	octave 4
	note C_, 2
	octave 3
	note G_, 2
	note A_, 2
	note D#, 2
	note A#, 2
	note D#, 2
	octave 4
	note D#, 2
	octave 3
	note D#, 2
	note A#, 2
	note D#, 2
	note A#, 2
	note D#, 2
	note A#, 2
	octave 4
	note D#, 2
	note C_, 2
	note C_, 2
	note D_, 2
	octave 3
	note A#, 2
	octave 4
	note C_, 2
	octave 3
	note D_, 2
	note A_, 2
	note D_, 2
	note A_, 2
	note D_, 2
	note A_, 2
	octave 4
	note D_, 2
	octave 3
	note A_, 2
	note D_, 2
	note A_, 2
	octave 4
	note D_, 2
	octave 3
	note A_, 2
	note A_, 2
	note A#, 2
	note G_, 2
	note A_, 2
	note D#, 2
	note A#, 2
	note D_, 1
	note D#, 1
	note G_, 1
	note A#, 1
	octave 4
	note D#, 2
	note D_, 2
	note C_, 2
	note D_, 2
	octave 3
	note D#, 2
	note A#, 2
	octave 4
	note D_, 2
	note D#, 2
	octave 3
	note D#, 1
	note G_, 1
	note A#, 1
	octave 4
	note C_, 1
	note D#, 2
	note C_, 2
Music_KantoWildBattle_Ch3_loop:
	octave 3
	note D_, 2
	note A_, 2
	note D_, 2
	note A_, 2
	octave 4
	note D_, 2
	octave 3
	note A_, 2
	note G_, 1
	note F#, 1
	note E_, 1
	note D#, 1
	note D_, 2
	note A_, 2
	note D_, 2
	note A_, 2
	note D_, 2
	note A_, 2
	note A#, 2
	note A_, 2
	note D#, 2
	note A#, 2
	note D#, 2
	note A_, 2
	note D#, 2
	note G#, 2
	note D#, 2
	note G_, 2
	note D#, 2
	note F#, 2
	note D#, 2
	note F_, 2
	octave 4
	note C_, 2
	note D_, 2
	octave 3
	note A#, 2
	octave 4
	note C_, 2
	octave 3
	note D_, 4
	note A_, 2
	note D_, 3
	note __, 1
	note D_, 2
	note A_, 2
	note D_, 2
	note D_, 2
	note A_, 2
	note __, 2
	note A_, 2
	note __, 2
	note A_, 2
	note G#, 2
	note A_, 1
	note __, 1
	note D_, 2
	note A_, 2
	note __, 2
	note A_, 2
	note __, 2
	note A_, 2
	note G#, 2
	note A_, 2
	note D_, 4
	octave 4
	note C_, 4
	octave 3
	note C_, 4
	note G_, 3
	notetype $6, $14
	note F_, 1
	note E_, 1
	note D#, 8
	note A#, 4
	note D#, 6
	note __, 2
	note D#, 4
	note A#, 1
	note __, 3
	note C_, 4
	octave 4
	note D#, 4
	octave 3
	note G_, 2
	note __, 2
	note A#, 4
	octave 4
	note D#, 2
	note __, 2
	octave 3
	note D#, 2
	note G_, 2
	note A_, 2
	note A#, 2
	octave 4
	note D#, 4
	note C#, 4
	octave 3
	note A_, 4
	note D_, 4
	note A_, 4
	note D_, 2
	note __, 2
	note D_, 4
	note A_, 2
	note __, 2
	note A_, 4
	note G#, 4
	note D_, 4
	note A_, 4
	note D_, 4
	note A_, 4
	octave 4
	note C#, 2
	note D_, 2
	octave 3
	note A#, 2
	octave 4
	note C_, 2
	octave 3
	note A_, 2
	note G#, 2
	note G_, 2
	note F#, 2
	note C_, 2
	note __, 2
	note C_, 4
	note __, 4
	note C_, 4
	octave 4
	note C_, 4
	octave 3
	note C_, 6
	note __, 2
	note C_, 2
	note __, 2
	note C_, 4
	note __, 4
	note C_, 2
	note __, 2
	note C_, 1
	note __, 1
	note C_, 1
	note __, 1
	octave 4
	note C_, 16
	octave 3
	note A_, 8
	note F#, 2
	note __, 2
	note A_, 2
	note B_, 2
	octave 4
	note D_, 4
	octave 3
	note A_, 4
	note F#, 4
	note A_, 4
	note D_, 4
	note A_, 4
	note __, 4
	note A_, 12
	note __, 4
	note A_, 4
	octave 4
	note C_, 4
	note __, 8
	note C_, 1
	note __, 1
	note C_, 1
	note __, 1
	octave 3
	note G_, 16
	note D_, 4
	octave 4
	note D_, 4
	octave 3
	note D_, 4
	octave 4
	note C_, 4
	octave 3
	note D_, 4
	note B_, 4
	note F#, 4
	note G_, 4
	note D_, 4
	note A_, 4
	note D_, 4
	note G_, 4
	note D_, 4
	note F#, 4
	note G#, 4
	note A_, 4
	octave 4
	note D_, 4
	octave 3
	note A_, 2
	note __, 2
	note F#, 4
	note A_, 2
	note __, 2
	octave 4
	note C_, 2
	note D_, 2
	octave 3
	note A_, 2
	note A#, 2
	note F#, 2
	note F_, 2
	note E_, 2
	note D#, 2
Music_KantoWildBattle_Ch3_sub1:
	note D_, 4
	note A_, 4
	loopchannel 8, Music_KantoWildBattle_Ch3_sub1
Music_KantoWildBattle_Ch3_sub2:
	note D#, 4
	note A#, 4
	loopchannel 8, Music_KantoWildBattle_Ch3_sub2
	notetype $C, $14
	loopchannel 0, Music_KantoWildBattle_Ch3_loop

Music_KantoWildBattle_Ch4:
	notetype $E
	note __, 12
	togglenoise 3
	notetype $C
	note D#, 1
	note D#, 1
	note D_, 2
	note C#, 1
	note C#, 1
	note D_, 2
	note C#, 1
	note C#, 1
	note D_, 2
	note C_, 1
	note C_, 1
	note D#, 2
	note C_, 1
	note C_, 1
Music_KantoWildBattle_Ch4_sub1:
	note D_, 2
	note C#, 1
	note __, 1
	note C#, 1
	note __, 1
	note D_, 2
	note C#, 1
	note __, 1
	note C#, 1
	note __, 1
	note D_, 2
	note C#, 1
	note __, 1
	note D_, 1
	note D_, 1
	note C#, 1
	note __, 1
	note C#, 1
	note __, 1
	note D_, 2
	note D#, 2
	note C_, 2
	note D#, 2
	note C_, 2
	loopchannel 4, Music_KantoWildBattle_Ch4_sub1
Music_KantoWildBattle_Ch4_loop:
Music_KantoWildBattle_Ch4_sub2:
	note B_, 4
	note C_, 2
	note C#, 1
	note C#, 1
	note D_, 2
	note C#, 1
	note C#, 1
	note C_, 2
	note C#, 1
	note C#, 1
	note D_, 2
	note C#, 1
	note C#, 1
	note C_, 2
	note C#, 1
	note C#, 1
	note D_, 2
	note C#, 1
	note C#, 1
	note C_, 2
	note C#, 1
	note C#, 1
	note D_, 2
	note C#, 1
	note C#, 1
	note C_, 2
	note C#, 1
	note C#, 1
	note D_, 2
	note C#, 1
	note C#, 1
	note C_, 2
	note C#, 1
	note C#, 1
	note D_, 2
	note C#, 1
	note C#, 1
	note C_, 2
	note C#, 1
	note C#, 1
	note D_, 2
	note C#, 1
	note C#, 1
	note C_, 2
	note C#, 1
	note C#, 1
	loopchannel 3, Music_KantoWildBattle_Ch4_sub2
Music_KantoWildBattle_Ch4_sub3:
	note D_, 2
	note C#, 1
	note C#, 1
	note E_, 2
	note C_, 1
	note C_, 1
	note D_, 1
	note D#, 1
	note C#, 1
	note C#, 1
	note E_, 2
	note C_, 1
	note C_, 1
	loopchannel 8, Music_KantoWildBattle_Ch4_sub3
	note B_, 4
	note C_, 2
	note C#, 1
	note C#, 1
	note D_, 2
	note C#, 1
	note C#, 1
	note C_, 2
	note C#, 1
	note C#, 1
	note D_, 2
	note C#, 1
	note C#, 1
	note C_, 2
	note C#, 1
	note C#, 1
	note D_, 2
	note C#, 1
	note C#, 1
	note C_, 2
	note C#, 1
	note C#, 1
	note D_, 2
	note C#, 1
	note C#, 1
	note C_, 2
	note C#, 1
	note C#, 1
	note D_, 2
	note C#, 1
	note C#, 1
	note C_, 2
	note C#, 1
	note C#, 1
	note D_, 2
	note C#, 1
	note C#, 1
	note C_, 2
	note C#, 1
	note C#, 1
	note D_, 2
	note C#, 1
	note C#, 1
	note C_, 2
	note C#, 1
	note C#, 1
	loopchannel 0, Music_KantoWildBattle_Ch4_loop
