Music_LilycoveCity:
	channelcount 3
	channel 1, Music_LilycoveCity_Ch1
	channel 2, Music_LilycoveCity_Ch2
	channel 3, Music_LilycoveCity_Ch3

Music_LilycoveCity_Ch1
	tempo $78
	dutycycle $2
	notetype $c, $53
	stereopanning $f
	note __, 3
	octave 3
	note G_, 1
	intensity $a3
	note F#, 1
	note __, 1
	note F_, 1
	note __, 1
	tempo $68
	note F#, 4
	note __, 4
	note G#, 1
	note __, 3
	note G#, 1
	note __, 7
	note A#, 1
	note __, 3
	note A#, 1
	note __, 7
	note G#, 1
	note __, 3
	note G#, 1
	note __, 3
	tempo $78
	note __, 3
	intensity $53
	note G_, 1
	intensity $a3
	note F#, 1
	note __, 1
	note F_, 1
	note __, 1
	note F#, 4
	tempo $68
	note __, 4
	note G#, 1
	note __, 3
	note G#, 1
	note __, 7
	note A#, 1
	note __, 3
	note A#, 1
	note __, 6
	intensity $53
	note A_, 1
	intensity $a3
	note G#, 1
	note __, 1
	note G_, 1
	note __, 1
	note G#, 4
	note __, 3
	intensity $53
	note A_, 1
	intensity $a3
	note G#, 1
	note __, 1
	note G_, 1
	note __, 1
	note G#, 4
	note __, 4
	stereopanning $f0
	intensity $a7
	note E_, 1
	note __, 1
	note D#, 1
	note __, 1
	note E_, 1
	note __, 1
	note B_, 1
	note __, 1
	octave 4
	note E_, 1
	note __, 2
	stereopanning $f
	intensity $53
	octave 3
	note G#, 1
	intensity $a3
	note G_, 1
	note __, 1
	note F#, 1
	note __, 1
	note G_, 4
	note __, 4
	stereopanning $f0
	intensity $a7
	note E_, 1
	note __, 1
	note D#, 1
	note __, 1
	note E_, 1
	note __, 1
	note B_, 1
	note __, 1
	octave 4
	note D#, 1
	note __, 2
	stereopanning $f
	intensity $53
	octave 3
	note G_, 1
	intensity $a3
	note F#, 1
	note __, 1
	note F_, 1
	note __, 1
	note F#, 4
	stereopanning $f0
	intensity $a7
	octave 4
	note A#, 2
	note F#, 1
	note __, 1
	note F#, 1
	note __, 1
	note E_, 1
	note __, 1
	note D#, 1
	note __, 1
	note C#, 1
	note __, 5
	octave 3
	note G#, 2
	octave 4
	note C_, 2
	note D#, 2
	note G#, 2
	octave 5
	note C_, 2
	octave 4
	note G#, 2
	note E_, 1
	note F#, 1
	note E_, 1
	note D#, 1
	note C_, 2
	note C#, 2
	note __, 8
	note G#, 2
	note G_, 2
	note A_, 1
	note G#, 7
	note F#, 2
	note E_, 2
	note __, 8
	note G_, 2
	note F#, 2
	note G#, 1
	note G_, 1
	note E_, 2
	note D#, 1
	note E_, 1
	note D#, 1
	note C#, 1
	note __, 7
; Pat 5 Row 3
	stereopanning $f
	intensity $53
	octave 3
	note G_, 1
	intensity $a3
	note F#, 1
	note __, 1
	note F_, 1
	note __, 1
	note F#, 4
	note __, 4
	note F#, 1
	note __, 3
	note F#, 1
	note __, 6
	intensity $53
	note B_, 1
	intensity $a3
	note A#, 1
	note __, 1
	note A_, 1
	note __, 1
	note A#, 4
	note __, 4
	note G#, 1
	note __, 3
	note G#, 1
	note __, 6
	intensity $53
	note G_, 1
	intensity $a3
	note F#, 1
	note __, 1
	note F_, 1
	note __, 1
	note F#, 4
	note __, 4
	note F#, 1
	note __, 3
	note F#, 1
	note __, 7
	octave 4
	note C_, 1
	note __, 1
	octave 3
	note B_, 1
	note __, 1
	octave 4
	note C_, 1
	note __, 1
	note D#, 1
	note __, 5
	octave 3
	note G#, 1
	note __, 3
	note G#, 1
	note __, 3
	tempo $7e
	dutycycle $3
	intensity $c7
	note E_, 4
	note F#, 4
	tempo $7a
	note G#, 4
	tempo $6f
	note G#, 4
	note A#, 4
	note B_, 2
	octave 4
	note C_, 2
	tempo $68
	note C#, 2
	note D#, 2
	note E_, 2
	note __, 4
	note F_, 1
	note E_, 1
	note D#, 2
	note E_, 2
	note C#, 2
	note D#, 2
	octave 3
	note B_, 1
	octave 4
	note C#, 1
	octave 3
	note B_, 1
	note A#, 1
	stereopanning $f0
	dutycycle $2
	intensity $a3
	note D#, 2
	note B_, 2
	octave 4
	note D#, 1
	note __, 1
	note D#, 1
	note __, 1
	note D#, 1
	note D_, 1
	note D#, 2
	octave 3
	note F#, 2
	note D#, 2
	octave 4
	note F#, 1
	note __, 1
	note F#, 1
	note __, 1
	note F#, 1
	note F_, 1
	note F#, 2
	note C_, 2
	note __, 2
	note D#, 2
	note __, 2
	octave 3
	note G#, 2
	note __, 2
	note B_, 2
	note __, 2
	note G#, 2
	note __, 2
	note E_, 2
	note D#, 2
	stereopanning $f
	dutycycle $3
	intensity $c7
	note E_, 4
	note F#, 4
	note G#, 4
	note G#, 4
	note A#, 4
	note B_, 2
	octave 4
	note C_, 2
	note C#, 2
	note D#, 2
	note E_, 2
	note __, 4
	note D#, 2
	note E_, 2
	note __, 2
	stereopanning $ff
	dutycycle $0
	intensity $a7
	note F_, 1
	note __, 3
	note F_, 1
	note __, 6
	stereopanning $f0
	dutycycle $3
	intensity $c7
	octave 3
	note C_, 1
	octave 2
	note B_, 2
	note A#, 1
	note __, 1
	note B_, 1
	note __, 1
	octave 3
	note D#, 1
	note __, 1
	note G#, 2
	note __, 2
	note F#, 8
	note __, 3
	octave 2
	note B_, 1
	note A#, 2
	note A_, 1
	note __, 1
	note A#, 1
	note __, 1
	octave 3
	note D#, 1
	note __, 1
	note F#, 2
	note __, 2
	note E_, 8
	note __, 3
	octave 2
	note A_, 1
	note G#, 2
	note G_, 1
	note __, 1
	note G#, 1
	note __, 1
	octave 3
	note C#, 1
	note __, 1
	note E_, 2
	note F#, 2
	note E_, 2
	note D#, 2
	note C#, 2
	note C#, 1
	note D_, 1
	tempo $6d
	note D#, 8
	tempo $6f
	note __, 4
	tempo $81
	note F#, 4
	note E_, 1
	note D#, 1
	note E_, 1
	note F#, 1
	note F_, 1
	note F#, 1
	note G#, 1
	note A#, 1
	tempo $68
	note B_, 12
	octave 4
	note C#, 2
	note D#, 2
	note E_, 4
	note C#, 2
	note B_, 2
	note A#, 4
	note G#, 2
	note F#, 2
	note G#, 2
	note A#, 2
	note D#, 4
	note C_, 1
	note D_, 1
	note C_, 2
	octave 3
	note G#, 2
	octave 4
	note G_, 2
	note G#, 10
	note E_, 2
	note C#, 1
	note D#, 1
	note C#, 2
	octave 3
	note B_, 2
	note __, 2
	octave 4
	note C#, 2
	note E_, 2
	tempo $6a
	note G_, 4
	note E_, 1
	note G_, 1
	note E_, 2
	note D_, 4
	tempo $81
	note C_, 4
	tempo $8d
	octave 3
	note B_, 4
	note A_, 2
	note G_, 2
	loopchannel 0, Music_LilycoveCity_Ch1

Music_LilycoveCity_Ch2:
	dutycycle $1
Music_LilycoveCity_L1
	notetype $c, $18
	octave 4
	note F#, 5
	intensity $28
	note F#, 3
	intensity $38
	note F#, 5
	intensity $48
	note F#, 3
	intensity $58
	note F#, 5
	intensity $68
	note F#, 3
	intensity $78
	note F#, 2
	intensity $88
	note F#, 2
	intensity $98
	note F#, 4
	intensity $a8
	note F#, 4
	intensity $98
	note F#, 2
	intensity $88
	note F#, 2
	intensity $78
	note F#, 2
	note E_, 2
	intensity $68
	note D#, 2
	intensity $58
	note E_, 2
	note F#, 1
	intensity $48
	note F#, 5
	intensity $38
	note F#, 6
	intensity $48
	note F#, 4
	intensity $58
	note F#, 5
	intensity $68
	note F#, 3
	intensity $78
	note F#, 2
	intensity $88
	note F#, 3
	intensity $98
	note F#, 4
	intensity $a8
	note F#, 3
	intensity $b7
	note D#, 2
	note E_, 2
	note F#, 2
	note E_, 2
	setcondition 0
	callchannel Music_LilycoveCity_P1
	note A#, 8
	octave 4
	note C#, 1
	note D#, 1
	note E_, 1
	note F_, 1
	note F#, 8
	note E_, 1
	note __, 1
	note F#, 2
	intensity $78
	note D#, 2
	intensity $88
	note D#, 1
	intensity $98
	note D#, 3
	intensity $a8
	note D#, 1
	intensity $b8
	note D#, 5
	intensity $b7
	note D#, 4
	note F#, 1
	note __, 1
	note E_, 2
	setcondition 1
	callchannel Music_LilycoveCity_P1
	note A#, 4
	note __, 8
	note F#, 4
	note G#, 4
	note A#, 2
	octave 4
	note C#, 2
	note D#, 16
	note __, 8
	dutycycle $2
	intensity $b3
	note D#, 2
	note __, 2
	note E_, 2
	note __, 2
	note F#, 2
	note __, 2
	octave 5
	note C#, 2
	note __, 2
	octave 4
	note A#, 2
	note __, 2
	note G#, 2
	note __, 2
	note F#, 2
	note __, 2
	note G#, 2
	note __, 2
	note D#, 2
	note __, 2
	note F#, 2
	note __, 2
	note E_, 2
	note D#, 2
	note E_, 2
	note __, 2
	dutycycle $1
	callchannel Music_LilycoveCity_P2
	octave 4
	note B_, 2
	note A#, 2
	note B_, 2
	note G#, 2
	note A#, 2
	note F#, 1
	note G#, 1
	note F#, 1
	note E_, 1
	stereopanning $ff
	intensity $97
	note D#, 2
	octave 3
	note B_, 2
	octave 4
	note E_, 2
	octave 3
	note B_, 2
	octave 4
	note F#, 2
	note D#, 2
	octave 5
	note C#, 2
	note __, 2
	octave 4
	note A#, 2
	note G#, 2
	note F#, 2
	note D#, 2
	note F#, 2
	note C_, 2
	note G#, 2
	note C_, 2
	note D#, 2
	note C_, 2
	note F#, 2
	octave 3
	note G#, 2
	octave 4
	note E_, 2
	note D#, 2
	note E_, 2
	octave 3
	note G#, 2
	callchannel Music_LilycoveCity_P2
	note D#, 2
	note E_, 2
	note __, 2
	stereopanning $ff
	dutycycle $0
	intensity $a7
	octave 4
	note F#, 1
	note __, 3
	note F#, 1
	note __, 1
	dutycycle $1
	intensity $b7
	note F_, 1
	note F#, 1
	note G#, 10
	octave 3
	note B_, 2
	note A#, 10
	octave 4
	note G#, 2
	note F#, 10
	octave 3
	note A#, 2
	note B_, 12
	octave 4
	note E_, 10
	octave 3
	note B_, 2
	note A#, 1
	note B_, 1
	note A#, 2
	note G#, 4
	octave 4
	note C#, 2
	note G#, 2
	note F#, 8
	note __, 4
	octave 3
	note A_, 1
	note G#, 1
	note A_, 1
	note B_, 1
	octave 4
	note C#, 1
	octave 3
	note B_, 1
	octave 4
	note C#, 1
	note D#, 1
	note E_, 1
	note D#, 1
	note E_, 1
	note F#, 1
	note G#, 12
	note A#, 2
	note B_, 2
	octave 5
	note C#, 4
	octave 4
	note G#, 2
	octave 5
	note G#, 2
	note F#, 4
	note E_, 2
	note D#, 2
	note E_, 2
	note F#, 2
	note C_, 4
	octave 4
	note A_, 1
	note B_, 1
	note A_, 2
	note G#, 2
	octave 5
	note D#, 2
	note E_, 10
	octave 4
	note B_, 2
	note A#, 1
	note B_, 1
	note A#, 2
	note G#, 2
	note __, 2
	note A#, 2
	note __, 2
	note B_, 12
	note __, 4
	note A_, 4
	note E_, 4
	loopchannel 0, Music_LilycoveCity_L1

Music_LilycoveCity_Ch3:
	notetype $c, $11
Music_LilycoveCity_L2:
	callchannel Music_LilycoveCity_P3
	note __, 3
	note F#, 1
	note __, 3
	callchannel Music_LilycoveCity_P3
	note __, 1
	note F_, 1
	note __, 1
	note F#, 4
	note E_, 4
	note B_, 1
	note __, 1
	note A#, 1
	note __, 1
	note B_, 2
	note __, 2
	octave 2
	note B_, 4
	octave 3
	note B_, 1
	note __, 3
	note B_, 1
	note __, 3
	callchannel Music_LilycoveCity_P4
	note D#, 4
	octave 4
	note C#, 1
	note __, 1
	note C_, 1
	note __, 1
	note C#, 4
	octave 2
	note A#, 4
	octave 4
	note C#, 1
	note __, 3
	note C#, 1
	note __, 3
	octave 3
	note G#, 4
	octave 4
	note D#, 1
	note __, 1
	note D_, 1
	note __, 1
	note D#, 4
	octave 3
	note D#, 4
	octave 4
	note D#, 1
	note __, 3
	note D#, 1
	note __, 3
	octave 3
	callchannel Music_LilycoveCity_P4
	note E_, 4
	note B_, 1
	note __, 3
	note B_, 1
	note __, 3
	octave 2
	note B_, 4
	octave 3
	note B_, 1
	note __, 3
	note B_, 1
	note __, 3
	note D#, 4
	octave 4
	note C#, 1
	note __, 3
	note C#, 1
	note __, 3
	octave 2
	note A#, 4
	octave 4
	note C#, 1
	note __, 3
	note C#, 1
	note __, 3
	octave 2
	note B_, 4
	octave 3
	note F#, 1
	note __, 3
	note F#, 1
	note __, 3
	octave 2
	note B_, 4
	octave 3
	note F_, 1
	note __, 3
	note F_, 1
	note __, 3
	setcondition 0
	callchannel Music_LilycoveCity_P5
	setcondition 1
	callchannel Music_LilycoveCity_P5
	intensity $14
	setcondition 0
	callchannel Music_LilycoveCity_P6
	note F#, 1
	note __, 1
	note F_, 2
	note F#, 2
	octave 4
	note D#, 2
	octave 1
	note B_, 4
	octave 3
	note F#, 1
	note __, 3
	note F#, 1
	note __, 3
	octave 2
	note C_, 4
	octave 3
	note F#, 1
	note __, 1
	note F_, 2
	note F#, 2
	octave 4
	note D#, 2
	setcondition 1
	callchannel Music_LilycoveCity_P6
	note G_, 1
	note __, 1
	note F#, 2
	note G_, 2
	octave 4
	note C_, 2
	octave 2
	note C_, 4
	octave 3
	note G_, 1
	note __, 3
	note G_, 1
	note __, 3
	octave 2
	note C_, 4
	intensity $11
	note E_, 2
	note G_, 2
	octave 3
	note C_, 2
	octave 2
	note A_, 2
	loopchannel 0, Music_LilycoveCity_L2

Music_LilycoveCity_P1:
	octave 3
	note A#, 1
	note __, 1
	note B_, 2
	octave 4
	note D#, 5
	intensity $67
	note G_, 1
	intensity $b7
	note F#, 2
	note C#, 2
	intensity $67
	note C_, 1
	octave 3
	note B_, 1
	note __, 8
	intensity $b7
	jumpif 1, .part2
	note A#, 1
	note __, 1
	jumpchannel .part3
.part2
	note A#, 2
.part3
	note B_, 2
	octave 4
	note D#, 5
	intensity $67
	note G_, 1
	intensity $b7
	note F#, 2
	note C#, 2
	intensity $67
	note C_, 1
	octave 3
	note B_, 1
	note __, 8
	intensity $b7
	jumpif 1, .part4
	note B_, 1
	note __, 1
	jumpchannel .part5
.part4
	note B_, 2
.part5
	octave 4
	note C#, 2
	octave 3
	endchannel

Music_LilycoveCity_P2:
	stereopanning $f0
	intensity $c7
	note C#, 4
	note D#, 4
	note E_, 4
	note F_, 4
	note F#, 4
	note G#, 2
	note A_, 2
	note A#, 2
	note B_, 2
	octave 5
	note C#, 2
	note __, 4
	endchannel

Music_LilycoveCity_P3:
	octave 2
	note B_, 4
	octave 3
	note F#, 1
	note __, 1
	note F_, 1
	note __, 1
	note F#, 4
	octave 2
	note F#, 4
	octave 3
	note F#, 1
	note __, 3
	note F#, 1
	note __, 3
	octave 2
	note B_, 4
	octave 3
	note F#, 1
	note __, 3
	note F#, 1
	note __, 3
	octave 2
	note F#, 4
	octave 3
	note F#, 1
	endchannel

Music_LilycoveCity_P4:
	note E_, 4
	note B_, 1
	note __, 1
	note A#, 1
	note __, 1
	note B_, 4
	octave 2
	note B_, 4
	octave 3
	note B_, 1
	note __, 3
	note B_, 1
	note __, 3
	endchannel

Music_LilycoveCity_P5:
	octave 2
	note B_, 4
	octave 3
	note F#, 1
	note __, 3
	note F#, 1
	note __, 3
	note D#, 4
	note A#, 1
	note __, 3
	note A#, 1
	note __, 3
	note G#, 4
	octave 4
	note D#, 1
	jumpif 1, .part2
	note __, 1
	note D_, 1
	note __, 1
	note D#, 1
	note __, 1
	note F#, 1
	note __, 1
	octave 3
	note C#, 4
	note B_, 1
	note __, 3
	note B_, 1
	note __, 3
	jumpchannel .part3
.part2
	note __, 3
	note D#, 1
	note __, 3
	octave 3
	note C#, 4
	note B_, 1
	note __, 3
	note B_, 1
	note __, 3
.part3
	note C#, 4
	note G#, 1
	note __, 3
	note G#, 1
	note __, 3
	note C#, 4
	note G#, 1
	note __, 3
	note G#, 1
	note __, 3
	note F#, 4
	octave 4
	note C#, 1
	note __, 3
	note C#, 1
	note __, 3
	octave 3
	note F#, 4
	octave 4
	note C#, 1
	note __, 3
	note C#, 1
	note __, 3
	endchannel

Music_LilycoveCity_P6:
	octave 2
	note E_, 4
	octave 3
	note B_, 1
	note __, 3
	note B_, 1
	note __, 3
	octave 2
	note E_, 4
	octave 3
	note A#, 1
	note __, 1
	note A_, 2
	note A#, 2
	octave 4
	note D#, 2
	octave 2
	note D#, 4
	octave 3
	note A#, 1
	note __, 3
	note A#, 1
	note __, 3
	octave 2
	note D#, 4
	octave 3
	note A_, 1
	note __, 1
	note G#, 2
	note A_, 2
	octave 4
	jumpif 1, .part2
	note E_, 2
	jumpchannel .part3
.part2
	note C_, 2
.part3
	octave 2
	note C#, 4
	octave 3
	note G#, 1
	note __, 3
	note G#, 1
	note __, 3
	octave 2
	note C#, 4
	octave 3
	endchannel
