Music_LookGladion:
	musicheader 4, 1, Music_LookGladion_Ch1
	musicheader 1, 2, Music_LookGladion_Ch2
	musicheader 1, 3, Music_LookGladion_Ch3
	musicheader 1, 4, Music_LookGladion_Ch4

Music_LookGladion_Ch1:
	tempo 254
	volume $77
	dutycycle 2
	notetype $3, $b0
	note __, 12
	note __, 12
	octave 3
	note B_, 1
	soundinput $6c
	intensity $b4
	note B_, 11
Music_LookGladion_Ch1_loop_1:
	soundinput $00
	dutycycle 1
	vibrato $12, $15
	tone $0001
	notetype $6, $92
	octave 3
	note B_, 3
	note A_, 3
	note B_, 3
	note A_, 3
	note B_, 2
	note __, 2
	loopchannel 3, Music_LookGladion_Ch1_loop_1
	octave 4
	note G#, 3
	note F#, 3
	note E_, 3
	note D_, 3
	note E_, 1
	note D_, 1
	note __, 2
	note D_, 3
	note C#, 3
	note E_, 3
	note D_, 3
	note C#, 1
	note D_, 1
	note __, 2
	note D_, 3
	note C#, 3
	note E_, 3
	note D_, 3
	note E_, 1
	note F#, 1
	note __, 2
	note E_, 3
	note D_, 3
	note C#, 3
	octave 3
	note B_, 3
	note A#, 2
	note __, 2
	octave 4
	note F#, 3
	note E_, 3
	note D_, 3
	note C#, 3
	octave 3
	note A#, 2
;Music_LookGladion_Ch1_marker_1:
	octave 3
	intensity $77
	note E_, 4
	note D_, 2
	note __, 4
	note D_, 2
	note C#, 2
	note E_, 4
	note D_, 4
	note __, 4
	note D_, 2
	note __, 2
	note C#, 1
	note D_, 1
	note E_, 1
	note F#, 1
	note G_, 1
	note G#, 1
	note A_, 1
	note B_, 1
	note A_, 6
	note F#, 2
	note E_, 2
	intensity $72
	note F#, 1
	note G#, 2
	note G#, 2
	note F#, 1
	note G#, 4
	intensity $77
	note E_, 2
	note D_, 2
	octave 2
	note B_, 12
	octave 3
	note D_, 1
	note E_, 1
	note F#, 1
	note G#, 1
	note B_, 1
	octave 4
	note C#, 1
	note D_, 1
	note C#, 1
	octave 3
	note B_, 1
	note A_, 1
	note G#, 1
	note F#, 1
	note E_, 1
	note D_, 1
	note C#, 1
	octave 2
	note B_, 1
	octave 3
	note E_, 1
	note D_, 1
	note C#, 1
	octave 2
	note B_, 1
	note G#, 1
	note B_, 1
	octave 3
	note D_, 1
	note E_, 1
	note F#, 1
	note G#, 1
	note A_, 1
	note B_, 1
	note D_, 1
	note E_, 1
	note F#, 1
	note G#, 1
	note A_, 1
	note B_, 1
	octave 4
	note C#, 1
	note D_, 1
	octave 3
	note B_, 2
	note A#, 2
	note __, 14
	dutycycle 0
	intensity $95
	note B_, 3
	note B_, 1
	note __, 1
	note B_, 1
	note B_, 2
	note B_, 2
	note B_, 2
	note __, 2
	note B_, 2
	note A#, 3
	note A#, 3
	note A#, 2
	note __, 2
	note A#, 2
	note A#, 2
	note A#, 2
	note A_, 3
	note A_, 1
	note __, 1
	note A_, 1
	note A_, 2
	note A_, 2
	note A_, 2
	note __, 2
	note A_, 2
	note G#, 3
	note G#, 3
	note G#, 2
	note __, 2
	note G#, 2
	note G#, 2
	note G#, 2
	note G_, 3
	note G_, 3
	note G_, 2
	note __, 2
	note G_, 3
	note G_, 2
	note G_, 1
	note A_, 2
	note G_, 1
	note A_, 1
	note __, 1
	note B_, 1
	note __, 1
	octave 4
	note C#, 1
	note __, 2
	octave 3
	note A_, 2
	note __, 1
	note A_, 2
	note A_, 1
	note A_, 2
	note G_, 1
	note A_, 1
	note __, 1
	note B_, 1
	note __, 1
	octave 4
	note C#, 1
	note __, 2
	octave 3
	note A_, 2
	note __, 1
	note A_, 2
	note G_, 1
	note A_, 2
	note A_, 1
	intensity $93
	note B_, 2
	note A_, 2
	note B_, 2
	note A_, 2
	note B_, 3
	note A_, 2
;Music_LookGladion_Ch1_marker_3:
	dutycycle 2
	intensity $70
	octave 4
	note G_, 8
	note F#, 8
	note E_, 8
	note A_, 8
	note F#, 8
	octave 3
	note B_, 16
	note __, 8
	octave 4
	note G_, 8
	note F#, 8
	note E_, 8
	note A_, 8
	note B_, 8
	note E_, 8
	note F#, 16
	octave 4
	note G_, 8
	note F#, 8
	note E_, 8
	note A_, 8
	note F#, 8
	octave 3
	note B_, 8
	dutycycle 0
	intensity $b0
	octave 2
	note B_, 1
	note __, 1
	note G#, 1
	note __, 1
	note A_, 1
	note __, 1
	note B_, 1
	note __, 9
	dutycycle 2
	intensity $70
	octave 4
	note G_, 8
	note F#, 8
	note E_, 8
	note A_, 8
	note B_, 8
	note E_, 8
	note F#, 8
	octave 3
	note B_, 16
	note __, 8
	loopchannel 0, Music_LookGladion_Ch1

Music_LookGladion_Ch2:
	notetype $6, $e3
	note __, 16
Music_LookGladion_Ch2_loop_main:
	notetype $6, $e3
	dutycycle 0
	tone $0001
	vibrato $1, $31
	note __, 4
	octave 2
	note B_, 4
	octave 3
	note C#, 2
	note D_, 4
	note E_, 4
	note E_, 2
	note D_, 4
	note C#, 2
	note D_, 4
	note C_, 1
	vibrato $1, $61
	intensity $e0
	note C#, 2
	intensity $e7
	note C#, 9
	vibrato $1, $31
	intensity $e3
	note D_, 2
	note C#, 2
	octave 2
	note B_, 2
	note __, 8
	octave 5
	intensity $b3
	vibrato $5, $21
	tone $0000
	note G#, 2
	note E_, 2
	octave 4
	tone $0002
	note E_, 2
	note G#, 2
	tone $0001
	note __, 4
	vibrato $1, $41
	intensity $e3
	octave 2
	note B_, 4
	octave 3
	note C#, 2
	note D_, 4
	note E_, 4
	note D_, 1
	note E_, 1
	note D_, 4
	note C#, 2
	octave 2
	note B_, 2
	note G#, 2
	note B_, 2
	note __, 4
	note F#, 6
	note F#, 6
	notetype $c, $e7
	vibrato $2, $91
	note F#, 3
	note F#, 1
	tone $0000
;Music_LookGladion_Ch2_marker_1:
	dutycycle 2
	vibrato $8, $15
	intensity $c7
	octave 4
	note D_, 3
	note C#, 1
	octave 3
	note F#, 5
	octave 4
	note D_, 1
	note C#, 1
	octave 3
	note F#, 6
	octave 4
	note D_, 1
	note C#, 1
	note E_, 6
	note D_, 1
	note C#, 1
	octave 3
	note B_, 6
	note A_, 1
	note A#, 1
	note B_, 6
	note B_, 1
	octave 4
	note F#, 1
	note E_, 3
	note D_, 2
	note C#, 2
	note D_, 2
	note F#, 6
	note F#, 2
	note E_, 2
	note __, 4
;Music_LookGladion_Ch2_marker_2:
	dutycycle 1
	note E_, 2
	intensity $e2
	note D_, 1
	note C#, 2
	octave 3
	notetype $3, $e5
	note F#, 12
	octave 4
	note D_, 4
	note C#, 4
	octave 3
	note F#, 16
	note F#, 4
	note E_, 4
	note D_, 4
	note E_, 4
	note F#, 12
	note B_, 2
	octave 4
	note C#, 1
	octave 3
	note B_, 1
	intensity $e2
	note F#, 4
	note E_, 4
	note D_, 4
	octave 2
	note B_, 4
	octave 3
	intensity $e5
	note E_, 6
	note F#, 1
	note E_, 1
	note D_, 8
	note C#, 8
	note D_, 4
	octave 2
	note B_, 13
	octave 3
	note E_, 1
	note F#, 1
	note G#, 1
	note B_, 8
	note B_, 4
	octave 4
	note D_, 4
	note C#, 10
	note D_, 1
	note C#, 1
	octave 3
	note B_, 8
	note A_, 8
	note F#, 8
	notetype $c, $e7
	octave 4
	note C#, 5
	intensity $e2
	note C#, 2
	intensity $e7
	octave 3
	note B_, 9
;Music_LookGladion_Ch2_marker_3:
	dutycycle 0
	tone $0001
	vibrato $1, $31
	callchannel Music_LookGladion_Ch2_branch_1
	octave 2
	intensity $e7
	note F#, 15
	intensity $67
	note A_, 1
	note __, 1
	note B_, 1
	note __, 1
	note B_, 1
	note F#, 2
	note F_, 2
	note E_, 2
	notetype $c, $e5
	octave 3
	note F#, 1
	note G_, 1
	note A_, 1
	note G_, 2
	note F#, 2
	note D_, 1
	note F#, 3
	note E_, 2
	intensity $e3
	note D_, 2
	note E_, 1
	intensity $e0
	note F#, 6
	intensity $e7
	note F#, 10
	callchannel Music_LookGladion_Ch2_branch_1
	octave 2
	notetype $c, $e7
	note F#, 9
	octave 3
	note D_, 1
	note C#, 1
	octave 2
	note A_, 1
	note F#, 1
	note B_, 5
	note B_, 1
	octave 3
	note F#, 3
	notetype $4, $e7
	note E_, 1
	note F#, 1
	note E_, 1
	notetype $c, $e3
	note D_, 2
	note C#, 1
	octave 2
	note A_, 2
	note F#, 1
	intensity $e7
	octave 3
	note C#, 5
	note C#, 1
	note __, 1
	note D_, 1
	note __, 8
	note E_, 5
	note E_, 1
	note __, 1
	note D_, 1
	note __, 8
	loopchannel 0, Music_LookGladion_Ch2_loop_main
	
Music_LookGladion_Ch2_branch_1:
	notetype $6, $e5
	note F#, 2
	note G_, 2
	note A_, 2
	note G_, 4
	note F#, 4
	note D_, 2
	note F#, 6
	note E_, 4
	intensity $e3
	note D_, 4
	note E_, 2
	note D_, 2
	note C#, 2
	note __, 2
	endchannel

Music_LookGladion_Ch3:
	notetype $6, $14
	note __, 16
Music_LookGladion_Ch3_loop_main:
	notetype $6, $14
	octave 2
	callchannel Music_LookGladion_Ch3_branch_1
	note G#, 1
	note A_, 1
	callchannel Music_LookGladion_Ch3_branch_1
	note B_, 1
	note F#, 1
	note G#, 1
	note __, 1
	note F#, 1
	note G#, 1
	note __, 1
	note F#, 1
	note G#, 1
	note __, 1
	note F#, 1
	note G#, 1
	note G#, 1
	note __, 1
	note G#, 1
	note __, 1
	note E_, 1
	note F#, 1
	note G#, 1
	note __, 1
	note G#, 1
	note __, 1
	note G#, 1
	note __, 1
	note G#, 1
	note __, 1
	note F#, 1
	note G#, 1
	note G#, 1
	note __, 1
	note G#, 1
	note __, 1
	note G#, 1
	note D_, 1
	callchannel Music_LookGladion_Ch3_branch_2
	note C#, 1
	note D_, 1
	callchannel Music_LookGladion_Ch3_branch_2
	note D_, 1
	note E_, 1
	note F#, 1
	note __, 1
	note E_, 1
	note F#, 1
	note __, 1
	note E_, 1
	note F#, 1
	note __, 1
	note E_, 1
	note F#, 1
	note F#, 1
	note __, 1
	note F#, 1
	note __, 1
	note D_, 1
	note E_, 1
	note F#, 1
	note __, 1
	note E_, 1
	note F#, 1
	note __, 1
	note E_, 1
	note F#, 1
	note __, 1
	note E_, 1
	note F#, 1
	note F#, 1
	note __, 1
	note E_, 1
	note F#, 1
	note F#, 1
	note __, 1
;Music_LookGladion_Ch3_marker_1:
	note B_, 1
	note __, 1
	note A_, 1
	note B_, 1
	note __, 1
	octave 3
	note F#, 1
	note B_, 2
	note __, 8
	octave 2
	note A#, 1
	note __, 1
	note G#, 1
	note A#, 1
	note __, 1
	octave 3
	note E_, 1
	note A#, 2
	note __, 6
	note C#, 1
	note D_, 1
	note E_, 1
	note F#, 1
	note G_, 1
	note G#, 1
	note A_, 1
	note B_, 1
	note A_, 4
	note F#, 2
	note D_, 2
	octave 2
	note B_, 2
	note G#, 1
	note __, 1
	note F#, 1
	note G#, 1
	note __, 1
	octave 3
	note D_, 1
	note G#, 2
	note __, 8
	octave 2
	note E_, 2
	note __, 1
	note E_, 2
	note __, 1
	note E_, 2
	note __, 8
	note G#, 1
	note __, 1
	note F#, 1
	note G#, 1
	note __, 1
	octave 3
	note D_, 1
	note E_, 2
	note __, 4
	octave 1
	note F#, 4
	notetype $3, $14
	octave 2
	note B_, 2
	octave 3
	note C#, 1
	note __, 1
	note C#, 1
	note __, 1
	note C#, 1
	note __, 1
	note C#, 2
	note __, 2
	octave 2
	note B_, 2
	octave 3
	note C#, 1
	note __, 1
	note C#, 1
	note __, 1
	note C#, 1
	note __, 1
	note C#, 2
	note __, 2
	octave 2
	note B_, 2
	octave 3
	note C#, 1
	note __, 1
	note C#, 2
	notetype $6, $14
	octave 2
	note __, 1
	note A#, 2
	note __, 14
;Music_LookGladion_Ch3_marker_2:
	octave 2
	note B_, 3
	octave 3
	note B_, 1
	note __, 1
	octave 2
	note F#, 1
	note F#, 1
	note __, 1
	note F#, 1
	note __, 1
	note F#, 2
	octave 3
	note F#, 2
	note B_, 2
	octave 2
	note A#, 3
	octave 3
	note A#, 1
	note __, 1
	octave 2
	note F#, 1
	note F#, 1
	note __, 1
	note F#, 1
	note __, 1
	note F#, 2
	note D_, 1
	note E_, 1
	note F#, 2
	note A_, 3
	octave 3
	note A_, 1
	note __, 1
	note A_, 1
	octave 2
	note A_, 2
	octave 3
	note A_, 2
	note F#, 2
	note D_, 2
	note F#, 2
	octave 2
	note G#, 3
	octave 3
	note G#, 1
	note __, 1
	octave 2
	note E_, 1
	note E_, 1
	note __, 1
	note E_, 1
	note __, 1
	octave 3
	note E_, 2
	octave 2
	note E_, 2
	octave 3
	note G#, 2
	notetype $3, $14
	octave 2
	note G_, 4
	note G_, 1
	note __, 1
	octave 1
	note G_, 1
	note __, 1
	note G_, 1
	note __, 1
	note G_, 1
	note __, 1
	octave 2
	note G_, 1
	note __, 1
	octave 3
	note B_, 2
	octave 2
	note B_, 4
	octave 3
	note B_, 4
	octave 2
	note G_, 2
	octave 3
	note G_, 2
	note B_, 4
	octave 2
	note A_, 4
	octave 1
	note A_, 1
	note __, 1
	note A_, 1
	note __, 1
	note A_, 1
	note __, 1
	note A_, 1
	note __, 1
	note A_, 1
	note __, 1
	octave 4
	note C#, 2
	octave 2
	note A_, 2
	note __, 2
	octave 4
	note C#, 2
	note __, 4
	octave 3
	note A_, 2
	note __, 2
	note A_, 1
	note __, 1
	notetype $6, $14
	note A_, 1
	octave 2
	note A_, 1
	octave 3
	note G_, 1
	note A_, 1
	octave 2
	note A_, 1
	octave 3
	note B_, 1
	octave 2
	note A_, 1
	octave 4
	note C#, 1
	octave 2
	note A_, 1
	octave 3
	note G_, 1
	note A_, 1
	note B_, 1
	octave 2
	note A_, 1
	octave 3
	note A_, 1
	note B_, 1
	octave 4
	note C#, 1
	octave 3
	note A_, 1
	octave 2
	note A_, 1
	octave 3
	note A_, 1
	note B_, 1
	octave 2
	note B_, 1
	octave 3
	note A_, 1
	octave 2
	note A_, 1
	octave 3
	note B_, 1
	octave 2
	note B_, 1
	octave 3
	note A_, 1
	octave 2
	note A_, 1
	octave 3
	note B_, 1
	octave 2
	note B_, 1
	octave 3
	note C#, 1
	note A_, 2
;Music_LookGladion_Ch3_marker_3:
	notetype $3, $14
Music_LookGladion_Ch3_loop_1:
	callchannel Music_LookGladion_Ch3_branch_3
	octave 3
	note A_, 2
	note B_, 2
	octave 2
	note B_, 2
	octave 3
	note B_, 2
	octave 2
	note B_, 2
	note __, 2
	octave 3
	note A_, 2
	note B_, 2
	note __, 2
	octave 2
	note B_, 1
	note __, 1
	note B_, 2
	note __, 2
	note B_, 4
	octave 3
	note A_, 2
	note B_, 2
	octave 3
	note A_, 2
	note B_, 2
	octave 2
	note B_, 2
	octave 3
	note B_, 2
	note __, 2
	note A_, 2
	note __, 2
	note B_, 2
	note __, 2
	note B_, 2
	note F#, 4
	note F_, 4
	note E_, 4
	loopchannel 2, Music_LookGladion_Ch3_loop_1
	callchannel Music_LookGladion_Ch3_branch_3
	octave 3
	note A_, 2
	note B_, 2
	octave 2
	note B_, 2
	octave 3
	note B_, 2
	octave 2
	note B_, 2
	octave 3
	note A_, 2
	note __, 2
	note B_, 2
	octave 2
	note B_, 3
	note __, 1
	note G#, 3
	note __, 1
	note A_, 3
	note __, 1
	note B_, 3
	note __, 1
	note B_, 3
	note __, 1
	note G#, 3
	note __, 1
	note A_, 3
	note __, 1
	note B_, 3
	note __, 1
	intensity $24
	note E_, 3
	note __, 1
	note E_, 3
	note __, 1
	note E_, 3
	note __, 1
	note E_, 3
	note __, 1
	notetype $3, $14
	note B_, 2
	note __, 2
	note B_, 4
	note __, 4
	note B_, 4
	octave 3
	note D_, 16
	note C#, 16
	octave 2
	note A_, 16
	note B_, 11
	note __, 1
	note B_, 1
	note __, 1
	note B_, 1
	note __, 1
	octave 3
	note F#, 4
	note A_, 4
	note __, 4
	note B_, 4
	note __, 4
	note F_, 4
	note F#, 8
	octave 2
	note B_, 2
	octave 3
	note C#, 2
	octave 2
	note A_, 8
	note F#, 2
	note A_, 2
	note B_, 11
	note __, 1
	note B_, 1
	note __, 1
	note B_, 1
	note __, 1
	octave 3
	note F#, 4
	note A_, 4
	note __, 4
	note B_, 4
	note __, 4
	note F#, 4
	note A_, 4
	note B_, 4
	note __, 4
	note F#, 4
	note F_, 4
	note D_, 4
	loopchannel 0, Music_LookGladion_Ch3_loop_main
	
Music_LookGladion_Ch3_branch_1:
	note B_, 1
	note __, 1
	note A_, 1
	note B_, 1
	note __, 1
	note A_, 1
	note B_, 1
	note __, 1
	note A_, 1
	note B_, 1
	note B_, 1
	note __, 1
	note B_, 1
	note __, 1
	endchannel
	
Music_LookGladion_Ch3_branch_2:
	note E_, 1
	note __, 1
	note D_, 1
	note E_, 1
	note __, 1
	note D_, 1
	note E_, 1
	note __, 1
	note D_, 1
	note E_, 1
	note E_, 1
	note __, 1
	note E_, 1
	note __, 1
	endchannel
	
Music_LookGladion_Ch3_branch_3:
	octave 2
	note E_, 2
	note __, 2
	note E_, 2
	octave 3
	note E_, 2
	octave 2
	note E_, 2
	octave 3
	note E_, 2
	octave 2
	note E_, 2
	note __, 2
	note G_, 4
	octave 3
	note G_, 2
	note __, 2
	octave 2
	note G#, 4
	octave 3
	note G#, 2
	note __, 2
	octave 2
	note A_, 4
	octave 3
	note A_, 4
	octave 2
	note A_, 2
	octave 3
	note A_, 2
	octave 2
	note A_, 2
	note __, 2
	note A_, 1
	note __, 1
	note A_, 1
	note __, 1
	note A_, 1
	note __, 1
	note A_, 1
	note __, 1
	note A_, 4
	octave 3
	note A_, 2
	octave 4
	note C_, 2
	endchannel

Music_LookGladion_Ch4:
	togglenoise $3
	notetype $6
Music_LookGladion_Ch4_loop_main:
	note G_, 2
	note F#, 1
	note C_, 1
	note F#, 2
	note D#, 2
	note F#, 1
	note D#, 1
	note D#, 1
	note F#, 1
	note C_, 1
	note D_, 1
	note D#, 2
Music_LookGladion_Ch4_loop_1:
	note D#, 2
	note G#, 1
	note D#, 1
	note G#, 2
	note D#, 2
	note G#, 1
	note G#, 1
	note D#, 2
	note C_, 2
	note G#, 1
	note G#, 1
	loopchannel 8, Music_LookGladion_Ch4_loop_1
;Music_LookGladion_Ch4_marker_1:
	callchannel Music_LookGladion_Ch4_branch_1
	callchannel Music_LookGladion_Ch4_branch_1
	callchannel Music_LookGladion_Ch4_branch_2
	note G#, 1
	note C_, 1
	note G#, 1
	note G#, 1
	note C_, 2
	note G#, 1
	note C_, 3
	note G#, 2
	note C_, 2
	note G#, 2
	callchannel Music_LookGladion_Ch4_branch_2
	callchannel Music_LookGladion_Ch4_branch_1
	callchannel Music_LookGladion_Ch4_branch_2
	note B_, 16
Music_LookGladion_Ch4_loop_2:
	note D#, 2
	note G#, 1
	note G#, 1
	note C_, 1
	note G#, 1
	note D#, 1
	note G#, 1
	note D#, 1
	note C_, 1
	note D#, 1
	note G#, 1
	note C_, 1
	note G#, 1
	note D#, 1
	note G#, 1
	loopchannel 7, Music_LookGladion_Ch4_loop_2
	note D#, 2
	note C_, 1
	note D#, 1
	note D#, 1
	note C_, 1
	note G#, 1
	note C_, 1
	note G#, 1
	note C_, 1
	note G#, 1
	note C_, 1
	note D#, 1
	note D#, 1
	note C_, 1
	note G#, 1
Music_LookGladion_Ch4_loop_3:
	callchannel Music_LookGladion_Ch4_branch_3
	note D_, 1
	note G#, 1
	note E_, 1
	note C_, 1
	note G#, 1
	note G#, 1
	note C_, 1
	note G#, 1
	note D_, 1
	note E_, 1
	note G#, 1
	note E_, 1
	note G#, 1
	note C_, 1
	note G#, 1
	note C_, 1
	note D_, 1
	note G#, 1
	note E_, 1
	note G#, 1
	note G#, 1
	note C_, 1
	note G#, 1
	note C_, 1
	note G#, 1
	note G#, 1
	note D#, 1
	note G#, 1
	note B_, 2
	note D_, 1
	note D_, 1
	loopchannel 2, Music_LookGladion_Ch4_loop_3
	callchannel Music_LookGladion_Ch4_branch_3
	note D_, 1
	note G#, 1
	note E_, 1
	note C_, 1
	note G#, 1
	note G#, 1
	note C_, 1
	note G#, 1
	note D_, 1
	note E_, 1
	note G#, 1
	note E_, 1
	note G#, 1
	note C_, 1
	note G#, 1
	note G#, 1
	note C_, 2
	note D#, 2
	note D#, 2
	note C_, 2
	note D#, 2
	note D#, 2
	note C_, 2
	note D#, 2
	note D#, 6
	note D#, 2
	note C_, 8
	note D#, 6
	note D#, 2
	note C_, 8
	note D#, 6
	note D#, 2
	note C_, 8
	note D#, 6
	note D#, 2
	note C_, 8
	note D#, 6
	note D#, 2
	note C_, 8
	loopchannel 0, Music_LookGladion_Ch4_loop_main
	endchannel

Music_LookGladion_Ch4_branch_1:
	note G#, 2
	note G#, 1
	note C_, 1
	note G#, 2
	note G#, 2
	note G#, 2
	note G#, 2
	note C_, 1
	note G#, 2
	note G#, 1
	endchannel
	
Music_LookGladion_Ch4_branch_2:
	note G#, 2
	note G#, 1
	note C_, 1
	note G#, 2
	note G#, 2
	note G#, 1
	note C_, 1
	note G#, 2
	note C_, 1
	note G#, 2
	note G#, 1
	endchannel
	
Music_LookGladion_Ch4_branch_3:
	note B_, 2
	note G#, 1
	note G#, 1
	note C_, 1
	note G#, 1
	note G#, 1
	note G#, 1
	note D#, 1
	note G#, 1
	note D#, 1
	note G#, 1
	note C_, 1
	note G#, 1
	note D#, 1
	note G#, 1
	note D_, 1
	note G#, 1
	note G#, 1
	note G#, 1
	note C_, 1
	note G#, 1
	note G#, 1
	note G#, 1
	note D#, 1
	note G#, 1
	note D#, 1
	note G#, 1
	note C_, 1
	note G#, 1
	note D#, 1
	note G#, 1
	endchannel