Music_Looker:
	musicheader 4, 1, Music_Looker_Ch1
	musicheader 1, 2, Music_Looker_Ch2
	musicheader 1, 3, Music_Looker_Ch3
	musicheader 1, 4, Music_Looker_Ch4

Music_Looker_Ch1:
	tempo $80
	volume $77
	stereopanning $f
	dutycycle 1
	tone $0001
	octave 3
	notetype $C, $B2
	note E_, 1
	note E_, 1
	note __, 1
	note F#, 1
	note F#, 1
	note __, 1
	note G_, 1
	note G_, 1
	note __, 2
	intensity $5D
	note G_, 5
	note __, 1
Music_Looker_Ch1_loop:
	notetype $C, $A8
	tone $0001
	octave 3
	note D_, 3
	intensity $A5
	note D_, 7
	note E_, 4
	note F_, 2
	intensity $A8
	octave 2
	note A_, 4
	intensity $A5
	note A_, 6
	note G#, 4
	note A_, 2
	intensity $A8
	note A#, 4
	intensity $A5
	note A#, 6
	octave 3
	note C_, 4
	note D_, 2
	intensity $A8
	note F#, 4
	intensity $A5
	note F#, 6
	note F_, 4
	note D_, 2
	intensity $A8
	note C#, 4
	intensity $A5
	note C#, 6
	octave 2
	note A_, 4
	octave 3
	note D_, 2
	note C#, 6
	note E_, 4
	octave 2
	note A#, 4
	note A_, 2
	intensity $A8
	octave 3
	note D_, 2
	intensity $A5
	note D_, 6
	note E_, 3
	note F_, 3
	intensity $47
	note D_, 2
	dutycycle 0
	intensity $C1
	octave 4
	note A_, 1
	intensity $C2
	note A_, 1
	note __, 1
	dutycycle 1
	intensity $91
	octave 2
	note A_, 1
	intensity $92
	note A_, 1
	note __, 1
	dutycycle 0
	intensity $C1
	octave 4
	note A_, 1
	intensity $C2
	note A_, 1
	note __, 1
	dutycycle 1
	intensity $91
	octave 2
	note A_, 1
	intensity $92
	note A_, 1
	note __, 1
	dutycycle 0
	intensity $C1
	octave 4
	note A#, 1
	intensity $C3
	note A#, 3
	dutycycle 1
	intensity $A5
	octave 3
	note D_, 6
	octave 2
	note A_, 4
	octave 3
	note D#, 4
	note D_, 2
	note C_, 6
	octave 2
	note F#, 4
	octave 3
	note D#, 4
	note D_, 2
	octave 2
	note A#, 6
	note G_, 4
	octave 3
	note D_, 6
	octave 2
	note B_, 6
	note G#, 4
	octave 3
	note D_, 4
	note E_, 2
	intensity $B1
	note F_, 1
	intensity $B2
	note F_, 1
	note __, 4
	intensity $B1
	note D_, 1
	intensity $B2
	note D_, 1
	note __, 2
	intensity $B1
	note G_, 1
	note G_, 1
	note G#, 1
	intensity $B2
	note A_, 1
	intensity $B1
	octave 2
	note A_, 1
	intensity $B2
	note A_, 1
	intensity $B1
	octave 3
	note E_, 1
	intensity $B2
	note E_, 1
	note __, 4
	intensity $B1
	note C#, 1
	intensity $B2
	note C#, 1
	note __, 2
	intensity $B1
	note G_, 1
	note G_, 1
	note G#, 1
	intensity $B2
	note A_, 1
	intensity $B1
	octave 2
	note A_, 1
	intensity $B2
	note A_, 1
	octave 3
	note F_, 1
	note E_, 1
	note __, 1
	note D_, 3
	intensity $B3
	octave 2
	note A_, 4
	note A_, 2
	intensity $B2
	octave 3
	note D_, 2
	note E_, 2
	note F_, 1
	note E_, 1
	note __, 1
	note D_, 3
	intensity $B3
	octave 2
	note A_, 4
	note A_, 2
	intensity $B2
	octave 3
	note D_, 2
	note E_, 2
	intensity $92
	note F_, 1
	note E_, 1
	note __, 1
	note D_, 3
	intensity $93
	octave 2
	note A_, 4
	note A_, 2
	intensity $92
	octave 3
	note D_, 2
	note E_, 2
	note F_, 1
	note E_, 1
	note __, 1
	note D_, 3
	intensity $93
	octave 2
	note A_, 4
	note A_, 2
	intensity $92
	octave 3
	note D_, 2
	note E_, 2
	intensity $B2
	note F_, 1
	note E_, 1
	note __, 1
	note D_, 3
	intensity $B3
	octave 2
	note A_, 4
	note A_, 2
	intensity $B2
	octave 3
	note D_, 2
	note E_, 2
	note F_, 1
	note E_, 1
	note __, 1
	note D_, 3
	intensity $B3
	octave 2
	note A_, 4
	note A_, 2
	intensity $B2
	octave 3
	note D_, 2
	note E_, 2
	note F_, 1
	note E_, 1
	note __, 1
	note D_, 3
	intensity $B3
	octave 2
	note A_, 4
	note A_, 2
	intensity $B2
	octave 3
	note D_, 2
	note E_, 2
	note E_, 1
	note E_, 1
	note __, 1
	note F#, 1
	note F#, 1
	note __, 1
	note G_, 1
	note G_, 1
	note __, 2
	intensity $4D
	note G_, 5
	note __, 1
	loopchannel 0, Music_Looker_Ch1_loop

Music_Looker_Ch2:
	stereopanning $f
	vibrato $01, $22
	octave 4
	notetype $C, $D1
	note A_, 1
	intensity $D2
	note A_, 1
	note __, 1
	intensity $D1
	note B_, 1
	intensity $D2
	note B_, 1
	note __, 1
	intensity $D1
	octave 5
	note C_, 1
	intensity $D2
	note C_, 1
	note __, 2
	intensity $9E
	vibrato $00, $22
	note C#, 4
	intensity $D5
	note C#, 2
Music_Looker_Ch2_loop:
	tone $00
	dutycycle 1
	intensity $C8
	vibrato $00, $13
	octave 3
	note A_, 4
	intensity $C5
	note A_, 6
	note F_, 4
	note G_, 2
	note A_, 6
	octave 4
	note D_, 4
	note E_, 4
	note D_, 2
	intensity $C8
	note C_, 4
	intensity $C5
	note C_, 6
	octave 3
	note A#, 4
	octave 4
	note C_, 2
	intensity $C8
	note D_, 6
	intensity $C3
	note D_, 6
	note __, 4
	intensity $C8
	note E_, 4
	intensity $C5
	note E_, 6
	note C#, 4
	note D_, 2
	note E_, 6
	note A#, 4
	note A_, 4
	intensity $C2
	note G_, 2
	intensity $C5
	note F_, 8
	note E_, 3
	note F_, 3
	intensity $C8
	octave 3
	note A_, 6
	intensity $C3
	note A_, 4
	note __, 4
	intensity $C2
	note F_, 1
	note F_, 1
	note G_, 1
	note G#, 1
	intensity $C8
	note A_, 4
	intensity $C5
	note A_, 6
	note F#, 4
	note G_, 2
	note A_, 6
	octave 4
	note C_, 4
	note D#, 4
	intensity $C2
	note D_, 2
	intensity $C8
	note C_, 4
	intensity $C5
	note C_, 6
	octave 3
	note A#, 4
	octave 4
	note C_, 2
	note D_, 6
	note E_, 4
	note F_, 4
	intensity $C2
	note G_, 2
	intensity $C1
	note A_, 1
	intensity $C2
	note A_, 1
	note __, 2
	note D_, 2
	intensity $C3
	note E_, 4
	intensity $6D
	note F_, 5
	intensity $82
	note F_, 1
	intensity $C1
	note E_, 1
	intensity $C2
	note E_, 1
	note __, 2
	octave 3
	note B_, 2
	intensity $C3
	octave 4
	note C#, 4
	note D_, 4
	note F_, 2
	intensity $C8
	note E_, 8
	intensity $C5
	note E_, 6
	note __, 2
	intensity $C8
	note D_, 8
	intensity $C5
	note D_, 6
	note __, 2
	tone $0002
	intensity $C3
	octave 2
	note A#, 2
	octave 3
	note F_, 2
	note F_, 2
	note E_, 1
	note F_, 2
	note __, 1
	note F_, 4
	note G_, 2
	note __, 2
	note A_, 2
	note A_, 2
	note G_, 1
	note A#, 2
	note __, 1
	note G_, 4
	note A#, 2
	tone $0000
	intensity $A8
	note D_, 2
	dutycycle 0
	intensity $D3
	vibrato $00, $00
	octave 5
	note D_, 1
	note __, 1
	note D_, 2
	note C_, 1
	note D_, 2
	note __, 1
	note C_, 4
	intensity $7B
	note D_, 2
	dutycycle 1
	intensity $A8
	octave 3
	note D_, 2
	dutycycle 0
	intensity $D3
	octave 5
	note D_, 1
	note __, 1
	note D_, 2
	note C_, 1
	note D_, 2
	note __, 1
	note F_, 4
	intensity $7B
	note D_, 2
	dutycycle 1
	intensity $C2
	octave 4
	note F_, 1
	note E_, 1
	note D_, 1
	octave 3
	note A#, 1
	intensity $92
	note G_, 1
	note A#, 1
	octave 4
	note D_, 1
	note F_, 1
	intensity $B2
	note A_, 1
	octave 5
	note C_, 1
	note D_, 1
	note C_, 1
	intensity $A2
	octave 4
	note A_, 1
	note F_, 1
	note D_, 1
	octave 3
	note A#, 1
	dutycycle 0
	intensity $D1
	vibrato $00, $22
	note A_, 1
	intensity $D2
	note A_, 1
	note __, 1
	intensity $D1
	note B_, 1
	intensity $D2
	note B_, 1
	note __, 1
	intensity $D1
	octave 4
	note C_, 1
	intensity $D2
	note C_, 1
	note __, 2
	intensity $9E
	vibrato $00, $22
	note C#, 4
	intensity $D5
	note C#, 2
	loopchannel 0, Music_Looker_Ch2_loop

Music_Looker_Ch3:
	dutycycle 6
	octave 2
	notetype $C, $16
	note A_, 1
	note A_, 1
	note __, 1
	note G#, 1
	note G#, 1
	note __, 1
	note G_, 1
	note G_, 2
	octave 3
	note A_, 1
	octave 2
	note A_, 1
	note __, 1
	note A_, 1
	note A_, 1
	note __, 1
	note A_, 1
Music_Looker_Ch3_loop:
	notetype $C, $16
	octave 3
	note D_, 2
	note __, 2
	note A_, 1
	note __, 2
	note D_, 2
	note __, 1
	note D_, 2
	note A_, 2
	note D_, 2
	note D_, 2
	note __, 2
	note A_, 1
	note __, 2
	note D_, 2
	note __, 1
	note D_, 2
	note A_, 2
	note D_, 1
	note A_, 1
	octave 2
	note G_, 2
	note __, 2
	octave 3
	note D_, 1
	note __, 2
	octave 2
	note G_, 2
	note __, 1
	note G_, 2
	octave 3
	note D_, 2
	octave 2
	note G_, 2
	note G_, 2
	note __, 2
	octave 3
	note D_, 1
	note __, 2
	octave 2
	note G_, 2
	note __, 1
	note G_, 2
	octave 3
	note D_, 2
	octave 2
	note G_, 1
	octave 3
	note D_, 1
	octave 2
	note A_, 2
	note __, 2
	octave 3
	note E_, 1
	note __, 2
	octave 2
	note A_, 2
	note __, 1
	note A_, 2
	octave 3
	note E_, 2
	octave 2
	note A_, 2
	note A_, 2
	note __, 2
	octave 3
	note E_, 1
	note __, 2
	octave 2
	note A_, 2
	note __, 1
	note A_, 2
	octave 3
	note E_, 2
	octave 2
	note A_, 1
	octave 3
	note E_, 1
	note D_, 2
	note __, 2
	note A_, 1
	note __, 2
	note D_, 2
	note __, 1
	note D_, 2
	note A_, 2
	note D_, 2
	note A_, 1
	note A_, 1
	note __, 4
	note A_, 1
	note A_, 1
	note __, 4
	octave 2
	note A_, 1
	note A_, 1
	octave 3
	note A_, 1
	octave 2
	note A_, 1
	octave 3
	note D_, 2
	note __, 2
	note A_, 1
	note __, 2
	note D_, 2
	note __, 1
	note D_, 2
	note A_, 2
	note D_, 2
	note F#, 2
	note __, 2
	octave 4
	note D_, 1
	note __, 2
	octave 3
	note F#, 2
	note __, 1
	note D_, 2
	note A_, 2
	note D_, 1
	note A_, 1
	note G_, 2
	note __, 1
	note G_, 1
	octave 4
	note D_, 1
	note D_, 1
	note __, 1
	octave 3
	note G_, 2
	note __, 1
	note G_, 2
	octave 4
	note D_, 2
	octave 3
	note G_, 2
	note G#, 2
	note __, 1
	note E_, 1
	octave 4
	note D_, 1
	note D_, 1
	note __, 1
	octave 3
	note E_, 2
	note __, 1
	note G#, 2
	octave 4
	note D_, 2
	octave 3
	note G#, 2
	note A_, 1
	note A_, 1
	note __, 4
	octave 2
	note A_, 1
	note A_, 1
	note __, 2
	octave 3
	note A_, 1
	note A_, 1
	note __, 4
	note G#, 1
	note G#, 1
	note __, 4
	octave 2
	note A_, 1
	note A_, 1
	note __, 2
	octave 3
	note A_, 1
	note A_, 1
	note __, 4
	note D_, 2
	note __, 1
	note D_, 1
	note A_, 1
	note A_, 1
	note __, 1
	note D_, 2
	note __, 1
	note D_, 2
	note A_, 2
	note D_, 2
	note C_, 2
	note __, 1
	note C_, 1
	note A_, 1
	note A_, 1
	note __, 1
	note C_, 2
	note __, 1
	note C_, 2
	note A_, 2
	note C_, 2
	octave 2
	note A#, 2
	note __, 1
	note A#, 1
	octave 3
	note A_, 1
	octave 2
	note A#, 2
	note __, 3
	note A#, 2
	octave 3
	note A_, 1
	octave 2
	note A#, 1
	octave 3
	note C_, 1
	octave 2
	note A#, 1
	note A_, 2
	note __, 1
	note A_, 1
	octave 3
	note A_, 2
	note __, 1
	octave 2
	note A_, 2
	note __, 1
	note A_, 2
	octave 3
	note A_, 1
	octave 2
	note A_, 1
	octave 3
	note C_, 2
	note D_, 2
	note __, 1
	note D_, 1
	note A_, 1
	note A_, 1
	note __, 1
	note D_, 2
	note __, 1
	note D_, 2
	note A_, 2
	note D_, 2
	note C_, 2
	note __, 1
	note C_, 1
	note A_, 1
	note A_, 1
	note __, 1
	note C_, 2
	note __, 1
	note C_, 2
	note A_, 2
	note C_, 2
	octave 2
	note A#, 2
	note __, 1
	note A#, 1
	octave 3
	note A_, 1
	octave 2
	note A#, 2
	note __, 3
	note A#, 2
	octave 3
	note A_, 1
	octave 2
	note A#, 1
	octave 3
	note C_, 1
	octave 2
	note A#, 1
	note A_, 1
	note A_, 1
	note __, 1
	note G#, 1
	note G#, 1
	note __, 1
	note G_, 1
	note G_, 2
	octave 3
	note A_, 1
	octave 2
	note A_, 1
	note __, 1
	note A_, 1
	note A_, 1
	note __, 1
	note A_, 1
	loopchannel 0, Music_Looker_Ch3_loop

Music_Looker_Ch4:
	togglenoise 1
	notetype $C
	note C_, 2
	note C_, 4
	note D_, 1
	note D_, 1
	note C_, 1
	note C_, 1
	note C_, 1
	note C_, 1
	note A_, 1
	note A_, 1
	note A_, 1
	note A_, 1
Music_Looker_Ch4_loop:
	notetype $C
	note C_, 3
	note C_, 1
	note D_, 2
	note C_, 4
	note C_, 2
	note D_, 2
	note C_, 2
	note C_, 3
	note C_, 1
	note D_, 2
	note C_, 4
	note C_, 2
	note D_, 2
	note C_, 1
	note D_, 1
	note C_, 3
	note C_, 1
	note D_, 2
	note C_, 4
	note C_, 2
	note D_, 2
	note C_, 2
	note C_, 3
	note C_, 1
	note D_, 2
	note C_, 4
	note C_, 2
	note D_, 1
	note C_, 2
	note D_, 1
	note C_, 3
	note C_, 1
	note D_, 2
	note C_, 4
	note C_, 2
	note D_, 2
	note C_, 2
	note C_, 3
	note C_, 1
	note D_, 2
	note C_, 4
	note C_, 2
	note D_, 1
	note C_, 2
	note D_, 1
	note C_, 3
	note C_, 1
	note D_, 2
	note C_, 4
	note C_, 2
	note D_, 2
	note C_, 2
	note B_, 1
	note B_, 1
	note A_, 4
	note B_, 1
	note B_, 1
	note A_, 1
	note A_, 1
	note G_, 1
	note G_, 1
	note A_, 1
	note A_, 1
	note G_, 1
	note F_, 1
	note C_, 3
	note C_, 1
	note D_, 2
	note C_, 4
	note C_, 2
	note D_, 1
	note C_, 2
	note D_, 1
	note C_, 3
	note C_, 1
	note D_, 2
	note C_, 4
	note C_, 2
	note D_, 2
	note C_, 2
	note C_, 3
	note C_, 1
	note D_, 2
	note C_, 4
	note C_, 2
	note D_, 1
	note C_, 2
	note D_, 1
	note C_, 3
	note C_, 1
	note D_, 2
	note C_, 2
	note D_, 1
	note D_, 1
	note C_, 2
	note D_, 2
	note C_, 2
	note A_, 1
	note A_, 2
	note A_, 1
	note C_, 2
	note E_, 3
	note C_, 1
	note B_, 1
	note A_, 1
	note B_, 1
	note B_, 1
	note A_, 1
	note G_, 1
	note A_, 1
	note A_, 2
	note A_, 1
	note C_, 2
	note E_, 3
	note C_, 1
	note B_, 1
	note A_, 1
	note B_, 1
	note B_, 1
	note A_, 1
	note G_, 1
	note C_, 3
	note C_, 1
	note D_, 2
	note C_, 4
	note C_, 2
	note D_, 1
	note C_, 2
	note D_, 1
	note C_, 3
	note C_, 1
	note D_, 2
	note C_, 2
	note D_, 1
	note D_, 1
	note C_, 2
	note D_, 2
	note C_, 2
	note C_, 3
	note C_, 1
	note D_, 2
	note C_, 4
	note C_, 2
	note D_, 1
	note C_, 3
	note C_, 3
	note C_, 1
	note D_, 2
	note C_, 2
	note D_, 1
	note D_, 1
	note C_, 2
	note D_, 2
	note C_, 2
	note C_, 3
	note C_, 1
	note D_, 2
	note C_, 4
	note C_, 2
	note D_, 1
	note C_, 2
	note D_, 1
	note C_, 3
	note C_, 1
	note D_, 2
	note C_, 2
	note D_, 1
	note D_, 1
	note C_, 2
	note D_, 2
	note C_, 2
	note C_, 3
	note C_, 1
	note D_, 2
	note C_, 4
	note C_, 2
	note D_, 1
	note C_, 3
	note C_, 2
	note C_, 4
	note D_, 1
	note D_, 1
	note C_, 1
	note C_, 1
	note C_, 1
	note C_, 1
	note A_, 1
	note A_, 1
	note A_, 1
	note A_, 1
	loopchannel 0, Music_Looker_Ch4_loop

