Music_MarshadowBattle:
	musicheader 4, 1, Music_MarshadowBattle_Ch1
	musicheader 1, 2, Music_MarshadowBattle_Ch2
	musicheader 1, 3, Music_MarshadowBattle_Ch3
	musicheader 1, 4, Music_MarshadowBattle_Ch4

Music_MarshadowBattle_Ch1:
	tempo $6C
	volume $77
	stereopanning $77
	dutycycle 2
	octave 2
	notetype $C, $A4
	note F#, 4
	note A_, 4
	octave 3
	note C#, 4
	octave 2
	note A_, 4
	note F#, 4
	note A_, 4
	octave 3
	note C#, 4
	octave 2
	note A_, 4
	note F_, 4
	note G#, 4
	octave 3
	note C#, 4
	octave 2
	note G#, 4
	note F_, 4
	note G#, 4
	octave 3
	note C#, 4
	octave 2
	note G#, 4
	note F#, 4
	note A_, 4
	octave 3
	note C#, 4
	octave 2
	note A_, 4
	note F#, 4
	note A_, 4
	octave 3
	note C#, 4
	octave 2
	note A_, 4
	intensity $A7
	octave 3
	note G#, 16
	note F_, 16
	octave 2
	note B_, 16
	intensity $A5
	octave 3
	note D_, 8
	intensity $A2
	note D_, 2
	note D_, 2
	intensity $A1
	note D_, 1
	note D_, 1
	note D_, 1
	note D_, 1
	dutycycle 1
	intensity $C8
	slidepitchto 1, 3, C#
	octave 5
	note C#, 2
	intensity $C4
	slidepitchto 1, 4, E_
	note C#, 4
	octave 3
	note F#, 2
	note __, 4
	note F#, 2
	note __, 4
	note F#, 2
	note __, 4
	note G_, 4
	note G_, 4
	note F#, 2
	note __, 4
	note F#, 2
	note __, 4
	note F#, 2
	note __, 4
	note F#, 2
	note __, 4
	note E_, 2
	octave 2
	note B_, 2
	octave 3
	note G_, 4
	note F#, 2
	octave 2
	note B_, 2
	octave 3
	note C#, 2
	note F#, 2
	octave 2
	note B_, 2
	octave 3
	note C#, 2
	note F#, 2
	note E_, 2
	note F#, 2
	octave 2
	note B_, 2
	octave 3
	note C#, 2
	note F#, 2
	note G_, 4
	note G_, 4
	note F#, 2
	octave 2
	note B_, 2
	octave 3
	note C#, 2
	note F#, 2
	octave 2
	note B_, 2
	octave 3
	note C#, 2
	note F#, 2
	note A_, 2
	intensity $A5
	octave 2
	note B_, 8
	octave 3
	note C_, 8
Music_MarshadowBattle_Ch1_loop:
	dutycycle 1
	octave 3
	notetype $C, $A4
	note C#, 12
	intensity $A4
	octave 2
	note B_, 4
	note A_, 4
	note G#, 2
	note A_, 2
	note __, 2
	note A_, 6
	intensity $A5
	octave 3
	note D_, 12
	intensity $A4
	octave 2
	note B_, 4
	note A_, 4
	note G#, 2
	intensity $A2
	octave 3
	note C#, 2
	note __, 2
	intensity $A4
	note D_, 6
	octave 2
	note B_, 2
	note F#, 2
	note B_, 2
	octave 3
	note C#, 2
	octave 2
	note B_, 2
	octave 3
	note C#, 2
	intensity $A2
	note D_, 1
	note C#, 1
	note D_, 1
	note __, 1
	intensity $A4
	note D_, 2
	note E_, 2
	octave 2
	note B_, 2
	octave 3
	note C#, 2
	note D_, 2
	octave 2
	note B_, 2
	octave 3
	note D_, 2
	octave 2
	note B_, 2
	note B_, 2
	note F#, 2
	note B_, 2
	octave 3
	note C#, 2
	octave 2
	note B_, 2
	octave 3
	note C#, 2
	intensity $A2
	note D_, 1
	note C#, 1
	note D_, 1
	note __, 1
	intensity $A4
	octave 2
	note B_, 2
	intensity $A2
	octave 3
	note D_, 1
	note E_, 1
	note D_, 1
	note __, 1
	intensity $A4
	note D_, 2
	intensity $A1
	note E_, 2
	note D_, 2
	intensity $A4
	octave 2
	note B_, 4
	intensity $A5
	octave 3
	note C#, 12
	intensity $A4
	octave 2
	note B_, 4
	note A_, 4
	note G#, 2
	note A_, 2
	note __, 2
	note A_, 6
	intensity $A5
	octave 3
	note D_, 12
	intensity $A4
	octave 2
	note B_, 4
	octave 3
	note D_, 4
	note F#, 2
	note E_, 2
	note __, 2
	note D_, 6
	octave 2
	note B_, 2
	note F#, 2
	note B_, 2
	octave 3
	note C#, 2
	octave 2
	note B_, 2
	octave 3
	note C#, 2
	intensity $A2
	note D_, 1
	note C#, 1
	note D_, 1
	note __, 1
	intensity $A4
	note D_, 2
	note E_, 2
	octave 2
	note B_, 2
	octave 3
	note C#, 2
	note D_, 2
	octave 2
	note B_, 2
	octave 3
	note D_, 2
	octave 2
	note B_, 2
	octave 3
	note C#, 2
	octave 2
	note G#, 2
	note B_, 2
	octave 3
	note C#, 2
	octave 2
	note G#, 2
	octave 3
	note C#, 2
	intensity $A2
	note D#, 1
	note C#, 1
	note D#, 1
	note __, 1
	intensity $A4
	note C#, 2
	intensity $A2
	note F_, 1
	note D#, 1
	note F_, 1
	note __, 1
	intensity $A4
	note D#, 2
	intensity $A2
	note F_, 1
	note __, 1
	intensity $A4
	note C#, 2
	note F_, 2
	note G#, 2
	note A_, 4
	note F#, 2
	note G#, 4
	note F#, 2
	note A_, 4
	note B_, 4
	octave 4
	note C#, 4
	octave 3
	note A_, 4
	note B_, 4
	note A_, 4
	note F#, 2
	note G#, 4
	note F#, 2
	note A_, 4
	octave 4
	note C#, 4
	octave 3
	note B_, 4
	octave 4
	note C#, 2
	note D_, 2
	note C#, 4
	octave 3
	note A_, 4
	note F#, 2
	note G#, 4
	note F#, 2
	note A_, 4
	note G#, 4
	note E_, 4
	note F#, 4
	note A_, 4
	intensity $A5
	note B_, 8
	note G#, 8
	note F_, 8
	intensity $3D
	note D_, 8
	intensity $A4
	note F#, 2
	note __, 4
	note F#, 2
	note __, 4
	note F#, 2
	note __, 2
	note G_, 2
	note __, 4
	note G_, 2
	note __, 4
	note G_, 2
	note __, 2
	note D_, 2
	note __, 4
	note D_, 2
	note __, 4
	note D_, 2
	note __, 2
	note E_, 2
	note __, 4
	note E_, 2
	note __, 4
	note F_, 2
	note __, 2
	intensity $A7
	octave 1
	note F#, 16
	note A_, 16
	note B_, 16
	octave 2
	note C#, 16
	octave 1
	note F#, 16
	note A_, 16
	octave 2
	note C#, 16
	intensity $1F
	note F#, 8
	intensity $97
	note F#, 4
	dutycycle 2
	intensity $A8
	octave 3
	note C#, 4
	intensity $A7
	vibrato $00, $33
	octave 4
	note F#, 6
	note E_, 10
	note F#, 6
	note G_, 10
	note F#, 6
	note E_, 10
	note C#, 8
	note E_, 8
	dutycycle 1
	intensity $A3
	vibrato $00, $00
	octave 3
	note F#, 2
	note E_, 2
	note F#, 2
	note A_, 2
	note B_, 2
	octave 4
	note C_, 2
	octave 3
	note B_, 2
	note A_, 2
	note F#, 2
	note E_, 2
	note F#, 2
	note A_, 2
	note B_, 2
	octave 4
	note C_, 2
	octave 3
	note B_, 2
	octave 4
	note C#, 2
	octave 3
	note F#, 2
	note E_, 2
	note F#, 2
	note A_, 2
	note B_, 2
	octave 4
	note C_, 2
	octave 3
	note B_, 2
	note A_, 2
	dutycycle 2
	intensity $A4
	note C#, 8
	intensity $3F
	octave 2
	note F#, 8
	loopchannel 0, Music_MarshadowBattle_Ch1_loop

Music_MarshadowBattle_Ch2:
	dutycycle 1
	octave 4
	notetype $C, $94
	note C#, 4
	octave 2
	note F#, 4
	octave 4
	note C#, 4
	octave 2
	note F#, 4
	octave 4
	note C#, 4
	octave 2
	note F#, 4
	octave 4
	note D_, 4
	octave 2
	note F#, 4
	octave 4
	note C#, 4
	octave 2
	note F_, 4
	octave 4
	note C#, 4
	octave 2
	note F_, 4
	octave 4
	note C#, 4
	octave 2
	note F_, 4
	intensity $A5
	octave 4
	note D_, 8
	intensity $94
	note C#, 4
	octave 2
	note F#, 4
	octave 4
	note C#, 4
	octave 2
	note F#, 4
	octave 4
	note C#, 4
	octave 2
	note F#, 4
	octave 3
	note B_, 4
	octave 2
	note F#, 4
	intensity $72
	octave 5
	note C#, 1
	intensity $73
	vibrato $00, $16
	octave 6
	note C#, 3
	intensity $62
	octave 5
	note C#, 1
	intensity $63
	octave 6
	note C#, 3
	intensity $62
	vibrato $00, $00
	octave 5
	note C#, 1
	intensity $63
	vibrato $00, $16
	octave 6
	note C#, 3
	intensity $52
	vibrato $00, $00
	octave 5
	note C#, 1
	intensity $53
	vibrato $00, $16
	octave 6
	note C#, 3
	intensity $42
	octave 5
	note C#, 1
	intensity $43
	octave 6
	note C#, 3
	intensity $42
	octave 5
	note C#, 1
	intensity $43
	octave 6
	note C#, 3
	intensity $22
	octave 5
	note C#, 1
	intensity $23
	octave 6
	note C#, 3
	intensity $22
	octave 5
	note C#, 1
	intensity $23
	octave 6
	note C#, 3
	intensity $C5
	vibrato $00, $00
	octave 4
	note C#, 6
	note __, 2
	note C#, 6
	note __, 2
	intensity $C4
	note C#, 4
	note C#, 4
	intensity $C2
	note C#, 2
	note C#, 2
	intensity $C1
	note C#, 1
	note C#, 1
	note C#, 1
	note C#, 1
	tone $0001
	intensity $A4
	octave 3
	note A_, 6
	intensity $C4
	octave 4
	note C#, 2
	note __, 4
	note C#, 2
	note __, 4
	note C#, 2
	note __, 4
	octave 3
	note B_, 4
	note B_, 4
	octave 4
	note C#, 2
	note __, 4
	note C#, 2
	note __, 4
	note C#, 2
	note __, 4
	note C#, 2
	note __, 4
	octave 3
	note B_, 4
	octave 4
	note E_, 4
	note F#, 2
	note __, 4
	note F#, 2
	note __, 4
	note F#, 2
	note __, 4
	note F#, 2
	note __, 4
	note E_, 4
	note E_, 4
	note F#, 2
	note __, 4
	note F#, 2
	note __, 4
	note F#, 2
	note __, 2
	dutycycle 2
	intensity $B4
	octave 3
	note E_, 2
	note C#, 2
	note G#, 2
	note B_, 4
	note G#, 4
	note E_, 2
Music_MarshadowBattle_Ch2_loop:
	octave 3
	notetype $C, $C4
	dutycycle 1
	intensity $C4
	note F#, 4
	note G#, 4
	note A_, 4
	note G#, 4
	note F#, 4
	note E_, 2
	intensity $C2
	note F#, 2
	note __, 2
	intensity $C4
	note C#, 6
	note F#, 4
	note G#, 4
	note A_, 4
	note G#, 4
	note F#, 4
	note B_, 2
	intensity $C2
	octave 4
	note C#, 2
	note __, 2
	intensity $C4
	octave 3
	note A_, 6
	note D_, 6
	note F#, 6
	octave 4
	note C#, 6
	octave 3
	note A_, 6
	note G#, 4
	note F#, 4
	note D_, 6
	note E_, 6
	note F#, 2
	intensity $C2
	octave 4
	note C#, 2
	note __, 2
	intensity $C4
	octave 3
	note G#, 6
	intensity $C1
	note A_, 2
	note A_, 2
	intensity $C4
	note G#, 4
	note F#, 4
	note G#, 4
	note A_, 4
	note G#, 4
	note F#, 4
	note E_, 2
	intensity $C2
	note F#, 2
	note __, 2
	intensity $C4
	note C#, 6
	note F#, 4
	note G#, 4
	note A_, 4
	note B_, 4
	octave 4
	note C#, 2
	octave 3
	note B_, 2
	note A_, 2
	intensity $C2
	octave 4
	note D_, 2
	note __, 2
	intensity $C4
	note C#, 6
	octave 3
	note D_, 6
	note F#, 6
	octave 4
	note C#, 6
	octave 3
	note A_, 6
	note G#, 4
	note F#, 4
	note F_, 6
	note G#, 4
	note F_, 2
	note B_, 2
	intensity $C2
	octave 4
	note C#, 2
	note __, 2
	intensity $C4
	octave 3
	note B_, 6
	note A_, 2
	note B_, 2
	octave 4
	note C#, 2
	note F_, 2
	note F#, 6
	note D_, 6
	note F#, 4
	note A_, 4
	note G#, 4
	note F#, 4
	note G#, 4
	note F#, 6
	note C#, 6
	note F#, 4
	note A_, 4
	note B_, 4
	note A_, 4
	note G#, 4
	note F#, 6
	note D_, 6
	note F#, 4
	note D_, 4
	note C#, 4
	note D_, 4
	note F#, 4
	note F_, 6
	note C#, 6
	octave 3
	note B_, 6
	octave 4
	note C#, 6
	note F_, 4
	note G#, 2
	intensity $C8
	note B_, 2
	intensity $C4
	note C#, 2
	note __, 4
	note C#, 2
	note __, 4
	note C#, 2
	note __, 2
	note D_, 2
	note __, 4
	note D_, 2
	note __, 4
	note D_, 2
	note __, 2
	note E_, 2
	note __, 4
	note E_, 2
	note __, 4
	note E_, 2
	note __, 2
	note D_, 2
	note __, 4
	note D_, 2
	note __, 4
	note D_, 2
	note __, 2
	dutycycle 2
	intensity $C7
	vibrato $00, $66
	octave 2
	note A_, 16
	intensity $C4
	note G#, 8
	note F#, 6
	note C_, 2
	intensity $C7
	note C#, 16
	intensity $C4
	octave 1
	note B_, 8
	octave 2
	note D_, 4
	octave 1
	note B_, 4
	intensity $C7
	note A_, 12
	note __, 2
	intensity $C4
	note B_, 2
	intensity $C7
	octave 2
	note C#, 12
	intensity $C4
	note E_, 2
	note __, 2
	intensity $C7
	note F#, 16
	intensity $2F
	vibrato $00, $33
	octave 3
	note C#, 12
	intensity $C7
	note E_, 4
	intensity $C4
	note F#, 2
	note C#, 2
	note F#, 2
	note G_, 4
	note G_, 2
	note __, 4
	note F#, 2
	note C#, 2
	note F#, 2
	note G_, 4
	note G_, 2
	note __, 4
	note F#, 2
	note C#, 2
	note F#, 2
	note G_, 4
	note G_, 2
	note __, 2
	note C#, 2
	note F#, 2
	note C#, 2
	note F#, 2
	note G_, 4
	note G_, 2
	intensity $C8
	note B_, 4
	dutycycle 1
	intensity $C4
	vibrato $00, $00
	octave 4
	note F#, 2
	note C#, 2
	note F#, 2
	note G_, 4
	note G_, 2
	note __, 4
	note F#, 2
	note C#, 2
	note F#, 2
	note G_, 4
	note G_, 2
	note __, 4
	note F#, 2
	note C#, 2
	note F#, 2
	note G_, 4
	note G_, 2
	note __, 2
	note C#, 2
	octave 3
	note A_, 8
	note G#, 4
	intensity $C8
	note E_, 4
	loopchannel 0, Music_MarshadowBattle_Ch2_loop

Music_MarshadowBattle_Ch3:
	dutycycle 3
	vibrato $00, $33
	octave 4
	notetype $C, $13
	note A_, 16
	note G#, 8
	note F#, 8
	note C#, 16
	octave 3
	note B_, 8
	octave 4
	note D_, 8
	note A_, 16
	note G#, 8
	note F#, 4
	note D#, 4
	note F_, 16
	octave 5
	note C#, 16
	intensity $33
	octave 4
	note A_, 4
	note A_, 4
	note F#, 4
	note F#, 4
	intensity $23
	note F#, 4
	note F#, 4
	intensity $13
	note F#, 1
	note __, 1
	note F#, 1
	note __, 1
	note F#, 1
	note __, 1
	note F#, 1
	note __, 1
	dutycycle 4
	intensity $14
	octave 3
	note C#, 2
	note F#, 2
	note C#, 2
	note F#, 2
	note C#, 2
	note F#, 2
	note C#, 2
	note F#, 2
	note C#, 2
	note F#, 2
	note C#, 2
	note F#, 2
	note E_, 2
	note C#, 2
	octave 2
	note B_, 2
	octave 3
	note D_, 2
	note C#, 2
	note F#, 2
	note C#, 2
	note F#, 2
	note C#, 2
	note F#, 2
	note C#, 2
	note F#, 2
	note C#, 2
	note F#, 2
	note C#, 2
	note F#, 2
	note E_, 2
	note C#, 2
	note D_, 2
	note G_, 2
	note C#, 2
	note F#, 2
	note C#, 2
	note F#, 2
	note C#, 2
	note F#, 2
	note C#, 2
	note F#, 2
	note C#, 2
	note F#, 2
	note C#, 2
	note F#, 2
	note E_, 2
	note C#, 2
	octave 2
	note B_, 2
	octave 3
	note D_, 2
	note C#, 2
	note F#, 2
	note C#, 2
	note F#, 2
	note C#, 2
	note F#, 2
	note C#, 2
	note F#, 2
	note E_, 8
	note D_, 8
Music_MarshadowBattle_Ch3_loop:
	notetype $C, $14
	octave 3
	note C#, 2
	note F#, 2
	note C#, 2
	note F#, 2
	note C#, 2
	note F#, 2
	note C#, 2
	note F#, 2
	note C#, 2
	note F#, 2
	note C#, 2
	note F#, 2
	note C#, 2
	note F#, 2
	note C#, 2
	note F#, 2
	note D_, 2
	note A_, 2
	note D_, 2
	note A_, 2
	note D_, 2
	note A_, 2
	note D_, 2
	note A_, 2
	note D_, 2
	note A_, 2
	note D_, 2
	note A_, 2
	note D_, 2
	note A_, 2
	note D_, 2
	note A_, 2
	octave 2
	note B_, 2
	octave 3
	note F#, 2
	octave 2
	note B_, 2
	octave 3
	note F#, 2
	octave 2
	note B_, 2
	octave 3
	note F#, 2
	octave 2
	note B_, 2
	octave 3
	note F#, 2
	octave 2
	note B_, 2
	octave 3
	note F#, 2
	octave 2
	note B_, 2
	octave 3
	note F#, 2
	octave 2
	note B_, 2
	octave 3
	note F#, 2
	octave 2
	note B_, 2
	octave 3
	note F#, 2
	note D_, 2
	note A_, 2
	note D_, 2
	note A_, 2
	note D_, 2
	note A_, 2
	note D_, 2
	note A_, 2
	note D_, 2
	note E_, 2
	note D_, 2
	octave 2
	note B_, 2
	octave 3
	note C#, 1
	note __, 1
	note F_, 1
	note __, 1
	note D_, 2
	octave 2
	note B_, 2
	octave 3
	note C#, 2
	note F#, 2
	note C#, 2
	note F#, 2
	note C#, 2
	note F#, 2
	note C#, 2
	note F#, 2
	note C#, 2
	note F#, 2
	note C#, 2
	note F#, 2
	note C#, 2
	note F#, 2
	note C#, 2
	note F#, 2
	note D_, 2
	note A_, 2
	note D_, 2
	note A_, 2
	note D_, 2
	note A_, 2
	note D_, 2
	note A_, 2
	note D_, 2
	note A_, 2
	note D_, 2
	note A_, 2
	note D_, 2
	note A_, 2
	note D_, 2
	note A_, 2
	octave 2
	note B_, 2
	octave 3
	note F#, 2
	octave 2
	note B_, 2
	octave 3
	note F#, 2
	octave 2
	note B_, 2
	octave 3
	note F#, 2
	octave 2
	note B_, 2
	octave 3
	note F#, 2
	octave 2
	note B_, 2
	octave 3
	note F#, 2
	octave 2
	note B_, 2
	octave 3
	note F#, 2
	octave 2
	note B_, 2
	octave 3
	note F#, 2
	octave 2
	note B_, 2
	octave 3
	note F#, 2
	note C#, 2
	note F_, 2
	note C#, 2
	note F_, 2
	note C#, 2
	note F_, 2
	note C#, 2
	note F_, 2
	note C#, 2
	note F_, 2
	note C#, 2
	note F_, 2
	note C#, 2
	note F_, 2
	note C#, 2
	note F_, 2
	note D_, 2
	note F#, 2
	note D_, 2
	note F#, 2
	note D_, 2
	note F#, 2
	note D_, 2
	note F#, 2
	note D_, 2
	note F#, 2
	note D_, 2
	note G#, 2
	note A_, 2
	note G#, 2
	note F#, 2
	note E_, 2
	note C#, 2
	note F#, 2
	note C#, 2
	note F#, 2
	note C#, 2
	note F#, 2
	note C#, 2
	note F#, 2
	note C#, 2
	note F#, 2
	note C#, 2
	note G#, 2
	note A_, 2
	note G#, 2
	note F#, 2
	note E_, 2
	note D_, 2
	note F#, 2
	note D_, 2
	note F#, 2
	note D_, 2
	note F#, 2
	note D_, 2
	note F#, 2
	note D_, 2
	note F#, 2
	note D_, 2
	note F#, 2
	note G#, 2
	note F#, 2
	note E_, 2
	note C_, 2
	note C#, 2
	note F_, 2
	note C#, 2
	note F_, 2
	note C#, 2
	note F_, 2
	note C#, 2
	note F_, 2
	note C#, 2
	note F_, 2
	note C#, 2
	note F_, 2
	note G#, 2
	note F_, 2
	note C#, 2
	note F_, 2
	note C#, 2
	note F_, 2
	note F#, 2
	note C#, 2
	note F_, 2
	note F#, 2
	note C#, 2
	note __, 2
	note D_, 2
	note F#, 2
	note G_, 2
	note D_, 2
	note F#, 2
	note G_, 2
	note D_, 2
	note F#, 2
	octave 2
	note B_, 2
	octave 3
	note D_, 2
	note E_, 2
	octave 2
	note B_, 2
	octave 3
	note D_, 2
	note E_, 2
	octave 2
	note B_, 2
	note __, 2
	octave 3
	note D_, 2
	note F#, 2
	note A_, 2
	note D_, 2
	note F#, 2
	note A_, 2
	note D_, 2
	octave 2
	note B_, 2
	octave 3
	note C#, 2
	octave 2
	note B_, 2
	octave 3
	note C#, 2
	note F#, 2
	note G#, 2
	note F#, 2
	note E_, 2
	octave 2
	note B_, 2
	octave 3
	note C#, 2
	octave 2
	note B_, 2
	octave 3
	note C#, 2
	note F#, 2
	note G#, 2
	note F#, 2
	note E_, 2
	octave 2
	note B_, 2
	octave 3
	note C#, 2
	octave 2
	note B_, 2
	octave 3
	note C#, 2
	note F#, 2
	note G#, 2
	note F#, 2
	note E_, 2
	octave 2
	note B_, 2
	octave 3
	note C#, 2
	octave 2
	note B_, 2
	octave 3
	note C#, 2
	note F#, 2
	note G#, 2
	note F#, 2
	note E_, 2
	note D_, 2
	octave 2
	note A_, 2
	octave 3
	note C#, 2
	note F#, 2
	octave 2
	note A_, 2
	octave 3
	note C#, 2
	note F#, 2
	octave 2
	note A_, 2
	octave 3
	note E_, 2
	octave 2
	note A_, 2
	octave 3
	note C#, 2
	note F#, 2
	octave 2
	note A_, 2
	octave 3
	note C#, 2
	note F#, 2
	octave 2
	note A_, 2
	octave 3
	note E_, 2
	octave 2
	note A_, 2
	octave 3
	note C#, 2
	note F#, 2
	octave 2
	note A_, 2
	octave 3
	note C#, 2
	note F#, 2
	octave 2
	note A_, 2
	octave 3
	note E_, 2
	octave 2
	note A_, 2
	octave 3
	note C#, 2
	note F#, 2
	note E_, 2
	note __, 2
	octave 2
	note B_, 2
	octave 3
	note C#, 2
	note E_, 2
	octave 2
	note F#, 2
	octave 3
	note F#, 2
	octave 2
	note F#, 2
	octave 3
	note C_, 4
	note C_, 2
	octave 2
	note B_, 2
	note A_, 2
	note F#, 2
	octave 3
	note F#, 2
	octave 2
	note F#, 2
	octave 3
	note C_, 4
	note C_, 2
	octave 2
	note B_, 2
	note A_, 2
	note F#, 2
	octave 3
	note F#, 2
	octave 2
	note F#, 2
	octave 3
	note C_, 4
	note C_, 2
	octave 2
	note B_, 2
	note A_, 2
	note F#, 2
	octave 3
	note F#, 2
	octave 2
	note F#, 2
	octave 3
	note C_, 4
	note C_, 2
	note E_, 4
	octave 2
	note F#, 2
	octave 3
	note F#, 2
	octave 2
	note F#, 2
	octave 3
	note C_, 4
	note C_, 2
	octave 2
	note B_, 2
	note A_, 2
	note F#, 2
	octave 3
	note F#, 2
	octave 2
	note F#, 2
	octave 3
	note C_, 4
	note C_, 2
	octave 2
	note B_, 2
	note A_, 2
	note F#, 2
	octave 3
	note F#, 2
	octave 2
	note F#, 2
	octave 3
	note C_, 4
	note C_, 2
	octave 2
	note B_, 2
	note A_, 2
	octave 3
	note C#, 3
	note __, 13
	loopchannel 0, Music_MarshadowBattle_Ch3_loop

Music_MarshadowBattle_Ch4:
	notetype $C
	note __, 16
	note __, 16
	note __, 16
	note __, 16
	note __, 16
	note __, 16
	note __, 16
	note __, 16
	togglenoise 1
	note G#, 4
	note __, 4
	note G#, 4
	note __, 4
	note G#, 4
	note G#, 4
	note G#, 2
	note G#, 2
	note B_, 1
	note B_, 1
	note B_, 1
	note B_, 1
	note F#, 2
	note A_, 2
	note D#, 2
	note A_, 2
	note B_, 2
	note A_, 2
	note D#, 2
	note A_, 2
	note A#, 2
	note A_, 2
	note D#, 2
	note A_, 2
	note D#, 2
	note B_, 2
	note D#, 2
	note A_, 2
	note F#, 2
	note A_, 2
	note D#, 2
	note A_, 2
	note B_, 2
	note A_, 2
	note D#, 2
	note A_, 2
	note A#, 2
	note A_, 2
	note D#, 2
	note A_, 2
	note D#, 2
	note B_, 2
	note D#, 2
	note __, 2
	note F#, 2
	note A_, 2
	note D#, 2
	note A_, 2
	note B_, 2
	note A_, 2
	note D#, 2
	note A_, 2
	note A#, 2
	note A_, 2
	note D#, 2
	note A_, 2
	note D#, 2
	note B_, 2
	note D#, 2
	note A_, 2
	note F#, 2
	note A_, 2
	note D#, 2
	note A_, 2
	note B_, 2
	note A_, 2
	note D#, 1
	note B_, 1
	note B_, 1
	note B_, 1
	note F#, 2
	note __, 2
	note G#, 2
	note __, 1
	note G_, 2
	note __, 1
	note G#, 2
	note B_, 1
	note B_, 1
	note B_, 1
	note B_, 1
Music_MarshadowBattle_Ch4_loop:
	notetype $C
	note F#, 2
	note A_, 2
	note D#, 2
	note A_, 2
	note B_, 2
	note A_, 2
	note D#, 2
	note A_, 2
	note A#, 2
	note A_, 2
	note D#, 2
	note A_, 2
	note B_, 2
	note A_, 2
	note D#, 2
	note A_, 2
	note A#, 2
	note A_, 2
	note D#, 2
	note A_, 2
	note B_, 2
	note A_, 2
	note D#, 2
	note A_, 2
	note A#, 2
	note A_, 2
	note D#, 2
	note A_, 2
	note B_, 2
	note A_, 2
	note D#, 2
	note A_, 2
	note F#, 2
	note A_, 2
	note D#, 2
	note A_, 2
	note B_, 2
	note A_, 2
	note D#, 2
	note A_, 2
	note A#, 2
	note A_, 2
	note D#, 2
	note A_, 2
	note B_, 2
	note A_, 2
	note D#, 2
	note A_, 2
	note A#, 2
	note A_, 2
	note D#, 2
	note A_, 2
	note B_, 2
	note A_, 2
	note D#, 2
	note A_, 2
	note A_, 2
	note A_, 2
	note A_, 2
	note G_, 2
	note D#, 2
	note A_, 2
	note D#, 1
	note D#, 1
	note D#, 1
	note D#, 1
	note F#, 2
	note A_, 2
	note D#, 2
	note A_, 2
	note B_, 2
	note A_, 2
	note D#, 2
	note A_, 2
	note A#, 2
	note A_, 2
	note D#, 2
	note A_, 2
	note B_, 2
	note A_, 2
	note D#, 2
	note A_, 2
	note A#, 2
	note A_, 2
	note D#, 2
	note A_, 2
	note B_, 2
	note A_, 2
	note D#, 2
	note A_, 2
	note A#, 2
	note A_, 2
	note D#, 2
	note A_, 2
	note B_, 2
	note A_, 2
	note D#, 2
	note A_, 2
	note F#, 2
	note A_, 2
	note D#, 2
	note A_, 2
	note B_, 2
	note A_, 2
	note D#, 2
	note A_, 2
	note A#, 2
	note A_, 2
	note D#, 2
	note A_, 2
	note B_, 2
	note A_, 2
	note D#, 2
	note A_, 2
	note A#, 2
	note A_, 2
	note D#, 2
	note A_, 2
	note B_, 2
	note A_, 2
	note D#, 2
	note A_, 2
	note A#, 2
	note D#, 2
	note A_, 2
	note A#, 2
	note D#, 2
	note D#, 2
	note B_, 1
	note B_, 1
	note D#, 1
	note __, 1
	note F#, 2
	note A_, 2
	note D#, 2
	note A_, 2
	note B_, 2
	note A_, 2
	note D#, 2
	note A_, 2
	note A#, 2
	note A_, 2
	note D#, 2
	note A_, 2
	note B_, 2
	note A_, 2
	note D#, 2
	note A_, 2
	note F#, 2
	note A_, 2
	note D#, 2
	note A_, 2
	note B_, 2
	note A_, 2
	note D#, 2
	note A_, 2
	note A#, 2
	note A_, 2
	note D#, 2
	note A_, 2
	note B_, 2
	note A_, 2
	note D#, 1
	note A_, 1
	note D#, 2
	note F#, 2
	note A_, 2
	note D#, 2
	note A_, 2
	note B_, 2
	note A_, 2
	note D#, 2
	note A_, 2
	note A#, 2
	note A_, 2
	note D#, 2
	note A_, 2
	note B_, 2
	note A_, 2
	note D#, 2
	note A_, 2
	note A#, 2
	note A_, 2
	note D#, 2
	note A_, 2
	note B_, 2
	note A_, 2
	note D#, 2
	note A_, 2
	note A#, 2
	note A_, 2
	note D#, 2
	note A_, 2
	note F#, 2
	note A#, 2
	note F#, 1
	note F#, 1
	note F#, 1
	note F#, 1
	note F#, 2
	note __, 4
	note D#, 2
	note __, 4
	note D#, 2
	note __, 2
	note F#, 2
	note __, 4
	note D#, 2
	note __, 4
	note D#, 2
	note __, 2
	note F#, 2
	note __, 4
	note D#, 2
	note __, 4
	note D#, 2
	note __, 2
	note F#, 2
	note __, 6
	note D#, 2
	note B_, 2
	note A#, 2
	note A#, 2
	note B_, 2
	note B_, 2
	note A#, 2
	note B_, 2
	note F_, 2
	note B_, 2
	note B_, 2
	note B_, 2
	note B_, 2
	note B_, 2
	note A#, 2
	note B_, 2
	note F_, 2
	note B_, 2
	note B_, 2
	note B_, 2
	note B_, 2
	note B_, 2
	note A#, 2
	note B_, 2
	note F_, 2
	note B_, 2
	note B_, 2
	note B_, 2
	note B_, 2
	note B_, 2
	note A#, 2
	note B_, 2
	note F_, 2
	note B_, 2
	note B_, 2
	note F_, 2
	note B_, 2
	note B_, 2
	note A#, 2
	note B_, 2
	note F_, 2
	note B_, 2
	note B_, 2
	note B_, 2
	note B_, 2
	note B_, 2
	note A#, 2
	note B_, 2
	note F_, 2
	note B_, 2
	note B_, 2
	note B_, 2
	note B_, 2
	note B_, 2
	note A#, 2
	note B_, 2
	note F_, 2
	note B_, 2
	note B_, 2
	note B_, 2
	note B_, 2
	note B_, 2
	note A#, 2
	note B_, 2
	note D#, 2
	note B_, 2
	note D#, 2
	note D#, 2
	note F#, 2
	note B_, 2
	note A#, 2
	note F#, 2
	note __, 2
	note B_, 2
	note A#, 2
	note B_, 2
	note F#, 2
	note B_, 2
	note A#, 2
	note F#, 2
	note __, 2
	note B_, 2
	note A#, 2
	note B_, 2
	note F#, 2
	note B_, 2
	note A#, 2
	note F#, 2
	note __, 2
	note B_, 2
	note A#, 2
	note B_, 2
	note F#, 2
	note B_, 2
	note A#, 2
	note F#, 2
	note __, 2
	note B_, 2
	note F#, 2
	note A#, 1
	note A#, 1
	note F#, 2
	note A#, 2
	note D#, 2
	note A#, 2
	note B_, 2
	note A#, 2
	note D#, 2
	note A#, 2
	note B_, 2
	note A#, 2
	note D#, 2
	note A#, 2
	note B_, 2
	note A#, 2
	note D#, 2
	note A#, 2
	note B_, 2
	note A#, 2
	note D#, 2
	note A#, 2
	note B_, 2
	note A#, 2
	note D#, 1
	note D#, 1
	note D#, 1
	note D#, 1
	note F#, 2
	note __, 10
	note F#, 1
	note B_, 1
	note B_, 1
	note B_, 1
	loopchannel 0, Music_MarshadowBattle_Ch4_loop

