Music_MeetJessieJames:
	musicheader 4, 1, Music_MeetJessieJames_Ch1
	musicheader 1, 2, Music_MeetJessieJames_Ch2
	musicheader 1, 3, Music_MeetJessieJames_Ch3
	musicheader 1, 4, Music_MeetJessieJames_Ch4

Music_MeetJessieJames_Ch1:
	tempo $8E
	volume $77
	stereopanning $f
	dutycycle 1
	tone $0001
	vibrato $00, $26
	octave 3
	notetype $C, $A2
	note G#, 1
	note G_, 1
	note F#, 2
	note F_, 2
	note E_, 2
	note D#, 2
	note D_, 2
	note C#, 2
	note C_, 2
	intensity $A7
	note D#, 12
	note C_, 4
Music_MeetJessieJames_Ch1_loop:
        dutycycle 1
        notetype $C, $A2
	intensity $A4
	octave 4
	note D_, 6
	octave 3
	note A_, 4
	note A#, 4
	note G_, 2
	note A_, 6
	note G_, 4
	note A_, 2
	note A#, 4
	octave 4
	note D_, 6
	octave 3
	note A_, 4
	note A#, 4
	note G_, 2
	note A_, 4
	note A#, 4
	dutycycle 2
	intensity $C2
	octave 2
	note A_, 2
	octave 3
	note A#, 2
	intensity $C4
	note A_, 4
	intensity $C2
	note D_, 1
	note D#, 1
	note D#, 2
	note D#, 2
	note D_, 2
	note D#, 2
	note D_, 2
	note D#, 2
	note F_, 2
	note D_, 1
	note D#, 1
	note D#, 2
	note D#, 2
	note D_, 2
	octave 2
	note A#, 4
	dutycycle 1
	intensity $C4
	octave 3
	note B_, 4
	dutycycle 2
	intensity $C2
	note D_, 1
	note D#, 1
	note D#, 2
	note D#, 2
	note D_, 2
	note D#, 2
	note D_, 2
	note D#, 2
	note F_, 2
	note D_, 1
	note D#, 1
	note D#, 2
	note D#, 2
	note D_, 2
	octave 2
	note A#, 2
	octave 3
	note B_, 2
	intensity $C4
	note A#, 1
	intensity $5E
	note A#, 3
	loopchannel 0, Music_MeetJessieJames_Ch1_loop

Music_MeetJessieJames_Ch2:
        stereopanning $f0
	dutycycle 1
	tone $0002
	vibrato $00, $26
	octave 4
	notetype $C, $C2
	note D_, 1
	note C#, 1
	note C_, 2
	octave 3
	note B_, 2
	note A#, 2
	note A_, 2
	note G#, 2
	note G_, 2
	note F#, 2
	intensity $C7
	note A_, 12
	octave 4
	note C#, 4
Music_MeetJessieJames_Ch2_loop:
	dutycycle 2
        notetype $C, $C2
	octave 3
	note C#, 1
	note D_, 1
	note D_, 2
	note D_, 2
	note C#, 2
	note D_, 2
	note C#, 2
	note D_, 2
	note E_, 2
	note C#, 1
	note D_, 1
	note D_, 2
	note D_, 2
	note C#, 2
	octave 2
	note A_, 4
	dutycycle 1
	intensity $C4
	octave 4
	note C#, 4
	dutycycle 2
	intensity $C2
	octave 3
	note C#, 1
	note D_, 1
	note D_, 2
	note D_, 2
	note C#, 2
	note D_, 2
	note C#, 2
	note D_, 2
	note E_, 2
	note C#, 1
	note D_, 1
	note D_, 2
	note D_, 2
	note C#, 2
	dutycycle 1
	intensity $A4
	octave 4
	note D_, 8
	note D#, 6
	note F_, 4
	note D#, 4
	octave 3
	note A#, 2
	octave 4
	note D#, 6
	note F_, 4
	note D#, 2
	note D_, 4
	note D#, 6
	note F_, 4
	note D#, 4
	octave 3
	note A#, 2
	octave 4
	note D#, 4
	note F_, 4
	note D#, 5
	intensity $5D
	note D#, 3
	loopchannel 0, Music_MeetJessieJames_Ch2_loop

Music_MeetJessieJames_Ch3:
	dutycycle 9
	octave 4
	notetype $C, $19
	note D_, 6
	octave 3
	note A_, 4
	note G_, 6
	note D#, 8
	note D_, 2
	octave 2
	note A_, 2
	octave 3
	note C_, 2
	note D#, 2
Music_MeetJessieJames_Ch3_loop:
        notetype $C, $19
        octave 3
	note D_, 1
	note __, 1
	note A_, 1
	note __, 1
	note D_, 1
	note __, 1
	note A_, 1
	note __, 1
	note D_, 1
	note __, 1
	note A_, 1
	note __, 1
	note D_, 1
	note __, 1
	note A_, 1
	note __, 1
	note D_, 1
	note __, 1
	note A_, 1
	note __, 1
	note D_, 1
	note __, 1
	note A_, 1
	note __, 1
	note D_, 1
	note __, 1
	note A#, 2
	note A_, 2
	note D#, 2
	note D_, 1
	note __, 1
	note A_, 1
	note __, 1
	note D_, 1
	note __, 1
	note A_, 1
	note __, 1
	note D_, 1
	note __, 1
	note A_, 1
	note __, 1
	note D_, 1
	note __, 1
	note A_, 1
	note __, 1
	note D_, 1
	note __, 1
	note A_, 1
	note __, 1
	note D_, 1
	note __, 1
	note A_, 1
	note __, 1
	note D_, 1
	note __, 1
	octave 2
	note A_, 2
	octave 3
	note C_, 2
	note D_, 2
	note D#, 1
	note __, 1
	note A#, 1
	note __, 1
	note D#, 1
	note __, 1
	note A#, 1
	note __, 1
	note D#, 1
	note __, 1
	note A#, 1
	note __, 1
	note D#, 1
	note __, 1
	note A#, 1
	note __, 1
	note D#, 1
	note __, 1
	note A#, 1
	note __, 1
	note D#, 1
	note __, 1
	note A#, 1
	note __, 1
	note D#, 1
	note __, 1
	octave 2
	note B_, 2
	octave 3
	note D_, 2
	note E_, 2
	note D#, 1
	note __, 1
	note A#, 1
	note __, 1
	note D#, 1
	note __, 1
	note A#, 1
	note __, 1
	note D#, 1
	note __, 1
	note A#, 1
	note __, 1
	note D#, 1
	note __, 1
	note A#, 1
	note __, 1
	note D#, 1
	note __, 1
	note A#, 1
	note __, 1
	note D#, 1
	note __, 1
	note A#, 1
	note __, 1
	note D#, 1
	note __, 1
	octave 2
	note B_, 2
	octave 3
	note D#, 2
	note F_, 1
	notetype $B, $19
	note F_, 1
	notetype $1, $19
	note __, 1
	loopchannel 0, Music_MeetJessieJames_Ch3_loop

Music_MeetJessieJames_Ch4:
	notetype $C
	note __, 16
	togglenoise 1
	note F_, 2
	note __, 2
	note A_, 2
	note A_, 2
	note A_, 2
	note A_, 2
	note D#, 1
	note D#, 1
	note D#, 1
	note __, 1
Music_MeetJessieJames_Ch4_loop:
        notetype $C
	note F_, 2
	note B_, 1
	note __, 1
	note D#, 1
	note __, 1
	note B_, 1
	note __, 1
	note E_, 1
	note __, 1
	note B_, 1
	note __, 1
	note D#, 1
	note __, 1
	note B_, 1
	note __, 1
	note E_, 1
	note __, 1
	note B_, 1
	note __, 1
	note D#, 1
	note __, 1
	note B_, 1
	note __, 1
	note B_, 1
	note __, 1
	note E_, 1
	note E_, 1
	note D#, 1
	note __, 3
	note F_, 2
	note B_, 1
	note __, 1
	note D#, 1
	note __, 1
	note B_, 1
	note __, 1
	note E_, 1
	note __, 1
	note B_, 1
	note __, 1
	note D#, 1
	note __, 1
	note B_, 1
	note __, 1
	note E_, 1
	note __, 1
	note B_, 1
	note __, 1
	note D#, 1
	note __, 1
	note B_, 1
	note __, 1
	note E_, 1
	note __, 1
	note B_, 2
	note D#, 1
	note D#, 1
	note D#, 1
	note __, 1
	note F_, 2
	note B_, 1
	note __, 1
	note D#, 1
	note __, 1
	note B_, 1
	note __, 1
	note E_, 1
	note __, 1
	note B_, 1
	note __, 1
	note D#, 1
	note __, 1
	note B_, 1
	note __, 1
	note E_, 1
	note __, 1
	note B_, 1
	note __, 1
	note D#, 1
	note __, 1
	note B_, 1
	note __, 1
	note B_, 1
	note __, 1
	note E_, 1
	note __, 1
	note D#, 1
	note __, 3
	note F_, 2
	note B_, 1
	note __, 1
	note D#, 1
	note __, 1
	note B_, 1
	note __, 1
	note E_, 1
	note __, 1
	note B_, 1
	note __, 1
	note D#, 1
	note __, 1
	note B_, 1
	note __, 1
	note E_, 1
	note __, 1
	note B_, 1
	note __, 1
	note D#, 1
	note __, 1
	note B_, 1
	note __, 1
	note B_, 1
	note __, 1
	note F_, 2
	note D#, 1
	note D#, 1
	note D#, 1
	note D#, 1
	loopchannel 0, Music_MeetJessieJames_Ch4_loop

