Music_OrangeWild:
	musicheader 4, 1, Music_OrangeWild_Ch1
	musicheader 1, 2, Music_OrangeWild_Ch2
	musicheader 1, 3, Music_OrangeWild_Ch3
	musicheader 1, 4, Music_OrangeWild_Ch4

Music_OrangeWild_Ch1:
	tempo $69
	volume $77
	stereopanning $77
	dutycycle 1
	octave 5
	notetype $C, $D1
	note C_, 1
	octave 4
	note B_, 1
	note A#, 1
	note A_, 1
	note A#, 1
	note A_, 1
	note G#, 1
	note G_, 1
	note G#, 1
	note G_, 1
	note F#, 1
	note F_, 1
	note F#, 1
	note F_, 1
	note E_, 1
	note D#, 1
	note E_, 1
	note D#, 1
	note D_, 1
	note C#, 1
	note D_, 1
	note C#, 1
	note C_, 1
	octave 3
	note B_, 1
	octave 4
	note C_, 1
	octave 3
	note B_, 1
	note A#, 1
	note A_, 1
	note A#, 1
	note A_, 1
	note G#, 1
	note G_, 1
Music_OrangeWild_Ch1_loop:
	dutycycle 0
	intensity $A7
	vibrato $08, $24
	note D_, 8
	octave 2
	note A#, 8
	octave 3
	note D#, 8
	note C_, 8
	note D_, 8
	octave 2
	note A#, 8
	intensity $3D
	octave 3
	note C_, 8
	octave 2
	note F_, 8
	intensity $A7
	octave 3
	note D_, 8
	octave 2
	note A#, 8
	octave 3
	note D#, 8
	note C_, 8
	octave 4
	note D_, 8
	octave 3
	note A#, 8
	intensity $3D
	note A_, 8
	note G_, 8
	intensity $A2
	note A_, 2
	note A_, 2
	note __, 2
	note G_, 2
	note A_, 2
	note B_, 2
	octave 4
	note C_, 2
	note D_, 2
	note E_, 2
	note __, 2
	note C_, 2
	octave 3
	note G_, 2
	note A_, 2
	note G_, 2
	note F_, 2
	note E_, 2
	octave 2
	note B_, 2
	octave 3
	note D_, 2
	note F_, 2
	note G_, 2
	note __, 2
	note G_, 2
	note F_, 2
	note G_, 2
	note A_, 2
	note G_, 2
	note F_, 2
	note A_, 2
	note B_, 2
	octave 4
	note D_, 2
	note F_, 2
	note D_, 2
	octave 3
	note A_, 2
	note A_, 2
	note __, 2
	note G_, 2
	note A_, 2
	note B_, 2
	octave 4
	note C_, 2
	note D_, 2
	note E_, 2
	note __, 2
	note C_, 2
	octave 3
	note G_, 2
	note A_, 2
	note G_, 2
	note F_, 2
	note E_, 2
	octave 2
	note B_, 2
	octave 3
	note D_, 2
	note F_, 2
	note G_, 2
	note __, 2
	note G_, 2
	note F_, 2
	note G_, 2
	note A_, 2
	note G_, 2
	note F_, 2
	note A_, 2
	note B_, 2
	octave 4
	note D_, 2
	note F_, 2
	note G_, 2
	tone $0001
	note C_, 2
	octave 3
	note A_, 2
	octave 4
	note C_, 2
	intensity $A5
	octave 3
	note A_, 6
	intensity $A2
	octave 4
	note C_, 2
	note D_, 2
	note F_, 4
	note E_, 4
	note D_, 4
	note C_, 4
	note D_, 2
	octave 3
	note G_, 2
	octave 4
	note D_, 2
	intensity $A5
	octave 3
	note G_, 6
	intensity $A2
	note A_, 2
	note B_, 2
	octave 4
	note D_, 4
	note C_, 4
	octave 3
	note B_, 4
	note G_, 4
	octave 4
	note C_, 2
	octave 3
	note A_, 2
	octave 4
	note C_, 2
	intensity $A5
	octave 3
	note A_, 6
	intensity $A2
	octave 4
	note C_, 2
	note D_, 2
	note F_, 4
	note E_, 4
	note D_, 4
	note E_, 2
	note F_, 2
	note A_, 4
	note G_, 4
	note F_, 4
	note G_, 4
	note F_, 4
	note E_, 4
	note D_, 4
	note E_, 4
	intensity $A0
	note D_, 16
	note D_, 4
	intensity $A7
	note D_, 12
	octave 3
	note B_, 16
	octave 4
	note C_, 16
	note D_, 16
	note C_, 16
	note D_, 16
	note E_, 16
	tone $0000
	octave 3
	note C_, 8
	octave 2
	note G#, 8
	octave 3
	note C#, 8
	octave 2
	note A#, 8
	octave 3
	note C_, 8
	octave 2
	note G#, 8
	intensity $3D
	note A#, 8
	note D#, 8
	intensity $A7
	octave 3
	note C_, 8
	octave 2
	note G#, 8
	octave 3
	note C#, 8
	octave 2
	note A#, 8
	octave 3
	note C_, 8
	octave 2
	note G#, 8
	intensity $3D
	note A#, 8
	note D#, 8
	loopchannel 0, Music_OrangeWild_Ch1_loop

Music_OrangeWild_Ch2:
	dutycycle 1
	octave 3
	notetype $C, $D4
	note C_, 1
	octave 4
	note C_, 1
	octave 5
	note C_, 1
	octave 4
	note C_, 1
	octave 3
	note C_, 1
	octave 4
	note C_, 1
	octave 5
	note C_, 1
	octave 4
	note C_, 1
	octave 3
	note C_, 1
	octave 4
	note C_, 1
	octave 5
	note C_, 1
	octave 4
	note C_, 1
	octave 3
	note C_, 1
	octave 4
	note C_, 1
	octave 5
	note C_, 1
	octave 4
	note C_, 1
	octave 3
	note C_, 1
	octave 4
	note C_, 1
	octave 5
	note C_, 1
	octave 4
	note C_, 1
	octave 3
	note C_, 1
	octave 4
	note C_, 1
	octave 5
	note C_, 1
	octave 4
	note C_, 1
	octave 3
	note C_, 1
	octave 4
	note C_, 1
	octave 5
	note C_, 1
	octave 4
	note C_, 1
	octave 3
	note C_, 1
	octave 4
	note C_, 1
	octave 5
	note C_, 1
	octave 4
	note C_, 1
Music_OrangeWild_Ch2_loop:
	intensity $D3
	vibrato $08, $46
	octave 3
	note G_, 6
	note D_, 6
	intensity $D2
	vibrato $00, $00
	note G_, 2
	note G#, 2
	intensity $D4
	note A#, 4
	note G#, 4
	note F_, 4
	note G#, 4
	intensity $D3
	vibrato $08, $46
	note G_, 6
	note D_, 6
	intensity $D4
	vibrato $00, $00
	note G_, 4
	note F_, 4
	note A_, 4
	octave 4
	note C_, 4
	octave 3
	note F_, 4
	intensity $D3
	vibrato $08, $46
	note G_, 6
	note D_, 6
	intensity $D2
	vibrato $00, $00
	note G_, 2
	note G#, 2
	intensity $D4
	note A#, 4
	note G#, 4
	note F_, 4
	note G#, 4
	intensity $D3
	vibrato $08, $46
	octave 4
	note G_, 6
	note D_, 6
	intensity $D4
	vibrato $00, $00
	note G_, 4
	note F_, 4
	note G_, 4
	note E_, 4
	intensity $D2
	note C_, 4
	note D_, 2
	octave 3
	note A_, 2
	note __, 2
	octave 4
	note D_, 4
	note D_, 2
	note E_, 2
	note F_, 2
	note G_, 4
	note F_, 4
	note E_, 4
	note C_, 4
	intensity $D5
	octave 3
	note G_, 8
	note B_, 8
	intensity $D7
	octave 4
	note D_, 12
	intensity $D2
	octave 3
	note B_, 4
	octave 4
	note C_, 2
	note C_, 2
	note __, 2
	note C_, 2
	octave 3
	note B_, 2
	octave 4
	note D_, 2
	note E_, 2
	note F_, 2
	note G_, 4
	note F_, 4
	note E_, 4
	note E_, 2
	note F_, 2
	note G_, 2
	note F_, 2
	note E_, 2
	note D_, 2
	note E_, 2
	note D_, 2
	octave 3
	note B_, 2
	octave 4
	note C_, 2
	octave 3
	note B_, 4
	note A_, 4
	note G_, 4
	note B_, 4
	octave 4
	note D_, 2
	note E_, 2
	note F_, 2
	note E_, 2
	note A_, 4
	note G_, 4
	note A_, 4
	note E_, 4
	note __, 2
	note A_, 2
	note B_, 2
	octave 5
	note C_, 2
	intensity $D5
	octave 4
	note B_, 6
	note G_, 6
	note E_, 6
	note D_, 6
	intensity $D2
	note C_, 4
	note D_, 4
	note E_, 2
	octave 3
	note A_, 2
	octave 4
	note E_, 2
	octave 3
	note A_, 2
	note __, 2
	note A_, 2
	octave 4
	note E_, 2
	octave 3
	note A_, 2
	octave 4
	note D_, 4
	note C_, 4
	octave 3
	note B_, 4
	note A_, 4
	intensity $D5
	note G_, 8
	note F_, 8
	note E_, 8
	note C_, 8
	vibrato $08, $24
	octave 2
	notetype $F, $D0
	note B_, 16
	vibrato $00, $24
	notetype $C, $D7
	note B_, 12
	octave 3
	note D_, 16
	note E_, 16
	note F_, 16
	note G_, 16
	note A_, 16
	note E_, 16
	intensity $D3
	vibrato $08, $46
	note F_, 6
	note C_, 6
	intensity $D2
	vibrato $00, $00
	note F_, 2
	note F#, 2
	intensity $D4
	note G#, 4
	note F#, 4
	note D#, 4
	note F#, 4
	intensity $D3
	vibrato $08, $46
	note F_, 6
	note C_, 6
	intensity $D4
	vibrato $00, $00
	note F_, 4
	note D#, 4
	note G_, 4
	note A#, 4
	note D#, 4
	intensity $D3
	vibrato $08, $46
	note F_, 6
	note C_, 6
	intensity $D2
	vibrato $00, $00
	note F_, 2
	note F#, 2
	intensity $D4
	note G#, 4
	note F#, 4
	note D#, 4
	note F#, 4
	intensity $D3
	vibrato $08, $46
	note F_, 6
	note C_, 6
	intensity $D4
	vibrato $00, $00
	note F_, 4
	note D#, 4
	note G_, 4
	note A#, 4
	note D#, 4
	loopchannel 0, Music_OrangeWild_Ch2_loop

Music_OrangeWild_Ch3:
	dutycycle 8
	octave 3
	notetype $C, $18
	note C_, 1
	note __, 1
	note C_, 1
	note __, 1
	octave 2
	note B_, 1
	note __, 1
	note B_, 1
	note __, 1
	note A#, 1
	note __, 1
	note A#, 1
	note __, 1
	note A_, 1
	note __, 1
	note A_, 1
	note __, 1
	note G#, 1
	note __, 1
	note G#, 1
	note __, 1
	note G_, 1
	note __, 1
	note G_, 1
	note __, 1
	note F#, 1
	note __, 1
	note F#, 1
	note __, 1
	note F_, 1
	note __, 1
	note F_, 1
	note __, 1
Music_OrangeWild_Ch3_loop:
	dutycycle 4
	intensity $14
	note G_, 2
	octave 3
	note G_, 2
	octave 2
	note G_, 2
	octave 3
	note G_, 2
	octave 2
	note G_, 2
	octave 3
	note G_, 2
	octave 2
	note G_, 2
	octave 3
	note G_, 2
	octave 2
	note G#, 2
	octave 3
	note G#, 2
	octave 2
	note G#, 2
	octave 3
	note G#, 2
	octave 2
	note G#, 2
	octave 3
	note G#, 2
	octave 2
	note G#, 2
	octave 3
	note G#, 2
	octave 2
	note G_, 2
	octave 3
	note G_, 2
	octave 2
	note G_, 2
	octave 3
	note G_, 2
	octave 2
	note G_, 2
	octave 3
	note G_, 2
	octave 2
	note G_, 2
	octave 3
	note G_, 2
	note C_, 2
	octave 4
	note C_, 2
	octave 3
	note C_, 2
	octave 4
	note C_, 2
	octave 3
	note C_, 2
	octave 4
	note C_, 2
	octave 3
	note C_, 2
	octave 4
	note C_, 2
	octave 2
	note G_, 2
	octave 3
	note G_, 2
	octave 2
	note G_, 2
	octave 3
	note G_, 2
	octave 2
	note G_, 2
	octave 3
	note G_, 2
	octave 2
	note G_, 2
	octave 3
	note G_, 2
	octave 2
	note G#, 2
	octave 3
	note G#, 2
	octave 2
	note G#, 2
	octave 3
	note G#, 2
	octave 2
	note G#, 2
	octave 3
	note G#, 2
	octave 2
	note G#, 2
	octave 3
	note G#, 2
	octave 2
	note G_, 2
	octave 3
	note G_, 2
	octave 2
	note G_, 2
	octave 3
	note G_, 2
	octave 2
	note G_, 2
	octave 3
	note G_, 2
	octave 2
	note G_, 2
	octave 3
	note G_, 2
	note C_, 2
	octave 4
	note C_, 2
	octave 3
	note C_, 2
	octave 4
	note C_, 2
	octave 3
	note C_, 2
	octave 4
	note C_, 2
	octave 3
	note C_, 2
	octave 4
	note C_, 2
	octave 3
	note D_, 2
	octave 4
	note D_, 2
	octave 3
	note D_, 2
	octave 4
	note D_, 2
	octave 3
	note D_, 2
	octave 4
	note D_, 2
	octave 3
	note D_, 2
	octave 4
	note D_, 2
	octave 3
	note C_, 2
	octave 4
	note C_, 2
	octave 3
	note C_, 2
	octave 4
	note C_, 2
	octave 3
	note C_, 2
	octave 4
	note C_, 2
	octave 3
	note C_, 2
	octave 4
	note C_, 2
	octave 2
	note G_, 2
	octave 3
	note G_, 2
	octave 2
	note G_, 2
	octave 3
	note G_, 2
	octave 2
	note G_, 2
	octave 3
	note G_, 2
	octave 2
	note G_, 2
	octave 3
	note G_, 2
	octave 2
	note D_, 2
	octave 3
	note D_, 2
	octave 2
	note D_, 2
	octave 3
	note D_, 2
	octave 2
	note D_, 2
	octave 3
	note D_, 2
	octave 2
	note G_, 2
	octave 3
	note G_, 2
	note D_, 2
	octave 4
	note D_, 2
	octave 3
	note D_, 2
	octave 4
	note D_, 2
	octave 3
	note D_, 2
	octave 4
	note D_, 2
	octave 3
	note D_, 2
	octave 4
	note D_, 2
	octave 3
	note C_, 2
	octave 4
	note C_, 2
	octave 3
	note C_, 2
	octave 4
	note C_, 2
	octave 3
	note C_, 2
	octave 4
	note C_, 2
	octave 3
	note C_, 2
	octave 4
	note C_, 2
	octave 2
	note G_, 2
	octave 3
	note G_, 2
	octave 2
	note G_, 2
	octave 3
	note G_, 2
	octave 2
	note G_, 2
	octave 3
	note G_, 2
	octave 2
	note G_, 2
	octave 3
	note G_, 2
	octave 2
	note D_, 2
	octave 3
	note D_, 2
	octave 2
	note D_, 2
	octave 3
	note D_, 2
	octave 2
	note D_, 2
	octave 3
	note D_, 2
	octave 2
	note G_, 2
	octave 3
	note G_, 2
	octave 2
	note A_, 2
	octave 3
	note A_, 2
	octave 2
	note A_, 2
	octave 3
	note A_, 2
	octave 2
	note A_, 2
	octave 3
	note A_, 2
	octave 2
	note A_, 2
	octave 3
	note A_, 2
	octave 2
	note A_, 2
	octave 3
	note A_, 2
	octave 2
	note A_, 2
	octave 3
	note A_, 2
	octave 2
	note A_, 2
	octave 3
	note A_, 2
	octave 2
	note A_, 2
	octave 3
	note A_, 2
	octave 2
	note G_, 2
	octave 3
	note G_, 2
	octave 2
	note G_, 2
	octave 3
	note G_, 2
	octave 2
	note G_, 2
	octave 3
	note G_, 2
	octave 2
	note G_, 2
	octave 3
	note G_, 2
	octave 2
	note G_, 2
	octave 3
	note G_, 2
	octave 2
	note G_, 2
	octave 3
	note G_, 2
	octave 2
	note G_, 2
	octave 3
	note G_, 2
	octave 2
	note G_, 2
	octave 3
	note G_, 2
	octave 2
	note A_, 2
	octave 3
	note A_, 2
	octave 2
	note A_, 2
	octave 3
	note A_, 2
	octave 2
	note A_, 2
	octave 3
	note A_, 2
	octave 2
	note A_, 2
	octave 3
	note A_, 2
	octave 2
	note A_, 2
	octave 3
	note A_, 2
	octave 2
	note A_, 2
	octave 3
	note A_, 2
	octave 2
	note A_, 2
	octave 3
	note A_, 2
	octave 2
	note A_, 2
	octave 3
	note A_, 2
	note D_, 2
	octave 4
	note D_, 2
	octave 3
	note D_, 2
	octave 4
	note D_, 2
	octave 3
	note D_, 2
	octave 4
	note D_, 2
	octave 3
	note D_, 2
	octave 4
	note D_, 2
	octave 3
	note C_, 2
	octave 4
	note C_, 2
	octave 3
	note C_, 2
	octave 4
	note C_, 2
	octave 3
	note C_, 2
	octave 4
	note C_, 2
	octave 3
	note C_, 2
	octave 4
	note C_, 2
	octave 2
	note G_, 2
	octave 3
	note G_, 2
	octave 2
	note G_, 2
	octave 3
	note G_, 2
	octave 2
	note G_, 2
	octave 3
	note G_, 2
	octave 2
	note G_, 2
	octave 3
	note G_, 2
	octave 2
	note G_, 2
	octave 3
	note G_, 2
	octave 2
	note G_, 2
	octave 3
	note G_, 2
	octave 2
	note G_, 2
	octave 3
	note G_, 2
	octave 2
	note G_, 2
	octave 3
	note G_, 2
	octave 2
	note G_, 2
	octave 3
	note G_, 2
	octave 2
	note G_, 2
	octave 3
	note G_, 2
	octave 2
	note G_, 2
	octave 3
	note G_, 2
	octave 2
	note G_, 2
	octave 3
	note G_, 2
	octave 2
	note G_, 2
	octave 3
	note G_, 2
	octave 2
	note G_, 2
	octave 3
	note G_, 2
	octave 2
	note G_, 2
	octave 3
	note G_, 2
	octave 2
	note G_, 2
	octave 3
	note G_, 2
	octave 2
	note A_, 2
	octave 3
	note A_, 2
	octave 2
	note A_, 2
	octave 3
	note A_, 2
	octave 2
	note A_, 2
	octave 3
	note A_, 2
	octave 2
	note A_, 2
	octave 3
	note A_, 2
	octave 2
	note A_, 2
	octave 3
	note A_, 2
	octave 2
	note A_, 2
	octave 3
	note A_, 2
	octave 2
	note A_, 2
	octave 3
	note A_, 2
	octave 2
	note A_, 2
	octave 3
	note A_, 2
	octave 2
	note A_, 2
	octave 3
	note A_, 2
	octave 2
	note A_, 2
	octave 3
	note A_, 2
	octave 2
	note A_, 2
	octave 3
	note A_, 2
	octave 2
	note A_, 2
	octave 3
	note A_, 2
	octave 2
	note A_, 2
	octave 3
	note A_, 2
	octave 2
	note A_, 2
	octave 3
	note A_, 2
	octave 2
	note A_, 2
	octave 3
	note A_, 2
	octave 2
	note A_, 2
	octave 3
	note A_, 2
	octave 2
	note F_, 2
	octave 3
	note F_, 2
	octave 2
	note F_, 2
	octave 3
	note F_, 2
	octave 2
	note F_, 2
	octave 3
	note F_, 2
	octave 2
	note F_, 2
	octave 3
	note F_, 2
	octave 2
	note F#, 2
	octave 3
	note F#, 2
	octave 2
	note F#, 2
	octave 3
	note F#, 2
	octave 2
	note F#, 2
	octave 3
	note F#, 2
	octave 2
	note F#, 2
	octave 3
	note F#, 2
	octave 2
	note F_, 2
	octave 3
	note F_, 2
	octave 2
	note F_, 2
	octave 3
	note F_, 2
	octave 2
	note F_, 2
	octave 3
	note F_, 2
	octave 2
	note F_, 2
	octave 3
	note F_, 2
	octave 2
	note A#, 2
	octave 3
	note A#, 2
	octave 2
	note A#, 2
	octave 3
	note A#, 2
	octave 2
	note A#, 2
	octave 3
	note A#, 2
	octave 2
	note A#, 2
	octave 3
	note A#, 2
	octave 2
	note F_, 2
	octave 3
	note F_, 2
	octave 2
	note F_, 2
	octave 3
	note F_, 2
	octave 2
	note F_, 2
	octave 3
	note F_, 2
	octave 2
	note F_, 2
	octave 3
	note F_, 2
	octave 2
	note F#, 2
	octave 3
	note F#, 2
	octave 2
	note F#, 2
	octave 3
	note F#, 2
	octave 2
	note F#, 2
	octave 3
	note F#, 2
	octave 2
	note F#, 2
	octave 3
	note F#, 2
	octave 2
	note F_, 2
	octave 3
	note F_, 2
	octave 2
	note F_, 2
	octave 3
	note F_, 2
	octave 2
	note F_, 2
	octave 3
	note F_, 2
	octave 2
	note F_, 2
	octave 3
	note F_, 2
	octave 2
	note A#, 2
	octave 3
	note A#, 2
	octave 2
	note A#, 2
	octave 3
	note A#, 2
	octave 2
	note A#, 2
	octave 3
	note A#, 2
	octave 2
	note A#, 2
	octave 3
	note A#, 2
	loopchannel 0, Music_OrangeWild_Ch3_loop

Music_OrangeWild_Ch4:
	togglenoise 3
	notetype $C
	note C_, 2
	note __, 2
	note C_, 2
	note __, 2
	note C_, 2
	note __, 2
	note C_, 2
	note C#, 1
	note C#, 1
	note D_, 1
	note D_, 1
	note D_, 1
	note D_, 1
	note D#, 1
	note D#, 1
	note D#, 1
	note D#, 1
	note C#, 1
	note C#, 1
	note C#, 1
	note C#, 1
	note C_, 1
	note C_, 1
	note C_, 1
	note C_, 1
Music_OrangeWild_Ch4_loop:
	note B_, 2
	note D#, 2
	note C_, 2
	note D_, 2
	note D#, 2
	note D#, 2
	note C_, 2
	note D_, 2
	note C#, 2
	note D#, 2
	note C_, 2
	note D_, 1
	note D_, 1
	note D#, 2
	note D#, 2
	note C_, 2
	note D_, 2
	note C#, 2
	note D#, 2
	note C_, 2
	note D_, 2
	note D#, 2
	note D#, 2
	note C_, 2
	note D_, 2
	note C#, 2
	note D#, 2
	note C_, 2
	note D_, 1
	note D_, 1
	note D#, 2
	note D#, 2
	note C_, 2
	note D_, 2
	note B_, 2
	note D#, 2
	note C_, 2
	note D_, 2
	note D#, 2
	note D#, 2
	note C_, 2
	note D_, 2
	note C#, 2
	note D#, 2
	note C_, 2
	note D_, 1
	note D_, 1
	note D#, 2
	note D#, 2
	note C_, 2
	note D_, 1
	note D_, 1
	note C_, 2
	note __, 2
	note C_, 2
	note __, 2
	note C_, 2
	note __, 2
	note C_, 2
	note D#, 2
	note D_, 1
	note D_, 1
	note D_, 1
	note D_, 1
	note D#, 1
	note D#, 1
	note D#, 1
	note D#, 1
	note C#, 1
	note C#, 1
	note C#, 1
	note C#, 1
	note C_, 1
	note C_, 1
	note C_, 1
	note C_, 1
	loopchannel 0, Music_OrangeWild_Ch4_loop
