Music_OrangeIslandsGymBattle:
	musicheader 4, 1, Music_OrangeIslandsGymBattle_Ch1
	musicheader 1, 2, Music_OrangeIslandsGymBattle_Ch2
	musicheader 1, 3, Music_OrangeIslandsGymBattle_Ch3
	musicheader 1, 4, Music_OrangeIslandsGymBattle_Ch4

Music_OrangeIslandsGymBattle_Ch1:
	tempo $78
	volume $77
	stereopanning $77
	dutycycle 1
	octave 3
	notetype $C, $D1
	note G_, 1
	note F#, 1
	note F_, 1
	tempo $7A
	note G_, 1
	note F_, 1
	note E_, 1
	tempo $7C
	note G_, 1
	note E_, 1
	note D#, 1
	tempo $7E
	note G_, 1
	note D#, 1
	note D_, 1
	tempo $81
	note G_, 1
	note D_, 1
	note C#, 1
	tempo $83
	note G_, 1
	note C#, 1
	note C_, 1
	tempo $85
	note G_, 1
	note C_, 1
	octave 2
	note B_, 1
	tempo $87
	octave 3
	note G_, 1
	octave 2
	note B_, 1
	note A#, 1
	tempo $69
	intensity $A3
	octave 3
	note C#, 2
	octave 2
	note G#, 2
	octave 3
	note C#, 2
	note D_, 2
	note E_, 2
	octave 2
	note B_, 2
	octave 3
	note E_, 2
	octave 2
	note B_, 2
	octave 3
	note C#, 2
	octave 2
	note G#, 2
	octave 3
	note C#, 2
	note D_, 2
	note E_, 2
	note F#, 2
	note E_, 2
	octave 2
	note B_, 2
	octave 3
	note C#, 2
	octave 2
	note G#, 2
	octave 3
	note C#, 2
	note D_, 2
	note E_, 2
	octave 2
	note B_, 2
	octave 3
	note E_, 2
	octave 2
	note B_, 2
	octave 3
	note C#, 2
	octave 2
	note G#, 2
	octave 3
	note C#, 2
	note D_, 2
	note E_, 2
	note F#, 2
	note E_, 2
	note C_, 2
	note D_, 2
	octave 2
	note A_, 2
	octave 3
	note D_, 2
	note D#, 2
	note F_, 2
	note C_, 2
	note F_, 2
	note C_, 2
	note D_, 2
	octave 2
	note A_, 2
	octave 3
	note D_, 2
	note D#, 2
	note F_, 2
	note G_, 2
	note F_, 2
	note C_, 2
	note D_, 2
	octave 2
	note A_, 2
	octave 3
	note D_, 2
	note D#, 2
	note F_, 2
	note C_, 2
	note F_, 2
	note C_, 2
	note D_, 2
	octave 2
	note A_, 2
	octave 3
	note D_, 2
	note D#, 2
	note G_, 2
	note A_, 2
	note G_, 2
	note E_, 2
Music_OrangeIslandsGymBattle_Ch1_loop:
	intensity $A3
	dutycycle 1
	octave 3
	note C_, 4
	octave 2
	note A_, 4
	note B_, 4
	octave 3
	note C_, 4
	octave 2
	note A_, 4
	note G_, 4
	note E_, 4
	note G_, 4
	octave 3
	note C_, 4
	octave 2
	note A_, 4
	note B_, 4
	octave 3
	note C_, 4
	octave 2
	note A_, 4
	octave 3
	note C_, 4
	octave 2
	note B_, 4
	octave 3
	note D_, 4
	note C_, 4
	octave 2
	note A_, 4
	note B_, 4
	octave 3
	note C_, 4
	octave 2
	note A_, 4
	note G_, 4
	note E_, 4
	note G_, 4
	octave 3
	note C_, 4
	octave 2
	note A_, 4
	note B_, 4
	octave 3
	note C_, 4
	octave 2
	note A_, 4
	octave 3
	note C_, 4
	octave 2
	note B_, 4
	octave 3
	note D_, 4
	dutycycle 0
	intensity $A1
	note B_, 1
	note G_, 1
	note B_, 1
	octave 4
	note E_, 1
	octave 3
	note A#, 1
	note F#, 1
	note A#, 1
	octave 4
	note D#, 1
	octave 3
	note A_, 1
	note F_, 1
	note A_, 1
	octave 4
	note D_, 1
	octave 3
	note G_, 1
	note D_, 1
	note G_, 1
	note D_, 1
	dutycycle 2
	note E_, 2
	note F_, 2
	note G_, 2
	note A_, 2
	octave 4
	note D_, 2
	note E_, 2
	note F_, 2
	note D_, 2
	dutycycle 0
	octave 3
	note B_, 1
	note G_, 1
	note B_, 1
	octave 4
	note E_, 1
	octave 3
	note A#, 1
	note F#, 1
	note A#, 1
	octave 4
	note D#, 1
	octave 3
	note A_, 1
	note F_, 1
	note A_, 1
	octave 4
	note D_, 1
	octave 3
	note G_, 1
	note D_, 1
	note G_, 1
	note D_, 1
	dutycycle 2
	note E_, 2
	note F_, 2
	note G_, 2
	note A_, 2
	octave 4
	note D_, 2
	note E_, 2
	note F_, 2
	note D_, 2
	dutycycle 0
	octave 3
	note B_, 1
	note G_, 1
	note B_, 1
	octave 4
	note E_, 1
	octave 3
	note A#, 1
	note F#, 1
	note A#, 1
	octave 4
	note D#, 1
	octave 3
	note A_, 1
	note F_, 1
	note A_, 1
	octave 4
	note D_, 1
	octave 3
	note G_, 1
	note D_, 1
	note G_, 1
	note D_, 1
	dutycycle 2
	note E_, 2
	note F_, 2
	note G_, 2
	note A_, 2
	octave 4
	note D_, 2
	note E_, 2
	note F_, 2
	note D_, 2
	dutycycle 0
	octave 3
	note B_, 1
	note G_, 1
	note B_, 1
	octave 4
	note E_, 1
	octave 3
	note A#, 1
	note F#, 1
	note A#, 1
	octave 4
	note D#, 1
	octave 3
	note A_, 1
	note F_, 1
	note A_, 1
	octave 4
	note D_, 1
	octave 3
	note G_, 1
	note D_, 1
	note G_, 1
	note D_, 1
	dutycycle 2
	note E_, 2
	note F_, 2
	note G_, 2
	note A_, 2
	octave 4
	note D_, 2
	note E_, 2
	note F#, 2
	note G#, 2
	tone $0001
	intensity $A3
	octave 3
	note E_, 4
	octave 4
	note E_, 4
	octave 3
	note E_, 4
	octave 4
	note E_, 4
	note F_, 1
	note G_, 1
	note F_, 2
	note E_, 2
	note D_, 2
	note C_, 2
	note D_, 2
	note E_, 2
	octave 3
	note G_, 2
	note E_, 4
	octave 4
	note E_, 4
	octave 3
	note E_, 4
	octave 4
	note E_, 4
	note F_, 1
	note G_, 1
	note F_, 2
	note E_, 2
	note D_, 1
	octave 3
	note A_, 1
	octave 4
	note C_, 2
	note D_, 2
	note E_, 2
	octave 3
	note G_, 2
	note E_, 4
	octave 4
	note E_, 4
	octave 3
	note E_, 4
	octave 4
	note E_, 4
	note F_, 1
	note G_, 1
	note F_, 2
	note E_, 2
	note D_, 2
	note C_, 2
	note D_, 2
	note E_, 2
	octave 3
	note G_, 2
	note E_, 4
	octave 4
	note E_, 4
	octave 3
	note E_, 4
	octave 4
	note E_, 4
	note F_, 1
	note G_, 1
	note F_, 2
	note E_, 2
	note D_, 1
	octave 3
	note A_, 1
	octave 4
	note C_, 2
	note D_, 2
	note E_, 2
	octave 3
	note G_, 2
	dutycycle 0
	tone $0000
	intensity $D3
	octave 4
	note C_, 4
	octave 3
	note A_, 4
	note B_, 4
	octave 4
	note C_, 4
	octave 3
	note A_, 4
	note G_, 4
	note E_, 4
	note G_, 4
	octave 4
	note C_, 4
	octave 3
	note A_, 4
	note B_, 4
	octave 4
	note C_, 4
	octave 3
	note A_, 4
	octave 4
	note C_, 4
	octave 3
	note B_, 4
	octave 4
	note D_, 4
	note C_, 4
	octave 3
	note A_, 4
	note B_, 4
	octave 4
	note C_, 4
	octave 3
	note A_, 4
	note G_, 4
	note E_, 4
	note G_, 4
	octave 4
	note C_, 4
	octave 3
	note A_, 4
	note B_, 4
	octave 4
	note C_, 4
	octave 3
	note A_, 4
	octave 4
	note C_, 4
	octave 3
	note B_, 4
	octave 4
	note D_, 4
	dutycycle 1
	intensity $A1
	octave 3
	note F_, 2
	note D_, 1
	note E_, 1
	note F_, 2
	note D_, 1
	note E_, 1
	note F_, 2
	note D_, 1
	note E_, 1
	note F_, 2
	note D_, 1
	note E_, 1
	note G_, 2
	note E_, 1
	note F_, 1
	note G_, 2
	note E_, 1
	note F_, 1
	note G_, 2
	note E_, 1
	note F_, 1
	note G_, 2
	note E_, 1
	note F_, 1
	dutycycle 2
	intensity $A3
	octave 2
	note A_, 4
	octave 3
	note C_, 4
	note D_, 4
	note G_, 4
	note A_, 4
	note B_, 4
	octave 4
	note C_, 4
	note D_, 4
	dutycycle 1
	intensity $A1
	octave 3
	note F_, 2
	note D_, 1
	note E_, 1
	note F_, 2
	note D_, 1
	note E_, 1
	note F_, 2
	note D_, 1
	note E_, 1
	note F_, 2
	note D_, 1
	note E_, 1
	note G_, 2
	note E_, 1
	note F_, 1
	note G_, 2
	note E_, 1
	note F_, 1
	note G_, 2
	note E_, 1
	note F_, 1
	note G_, 2
	note E_, 1
	note F_, 1
	dutycycle 2
	intensity $A3
	note A_, 4
	note G_, 4
	note A_, 4
	note B_, 4
	note A_, 4
	note D_, 4
	note E_, 4
	octave 4
	note D_, 4
	loopchannel 0, Music_OrangeIslandsGymBattle_Ch1_loop

Music_OrangeIslandsGymBattle_Ch2:
	dutycycle 1
	octave 5
	notetype $C, $D1
	note C#, 1
	note C_, 1
	octave 4
	note B_, 1
	octave 5
	note C#, 1
	octave 4
	note B_, 1
	note A#, 1
	octave 5
	note C#, 1
	octave 4
	note A#, 1
	note A_, 1
	octave 5
	note C#, 1
	octave 4
	note A_, 1
	note G#, 1
	octave 5
	note C#, 1
	octave 4
	note G#, 1
	note G_, 1
	octave 5
	note C#, 1
	octave 4
	note G_, 1
	note F#, 1
	octave 5
	note C#, 1
	octave 4
	note F#, 1
	note F_, 1
	octave 5
	note C#, 1
	octave 4
	note F_, 1
	note E_, 1
	intensity $D0
	octave 3
	note G#, 2
	intensity $D2
	octave 4
	note C#, 4
	intensity $D5
	octave 3
	note G#, 6
	note B_, 4
	note A_, 4
	note G#, 4
	note F#, 4
	note A_, 4
	intensity $D7
	vibrato $04, $24
	note G#, 16
	vibrato $00, $00
	note F_, 4
	note F#, 4
	octave 2
	note B_, 4
	intensity $D4
	octave 3
	note C_, 4
	intensity $D0
	note A_, 2
	intensity $D2
	octave 4
	note D_, 4
	intensity $D5
	octave 3
	note A_, 6
	octave 4
	note C_, 4
	octave 3
	note A#, 4
	note A_, 4
	note G_, 4
	note A#, 4
	intensity $D7
	vibrato $08, $24
	note A_, 16
	note G_, 8
	intensity $D4
	note E_, 8
Music_OrangeIslandsGymBattle_Ch2_loop:
	dutycycle 1
	octave 3
	intensity $D2
	vibrato $00, $00
	note F_, 4
	note D_, 2
	note F_, 2
	note G_, 4
	note A_, 4
	octave 4
	note D_, 2
	octave 3
	note A_, 2
	note G_, 2
	note F_, 2
	note E_, 2
	note D_, 2
	note E_, 2
	note C_, 2
	intensity $D5
	note F_, 6
	note D_, 6
	intensity $D3
	note F_, 4
	note E_, 4
	note G_, 4
	note A_, 4
	octave 4
	note C_, 4
	dutycycle 2
	intensity $D2
	note F_, 4
	note D_, 2
	note F_, 2
	note G_, 4
	note A_, 4
	octave 5
	note D_, 2
	octave 4
	note A_, 2
	note G_, 2
	note F_, 2
	note E_, 2
	note D_, 2
	note E_, 2
	note C_, 2
	intensity $D3
	note E_, 4
	note D_, 4
	octave 3
	note A_, 4
	dutycycle 1
	note G_, 4
	note E_, 4
	octave 2
	note A_, 4
	note G_, 4
	note A#, 2
	note B_, 2
	intensity $D7
	octave 3
	note E_, 16
	note F_, 8
	note D_, 8
	note E_, 16
	note G_, 8
	note F_, 8
	note E_, 16
	note F_, 8
	note D_, 8
	note E_, 16
	note G_, 8
	intensity $4D
	note G#, 8
	intensity $D2
	note A_, 2
	note __, 2
	intensity $D4
	note E_, 2
	intensity $D2
	note A_, 2
	note __, 4
	octave 4
	note C_, 2
	intensity $D1
	octave 3
	note B_, 1
	octave 4
	note C_, 1
	note D_, 2
	note C_, 2
	octave 3
	note B_, 2
	octave 4
	note D_, 1
	octave 3
	note B_, 1
	note A_, 2
	note G_, 1
	note D_, 1
	note G_, 2
	note B_, 2
	intensity $D2
	note A_, 2
	note __, 2
	intensity $D4
	note E_, 2
	intensity $D2
	note A_, 2
	note __, 4
	note A_, 2
	intensity $D1
	note B_, 1
	octave 4
	note C_, 1
	note D_, 2
	note C_, 2
	octave 3
	note B_, 2
	octave 4
	note D_, 1
	octave 3
	note B_, 1
	note A_, 1
	note G_, 1
	note A_, 1
	note B_, 1
	octave 4
	note C_, 1
	octave 3
	note B_, 1
	note A_, 1
	note G_, 1
	intensity $D2
	note A_, 2
	note __, 2
	intensity $D4
	note E_, 2
	intensity $D2
	note A_, 2
	note __, 4
	octave 4
	note C_, 2
	intensity $D1
	octave 3
	note B_, 1
	octave 4
	note C_, 1
	note D_, 2
	note C_, 2
	octave 3
	note B_, 2
	octave 4
	note D_, 1
	octave 3
	note B_, 1
	note A_, 2
	note G_, 1
	note D_, 1
	note G_, 2
	note B_, 2
	intensity $D2
	note A_, 2
	note __, 2
	intensity $D4
	note E_, 2
	intensity $D2
	note A_, 2
	note __, 4
	note A_, 2
	intensity $D1
	note B_, 1
	octave 4
	note C_, 1
	note D_, 2
	note C_, 2
	octave 3
	note B_, 2
	octave 4
	note D_, 1
	octave 3
	note B_, 1
	note A_, 1
	note G_, 1
	note A_, 1
	note B_, 1
	octave 4
	note C_, 1
	note D_, 1
	note E_, 1
	note G_, 1
	intensity $D7
	vibrato $00, $24
	note A_, 8
	note G_, 8
	note F_, 8
	note G_, 8
	note A_, 8
	note G_, 8
	note F_, 8
	note E_, 8
	octave 3
	note A_, 8
	note G_, 8
	note F_, 8
	note G_, 8
	note A_, 8
	note G_, 8
	note F_, 8
	note E_, 8
	note C_, 6
	octave 2
	note A_, 6
	octave 3
	note C_, 4
	note D_, 6
	octave 2
	note G_, 6
	octave 3
	note D_, 4
	note E_, 6
	octave 2
	note A_, 6
	octave 3
	note E_, 4
	note F_, 4
	note G_, 4
	note A_, 4
	octave 2
	note B_, 4
	octave 3
	note C_, 6
	octave 2
	note A_, 6
	octave 3
	note C_, 4
	note D_, 6
	octave 2
	note G_, 6
	octave 3
	note D_, 4
	note E_, 8
	octave 2
	note B_, 8
	octave 3
	note C_, 8
	octave 2
	note G_, 8
	loopchannel 0, Music_OrangeIslandsGymBattle_Ch2_loop

Music_OrangeIslandsGymBattle_Ch3:
	dutycycle 4
	octave 4
	notetype $C, $14
	note C#, 1
	octave 3
	note C#, 1
	octave 4
	note C#, 1
	note C_, 1
	octave 3
	note C_, 1
	octave 4
	note C_, 1
	octave 3
	note B_, 1
	octave 2
	note B_, 1
	octave 3
	note B_, 1
	note A#, 1
	octave 2
	note A#, 1
	octave 3
	note A#, 1
	note A_, 1
	octave 2
	note A_, 1
	octave 3
	note A_, 1
	note G#, 1
	octave 2
	note G#, 1
	octave 3
	note G#, 1
	note G_, 1
	octave 2
	note F#, 1
	octave 3
	note G_, 1
	note F#, 1
	octave 2
	note F_, 1
	octave 3
	note F#, 1
	octave 2
	note C#, 2
	octave 3
	note C#, 2
	octave 2
	note C#, 2
	octave 3
	note C#, 2
	octave 2
	note E_, 2
	octave 3
	note E_, 2
	octave 2
	note E_, 2
	octave 3
	note E_, 2
	octave 2
	note C#, 2
	octave 3
	note C#, 2
	octave 2
	note C#, 2
	octave 3
	note C#, 2
	octave 2
	note E_, 2
	octave 3
	note E_, 2
	octave 2
	note E_, 2
	octave 3
	note E_, 2
	octave 2
	note C#, 2
	octave 3
	note C#, 2
	octave 2
	note C#, 2
	octave 3
	note C#, 2
	octave 2
	note E_, 2
	octave 3
	note E_, 2
	octave 2
	note E_, 2
	octave 3
	note E_, 2
	octave 2
	note C#, 2
	octave 3
	note C#, 2
	octave 2
	note C#, 2
	octave 3
	note C#, 2
	octave 2
	note E_, 2
	octave 3
	note E_, 2
	octave 2
	note E_, 2
	octave 3
	note F_, 2
	octave 2
	note D_, 2
	octave 3
	note D_, 2
	octave 2
	note D_, 2
	octave 3
	note D_, 2
	octave 2
	note F_, 2
	octave 3
	note F_, 2
	octave 2
	note F_, 2
	octave 3
	note F_, 2
	octave 2
	note D_, 2
	octave 3
	note D_, 2
	octave 2
	note D_, 2
	octave 3
	note D_, 2
	octave 2
	note F_, 2
	octave 3
	note F_, 2
	octave 2
	note F_, 2
	octave 3
	note F_, 2
	octave 2
	note D_, 2
	octave 3
	note D_, 2
	octave 2
	note D_, 2
	octave 3
	note D_, 2
	octave 2
	note F_, 2
	octave 3
	note F_, 2
	octave 2
	note F_, 2
	octave 3
	note F_, 2
	octave 2
	note D_, 2
	octave 3
	note D_, 2
	octave 2
	note D_, 2
	octave 3
	note D_, 2
	octave 2
	note C_, 2
	octave 3
	note C_, 2
	octave 2
	note C_, 2
	octave 3
	note C_, 2
Music_OrangeIslandsGymBattle_Ch3_loop:
	octave 2
	note D_, 2
	octave 3
	note D_, 2
	octave 2
	note D_, 2
	octave 3
	note D_, 2
	octave 2
	note D_, 2
	octave 3
	note D_, 2
	octave 2
	note D_, 2
	octave 3
	note D_, 2
	octave 2
	note F_, 2
	octave 3
	note F_, 2
	octave 2
	note F_, 2
	octave 3
	note F_, 2
	octave 2
	note C_, 2
	octave 3
	note C_, 2
	octave 2
	note C_, 2
	octave 3
	note C_, 2
	octave 2
	note D_, 2
	octave 3
	note D_, 2
	octave 2
	note D_, 2
	octave 3
	note D_, 2
	octave 2
	note D_, 2
	octave 3
	note D_, 2
	octave 2
	note D_, 2
	octave 3
	note D_, 2
	octave 2
	note G_, 2
	octave 3
	note G_, 2
	octave 2
	note G_, 2
	octave 3
	note G_, 2
	octave 2
	note G_, 2
	octave 3
	note G_, 2
	octave 2
	note G_, 2
	octave 3
	note G_, 2
	octave 2
	note D_, 2
	octave 3
	note D_, 2
	octave 2
	note D_, 2
	octave 3
	note D_, 2
	octave 2
	note D_, 2
	octave 3
	note D_, 2
	octave 2
	note D_, 2
	octave 3
	note D_, 2
	octave 2
	note F_, 2
	octave 3
	note F_, 2
	octave 2
	note F_, 2
	octave 3
	note F_, 2
	octave 2
	note C_, 2
	octave 3
	note C_, 2
	octave 2
	note C_, 2
	octave 3
	note C_, 2
	octave 2
	note D_, 2
	octave 3
	note D_, 2
	octave 2
	note D_, 2
	octave 3
	note D_, 2
	octave 2
	note D_, 2
	octave 3
	note D_, 2
	octave 2
	note D_, 2
	octave 3
	note D_, 2
	octave 2
	note G_, 2
	octave 3
	note G_, 2
	octave 2
	note G_, 2
	octave 3
	note G_, 2
	octave 2
	note G_, 2
	octave 3
	note G_, 2
	octave 2
	note G_, 2
	octave 3
	note G_, 2
	octave 2
	note E_, 2
	octave 3
	note E_, 2
	octave 2
	note E_, 2
	octave 3
	note E_, 2
	octave 2
	note E_, 2
	octave 3
	note E_, 2
	octave 2
	note E_, 2
	octave 3
	note E_, 2
	octave 2
	note F_, 2
	octave 3
	note F_, 2
	octave 2
	note F_, 2
	octave 3
	note F_, 2
	octave 2
	note D_, 2
	octave 3
	note D_, 2
	octave 2
	note D_, 2
	octave 3
	note D_, 2
	octave 2
	note E_, 2
	octave 3
	note E_, 2
	octave 2
	note E_, 2
	octave 3
	note E_, 2
	octave 2
	note E_, 2
	octave 3
	note E_, 2
	octave 2
	note E_, 2
	octave 3
	note E_, 2
	octave 2
	note G_, 2
	octave 3
	note G_, 2
	octave 2
	note G_, 2
	octave 3
	note G_, 2
	octave 2
	note D_, 2
	octave 3
	note D_, 2
	octave 2
	note D_, 2
	octave 3
	note D_, 2
	octave 2
	note E_, 2
	octave 3
	note E_, 2
	octave 2
	note E_, 2
	octave 3
	note E_, 2
	octave 2
	note E_, 2
	octave 3
	note E_, 2
	octave 2
	note E_, 2
	octave 3
	note E_, 2
	octave 2
	note F_, 2
	octave 3
	note F_, 2
	octave 2
	note F_, 2
	octave 3
	note F_, 2
	octave 2
	note D_, 2
	octave 3
	note D_, 2
	octave 2
	note D_, 2
	octave 3
	note D_, 2
	octave 2
	note E_, 2
	octave 3
	note E_, 2
	octave 2
	note E_, 2
	octave 3
	note E_, 2
	octave 2
	note E_, 2
	octave 3
	note E_, 2
	octave 2
	note E_, 2
	octave 3
	note E_, 2
	octave 2
	note G_, 2
	octave 3
	note G_, 2
	octave 2
	note G_, 2
	octave 3
	note G_, 2
	octave 2
	note G#, 2
	octave 3
	note G#, 2
	octave 2
	note G#, 2
	octave 3
	note G#, 2
	octave 2
	note A_, 2
	octave 3
	note A_, 2
	note A_, 2
	octave 2
	note A_, 2
	octave 3
	note A_, 2
	octave 2
	note A_, 2
	note A_, 2
	octave 3
	note A_, 2
	octave 2
	note A_, 2
	octave 3
	note A_, 2
	note A_, 2
	octave 2
	note A_, 2
	note A_, 2
	octave 3
	note A_, 2
	octave 2
	note A_, 2
	octave 3
	note A_, 2
	octave 2
	note A_, 2
	octave 3
	note A_, 2
	note A_, 2
	octave 2
	note A_, 2
	octave 3
	note A_, 2
	octave 2
	note A_, 2
	note A_, 2
	octave 3
	note A_, 2
	octave 2
	note A_, 2
	octave 3
	note A_, 2
	note A_, 2
	octave 2
	note A_, 2
	note A_, 2
	octave 3
	note A_, 2
	octave 2
	note A_, 2
	octave 3
	note A_, 2
	octave 2
	note A_, 2
	octave 3
	note A_, 2
	note A_, 2
	octave 2
	note A_, 2
	octave 3
	note A_, 2
	octave 2
	note A_, 2
	note A_, 2
	octave 3
	note A_, 2
	octave 2
	note A_, 2
	octave 3
	note A_, 2
	note A_, 2
	octave 2
	note A_, 2
	note A_, 2
	octave 3
	note A_, 2
	octave 2
	note A_, 2
	octave 3
	note A_, 2
	octave 2
	note A_, 2
	octave 3
	note A_, 2
	note A_, 2
	octave 2
	note A_, 2
	octave 3
	note A_, 2
	octave 2
	note A_, 2
	note A_, 2
	octave 3
	note A_, 2
	octave 2
	note A_, 2
	octave 3
	note A_, 2
	note A_, 2
	octave 2
	note A_, 2
	note A_, 2
	octave 3
	note A_, 2
	octave 2
	note A_, 2
	octave 3
	note A_, 2
	octave 2
	note A_, 4
	octave 3
	note A_, 4
	octave 2
	note G_, 4
	octave 3
	note G_, 4
	octave 2
	note F_, 4
	octave 3
	note F_, 4
	octave 2
	note G_, 4
	octave 3
	note G_, 4
	octave 2
	note A_, 4
	octave 3
	note A_, 4
	octave 2
	note G_, 4
	octave 3
	note G_, 4
	octave 2
	note F_, 4
	octave 3
	note F_, 4
	octave 2
	note G_, 4
	octave 3
	note G_, 4
	octave 2
	note A_, 4
	octave 3
	note A_, 4
	octave 2
	note G_, 4
	octave 3
	note G_, 4
	octave 2
	note F_, 4
	octave 3
	note F_, 4
	octave 2
	note G_, 4
	octave 3
	note G_, 4
	octave 2
	note A_, 4
	octave 3
	note A_, 4
	octave 2
	note G_, 4
	octave 3
	note G_, 4
	octave 2
	note F_, 2
	octave 3
	note F_, 2
	octave 2
	note F_, 2
	octave 3
	note F_, 2
	octave 2
	note E_, 2
	octave 3
	note E_, 2
	octave 2
	note E_, 2
	octave 3
	note E_, 2
	octave 2
	note C_, 2
	octave 3
	note C_, 2
	octave 2
	note C_, 2
	octave 3
	note C_, 2
	octave 2
	note C_, 2
	octave 3
	note C_, 2
	octave 2
	note C_, 2
	octave 3
	note C_, 2
	octave 2
	note D_, 2
	octave 3
	note D_, 2
	octave 2
	note D_, 2
	octave 3
	note D_, 2
	octave 2
	note D_, 2
	octave 3
	note D_, 2
	octave 2
	note D_, 2
	octave 3
	note D_, 2
	octave 2
	note E_, 2
	octave 3
	note E_, 2
	octave 2
	note E_, 2
	octave 3
	note E_, 2
	octave 2
	note E_, 2
	octave 3
	note E_, 2
	octave 2
	note E_, 2
	octave 3
	note E_, 2
	octave 2
	note G_, 2
	octave 3
	note G_, 2
	octave 2
	note G_, 2
	octave 3
	note G_, 2
	octave 2
	note G_, 2
	octave 3
	note G_, 2
	octave 2
	note G_, 2
	octave 3
	note G_, 2
	octave 2
	note C_, 2
	octave 3
	note C_, 2
	octave 2
	note C_, 2
	octave 3
	note C_, 2
	octave 2
	note C_, 2
	octave 3
	note C_, 2
	octave 2
	note C_, 2
	octave 3
	note C_, 2
	octave 2
	note D_, 2
	octave 3
	note D_, 2
	octave 2
	note D_, 2
	octave 3
	note D_, 2
	octave 2
	note D_, 2
	octave 3
	note D_, 2
	octave 2
	note D_, 2
	octave 3
	note D_, 2
	octave 2
	note A_, 2
	octave 3
	note A_, 2
	octave 2
	note A_, 2
	octave 3
	note A_, 2
	octave 2
	note G_, 2
	octave 3
	note G_, 2
	octave 2
	note G_, 2
	octave 3
	note G_, 2
	octave 2
	note F_, 2
	octave 3
	note F_, 2
	octave 2
	note F_, 2
	octave 3
	note F_, 2
	octave 2
	note C_, 2
	octave 3
	note C_, 2
	octave 2
	note C_, 2
	octave 3
	note C_, 2
	loopchannel 0, Music_OrangeIslandsGymBattle_Ch3_loop

Music_OrangeIslandsGymBattle_Ch4:
	togglenoise 3
	notetype $C
	note D_, 1
	note __, 2
	note D_, 1
	note __, 2
	note D_, 1
	note __, 2
	note D_, 1
	note C#, 1
	note C#, 1
	note C_, 1
	note C#, 1
	note C#, 1
	note C_, 1
	note C#, 1
	note C#, 1
	note C_, 1
	note C#, 1
	note C#, 1
	note C_, 1
	note C#, 1
	note C#, 1
	note D#, 2
	note D#, 2
	note C_, 2
	note C#, 2
	note D#, 2
	note D#, 2
	note C_, 2
	note C#, 2
	note D#, 2
	note D#, 2
	note C_, 2
	note C#, 1
	note C#, 1
	note D#, 2
	note D#, 2
	note C_, 2
	note C#, 2
	note D#, 2
	note D#, 2
	note C_, 2
	note C#, 2
	note D#, 2
	note D#, 2
	note C_, 2
	note C#, 2
	note D#, 2
	note D#, 2
	note C_, 2
	note C#, 1
	note C#, 1
	note D#, 2
	note D#, 2
	note C_, 2
	note C#, 2
	note D#, 2
	note D#, 2
	note C_, 2
	note C#, 2
	note D#, 2
	note D#, 2
	note C_, 2
	note C#, 2
	note D#, 2
	note D#, 2
	note C_, 2
	note C#, 1
	note C#, 1
	note D#, 2
	note D#, 2
	note C_, 2
	note C#, 2
	note D#, 2
	note D#, 2
	note C_, 2
	note C#, 2
	note D#, 2
	note D#, 2
	note C_, 2
	note C#, 2
	note D#, 2
	note D#, 2
	note C_, 2
	note C#, 1
	note C#, 1
	note D#, 2
	note D#, 2
	note C_, 2
	note C#, 2
Music_OrangeIslandsGymBattle_Ch4_loop:
	note B_, 2
	note D#, 2
	note C_, 2
	note C#, 1
	note C#, 1
	note D#, 2
	note D#, 2
	note C_, 2
	note D#, 2
	note D#, 2
	note D#, 2
	note C_, 2
	note C#, 1
	note C#, 1
	note D#, 2
	note D#, 2
	note C_, 2
	note C#, 2
	note B_, 2
	note D#, 2
	note C_, 2
	note C#, 1
	note C#, 1
	note D#, 2
	note D#, 2
	note C_, 2
	note D#, 2
	note D#, 2
	note D#, 2
	note C_, 2
	note C#, 1
	note C#, 1
	note D#, 2
	note C_, 2
	note D#, 2
	note C_, 2
	note B_, 2
	note D#, 2
	note C_, 2
	note C#, 1
	note C#, 1
	note D#, 2
	note D#, 2
	note C_, 2
	note D#, 2
	note D#, 2
	note D#, 2
	note C_, 2
	note C#, 1
	note C#, 1
	note D#, 2
	note D#, 2
	note C_, 2
	note C#, 2
	note B_, 2
	note D#, 2
	note C_, 2
	note C#, 1
	note C#, 1
	note D#, 2
	note D#, 2
	note C_, 2
	note D#, 2
	note D#, 2
	note D#, 2
	note C_, 2
	note C#, 1
	note C#, 1
	note D#, 2
	note C_, 2
	note D#, 2
	note C_, 2
	note B_, 8
	note __, 8
	note D#, 2
	note __, 2
	note C_, 2
	note __, 2
	note D#, 2
	note D#, 2
	note C#, 1
	note C#, 1
	note C#, 1
	note C#, 1
	note B_, 8
	note __, 8
	note D#, 2
	note __, 2
	note C_, 2
	note __, 2
	note D#, 2
	note C#, 2
	note C_, 2
	note C_, 2
	note B_, 8
	note __, 8
	note D#, 2
	note __, 2
	note C_, 2
	note __, 2
	note D#, 2
	note D#, 2
	note C#, 1
	note C#, 1
	note C#, 1
	note C#, 1
	note B_, 8
	note __, 8
	note C_, 4
	note C_, 4
	note C_, 2
	note C_, 2
	note C#, 1
	note C#, 1
	note C#, 1
	note C#, 1
	note B_, 2
	note D#, 2
	note C_, 2
	note C#, 1
	note C#, 1
	note D#, 2
	note D#, 2
	note C_, 2
	note D#, 2
	note D#, 2
	note D#, 2
	note C_, 2
	note C#, 1
	note C#, 1
	note D#, 2
	note C_, 2
	note D#, 2
	note C_, 2
	note B_, 2
	note D#, 2
	note C_, 2
	note C#, 1
	note C#, 1
	note D#, 2
	note D#, 2
	note C_, 2
	note D#, 2
	note D#, 2
	note D#, 2
	note C_, 2
	note C#, 1
	note C#, 1
	note D#, 2
	note C_, 2
	note D#, 2
	note C_, 2
	note B_, 2
	note D#, 2
	note C_, 2
	note C#, 1
	note C#, 1
	note D#, 2
	note D#, 2
	note C_, 2
	note D#, 2
	note D#, 2
	note D#, 2
	note C_, 2
	note C#, 1
	note C#, 1
	note D#, 2
	note C_, 2
	note D#, 2
	note C_, 2
	note B_, 2
	note D#, 2
	note C_, 2
	note C#, 1
	note C#, 1
	note D#, 2
	note D#, 2
	note C_, 2
	note D#, 2
	note D#, 2
	note D#, 2
	note C_, 2
	note C#, 1
	note C#, 1
	note D#, 2
	note C_, 2
	note D#, 2
	note C_, 2
	note B_, 4
	note __, 4
	note B_, 4
	note __, 4
	note B_, 4
	note __, 4
	note B_, 4
	note C_, 2
	note C_, 2
	note B_, 4
	note __, 4
	note B_, 4
	note __, 4
	note B_, 4
	note __, 4
	note B_, 4
	note C_, 2
	note C#, 1
	note C#, 1
	note B_, 4
	note __, 4
	note B_, 4
	note __, 4
	note B_, 4
	note __, 4
	note B_, 4
	note C_, 2
	note C_, 2
	note B_, 4
	note __, 4
	note B_, 4
	note __, 4
	note C_, 2
	note C_, 2
	note D#, 2
	note D#, 2
	note D_, 1
	note D_, 1
	note D_, 1
	note D_, 1
	note C#, 1
	note C#, 1
	note C#, 1
	note C#, 1
	note D#, 2
	note D#, 2
	note C_, 2
	note C#, 2
	note D#, 2
	note D#, 2
	note C_, 2
	note C#, 2
	note D#, 2
	note D#, 2
	note C_, 2
	note C#, 1
	note C#, 1
	note D#, 2
	note D#, 2
	note C_, 2
	note C#, 2
	note D#, 2
	note D#, 2
	note C_, 2
	note C#, 2
	note D#, 2
	note D#, 2
	note C_, 2
	note C#, 2
	note D#, 2
	note D#, 2
	note C_, 2
	note C#, 1
	note C#, 1
	note D#, 2
	note D#, 2
	note C_, 2
	note C#, 2
	note D#, 2
	note D#, 2
	note C_, 2
	note C#, 2
	note D#, 2
	note D#, 2
	note C_, 2
	note C#, 2
	note D#, 2
	note D#, 2
	note C_, 2
	note C#, 1
	note C#, 1
	note D#, 2
	note D#, 2
	note C_, 2
	note C#, 2
	note D#, 2
	note D#, 2
	note C_, 2
	note C#, 2
	note D#, 2
	note D#, 2
	note C_, 2
	note C#, 2
	note D#, 2
	note D#, 2
	note C_, 2
	note C#, 1
	note C#, 1
	note D#, 2
	note D#, 2
	note C_, 2
	note C#, 2
	loopchannel 0, Music_OrangeIslandsGymBattle_Ch4_loop

