Music_OrangeDive:
	musicheader 4, 1, Music_OrangeDive_Ch1
	musicheader 1, 2, Music_OrangeDive_Ch2
	musicheader 1, 3, Music_OrangeDive_Ch3
	musicheader 1, 4, Music_OrangeDive_Ch4

Music_OrangeDive_Ch1:
	tempo $80
	volume $77
	stereopanning $f0
	dutycycle 2
	octave 2
	notetype $C, $A4
	note F#, 4
	note G#, 4
	note A#, 4
	octave 3
	note C#, 4
	note C_, 4
	octave 2
	note G#, 4
	octave 3
	note C_, 4
	note C#, 4
	octave 2
	note A#, 4
	note G#, 4
	note A#, 4
	note F#, 4
	note A#, 4
	note G#, 4
	note A#, 4
	note F#, 4
	note G#, 4
	note F#, 4
	note D#, 4
	note F#, 4
	note G#, 4
	note F#, 4
	note G#, 4
	note D#, 4
	note D_, 4
	note F#, 4
	note G#, 4
	note A_, 4
	note G#, 4
	note F#, 4
	note D_, 4
	note F#, 4
	intensity $A3
	note F#, 2
	intensity $85
	octave 1
	note F#, 2
	intensity $A3
	octave 2
	note C#, 2
	note F#, 2
	intensity $85
	octave 1
	note F#, 2
	intensity $A3
	octave 2
	note C#, 2
	note F#, 2
	intensity $85
	note C#, 2
	intensity $A3
	octave 1
	note F#, 2
	octave 2
	note C#, 2
	note F#, 2
	intensity $85
	octave 1
	note F#, 2
	intensity $A3
	octave 2
	note D#, 2
	note G#, 2
	intensity $85
	octave 1
	note F#, 2
	intensity $A3
	octave 2
	note D#, 2
	note F#, 2
	intensity $85
	octave 1
	note F#, 2
	intensity $A3
	octave 2
	note D_, 2
	note F#, 2
	intensity $85
	octave 1
	note F#, 2
	intensity $A3
	octave 2
	note D_, 2
	octave 1
	note A#, 2
	intensity $85
	note F#, 2
	intensity $A3
	octave 2
	note C#, 2
	octave 1
	note A#, 2
	octave 2
	note F#, 2
	intensity $85
	octave 1
	note F#, 2
	intensity $A3
	octave 2
	note C#, 2
	note F#, 2
	intensity $85
	octave 1
	note F#, 2
	intensity $A3
	octave 2
	note C#, 2
Music_OrangeDive_Ch1_loop:
	vibrato $00, $00
	notetype $C, $A3
	dutycycle 2
	octave 2
	note F#, 2
	intensity $85
	octave 1
	note F#, 2
	intensity $A3
	octave 2
	note C#, 2
	note F#, 2
	intensity $85
	octave 1
	note F#, 2
	intensity $A3
	octave 2
	note C#, 2
	note F#, 2
	intensity $85
	note C#, 2
	intensity $A3
	octave 1
	note F#, 2
	octave 2
	note C#, 2
	note F#, 2
	intensity $85
	octave 1
	note F#, 2
	intensity $A3
	octave 2
	note D#, 2
	note G#, 2
	intensity $85
	octave 1
	note F#, 2
	intensity $A3
	octave 2
	note D#, 2
	note F#, 2
	intensity $85
	octave 1
	note F#, 2
	intensity $A3
	octave 2
	note D_, 2
	note F#, 2
	intensity $85
	octave 1
	note F#, 2
	intensity $A3
	octave 2
	note D_, 2
	octave 1
	note A#, 2
	intensity $85
	note F#, 2
	intensity $A3
	octave 2
	note C#, 2
	octave 1
	note A#, 2
	octave 2
	note F#, 2
	intensity $85
	octave 1
	note F#, 2
	intensity $A3
	octave 2
	note C#, 2
	note F#, 2
	intensity $85
	octave 1
	note F#, 2
	intensity $A3
	octave 2
	note C#, 2
	note F#, 2
	intensity $85
	octave 1
	note F#, 2
	intensity $A3
	octave 2
	note C#, 2
	note F#, 2
	intensity $85
	octave 1
	note F#, 2
	intensity $A3
	octave 2
	note C#, 2
	note F#, 2
	intensity $85
	note C#, 2
	intensity $A3
	octave 1
	note F#, 2
	octave 2
	note C#, 2
	note F#, 2
	intensity $85
	octave 1
	note F#, 2
	intensity $A3
	octave 2
	note D#, 2
	note G#, 2
	intensity $85
	octave 1
	note F#, 2
	intensity $A3
	octave 2
	note D#, 2
	note F#, 2
	intensity $85
	octave 1
	note F#, 2
	intensity $A3
	octave 2
	note D_, 2
	note F#, 2
	intensity $85
	octave 1
	note F#, 2
	intensity $A3
	octave 2
	note D_, 2
	note F#, 2
	note G#, 2
	note A_, 2
	note G#, 2
	note D_, 2
	intensity $85
	octave 1
	note A_, 2
	intensity $A3
	octave 2
	note D_, 2
	note F#, 2
	intensity $85
	octave 1
	note A_, 2
	intensity $A3
	octave 2
	note D_, 2
	note F#, 2
	intensity $85
	octave 1
	note F#, 2
	intensity $A3
	octave 2
	note C#, 2
	note F#, 2
	intensity $85
	octave 1
	note F#, 2
	intensity $A3
	octave 2
	note C#, 2
	note F#, 2
	intensity $85
	note C#, 2
	intensity $A3
	octave 1
	note F#, 2
	note A#, 2
	octave 2
	note F#, 2
	intensity $85
	octave 1
	note F#, 2
	intensity $A3
	octave 2
	note C#, 2
	note F#, 2
	intensity $85
	octave 1
	note F#, 2
	intensity $A3
	octave 2
	note C#, 2
	note D_, 2
	intensity $85
	octave 1
	note D_, 2
	octave 2
	note F#, 2
	intensity $A3
	note D_, 2
	intensity $85
	octave 1
	note D_, 2
	octave 2
	note F#, 2
	intensity $A3
	note D_, 2
	note F#, 2
	note G#, 2
	note F#, 2
	note E_, 2
	intensity $85
	octave 1
	note E_, 2
	intensity $A3
	octave 2
	note E_, 2
	note G#, 2
	intensity $85
	octave 1
	note E_, 2
	intensity $A3
	octave 2
	note E_, 2
	note F#, 2
	intensity $85
	octave 1
	note F#, 2
	intensity $A3
	octave 2
	note C#, 2
	note F#, 2
	intensity $85
	octave 1
	note F#, 2
	intensity $A3
	octave 2
	note C#, 2
	note F#, 2
	intensity $85
	note C#, 2
	intensity $A3
	octave 1
	note F#, 2
	note A#, 2
	octave 2
	note F#, 2
	intensity $85
	octave 1
	note F#, 2
	intensity $A3
	octave 2
	note C#, 2
	note F#, 2
	intensity $85
	octave 1
	note F#, 2
	intensity $A3
	octave 2
	note C#, 2
	note D_, 2
	intensity $85
	octave 1
	note D_, 2
	octave 2
	note F#, 2
	intensity $A3
	note D_, 2
	intensity $85
	octave 1
	note D_, 2
	octave 2
	note F#, 2
	intensity $A3
	note D_, 2
	note F#, 2
	note G#, 4
	note F#, 2
	intensity $85
	octave 1
	note E_, 2
	intensity $A3
	octave 2
	note E_, 4
	intensity $85
	octave 1
	note E_, 2
	intensity $A3
	note B_, 2
	dutycycle 0
	intensity $78
	octave 2
	note C#, 8
	octave 1
	note A#, 8
	note F#, 8
	note D#, 8
	note __, 16
	note __, 16
	dutycycle 2
	intensity $68
	note B_, 2
	dutycycle 1
	intensity $74
	octave 3
	note B_, 2
	octave 4
	note D#, 2
	note F#, 2
	note B_, 2
	octave 3
	note B_, 2
	intensity $54
	octave 4
	note B_, 2
	octave 3
	note B_, 2
	intensity $44
	octave 4
	note B_, 2
	octave 3
	note B_, 2
	intensity $36
	octave 4
	note B_, 2
	octave 3
	note B_, 2
	octave 4
	note B_, 2
	octave 3
	note B_, 2
	intensity $26
	octave 4
	note F#, 2
	octave 3
	note B_, 2
	dutycycle 2
	intensity $68
	octave 1
	note A#, 2
	dutycycle 1
	intensity $74
	octave 3
	note A#, 2
	octave 4
	note D_, 2
	note F_, 2
	note A#, 2
	octave 3
	note A#, 2
	intensity $54
	octave 4
	note A#, 2
	octave 3
	note A#, 2
	intensity $44
	octave 4
	note A#, 2
	octave 3
	note A#, 2
	intensity $36
	octave 4
	note A#, 2
	octave 3
	note A#, 2
	octave 4
	note A#, 2
	octave 3
	note A#, 2
	intensity $26
	octave 4
	note F_, 2
	octave 3
	note A#, 2
	dutycycle 2
	intensity $68
	octave 1
	note B_, 2
	dutycycle 1
	intensity $74
	octave 3
	note B_, 2
	octave 4
	note D#, 2
	note F#, 2
	note B_, 2
	octave 3
	note B_, 2
	intensity $54
	octave 4
	note B_, 2
	octave 3
	note B_, 2
	intensity $44
	octave 4
	note B_, 2
	octave 3
	note B_, 2
	intensity $36
	octave 4
	note B_, 2
	octave 3
	note B_, 2
	octave 4
	note B_, 2
	octave 3
	note B_, 2
	intensity $26
	octave 4
	note F#, 2
	octave 3
	note B_, 2
	dutycycle 2
	intensity $68
	octave 1
	note A#, 2
	dutycycle 1
	intensity $74
	octave 3
	note A#, 2
	octave 4
	note D_, 2
	note F_, 2
	note A#, 2
	octave 3
	note A#, 2
	intensity $54
	octave 4
	note A#, 2
	octave 3
	note A#, 2
	intensity $44
	octave 4
	note A#, 2
	octave 3
	note A#, 2
	intensity $36
	octave 4
	note A#, 2
	octave 3
	note A#, 2
	octave 4
	note A#, 2
	octave 3
	note A#, 2
	intensity $26
	octave 4
	note F_, 2
	octave 3
	note A#, 2
	intensity $74
	octave 4
	note G#, 2
	note D#, 2
	octave 3
	note B_, 2
	note G#, 2
	octave 4
	note D#, 2
	octave 3
	note B_, 2
	note G#, 2
	note D#, 2
	note B_, 2
	note G#, 2
	note D#, 2
	octave 2
	note B_, 2
	octave 3
	note G#, 2
	note D#, 2
	octave 2
	note B_, 2
	note G#, 2
	octave 4
	note F#, 2
	note D_, 2
	octave 3
	note A_, 2
	note F#, 2
	octave 4
	note D_, 2
	octave 3
	note A_, 2
	note F#, 2
	note C#, 2
	note A_, 2
	note F#, 2
	note C#, 2
	octave 2
	note A_, 2
	octave 3
	note C#, 2
	note A_, 2
	note F#, 2
	note A_, 2
	intensity $97
	note B_, 6
	intensity $1F
	note B_, 10
	note __, 16
	vibrato $00, $24
	octave 2
	note F#, 6
	octave 3
	note C#, 10
	octave 2
	note F#, 6
	octave 3
	note C_, 10
	octave 2
	note F#, 6
	octave 3
	note F#, 10
	octave 2
	note F#, 6
	octave 3
	note F#, 10
	octave 2
	note F#, 6
	octave 3
	note C#, 10
	octave 2
	note F#, 6
	octave 3
	note C_, 10
	octave 2
	note F#, 6
	octave 3
	note F#, 10
	octave 2
	note F#, 6
	octave 3
	note A#, 6
	intensity $85
	note A#, 4
	loopchannel 0, Music_OrangeDive_Ch1_loop

Music_OrangeDive_Ch2:
	stereopanning $f
	tone $0001
	dutycycle 2
	vibrato $00, $25
	octave 4
	notetype $C, $C5
	note A#, 4
	note G#, 4
	note F#, 4
	note D#, 4
	note F_, 4
	note D#, 4
	note C#, 4
	octave 3
	note G#, 4
	intensity $C8
	note A#, 4
	intensity $C7
	note A#, 16
	note __, 4
	intensity $C5
	note F#, 8
	intensity $C8
	note G#, 4
	intensity $C7
	note G#, 16
	note __, 4
	intensity $C5
	note G#, 8
	note F#, 12
	intensity $C7
	vibrato $00, $35
	note D_, 8
	intensity $2E
	note D_, 12
Music_OrangeDive_Ch2_loop:
	notetype $C, $A2
	vibrato $00, $25
	octave 2
	note A#, 2
	note __, 4
	note A#, 2
	note __, 6
	intensity $84
	note F#, 2
	note __, 4
	intensity $A2
	octave 3
	note C_, 2
	note __, 4
	note C_, 2
	note __, 2
	intensity $84
	octave 2
	note F#, 2
	intensity $A2
	note B_, 2
	note __, 4
	note B_, 2
	note __, 6
	intensity $84
	note F#, 2
	note __, 4
	intensity $A2
	note A#, 2
	note __, 4
	note A#, 2
	note __, 2
	intensity $84
	note F#, 2
	intensity $3E
	octave 4
	note A#, 8
	intensity $B7
	note A#, 8
	intensity $3E
	octave 5
	note C_, 8
	intensity $B7
	note C_, 8
	intensity $3E
	octave 4
	note B_, 8
	intensity $B7
	note B_, 8
	intensity $3E
	note A#, 8
	intensity $B7
	note A#, 8
	dutycycle 1
	intensity $B8
	octave 1
	note F#, 1
	note __, 1
	note F#, 1
	note __, 1
	note F#, 1
	note __, 1
	note F#, 1
	note __, 1
	note F#, 1
	note __, 1
	note F#, 1
	note __, 1
	note F#, 1
	note __, 1
	note F#, 1
	note __, 1
	note F#, 1
	note __, 1
	note F#, 1
	note __, 1
	note F#, 1
	note __, 1
	note F#, 1
	note __, 1
	note F#, 1
	note __, 1
	note F#, 1
	note __, 1
	note F#, 1
	note __, 1
	note F#, 1
	note __, 1
	note F#, 1
	note __, 1
	note F#, 1
	note __, 1
	note F#, 1
	note __, 1
	note F#, 1
	note __, 1
	note F#, 1
	note __, 1
	note F#, 1
	note __, 1
	note F#, 1
	note __, 1
	note F#, 1
	note __, 1
	note A_, 1
	note __, 1
	note A_, 1
	note __, 1
	note A_, 1
	note __, 1
	note A_, 1
	note __, 1
	note A_, 1
	note __, 1
	note A_, 1
	note __, 1
	note A_, 1
	note __, 1
	note A_, 1
	note __, 1
	note F#, 1
	note __, 1
	note F#, 1
	note __, 1
	note F#, 1
	note __, 1
	note F#, 1
	note __, 1
	note F#, 1
	note __, 1
	note F#, 1
	note __, 1
	note F#, 1
	note __, 1
	note F#, 1
	note __, 1
	note F#, 1
	note __, 1
	note F#, 1
	note __, 1
	note F#, 1
	note __, 1
	note F#, 1
	note __, 1
	note F#, 1
	note __, 1
	note F#, 1
	note __, 1
	note F#, 1
	note __, 1
	note F#, 1
	note __, 1
	note D_, 1
	note __, 1
	note D_, 1
	note __, 1
	note D_, 1
	note __, 1
	note D_, 1
	note __, 1
	note D_, 1
	note __, 1
	note D_, 1
	note __, 1
	note D_, 1
	note __, 1
	note D_, 1
	note __, 1
	note E_, 1
	note __, 1
	note E_, 1
	note __, 1
	note E_, 1
	note __, 1
	note E_, 1
	note __, 1
	note E_, 1
	note __, 1
	note E_, 1
	note __, 1
	note E_, 1
	note __, 1
	note E_, 1
	note __, 1
	dutycycle 2
	octave 4
	note A#, 2
	note G#, 2
	note F#, 2
	note D#, 2
	note F_, 2
	note D#, 2
	note C#, 2
	octave 3
	note G#, 2
	note A#, 2
	note F#, 2
	octave 4
	note C#, 2
	octave 3
	note A#, 2
	note F#, 2
	note C#, 2
	octave 4
	note C#, 2
	octave 3
	note B_, 2
	intensity $C5
	note A_, 6
	intensity $4B
	note A_, 2
	intensity $C5
	octave 4
	note C#, 6
	intensity $4B
	note C#, 2
	intensity $C5
	note E_, 6
	intensity $4B
	note E_, 2
	intensity $C5
	octave 3
	note B_, 4
	intensity $6C
	note B_, 4
	intensity $C8
	note A#, 2
	note G#, 2
	note F#, 2
	note D#, 2
	note F_, 2
	note D#, 2
	note C#, 2
	octave 2
	note G#, 2
	note A#, 2
	note F#, 2
	octave 3
	note C#, 2
	octave 2
	note A#, 2
	note F#, 2
	note C#, 2
	note D#, 2
	note C#, 2
	octave 1
	note A#, 4
	intensity $A7
	note A#, 10
	note __, 2
	intensity $C8
	note A#, 4
	intensity $A7
	note A#, 10
	note __, 2
	intensity $48
	note B_, 4
	intensity $C3
	octave 2
	note B_, 4
	octave 3
	note C#, 4
	note D#, 4
	intensity $C5
	note F#, 6
	note D#, 6
	octave 2
	note B_, 4
	note A#, 6
	octave 3
	note C_, 6
	note D_, 4
	intensity $C8
	octave 2
	note F_, 4
	intensity $C7
	note F_, 12
	intensity $48
	octave 1
	note B_, 4
	intensity $C3
	octave 2
	note B_, 4
	octave 3
	note C#, 4
	note D#, 4
	intensity $C5
	note F#, 6
	note D#, 6
	note B_, 4
	intensity $C8
	note A#, 4
	intensity $C7
	note A#, 10
	intensity $C8
	note G#, 1
	note F#, 1
	note F_, 4
	intensity $C7
	note F_, 12
	intensity $C5
	note G#, 6
	note D#, 6
	octave 2
	note B_, 4
	intensity $C8
	octave 3
	note D#, 4
	intensity $C7
	note D#, 12
	intensity $C5
	note F#, 6
	note D_, 6
	octave 2
	note A_, 4
	intensity $C8
	octave 3
	note D_, 4
	intensity $C7
	note D_, 12
	note C#, 6
	intensity $4F
	note C#, 10
	note __, 16
	intensity $A2
	octave 2
	note A#, 2
	note __, 4
	note A#, 2
	note __, 6
	intensity $84
	note F#, 2
	note __, 4
	intensity $A2
	octave 3
	note C_, 2
	note __, 4
	note C_, 2
	note __, 2
	intensity $84
	octave 2
	note F#, 2
	intensity $A2
	note B_, 2
	note __, 4
	note B_, 2
	note __, 6
	intensity $84
	note F#, 2
	note __, 4
	intensity $A2
	note A#, 2
	note __, 4
	note A#, 2
	note __, 2
	intensity $84
	note F#, 2
	loopchannel 0, Music_OrangeDive_Ch2_loop

Music_OrangeDive_Ch3:
	dutycycle 1
	tone $0001
	vibrato $00, $22
	octave 3
	notetype $C, $11
	note A#, 8
	octave 4
	note C#, 8
	note C_, 8
	octave 3
	note G#, 8
	note A#, 8
	octave 4
	note F_, 8
	note F#, 8
	note C#, 8
	note D#, 8
	note G#, 8
	note A#, 8
	note G#, 8
	note B_, 8
	note G#, 8
	note D_, 8
	octave 3
	note B_, 8
Music_OrangeDive_Ch3_loop:
	dutycycle 6
	notetype $C, $16
	vibrato $00, $00
	octave 2
	note F#, 1
	note __, 1
	note F#, 1
	note __, 1
	note F#, 1
	note __, 1
	note F#, 1
	note __, 1
	note F#, 1
	note __, 1
	note F#, 1
	note __, 1
	note F#, 1
	note __, 1
	note F#, 1
	note __, 1
	note F#, 1
	note __, 1
	note F#, 1
	note __, 1
	note F#, 1
	note __, 1
	note F#, 1
	note __, 1
	note F#, 1
	note __, 1
	note F#, 1
	note __, 1
	note F#, 1
	note __, 1
	note F#, 1
	note __, 1
	note F#, 1
	note __, 1
	note F#, 1
	note __, 1
	note F#, 1
	note __, 1
	note F#, 1
	note __, 1
	note F#, 1
	note __, 1
	note F#, 1
	note __, 1
	note F#, 1
	note __, 1
	note F#, 1
	note __, 1
	note F#, 1
	note __, 1
	note F#, 1
	note __, 1
	note F#, 1
	note __, 1
	note F#, 1
	note __, 1
	note F#, 1
	note __, 1
	note F#, 1
	note __, 1
	note F#, 1
	note __, 1
	note F#, 1
	note __, 1
	note F#, 1
	note __, 1
	note F#, 1
	note __, 1
	note F#, 1
	note __, 1
	note F#, 1
	note __, 1
	note F#, 1
	note __, 1
	note F#, 1
	note __, 1
	note F#, 1
	note __, 1
	note F#, 1
	note __, 1
	note F#, 1
	note __, 1
	note F#, 1
	note __, 1
	note F#, 1
	note __, 1
	note F#, 1
	note __, 1
	note F#, 1
	note __, 1
	note F#, 1
	note __, 1
	note F#, 1
	note __, 1
	note F#, 1
	note __, 1
	note F#, 1
	note __, 1
	note F#, 1
	note __, 1
	note F#, 1
	note __, 1
	note F#, 1
	note __, 1
	note F#, 1
	note __, 1
	note F#, 1
	note __, 1
	note F#, 1
	note __, 1
	note F#, 1
	note __, 1
	note F#, 1
	note __, 1
	note F#, 1
	note __, 1
	note F#, 1
	note __, 1
	note F#, 1
	note __, 1
	note F#, 1
	note __, 1
	note F#, 1
	note __, 1
	note F#, 1
	note __, 1
	note F#, 1
	note __, 1
	dutycycle 2
	intensity $12
	vibrato $00, $35
	octave 5
	note C#, 16
	note D#, 16
	note D_, 16
	note F#, 12
	vibrato $00, $23
	note G#, 4
	note A#, 2
	note G#, 2
	note F#, 2
	note D#, 2
	note F_, 2
	note D#, 2
	note C#, 2
	octave 4
	note G#, 2
	note A#, 2
	note F#, 2
	octave 5
	note C#, 2
	octave 4
	note A#, 2
	note F#, 2
	note C#, 2
	note F#, 2
	note G#, 2
	vibrato $00, $35
	note A_, 8
	octave 5
	note C#, 8
	octave 4
	note B_, 8
	note F#, 8
	dutycycle 6
	intensity $16
	vibrato $00, $00
	octave 2
	note F#, 1
	note __, 1
	note F#, 1
	note __, 1
	note F#, 1
	note __, 1
	note F#, 1
	note __, 1
	note F#, 1
	note __, 1
	note F#, 1
	note __, 1
	note F#, 1
	note __, 1
	note F#, 1
	note __, 1
	note F#, 1
	note __, 1
	note F#, 1
	note __, 1
	note F#, 1
	note __, 1
	note F#, 1
	note __, 1
	note F#, 1
	note __, 1
	note F#, 1
	note __, 1
	note F#, 1
	note __, 1
	note F#, 1
	note __, 1
	note D_, 1
	note __, 1
	note D_, 1
	note __, 1
	note D_, 1
	note __, 1
	note D_, 1
	note __, 1
	note D_, 1
	note __, 1
	note D_, 1
	note __, 1
	note D_, 1
	note __, 1
	note D_, 1
	note __, 1
	note E_, 1
	note __, 1
	note E_, 1
	note __, 1
	note E_, 1
	note __, 1
	note E_, 1
	note __, 1
	note E_, 1
	note __, 1
	note E_, 1
	note __, 1
	note C#, 1
	note __, 1
	note E_, 1
	note __, 1
	dutycycle 5
	intensity $25
	octave 3
	note C#, 8
	octave 2
	note A#, 8
	note F#, 8
	note D#, 8
	dutycycle 6
	intensity $26
	octave 3
	note C#, 8
	note C#, 2
	intensity $36
	note C#, 2
	note __, 4
	intensity $26
	note C#, 8
	note C#, 2
	intensity $36
	note C#, 2
	note __, 4
	dutycycle 2
	intensity $22
	vibrato $00, $35
	octave 4
	note B_, 8
	note B_, 14
	note F#, 6
	octave 5
	note F#, 4
	note F_, 14
	note E_, 1
	note D#, 1
	note D_, 12
	octave 4
	note A#, 4
	octave 5
	note D#, 6
	note D#, 16
	octave 4
	note B_, 6
	octave 5
	note F#, 4
	note F_, 14
	note G#, 1
	note A_, 1
	note A#, 14
	dutycycle 1
	intensity $31
	note A#, 2
	intensity $21
	note D#, 16
	octave 4
	note B_, 8
	note G#, 4
	note A#, 4
	note B_, 16
	note F#, 8
	note D_, 4
	note E_, 4
	dutycycle 6
	intensity $26
	vibrato $00, $00
	octave 3
	note C#, 6
	note F_, 10
	note __, 16
	intensity $16
	octave 2
	note F#, 1
	note __, 1
	note F#, 1
	note __, 1
	note F#, 1
	note __, 1
	note F#, 1
	note __, 1
	note F#, 1
	note __, 1
	note F#, 1
	note __, 1
	note F#, 1
	note __, 1
	note F#, 1
	note __, 1
	note F#, 1
	note __, 1
	note F#, 1
	note __, 1
	note F#, 1
	note __, 1
	note F#, 1
	note __, 1
	note F#, 1
	note __, 1
	note F#, 1
	note __, 1
	note F#, 1
	note __, 1
	note F#, 1
	note __, 1
	note F#, 1
	note __, 1
	note F#, 1
	note __, 1
	note F#, 1
	note __, 1
	note F#, 1
	note __, 1
	note F#, 1
	note __, 1
	note F#, 1
	note __, 1
	note F#, 1
	note __, 1
	note F#, 1
	note __, 1
	note F#, 1
	note __, 1
	note F#, 1
	note __, 1
	note F#, 1
	note __, 1
	note F#, 1
	note __, 1
	note F#, 1
	note __, 1
	note F#, 1
	note __, 1
	note F#, 1
	note __, 1
	note F#, 1
	note __, 1
	loopchannel 0, Music_OrangeDive_Ch3_loop

Music_OrangeDive_Ch4:
	notetype $C
	note __, 16
	note __, 16
	note __, 16
	note __, 16
	note __, 16
	note __, 16
	note __, 16
	note __, 10
	togglenoise 2
	note F_, 1
	note __, 1
	note F_, 2
	note F_, 1
	note F_, 1
Music_OrangeDive_Ch4_loop:
	notetype $C
	note D#, 2
	note D_, 2
	note C#, 2
	note D#, 1
	note D_, 1
	note D#, 1
	note __, 1
	note C#, 2
	note D#, 1
	note __, 1
	note D_, 2
	note B_, 2
	note D_, 2
	note C#, 2
	note D#, 1
	note D_, 1
	note D#, 1
	note __, 1
	note C#, 2
	note D#, 1
	note __, 1
	note D_, 2
	note B_, 2
	note D#, 1
	note D_, 1
	note D#, 1
	note __, 1
	note C#, 2
	note D#, 2
	note C#, 2
	note D#, 1
	note __, 1
	note D#, 1
	note D_, 1
	note D#, 1
	note D_, 1
	note D_, 1
	note __, 1
	note C#, 2
	note D#, 1
	note D_, 1
	note D#, 1
	note __, 1
	note C#, 2
	note D#, 1
	note D_, 1
	note D_, 2
	note D_, 2
	note D_, 2
	note C#, 2
	note D#, 1
	note D_, 1
	note D#, 1
	note __, 1
	note C#, 2
	note D#, 1
	note __, 1
	note D_, 2
	note B_, 2
	note D_, 2
	note C#, 2
	note D#, 1
	note D_, 1
	note D#, 1
	note __, 1
	note C#, 2
	note D#, 1
	note __, 1
	note D_, 2
	note B_, 2
	note D#, 1
	note D_, 1
	note D#, 1
	note __, 1
	note C#, 2
	note D#, 2
	note C#, 2
	note D#, 1
	note __, 1
	note D#, 1
	note D_, 1
	note D#, 1
	note D_, 1
	note D_, 1
	note __, 1
	note C#, 2
	note D#, 1
	note D_, 1
	note D#, 1
	note __, 1
	note C#, 2
	note D#, 1
	note D_, 1
	note D_, 2
	note D_, 2
	note D_, 2
	note C#, 2
	note D#, 1
	note D_, 1
	note D#, 1
	note __, 1
	note C#, 2
	note D#, 1
	note __, 1
	note D_, 2
	note B_, 2
	note D_, 2
	note C#, 2
	note D#, 1
	note D_, 1
	note D#, 1
	note __, 1
	note C#, 2
	note D#, 1
	note __, 1
	note D_, 2
	note B_, 2
	note D#, 1
	note D_, 1
	note D#, 1
	note __, 1
	note C#, 2
	note D#, 2
	note C#, 2
	note D#, 1
	note __, 1
	note D#, 1
	note D_, 1
	note D#, 1
	note D_, 1
	note D_, 1
	note __, 1
	note C#, 2
	note D#, 1
	note D_, 1
	note D#, 1
	note __, 1
	note C#, 2
	note D#, 1
	note D_, 1
	note D_, 2
	note D_, 2
	note D_, 2
	note C#, 2
	note D#, 1
	note D_, 1
	note D#, 1
	note __, 1
	note C#, 2
	note D#, 1
	note __, 1
	note D_, 2
	note B_, 2
	note D_, 2
	note C#, 2
	note D#, 1
	note D_, 1
	note D#, 1
	note __, 1
	note C#, 2
	note D#, 1
	note __, 1
	note D_, 2
	note B_, 2
	note D#, 1
	note D_, 1
	note D#, 1
	note __, 1
	note C#, 2
	note D#, 2
	note C#, 2
	note D#, 1
	note __, 1
	note D#, 1
	note D_, 1
	note D#, 1
	note D_, 1
	note D_, 1
	note __, 1
	note C#, 2
	note D#, 1
	note D_, 1
	note D#, 1
	note __, 1
	note C#, 2
	note D#, 1
	note D_, 1
	note D_, 2
	note D_, 2
	note D_, 2
	note C#, 2
	note D#, 1
	note D_, 1
	note D#, 1
	note __, 1
	note C#, 2
	note D#, 1
	note __, 1
	note D_, 2
	note B_, 2
	note D_, 2
	note C#, 2
	note D#, 1
	note D_, 1
	note D#, 1
	note __, 1
	note C#, 2
	note D#, 1
	note __, 1
	note D_, 2
	note B_, 2
	note D#, 1
	note D_, 1
	note D#, 1
	note __, 1
	note C#, 2
	note D#, 2
	note C#, 2
	note D#, 1
	note __, 1
	note D#, 1
	note D_, 1
	note D#, 1
	note D_, 1
	note D_, 1
	note __, 1
	note C#, 2
	note D#, 1
	note D_, 1
	note D#, 1
	note __, 1
	note C#, 2
	note D_, 1
	note __, 1
	note C#, 2
	note A_, 2
	note __, 16
	note __, 16
	note __, 16
	note __, 16
	note __, 16
	note __, 16
	note __, 16
	note __, 16
	note __, 16
	note __, 16
	note __, 16
	note __, 16
	note __, 16
	note __, 16
	note __, 16
	note __, 16
	note __, 16
	note __, 8
	note F_, 1
	note __, 1
	note F_, 2
	note F_, 1
	note F_, 1
	note B_, 2
	note D#, 1
	note D_, 1
	note D#, 1
	note D_, 1
	note D#, 1
	note __, 3
	note D_, 1
	note D#, 1
	note C#, 2
	note __, 2
	note D#, 2
	note D_, 2
	note __, 2
	note D#, 1
	note D_, 1
	note D#, 1
	note __, 1
	note C#, 2
	note D#, 1
	note __, 1
	note D_, 1
	note __, 1
	note B_, 2
	note D#, 1
	note D_, 1
	note D#, 1
	note __, 1
	note C#, 2
	note __, 4
	note D#, 1
	note __, 1
	note D_, 1
	note C#, 1
	note D#, 1
	note D_, 1
	note D_, 1
	note __, 3
	note D#, 1
	note D_, 1
	note D#, 1
	note __, 1
	note D_, 1
	note __, 1
	note D#, 1
	note __, 1
	note D_, 1
	note C#, 1
	loopchannel 0, Music_OrangeDive_Ch4_loop

