Music_OrangeEncounter:
	musicheader 4, 1, Music_OrangeEncounter_Ch1
	musicheader 1, 2, Music_OrangeEncounter_Ch2
	musicheader 1, 3, Music_OrangeEncounter_Ch3
	musicheader 1, 4, Music_OrangeEncounter_Ch4

Music_OrangeEncounter_Ch1:
	tempo $72
	volume $77
	stereopanning $f
	dutycycle 1
	octave 3
	notetype $C, $B2
	note F_, 2
	intensity $84
	octave 2
	note F_, 2
	note F_, 2
	intensity $B2
	octave 3
	note F#, 2
	intensity $84
	octave 2
	note F#, 2
	note F#, 2
	intensity $B2
	octave 3
	note G_, 2
	octave 2
	note G_, 2
Music_OrangeEncounter_Ch1_loop:
	notetype $C, $51
	vibrato $00, $24
	octave 4
	note A_, 1
	octave 5
	note D_, 1
	note C_, 1
	octave 4
	note F_, 1
	octave 5
	note C_, 1
	octave 4
	note A#, 1
	note A_, 1
	note F_, 1
	note __, 1
	intensity $41
	note C_, 1
	note F_, 1
	note C_, 1
	note F_, 1
	note C_, 1
	note D#, 1
	note C_, 1
	intensity $51
	note A_, 1
	octave 5
	note D_, 1
	note C_, 1
	octave 4
	note F_, 1
	octave 5
	note C_, 1
	octave 4
	note A#, 1
	note A_, 1
	note F_, 1
	note __, 1
	intensity $41
	note C_, 1
	note F_, 1
	note C_, 1
	note D#, 1
	note F_, 1
	note D#, 1
	note C_, 1
	intensity $51
	note G#, 1
	octave 5
	note F_, 1
	note C_, 1
	octave 4
	note F_, 1
	octave 5
	note C_, 1
	octave 4
	note A#, 1
	note G#, 1
	note F_, 1
	note __, 1
	intensity $41
	octave 3
	note A#, 1
	octave 4
	note D#, 1
	note C_, 1
	note D#, 1
	octave 3
	note A#, 1
	octave 4
	note D#, 1
	note F_, 1
	intensity $51
	note A#, 1
	octave 5
	note F_, 1
	note C_, 1
	octave 4
	note F_, 1
	octave 5
	note C_, 1
	octave 4
	note A#, 1
	note G#, 1
	note A#, 1
	note __, 1
	intensity $41
	octave 3
	note A#, 1
	octave 4
	note D#, 1
	note C_, 1
	note D#, 1
	octave 3
	note A#, 1
	octave 4
	note G#, 1
	note F_, 1
	intensity $51
	note A_, 1
	octave 5
	note D_, 1
	note C_, 1
	octave 4
	note F_, 1
	octave 5
	note C_, 1
	octave 4
	note A#, 1
	note A_, 1
	note F_, 1
	note __, 1
	intensity $41
	note C_, 1
	note F_, 1
	note C_, 1
	note F_, 1
	note C_, 1
	note D#, 1
	note C_, 1
	intensity $51
	note A_, 1
	octave 5
	note D_, 1
	note C_, 1
	octave 4
	note F_, 1
	octave 5
	note C_, 1
	octave 4
	note A#, 1
	note A_, 1
	note F_, 1
	note __, 1
	intensity $41
	note C_, 1
	note F_, 1
	note C_, 1
	note D#, 1
	note F_, 1
	note D#, 1
	note C_, 1
	intensity $51
	note A_, 1
	octave 5
	note D#, 1
	note C_, 1
	octave 4
	note F_, 1
	octave 5
	note C_, 1
	octave 4
	note A#, 1
	note G#, 1
	note F_, 1
	intensity $41
	note D#, 1
	note D_, 1
	note C_, 1
	note D#, 1
	note D_, 1
	note C_, 1
	octave 3
	note A#, 1
	note G#, 1
	intensity $51
	octave 4
	note A#, 1
	octave 5
	note F_, 1
	note C_, 1
	octave 4
	note F_, 1
	octave 5
	note C_, 1
	octave 4
	note A#, 1
	note G#, 1
	note F_, 1
	intensity $41
	note D#, 1
	note C#, 1
	octave 3
	note A#, 1
	octave 4
	note D#, 1
	note C#, 1
	octave 3
	note A#, 1
	octave 4
	note C#, 1
	note D#, 1
	loopchannel 0, Music_OrangeEncounter_Ch1_loop

Music_OrangeEncounter_Ch2:
	stereopanning $f0
	dutycycle 1
	octave 4
	notetype $C, $C1
	note C_, 1
	note __, 1
	intensity $C3
	note C_, 2
	dutycycle 0
	intensity $72
	octave 5
	note F_, 1
	note __, 1
	dutycycle 1
	intensity $C1
	octave 4
	note C#, 1
	note __, 1
	intensity $C3
	note C#, 2
	dutycycle 0
	intensity $72
	octave 5
	note F_, 1
	note __, 1
	dutycycle 1
	intensity $C1
	octave 4
	note D_, 1
	note __, 1
	intensity $C3
	note E_, 2
	intensity $B8
	vibrato $04, $24
	note F_, 2
	notetype $6, $B8
	note C#, 1
	octave 3
	note A_, 1
	note F#, 1
	note C_, 1
Music_OrangeEncounter_Ch2_loop:
	notetype $6, $A2
	vibrato $00, $00
	octave 2
	note F_, 4
	octave 3
	note C_, 8
	note C_, 4
	octave 2
	note F_, 4
	note A#, 4
	note A_, 4
	note F_, 4
	note F_, 4
	octave 3
	note C_, 8
	note C_, 4
	octave 2
	note F_, 4
	octave 3
	note D_, 4
	intensity $B3
	vibrato $04, $24
	note D#, 12
	note C_, 12
	note D#, 8
	note D_, 12
	octave 2
	note A#, 12
	intensity $B2
	vibrato $00, $00
	octave 3
	note D_, 4
	note D#, 4
	intensity $A2
	octave 2
	note A_, 4
	note F_, 4
	note F_, 4
	octave 3
	note C_, 8
	note C_, 4
	octave 2
	note F_, 4
	note A#, 4
	note A_, 4
	note F_, 4
	note F_, 4
	octave 3
	note C_, 8
	note C_, 4
	octave 2
	note F_, 4
	octave 3
	note D_, 4
	intensity $4F
	vibrato $04, $24
	octave 2
	note A#, 16
	intensity $A5
	note A#, 16
	intensity $4F
	octave 3
	note C#, 16
	intensity $A5
	note C#, 16
	intensity $A2
	vibrato $00, $00
	octave 2
	note A_, 4
	note F_, 4
	loopchannel 0, Music_OrangeEncounter_Ch2_loop

Music_OrangeEncounter_Ch3:
	dutycycle 6
	octave 2
	notetype $C, $16
	note F_, 2
	octave 3
	note F_, 1
	note __, 1
	octave 2
	note F_, 2
	octave 3
	note F#, 1
	note __, 1
	octave 2
	note F_, 2
	octave 3
	note G_, 1
	note __, 1
	note E_, 2
	octave 2
	note G_, 2
Music_OrangeEncounter_Ch3_loop:
	notetype $C, $14
	note F_, 2
	note C_, 2
	octave 3
	note F_, 2
	octave 2
	note F_, 2
	note C_, 2
	octave 3
	note F_, 2
	octave 2
	note F_, 2
	octave 3
	note F_, 2
	octave 2
	note F_, 2
	note C_, 2
	octave 3
	note F_, 2
	octave 2
	note F_, 2
	note C_, 2
	octave 3
	note F_, 2
	octave 2
	note F_, 2
	octave 3
	note F_, 2
	octave 2
	note G#, 2
	octave 3
	note G#, 2
	octave 2
	note G#, 2
	octave 3
	note G#, 2
	octave 2
	note G#, 2
	octave 3
	note G#, 2
	octave 2
	note G#, 2
	octave 3
	note G#, 2
	octave 2
	note A#, 2
	octave 3
	note A#, 2
	octave 2
	note A#, 2
	octave 3
	note A#, 2
	octave 2
	note A#, 2
	octave 3
	note A#, 2
	octave 2
	note A#, 2
	octave 3
	note A#, 2
	octave 2
	note F_, 2
	note C_, 2
	octave 3
	note F_, 2
	octave 2
	note F_, 2
	note C_, 2
	octave 3
	note F_, 2
	octave 2
	note F_, 2
	octave 3
	note F_, 2
	octave 2
	note F_, 2
	note C_, 2
	octave 3
	note F_, 2
	octave 2
	note F_, 2
	note C_, 2
	octave 3
	note F_, 2
	octave 2
	note F_, 2
	octave 3
	note F_, 2
	octave 2
	note D#, 2
	octave 3
	note D#, 2
	octave 2
	note D#, 2
	octave 3
	note D#, 2
	octave 2
	note D#, 2
	octave 3
	note D#, 2
	octave 2
	note D#, 2
	octave 3
	note D#, 2
	octave 2
	note C#, 2
	octave 3
	note C#, 2
	octave 2
	note C#, 2
	octave 3
	note C#, 2
	octave 2
	note C#, 2
	octave 3
	note C#, 2
	octave 2
	note C#, 2
	octave 3
	note C#, 2
	loopchannel 0, Music_OrangeEncounter_Ch3_loop

Music_OrangeEncounter_Ch4:
	togglenoise 3
	notetype $C
	note D#, 2
	note D#, 2
	note D#, 2
	note D#, 2
	note D#, 2
	note D#, 1
	note __, 1
	note C#, 1
	note __, 1
	note C_, 1
	note C_, 1
Music_OrangeEncounter_Ch4_loop:
	notetype $C
	note F#, 2
	note C#, 2
	note D_, 2
	note C#, 2
	note D#, 2
	note C#, 1
	note C#, 1
	note D_, 2
	note C#, 2
	note D#, 2
	note C#, 2
	note D_, 2
	note C#, 2
	note D#, 2
	note C#, 1
	note C#, 1
	note D_, 2
	note C#, 2
	note D#, 2
	note C#, 2
	note D_, 2
	note C#, 2
	note D#, 2
	note C#, 1
	note C#, 1
	note D_, 2
	note C#, 2
	note F#, 2
	note C#, 2
	note D_, 2
	note C#, 2
	note F#, 2
	note C#, 1
	note C#, 1
	note D_, 2
	note C#, 2
	note F#, 2
	note C#, 2
	note D_, 2
	note C#, 2
	note D#, 2
	note C#, 1
	note C#, 1
	note D_, 2
	note C#, 2
	note D#, 2
	note C#, 2
	note D_, 2
	note C#, 2
	note D#, 2
	note C#, 1
	note C#, 1
	note D_, 2
	note C#, 2
	note F#, 2
	note C#, 2
	note D_, 2
	note C#, 2
	note D#, 2
	note C#, 1
	note C#, 1
	note D_, 2
	note C#, 2
	note D#, 2
	note C#, 2
	note D_, 2
	note C#, 2
	note D#, 2
	note C#, 1
	note C#, 1
	note D_, 2
	note C#, 2
	loopchannel 0, Music_OrangeEncounter_Ch4_loop

