Music_OrangeTrainerBattle:
	musicheader 4, 1, Music_OrangeTrainerBattle_Ch1
	musicheader 1, 2, Music_OrangeTrainerBattle_Ch2
	musicheader 1, 3, Music_OrangeTrainerBattle_Ch3
	musicheader 1, 4, Music_OrangeTrainerBattle_Ch4

Music_OrangeTrainerBattle_Ch1:
	tempo $72
	volume $77
	stereopanning $77
	dutycycle 1
	octave 5
	notetype $C, $A1
	note C_, 1
	octave 4
	note C_, 1
	octave 3
	note C_, 1
	octave 2
	note C_, 1
	octave 5
	note C_, 1
	octave 4
	note C_, 1
	octave 3
	note C_, 1
	octave 2
	note C_, 1
	octave 5
	note C_, 1
	octave 4
	note C_, 1
	octave 3
	note C_, 1
	octave 2
	note C_, 1
	octave 5
	note C_, 1
	octave 4
	note C_, 1
	octave 3
	note C_, 1
	octave 2
	note C_, 1
	octave 5
	note C_, 1
	octave 4
	note C_, 1
	octave 3
	note C_, 1
	octave 2
	note C_, 1
	octave 5
	note C_, 1
	octave 4
	note C_, 1
	octave 3
	note C_, 1
	octave 2
	note C_, 1
	octave 5
	note C_, 1
	octave 4
	note C_, 1
	octave 3
	note C_, 1
	octave 2
	note C_, 1
	octave 5
	note C_, 1
	octave 4
	note C_, 1
	octave 3
	note C_, 1
	octave 2
	note C_, 1
Music_OrangeTrainerBattle_Ch1_loop:
	intensity $A2
	octave 3
	note A_, 2
	note G_, 2
	note F_, 2
	intensity $A5
	vibrato $04, $24
	octave 2
	note A_, 6
	note G_, 4
	octave 3
	note F_, 4
	note D_, 4
	intensity $A2
	vibrato $00, $00
	note F_, 2
	octave 4
	note C_, 2
	note F_, 2
	note G_, 2
	intensity $A5
	vibrato $04, $24
	note A_, 6
	note F_, 6
	note D_, 2
	note D#, 2
	note F_, 2
	note D#, 2
	octave 3
	note A#, 2
	octave 4
	note C_, 2
	note D#, 2
	octave 3
	note A#, 2
	note G_, 2
	note F_, 2
	intensity $A2
	vibrato $00, $00
	note A_, 2
	note G_, 2
	note F_, 2
	intensity $A5
	vibrato $04, $24
	octave 2
	note A_, 6
	note G_, 4
	octave 3
	note F_, 4
	note D_, 4
	intensity $A2
	vibrato $00, $00
	note F_, 2
	octave 4
	note C_, 2
	note F_, 2
	note G_, 2
	intensity $A5
	vibrato $04, $24
	note A_, 6
	note F_, 6
	vibrato $00, $00
	octave 3
	note G_, 2
	note G#, 2
	intensity $A7
	vibrato $08, $26
	note G#, 8
	note A#, 8
	intensity $85
	note A#, 4
	note G_, 4
	note F_, 4
	note D_, 4
	note F_, 4
	note D_, 4
	note F_, 4
	note G#, 4
	intensity $83
	octave 4
	note C_, 4
	octave 3
	note A#, 2
	octave 4
	note C_, 2
	intensity $93
	octave 3
	note A#, 4
	note G#, 2
	note A#, 2
	intensity $A0
	note D_, 4
	intensity $A5
	note D_, 12
	intensity $85
	octave 4
	note D#, 4
	note C_, 4
	octave 3
	note A#, 4
	note G_, 4
	note A#, 4
	note G_, 4
	note A#, 4
	note G#, 4
	intensity $83
	octave 4
	note F_, 4
	note D#, 2
	note F_, 2
	note D#, 4
	note C#, 2
	note D#, 2
	intensity $A0
	octave 3
	note G_, 6
	intensity $A5
	note G_, 10
	dutycycle 0
	intensity $81
	note A#, 1
	note G#, 1
	note D#, 1
	note G#, 1
	note A#, 1
	note G#, 1
	note D#, 1
	note G#, 1
	note A#, 1
	note G#, 1
	note D#, 1
	note G#, 1
	note A#, 1
	note G#, 1
	note D#, 1
	note G#, 1
	note A#, 1
	note G#, 1
	note D#, 1
	note G#, 1
	note A#, 1
	note G#, 1
	note D#, 1
	note G#, 1
	note A#, 1
	note G#, 1
	note D#, 1
	note G#, 1
	note A#, 1
	note G#, 1
	note D#, 1
	note G#, 1
	octave 4
	note D#, 1
	octave 3
	note A#, 1
	note G#, 1
	note A#, 1
	octave 4
	note D#, 1
	octave 3
	note A#, 1
	note G#, 1
	note A#, 1
	octave 4
	note D#, 1
	octave 3
	note A#, 1
	note G#, 1
	note A#, 1
	octave 4
	note D#, 1
	octave 3
	note A#, 1
	note G#, 1
	note A#, 1
	octave 4
	note D#, 1
	octave 3
	note A#, 1
	note G#, 1
	note A#, 1
	octave 4
	note D#, 1
	octave 3
	note A#, 1
	note G#, 1
	note A#, 1
	octave 4
	note D#, 1
	octave 3
	note A#, 1
	note G#, 1
	note A#, 1
	octave 4
	note D#, 1
	octave 3
	note A#, 1
	note G#, 1
	note A#, 1
	note A#, 1
	note G#, 1
	note D#, 1
	note G#, 1
	note A#, 1
	note G#, 1
	note D#, 1
	note G#, 1
	note A#, 1
	note G#, 1
	note D#, 1
	note G#, 1
	note A#, 1
	note G#, 1
	note D#, 1
	note G#, 1
	intensity $A1
	note A#, 1
	note G#, 1
	note D#, 1
	note G#, 1
	note A#, 1
	note G#, 1
	note D#, 1
	note G#, 1
	note A#, 1
	note G#, 1
	note D#, 1
	note G#, 1
	note A#, 1
	note G#, 1
	note D#, 1
	note G#, 1
	intensity $B1
	octave 4
	note D#, 1
	octave 3
	note A#, 1
	note G#, 1
	note A#, 1
	octave 4
	note D#, 1
	octave 3
	note A#, 1
	note G#, 1
	note A#, 1
	octave 4
	note D#, 1
	octave 3
	note A#, 1
	note G#, 1
	note A#, 1
	octave 4
	note D#, 1
	octave 3
	note A#, 1
	note G#, 1
	note A#, 1
	intensity $C1
	octave 5
	note D#, 1
	octave 4
	note A#, 1
	note G#, 1
	note A#, 1
	octave 5
	note D#, 1
	octave 4
	note A#, 1
	note G#, 1
	note A#, 1
	octave 5
	note D#, 1
	octave 4
	note A#, 1
	note G#, 1
	note A#, 1
	octave 5
	note D#, 1
	octave 4
	note A#, 1
	note G#, 1
	note A#, 1
	intensity $A7
	octave 3
	note G#, 4
	note A#, 4
	note D#, 2
	note F_, 2
	note G#, 2
	note G_, 14
	note G#, 2
	note G_, 2
	note F_, 4
	note C#, 2
	note F_, 2
	note G#, 2
	note A#, 2
	octave 4
	note C#, 2
	note D#, 6
	note C#, 4
	note C_, 4
	octave 3
	note A#, 4
	note G#, 4
	note A#, 4
	note D#, 2
	note F_, 2
	note G#, 2
	note G_, 14
	note G#, 2
	note G_, 2
	note F_, 4
	note C#, 2
	note F_, 2
	note G#, 2
	note A#, 2
	octave 4
	note C#, 2
	note C_, 6
	octave 3
	note A#, 6
	note G#, 6
	intensity $A0
	note C#, 6
	intensity $A7
	vibrato $00, $26
	note C#, 10
	intensity $A0
	vibrato $08, $26
	note D#, 6
	intensity $A7
	vibrato $00, $26
	note D#, 10
	dutycycle 2
	note F_, 4
	note D#, 4
	note F_, 4
	note G#, 4
	note G_, 4
	note D#, 4
	note A#, 4
	octave 4
	note D#, 4
	dutycycle 1
	intensity $A0
	vibrato $08, $26
	octave 3
	note C#, 6
	intensity $A7
	vibrato $00, $26
	note C#, 10
	intensity $A0
	vibrato $08, $26
	note D#, 6
	intensity $A7
	vibrato $00, $26
	note D#, 10
	dutycycle 2
	note F_, 4
	note D#, 4
	note F_, 4
	note G#, 4
	note G_, 4
	note G#, 4
	octave 4
	note D#, 4
	note A#, 4
	intensity $A5
	octave 5
	note C#, 4
	octave 4
	note A#, 4
	note G#, 4
	note F_, 4
	note D#, 4
	note F_, 4
	note G#, 4
	note F_, 4
	note G_, 4
	note D#, 4
	octave 3
	note A#, 4
	octave 4
	note C_, 4
	note D#, 4
	note C_, 4
	octave 3
	note G#, 4
	note A#, 4
	octave 4
	note C#, 4
	octave 3
	note G#, 4
	note F_, 4
	note C#, 4
	note D#, 4
	note F_, 4
	note G#, 4
	note A#, 4
	dutycycle 1
	octave 4
	note C_, 4
	octave 3
	note A#, 4
	note G#, 4
	note F_, 4
	note D#, 4
	note C_, 4
	note F_, 4
	note G_, 4
	loopchannel 0, Music_OrangeTrainerBattle_Ch1_loop

Music_OrangeTrainerBattle_Ch2:
	dutycycle 1
	octave 3
	notetype $C, $D1
	note A_, 1
	note G_, 1
	note F_, 1
	note C_, 1
	note A_, 1
	note G_, 1
	note F_, 1
	note C_, 1
	note A_, 1
	note G_, 1
	note F_, 1
	note C_, 1
	note A_, 1
	note G_, 1
	note F_, 1
	note C_, 1
	octave 4
	note C_, 1
	octave 3
	note A#, 1
	note G#, 1
	note D#, 1
	octave 4
	note C_, 1
	octave 3
	note A#, 1
	note G#, 1
	note D#, 1
	octave 4
	note C_, 1
	octave 3
	note A#, 1
	note G#, 1
	note D#, 1
	octave 4
	note C_, 1
	octave 3
	note A#, 1
	note G_, 1
	note D_, 1
Music_OrangeTrainerBattle_Ch2_loop:
	intensity $D3
	octave 4
	note C_, 2
	intensity $D1
	note F_, 2
	note __, 2
	intensity $D4
	vibrato $04, $24
	note C_, 6
	intensity $D3
	note D#, 4
	note D_, 4
	note C_, 4
	octave 3
	note A#, 4
	note G_, 4
	vibrato $00, $00
	note A_, 2
	note A#, 2
	intensity $D1
	octave 4
	note C_, 2
	intensity $D3
	vibrato $04, $24
	octave 3
	note F_, 4
	vibrato $00, $00
	note D#, 2
	note F_, 2
	intensity $D1
	note G_, 2
	intensity $D3
	vibrato $04, $24
	note D#, 4
	note F_, 4
	note G_, 4
	octave 2
	note A#, 4
	vibrato $00, $00
	octave 4
	note C_, 2
	intensity $D1
	note F_, 2
	note __, 2
	intensity $D4
	vibrato $04, $24
	note C_, 6
	intensity $D3
	note D_, 4
	note D#, 4
	note D_, 4
	note C_, 4
	octave 3
	note A#, 4
	vibrato $00, $00
	note A_, 2
	note A#, 2
	intensity $D1
	octave 4
	note C_, 2
	intensity $D3
	vibrato $04, $24
	octave 3
	note F_, 4
	vibrato $00, $00
	octave 2
	note A#, 2
	octave 3
	note C_, 2
	note F_, 2
	intensity $D5
	vibrato $04, $24
	octave 4
	note C_, 8
	note D_, 8
	intensity $D3
	note D#, 6
	note D_, 6
	octave 3
	note A#, 4
	octave 4
	note C_, 2
	note D_, 2
	note F_, 2
	note A#, 4
	note A#, 2
	note G#, 2
	note A#, 2
	note G#, 6
	note G_, 6
	note D#, 2
	intensity $D7
	note F_, 10
	intensity $D3
	octave 3
	note F_, 4
	note G_, 4
	note G#, 6
	note G_, 6
	note D#, 4
	note F_, 2
	note G_, 2
	note A#, 2
	octave 4
	note D#, 4
	note D#, 2
	note C#, 2
	note D#, 2
	note C#, 6
	note C_, 6
	octave 3
	note G#, 2
	intensity $D0
	note A#, 6
	intensity $D6
	note A#, 8
	intensity $D3
	octave 4
	note C_, 4
	note C#, 6
	octave 3
	note G#, 6
	octave 4
	note C#, 4
	note F_, 4
	note D#, 4
	note C#, 4
	note F_, 4
	note D#, 6
	octave 3
	note A#, 6
	octave 4
	note D#, 4
	note G_, 4
	note F_, 4
	note D#, 4
	note G_, 4
	note F_, 6
	note C#, 6
	note F_, 4
	note G#, 4
	note G_, 4
	note F_, 6
	note G_, 1
	note G#, 1
	intensity $D0
	vibrato $08, $26
	note A#, 16
	intensity $D7
	vibrato $00, $26
	note A#, 16
	intensity $D4
	note F_, 4
	note C#, 4
	intensity $D2
	note D#, 2
	note C#, 2
	note C_, 2
	intensity $D7
	octave 3
	note A#, 14
	intensity $D2
	octave 4
	note C_, 2
	note C#, 2
	note D#, 2
	note C#, 2
	note C_, 2
	note C#, 2
	note C_, 2
	octave 3
	note A#, 2
	note G#, 2
	intensity $D7
	note A#, 16
	note __, 2
	intensity $D4
	octave 4
	note F_, 4
	note C#, 4
	intensity $D2
	note D#, 2
	note C#, 2
	note C_, 2
	intensity $D7
	octave 3
	note A#, 14
	intensity $D2
	octave 4
	note C_, 2
	note C#, 2
	note D#, 2
	note C#, 2
	note C_, 2
	note C#, 2
	note C_, 2
	octave 3
	note A#, 2
	note G#, 2
	intensity $A7
	octave 4
	note D#, 6
	note C#, 6
	intensity $D2
	note C_, 2
	octave 3
	note A#, 2
	note G#, 2
	intensity $D0
	vibrato $08, $26
	note F_, 6
	intensity $D7
	vibrato $00, $26
	note F_, 10
	intensity $D0
	vibrato $08, $26
	note G_, 6
	intensity $D7
	vibrato $00, $26
	note G_, 10
	intensity $D0
	vibrato $08, $26
	note G#, 6
	intensity $D7
	vibrato $00, $26
	note G#, 10
	intensity $D0
	vibrato $08, $26
	note A#, 6
	intensity $D7
	vibrato $00, $26
	note A#, 10
	intensity $D0
	vibrato $08, $26
	note F_, 6
	intensity $D7
	vibrato $00, $26
	note F_, 10
	intensity $D0
	vibrato $08, $26
	note G_, 6
	intensity $D7
	vibrato $00, $26
	note G_, 10
	intensity $D0
	vibrato $08, $26
	note G#, 6
	intensity $D7
	vibrato $00, $26
	note G#, 10
	intensity $D0
	vibrato $08, $26
	note A#, 6
	intensity $D7
	vibrato $00, $26
	note A#, 10
	intensity $D2
	vibrato $00, $00
	note C#, 2
	octave 2
	note A#, 2
	octave 3
	note C#, 2
	note F_, 2
	intensity $D4
	note G#, 6
	note F_, 6
	note G#, 4
	note C#, 4
	octave 2
	note A#, 4
	intensity $D2
	octave 3
	note D#, 2
	note C_, 2
	note D#, 2
	note G_, 2
	intensity $D4
	note A#, 6
	note G_, 6
	note A#, 4
	note D#, 4
	note C_, 4
	intensity $D2
	note C#, 2
	octave 2
	note A#, 2
	octave 3
	note C#, 2
	note F_, 2
	intensity $D4
	note G#, 6
	note F_, 6
	note G#, 4
	note C#, 4
	octave 2
	note A#, 4
	intensity $D2
	octave 3
	note D#, 2
	note C_, 2
	note D#, 2
	note F_, 2
	intensity $D4
	note D#, 6
	note C_, 6
	note F_, 4
	note G#, 4
	note A#, 4
	loopchannel 0, Music_OrangeTrainerBattle_Ch2_loop

Music_OrangeTrainerBattle_Ch3:
	dutycycle 6
	octave 2
	notetype $C, $16
	note F_, 2
	octave 3
	note F_, 2
	octave 2
	note F_, 2
	octave 3
	note F_, 2
	octave 2
	note F_, 2
	octave 3
	note F_, 2
	octave 2
	note F_, 2
	octave 3
	note F_, 2
	octave 2
	note G#, 2
	octave 3
	note G#, 2
	octave 2
	note G#, 2
	octave 3
	note G#, 2
	octave 2
	note G#, 2
	octave 3
	note G#, 2
	octave 2
	note G#, 2
	octave 3
	note A#, 2
Music_OrangeTrainerBattle_Ch3_loop:
	dutycycle 4
	intensity $14
	octave 3
	note C_, 2
	octave 4
	note C_, 2
	octave 3
	note C_, 2
	octave 4
	note C_, 2
	octave 3
	note C_, 2
	octave 4
	note C_, 2
	octave 3
	note C_, 2
	octave 4
	note C_, 2
	octave 2
	note A#, 2
	octave 3
	note A#, 2
	octave 2
	note A#, 2
	octave 3
	note A#, 2
	octave 2
	note A#, 2
	octave 3
	note A#, 2
	octave 2
	note A#, 2
	octave 3
	note A#, 2
	octave 2
	note F_, 2
	octave 3
	note F_, 2
	octave 2
	note F_, 2
	octave 3
	note F_, 2
	octave 2
	note F_, 2
	octave 3
	note F_, 2
	octave 2
	note F_, 2
	octave 3
	note F_, 2
	octave 2
	note G#, 2
	octave 3
	note G#, 2
	octave 2
	note G#, 2
	octave 3
	note G#, 2
	octave 2
	note A#, 2
	octave 3
	note A#, 2
	octave 2
	note A#, 2
	octave 3
	note A#, 2
	note C_, 2
	octave 4
	note C_, 2
	octave 3
	note C_, 2
	octave 4
	note C_, 2
	octave 3
	note C_, 2
	octave 4
	note C_, 2
	octave 3
	note C_, 2
	octave 4
	note C_, 2
	octave 2
	note A#, 2
	octave 3
	note A#, 2
	octave 2
	note A#, 2
	octave 3
	note A#, 2
	octave 2
	note A#, 2
	octave 3
	note A#, 2
	octave 2
	note A#, 2
	octave 3
	note A#, 2
	octave 2
	note F_, 2
	octave 3
	note F_, 2
	octave 2
	note F_, 2
	octave 3
	note F_, 2
	octave 2
	note F_, 2
	octave 3
	note F_, 2
	octave 2
	note F_, 2
	octave 3
	note F_, 2
	octave 2
	note G#, 2
	octave 3
	note G#, 2
	octave 2
	note G#, 2
	octave 3
	note G#, 2
	octave 2
	note A#, 2
	octave 3
	note A#, 2
	octave 2
	note F_, 2
	octave 3
	note F_, 2
	octave 2
	note D#, 2
	octave 3
	note D#, 2
	octave 2
	note D#, 2
	note D_, 2
	octave 3
	note D_, 2
	octave 2
	note D_, 2
	octave 1
	note A#, 2
	octave 2
	note A#, 2
	note F_, 2
	octave 3
	note F_, 2
	octave 2
	note F_, 2
	octave 3
	note F_, 2
	octave 2
	note A#, 2
	octave 3
	note A#, 2
	octave 2
	note A#, 2
	octave 3
	note A#, 2
	octave 2
	note D#, 2
	octave 3
	note D#, 2
	octave 2
	note D#, 2
	octave 3
	note D#, 2
	octave 2
	note D#, 2
	octave 3
	note D#, 2
	octave 2
	note D#, 2
	octave 3
	note F_, 2
	octave 2
	note A#, 2
	octave 3
	note A#, 2
	octave 2
	note A#, 2
	octave 3
	note A#, 2
	octave 2
	note A#, 2
	octave 3
	note A#, 2
	octave 2
	note A#, 2
	octave 3
	note A#, 2
	octave 2
	note G#, 2
	octave 3
	note G#, 2
	octave 2
	note G#, 2
	note G_, 2
	octave 3
	note G_, 2
	octave 2
	note G_, 2
	note D#, 2
	octave 3
	note D#, 2
	octave 2
	note A#, 2
	octave 3
	note A#, 2
	octave 2
	note A#, 2
	octave 3
	note A#, 2
	note D#, 2
	octave 4
	note D#, 2
	octave 3
	note D#, 2
	octave 4
	note D#, 2
	octave 2
	note G#, 2
	octave 3
	note G#, 2
	octave 2
	note G#, 2
	octave 3
	note G#, 2
	octave 2
	note G#, 2
	octave 3
	note G#, 2
	octave 2
	note G#, 2
	octave 3
	note A#, 2
	note D#, 2
	octave 4
	note D#, 2
	octave 3
	note D#, 2
	octave 4
	note D#, 2
	octave 3
	note D#, 2
	octave 4
	note D#, 2
	octave 3
	note D#, 2
	octave 4
	note D#, 2
	octave 3
	note C#, 2
	octave 4
	note C#, 2
	note C#, 2
	octave 3
	note C#, 2
	octave 4
	note C#, 2
	note C#, 2
	octave 3
	note C#, 1
	octave 4
	note C#, 1
	octave 3
	note C#, 2
	note C#, 2
	octave 4
	note C#, 2
	note C#, 2
	octave 3
	note C#, 2
	octave 4
	note C#, 2
	note C#, 2
	octave 3
	note C#, 1
	octave 4
	note C#, 1
	octave 3
	note C#, 2
	note D#, 2
	octave 4
	note D#, 2
	note D#, 2
	octave 3
	note D#, 2
	octave 4
	note D#, 2
	note D#, 2
	octave 3
	note D#, 1
	octave 4
	note D#, 1
	octave 3
	note D#, 2
	note D#, 2
	octave 4
	note D#, 2
	note D#, 2
	octave 3
	note D#, 2
	octave 4
	note D#, 2
	note D#, 2
	octave 3
	note D#, 1
	octave 4
	note D#, 1
	octave 3
	note D#, 2
	note C#, 2
	octave 4
	note C#, 2
	note C#, 2
	octave 3
	note C#, 2
	octave 4
	note C#, 2
	note C#, 2
	octave 3
	note C#, 1
	octave 4
	note C#, 1
	octave 3
	note C#, 2
	note C#, 2
	octave 4
	note C#, 2
	note C#, 2
	octave 3
	note C#, 2
	octave 4
	note C#, 2
	note C#, 2
	octave 3
	note C#, 1
	octave 4
	note C#, 1
	octave 3
	note C#, 2
	note D#, 2
	octave 4
	note D#, 2
	note D#, 2
	octave 3
	note D#, 2
	octave 4
	note D#, 2
	note D#, 2
	octave 3
	note D#, 1
	octave 4
	note D#, 1
	octave 3
	note D#, 2
	note D#, 2
	octave 4
	note D#, 2
	note D#, 2
	octave 3
	note D#, 2
	octave 4
	note D#, 2
	note D#, 2
	octave 3
	note D#, 1
	octave 4
	note D#, 1
	octave 3
	note D#, 2
	octave 2
	note C#, 2
	octave 3
	note C#, 2
	octave 2
	note C#, 2
	octave 3
	note C#, 2
	octave 2
	note C#, 2
	octave 3
	note C#, 2
	octave 2
	note C#, 2
	octave 3
	note D#, 2
	octave 2
	note D#, 2
	octave 3
	note D#, 2
	octave 2
	note D#, 2
	octave 3
	note D#, 2
	octave 2
	note D#, 2
	octave 3
	note D#, 2
	octave 2
	note D#, 2
	octave 3
	note D#, 2
	octave 2
	note C#, 2
	octave 3
	note C#, 2
	octave 2
	note C#, 2
	octave 3
	note C#, 2
	octave 2
	note C#, 2
	octave 3
	note C#, 2
	octave 2
	note C#, 2
	octave 3
	note D#, 2
	octave 2
	note D#, 2
	octave 3
	note D#, 2
	octave 2
	note D#, 2
	octave 3
	note D#, 2
	octave 2
	note D#, 2
	octave 3
	note D#, 2
	octave 2
	note D#, 2
	octave 3
	note D#, 2
	octave 2
	note C#, 2
	octave 3
	note C#, 2
	octave 2
	note C#, 2
	octave 3
	note C#, 2
	octave 2
	note C#, 2
	octave 3
	note C#, 2
	octave 2
	note C#, 2
	octave 3
	note D#, 2
	octave 2
	note D#, 2
	octave 3
	note D#, 2
	octave 2
	note D#, 2
	octave 3
	note D#, 2
	octave 2
	note D#, 2
	octave 3
	note D#, 2
	octave 2
	note D#, 2
	octave 3
	note D#, 2
	octave 2
	note C#, 2
	octave 3
	note C#, 2
	octave 2
	note C#, 2
	octave 3
	note C#, 2
	octave 2
	note C#, 2
	octave 3
	note C#, 2
	octave 2
	note C#, 2
	note G#, 2
	octave 1
	note G#, 2
	octave 2
	note G#, 2
	octave 1
	note G_, 2
	octave 2
	note G_, 2
	octave 1
	note G_, 2
	octave 2
	note F_, 2
	octave 1
	note F_, 2
	octave 2
	note F_, 2
	octave 1
	note G#, 4
	octave 2
	note G#, 4
	octave 1
	note G#, 4
	octave 2
	note G#, 4
	octave 1
	note A#, 4
	octave 2
	note A#, 4
	octave 1
	note A#, 4
	octave 2
	note A#, 4
	note C#, 4
	octave 3
	note C#, 4
	octave 2
	note C#, 4
	octave 3
	note C#, 4
	octave 2
	note D#, 4
	octave 3
	note D#, 4
	octave 2
	note D#, 4
	octave 3
	note D#, 4
	octave 1
	note G#, 4
	octave 2
	note G#, 4
	octave 1
	note G#, 4
	octave 2
	note G#, 4
	octave 1
	note A#, 4
	octave 2
	note A#, 4
	octave 1
	note A#, 4
	octave 2
	note A#, 4
	note C#, 4
	octave 3
	note C#, 4
	octave 2
	note C#, 4
	octave 3
	note C#, 4
	octave 2
	note D#, 2
	octave 3
	note D#, 2
	octave 2
	note D#, 2
	octave 3
	note D#, 2
	octave 2
	note D#, 2
	octave 3
	note D#, 2
	octave 2
	note D#, 2
	octave 3
	note D#, 2
	octave 2
	note C#, 2
	octave 3
	note C#, 2
	octave 2
	note C#, 2
	octave 3
	note C#, 2
	octave 2
	note C#, 2
	octave 3
	note C#, 2
	octave 2
	note C#, 2
	octave 3
	note C#, 2
	octave 2
	note C#, 2
	octave 3
	note C#, 2
	octave 2
	note C#, 2
	octave 3
	note C#, 2
	octave 2
	note C#, 2
	octave 3
	note C#, 2
	octave 2
	note C#, 2
	octave 3
	note C#, 2
	octave 2
	note D#, 2
	octave 3
	note D#, 2
	octave 2
	note D#, 2
	octave 3
	note D#, 2
	octave 2
	note D#, 2
	octave 3
	note D#, 2
	octave 2
	note D#, 2
	octave 3
	note D#, 2
	octave 2
	note D#, 2
	octave 3
	note D#, 2
	octave 2
	note D#, 2
	octave 3
	note D#, 2
	octave 2
	note D#, 2
	octave 3
	note D#, 2
	octave 2
	note D#, 2
	octave 3
	note D#, 2
	octave 2
	note C#, 2
	octave 3
	note C#, 2
	octave 2
	note C#, 2
	octave 3
	note C#, 2
	octave 2
	note C#, 2
	octave 3
	note C#, 2
	octave 2
	note C#, 2
	octave 3
	note C#, 2
	octave 2
	note C#, 2
	octave 3
	note C#, 2
	octave 2
	note C#, 2
	octave 3
	note C#, 2
	octave 2
	note C#, 2
	octave 3
	note C#, 2
	octave 2
	note C#, 2
	octave 3
	note C#, 2
	octave 1
	note G#, 2
	octave 2
	note G#, 2
	octave 1
	note G#, 2
	octave 2
	note G#, 2
	octave 1
	note G#, 2
	octave 2
	note G#, 2
	octave 1
	note G#, 2
	octave 2
	note G#, 2
	octave 1
	note G#, 2
	octave 2
	note G#, 2
	octave 1
	note G#, 2
	octave 2
	note G#, 2
	octave 1
	note A#, 2
	octave 2
	note A#, 2
	octave 1
	note A#, 2
	octave 2
	note A#, 2
	loopchannel 0, Music_OrangeTrainerBattle_Ch3_loop

Music_OrangeTrainerBattle_Ch4:
	togglenoise 3
	notetype $C
	note D#, 2
	note __, 2
	note D#, 2
	note __, 2
	note D#, 2
	note __, 2
	note D#, 2
	note C#, 1
	note D_, 1
	note C_, 1
	note D#, 1
	note D_, 1
	note C#, 1
	note C_, 1
	note D#, 1
	note D_, 1
	note C#, 1
	note C_, 1
	note D#, 1
	note D_, 1
	note C#, 1
	note C_, 1
	note D#, 1
	note D_, 1
	note C#, 1
Music_OrangeTrainerBattle_Ch4_loop:
	note B_, 2
	note C#, 2
	note C_, 2
	note C#, 2
	note D#, 2
	note C#, 1
	note C#, 1
	note C_, 2
	note C#, 2
	note D#, 2
	note C#, 2
	note C_, 2
	note C#, 2
	note D#, 2
	note C#, 1
	note C#, 1
	note C_, 2
	note C#, 2
	note D#, 2
	note C#, 1
	note C#, 1
	note C_, 2
	note C#, 2
	note D#, 2
	note C#, 1
	note C#, 1
	note C_, 2
	note C#, 2
	note B_, 2
	note C#, 2
	note C_, 2
	note C#, 2
	note B_, 2
	note C#, 2
	note C_, 2
	note C#, 2
	note B_, 2
	note C#, 2
	note C_, 2
	note C#, 2
	note D#, 2
	note C#, 1
	note C#, 1
	note C_, 2
	note C#, 2
	note D#, 2
	note C#, 2
	note C_, 2
	note C#, 2
	note D#, 2
	note C#, 1
	note C#, 1
	note C_, 2
	note C#, 2
	note D#, 2
	note C#, 1
	note C#, 1
	note C_, 2
	note C#, 2
	note D#, 2
	note C#, 1
	note C#, 1
	note C_, 2
	note C#, 2
	note B_, 2
	note C#, 2
	note C_, 2
	note C#, 2
	note D#, 1
	note D#, 1
	note C#, 1
	note C#, 1
	note C_, 2
	note C#, 1
	note C#, 1
	note B_, 2
	note D#, 2
	note C_, 2
	note D_, 2
	note D#, 2
	note D#, 2
	note C_, 2
	note D_, 2
	note G_, 2
	note D#, 2
	note C_, 2
	note D_, 2
	note D#, 2
	note D#, 2
	note C_, 2
	note D_, 2
	note G_, 2
	note D#, 2
	note C_, 2
	note D_, 2
	note D#, 2
	note D#, 2
	note C_, 2
	note D_, 2
	note G_, 2
	note D#, 2
	note C_, 2
	note D_, 2
	note D#, 2
	note D#, 2
	note C_, 2
	note C#, 1
	note C#, 1
	note B_, 2
	note D#, 2
	note C_, 2
	note D_, 2
	note D#, 2
	note D#, 2
	note C_, 2
	note D_, 2
	note G_, 2
	note D#, 2
	note C_, 2
	note D_, 2
	note D#, 2
	note D#, 2
	note C_, 2
	note D_, 2
	note G_, 2
	note D#, 2
	note C_, 2
	note D_, 2
	note D#, 2
	note D#, 2
	note C_, 2
	note D_, 2
	note G_, 2
	note D#, 2
	note C_, 2
	note D_, 2
	note D#, 2
	note D#, 2
	note C_, 2
	note C#, 1
	note C#, 1
	note B_, 2
	note C#, 2
	note C_, 2
	note C#, 2
	note D#, 2
	note C#, 1
	note C#, 1
	note C_, 2
	note C#, 2
	note D#, 2
	note C#, 2
	note C_, 2
	note C#, 2
	note D#, 2
	note C#, 1
	note C#, 1
	note C_, 2
	note C#, 2
	note B_, 2
	note C#, 2
	note C_, 2
	note C#, 2
	note D#, 2
	note C#, 1
	note C#, 1
	note C_, 2
	note C#, 2
	note D#, 2
	note C#, 2
	note C_, 2
	note C#, 2
	note D#, 2
	note C#, 1
	note C#, 1
	note C_, 2
	note C#, 2
	note B_, 2
	note C#, 2
	note C_, 2
	note C#, 2
	note D#, 2
	note C#, 1
	note C#, 1
	note C_, 2
	note C#, 2
	note D#, 2
	note C#, 2
	note C_, 2
	note C#, 2
	note D#, 2
	note C#, 1
	note C#, 1
	note C_, 2
	note C#, 2
	note B_, 2
	note C#, 2
	note C_, 2
	note C#, 2
	note D#, 2
	note C#, 1
	note C#, 1
	note C_, 2
	note C#, 1
	note C#, 1
	note D#, 1
	note D#, 1
	note D#, 1
	note D#, 1
	note G_, 1
	note G_, 1
	note G_, 1
	note G_, 1
	note C#, 1
	note C#, 1
	note C#, 1
	note C#, 1
	note D_, 1
	note D_, 1
	note D_, 1
	note D_, 1
	note B_, 2
	note D#, 2
	note C_, 2
	note D_, 2
	note D#, 2
	note D#, 2
	note C_, 2
	note D_, 2
	note G_, 2
	note D#, 2
	note C_, 2
	note D_, 2
	note D#, 2
	note D#, 2
	note C_, 2
	note D_, 2
	note G_, 2
	note D#, 2
	note C_, 2
	note D_, 2
	note D#, 2
	note D#, 2
	note C_, 2
	note D_, 2
	note G_, 2
	note D#, 2
	note C_, 2
	note D_, 2
	note D#, 2
	note D#, 2
	note C_, 2
	note C#, 1
	note C#, 1
	note B_, 2
	note D#, 2
	note C_, 2
	note D_, 2
	note D#, 2
	note D#, 2
	note C_, 2
	note D_, 2
	note G_, 2
	note D#, 2
	note C_, 2
	note D_, 2
	note D#, 2
	note D#, 2
	note C_, 2
	note D_, 2
	note G_, 2
	note D#, 2
	note C_, 2
	note D_, 2
	note D#, 2
	note D#, 2
	note C_, 2
	note D_, 2
	note G_, 2
	note D#, 2
	note C_, 2
	note D_, 2
	note D#, 2
	note D#, 2
	note C_, 2
	note C#, 1
	note C#, 1
	note B_, 4
	note __, 8
	note D#, 2
	note C_, 2
	note B_, 4
	note __, 8
	note C_, 2
	note C_, 2
	note B_, 4
	note __, 8
	note D#, 2
	note C_, 2
	note B_, 4
	note __, 4
	note C_, 2
	note __, 2
	note C#, 1
	note C#, 1
	note C#, 1
	note C#, 1
	note B_, 4
	note __, 8
	note D#, 2
	note C_, 2
	note B_, 4
	note __, 8
	note C_, 2
	note C_, 2
	note B_, 4
	note __, 8
	note D#, 2
	note C_, 2
	note B_, 4
	note __, 4
	note C_, 2
	note __, 2
	note C#, 1
	note C#, 1
	note C#, 1
	note C#, 1
	note B_, 2
	note D#, 2
	note C_, 2
	note D_, 2
	note D#, 2
	note D#, 2
	note C_, 2
	note D_, 2
	note G_, 2
	note D#, 2
	note C_, 2
	note D_, 2
	note D#, 2
	note D#, 2
	note C_, 2
	note D_, 2
	note G_, 2
	note D#, 2
	note C_, 2
	note D_, 2
	note D#, 2
	note D#, 2
	note C_, 2
	note D_, 2
	note G_, 2
	note D#, 2
	note C_, 2
	note D_, 2
	note D#, 2
	note D#, 2
	note C_, 2
	note C#, 1
	note C#, 1
	note B_, 2
	note D#, 2
	note C_, 2
	note D_, 2
	note D#, 2
	note D#, 2
	note C_, 2
	note D_, 2
	note G_, 2
	note D#, 2
	note C_, 2
	note D_, 2
	note D#, 2
	note D#, 2
	note C_, 2
	note D_, 2
	note G_, 2
	note D#, 2
	note C_, 2
	note D_, 2
	note D#, 2
	note D#, 2
	note C_, 2
	note D_, 2
	note G_, 2
	note D#, 2
	note C_, 2
	note D_, 2
	note D#, 2
	note D#, 2
	note C_, 2
	note C#, 1
	note C#, 1
	loopchannel 0, Music_OrangeTrainerBattle_Ch4_loop
