Music_PinkanIsland:
	musicheader 4, 1, Music_PinkanIsland_Ch1
	musicheader 1, 2, Music_PinkanIsland_Ch2
	musicheader 1, 3, Music_PinkanIsland_Ch3
	musicheader 1, 4, Music_PinkanIsland_Ch4

Music_PinkanIsland_Ch1:
	tempo $140
	volume $77
	stereopanning $f
	dutycycle 1
	tone $0001
	octave 2
	notetype $C, $A2
	note A_, 1
	notetype $6, $A2
	note __, 1
	note A_, 2
	note __, 1
	note A_, 2
	note __, 1
	note A_, 2
	note __, 1
	note A_, 2
	intensity $A1
	note A#, 1
	note A#, 1
	intensity $A2
	note A_, 2
	note __, 1
	note A_, 2
	note __, 1
	note A_, 2
	note __, 1
	note A_, 2
	note __, 1
	note A_, 2
	intensity $A1
	octave 3
	note C_, 1
	note C_, 1
	intensity $A2
	octave 2
	note A_, 2
	note __, 1
	note A_, 2
	note __, 1
	note A_, 2
	note __, 1
	note A_, 2
	note __, 1
	note A_, 2
	intensity $A1
	note A#, 1
	note A#, 1
	intensity $A2
	note A_, 2
	note __, 1
	note A_, 2
	note __, 1
	note A_, 2
	note __, 1
	note A_, 2
	note __, 5
Music_PinkanIsland_Ch1_loop:
        octave 2
        notetype $6, $A2
	note A_, 2
	note __, 1
	note A_, 2
	note __, 1
	note A_, 2
	note A_, 1
	note __, 1
	note A_, 1
	note __, 1
	note A_, 1
	note __, 1
	note A_, 2
	note A#, 2
	note __, 1
	note A#, 2
	note __, 1
	note A#, 2
	note __, 2
	note G_, 2
	note G_, 2
	note A#, 2
	note A_, 2
	note __, 1
	note A_, 2
	note __, 1
	note A_, 2
	note A_, 1
	note __, 1
	note A_, 1
	note __, 1
	note A_, 1
	note __, 1
	note A_, 2
	intensity $A7
	octave 3
	note G_, 6
	note D#, 6
	note G_, 4
	intensity $A2
	octave 2
	note A_, 2
	note __, 1
	note A_, 2
	note __, 1
	note A_, 2
	note A_, 1
	note __, 1
	note A_, 1
	note __, 1
	note A_, 1
	note __, 1
	note A_, 2
	note A#, 2
	note __, 1
	note A#, 2
	note __, 1
	note A#, 2
	note __, 2
	note G_, 2
	note A#, 2
	octave 3
	note D_, 2
	note F#, 2
	note __, 1
	note F#, 2
	note __, 1
	note D_, 2
	note __, 1
	note D_, 2
	note __, 1
	intensity $A4
	note F#, 4
	intensity $A7
	note A_, 6
	intensity $A4
	note G_, 2
	note F#, 4
	note A_, 2
	note F#, 2
	intensity $A2
	octave 4
	note G_, 1
	note F#, 1
	note G_, 2
	note D_, 2
	octave 3
	note B_, 2
	note G_, 1
	note __, 1
	note D_, 1
	intensity $A4
	note B_, 3
	octave 4
	note G_, 2
	intensity $A2
	note F#, 1
	note E_, 1
	note F#, 2
	note D_, 2
	octave 3
	note A_, 2
	note F#, 1
	note __, 1
	note D_, 1
	intensity $A4
	note A_, 3
	octave 4
	note F#, 2
	intensity $A2
	note E_, 1
	note D_, 1
	note E_, 2
	note C#, 2
	octave 3
	note A_, 2
	note E_, 1
	note __, 1
	note C#, 1
	intensity $A4
	note A_, 3
	octave 4
	note E_, 2
	intensity $A5
	note D_, 6
	intensity $A2
	octave 3
	note A_, 2
	intensity $A4
	octave 4
	note D_, 3
	note E_, 3
	note F#, 2
	intensity $A2
	note G_, 1
	note F#, 1
	note G_, 2
	note D_, 2
	octave 3
	note B_, 2
	note G_, 1
	note __, 1
	note D_, 1
	intensity $A4
	note B_, 3
	octave 4
	note G_, 2
	intensity $A2
	note F#, 1
	note E_, 1
	note F#, 2
	note D_, 2
	octave 3
	note A_, 2
	note F#, 1
	note __, 1
	note D_, 1
	intensity $A4
	note A_, 3
	octave 4
	note F#, 2
	note __, 2
	octave 3
	note G_, 3
	note __, 1
	note G_, 2
	note G_, 3
	note F#, 3
	note E_, 2
	intensity $A5
	note A_, 6
	note G_, 6
	intensity $A4
	note E_, 4
	intensity $A8
	note E_, 2
	intensity $A7
	note E_, 10
	intensity $A4
	octave 2
	note A_, 4
	loopchannel 0, Music_PinkanIsland_Ch1_loop

Music_PinkanIsland_Ch2:
	dutycycle 2
        stereopanning $f0
	tone $0002
	vibrato $03, $12
	octave 3
	notetype $C, $C2
	note F#, 1
	note __, 2
	note F#, 1
	note __, 3
	intensity $C4
	note G_, 1
	intensity $C2
	note F#, 1
	note __, 2
	note F#, 1
	note __, 3
	intensity $C4
	note A_, 1
	intensity $C2
	note F#, 1
	note __, 2
	note F#, 1
	note __, 3
	intensity $C4
	note G_, 1
	intensity $C2
	note F#, 1
	note __, 2
	note F#, 1
	note __, 4
Music_PinkanIsland_Ch2_loop:
	dutycycle 1
	octave 4
	notetype $9, $C4
	note D_, 2
	octave 3
	notetype $6, $C4
	note A_, 1
	note __, 1
	note E_, 1
	note A_, 2
	note F#, 2
	note D_, 2
	note F#, 2
	octave 4
	note D_, 2
	note C_, 2
	note __, 2
	octave 3
	note D_, 2
	note A#, 2
	note __, 2
	note C_, 2
	octave 4
	note C_, 2
	octave 3
	note B_, 1
	note A#, 1
	note A_, 3
	note D_, 1
	note __, 2
	note F#, 2
	note __, 8
	intensity $1F
	vibrato $03, $26
	octave 4
	note D#, 8
	intensity $C7
	note D#, 8
	intensity $C4
	vibrato $03, $12
	note F#, 3
	note D_, 1
	note __, 1
	octave 3
	note A_, 1
	octave 4
	note E_, 2
	note F#, 2
	note D_, 2
	octave 3
	note A_, 2
	octave 4
	note E_, 2
	note G_, 2
	note D#, 2
	note __, 2
	note G_, 3
	note A_, 1
	note __, 1
	note D#, 1
	note G_, 2
	note D_, 1
	note E_, 1
	note F#, 1
	note G_, 1
	intensity $C8
	note F#, 6
	intensity $C7
	vibrato $03, $26
	note F#, 4
	intensity $6D
	note F#, 4
	intensity $C2
	note F#, 4
	note __, 12
	dutycycle 0
	intensity $C4
	vibrato $00, $00
	octave 5
	note D_, 3
	note C#, 3
	note D_, 1
	note __, 1
	intensity $C5
	octave 4
	note B_, 6
	note __, 2
	intensity $C4
	octave 5
	note D_, 3
	note C#, 3
	note D_, 1
	note __, 1
	intensity $C5
	octave 4
	note A_, 6
	note __, 2
	intensity $C4
	note G_, 3
	note C#, 1
	note A_, 2
	note B_, 2
	note A_, 3
	note G_, 2
	note __, 1
	note D_, 1
	note E_, 1
	intensity $C5
	note F#, 6
	intensity $C4
	note E_, 2
	note F#, 3
	note G_, 3
	note A_, 2
	octave 5
	note D_, 3
	note C#, 3
	octave 4
	note A_, 1
	note __, 1
	intensity $C5
	note B_, 6
	note __, 2
	intensity $C4
	octave 5
	note D_, 3
	note E_, 3
	note C#, 1
	note __, 1
	intensity $C5
	note D_, 6
	note __, 4
	dutycycle 1
	intensity $C4
	vibrato $03, $12
	octave 4
	note D_, 2
	intensity $C2
	note D_, 2
	intensity $C4
	note D_, 2
	note D_, 3
	note E_, 3
	note F#, 2
	intensity $C8
	note E_, 8
	intensity $C7
	note E_, 8
	intensity $C8
	vibrato $03, $26
	note C#, 2
	intensity $C7
	note C#, 10
	note __, 2
	intensity $C4
	vibrato $03, $12
	octave 3
	note A_, 1
	octave 4
	note C#, 1
	loopchannel 0, Music_PinkanIsland_Ch2_loop

Music_PinkanIsland_Ch3:
	dutycycle 1
	octave 3
	notetype $6, $11
	note D_, 1
	note D#, 1
	note D_, 2
	octave 4
	note D_, 2
	octave 3
	note D_, 1
	note D#, 1
	note D_, 1
	note C_, 1
	octave 4
	note D_, 2
	note __, 2
	octave 3
	note C_, 2
	note D_, 1
	note D#, 1
	note D_, 2
	octave 4
	note D_, 2
	octave 3
	note D_, 1
	note D#, 1
	note D_, 1
	note C_, 1
	octave 4
	note D_, 2
	note __, 2
	octave 3
	note C_, 2
	note D_, 1
	note D#, 1
	note D_, 2
	octave 4
	note D_, 2
	octave 3
	note D_, 1
	note D#, 1
	note D_, 1
	note C_, 1
	octave 4
	note D_, 2
	note __, 2
	octave 3
	note C_, 2
	note D_, 1
	note D#, 1
	note D_, 2
	octave 4
	note D_, 2
	octave 3
	note D_, 1
	note D#, 1
	note D_, 1
	note C_, 1
	octave 4
	note D_, 2
	note __, 4
Music_PinkanIsland_Ch3_loop:
        notetype $6, $11
	octave 3
	note D_, 2
	note __, 1
	note D_, 2
	note __, 1
	octave 4
	note D_, 2
	octave 3
	note D_, 1
	note __, 1
	note C_, 1
	note __, 1
	note D_, 2
	octave 4
	note D_, 2
	octave 3
	note D#, 2
	note __, 1
	note D#, 2
	note __, 1
	octave 4
	note D#, 2
	octave 3
	note D#, 1
	note __, 1
	note C_, 1
	note __, 1
	note C_, 2
	octave 4
	note F_, 2
	octave 3
	note D_, 2
	note __, 1
	note D_, 2
	note __, 1
	octave 4
	note D_, 2
	octave 3
	note D_, 1
	note __, 1
	note C_, 1
	note __, 1
	note D_, 2
	octave 4
	note D_, 2
	octave 3
	note D#, 6
	note C_, 6
	octave 2
	note A#, 4
	octave 3
	note D_, 2
	note __, 1
	note D_, 2
	note __, 1
	octave 4
	note D_, 2
	octave 3
	note D_, 1
	note __, 1
	note C_, 1
	note __, 1
	note D_, 2
	octave 4
	note D_, 2
	octave 3
	note D#, 2
	note __, 1
	note D#, 2
	note __, 1
	octave 4
	note D#, 2
	octave 3
	note D#, 1
	note __, 1
	note C_, 1
	note __, 1
	note C_, 2
	octave 4
	note F_, 2
	octave 3
	note D_, 2
	note __, 1
	note D_, 2
	note __, 1
	octave 4
	note D_, 2
	octave 3
	note D_, 1
	note __, 1
	note C_, 1
	note __, 1
	note D_, 2
	octave 4
	note C_, 2
	octave 3
	note D_, 1
	note D#, 1
	note D_, 2
	octave 4
	note D_, 2
	octave 3
	note D_, 1
	note D#, 1
	note D_, 1
	note C_, 1
	octave 4
	note D_, 2
	octave 3
	notetype $3, $11
	note D_, 1
	note __, 1
	note D_, 1
	note __, 1
	note E_, 2
	note F#, 2
	note D_, 4
	octave 2
	note B_, 2
	octave 3
	note B_, 4
	note __, 2
	note D_, 4
	octave 2
	note B_, 2
	octave 3
	note B_, 4
	note __, 2
	note D_, 2
	octave 2
	note B_, 2
	octave 3
	note B_, 4
	note D_, 4
	octave 2
	note A_, 2
	octave 3
	note A_, 4
	note __, 2
	note D_, 4
	octave 2
	note A_, 2
	octave 3
	note A_, 4
	note __, 2
	note D_, 2
	octave 2
	note A_, 2
	octave 3
	note A_, 4
	note C#, 4
	octave 2
	note A_, 2
	octave 3
	note A_, 4
	note __, 2
	note C#, 4
	octave 2
	note A_, 2
	octave 3
	note A_, 4
	note __, 2
	note C#, 2
	octave 2
	note A_, 2
	octave 3
	note G_, 4
	note D_, 2
	octave 2
	note A_, 2
	octave 3
	note F#, 4
	note D_, 2
	note E_, 2
	note D_, 4
	note D_, 6
	note E_, 6
	note F#, 4
	note D_, 4
	octave 2
	note B_, 2
	octave 3
	note B_, 4
	note __, 2
	note D_, 4
	octave 2
	note B_, 2
	octave 3
	note B_, 4
	note __, 2
	note D_, 2
	octave 2
	note B_, 2
	octave 3
	note B_, 4
	note D_, 4
	octave 2
	note A_, 2
	octave 3
	note A_, 4
	note __, 2
	note D_, 4
	octave 2
	note A_, 2
	octave 3
	note A_, 4
	note __, 2
	note D_, 2
	octave 2
	note A_, 2
	octave 3
	note A_, 4
	note E_, 4
	note __, 2
	note E_, 4
	note __, 2
	octave 4
	note E_, 4
	octave 3
	note E_, 8
	note F#, 4
	note G_, 4
	note A_, 4
	octave 2
	note A_, 4
	octave 3
	note E_, 4
	note A_, 4
	octave 2
	note A_, 4
	octave 3
	note E_, 4
	note A_, 4
	note E_, 4
	note A_, 8
	note G_, 8
	note E_, 8
	note C#, 8
	loopchannel 0, Music_PinkanIsland_Ch3_loop

Music_PinkanIsland_Ch4:
	togglenoise 1
	notetype $6
	note E_, 1
	note __, 1
	note E_, 1
	note E_, 1
	note E_, 1
	note __, 1
	note E_, 1
	note E_, 1
	note E_, 1
	note __, 1
	note E_, 1
	note __, 1
	note E_, 1
	note __, 1
	note E_, 1
	note __, 1
	note E_, 1
	note __, 1
	note E_, 1
	note E_, 1
	note E_, 1
	note __, 1
	note E_, 1
	note E_, 1
	note E_, 1
	note __, 1
	note E_, 1
	note __, 1
	note E_, 1
	note __, 1
	note E_, 1
	note __, 1
	note E_, 1
	note __, 1
	note E_, 1
	note E_, 1
	note E_, 1
	note __, 1
	note E_, 1
	note E_, 1
	note E_, 1
	note __, 1
	note E_, 1
	note __, 1
	note E_, 1
	note __, 1
	note E_, 1
	note __, 1
	note F_, 1
	note __, 5
	note F_, 1
	note __, 9
Music_PinkanIsland_Ch4_loop:
        notetype $6
	note F_, 2
	note E_, 1
	note E_, 1
	note F_, 1
	note __, 1
	note E_, 1
	note E_, 1
	note E_, 1
	note __, 1
	note E_, 1
	note __, 1
	note F_, 1
	note __, 1
	note E_, 1
	note E_, 1
	note E_, 1
	note __, 1
	note E_, 1
	note E_, 1
	note F_, 1
	note __, 1
	note E_, 1
	note E_, 1
	note E_, 1
	note __, 1
	note E_, 1
	note __, 1
	note F_, 1
	note __, 1
	note E_, 1
	note E_, 1
	note E_, 1
	note __, 1
	note E_, 1
	note E_, 1
	note F_, 1
	note __, 1
	note E_, 1
	note E_, 1
	note E_, 1
	note __, 1
	note E_, 1
	note __, 1
	note F_, 1
	note __, 1
	note E_, 1
	note E_, 1
	note F_, 2
	note __, 4
	note F_, 2
	note __, 4
	note F_, 2
	note __, 2
	note F_, 2
	note E_, 1
	note E_, 1
	note F_, 1
	note __, 1
	note E_, 1
	note E_, 1
	note E_, 1
	note __, 1
	note E_, 1
	note __, 1
	note F_, 1
	note __, 1
	note E_, 1
	note E_, 1
	note E_, 1
	note __, 1
	note E_, 1
	note E_, 1
	note F_, 1
	note __, 1
	note E_, 1
	note E_, 1
	note E_, 1
	note __, 1
	note E_, 1
	note __, 1
	note F_, 1
	note __, 1
	note E_, 1
	note E_, 1
	note E_, 1
	note __, 1
	note E_, 1
	note E_, 1
	note F_, 1
	note __, 1
	note E_, 1
	note E_, 1
	note E_, 1
	note __, 1
	note E_, 1
	note __, 1
	note F_, 1
	note __, 1
	note E_, 1
	note E_, 1
	note F_, 2
	note __, 4
	note F_, 2
	note __, 4
	note F_, 2
	note __, 2
	note F_, 1
	note __, 1
	note E_, 1
	note __, 1
	note E_, 1
	note G_, 1
	note E_, 1
	note G_, 1
	note E_, 1
	note __, 1
	note F_, 2
	note __, 1
	note F_, 2
	note __, 1
	note F_, 1
	note __, 1
	note E_, 1
	note __, 1
	note E_, 1
	note G_, 1
	note E_, 1
	note G_, 1
	note E_, 1
	note __, 1
	note F_, 2
	note __, 1
	note F_, 2
	note __, 1
	note F_, 1
	note __, 1
	note E_, 1
	note __, 1
	note E_, 1
	note G_, 1
	note E_, 1
	note G_, 1
	note E_, 1
	note __, 1
	note G_, 1
	note E_, 1
	note E_, 1
	note __, 1
	note G_, 1
	note E_, 1
	note F_, 2
	note E_, 1
	note F_, 2
	note E_, 1
	note F_, 2
	note F_, 2
	note E_, 1
	note F_, 2
	note E_, 1
	note F_, 2
	note F_, 1
	note __, 1
	note E_, 1
	note __, 1
	note E_, 1
	note G_, 1
	note E_, 1
	note G_, 1
	note E_, 1
	note __, 1
	note F_, 2
	note __, 1
	note F_, 2
	note __, 1
	note F_, 1
	note __, 1
	note E_, 1
	note __, 1
	note E_, 1
	note G_, 1
	note E_, 1
	note G_, 1
	note E_, 1
	note __, 1
	note F_, 2
	note __, 1
	note F_, 2
	note __, 1
	note F_, 1
	note __, 1
	note E_, 1
	note E_, 1
	note F_, 1
	note __, 1
	note E_, 1
	note E_, 1
	note F_, 1
	note __, 1
	note E_, 1
	note F_, 1
	note __, 1
	note E_, 1
	note F_, 1
	note __, 1
	note F_, 2
	notetype $D
	note __, 12
	notetype $3
	note E_, 1
	note E_, 1
	note E_, 1
	note E_, 1
	note E_, 1
	note E_, 1
	note E_, 1
	note E_, 1
	loopchannel 0, Music_PinkanIsland_Ch4_loop

