Music_WorldTournamentFinal:
	musicheader 4, 1, Music_WorldTournamentFinal_Ch1
	musicheader 1, 2, Music_WorldTournamentFinal_Ch2
	musicheader 1, 3, Music_WorldTournamentFinal_Ch3
	musicheader 1, 4, Music_WorldTournamentFinal_Ch4

Music_WorldTournamentFinal_Ch1:
	tempo $76
	volume $77
	stereopanning $77
	tone $0001
	vibrato $00, $25
	octave 3
	notetype $C, $1F
	note F#, 8
	intensity $A8
	note F#, 4
	intensity $A5
	note F#, 4
	intensity $1F
	note B_, 8
	intensity $A8
	note B_, 4
	intensity $A5
	note B_, 4
	intensity $1F
	octave 4
	note E_, 8
	intensity $A8
	note E_, 4
	intensity $A5
	note E_, 4
	intensity $1D
	note A_, 6
	intensity $A8
	note A_, 5
	intensity $C8
	note A_, 5
	intensity $C2
	vibrato $00, $00
	note G#, 2
	note __, 1
	note G#, 1
	note __, 12
	note G#, 2
	note __, 1
	note G#, 1
	note __, 6
	note A_, 1
	note __, 1
	note F#, 1
	intensity $C4
	note A_, 2
	note __, 1
	intensity $C2
	note G#, 2
	note __, 1
	note G#, 1
	note __, 12
	note G#, 2
	note __, 1
	note G#, 1
	note __, 6
	note F#, 1
	note __, 2
	intensity $C4
	note F#, 2
	note __, 1
	note C_, 2
	note __, 16
	note __, 10
	dutycycle 1
	octave 3
	notetype $9, $A5
	note C_, 2
	octave 2
	note B_, 2
	octave 3
	notetype $C, $A5
	note C_, 1
Music_WorldTournamentFinal_Ch1_loop:
	notetype $C, $A5
	octave 3
	note C#, 3
	note __, 1
	note E_, 4
	note __, 2
	note C#, 2
	note D#, 2
	note E_, 2
	note D#, 4
	octave 2
	note B_, 2
	note F#, 4
	note D#, 2
	note F#, 2
	note G#, 2
	octave 3
	note C#, 3
	note __, 1
	note E_, 4
	note __, 2
	note C#, 2
	note D#, 2
	note E_, 2
	note F#, 2
	dutycycle 2
	intensity $82
	octave 5
	note A_, 1
	intensity $81
	note B_, 1
	intensity $82
	note F#, 1
	intensity $81
	note G#, 1
	intensity $82
	note D#, 1
	intensity $81
	note E_, 1
	intensity $82
	note C#, 1
	intensity $81
	note D#, 1
	intensity $82
	octave 4
	note A#, 1
	intensity $81
	note B_, 1
	dutycycle 1
	intensity $A4
	octave 3
	note D#, 2
	octave 2
	note B_, 2
	intensity $A5
	octave 3
	note C#, 3
	note __, 1
	note E_, 4
	note __, 2
	note C#, 2
	note D#, 2
	note E_, 2
	note D#, 3
	octave 2
	note B_, 3
	note F#, 4
	note __, 2
	note B_, 2
	note __, 1
	octave 3
	note D#, 1
	dutycycle 2
	intensity $82
	octave 5
	note C#, 1
	octave 4
	note G#, 1
	octave 5
	note F#, 1
	note G#, 1
	octave 6
	note C#, 1
	octave 5
	note C#, 1
	octave 4
	note G#, 1
	octave 5
	note F#, 1
	note G#, 1
	octave 6
	note C#, 1
	octave 5
	note G#, 1
	note F#, 1
	note C#, 1
	octave 4
	note G#, 1
	octave 5
	note F#, 1
	note G#, 1
	dutycycle 1
	intensity $A6
	octave 3
	note F_, 4
	intensity $4D
	note F_, 4
	intensity $A6
	note G#, 4
	intensity $4D
	note G#, 4
	intensity $A4
	note F#, 4
	note D_, 4
	octave 2
	note B_, 2
	octave 3
	note D_, 4
	note F#, 4
	note D_, 4
	octave 2
	note B_, 4
	octave 3
	note D_, 2
	note G#, 2
	note F#, 2
	note F_, 4
	note C#, 4
	octave 2
	note G#, 2
	octave 3
	note C#, 4
	note F_, 4
	note C#, 4
	note G#, 4
	note F#, 2
	note F_, 2
	note G#, 2
	note D_, 4
	octave 2
	note A_, 4
	octave 3
	note F#, 4
	note D_, 4
	note A_, 2
	note F#, 4
	note D_, 4
	note F#, 2
	note G#, 2
	note F#, 2
	note E_, 2
	note C#, 2
	note __, 2
	octave 2
	note A_, 4
	octave 3
	note C#, 2
	note D#, 2
	note E_, 2
	note F#, 2
	note D#, 2
	note __, 2
	note E_, 2
	notetype $9, $A5
	note F#, 2
	note D#, 2
	octave 2
	notetype $C, $A5
	note B_, 1
	octave 3
	notetype $9, $A5
	note D#, 2
	octave 2
	note B_, 2
	octave 3
	notetype $C, $A5
	note F#, 1
	dutycycle 0
	intensity $C2
	octave 4
	note G#, 2
	note __, 1
	note G#, 1
	note __, 12
	note G#, 2
	note __, 1
	note G#, 1
	note __, 6
	note A_, 1
	note __, 1
	note F#, 1
	intensity $C4
	note A_, 2
	note __, 1
	intensity $C2
	note G#, 2
	note __, 1
	note G#, 1
	note __, 12
	note G#, 2
	note __, 4
	note G#, 2
	note __, 4
	notetype $6, $C1
	note G#, 1
	note __, 3
	intensity $C4
	note G#, 4
	dutycycle 1
	intensity $A4
	note E_, 4
	note __, 2
	note E_, 2
	note __, 4
	note D#, 2
	octave 3
	note A_, 4
	note __, 2
	octave 4
	note E_, 2
	note __, 2
	note D#, 1
	note __, 1
	note E_, 4
	note __, 2
	note F#, 4
	note __, 2
	note F#, 2
	note __, 4
	note E_, 2
	octave 3
	note B_, 4
	note __, 2
	octave 4
	note F#, 2
	note __, 2
	note F_, 1
	note __, 1
	note F#, 4
	note __, 2
	note G#, 4
	note __, 2
	note G#, 2
	note __, 4
	note F#, 2
	note C#, 4
	note __, 2
	note G#, 2
	note __, 2
	note G_, 1
	note __, 1
	note G#, 4
	note __, 6
	note A#, 1
	note __, 3
	note A#, 4
	note G#, 1
	note __, 1
	note A#, 1
	note __, 3
	note A#, 1
	note __, 3
	note G#, 1
	note __, 1
	note B_, 4
	note A#, 4
	note E_, 4
	note __, 2
	note E_, 2
	note __, 4
	note D#, 2
	octave 3
	note A_, 4
	note __, 2
	octave 4
	note E_, 2
	note __, 2
	note D#, 1
	note __, 1
	note E_, 4
	note __, 2
	note F#, 4
	note __, 2
	note F#, 2
	note __, 4
	note E_, 2
	octave 3
	note B_, 4
	note __, 2
	octave 4
	note F#, 2
	note __, 2
	note F_, 1
	note __, 1
	note F#, 4
	note __, 2
	note G#, 4
	note __, 2
	note G#, 2
	note __, 4
	note F#, 2
	note C#, 4
	note __, 2
	note G#, 2
	note __, 2
	note G_, 1
	note __, 1
	note G#, 4
	note __, 2
	intensity $A1
	note G#, 1
	note __, 1
	intensity $A4
	note G#, 4
	intensity $A1
	octave 2
	note G#, 2
	intensity $A4
	note G#, 4
	intensity $A1
	octave 4
	note G#, 1
	note __, 1
	intensity $A4
	note G#, 4
	intensity $A1
	octave 2
	note G#, 2
	intensity $A4
	note G#, 4
	intensity $A1
	octave 4
	note G#, 1
	note __, 1
	note G#, 1
	note __, 1
	intensity $A4
	note G#, 4
	note E_, 4
	note __, 2
	note E_, 2
	note __, 4
	note D#, 2
	octave 3
	note A_, 4
	note __, 2
	octave 4
	note E_, 2
	note __, 2
	note D#, 1
	note __, 1
	note E_, 4
	note __, 2
	note F#, 4
	note __, 2
	note F#, 2
	note __, 4
	note E_, 2
	octave 3
	note B_, 4
	note __, 2
	octave 4
	note F#, 2
	note __, 2
	note F_, 1
	note __, 1
	note F#, 4
	note __, 2
	note G#, 4
	note __, 2
	note G#, 2
	note __, 4
	note F#, 2
	note C#, 4
	note __, 2
	note G#, 2
	note __, 2
	note G_, 1
	note __, 1
	note G#, 4
	note __, 6
	note A#, 1
	note __, 3
	note A#, 4
	note G#, 1
	note __, 1
	note A#, 1
	note __, 3
	note A#, 1
	note __, 3
	note G#, 1
	note __, 1
	note B_, 4
	note A#, 4
	note E_, 4
	note __, 2
	note E_, 2
	note __, 4
	note D#, 2
	octave 3
	note A_, 4
	note __, 2
	octave 4
	note E_, 2
	note __, 2
	note D#, 1
	note __, 1
	note E_, 4
	note __, 2
	note F#, 4
	note __, 2
	note F#, 2
	note __, 4
	note E_, 2
	octave 3
	note B_, 4
	note __, 2
	octave 4
	note F#, 2
	note __, 2
	note F_, 1
	note __, 1
	note F#, 4
	note __, 2
	note G#, 4
	note __, 2
	note G#, 2
	note __, 4
	note F#, 2
	note C#, 4
	note __, 2
	note G#, 2
	note __, 2
	note G_, 1
	note __, 1
	note G#, 4
	note __, 2
	note E_, 4
	note G#, 1
	note __, 3
	note G#, 4
	note E_, 1
	note __, 1
	note G#, 1
	note __, 1
	note E_, 2
	note C#, 2
	note E_, 2
	note F#, 2
	note E_, 2
	note F#, 2
	note E_, 2
	note C_, 2
	octave 2
	note G#, 2
	note F#, 2
	note G#, 2
	note __, 2
	note F#, 4
	note B_, 8
	note F#, 2
	note __, 2
	note G#, 2
	note F#, 2
	note G#, 4
	note A_, 2
	note G#, 2
	note A_, 2
	note __, 2
	note G#, 4
	octave 3
	note D_, 8
	octave 2
	note G#, 2
	note __, 2
	note A_, 2
	note G#, 2
	note A_, 4
	note B_, 2
	note A_, 2
	note B_, 2
	note __, 2
	note A_, 4
	octave 3
	note E_, 8
	octave 2
	note A_, 2
	note __, 2
	note B_, 2
	note A_, 2
	note B_, 4
	note A_, 2
	note G#, 2
	note A_, 2
	note __, 2
	note G#, 4
	octave 3
	note D_, 8
	octave 2
	note G#, 2
	note __, 2
	note A_, 2
	note F#, 2
	note B_, 4
	intensity $C2
	note G#, 2
	note F#, 2
	note G#, 2
	note F_, 2
	octave 3
	note C#, 2
	octave 2
	note B_, 2
	note G#, 2
	note F#, 2
	note G#, 2
	note F#, 2
	note G#, 2
	note F_, 2
	octave 3
	note C#, 2
	octave 2
	note F_, 2
	note G#, 2
	note B_, 2
	note A_, 2
	note G#, 2
	note A_, 2
	note F#, 2
	octave 3
	note D_, 2
	note C_, 2
	octave 2
	note A_, 2
	note G#, 2
	note F#, 2
	note A_, 2
	octave 3
	note C_, 2
	note D_, 2
	note E_, 2
	note D_, 2
	octave 2
	note A_, 2
	octave 3
	note C_, 2
	octave 2
	note B_, 2
	note G#, 2
	note B_, 2
	note A_, 2
	octave 3
	note E_, 2
	octave 2
	note B_, 2
	octave 3
	note D#, 2
	note E_, 2
	note F#, 2
	note G#, 2
	note F#, 2
	note E_, 2
	note D_, 2
	note E_, 2
	octave 2
	note B_, 2
	octave 3
	note D_, 2
	note F#, 2
	note G#, 2
	note __, 2
	note D#, 2
	octave 2
	note B_, 2
	note __, 2
	octave 3
	note F#, 2
	note D#, 2
	note __, 2
	note F#, 2
	note D#, 2
	note __, 2
	note F#, 2
	note B_, 2
	octave 4
	note D#, 2
	note E_, 2
	note __, 2
	intensity $84
	note B_, 4
	note __, 2
	intensity $64
	note B_, 4
	note __, 2
	intensity $44
	note B_, 4
	note __, 2
	intensity $24
	note B_, 4
	intensity $A5
	octave 3
	note C_, 3
	octave 2
	note B_, 3
	octave 3
	note C_, 2
	loopchannel 0, Music_WorldTournamentFinal_Ch1_loop

Music_WorldTournamentFinal_Ch2:
	tone $0002
	vibrato $00, $25
	octave 3
	notetype $6, $A1
	note B_, 1
	note B_, 1
	note B_, 1
	note B_, 1
	note B_, 1
	note B_, 1
	note B_, 1
	note B_, 1
	intensity $81
	note B_, 1
	intensity $A1
	note B_, 1
	note B_, 1
	note B_, 1
	note B_, 1
	note B_, 1
	note B_, 1
	note B_, 1
	note B_, 1
	note B_, 1
	note B_, 1
	note B_, 1
	note B_, 1
	note B_, 1
	note B_, 1
	note B_, 1
	note B_, 1
	note B_, 1
	note B_, 1
	note B_, 1
	note B_, 1
	note B_, 1
	note B_, 1
	note B_, 1
	octave 4
	note E_, 1
	note E_, 1
	note E_, 1
	note E_, 1
	note E_, 1
	note E_, 1
	note E_, 1
	note E_, 1
	note E_, 1
	note E_, 1
	note E_, 1
	note E_, 1
	note E_, 1
	note E_, 1
	note E_, 1
	note E_, 1
	note E_, 1
	note E_, 1
	note E_, 1
	note E_, 1
	note E_, 1
	note E_, 1
	note E_, 1
	note E_, 1
	note E_, 1
	note E_, 1
	note E_, 1
	note E_, 1
	note E_, 1
	note E_, 1
	note E_, 1
	note E_, 1
	note A_, 1
	note A_, 1
	note A_, 1
	note A_, 1
	note A_, 1
	note A_, 1
	note A_, 1
	note A_, 1
	note A_, 1
	note A_, 1
	note A_, 1
	note A_, 1
	note A_, 1
	note A_, 1
	note A_, 1
	note A_, 1
	note A_, 1
	note A_, 1
	note A_, 1
	note A_, 1
	note A_, 1
	note A_, 1
	note A_, 1
	note A_, 1
	note A_, 1
	note A_, 1
	note A_, 1
	note A_, 1
	note A_, 1
	note A_, 1
	note A_, 1
	note A_, 1
	octave 5
	note D_, 1
	note D_, 1
	note D_, 1
	note D_, 1
	note D_, 1
	note D_, 1
	note D_, 1
	note D_, 1
	note D_, 1
	note D_, 1
	note D_, 1
	note D_, 1
	note D_, 1
	note D_, 1
	note D_, 1
	note D_, 1
	intensity $C1
	note D_, 1
	intensity $B1
	note D_, 1
	intensity $C1
	note D_, 1
	intensity $B1
	note D_, 1
	intensity $C1
	note D_, 1
	intensity $B1
	note D_, 1
	intensity $C1
	note D_, 1
	intensity $B1
	note D_, 1
	intensity $C1
	note D_, 1
	intensity $B1
	note D_, 1
	intensity $C1
	note D_, 1
	intensity $B1
	note D_, 1
	intensity $C1
	note D_, 1
	intensity $B1
	note D_, 1
	intensity $C1
	note D_, 1
	intensity $B1
	note D_, 1
	dutycycle 1
	intensity $C2
	vibrato $00, $00
	note C#, 4
	note __, 2
	note C#, 2
	notetype $C, $C2
	note __, 12
	note C#, 2
	note __, 1
	note C#, 1
	note __, 6
	note D_, 1
	note __, 1
	octave 4
	note B_, 1
	intensity $C4
	octave 5
	note D_, 2
	note __, 1
	intensity $C2
	note C#, 2
	note __, 1
	note C#, 1
	note __, 12
	note C#, 2
	note __, 1
	note C#, 1
	note __, 6
	octave 4
	note B_, 1
	note __, 2
	intensity $C4
	note B_, 2
	note __, 1
	note G#, 2
	notetype $3, $B1
	note F#, 1
	intensity $A1
	note F_, 1
	intensity $91
	note D#, 1
	intensity $71
	note C#, 1
	intensity $51
	note C_, 1
	intensity $31
	octave 3
	note A#, 1
	note __, 2
	dutycycle 2
	intensity $84
	octave 2
	note G#, 8
	note __, 4
	note D#, 8
	note __, 4
	note C_, 8
	note __, 4
	octave 1
	note G#, 8
	note __, 4
	intensity $52
	note G#, 2
	note __, 2
	note G#, 2
	note __, 2
	intensity $84
	note G#, 4
	intensity $52
	note G#, 2
	note __, 2
	intensity $84
	octave 2
	note G#, 8
	note D#, 8
	intensity $52
	octave 1
	note G#, 2
	note __, 2
	intensity $84
	octave 2
	note D#, 4
	intensity $52
	octave 1
	note G#, 2
	note __, 2
	note G#, 2
	note __, 2
	dutycycle 1
	intensity $C4
	octave 3
	note G#, 6
	note G_, 6
	note G#, 4
	octave 4
	note C#, 8
	note __, 4
	note E_, 4
	notetype $D, $C4
	note G#, 6
	notetype $9, $C4
	note __, 2
	notetype $C, $C4
	note G#, 1
	note F#, 1
	note E_, 2
	note D#, 4
	octave 3
	note B_, 4
	note __, 4
	notetype $9, $C4
	note G#, 2
	notetype $C, $C4
	note G_, 1
	notetype $9, $C4
	note G#, 2
	notetype $C, $C4
	note A_, 2
	note __, 1
	octave 4
	note E_, 1
	note G#, 6
	note __, 2
	note B_, 1
	note __, 1
	octave 5
	note C#, 1
	note __, 1
Music_WorldTournamentFinal_Ch2_loop:
	notetype $C, $C4
	octave 4
	note D#, 1
	note __, 2
	octave 3
	note B_, 1
	octave 4
	note F#, 4
	note __, 4
	octave 3
	notetype $9, $C4
	note A_, 2
	notetype $C, $C4
	note G#, 1
	notetype $9, $C4
	note A_, 2
	octave 4
	notetype $C, $C4
	note E_, 2
	note __, 1
	note C#, 1
	note G#, 6
	note __, 2
	note G#, 1
	note F#, 1
	note E_, 2
	note D#, 4
	note __, 1
	note F#, 1
	octave 3
	note B_, 4
	note __, 2
	note B_, 4
	intensity $C8
	octave 4
	note C#, 12
	vibrato $00, $24
	note C#, 12
	intensity $C6
	note C#, 8
	intensity $C4
	vibrato $00, $00
	note D_, 2
	note __, 1
	intensity $C2
	note D_, 1
	note __, 6
	intensity $C4
	note D_, 2
	note __, 1
	intensity $C2
	note D_, 1
	note __, 2
	intensity $C4
	note D_, 4
	octave 3
	note A_, 2
	octave 4
	note E_, 4
	octave 3
	note F#, 2
	octave 4
	note D_, 2
	note E_, 2
	note C#, 2
	note __, 1
	intensity $C2
	note C#, 1
	note __, 6
	intensity $C4
	note C#, 2
	note __, 1
	intensity $C2
	note C#, 1
	note __, 2
	intensity $C4
	note C#, 3
	note F_, 3
	note G#, 3
	note F#, 3
	note F_, 2
	note C#, 2
	note D_, 2
	note __, 1
	intensity $C2
	note D_, 1
	note __, 2
	intensity $C4
	octave 3
	note A_, 2
	octave 4
	note E_, 2
	note __, 1
	intensity $C2
	note E_, 1
	note __, 2
	intensity $C4
	note F#, 2
	note D_, 2
	note __, 1
	intensity $C2
	note D_, 1
	note __, 2
	intensity $C4
	note A_, 2
	note F#, 2
	note __, 1
	intensity $C2
	note D_, 1
	note __, 2
	intensity $C4
	note C#, 2
	intensity $C8
	vibrato $00, $24
	note E_, 8
	intensity $C6
	note E_, 8
	note F#, 8
	note B_, 4
	intensity $5F
	note B_, 4
	intensity $C2
	vibrato $00, $00
	octave 5
	note C#, 2
	note __, 1
	note C#, 1
	note __, 12
	note C#, 2
	note __, 1
	note C#, 1
	note __, 6
	note D_, 1
	note __, 1
	octave 4
	note B_, 1
	intensity $C4
	octave 5
	note D_, 2
	note __, 1
	intensity $C2
	note C#, 2
	note __, 1
	note C#, 1
	note __, 12
	intensity $C4
	note C#, 2
	octave 4
	notetype $3, $B1
	note B_, 1
	intensity $A1
	note A#, 1
	intensity $91
	note G#, 1
	intensity $71
	note F#, 1
	intensity $51
	note F_, 1
	intensity $31
	note D#, 1
	note __, 10
	intensity $C4
	octave 5
	note C#, 8
	intensity $B1
	octave 4
	note B_, 1
	intensity $A1
	note A#, 1
	intensity $91
	note G#, 1
	intensity $71
	note F#, 1
	intensity $51
	note F_, 1
	intensity $31
	note D#, 1
	note __, 10
	intensity $C1
	octave 5
	note C#, 2
	note __, 6
	intensity $C4
	note C#, 8
	intensity $B8
	octave 1
	note A_, 10
	note __, 2
	note A_, 4
	octave 2
	note A_, 8
	note E_, 8
	octave 1
	note A_, 4
	octave 3
	note C#, 4
	octave 1
	note A_, 2
	note __, 2
	octave 3
	note C#, 4
	note C#, 8
	octave 2
	note A_, 8
	octave 1
	note B_, 10
	note __, 2
	note B_, 4
	octave 2
	note B_, 8
	note F#, 8
	octave 1
	note B_, 4
	octave 3
	note D#, 4
	octave 1
	note B_, 2
	note __, 2
	octave 3
	note D#, 4
	note D#, 8
	octave 2
	note B_, 8
	note C#, 10
	note __, 2
	note C#, 4
	octave 3
	note C#, 8
	octave 2
	note G#, 8
	note C#, 2
	note __, 2
	note C#, 2
	note __, 2
	octave 3
	note F#, 8
	note D#, 8
	octave 2
	note B_, 8
	note F#, 8
	note C#, 2
	note __, 2
	note C#, 4
	octave 3
	note F#, 8
	note C#, 8
	octave 2
	note C#, 2
	note __, 2
	note C#, 4
	octave 3
	note F#, 8
	note C#, 8
	octave 2
	note F#, 8
	octave 1
	note A_, 10
	note __, 2
	note A_, 4
	octave 2
	note A_, 8
	note E_, 8
	octave 1
	note A_, 4
	octave 3
	note C#, 4
	octave 1
	note A_, 2
	note __, 2
	octave 3
	note C#, 4
	note C#, 8
	octave 2
	note A_, 8
	octave 1
	note B_, 10
	note __, 2
	note B_, 4
	octave 2
	note B_, 8
	note F#, 8
	octave 1
	note B_, 4
	octave 3
	note D#, 4
	octave 1
	note B_, 2
	note __, 2
	octave 3
	note D#, 4
	note D#, 8
	octave 2
	note B_, 8
	note C#, 10
	note __, 2
	note C#, 4
	octave 3
	note C#, 8
	octave 2
	note G#, 8
	note C#, 2
	note __, 2
	note C#, 2
	note __, 2
	octave 3
	note F#, 8
	note D#, 8
	octave 2
	note B_, 8
	octave 3
	note C#, 4
	octave 2
	note C#, 4
	note __, 4
	note C#, 4
	note __, 4
	note C#, 4
	octave 3
	note C#, 4
	octave 2
	note C#, 4
	note __, 4
	note C#, 4
	note __, 4
	note C#, 4
	octave 3
	note C#, 8
	octave 2
	note B_, 8
	octave 1
	note A_, 10
	note __, 2
	note A_, 4
	octave 2
	note A_, 8
	note E_, 8
	octave 1
	note A_, 4
	octave 3
	note C#, 4
	octave 1
	note A_, 2
	note __, 2
	octave 3
	note C#, 4
	note C#, 8
	octave 2
	note A_, 8
	octave 1
	note B_, 10
	note __, 2
	note B_, 4
	octave 2
	note B_, 8
	note F#, 8
	octave 1
	note B_, 4
	octave 3
	note D#, 4
	octave 1
	note B_, 2
	note __, 2
	octave 3
	note D#, 4
	note D#, 8
	octave 2
	note B_, 8
	note C#, 10
	note __, 2
	note C#, 4
	octave 3
	note C#, 8
	octave 2
	note G#, 8
	note C#, 2
	note __, 2
	note C#, 2
	note __, 2
	octave 3
	note F#, 8
	note D#, 8
	octave 2
	note B_, 8
	note F#, 8
	note C#, 2
	note __, 2
	note C#, 4
	octave 3
	note F#, 8
	note C#, 8
	octave 2
	note C#, 2
	note __, 2
	note C#, 4
	octave 3
	note F#, 8
	note C#, 8
	octave 2
	note F#, 8
	octave 1
	note A_, 10
	note __, 2
	note A_, 4
	octave 2
	note A_, 8
	note E_, 8
	octave 1
	note A_, 4
	octave 3
	note C#, 4
	octave 1
	note A_, 2
	note __, 2
	octave 3
	note C#, 4
	note C#, 8
	octave 2
	note A_, 8
	octave 1
	note B_, 10
	note __, 2
	note B_, 4
	octave 2
	note B_, 8
	note F#, 8
	octave 1
	note B_, 4
	octave 3
	note D#, 4
	octave 1
	note B_, 2
	note __, 2
	octave 3
	note D#, 4
	note D#, 8
	octave 2
	note B_, 8
	note C#, 10
	note __, 2
	note C#, 4
	octave 3
	note C#, 8
	octave 2
	note G#, 8
	note C#, 2
	note __, 2
	note C#, 2
	note __, 2
	octave 3
	note C#, 8
	octave 2
	note C#, 2
	note __, 2
	note G#, 8
	note C#, 2
	note __, 2
	octave 3
	note C#, 4
	octave 2
	note C#, 4
	note __, 4
	note E_, 4
	note __, 4
	note C#, 4
	octave 3
	note C#, 4
	octave 2
	note C#, 4
	note __, 4
	note E_, 4
	note __, 4
	note C#, 4
	octave 3
	note C#, 2
	note __, 2
	octave 2
	note B_, 2
	note __, 2
	octave 3
	note C#, 8
	intensity $C4
	note C#, 16
	note __, 8
	note F_, 16
	note __, 8
	note C#, 16
	note D_, 16
	note __, 8
	note F#, 16
	note __, 8
	note G#, 16
	note E_, 16
	note __, 8
	note G#, 16
	note __, 8
	note E_, 16
	note F#, 16
	note __, 8
	note B_, 16
	note __, 8
	octave 4
	note D_, 16
	intensity $C2
	note C#, 2
	note __, 2
	note C#, 4
	note __, 4
	octave 3
	note G#, 4
	intensity $C4
	octave 4
	note E_, 8
	intensity $C2
	octave 3
	note C#, 2
	note __, 2
	note C#, 4
	note __, 4
	note G#, 4
	octave 4
	note C#, 4
	note __, 4
	intensity $C4
	octave 3
	note G#, 4
	note B_, 4
	octave 4
	note C#, 8
	intensity $C2
	note D_, 2
	note __, 2
	note D_, 4
	note __, 4
	octave 3
	note A_, 4
	intensity $C4
	octave 4
	note F#, 8
	intensity $C2
	octave 3
	note D_, 2
	note __, 2
	note D_, 4
	note __, 4
	note A_, 4
	octave 4
	note D_, 4
	note __, 4
	intensity $C4
	note D_, 4
	note C#, 4
	note D_, 8
	intensity $C2
	note E_, 2
	note __, 2
	note E_, 4
	note __, 4
	octave 3
	note B_, 4
	intensity $C4
	octave 4
	note G#, 8
	intensity $C2
	octave 3
	note E_, 2
	note __, 2
	note E_, 4
	note __, 4
	note B_, 4
	octave 4
	note E_, 4
	note __, 4
	intensity $C4
	note E_, 4
	note D#, 4
	note E_, 8
	intensity $C2
	note F#, 4
	note __, 8
	intensity $C4
	note F#, 12
	intensity $C2
	note B_, 4
	note __, 8
	intensity $C4
	note B_, 12
	intensity $C2
	note G#, 4
	note __, 4
	intensity $C4
	note B_, 8
	intensity $84
	octave 1
	note G#, 8
	note __, 4
	note G#, 4
	octave 2
	note G#, 8
	note __, 4
	note D#, 8
	note __, 4
	note C_, 8
	intensity $C4
	octave 3
	note G#, 6
	note G_, 6
	note G#, 4
	intensity $C2
	octave 4
	note C#, 4
	note __, 4
	intensity $C4
	note G#, 4
	note F#, 4
	notetype $F, $C4
	note G#, 4
	notetype $C, $C4
	note __, 1
	intensity $C2
	note G#, 1
	note __, 1
	intensity $C4
	note G#, 1
	note F#, 1
	note E_, 2
	note D#, 4
	note F#, 4
	note __, 2
	intensity $C2
	note F#, 1
	note __, 1
	note G#, 1
	note __, 1
	note F#, 1
	note __, 1
	intensity $C4
	octave 3
	note A_, 2
	octave 4
	note G#, 1
	note F#, 1
	note G#, 6
	intensity $C2
	note D#, 1
	note __, 1
	note B_, 1
	note __, 1
	octave 5
	note C#, 1
	note __, 1
	loopchannel 0, Music_WorldTournamentFinal_Ch2_loop

Music_WorldTournamentFinal_Ch3:
	dutycycle 5
	slidepitchto 1, 7, F_
	octave 2
	notetype $C, $25
	note B_, 1
	slidepitchto 1, 7, F_
	octave 3
	note G#, 1
	intensity $35
	slidepitchto 1, 7, A#
	octave 1
	note A#, 1
	note __, 1
	intensity $25
	slidepitchto 1, 7, F_
	octave 2
	note B_, 1
	slidepitchto 1, 7, F_
	octave 3
	note G#, 1
	intensity $35
	slidepitchto 1, 7, A#
	octave 1
	note A#, 1
	note __, 1
	intensity $25
	slidepitchto 1, 7, F_
	octave 2
	note B_, 1
	slidepitchto 1, 7, F_
	octave 3
	note G#, 1
	intensity $35
	slidepitchto 1, 7, A#
	octave 1
	note A#, 1
	note __, 1
	intensity $25
	slidepitchto 1, 7, F_
	octave 2
	note B_, 1
	slidepitchto 1, 7, F_
	octave 3
	note G#, 1
	intensity $35
	slidepitchto 1, 7, A#
	octave 1
	note A#, 1
	note __, 1
	intensity $25
	slidepitchto 1, 7, F_
	octave 2
	note B_, 1
	slidepitchto 1, 7, F_
	octave 3
	note G#, 1
	intensity $35
	slidepitchto 1, 7, A#
	octave 1
	note A#, 1
	note __, 1
	intensity $15
	slidepitchto 1, 7, F_
	octave 2
	note B_, 1
	slidepitchto 1, 7, F_
	octave 3
	note F_, 1
	intensity $35
	slidepitchto 1, 7, A#
	octave 1
	note A#, 1
	note __, 1
	intensity $15
	slidepitchto 1, 7, F_
	octave 2
	note B_, 1
	slidepitchto 1, 7, F_
	octave 3
	note F_, 1
	intensity $35
	slidepitchto 1, 7, A#
	octave 1
	note A#, 1
	note __, 1
	intensity $15
	slidepitchto 1, 7, F_
	octave 2
	note B_, 1
	slidepitchto 1, 7, F_
	octave 3
	note F_, 1
	intensity $35
	slidepitchto 1, 7, A#
	octave 1
	note A#, 1
	note __, 1
	intensity $15
	slidepitchto 1, 7, F_
	octave 2
	note B_, 1
	slidepitchto 1, 7, F_
	octave 3
	note F_, 1
	intensity $35
	slidepitchto 1, 7, A#
	octave 1
	note A#, 1
	note __, 1
	intensity $15
	slidepitchto 1, 7, F_
	octave 2
	note B_, 1
	slidepitchto 1, 7, F_
	octave 3
	note F_, 1
	intensity $35
	slidepitchto 1, 7, A#
	octave 1
	note A#, 1
	note __, 1
	intensity $15
	slidepitchto 1, 7, F_
	octave 2
	note B_, 1
	slidepitchto 1, 7, F_
	octave 3
	note F_, 1
	intensity $35
	slidepitchto 1, 7, A#
	octave 1
	note A#, 1
	note __, 1
	intensity $15
	slidepitchto 1, 7, F_
	octave 2
	note B_, 1
	slidepitchto 1, 7, F_
	octave 3
	note F_, 1
	intensity $35
	slidepitchto 1, 7, A#
	octave 1
	note A#, 1
	note __, 1
	intensity $25
	slidepitchto 1, 7, F_
	octave 2
	note B_, 1
	slidepitchto 1, 7, F_
	octave 3
	note G#, 1
	intensity $35
	slidepitchto 1, 7, A#
	octave 1
	note A#, 1
	note __, 1
	intensity $25
	slidepitchto 1, 7, F_
	octave 2
	note B_, 1
	slidepitchto 1, 7, F_
	octave 3
	note G#, 1
	intensity $35
	slidepitchto 1, 7, A#
	octave 1
	note A#, 1
	note __, 1
	intensity $25
	slidepitchto 1, 7, F_
	octave 2
	note B_, 1
	slidepitchto 1, 7, F_
	octave 3
	note G#, 1
	intensity $35
	slidepitchto 1, 7, A#
	octave 1
	note A#, 1
	note __, 1
	intensity $25
	slidepitchto 1, 7, F_
	octave 2
	note B_, 1
	slidepitchto 1, 7, F_
	octave 3
	note G#, 1
	intensity $35
	slidepitchto 1, 7, A#
	octave 1
	note A#, 1
	note __, 1
	dutycycle 4
	intensity $14
	octave 2
	note C#, 2
	note __, 2
	octave 3
	note C#, 2
	octave 2
	note G#, 2
	note C#, 2
	octave 3
	note C#, 2
	note __, 1
	note C#, 2
	octave 2
	note E_, 1
	note C#, 2
	note __, 1
	note C#, 1
	octave 3
	note C#, 2
	octave 2
	note G#, 2
	note C#, 2
	octave 3
	note D_, 2
	note __, 1
	octave 2
	note B_, 2
	notetype $6, $14
	note C#, 1
	note __, 1
	note C#, 4
	note __, 2
	note C#, 2
	octave 3
	note C#, 4
	octave 2
	note G#, 4
	note C#, 4
	octave 3
	note C#, 4
	note __, 2
	octave 2
	note C#, 2
	note __, 2
	note C#, 1
	note __, 1
	note C#, 4
	note __, 2
	note C#, 2
	octave 3
	note C#, 4
	octave 2
	note G#, 4
	note C#, 1
	note __, 1
	note C#, 1
	note __, 1
	octave 3
	note C#, 4
	note __, 2
	octave 2
	note C#, 2
	note __, 2
	note C#, 1
	note __, 1
	octave 1
	note G#, 4
	note __, 2
	note G#, 2
	octave 3
	note G#, 4
	note __, 2
	note D#, 4
	note __, 2
	note C_, 4
	note __, 2
	octave 2
	note G#, 4
	note __, 2
	octave 1
	note G#, 1
	note __, 1
	note G#, 1
	note __, 1
	octave 2
	note G#, 2
	octave 1
	note G#, 1
	note __, 1
	octave 3
	note G#, 4
	note D#, 4
	octave 1
	note G#, 1
	note __, 1
	octave 3
	note D#, 2
	octave 1
	note G#, 1
	note __, 1
	note G#, 1
	note __, 1
	octave 2
	note G#, 2
	octave 3
	note D#, 4
	octave 2
	note G#, 2
Music_WorldTournamentFinal_Ch3_loop:
	notetype $6, $14
	octave 2
	note A_, 8
	note E_, 1
	note __, 1
	note E_, 1
	note __, 1
	note A_, 8
	note __, 4
	note A_, 3
	note __, 1
	note A_, 1
	note __, 1
	note A_, 1
	note __, 1
	note B_, 8
	note F#, 1
	note __, 1
	note F#, 1
	note __, 1
	note B_, 8
	note F#, 4
	note G#, 2
	note __, 2
	note F#, 2
	note __, 2
	note A_, 8
	note E_, 1
	note __, 1
	note E_, 1
	note __, 1
	note A_, 8
	note __, 4
	note A_, 8
	note B_, 4
	note __, 2
	note B_, 2
	note F#, 1
	note __, 1
	note F#, 1
	note __, 1
	note B_, 8
	note __, 4
	note B_, 5
	note __, 1
	note A_, 1
	note __, 1
	note A_, 8
	note E_, 1
	note __, 1
	note E_, 1
	note __, 1
	note A_, 7
	note __, 5
	note A_, 3
	note __, 1
	note A_, 1
	note __, 1
	note A_, 1
	note __, 1
	note B_, 8
	note F#, 1
	note __, 1
	note F#, 1
	note __, 1
	note B_, 8
	note __, 4
	note B_, 3
	note __, 1
	note B_, 1
	note __, 1
	note B_, 1
	note __, 1
	note C#, 4
	note G#, 1
	note __, 1
	note G#, 1
	note __, 1
	note G#, 4
	note C#, 4
	note __, 4
	note G#, 4
	note C#, 4
	note __, 4
	note C#, 3
	note __, 1
	note G#, 1
	note __, 1
	note G#, 1
	note __, 1
	note G#, 4
	note __, 8
	note G#, 4
	octave 3
	note C#, 4
	octave 2
	note F#, 4
	note D_, 4
	note __, 2
	note D_, 1
	note __, 1
	octave 3
	note D_, 4
	octave 2
	note D_, 4
	note __, 4
	octave 3
	note D_, 4
	octave 2
	note D_, 4
	note __, 2
	note D_, 1
	note __, 1
	note D_, 4
	note __, 2
	note D_, 1
	note __, 1
	octave 3
	note D_, 4
	octave 2
	note D_, 4
	note __, 4
	octave 3
	note D_, 4
	octave 2
	note D_, 4
	note __, 2
	octave 3
	note E_, 2
	octave 2
	note C#, 4
	note __, 2
	note C#, 1
	note __, 1
	octave 3
	note C#, 4
	octave 2
	note C#, 4
	note __, 4
	octave 3
	note C#, 4
	octave 2
	note C#, 4
	note __, 2
	note C#, 1
	note __, 1
	note C#, 4
	note __, 2
	note C#, 1
	note __, 1
	octave 3
	note C#, 4
	octave 2
	note C#, 4
	note __, 4
	octave 3
	note D_, 4
	octave 2
	note C#, 2
	octave 3
	note C#, 4
	octave 2
	note C#, 2
	note D_, 4
	note __, 2
	note D_, 1
	note __, 1
	octave 3
	note D_, 4
	octave 2
	note D_, 4
	note __, 4
	octave 3
	note D_, 4
	octave 2
	note D_, 4
	note __, 2
	note D_, 1
	note __, 1
	note D_, 4
	note __, 2
	note D_, 1
	note __, 1
	octave 3
	note D_, 4
	octave 2
	note D_, 4
	note __, 4
	octave 3
	note E_, 4
	octave 2
	note D_, 2
	octave 3
	note D_, 4
	octave 2
	note D_, 2
	note E_, 1
	note __, 1
	note E_, 1
	note __, 1
	note E_, 1
	note __, 1
	octave 3
	note E_, 5
	note __, 1
	octave 2
	note E_, 1
	note __, 1
	note E_, 1
	note __, 1
	note E_, 1
	note __, 1
	octave 3
	note E_, 5
	note __, 1
	octave 2
	note B_, 2
	note E_, 2
	note B_, 4
	note F#, 1
	note __, 1
	note F#, 1
	note __, 1
	note F#, 1
	note __, 1
	octave 3
	note F#, 4
	note E_, 4
	note __, 2
	note F#, 2
	note __, 1
	octave 2
	note B_, 2
	note __, 1
	note E_, 2
	note B_, 2
	note __, 1
	octave 3
	note C#, 2
	note __, 1
	note F#, 2
	octave 2
	note C#, 4
	note __, 4
	octave 3
	note C#, 4
	octave 2
	note G#, 4
	note C#, 4
	octave 3
	note C#, 4
	note __, 2
	note C#, 4
	octave 2
	note E_, 2
	note C#, 4
	note __, 2
	note C#, 2
	octave 3
	note C#, 4
	octave 2
	note G#, 4
	note C#, 4
	octave 3
	note D_, 4
	note __, 2
	octave 2
	note B_, 4
	note C#, 1
	note __, 1
	note C#, 4
	note __, 4
	octave 3
	note C#, 4
	octave 2
	note G#, 4
	note C#, 4
	octave 3
	note C#, 4
	note __, 2
	note C#, 4
	octave 2
	note E_, 2
	note C#, 2
	octave 3
	note C#, 2
	note __, 8
	octave 2
	note C#, 2
	octave 3
	note C#, 2
	note __, 8
	octave 2
	note C#, 2
	note G#, 2
	octave 3
	note C#, 4
	dutycycle 3
	intensity $13
	octave 6
	note F_, 1
	note F#, 11
	note G#, 12
	note B_, 4
	note __, 4
	note F#, 12
	note G#, 12
	note E_, 4
	note __, 4
	note D_, 1
	note __, 1
	note D#, 6
	note E_, 4
	note F#, 4
	note __, 4
	octave 5
	note B_, 4
	note __, 4
	octave 6
	note E_, 4
	note D#, 4
	note E_, 4
	note D#, 4
	note C#, 12
	octave 7
	note C#, 1
	note __, 1
	octave 6
	note B_, 1
	note __, 1
	note A_, 1
	note __, 1
	note G#, 1
	note __, 1
	note F_, 1
	note F#, 11
	note G#, 12
	note B_, 4
	note __, 3
	octave 7
	note E_, 1
	note D#, 4
	note E_, 4
	note D#, 4
	octave 6
	note B_, 4
	note __, 4
	note F#, 4
	note B_, 4
	octave 7
	note F#, 4
	note D_, 1
	note __, 1
	note D#, 6
	note E_, 4
	note F#, 4
	note __, 4
	octave 6
	note B_, 4
	octave 7
	note D_, 1
	note D#, 3
	note E_, 4
	note D#, 12
	note C#, 12
	note F_, 1
	note __, 1
	note D#, 1
	note __, 1
	note C#, 1
	note __, 1
	octave 6
	note G#, 1
	note __, 1
	note F_, 1
	note F#, 11
	note G#, 12
	note B_, 4
	note __, 4
	note F#, 12
	note G#, 12
	note E_, 4
	note __, 4
	note D_, 1
	note __, 1
	note D#, 6
	note E_, 4
	note F#, 4
	note __, 4
	octave 5
	note B_, 4
	note __, 4
	octave 6
	note E_, 4
	note F#, 4
	note C#, 4
	octave 5
	note A#, 4
	note F#, 12
	note A#, 1
	note __, 1
	note G#, 1
	note __, 1
	note A#, 1
	note __, 1
	octave 6
	note C#, 1
	note __, 1
	note G_, 1
	note G#, 11
	note F#, 12
	note E_, 4
	note __, 4
	note D#, 12
	note F#, 12
	octave 5
	note B_, 4
	note __, 4
	octave 6
	note D#, 4
	note E_, 4
	note D#, 4
	notetype $F, $13
	note C#, 8
	note C#, 8
	notetype $C, $23
	note C#, 4
	note __, 2
	dutycycle 4
	intensity $14
	octave 2
	note C#, 2
	note __, 2
	octave 3
	note C#, 2
	octave 2
	note G#, 2
	note C#, 2
	octave 3
	note C#, 2
	note __, 1
	note C#, 2
	octave 2
	note E_, 1
	note D_, 2
	note __, 1
	note D_, 1
	octave 3
	note D_, 2
	octave 2
	note A_, 2
	note D_, 2
	octave 3
	note E_, 2
	note __, 1
	note D_, 2
	octave 2
	notetype $6, $14
	note D_, 1
	note __, 1
	note E_, 4
	note __, 4
	octave 3
	note E_, 4
	octave 2
	note B_, 4
	note E_, 4
	octave 3
	note E_, 4
	note __, 2
	note E_, 4
	octave 2
	note A_, 2
	note D_, 4
	note __, 2
	note D_, 2
	octave 3
	note D_, 4
	octave 2
	note A_, 4
	note D_, 4
	octave 3
	note E_, 4
	note __, 2
	note D_, 4
	octave 2
	note D_, 1
	note __, 1
	note C#, 4
	note __, 4
	octave 3
	note C#, 4
	octave 2
	note G#, 4
	note C#, 4
	octave 3
	note C#, 4
	note __, 2
	note C#, 4
	octave 2
	note E_, 2
	note D_, 4
	note __, 2
	note D_, 2
	octave 3
	note D_, 4
	octave 2
	note A_, 4
	note D_, 4
	octave 3
	note E_, 4
	note __, 2
	note D_, 4
	octave 2
	note D_, 1
	note __, 1
	note E_, 4
	note __, 4
	octave 3
	note E_, 4
	octave 2
	note B_, 4
	note E_, 4
	octave 3
	note E_, 4
	note __, 2
	note E_, 4
	octave 2
	note A_, 2
	note F#, 4
	note __, 2
	note F#, 2
	octave 3
	note F#, 4
	octave 2
	note B_, 2
	note F#, 3
	note __, 1
	note F#, 2
	note B_, 4
	octave 3
	note G#, 2
	octave 2
	note F#, 1
	note __, 1
	octave 3
	note F#, 4
	octave 1
	note G#, 4
	note __, 2
	note G#, 2
	octave 3
	note G#, 4
	note __, 2
	note D#, 4
	note __, 2
	note C_, 4
	note __, 2
	octave 2
	note G#, 4
	note __, 2
	loopchannel 0, Music_WorldTournamentFinal_Ch3_loop

Music_WorldTournamentFinal_Ch4:
	togglenoise 2
	notetype $C
	note G#, 1
	note B_, 2
	note __, 16
	note __, 16
	note __, 16
	note __, 10
	note D#, 1
	note D#, 1
	note D#, 1
	note G#, 2
	note G_, 1
	note A_, 2
	note G_, 1
	note G_, 1
	note G_, 1
	note D#, 1
	note D#, 1
	note A_, 2
	note G_, 1
	note D#, 1
	note G_, 1
	note D#, 1
	note A_, 2
	note G_, 1
	note A_, 1
	note A_, 1
	note G_, 1
	note D#, 2
	note G_, 1
	note D#, 1
	note A_, 2
	note D#, 1
	note A_, 2
	note G_, 1
	note A_, 2
	note G_, 1
	note A_, 1
	note A_, 1
	note G_, 1
	note D#, 2
	note G_, 1
	note D#, 1
	note A_, 2
	note D#, 1
	note A_, 2
	note G_, 1
	note A_, 2
	note G_, 1
	note A_, 1
	note A_, 1
	note G_, 1
	note D#, 2
	note G_, 1
	note D#, 1
	note A_, 2
	note D#, 1
	note A_, 2
	note G_, 1
	note G#, 2
	note G_, 1
	note D#, 1
	note G_, 1
	note __, 1
	note B_, 1
	note __, 1
	note G#, 2
	note G_, 1
	note G_, 1
	note G_, 1
	note __, 1
	note B_, 1
	note __, 1
	note A_, 2
	note __, 6
	notetype $6
	note G_, 1
	note G_, 1
	note G_, 1
	note G_, 1
	note G_, 1
	note G_, 1
	note G_, 1
	note G_, 1
	note B_, 1
	note B_, 1
	note B_, 1
	note B_, 1
	note B_, 1
	note B_, 1
	note B_, 1
	note B_, 1
Music_WorldTournamentFinal_Ch4_loop:
	notetype $6
	note G#, 4
	note D#, 2
	note D#, 2
	note D#, 2
	note __, 2
	note D#, 2
	note __, 2
	note D#, 2
	note D#, 2
	note D#, 2
	note __, 2
	note D#, 4
	note D#, 2
	note D#, 2
	note G#, 4
	note D#, 4
	note D#, 2
	note D#, 2
	note D#, 2
	note __, 2
	note D#, 4
	note D#, 2
	note D#, 2
	note D#, 2
	note D#, 2
	note D#, 2
	note D#, 2
	note G#, 4
	note D#, 2
	note D#, 2
	note D#, 2
	note __, 2
	note D#, 4
	note D#, 2
	note D#, 2
	note D#, 2
	note __, 2
	note D#, 4
	note D#, 2
	note D#, 2
	note D#, 2
	note __, 2
	note D#, 4
	note D#, 2
	note D#, 2
	note D#, 2
	note __, 2
	note D#, 4
	note D#, 2
	note D#, 2
	note D#, 2
	note __, 2
	note D#, 4
	note D#, 4
	note D#, 2
	note D#, 2
	note D#, 2
	note __, 2
	note D#, 4
	note D#, 2
	note D#, 2
	note D#, 2
	note __, 2
	note D#, 4
	note D#, 2
	note D#, 2
	note D#, 2
	note __, 2
	note D#, 4
	note D#, 2
	note D#, 2
	note D#, 2
	note __, 2
	note D#, 4
	note D#, 2
	note D#, 2
	note D#, 2
	note __, 2
	note D#, 4
	note D#, 4
	note D#, 2
	note D#, 2
	note D#, 2
	note __, 2
	note D#, 4
	note D#, 2
	note D#, 2
	note D#, 2
	note __, 2
	note D#, 4
	note D#, 2
	note D#, 2
	note D#, 2
	note __, 2
	note D#, 4
	note D#, 2
	note D#, 2
	note D#, 2
	note __, 2
	note D#, 4
	note D#, 2
	note D#, 2
	note B_, 1
	note B_, 1
	note B_, 1
	note B_, 1
	note B_, 1
	note B_, 1
	note B_, 1
	note B_, 1
	note G#, 4
	note G_, 2
	note D_, 2
	note G_, 4
	note D_, 2
	note G_, 2
	note G_, 2
	note G_, 2
	note C_, 4
	note D_, 2
	note G_, 2
	note G_, 4
	note D_, 4
	note G_, 2
	note D_, 2
	note C_, 4
	note D_, 2
	note G_, 2
	note G_, 2
	note G_, 2
	note C_, 4
	note D_, 2
	note G_, 2
	note C_, 4
	note D_, 4
	note G_, 2
	note D_, 2
	note C_, 4
	note D_, 2
	note G_, 2
	note G_, 2
	note G_, 2
	note C_, 4
	note D_, 2
	note G_, 2
	note C_, 4
	note G#, 4
	note __, 2
	note D_, 2
	note D_, 2
	note C_, 2
	note C_, 4
	note D_, 2
	note __, 2
	note G_, 2
	note G_, 2
	note G_, 2
	note D_, 2
	note C_, 4
	note G#, 4
	note G_, 2
	note D_, 2
	note G_, 4
	note C_, 2
	note D_, 2
	note G_, 2
	note G_, 2
	note D_, 4
	note G_, 2
	note G_, 2
	note C_, 4
	note D_, 4
	note G_, 2
	note D_, 2
	note C_, 4
	note D_, 2
	note G_, 2
	note G_, 2
	note G_, 2
	note C_, 4
	note D_, 2
	note G_, 2
	note C_, 4
	note C_, 2
	note D_, 2
	note G_, 2
	note C_, 2
	note D_, 2
	note G_, 2
	note C_, 2
	note D_, 2
	note G_, 2
	note C_, 2
	note D_, 2
	note G_, 2
	note C_, 2
	note D_, 2
	note C_, 4
	note D_, 4
	note G_, 2
	note D_, 2
	note C_, 4
	note D_, 2
	note G_, 2
	note C_, 2
	note __, 1
	note G#, 2
	note __, 1
	note D_, 2
	note C_, 2
	note __, 1
	note G_, 2
	note __, 1
	note D_, 2
	note G#, 4
	note G_, 2
	note A_, 4
	note G_, 2
	note G_, 2
	note G_, 2
	note D#, 2
	note D#, 2
	note A_, 4
	note G_, 2
	note D#, 2
	note G_, 2
	note D#, 2
	note A_, 4
	note G_, 2
	note A_, 2
	note A_, 2
	note G_, 2
	note D#, 4
	note G_, 2
	note D#, 2
	note A_, 4
	note D#, 2
	note A_, 4
	note G_, 2
	note A_, 4
	note G_, 2
	note A_, 2
	note A_, 2
	note G_, 2
	note D#, 4
	note G_, 2
	note D#, 2
	note A_, 4
	note D#, 2
	note A_, 4
	note G_, 2
	note A#, 4
	note G_, 2
	note D#, 2
	note __, 2
	note D#, 2
	note A#, 4
	note G_, 2
	note D#, 2
	note __, 2
	note D#, 2
	note A#, 2
	note G_, 2
	note A_, 4
	note A#, 4
	note G_, 2
	note D#, 2
	note G#, 4
	note G_, 2
	note G#, 2
	note D#, 2
	note G#, 2
	note D#, 2
	note G_, 2
	note G#, 4
	note G_, 2
	note G#, 2
	note C#, 4
	note G_, 2
	note D#, 2
	note G#, 4
	note G_, 2
	note G#, 2
	note D#, 2
	note G#, 2
	note D#, 2
	note G_, 2
	note G#, 4
	note G_, 2
	note G#, 2
	note C#, 4
	note G_, 2
	note D#, 2
	note G#, 4
	note G_, 2
	note G#, 2
	note D#, 2
	note G#, 2
	note D#, 2
	note G_, 2
	note G#, 4
	note G_, 2
	note G#, 2
	note C#, 4
	note G#, 2
	note G_, 2
	note G#, 4
	note D#, 2
	note G#, 2
	note G_, 2
	note G#, 2
	note G_, 2
	note D#, 2
	note G#, 4
	note G_, 2
	note G#, 2
	note C#, 4
	note G_, 2
	note D#, 2
	note G#, 4
	note G_, 2
	note G#, 2
	note D#, 2
	note G#, 2
	note D#, 2
	note G_, 2
	note G#, 4
	note G_, 2
	note G#, 2
	note C#, 4
	note G_, 2
	note D#, 2
	note G#, 4
	note G_, 2
	note G#, 2
	note D#, 2
	note G#, 2
	note D#, 2
	note G_, 2
	note G#, 4
	note G_, 2
	note G#, 2
	note C#, 4
	note G_, 2
	note D#, 2
	note G#, 4
	note G_, 2
	note G#, 2
	note D#, 2
	note G#, 2
	note D#, 2
	note G_, 2
	note G#, 4
	note G_, 2
	note G#, 2
	note C#, 4
	note G#, 2
	note G_, 2
	note G#, 4
	note D#, 2
	note G#, 2
	note G_, 2
	note G#, 2
	note G_, 2
	note D#, 2
	note G#, 2
	note __, 2
	note G#, 2
	note __, 2
	note A#, 4
	note G_, 2
	note D#, 2
	note G#, 4
	note G_, 2
	note G#, 2
	note D#, 2
	note G#, 2
	note D#, 2
	note G_, 2
	note G#, 4
	note G_, 2
	note G#, 2
	note C#, 4
	note G_, 2
	note D#, 2
	note G#, 4
	note G_, 2
	note G#, 2
	note D#, 2
	note G#, 2
	note D#, 2
	note G_, 2
	note G#, 4
	note G_, 2
	note G#, 2
	note C#, 4
	note G_, 2
	note D#, 2
	note G#, 4
	note G_, 2
	note G#, 2
	note D#, 2
	note G#, 2
	note D#, 2
	note G_, 2
	note G#, 4
	note G_, 2
	note G#, 2
	note C#, 4
	note G#, 2
	note G_, 2
	note G#, 4
	note D#, 2
	note G#, 2
	note G_, 2
	note G#, 2
	note G_, 2
	note D#, 2
	note G#, 4
	note G_, 2
	note G#, 2
	note C#, 4
	note G_, 2
	note D#, 2
	note G#, 4
	note G_, 2
	note G#, 2
	note D#, 2
	note G#, 2
	note D#, 2
	note G_, 2
	note G#, 4
	note G_, 2
	note G#, 2
	note C#, 4
	note G_, 2
	note D#, 2
	note G#, 4
	note G_, 2
	note G#, 2
	note D#, 2
	note G#, 2
	note D#, 2
	note G_, 2
	note G#, 4
	note G_, 2
	note G#, 2
	note C#, 4
	note G_, 2
	note D#, 2
	note G#, 4
	note G_, 2
	note G#, 2
	note D#, 2
	note G#, 2
	note D#, 2
	note G_, 2
	note G#, 4
	note G_, 2
	note G#, 2
	note G#, 2
	note G#, 2
	note D#, 2
	note G_, 2
	note D#, 2
	note G_, 2
	note G#, 2
	note G#, 2
	note D#, 2
	note G_, 2
	note D#, 2
	note G_, 2
	note G#, 2
	note G_, 2
	note G#, 4
	note C#, 4
	note G_, 2
	note __, 2
	note D#, 4
	note A#, 4
	note D_, 4
	note C#, 4
	note G_, 2
	note D#, 2
	note G_, 2
	note __, 2
	note C#, 4
	note G_, 2
	note __, 2
	note D#, 4
	note A#, 4
	note D_, 4
	note C#, 4
	note G_, 2
	note D#, 2
	note G#, 4
	note C#, 4
	note G_, 2
	note __, 2
	note D#, 4
	note D_, 4
	note A#, 4
	note C#, 4
	note G_, 2
	note D#, 2
	note G_, 2
	note __, 2
	note D#, 2
	note G_, 2
	note G#, 4
	note G_, 2
	note __, 2
	note D#, 2
	note G_, 2
	note A_, 4
	note D_, 4
	note D#, 2
	note G_, 2
	note G#, 4
	note D#, 2
	note G_, 2
	note B_, 2
	note D#, 2
	note A#, 2
	note B_, 2
	note D#, 2
	note G_, 2
	note B_, 2
	note G_, 2
	note A#, 2
	note D#, 2
	note B_, 2
	note A#, 4
	note G_, 2
	note D#, 2
	note G_, 2
	note B_, 2
	note D#, 2
	note A#, 2
	note B_, 2
	note D#, 2
	note G_, 2
	note B_, 2
	note G_, 2
	note A#, 2
	note D#, 2
	note A#, 4
	note G_, 2
	note __, 2
	note D#, 2
	note G_, 2
	note B_, 2
	note D#, 2
	note A#, 2
	note B_, 2
	note D#, 2
	note G_, 2
	note B_, 2
	note G_, 2
	note A#, 2
	note D#, 2
	note B_, 2
	note A#, 4
	note G_, 2
	note G#, 2
	note G_, 2
	note C#, 2
	note A#, 4
	note G_, 2
	note G#, 4
	note C#, 2
	note C_, 4
	note G_, 2
	note G#, 2
	note G_, 2
	note G#, 4
	note A_, 4
	note B_, 2
	note __, 2
	note G_, 2
	note __, 2
	note B_, 2
	note __, 2
	note G#, 4
	note __, 4
	note G_, 1
	note G_, 1
	note G_, 1
	note G_, 1
	note B_, 1
	note B_, 1
	note B_, 1
	note B_, 1
	loopchannel 0, Music_WorldTournamentFinal_Ch4_loop

