Music_RidingLapras: ; cfd9e
	musicheader 2, 1, Music_RidingLapras_Ch1
	musicheader 1, 2, Music_RidingLapras_Ch2
; cfda4

Music_RidingLapras_Ch1:
		tempo $80
		volume $77
		dutycycle 1
		notetype 12, $B8
;Channel1_Bar1:
		octave 5
		dutycycle 0
		note G_, 8
		note F#, 4
		note D_, 4
;Channel1_Bar2:
		note E_, 16
;Channel1_Bar3:
		note G_, 8
		note F#, 4
		note A_, 3
		note D_, 1
;Channel1_Bar4:
		note E_, 16
;Channel1_Bar5:
		note E_, 8
		note D_, 4
		octave 4
		note A_, 4
;Channel1_Bar6:
		octave 5
		note C_, 4
		octave 4
		note B_, 4
		octave 5
		note C_, 7
		octave 4
		note A_, 1
;Channel1_Bar7:
		note G_, 16
;Channel1_Bar8:
		note G_, 16
;Channel1_Bar9:
		note F_, 8
		octave 5
		note C_, 4
		note D#, 4
;Channel1_Bar10:
		note F_, 4
		note G#, 4
		octave 6
		note C_, 12
;Channel1_Bar11:
		octave 5
		note C_, 1
		note D#, 1
		note G#, 1
		note G_, 4
		note F_, 4
		note D#, 8
;Channel1_Bar12:
		note C#, 4
		note D#, 3
		note C#, 5
;Channel1_Bar13:
		note C_, 1
		note D#, 1
		note G#, 1
		note G_, 4
		note G#, 2
		note A#, 2
		octave 6
		note C_, 6
;Channel1_Bar14:
		octave 5
		note A#, 2
		note G#, 11
;Channel1_Bar15:
		note C_, 1
		note C_, 3
		octave 4
		note D#, 1
		note F_, 3
		note G#, 1
		note A#, 3
		note G#, 16
;Channel1_Bar16:
		note G#, 4
;Channel1_Bar17:
		octave 5
		note C_, 1
		note C_, 3
		octave 4
		note D#, 1
		note F_, 3
		note G#, 1
		note A#, 3
		note G#, 16
;Channel1_Bar18:
		note G#, 4
;Channel1_Bar19:
		octave 5
		note C_, 1
		note C_, 3
		note C_, 1
		note D#, 3
		note D#, 1
		note F_, 3
		note F_, 1
		note C_, 3
;Channel1_Bar20:
		note C_, 1
		octave 4
		note A#, 3
		note A#, 1
		note G#, 3
		note A#, 1
		octave 5
		note C_, 3
		octave 4
		note G#, 1
		note A#, 16
;Channel1_Bar21:
		note A#, 3
;Channel1_Bar22:
		octave 5
		note C_, 1
		note C_, 3
		octave 4
		note D#, 1
		note F_, 3
		note G#, 1
		note A#, 3
		note G#, 16
;Channel1_Bar23:
		note G#, 4
;Channel1_Bar24:
		octave 5
		note C_, 1
		note C_, 3
		octave 4
		note D#, 1
		note F_, 3
		note G#, 1
		note A#, 3
		note G#, 16
;Channel1_Bar25:
		note G#, 4
;Channel1_Bar26:
		octave 5
		note C_, 1
		note C_, 3
		note C_, 1
		note D#, 3
		note D#, 1
		note F_, 3
		note F_, 1
		note C_, 3
;Channel1_Bar27:
		note C_, 1
		octave 4
		note A#, 3
		note A#, 1
		note G#, 3
		note A#, 1
		octave 5
		note C_, 3
		octave 4
		note G#, 1
		note F_, 16
;Channel1_Bar28:
		note A#, 16
;Channel1_Bar29:
		octave 5
		note C_, 4
;Channel1_Bar30:
		note D#, 4
		note C_, 4
		note D#, 4
		note C_, 4
;Channel1_Bar31:
		note C_, 3
		octave 4
		note G#, 9
		octave 5
		note C_, 4
;Channel1_Bar32:
		note D#, 4
		note C_, 4
		note D#, 4
		note C_, 3
;Channel1_Bar33:
		note C_, 1
		note C_, 3
		octave 4
		note G#, 8
		note A#, 1
		octave 5
		note C_, 3
;Channel1_Bar34:
		note C_, 1
		note D#, 3
		note D#, 1
		note F_, 3
		note F_, 5
		note C_, 3
;Channel1_Bar35:
		octave 4
		note A#, 1
		note G#, 1
		note A#, 1
		note G#, 8
		note A#, 1
		octave 5
		note C_, 3
;Channel1_Bar36:
		note C_, 1
		note D#, 3
		note D#, 1
		note F_, 3
		note F_, 5
		note C_, 3
;Channel1_Bar37:
		octave 4
		note A#, 1
		note G#, 1
		note A#, 1
		note G#, 9
		octave 5
		note C_, 8
;Channel1_Bar38:
		note C#, 12
;Channel1_Bar39:
		octave 4
		note G_, 3
		octave 5
		note C_, 5
		octave 4
		note G_, 3
		octave 5
		note C_, 16
;Channel1_Bar40:
		note C_, 1
		octave 4
		note A_, 4
;Channel1_Bar41:
		octave 5
		note C_, 4
		octave 4
		note A_, 4
		octave 5
		note C_, 4
		octave 4
		note A_, 3
		note G_, 1
;Channel1_Bar42:
		note A_, 3
		note F_, 9
		note A_, 4
;Channel1_Bar43:
		octave 5
		note C_, 4
		note C_, 4
		note E_, 4
		note E_, 4
;Channel1_Bar44:
		note F_, 3
		note C_, 4
		octave 4
		note A#, 1
		note A_, 3
		note A#, 1
		octave 5
		note C_, 7
;Channel1_Bar45:
		octave 4
		note A#, 1
		note A_, 3
		note A#, 4
		octave 5
		note C_, 8
;Channel1_Bar46:
		octave 4
		note A#, 1
		note A_, 4
		note A#, 4
		octave 5
		note C_, 12
;Channel1_Bar47:
		octave 4
		note A#, 4
		note A_, 4
;Channel1_Bar48:
		note A_, 3
		note F_, 9
		note A_, 4
;Channel1_Bar49:
		octave 5
		note C_, 4
		octave 4
		note A_, 4
		octave 5
		note C_, 3
		octave 4
		note F_, 16
;Channel1_Bar50:
		note F_, 1
		note A_, 4
;Channel1_Bar51:
		octave 5
		note C_, 4
		octave 4
		note A_, 4
		octave 5
		note C_, 3
		octave 4
		note F_, 16
;Channel1_Bar52:
		note F_, 1
		note E_, 8
;Channel1_Bar53:
		note D_, 8
		note F_, 8
;Channel1_Bar54:
		octave 5
		octave 4
		note G#, 11
		octave 5
		note C_, 1
;Channel1_Bar55:
		note C_, 3
		octave 4
		note D#, 1
		note F_, 3
		note G#, 1
		note A#, 3
		note G#, 16
;Channel1_Bar56:
		note G#, 4
		octave 5
		note C_, 1
;Channel1_Bar57:
		note C_, 3
		octave 4
		note D#, 1
		note F_, 3
		note G#, 1
		note A#, 3
		note G#, 16
;Channel1_Bar58:
		note G#, 4
		octave 5
		note C_, 1
;Channel1_Bar59:
		note C_, 3
		note C_, 1
		note D#, 3
		note D#, 1
		note F_, 3
		note F_, 1
		note C_, 3
		note C_, 1
;Channel1_Bar60:
		octave 4
		note A#, 3
		note A#, 1
		note G#, 3
		note A#, 1
		octave 5
		note C_, 3
		octave 4
		note G#, 1
		note A#, 16
;Channel1_Bar61:
		note A#, 3
		octave 5
		note C_, 1
;Channel1_Bar62:
		note C_, 3
		octave 4
		note D#, 1
		note F_, 3
		note G#, 1
		note A#, 3
		note G#, 16
;Channel1_Bar63:
		note G#, 4
		octave 5
		note C_, 1
;Channel1_Bar64:
		note C_, 3
		octave 4
		note D#, 1
		note F_, 3
		note G#, 1
		note A#, 3
		note G#, 16
;Channel1_Bar65:
		note G#, 4
		octave 5
		note C_, 1
;Channel1_Bar66:
		note C_, 3
		note C_, 1
		note D#, 3
		note D#, 1
		note F_, 3
		note F_, 1
		note C_, 3
		note C_, 1
;Channel1_Bar67:
		octave 4
		note A#, 3
		note A#, 1
		note G#, 3
		note A#, 1
		octave 5
		note C_, 3
		octave 4
		note G#, 1
		note F_, 16
;Channel1_Bar68:
		note A#, 16
;Channel1_Bar69:
		octave 5
		note C_, 4
;Channel1_Bar70:
		note D#, 4
		note C_, 4
		note D#, 4
		note C_, 4
;Channel1_Bar71:
		note C_, 3
		octave 4
		note G#, 9
		octave 5
		note C_, 4
;Channel1_Bar72:
		note D#, 4
		note C_, 4
		note D#, 4
		note C_, 3
		note C_, 1
;Channel1_Bar73:
		note C_, 3
		octave 4
		note G#, 8
		note A#, 1
		octave 5
		note C_, 3
		note C_, 1
;Channel1_Bar74:
		note D#, 3
		note D#, 1
		note F_, 3
		note F_, 5
		note C_, 3
		octave 4
		note A#, 1
;Channel1_Bar75:
		note G#, 1
		note A#, 1
		note G#, 8
		note A#, 1
		octave 5
		note C_, 3
		note C_, 1
		note D#, 3
;Channel1_Bar76:
		note D#, 1
		note F_, 3
		note F_, 5
		note C_, 3
		octave 4
		note A#, 1
		note G#, 1
;Channel1_Bar77:
		note A#, 1
		note G#, 9
		octave 5
		note C_, 8
;Channel1_Bar78:
		note C#, 12
		octave 4
		note G_, 3
;Channel1_Bar79:
		octave 5
		note C_, 5
		octave 4
		note G_, 3
		octave 5
		note C_, 16
;Channel1_Bar80:
		note C_, 1
		octave 4
		note A_, 4
		octave 5
		note C_, 4
;Channel1_Bar81:
		octave 4
		note A_, 4
		octave 5
		note C_, 4
		octave 4
		note A_, 3
		note G_, 1
		note A_, 3
;Channel1_Bar82:
		note F_, 9
		note A_, 4
		octave 5
		note C_, 4
;Channel1_Bar83:
		note C_, 4
		note E_, 4
		note E_, 4
		note F_, 3
;Channel1_Bar84:
		note C_, 4
		octave 4
		note A#, 1
		note A_, 3
		note A#, 1
		octave 5
		note C_, 7
;Channel1_Bar85:
		octave 4
		note A#, 1
		note A_, 3
		note A#, 4
		octave 5
		note C_, 8
;Channel1_Bar86:
		octave 4
		note A#, 1
		note A_, 4
		note A#, 4
		octave 5
		note C_, 12
;Channel1_Bar87:
		octave 4
		note A#, 4
		note A_, 4
		note A_, 3
;Channel1_Bar88:
		note F_, 9
		note A_, 4
		octave 5
		note C_, 4
;Channel1_Bar89:
		octave 4
		note A_, 4
		octave 5
		note C_, 4
		octave 4
		note A_, 3
		note G_, 1
		note A_, 3
;Channel1_Bar90:
		note F_, 9
		note A_, 4
		octave 5
		note C_, 4
;Channel1_Bar91:
		note C_, 4
		note E_, 4
		note E_, 4
		note F_, 3
;Channel1_Bar92:
		note C_, 4
		octave 4
		note A#, 1
		note A_, 3
		note A#, 1
		octave 5
		note C_, 7
;Channel1_Bar93:
		octave 4
		note A#, 1
		note A_, 3
		note A#, 4
		octave 5
		note C_, 8
;Channel1_Bar94:
		octave 4
		note A#, 1
		note A_, 4
		note A#, 4
		octave 5
		note C_, 12
;Channel1_Bar95:
		octave 4
		note A#, 4
		note A_, 4
		note A_, 3
;Channel1_Bar96:
		note F_, 9
		note A_, 4
		octave 5
		note C_, 4
;Channel1_Bar97:
		octave 4
		note A_, 4
		octave 5
		note C_, 3
		octave 4
		note F_, 16
;Channel1_Bar98:
		note F_, 1
		note A_, 4
		octave 5
		note C_, 4
;Channel1_Bar99:
		octave 4
		note A_, 4
		octave 5
		note C_, 3
		octave 4
		note F_, 16
;Channel1_Bar100:
		note F_, 1
		note A_, 4
		octave 5
		note C_, 4
;Channel1_Bar101:
		octave 4
		note A_, 4
		octave 5
		note C_, 3
		octave 4
		note F_, 16
;Channel1_Bar102:
		note F_, 1
		note A_, 4
		octave 5
		note C_, 4
;Channel1_Bar103:
		octave 4
		note A_, 4
		octave 5
		note C_, 3
		octave 4
		note F_, 16
;Channel1_Bar104:
		note F_, 1
		note E_, 8
;Channel1_Bar105:
		note D_, 8
		note F_, 8
;Channel1_Bar106:
		octave 5
		octave 4
		note G#, 8
		endchannel

; ===========================================================================
Music_RidingLapras_Ch2:
		dutycycle 1
		notetype 12, $B8
;Channel2_Bar1:
		octave 3
		note C_, 4
		note G_, 4
		octave 4
		note C_, 8
;Channel2_Bar2:
		octave 3
		note C_, 4
		note G_, 4
		octave 4
		note C_, 8
;Channel2_Bar3:
		octave 3
		note C_, 4
		note G_, 4
		octave 4
		note C_, 8
;Channel2_Bar4:
		octave 3
		note C_, 4
		note G_, 4
		octave 4
		note C_, 8
;Channel2_Bar5:
		octave 2
		note F_, 4
		octave 3
		note C_, 4
		note F_, 8
;Channel2_Bar6:
		octave 2
		note F_, 4
		octave 3
		note C_, 4
		note F_, 8
;Channel2_Bar7:
		note C_, 4
		note G_, 4
		octave 4
		note C_, 4
		note D_, 4
;Channel2_Bar8:
		note E_, 16
;Channel2_Bar9:
		octave 3
		note D#, 16
;Channel2_Bar10:
		octave 4
		note C#, 16
;Channel2_Bar11:
		octave 3
		note G#, 3
		note G#, 1
		note F#, 4
		note C#, 8
;Channel2_Bar12:
		note D#, 3
		note D#, 1
		note A#, 4
		note C#, 8
;Channel2_Bar13:
		note G#, 3
		note G#, 1
		note F#, 4
		note C#, 8
;Channel2_Bar14:
		note D#, 3
		note D#, 1
		note A#, 4
		note C#, 8
;Channel2_Bar15:
		note G#, 4
		note F#, 4
		note C#, 8
;Channel2_Bar16:
		note G#, 4
		octave 4
		note D#, 4
		octave 3
		note G#, 4
		octave 4
		note D#, 4
;Channel2_Bar17:
		octave 3
		note G#, 4
		note F#, 4
		note C#, 8
;Channel2_Bar18:
		note G#, 4
		octave 4
		note D#, 4
		octave 3
		note G#, 4
		octave 4
		note D#, 4
;Channel2_Bar19:
		octave 3
		note C_, 4
		note D#, 4
		note C_, 4
		note D#, 4
;Channel2_Bar20:
		note F_, 4
		octave 4
		note C_, 4
		octave 3
		note D#, 4
		octave 4
		note C_, 4
;Channel2_Bar21:
		octave 3
		note D_, 4
		octave 4
		note C_, 4
		octave 3
		note D_, 4
		octave 4
		note C_, 4
;Channel2_Bar22:
		octave 3
		note G#, 4
		note F#, 4
		note C#, 8
;Channel2_Bar23:
		note G#, 4
		octave 4
		note D#, 4
		octave 3
		note G#, 4
		octave 4
		note D#, 4
;Channel2_Bar24:
		octave 3
		note G#, 4
		note F#, 4
		note C#, 8
;Channel2_Bar25:
		note G#, 4
		octave 4
		note D#, 4
		octave 3
		note G#, 4
		octave 4
		note D#, 4
;Channel2_Bar26:
		octave 3
		note C_, 4
		note D#, 4
		note C_, 4
		note D#, 4
;Channel2_Bar27:
		note F_, 4
		octave 4
		note C_, 4
		octave 3
		note D#, 4
		octave 4
		note C_, 4
;Channel2_Bar28:
		octave 3
		note D_, 4
		octave 4
		note C_, 4
		octave 3
		note D_, 4
		octave 4
		note C_, 4
;Channel2_Bar29:
		octave 3
		note D#, 4
		octave 4
		note D#, 4
		octave 3
		note D#, 4
		octave 4
		octave 3
		note A#, 4
;Channel2_Bar30:
		octave 4
		note C#, 16
;Channel2_Bar31:
		octave 3
		note G#, 8
		octave 4
		note C_, 4
		octave 3
		note A#, 4
;Channel2_Bar32:
		note F_, 12
		note F_, 4
;Channel2_Bar33:
		note F#, 16
;Channel2_Bar34:
		note D#, 8
		note F_, 8
;Channel2_Bar35:
		octave 2
		note A#, 8
		octave 3
		note D#, 4
		note C#, 4
;Channel2_Bar36:
		note C_, 8
		note F_, 4
		note D#, 4
;Channel2_Bar37:
		note F_, 12
		note D_, 4
;Channel2_Bar38:
		note C#, 8
		note C#, 8
;Channel2_Bar39:
		note F_, 12
		note G_, 4
;Channel2_Bar40:
		note C_, 16
;Channel2_Bar41:
		note F_, 4
		note F_, 4
		note F_, 4
		note F_, 4
;Channel2_Bar42:
		octave 2
		note A#, 4
		octave 3
		octave 2
		note A#, 4
		octave 3
		octave 2
		note A#, 4
		octave 3
		octave 2
		note A#, 4
;Channel2_Bar43:
		octave 3
		note G_, 4
		octave 2
		octave 3
		note G_, 4
		octave 2
		octave 3
		note G_, 4
		octave 2
		octave 3
		note G_, 4
;Channel2_Bar44:
		note D_, 8
		note C_, 4
		note C_, 4
;Channel2_Bar45:
		octave 2
		note A#, 4
		octave 3
		octave 2
		note A#, 4
		octave 3
		octave 2
		note A#, 4
		octave 3
		octave 2
		note A#, 4
;Channel2_Bar46:
		octave 3
		octave 2
		note A_, 4
		octave 3
		octave 2
		note A_, 4
		octave 3
		octave 2
		note A_, 4
		octave 3
		octave 2
		note A_, 4
;Channel2_Bar47:
		octave 3
		note D_, 4
		note D_, 4
		note D_, 4
		note D_, 4
;Channel2_Bar48:
		note A#, 4
		note A#, 4
		note A#, 4
		note A#, 4
;Channel2_Bar49:
		note F_, 16
;Channel2_Bar50:
		note D#, 8
		octave 2
		note A#, 8
;Channel2_Bar51:
		octave 3
		note F_, 16
;Channel2_Bar52:
		octave 2
		note A#, 8
		octave 3
		note F_, 8
;Channel2_Bar53:
		note A_, 8
		note A#, 8
;Channel2_Bar54:
		octave 4
		note C#, 8
		octave 3
		note D#, 8
;Channel2_Bar55:
		note G#, 4
		note F#, 4
		note C#, 8
;Channel2_Bar56:
		note G#, 4
		octave 4
		note D#, 4
		octave 3
		note G#, 4
		octave 4
		note D#, 4
;Channel2_Bar57:
		octave 3
		note G#, 4
		note F#, 4
		note C#, 8
;Channel2_Bar58:
		note G#, 4
		octave 4
		note D#, 4
		octave 3
		note G#, 4
		octave 4
		note D#, 4
;Channel2_Bar59:
		octave 3
		note C_, 4
		note D#, 4
		note C_, 4
		note D#, 4
;Channel2_Bar60:
		note F_, 4
		octave 4
		note C_, 4
		octave 3
		note D#, 4
		octave 4
		note C_, 4
;Channel2_Bar61:
		octave 3
		note D_, 4
		octave 4
		note C_, 4
		octave 3
		note D_, 4
		octave 4
		note C_, 4
;Channel2_Bar62:
		octave 3
		note G#, 4
		note F#, 4
		note C#, 8
;Channel2_Bar63:
		note G#, 4
		octave 4
		note D#, 4
		octave 3
		note G#, 4
		octave 4
		note D#, 4
;Channel2_Bar64:
		octave 3
		note G#, 4
		note F#, 4
		note C#, 8
;Channel2_Bar65:
		note G#, 4
		octave 4
		note D#, 4
		octave 3
		note G#, 4
		octave 4
		note D#, 4
;Channel2_Bar66:
		octave 3
		note C_, 4
		note D#, 4
		note C_, 4
		note D#, 4
;Channel2_Bar67:
		note F_, 4
		octave 4
		note C_, 4
		octave 3
		note D#, 4
		octave 4
		note C_, 4
;Channel2_Bar68:
		octave 3
		note D_, 4
		octave 4
		note C_, 4
		octave 3
		note D_, 4
		octave 4
		note C_, 4
;Channel2_Bar69:
		octave 3
		note D#, 4
		octave 4
		note D#, 4
		octave 3
		note D#, 4
		octave 4
		octave 3
		note A#, 4
;Channel2_Bar70:
		octave 4
		note C#, 16
;Channel2_Bar71:
		octave 3
		note G#, 8
		octave 4
		note C_, 4
		octave 3
		note A#, 4
;Channel2_Bar72:
		note F_, 12
		note F_, 4
;Channel2_Bar73:
		note F#, 16
;Channel2_Bar74:
		note D#, 8
		note F_, 8
;Channel2_Bar75:
		octave 2
		note A#, 8
		octave 3
		note D#, 4
		note C#, 4
;Channel2_Bar76:
		note C_, 8
		note F_, 4
		note D#, 4
;Channel2_Bar77:
		note F_, 12
		note D_, 4
;Channel2_Bar78:
		note C#, 8
		note C#, 8
;Channel2_Bar79:
		note F_, 12
		note G_, 4
;Channel2_Bar80:
		note C_, 16
;Channel2_Bar81:
		note F_, 4
		note F_, 4
		note F_, 4
		note F_, 4
;Channel2_Bar82:
		octave 2
		note A#, 4
		octave 3
		octave 2
		note A#, 4
		octave 3
		octave 2
		note A#, 4
		octave 3
		octave 2
		note A#, 4
;Channel2_Bar83:
		octave 3
		note G_, 4
		octave 2
		octave 3
		note G_, 4
		octave 2
		octave 3
		note G_, 4
		octave 2
		octave 3
		note G_, 4
;Channel2_Bar84:
		note D_, 8
		note C_, 4
		note C_, 4
;Channel2_Bar85:
		octave 2
		note A#, 4
		octave 3
		octave 2
		note A#, 4
		octave 3
		octave 2
		note A#, 4
		octave 3
		octave 2
		note A#, 4
;Channel2_Bar86:
		octave 3
		octave 2
		note A_, 4
		octave 3
		octave 2
		note A_, 4
		octave 3
		octave 2
		note A_, 4
		octave 3
		octave 2
		note A_, 4
;Channel2_Bar87:
		octave 3
		note D_, 4
		note D_, 4
		note D_, 4
		note D_, 4
;Channel2_Bar88:
		note A#, 4
		note A#, 4
		note A#, 4
		note A#, 4
;Channel2_Bar89:
		note F_, 4
		note F_, 4
		note F_, 4
		note F_, 4
;Channel2_Bar90:
		octave 2
		note A#, 4
		octave 3
		octave 2
		note A#, 4
		octave 3
		octave 2
		note A#, 4
		octave 3
		octave 2
		note A#, 4
;Channel2_Bar91:
		octave 3
		note G_, 4
		octave 2
		octave 3
		note G_, 4
		octave 2
		octave 3
		note G_, 4
		octave 2
		octave 3
		note G_, 4
;Channel2_Bar92:
		note D_, 8
		note C_, 4
		note C_, 4
;Channel2_Bar93:
		octave 2
		note A#, 4
		octave 3
		octave 2
		note A#, 4
		octave 3
		octave 2
		note A#, 4
		octave 3
		octave 2
		note A#, 4
;Channel2_Bar94:
		octave 3
		octave 2
		note A_, 4
		octave 3
		octave 2
		note A_, 4
		octave 3
		octave 2
		note A_, 4
		octave 3
		octave 2
		note A_, 4
;Channel2_Bar95:
		octave 3
		note D_, 4
		note D_, 4
		note D_, 4
		note D_, 4
;Channel2_Bar96:
		note A#, 4
		note A#, 4
		note A#, 4
		note A#, 4
;Channel2_Bar97:
		note F_, 16
;Channel2_Bar98:
		note D#, 8
		octave 2
		note A#, 8
;Channel2_Bar99:
		octave 3
		note F_, 16
;Channel2_Bar100:
		octave 2
		note A#, 8
		octave 3
		note F_, 8
;Channel2_Bar101:
		note F_, 16
;Channel2_Bar102:
		note D#, 8
		octave 2
		note A#, 8
;Channel2_Bar103:
		octave 3
		note F_, 16
;Channel2_Bar104:
		octave 2
		note A#, 8
		octave 3
		note F_, 8
;Channel2_Bar105:
		note A_, 8
		note A#, 8
;Channel2_Bar106:
		octave 4
		note C#, 8
		octave 3
		note D#, 8
;Channel2_Bar107:
		octave 4
		octave 3
		endchannel
