Music_RocketBattle: ; e9b6f
	musicheader 4, 1, Music_RocketBattle_Ch1
	musicheader 1, 2, Music_RocketBattle_Ch2
	musicheader 1, 3, Music_RocketBattle_Ch3
	musicheader 1, 4, Music_RocketBattle_Ch4

Music_RocketBattle_Ch1:
	tempo $6C
	volume $77
	stereopanning $77
	dutycycle 3
	tone $0002
	vibrato $10, $15
	octave 4
	notetype $C, $B2
	note E_, 1
	note D#, 1
	note D_, 1
	note C#, 1
	note D_, 1
	note C#, 1
	note C_, 1
	octave 3
	note B_, 1
	octave 4
	note C_, 1
	octave 3
	note B_, 1
	note A#, 1
	note A_, 1
	note A#, 1
	note A_, 1
	note G#, 1
	note G_, 1
	note G#, 1
	note G_, 1
	note F#, 1
	note F_, 1
	note F#, 1
	note F_, 1
	note E_, 1
	note D#, 1
	note E_, 1
	note D#, 1
	note D_, 1
	note C#, 1
	note D_, 1
	note C#, 1
	note C_, 1
	octave 2
	note B_, 1
	intensity $B2
	octave 3
	note C_, 6
	note C_, 4
	intensity $92
	note E_, 2
	intensity $97
	note D_, 4
	intensity $B2
	note C_, 6
	note C_, 4
	intensity $92
	note E_, 2
	intensity $97
	note D_, 4
	intensity $B2
	note C_, 6
	note C_, 4
	intensity $92
	note E_, 2
	intensity $97
	note D_, 4
	intensity $B2
	note C_, 6
	note C_, 6
	intensity $B7
	note D_, 4
	intensity $B2
	octave 4
	note E_, 6
	note E_, 4
	intensity $92
	note G_, 2
	intensity $97
	note F_, 4
	intensity $B2
	note E_, 6
	note E_, 4
	intensity $92
	note G_, 2
	intensity $97
	note F_, 4
	intensity $B2
	note E_, 6
	note E_, 4
	intensity $92
	note G_, 2
	intensity $97
	note F_, 4
	intensity $B2
	note E_, 2
	note E_, 4
	note E_, 4
	intensity $B7
	note D_, 2
	note D#, 4
	intensity $B3
	note C_, 2
	octave 3
	note E_, 2
	note E_, 2
	note A#, 2
	note F_, 2
	note F_, 2
	note A_, 2
	note D_, 2
	note D_, 2
	octave 4
	note C_, 2
	octave 3
	note E_, 2
	note A_, 2
	note E_, 2
	note A#, 1
	note A_, 1
	note E_, 2
	note D_, 2
	note F_, 2
	note E_, 2
	note F_, 2
	intensity $B5
	note G_, 4
	intensity $B3
	note G_, 2
	note F_, 2
	note D#, 1
	note F_, 1
	note D_, 2
	note C#, 2
	note D_, 2
	intensity $B5
	note D#, 4
	intensity $B3
	note D#, 2
	note D_, 2
	note F_, 2
Music_RocketBattle_Ch1_loop:
	notetype $C, $B3
	octave 4
	note E_, 2
	octave 3
	note E_, 2
	note E_, 2
	octave 4
	note D_, 2
	octave 3
	note F_, 2
	note F_, 2
	octave 4
	note C_, 2
	octave 3
	note D_, 2
	note D_, 2
	octave 4
	note E_, 2
	octave 3
	note E_, 2
	octave 4
	note D_, 2
	intensity $B4
	octave 3
	note E_, 2
	octave 4
	note E_, 1
	note D_, 1
	note C_, 2
	octave 3
	note E_, 2
	note F_, 2
	note E_, 2
	note F_, 2
	intensity $B5
	note G_, 4
	intensity $B3
	note G_, 2
	note F_, 2
	note A#, 1
	octave 4
	note C_, 1
	note D_, 2
	note C_, 2
	note D_, 2
	intensity $B5
	note F_, 4
	dutycycle 0
	intensity $B2
	octave 3
	note F_, 2
	note G_, 2
	note G#, 4
	dutycycle 1
	intensity $B5
	note D_, 4
	note C_, 4
	note D_, 4
	note E_, 2
	intensity $B2
	note F_, 2
	note A_, 4
	intensity $B5
	note A_, 4
	intensity $B1
	note A_, 1
	intensity $B2
	note A_, 1
	note G_, 2
	intensity $B5
	note F_, 4
	note D_, 4
	note C_, 4
	note D_, 4
	note E_, 2
	note F_, 2
	note E_, 2
	note D_, 2
	note C_, 2
	note A#, 2
	note G_, 2
	note A_, 2
	note A#, 2
	intensity $B7
	octave 4
	note E_, 6
	note D_, 4
	octave 3
	note G_, 2
	note A#, 4
	note A_, 6
	note G_, 4
	note E_, 2
	note F_, 4
	note E_, 6
	note D_, 6
	note D#, 4
	note E_, 8
	octave 2
	note E_, 8
	intensity $B2
	note A_, 4
	note __, 4
	note G_, 4
	note __, 4
	note A_, 4
	note __, 4
	intensity $B5
	note A#, 4
	note A#, 4
	intensity $B2
	note A_, 4
	note __, 4
	note G_, 4
	note __, 4
	note A_, 4
	note __, 4
	intensity $B5
	octave 3
	note C#, 4
	note C#, 4
	intensity $B2
	note D_, 4
	note __, 4
	note C#, 4
	note __, 4
	octave 2
	note A#, 4
	note __, 4
	intensity $B5
	note A_, 4
	note A_, 2
	octave 3
	note C#, 2
	intensity $B2
	note D_, 4
	note __, 4
	note C#, 4
	note __, 4
	note D_, 4
	note __, 4
	intensity $B4
	note E_, 4
	note E_, 2
	intensity $7B
	note E_, 2
	intensity $B5
	octave 2
	note A#, 6
	octave 3
	note D_, 6
	note C_, 4
	intensity $B3
	octave 2
	note A#, 2
	octave 3
	note C_, 2
	note D_, 2
	note E_, 2
	note F_, 2
	note E_, 2
	note D_, 2
	note F_, 2
	intensity $B5
	octave 2
	note A_, 6
	octave 3
	note C#, 6
	note E_, 4
	octave 2
	note A_, 2
	intensity $B3
	note E_, 2
	note A_, 2
	octave 3
	note D_, 2
	note E_, 2
	note D_, 2
	note C_, 2
	note E_, 2
	intensity $B5
	octave 2
	note A#, 6
	octave 3
	note D_, 6
	note C_, 4
	intensity $B3
	octave 2
	note A#, 2
	octave 3
	note C_, 2
	note D_, 2
	note E_, 2
	note F_, 2
	note G_, 2
	note A_, 2
	note A#, 2
	note A_, 2
	note E_, 2
	note A_, 2
	note A#, 2
	note A_, 2
	note E_, 2
	note D_, 2
	note E_, 2
	note A_, 2
	note E_, 2
	note A_, 2
	octave 4
	note C#, 2
	note D_, 2
	note C#, 2
	octave 3
	note A#, 2
	note G_, 2
	intensity $B2
	note E_, 6
	note E_, 6
	note E_, 4
	note E_, 6
	note E_, 4
	intensity $97
	note G_, 2
	note F_, 4
	intensity $B2
	note E_, 6
	note E_, 4
	intensity $97
	note G_, 2
	note F_, 4
	intensity $B2
	note E_, 6
	octave 4
	note D_, 1
	note D#, 1
	intensity $A0
	note E_, 8
	intensity $B2
	octave 3
	note F_, 6
	note F_, 4
	intensity $97
	note A_, 2
	note G_, 4
	intensity $B2
	note F_, 6
	note F_, 4
	intensity $97
	note A_, 2
	note G_, 4
	intensity $B2
	note F_, 6
	note F_, 4
	intensity $97
	note A_, 2
	note G_, 4
	intensity $B2
	note F_, 6
	octave 4
	note D_, 1
	note E_, 1
	intensity $A0
	note F_, 8
	intensity $B3
	note D_, 2
	octave 3
	note A_, 2
	note E_, 2
	note A_, 4
	note A_, 2
	intensity $B7
	octave 4
	note D_, 4
	intensity $B3
	note D#, 2
	octave 3
	note A#, 2
	note G_, 2
	note A#, 4
	note A#, 2
	intensity $B7
	octave 4
	note D_, 4
	intensity $B3
	note E_, 2
	note C_, 2
	octave 3
	note A_, 2
	octave 4
	note C_, 4
	note C_, 2
	intensity $B7
	note D#, 4
	intensity $A0
	note E_, 4
	intensity $A7
	note E_, 6
	intensity $A0
	octave 3
	note G#, 6
	intensity $B3
	note C_, 2
	note E_, 2
	note E_, 2
	octave 2
	note A#, 2
	octave 3
	note F_, 2
	note F_, 2
	octave 2
	note A_, 2
	octave 3
	note D_, 2
	note D_, 2
	note C_, 2
	note E_, 2
	note E_, 2
	octave 2
	note A_, 2
	octave 3
	note E_, 2
	note D_, 2
	note C_, 2
	note C_, 2
	octave 2
	note A#, 2
	octave 3
	note C_, 2
	intensity $B5
	note D_, 4
	intensity $B3
	note D_, 2
	note C_, 2
	octave 2
	note A#, 1
	octave 3
	note C#, 1
	note D_, 2
	note C#, 2
	note D_, 2
	intensity $B5
	note D#, 4
	intensity $B3
	note D#, 2
	note D_, 2
	note D#, 1
	note F_, 1
	loopchannel 0, Music_RocketBattle_Ch1_loop

Music_RocketBattle_Ch2:
	dutycycle 3
	tone $0001
	vibrato $08, $36
	octave 4
	notetype $C, $B2
	note A_, 4
	note A#, 4
	note B_, 4
	octave 5
	note C_, 1
	intensity $82
	octave 4
	note G#, 1
	note A_, 1
	note G#, 1
	intensity $C2
	octave 5
	note C#, 1
	intensity $92
	octave 4
	note G#, 1
	note A_, 1
	note G#, 1
	intensity $C2
	octave 5
	note D_, 1
	intensity $A2
	octave 4
	note G#, 1
	note A_, 1
	note G#, 1
	intensity $C2
	octave 5
	note D#, 1
	intensity $B2
	octave 4
	note G#, 1
	note A_, 1
	note G#, 1
	intensity $C2
	octave 5
	note E_, 1
	octave 4
	note G#, 1
	note A_, 1
	note G#, 1
	octave 3
	note A_, 6
	note A_, 4
	octave 4
	note C_, 2
	intensity $C7
	octave 3
	note A#, 4
	intensity $C2
	note A_, 6
	note A_, 4
	octave 4
	note C_, 2
	intensity $C7
	octave 3
	note A#, 4
	intensity $C2
	note A_, 6
	note A_, 4
	octave 4
	note C_, 2
	intensity $C7
	octave 3
	note A#, 4
	intensity $C2
	note A_, 6
	note A_, 6
	intensity $4A
	note G#, 4
	intensity $C2
	octave 4
	note A_, 6
	note A_, 4
	octave 5
	note C_, 2
	intensity $C7
	octave 4
	note A#, 4
	intensity $C2
	note A_, 6
	note A_, 4
	octave 5
	note C_, 2
	intensity $C7
	octave 4
	note A#, 4
	intensity $C2
	note A_, 6
	note A_, 4
	octave 5
	note C_, 2
	intensity $C7
	octave 4
	note A#, 4
	intensity $C2
	note A_, 2
	note A_, 4
	note A_, 4
	intensity $C7
	note G_, 2
	note G#, 4
	intensity $C6
	note A_, 6
	note G#, 6
	note E_, 4
	note A_, 6
	note G#, 6
	note E_, 4
	intensity $B0
	note F_, 16
	intensity $B7
	note F_, 13
	note __, 1
	note F_, 1
	note G_, 1
Music_RocketBattle_Ch2_loop:
	notetype $C, $C6
	octave 4
	note A_, 6
	note G#, 6
	note E_, 4
	note A_, 6
	note G#, 6
	note E_, 4
	intensity $B0
	note F_, 8
	intensity $B7
	note F_, 8
	intensity $0D
	note A#, 8
	intensity $B7
	note A#, 8
	dutycycle 0
	intensity $C4
	octave 3
	note A_, 2
	note G_, 2
	note A_, 2
	intensity $C7
	octave 4
	note C_, 4
	octave 3
	note A#, 2
	note A_, 2
	note G_, 2
	intensity $C2
	note A_, 2
	octave 4
	note C_, 4
	intensity $B0
	note C_, 6
	intensity $B7
	note C_, 4
	intensity $C4
	octave 3
	note A#, 2
	note A_, 2
	note A#, 2
	intensity $C7
	octave 4
	note D_, 4
	note C_, 2
	octave 3
	note A#, 2
	note A_, 2
	intensity $C2
	note A#, 2
	octave 4
	note D_, 4
	intensity $B0
	note D_, 4
	intensity $B7
	note D_, 6
	intensity $4F
	note A_, 6
	intensity $A0
	note G_, 6
	note F_, 4
	note E_, 6
	note F_, 6
	note G_, 4
	note A_, 6
	note A#, 6
	note G#, 4
	note A_, 6
	intensity $A7
	note A_, 10
	dutycycle 1
	intensity $3F
	octave 3
	note D_, 8
	intensity $B7
	note D_, 8
	intensity $3F
	note C#, 8
	intensity $B7
	note C#, 8
	intensity $3F
	note D_, 8
	intensity $B7
	note D_, 8
	intensity $3F
	note E_, 8
	intensity $B7
	note E_, 8
	intensity $4F
	note F_, 8
	intensity $A0
	note F_, 8
	intensity $90
	note E_, 16
	intensity $A0
	note F_, 12
	intensity $A7
	note F_, 4
	intensity $B0
	note A_, 10
	intensity $6D
	note A_, 6
	intensity $A8
	note F_, 8
	intensity $6F
	note F_, 8
	intensity $C7
	octave 4
	note D_, 8
	note C#, 8
	intensity $B0
	octave 3
	note A_, 8
	intensity $B7
	note A_, 8
	intensity $3C
	note E_, 6
	intensity $C7
	note E_, 10
	intensity $A8
	octave 4
	note F_, 8
	intensity $6F
	note F_, 8
	intensity $C7
	note D_, 8
	note F_, 6
	intensity $B7
	note G_, 2
	intensity $B0
	note A_, 8
	intensity $B7
	note A_, 8
	intensity $3C
	octave 5
	note C#, 6
	intensity $C7
	note C#, 10
	intensity $C2
	octave 3
	note A_, 6
	note A_, 6
	note A_, 4
	note A_, 6
	note A_, 4
	intensity $C7
	octave 4
	note C_, 2
	octave 3
	note A#, 4
	intensity $C2
	note A_, 6
	note A_, 4
	intensity $C7
	octave 4
	note C_, 2
	octave 3
	note A#, 4
	intensity $C2
	note A_, 6
	intensity $C7
	octave 4
	note G_, 1
	note G#, 1
	note A_, 8
	intensity $C2
	octave 3
	note A#, 6
	note A#, 4
	intensity $C7
	octave 4
	note D_, 2
	note C_, 4
	intensity $C2
	octave 3
	note A#, 6
	note A#, 4
	intensity $C7
	octave 4
	note D_, 2
	note C_, 4
	intensity $C2
	octave 3
	note A#, 6
	note A#, 4
	intensity $C7
	octave 4
	note D_, 2
	note C_, 4
	intensity $C2
	octave 3
	note A#, 6
	intensity $C7
	octave 4
	note G_, 1
	note A_, 1
	note A#, 8
	note A_, 6
	note G_, 6
	note A_, 4
	note A#, 6
	octave 5
	note D_, 6
	octave 4
	note A#, 4
	note A_, 6
	note G_, 6
	intensity $C5
	note A_, 4
	intensity $B0
	note A_, 8
	intensity $B7
	note A_, 8
	intensity $C6
	octave 3
	note A_, 6
	note G#, 6
	note E_, 4
	note A_, 6
	note G#, 6
	note E_, 4
	intensity $B0
	note F_, 8
	intensity $B7
	note F_, 8
	intensity $3D
	note A#, 8
	intensity $C7
	note A#, 6
	octave 4
	note F_, 1
	note G_, 1
	loopchannel 0, Music_RocketBattle_Ch2_loop

Music_RocketBattle_Ch3:
	dutycycle 4
	octave 3
	notetype $C, $14
	note A_, 2
	octave 4
	note E_, 2
	octave 3
	note G#, 2
	octave 4
	note E_, 2
	octave 3
	note G_, 2
	octave 4
	note E_, 2
	octave 3
	note F#, 2
	octave 4
	note E_, 2
	octave 3
	note F_, 2
	octave 4
	note E_, 2
	octave 3
	note E_, 2
	octave 4
	note E_, 2
	octave 2
	note B_, 2
	octave 3
	note C_, 2
	octave 2
	note B_, 2
	note A#, 2
	note A_, 2
	octave 3
	note E_, 2
	note D_, 2
	octave 2
	note A_, 2
	note A#, 2
	octave 3
	note E_, 2
	note G_, 2
	note F_, 2
	octave 2
	note A_, 2
	octave 3
	note E_, 2
	note D_, 2
	octave 2
	note A_, 2
	note A#, 2
	octave 3
	note E_, 2
	note G_, 2
	note F_, 2
	octave 2
	note A_, 2
	octave 3
	note E_, 2
	note D_, 2
	octave 2
	note A_, 2
	note A#, 2
	octave 3
	note E_, 2
	note G_, 2
	note F_, 2
	octave 2
	note A_, 2
	octave 3
	note E_, 2
	note D_, 2
	octave 2
	note A_, 2
	octave 3
	note G_, 2
	note F_, 2
	note E_, 2
	note D_, 2
	octave 2
	note A_, 2
	octave 3
	note E_, 2
	note D_, 2
	octave 2
	note A_, 2
	note A#, 2
	octave 3
	note E_, 2
	note G_, 2
	note F_, 2
	octave 2
	note A_, 2
	octave 3
	note E_, 2
	note D_, 2
	octave 2
	note A_, 2
	note A#, 2
	octave 3
	note E_, 2
	note G_, 2
	note F_, 2
	octave 2
	note A_, 2
	octave 3
	note E_, 2
	note D_, 2
	octave 2
	note A_, 2
	note A#, 2
	octave 3
	note E_, 2
	note G_, 2
	note F_, 2
	octave 2
	note A_, 2
	octave 3
	note E_, 2
	note D_, 2
	octave 2
	note A_, 2
	octave 3
	note G_, 2
	octave 2
	note G_, 2
	note A_, 2
	note A#, 2
	note A_, 2
	octave 3
	note E_, 2
	octave 2
	note A_, 2
	octave 3
	note E_, 2
	octave 2
	note A_, 2
	octave 3
	note E_, 2
	note D#, 2
	note E_, 2
	octave 2
	note A_, 2
	octave 3
	note E_, 2
	octave 2
	note A_, 2
	octave 3
	note E_, 2
	octave 2
	note A_, 2
	octave 3
	note E_, 2
	note D#, 2
	note D_, 2
	octave 2
	note A#, 2
	octave 3
	note F_, 2
	note A#, 2
	octave 2
	note A#, 2
	octave 3
	note F_, 2
	note A#, 2
	octave 2
	note A#, 2
	octave 3
	note F_, 2
	octave 2
	note A#, 2
	octave 3
	note F_, 2
	note A#, 2
	note F_, 2
	note A#, 2
	note F_, 2
	octave 2
	note A#, 2
	octave 3
	note F_, 2
Music_RocketBattle_Ch3_loop:
	notetype $C, $14
	octave 2
	note A_, 2
	octave 3
	note E_, 2
	octave 2
	note A_, 2
	octave 3
	note E_, 2
	octave 2
	note A_, 2
	octave 3
	note E_, 2
	note D#, 2
	note E_, 2
	octave 2
	note A_, 2
	octave 3
	note E_, 2
	octave 2
	note A_, 2
	octave 3
	note E_, 2
	octave 2
	note A_, 2
	octave 3
	note E_, 2
	note D#, 2
	note D_, 2
	octave 2
	note A#, 2
	octave 3
	note F_, 2
	note A#, 2
	octave 2
	note A#, 2
	octave 3
	note F_, 2
	note A#, 2
	octave 2
	note A#, 2
	octave 3
	note A#, 2
	octave 2
	note A#, 2
	octave 3
	note F_, 2
	octave 2
	note A#, 2
	octave 3
	note F_, 2
	octave 2
	note A#, 2
	octave 3
	note F_, 2
	note E_, 2
	note D_, 2
	octave 2
	note A_, 2
	octave 3
	note E_, 2
	octave 2
	note A_, 2
	octave 3
	note E_, 2
	octave 2
	note A_, 2
	octave 3
	note E_, 2
	octave 2
	note A_, 2
	octave 3
	note E_, 2
	octave 2
	note A_, 2
	octave 3
	note E_, 2
	note A_, 2
	octave 2
	note A_, 2
	octave 3
	note E_, 2
	note A_, 2
	octave 2
	note A_, 2
	octave 3
	note E_, 2
	octave 2
	note A#, 2
	octave 3
	note F_, 2
	octave 2
	note A#, 2
	octave 3
	note F_, 2
	octave 2
	note A#, 2
	octave 3
	note F_, 2
	octave 2
	note A#, 2
	octave 3
	note F_, 2
	octave 2
	note A#, 2
	octave 3
	note F_, 2
	note A#, 2
	octave 2
	note A#, 2
	octave 3
	note F_, 2
	note A#, 2
	octave 2
	note A#, 2
	octave 3
	note A#, 2
	octave 2
	note A_, 2
	octave 3
	note E_, 2
	octave 2
	note A_, 2
	octave 3
	note E_, 2
	octave 2
	note A_, 2
	octave 3
	note E_, 2
	octave 2
	note A_, 2
	octave 3
	note E_, 2
	octave 2
	note A_, 2
	octave 3
	note E_, 2
	octave 2
	note A_, 2
	octave 3
	note E_, 2
	octave 2
	note A_, 2
	octave 3
	note F_, 2
	note E_, 2
	note D_, 2
	octave 2
	note A_, 2
	octave 3
	note E_, 2
	octave 2
	note A_, 2
	octave 3
	note E_, 2
	octave 2
	note A_, 2
	octave 3
	note E_, 2
	octave 2
	note A_, 2
	octave 3
	note E_, 2
	octave 2
	note A_, 2
	octave 3
	note E_, 2
	octave 2
	note A_, 2
	octave 3
	note E_, 2
	octave 2
	note A_, 2
	octave 3
	note E_, 2
	octave 2
	note A_, 2
	octave 3
	note E_, 2
	octave 2
	note A_, 2
	octave 3
	note E_, 2
	note D_, 2
	octave 2
	note A_, 1
	note A#, 1
	note A_, 2
	octave 3
	note D_, 2
	note G_, 2
	note D_, 1
	note F_, 1
	octave 2
	note A_, 2
	octave 3
	note E_, 2
	note D_, 2
	octave 2
	note A_, 1
	note A#, 1
	note A_, 2
	octave 3
	note D_, 2
	note G_, 2
	note D_, 1
	note F_, 1
	octave 2
	note A_, 2
	octave 3
	note E_, 2
	note D_, 2
	octave 2
	note A_, 1
	note A#, 1
	note A_, 2
	octave 3
	note D_, 2
	note G_, 2
	note D_, 1
	note F_, 1
	octave 2
	note A_, 2
	octave 3
	note E_, 2
	note D_, 2
	octave 2
	note A_, 1
	note A#, 1
	note A_, 2
	octave 3
	note D_, 2
	note G_, 2
	note D_, 1
	note F_, 1
	octave 2
	note A_, 2
	octave 3
	note E_, 2
	note D_, 2
	octave 2
	note A_, 1
	note A#, 1
	note A_, 2
	octave 3
	note D_, 2
	note G_, 2
	note D_, 1
	note F_, 1
	octave 2
	note A_, 2
	octave 3
	note E_, 2
	note D_, 2
	octave 2
	note A_, 1
	note A#, 1
	note A_, 2
	octave 3
	note D_, 2
	note G_, 2
	note D_, 1
	note F_, 1
	octave 2
	note A_, 2
	octave 3
	note E_, 2
	note D_, 2
	octave 2
	note A_, 1
	note A#, 1
	note A_, 2
	octave 3
	note D_, 2
	note G_, 2
	note D_, 1
	note F_, 1
	octave 2
	note A_, 2
	octave 3
	note E_, 2
	note D_, 2
	octave 2
	note A_, 1
	note A#, 1
	note A_, 2
	octave 3
	note A_, 2
	note G_, 2
	note F_, 2
	octave 2
	note A#, 2
	octave 3
	note F_, 2
	octave 2
	note A#, 2
	octave 3
	note F_, 2
	octave 2
	note A#, 2
	octave 3
	note F_, 2
	octave 2
	note A#, 2
	octave 3
	note F_, 2
	octave 2
	note A#, 2
	octave 3
	note F_, 2
	note G_, 2
	note F_, 2
	note E_, 2
	note D_, 2
	note C#, 2
	note D_, 2
	octave 2
	note A_, 2
	octave 3
	note E_, 2
	octave 2
	note A_, 2
	octave 3
	note E_, 2
	octave 2
	note A_, 2
	octave 3
	note E_, 2
	octave 2
	note A_, 2
	octave 3
	note E_, 2
	octave 2
	note A_, 2
	octave 3
	note E_, 2
	octave 2
	note A_, 2
	octave 3
	note E_, 2
	note F_, 2
	note E_, 2
	note D_, 2
	note E_, 2
	octave 2
	note A#, 2
	octave 3
	note F_, 2
	octave 2
	note A#, 2
	octave 3
	note F_, 2
	octave 2
	note A#, 2
	octave 3
	note F_, 2
	octave 2
	note A#, 2
	octave 3
	note F_, 2
	octave 2
	note A#, 2
	octave 3
	note F_, 2
	note G_, 2
	note F_, 2
	note E_, 2
	note D_, 2
	note C#, 2
	note D_, 2
	octave 2
	note A_, 2
	octave 3
	note E_, 2
	octave 2
	note A_, 2
	octave 3
	note E_, 2
	octave 2
	note A_, 2
	octave 3
	note E_, 2
	octave 2
	note A_, 2
	octave 3
	note E_, 2
	octave 2
	note A_, 2
	octave 3
	note E_, 2
	octave 2
	note A_, 2
	octave 3
	note E_, 2
	octave 2
	note A_, 2
	octave 3
	note E_, 2
	octave 2
	note A_, 2
	octave 3
	note E_, 2
	octave 2
	note A_, 2
	octave 3
	note E_, 2
	octave 2
	note A_, 2
	octave 3
	note E_, 2
	octave 2
	note A_, 2
	octave 3
	note E_, 2
	octave 2
	note A_, 2
	octave 3
	note E_, 2
	octave 2
	note A_, 2
	octave 3
	note E_, 2
	octave 2
	note A_, 2
	octave 3
	note E_, 4
	note D_, 2
	note C_, 2
	octave 2
	note A#, 2
	note A_, 2
	octave 3
	note E_, 2
	octave 2
	note A_, 2
	octave 3
	note E_, 2
	octave 2
	note A_, 2
	octave 3
	note E_, 2
	octave 2
	note A_, 2
	octave 3
	note E_, 2
	octave 2
	note A_, 2
	octave 4
	note D_, 2
	octave 3
	note A_, 2
	note A#, 4
	note A_, 2
	note G_, 2
	note A#, 2
	octave 2
	note A#, 2
	octave 3
	note F_, 2
	octave 2
	note A#, 2
	octave 3
	note F_, 2
	octave 2
	note A#, 2
	octave 3
	note F_, 2
	octave 2
	note A#, 2
	octave 3
	note F_, 2
	octave 2
	note A#, 2
	octave 3
	note F_, 2
	octave 2
	note A#, 2
	octave 3
	note F_, 2
	octave 2
	note A#, 2
	octave 3
	note F_, 2
	note E_, 2
	note F_, 2
	octave 2
	note A#, 2
	octave 3
	note F_, 2
	octave 2
	note A#, 2
	octave 3
	note F_, 2
	octave 2
	note A#, 2
	octave 3
	note F_, 2
	octave 2
	note A#, 2
	octave 3
	note F_, 2
	octave 2
	note A#, 2
	octave 3
	note F_, 2
	note A#, 2
	octave 4
	note D_, 4
	note C_, 2
	octave 3
	note A#, 2
	note G_, 2
	octave 2
	note A_, 2
	octave 3
	note E_, 2
	note A_, 2
	octave 2
	note A_, 2
	octave 3
	note E_, 2
	note A_, 2
	octave 2
	note A_, 2
	octave 3
	note E_, 2
	octave 2
	note A#, 2
	octave 3
	note F_, 2
	note A#, 2
	octave 2
	note A#, 2
	octave 3
	note F_, 2
	note A#, 2
	octave 2
	note A#, 2
	octave 3
	note F_, 2
	octave 2
	note A_, 2
	octave 3
	note E_, 2
	note A_, 2
	octave 2
	note A_, 2
	octave 3
	note E_, 2
	note A_, 2
	octave 2
	note A_, 2
	octave 3
	note A_, 2
	octave 2
	note A_, 2
	octave 3
	note E_, 2
	octave 2
	note A_, 2
	octave 3
	note E_, 2
	octave 2
	note A_, 2
	octave 3
	note E_, 2
	octave 2
	note A_, 2
	octave 3
	note E_, 2
	octave 2
	note A_, 2
	octave 3
	note E_, 2
	octave 2
	note A_, 2
	octave 3
	note E_, 2
	octave 2
	note A_, 2
	octave 3
	note E_, 2
	note D#, 2
	note E_, 2
	octave 2
	note A_, 2
	octave 3
	note E_, 2
	octave 2
	note A_, 2
	octave 3
	note E_, 2
	octave 2
	note A_, 2
	octave 3
	note E_, 2
	note D#, 2
	note D_, 2
	octave 2
	note A#, 2
	octave 3
	note F_, 2
	note A#, 2
	octave 2
	note A#, 2
	octave 3
	note F_, 2
	note A#, 2
	octave 2
	note A#, 2
	octave 3
	note F_, 2
	octave 2
	note A#, 2
	octave 3
	note F_, 2
	note A#, 2
	note F_, 2
	note A#, 2
	note F_, 2
	octave 2
	note A#, 2
	octave 3
	note F_, 2
	loopchannel 0, Music_RocketBattle_Ch3_loop

Music_RocketBattle_Ch4:
	togglenoise 2
	notetype $C
	note C#, 1
	note __, 3
	note C#, 1
	note __, 3
	note C#, 1
	note __, 3
	note C#, 1
	note __, 3
	note C#, 1
	note __, 3
	note C#, 1
	note __, 1
	note D_, 1
	note __, 1
	note C#, 1
	note __, 1
	note D_, 1
	note __, 1
	note C#, 1
	note D_, 1
	note D#, 1
	note D_, 1
	note G#, 1
	note __, 1
	note D_, 1
	note __, 1
	note C_, 1
	note __, 1
	note C#, 1
	note __, 1
	note D#, 1
	note __, 1
	note C_, 1
	note __, 1
	note C#, 1
	note __, 1
	note D_, 1
	note __, 1
	note D#, 1
	note __, 1
	note D_, 1
	note __, 1
	note C_, 1
	note __, 1
	note C#, 1
	note __, 1
	note D#, 1
	note __, 1
	note C_, 1
	note __, 1
	note C#, 1
	note __, 1
	note D_, 1
	note __, 1
	note C#, 1
	note __, 1
	note D_, 1
	note __, 1
	note C_, 1
	note __, 1
	note C#, 1
	note __, 1
	note D#, 1
	note __, 1
	note C_, 1
	note __, 1
	note C#, 1
	note __, 1
	note D_, 1
	note __, 1
	note D#, 1
	note __, 1
	note D_, 1
	note __, 1
	note C_, 1
	note __, 1
	note C#, 1
	note __, 1
	note D#, 1
	note __, 1
	note C_, 1
	note __, 1
	note C#, 1
	note __, 1
	note D_, 1
	note C#, 1
	note G#, 1
	note __, 1
	note D_, 1
	note __, 1
	note C_, 1
	note __, 1
	note G#, 1
	note __, 1
	note D#, 1
	note __, 1
	note C_, 1
	note __, 1
	note C#, 1
	note __, 1
	note D_, 1
	note __, 1
	note G#, 1
	note __, 1
	note D_, 1
	note __, 1
	note C_, 1
	note __, 1
	note G#, 1
	note __, 1
	note D#, 1
	note __, 1
	note C_, 1
	note __, 1
	note C#, 1
	note __, 1
	note D_, 1
	note __, 1
	note G#, 1
	note __, 1
	note D_, 1
	note __, 1
	note C_, 1
	note __, 1
	note G#, 1
	note __, 1
	note D#, 1
	note __, 1
	note C_, 1
	note __, 1
	note C#, 1
	note __, 1
	note D_, 1
	note __, 1
	note G#, 1
	note __, 1
	note A_, 1
	note __, 3
	note G#, 1
	note __, 3
	note G#, 1
	note __, 1
	note A_, 1
	note __, 1
	note F_, 1
	note __, 1
Music_RocketBattle_Ch4_loop:
	notetype $C
	note G#, 1
	note __, 1
	note D_, 1
	note __, 1
	note C_, 1
	note __, 1
	note C#, 1
	note __, 1
	note D#, 1
	note __, 1
	note D_, 1
	note __, 1
	note C_, 1
	note __, 1
	note D_, 1
	note __, 1
	note D#, 1
	note __, 1
	note D_, 1
	note __, 1
	note C_, 1
	note __, 1
	note C#, 1
	note __, 1
	note D#, 1
	note __, 1
	note D_, 1
	note __, 1
	note C_, 1
	note __, 1
	note D_, 1
	note C#, 1
	note C_, 1
	note __, 1
	note D_, 1
	note __, 1
	note C_, 1
	note __, 1
	note D#, 1
	note __, 1
	note C#, 1
	note __, 1
	note C_, 1
	note __, 1
	note D_, 1
	note __, 1
	note C_, 1
	note __, 1
	note D#, 1
	note __, 1
	note D_, 1
	note __, 1
	note C_, 1
	note __, 1
	note D#, 1
	note __, 1
	note C#, 1
	note __, 1
	note C_, 1
	note __, 1
	note D_, 1
	note C#, 1
	note C_, 1
	note __, 1
	note G#, 1
	note __, 1
	note D_, 1
	note __, 1
	note C_, 1
	note __, 1
	note C#, 1
	note __, 1
	note D#, 1
	note __, 1
	note D_, 1
	note __, 1
	note C_, 1
	note __, 1
	note D_, 1
	note __, 1
	note D#, 1
	note __, 1
	note D_, 1
	note __, 1
	note C_, 1
	note __, 1
	note C#, 1
	note __, 1
	note D#, 1
	note __, 1
	note D_, 1
	note __, 1
	note C_, 1
	note __, 1
	note D_, 1
	note C#, 1
	note C_, 1
	note __, 1
	note D_, 1
	note __, 1
	note C_, 1
	note __, 1
	note D#, 1
	note __, 1
	note C#, 1
	note __, 1
	note C_, 1
	note __, 1
	note D_, 1
	note __, 1
	note C_, 1
	note __, 1
	note D#, 1
	note __, 1
	note D_, 1
	note __, 1
	note C_, 1
	note __, 1
	note D#, 1
	note __, 1
	note C#, 1
	note __, 1
	note C_, 1
	note __, 1
	note D_, 1
	note C#, 1
	note C_, 1
	note __, 1
	note G#, 1
	note __, 1
	note D_, 1
	note __, 1
	note C_, 1
	note __, 1
	note C#, 1
	note __, 1
	note D#, 1
	note __, 1
	note C_, 1
	note __, 1
	note C#, 1
	note __, 1
	note D_, 1
	note __, 1
	note D#, 1
	note __, 1
	note D_, 1
	note __, 1
	note C_, 1
	note __, 1
	note C#, 1
	note __, 1
	note D#, 1
	note __, 1
	note C_, 1
	note __, 1
	note C#, 1
	note __, 1
	note D_, 1
	note C#, 1
	note G#, 1
	note __, 1
	note D_, 1
	note __, 1
	note C_, 1
	note __, 1
	note C#, 1
	note __, 1
	note D#, 1
	note __, 1
	note C_, 1
	note __, 1
	note C#, 1
	note __, 1
	note D_, 1
	note __, 1
	note D#, 1
	note __, 1
	note D_, 1
	note __, 1
	note C_, 1
	note __, 1
	note C#, 1
	note __, 1
	note D#, 1
	note __, 1
	note C_, 1
	note __, 1
	note C#, 1
	note __, 1
	note C_, 1
	note __, 1
	note G#, 1
	note __, 1
	note D_, 1
	note __, 1
	note C_, 1
	note __, 1
	note C#, 1
	note __, 1
	note D#, 1
	note __, 1
	note D_, 1
	note __, 1
	note C_, 1
	note __, 1
	note D_, 1
	note __, 1
	note D#, 1
	note __, 1
	note D_, 1
	note __, 1
	note C_, 1
	note __, 1
	note C#, 1
	note __, 1
	note D#, 1
	note __, 1
	note D_, 1
	note __, 1
	note C_, 1
	note __, 1
	note D_, 1
	note __, 1
	note D#, 1
	note __, 1
	note D_, 1
	note __, 1
	note C_, 1
	note __, 1
	note C#, 1
	note __, 1
	note D#, 1
	note __, 1
	note D_, 1
	note __, 1
	note C_, 1
	note __, 1
	note D_, 1
	note __, 1
	note D#, 1
	note __, 1
	note D_, 1
	note __, 1
	note C_, 1
	note __, 1
	note C#, 1
	note __, 1
	note D#, 1
	note __, 1
	note D_, 1
	note __, 1
	note C_, 1
	note __, 1
	note D_, 1
	note C#, 1
	note C_, 1
	note __, 1
	note D_, 1
	note __, 1
	note D_, 1
	note __, 1
	note D_, 1
	note __, 1
	note G#, 1
	note __, 1
	note D#, 1
	note __, 1
	note D_, 1
	note __, 1
	note D#, 1
	note __, 1
	note C#, 1
	note __, 1
	note D_, 1
	note __, 1
	note D_, 1
	note __, 1
	note D_, 1
	note __, 1
	note G#, 1
	note __, 1
	note D#, 1
	note __, 1
	note D_, 1
	note __, 1
	note F_, 1
	note D#, 1
	note C#, 1
	note __, 1
	note D_, 1
	note __, 1
	note D_, 1
	note __, 1
	note D_, 1
	note __, 1
	note G#, 1
	note __, 1
	note D#, 1
	note __, 1
	note D_, 1
	note __, 1
	note D#, 1
	note __, 1
	note C#, 1
	note __, 1
	note D_, 1
	note __, 1
	note D_, 1
	note __, 1
	note D_, 1
	note __, 1
	note G#, 1
	note __, 1
	note D#, 1
	note __, 1
	note D_, 1
	note __, 1
	note F_, 1
	note D_, 1
	note D_, 1
	note __, 1
	note D#, 1
	note __, 1
	note G#, 1
	note __, 1
	note D#, 1
	note __, 1
	note D_, 1
	note __, 1
	note D#, 1
	note __, 1
	note C#, 1
	note D_, 1
	note D#, 1
	note __, 1
	note D_, 1
	note __, 1
	note D#, 1
	note __, 1
	note G#, 1
	note __, 1
	note D#, 1
	note __, 1
	note D_, 1
	note __, 1
	note D#, 1
	note __, 1
	note C#, 1
	note D_, 1
	note D#, 1
	note G_, 1
	note D_, 1
	note __, 1
	note D#, 1
	note __, 1
	note G#, 1
	note __, 1
	note D#, 1
	note C#, 1
	note D_, 1
	note __, 1
	note D#, 1
	note __, 1
	note G#, 1
	note __, 1
	note D#, 1
	note D_, 1
	note D_, 1
	note __, 1
	note D#, 1
	note __, 1
	note G#, 1
	note __, 1
	note D#, 1
	note D_, 1
	note G#, 1
	note __, 1
	note D_, 1
	note D_, 1
	note C#, 1
	note C#, 1
	note C#, 1
	note C#, 1
	note A_, 1
	note __, 1
	note D_, 1
	note __, 1
	note C_, 1
	note __, 1
	note C#, 1
	note __, 1
	note D#, 1
	note __, 1
	note D_, 1
	note __, 1
	note C_, 1
	note __, 1
	note D_, 1
	note __, 1
	note D#, 1
	note __, 1
	note D_, 1
	note __, 1
	note C_, 1
	note __, 1
	note C#, 1
	note __, 1
	note D#, 1
	note __, 1
	note D_, 1
	note __, 1
	note C_, 1
	note __, 1
	note D_, 1
	note C#, 1
	note G#, 1
	note __, 1
	note D_, 1
	note __, 1
	note C_, 1
	note __, 1
	note C#, 1
	note __, 1
	note D#, 1
	note __, 1
	note C_, 1
	note __, 1
	note C#, 1
	note __, 1
	note D_, 1
	note __, 1
	note D#, 1
	note __, 1
	note D_, 1
	note __, 1
	note C_, 1
	note __, 1
	note C#, 1
	note __, 1
	note D#, 1
	note __, 1
	note C_, 1
	note __, 1
	note C#, 1
	note __, 1
	note C_, 1
	note __, 1
	note G#, 1
	note __, 1
	note D_, 1
	note __, 1
	note C_, 1
	note __, 1
	note C#, 1
	note __, 1
	note D#, 1
	note __, 1
	note D_, 1
	note __, 1
	note C_, 1
	note __, 1
	note D_, 1
	note __, 1
	note D#, 1
	note __, 1
	note D_, 1
	note __, 1
	note C_, 1
	note __, 1
	note C#, 1
	note __, 1
	note D#, 1
	note __, 1
	note D_, 1
	note __, 1
	note C_, 1
	note __, 1
	note D_, 1
	note __, 1
	note G#, 1
	note __, 1
	note D_, 1
	note __, 1
	note C_, 1
	note __, 1
	note C#, 1
	note __, 1
	note D#, 1
	note __, 1
	note D_, 1
	note __, 1
	note C_, 1
	note __, 1
	note D_, 1
	note __, 1
	note D#, 1
	note __, 1
	note D_, 1
	note __, 1
	note C_, 1
	note __, 1
	note C#, 1
	note __, 1
	note C_, 1
	note __, 1
	note C#, 1
	note __, 1
	note A#, 1
	note D_, 1
	note C_, 1
	note __, 1
	note G#, 1
	note __, 1
	note D_, 1
	note __, 1
	note C_, 1
	note __, 1
	note C#, 1
	note __, 1
	note D#, 1
	note __, 1
	note D_, 1
	note __, 1
	note C_, 1
	note __, 1
	note D_, 1
	note __, 1
	note D#, 1
	note __, 1
	note D_, 1
	note __, 1
	note C_, 1
	note __, 1
	note C#, 1
	note __, 1
	note D#, 1
	note __, 1
	note D_, 1
	note __, 1
	note C_, 1
	note __, 1
	note D_, 1
	note C#, 1
	note G#, 1
	note __, 1
	note D_, 1
	note __, 1
	note C_, 1
	note __, 1
	note C#, 1
	note __, 1
	note D#, 1
	note __, 1
	note D_, 1
	note __, 1
	note C_, 1
	note __, 1
	note D_, 1
	note C#, 1
	note A_, 1
	note __, 9
	note F_, 1
	note __, 1
	note A_, 1
	note __, 1
	note D_, 1
	note __, 1
	note G#, 1
	note __, 1
	note D_, 1
	note __, 1
	note C_, 1
	note __, 1
	note C#, 1
	note __, 1
	note D#, 1
	note __, 1
	note D_, 1
	note __, 1
	note C_, 1
	note __, 1
	note D_, 1
	note __, 1
	note D#, 1
	note __, 1
	note D_, 1
	note __, 1
	note C_, 1
	note __, 1
	note C#, 1
	note __, 1
	note D#, 1
	note __, 1
	note D_, 1
	note __, 1
	note C_, 1
	note __, 1
	note D_, 1
	note C#, 1
	note A_, 1
	note __, 1
	note D_, 1
	note __, 1
	note C_, 1
	note __, 1
	note C#, 1
	note __, 1
	note D#, 1
	note __, 1
	note D_, 1
	note __, 1
	note C_, 1
	note __, 1
	note D_, 1
	note C#, 1
	note A_, 1
	note __, 9
	note F_, 1
	note __, 1
	note A_, 1
	note __, 1
	note D_, 1
	note __, 1
	note G#, 1
	note __, 1
	note D_, 1
	note __, 1
	note C_, 1
	note __, 1
	note C#, 1
	note __, 1
	note D#, 1
	note __, 1
	note D_, 1
	note __, 1
	note C_, 1
	note __, 1
	note D_, 1
	note __, 1
	note D#, 1
	note __, 1
	note D_, 1
	note __, 1
	note C_, 1
	note __, 1
	note C#, 1
	note __, 1
	note D#, 1
	note __, 1
	note D_, 1
	note __, 1
	note C_, 1
	note __, 1
	note D_, 1
	note C#, 1
	note C_, 1
	note __, 1
	note D_, 1
	note __, 1
	note C_, 1
	note __, 1
	note D#, 1
	note __, 1
	note C#, 1
	note __, 1
	note C_, 1
	note __, 1
	note D_, 1
	note __, 1
	note C_, 1
	note __, 1
	note D#, 1
	note __, 1
	note D_, 1
	note __, 1
	note C_, 1
	note __, 1
	note D#, 1
	note __, 1
	note C#, 1
	note __, 1
	note C_, 1
	note __, 1
	note D_, 1
	note C#, 1
	note C_, 1
	note __, 1
	loopchannel 0, Music_RocketBattle_Ch4_loop

