Music_RocketMotto:
	musicheader 4, 1, Music_RocketMotto_Ch1
	musicheader 1, 2, Music_RocketMotto_Ch2
	musicheader 1, 3, Music_RocketMotto_Ch3
	musicheader 1, 4, Music_RocketMotto_Ch4

Music_RocketMotto_Ch1:
	tempo $D5
	volume $77
	stereopanning $f
	tone $0001
	octave 3
	notetype $C, $00
	note A_, 1
	notetype $E, $00
	note __, 2
	notetype $8, $D1
	note A_, 1
	intensity $D3
	note A_, 3
	note __, 2
	intensity $D1
	note A_, 1
	intensity $D8
	note A_, 6
	intensity $D4
	note A_, 3
	intensity $88
	octave 4
	note F#, 1
	note G_, 1
	note G#, 1
	notetype $C, $D8
	note F#, 12
	intensity $D5
	note F#, 4
	intensity $1F
	octave 3
	note G#, 6
	intensity $A8
	note G#, 2
	intensity $A7
	note G#, 6
	note __, 2
Music_RocketMotto_Ch1_loop:
	notetype $8, $62
	note E_, 2
	note __, 4
	note E_, 2
	note __, 4
	note E_, 2
	note __, 4
	note E_, 2
	note __, 4
	intensity $82
	note G#, 2
	note __, 4
	note G#, 2
	note __, 4
	intensity $A2
	note G#, 2
	note __, 4
	note G#, 2
	note __, 4
	note E_, 2
	note __, 4
	note F_, 2
	note __, 4
	note E_, 2
	note __, 4
	octave 2
	note A_, 2
	note __, 4
	intensity $82
	octave 3
	note E_, 2
	note __, 4
	note F_, 2
	note __, 4
	note E_, 2
	note __, 4
	octave 2
	note B_, 2
	note __, 4
	octave 3
	note E_, 2
	note __, 4
	note F_, 2
	note __, 4
	note E_, 2
	note __, 4
	octave 2
	note A_, 2
	note __, 4
	intensity $A2
	octave 3
	note E_, 2
	note __, 1
	intensity $A4
	note E_, 3
	intensity $A2
	note F_, 2
	note __, 1
	intensity $A4
	note F_, 3
	intensity $A2
	note F#, 2
	note __, 1
	intensity $A4
	note F#, 3
	intensity $A2
	note G_, 2
	note __, 1
	note G_, 3
	note __, 3
	intensity $A4
	note G#, 3
	note A_, 4
	note __, 5
	note G#, 3
	intensity $A2
	note B_, 2
	note __, 1
	note A_, 2
	note __, 4
	intensity $A4
	note G#, 3
	note A_, 4
	note __, 2
	intensity $61
	note B_, 1
	note A#, 1
	note G#, 1
	note B_, 1
	note A#, 1
	note G#, 1
	intensity $81
	note B_, 1
	note A#, 1
	note G#, 1
	intensity $A1
	note B_, 1
	note A#, 1
	note G#, 1
	intensity $68
	octave 1
	note A_, 9
	note A_, 1
	note A#, 1
	note B_, 1
	octave 2
	note C_, 12
	octave 1
	note A_, 9
	note A_, 1
	note A#, 1
	note B_, 1
	octave 2
	note C_, 12
	octave 1
	note A_, 9
	note A_, 1
	note A#, 1
	note B_, 1
	octave 2
	note C_, 9
	note C_, 1
	note C#, 1
	note D_, 1
	octave 3
	notetype $E, $1F
	note A_, 6
	notetype $C, $C8
	note A_, 3
	intensity $C7
	note A_, 6
	loopchannel 0, Music_RocketMotto_Ch1_loop

Music_RocketMotto_Ch2:
        stereopanning $f0
	dutycycle 1
	tone $0002
	vibrato $00, $26
	octave 4
	notetype $C, $00
	note E_, 1
	notetype $E, $00
	note __, 2
	dutycycle 0
	notetype $8, $D1
	note E_, 1
	intensity $D3
	note E_, 3
	note __, 2
	intensity $D1
	note D#, 1
	notetype $F, $D8
	note D#, 4
	notetype $C, $D5
	note D#, 3
	intensity $D8
	vibrato $02, $35
	note A_, 12
	intensity $D5
	note A_, 4
	dutycycle 1
	vibrato $02, $26
	octave 3
	notetype $8, $44
	note E_, 1
	note F_, 1
	intensity $62
	note D#, 1
	note E_, 1
	note F_, 1
	intensity $82
	note D#, 1
	note E_, 1
	intensity $A2
	note F_, 1
	note D#, 1
	note E_, 1
	note F_, 1
	intensity $82
	note D#, 1
	note E_, 1
	note F_, 1
	intensity $62
	note D#, 1
	note E_, 1
	note F_, 1
	note D#, 1
	intensity $42
	note E_, 1
	note F_, 1
	note D#, 1
	note E_, 1
	intensity $24
	note F_, 1
	note D_, 1
Music_RocketMotto_Ch2_loop:
	notetype $8, $A1
	octave 2
	note A_, 2
	note __, 1
	note A_, 1
	note A_, 1
	note A_, 1
	note A_, 1
	note __, 2
	note A_, 1
	note A_, 1
	note A_, 1
	note A_, 1
	note __, 2
	note A_, 1
	note A_, 1
	note A_, 1
	note A_, 1
	note __, 2
	note A_, 1
	note __, 2
	intensity $C1
	note A_, 2
	note __, 1
	note A_, 1
	note A_, 1
	note A_, 1
	note A_, 1
	note __, 2
	note A_, 1
	note A_, 1
	note A_, 1
	note A_, 1
	note __, 2
	note A_, 1
	note A_, 1
	note A_, 1
	note A_, 1
	note __, 2
	note A_, 1
	note __, 2
	intensity $C2
	octave 3
	note A_, 2
	note __, 1
	intensity $C1
	octave 4
	note E_, 1
	note E_, 1
	note E_, 1
	intensity $C2
	note D#, 3
	note __, 2
	intensity $C1
	octave 3
	note A_, 1
	intensity $C2
	octave 4
	note C_, 2
	note __, 1
	octave 3
	note A_, 2
	note __, 1
	note F_, 2
	note __, 1
	octave 4
	note C_, 2
	note __, 1
	octave 3
	note A_, 2
	note __, 1
	intensity $C1
	octave 4
	note E_, 1
	note E_, 1
	note E_, 1
	intensity $C2
	note D#, 3
	note __, 2
	intensity $C1
	octave 3
	note A_, 1
	intensity $C3
	octave 4
	note C_, 3
	intensity $C1
	octave 3
	note B_, 1
	note A#, 1
	note A_, 1
	intensity $C3
	note G#, 4
	note __, 2
	intensity $C2
	note A_, 2
	note __, 1
	intensity $C1
	octave 4
	note E_, 1
	note E_, 1
	note E_, 1
	intensity $C2
	note D#, 3
	note __, 2
	intensity $C1
	octave 3
	note A_, 1
	intensity $C2
	octave 4
	note C_, 2
	note __, 1
	octave 3
	note A_, 2
	note __, 1
	note F_, 2
	note __, 1
	octave 4
	note C_, 2
	note __, 1
	octave 3
	note A_, 2
	note __, 1
	intensity $C1
	note A_, 1
	note A_, 1
	note A_, 1
	intensity $C2
	note A#, 2
	note __, 1
	intensity $C1
	note A#, 1
	note A#, 1
	note A#, 1
	intensity $C2
	note B_, 2
	note __, 1
	intensity $C1
	note B_, 1
	note B_, 1
	note B_, 1
	intensity $C2
	octave 4
	note C_, 2
	note __, 1
	intensity $C1
	note C_, 1
	note C_, 1
	note C_, 1
	note __, 3
	note D#, 1
	note D#, 1
	note D#, 1
	intensity $C4
	note E_, 4
	note __, 5
	intensity $C1
	note D#, 1
	note D#, 1
	note D#, 1
	intensity $C2
	note F#, 2
	note __, 1
	note E_, 2
	note __, 4
	intensity $C1
	note D#, 1
	note D#, 1
	note D#, 1
	intensity $C4
	note E_, 4
	note __, 2
	intensity $C2
	note F_, 3
	intensity $71
	note F_, 1
	note F_, 1
	note F_, 1
	intensity $A1
	note F_, 1
	note F_, 1
	note F_, 1
	intensity $C1
	note F_, 1
	note F_, 1
	note F_, 1
	intensity $88
	octave 2
	note A_, 3
	note E_, 3
	note E_, 3
	note A_, 3
	note E_, 3
	octave 3
	note C_, 3
	octave 2
	note A#, 3
	note E_, 3
	note A_, 3
	note E_, 3
	note E_, 3
	note A_, 3
	note E_, 3
	octave 3
	note C_, 3
	octave 2
	note A#, 3
	note E_, 3
	note A_, 3
	note E_, 3
	note E_, 3
	note A_, 3
	note E_, 3
	note E_, 3
	note G#, 3
	note E_, 3
	intensity $C8
	octave 3
	note D#, 15
	intensity $C7
	note D#, 9
	loopchannel 0, Music_RocketMotto_Ch2_loop

Music_RocketMotto_Ch3:
	dutycycle 4
	octave 2
	notetype $E, $14
	note A_, 12
	notetype $8, $14
	note A_, 1
	note A#, 1
	note B_, 1
	octave 3
	notetype $C, $14
	note C_, 16
	note E_, 16
Music_RocketMotto_Ch3_loop:
	octave 2
	notetype $8, $14
	note A_, 2
	note __, 4
	note A_, 2
	note __, 4
	note A_, 2
	note __, 4
	note A_, 2
	note __, 4
	note A_, 2
	note __, 4
	note A_, 2
	note __, 4
	note A_, 2
	note __, 4
	note A_, 2
	note __, 4
	note A_, 2
	note __, 4
	note A_, 2
	note __, 4
	note A_, 2
	note __, 4
	note A_, 2
	note __, 4
	note A_, 2
	note __, 4
	note A_, 2
	note __, 4
	note A_, 2
	note __, 4
	note G#, 4
	note __, 2
	note A_, 2
	note __, 4
	note A_, 2
	note __, 4
	note A_, 2
	note __, 4
	note A_, 2
	note __, 4
	note A_, 2
	note __, 4
	note A_, 2
	note __, 4
	note A_, 2
	note __, 4
	note A_, 2
	note __, 4
	note G#, 2
	note __, 4
	note G_, 2
	note __, 4
	note G#, 2
	note __, 4
	note F#, 2
	note __, 4
	note G#, 2
	note __, 4
	note G_, 2
	note __, 4
	note F_, 2
	note __, 4
	note E_, 2
	note __, 4
	note A_, 9
	note A_, 1
	note A#, 1
	note B_, 1
	octave 3
	note C_, 12
	octave 2
	note A_, 9
	note A_, 1
	note A#, 1
	note B_, 1
	octave 3
	note C_, 12
	octave 2
	note A_, 9
	note A_, 1
	note A#, 1
	note B_, 1
	octave 3
	note C_, 9
	note C_, 1
	note C#, 1
	note D_, 1
	note D#, 16
	note __, 8
	loopchannel 0, Music_RocketMotto_Ch3_loop

Music_RocketMotto_Ch4:
	togglenoise 4
	notetype $C
	note B_, 4
	note __, 4
	note B_, 4
	note __, 4
	note B_, 4
	note __, 4
	note F#, 4
	note __, 16
	note __, 2
	note D#, 2
Music_RocketMotto_Ch4_loop:
	notetype $8
	note G#, 2
	note __, 1
	note G_, 1
	note G_, 1
	note G_, 1
	note G#, 2
	note __, 1
	note G_, 1
	note G_, 1
	note G_, 1
	note G#, 2
	note __, 1
	note G_, 1
	note G_, 1
	note G_, 1
	note G#, 2
	note __, 1
	note G#, 3
	note G#, 2
	note __, 1
	note G_, 1
	note G_, 1
	note G_, 1
	note G#, 2
	note __, 1
	note G_, 1
	note G_, 1
	note G_, 1
	note G#, 2
	note __, 1
	note G_, 1
	note G_, 1
	note G_, 1
	note G#, 2
	note __, 1
	note G#, 3
	note B_, 3
	note G_, 1
	note G_, 1
	note G_, 1
	note G#, 2
	note __, 1
	note G_, 1
	note G_, 1
	note G_, 1
	note G#, 2
	note __, 1
	note G_, 1
	note G_, 1
	note G_, 1
	note G#, 2
	note __, 1
	note G_, 2
	note __, 1
	note G#, 2
	note __, 1
	note G_, 1
	note G_, 1
	note G_, 1
	note G#, 2
	note __, 1
	note G_, 1
	note G_, 1
	note G_, 1
	note G#, 2
	note __, 1
	note G_, 1
	note G_, 1
	note G_, 1
	note G#, 3
	note __, 3
	note B_, 3
	note G_, 1
	note G_, 1
	note G_, 1
	note G#, 2
	note __, 1
	note G_, 1
	note G_, 1
	note G_, 1
	note G#, 2
	note __, 1
	note G_, 1
	note G_, 1
	note G_, 1
	note G#, 3
	note G_, 2
	note __, 1
	note G#, 2
	note __, 1
	note G_, 1
	note G_, 1
	note G_, 1
	note G#, 2
	note __, 1
	note G_, 1
	note G_, 1
	note G_, 1
	note G#, 2
	note __, 1
	note G_, 1
	note G_, 1
	note G_, 1
	note G#, 2
	note __, 1
	note G_, 1
	note G_, 1
	note G_, 1
	note B_, 3
	note __, 3
	note D#, 3
	note __, 3
	note B_, 3
	note __, 3
	note D#, 3
	note __, 3
	note B_, 3
	note __, 3
	note D#, 3
	note __, 3
	note B_, 3
	note G_, 1
	note G_, 1
	note G_, 1
	note G_, 1
	note G_, 1
	note G_, 1
	note G_, 1
	note G_, 1
	note G_, 1
	note B_, 6
	note D#, 3
	note __, 3
	note D#, 3
	note __, 3
	note D#, 3
	note D#, 3
	note B_, 6
	note D#, 3
	note __, 3
	note D#, 3
	note __, 3
	note D#, 3
	note D#, 3
	note B_, 6
	note D#, 3
	note __, 3
	note D#, 3
	note __, 3
	note D#, 3
	note __, 3
	note B_, 3
	notetype $E
	note __, 12
	loopchannel 0, Music_RocketMotto_Ch4_loop

