Music_Route209N:
	musicheader 4, 1, Music_Route209N_Ch1
	musicheader 1, 2, Music_Route209N_Ch2
	musicheader 1, 3, Music_Route209N_Ch3
	musicheader 1, 4, Music_Route209N_Ch4

Music_Route209N_Ch1:
	volume $77
	stereopanning $77
	tempo $E1
	dutycycle 1
	tone $0002
	notetype $C, $92
	note __, 2
	octave 2
	note D#, 2
	note G#, 2
	note A#, 2
	octave 3
	note C_, 2
	note D#, 2
	note G#, 2
	octave 4
	note C_, 2
Music_Route209N_Ch1_loop:
	intensity $91
	dutycycle 0
	note __, 1
	octave 3
	note D#, 1
	note G#, 1
	octave 4
	note D#, 1
	note C#, 1
	note C_, 1
	octave 3
	note G#, 1
	note D#, 1
	octave 2
	note G_, 1
	octave 3
	note D#, 1
	note G#, 1
	octave 4
	note D#, 1
	note C#, 1
	note C_, 1
	octave 3
	note G#, 1
	note D#, 1
	octave 2
	note F_, 1
	octave 3
	note D#, 1
	note G#, 1
	octave 4
	note D#, 1
	note C#, 1
	note C_, 1
	octave 3
	note G#, 1
	note D#, 1
	octave 2
	note D#, 1
	octave 3
	note D#, 1
	note G#, 1
	octave 4
	note D#, 1
	note C#, 1
	note C_, 1
	octave 3
	note G#, 1
	note D#, 1
	octave 2
	note C#, 1
	octave 3
	note D#, 1
	note G#, 1
	octave 4
	note D#, 1
	note C#, 1
	note C_, 1
	octave 3
	note G#, 1
	note D#, 1
	octave 2
	note C_, 1
	octave 3
	note D#, 1
	note G#, 1
	octave 4
	note D#, 1
	note C#, 1
	note C_, 1
	octave 3
	note G#, 1
	note D#, 1
	octave 2
	note E_, 1
	note B_, 1
	octave 3
	note E_, 1
	note G#, 1
	note B_, 1
	octave 4
	note E_, 1
	octave 3
	note B_, 1
	octave 4
	note G#, 1
	octave 2
	note F#, 1
	octave 3
	note C#, 1
	note F#, 1
	note A#, 1
	octave 4
	note C#, 1
	note F#, 1
	note C#, 1
	note A#, 1
	dutycycle 2
	octave 5
	note G#, 1
	note D#, 1
	note D#, 1
	octave 4
	note G#, 1
	note G#, 1
	note D#, 1
	note D#, 1
	octave 3
	note G#, 1
	note G#, 1
	note D#, 1
	note D#, 1
	note G#, 1
	note G#, 1
	octave 4
	note D#, 1
	note G#, 1
	octave 5
	note D#, 1
	note G#, 1
	note C#, 1
	note C#, 1
	octave 4
	note G#, 1
	note G#, 1
	note C#, 1
	note C#, 1
	octave 3
	note G#, 1
	note G#, 1
	note C#, 1
	note C#, 1
	note G#, 1
	note G#, 1
	octave 4
	note C#, 1
	note G#, 1
	octave 5
	note C#, 1
	note G#, 1
	note D#, 1
	note D#, 1
	octave 4
	note G#, 1
	note G#, 1
	note D#, 1
	note D#, 1
	octave 3
	note G#, 1
	note G#, 1
	note D#, 1
	note D#, 1
	note G#, 1
	note G#, 1
	octave 4
	note D#, 1
	note G#, 1
	octave 5
	note D#, 1
	note G#, 1
	note C#, 1
	note C#, 1
	octave 4
	note G#, 1
	note G#, 1
	note C#, 1
	note C#, 1
	octave 3
	note G#, 1
	note G#, 1
	note C#, 1
	note C#, 1
	note G#, 1
	note G#, 1
	octave 4
	note C#, 1
	note G#, 1
	octave 5
	note C#, 5
	dutycycle 3
	intensity $95
	octave 3
	note G_, 8
	note A#, 8
	octave 4
	note C_, 8
	note C#, 8
	octave 3
	note G_, 8
	note A#, 8
	octave 4
	note C_, 8
	intensity $93
	note C_, 4
	intensity $91
	note C_, 2
	intensity $93
	note C_, 6
	intensity $91
	note C_, 2
	intensity $93
	note C_, 6
	intensity $91
	note C_, 2
	intensity $93
	note C_, 4
	intensity $95
	note C_, 10
	intensity $91
	note C#, 2
	notetype $8, $91
	note C#, 1
	note C#, 1
	note C#, 1
	octave 3
	notetype $C, $91
	note G#, 1
	octave 4
	note C#, 2
	octave 3
	note G#, 1
	octave 4
	note D#, 2
	notetype $8, $91
	note D#, 1
	note D#, 1
	note D#, 1
	octave 3
	notetype $C, $91
	note A#, 1
	octave 4
	note D#, 2
	octave 3
	note A#, 1
	octave 4
	note E_, 2
	notetype $8, $91
	note E_, 1
	note E_, 1
	note E_, 1
	octave 3
	notetype $C, $91
	note B_, 1
	octave 4
	note E_, 2
	octave 3
	note B_, 1
	octave 4
	note F#, 2
	notetype $8, $91
	note F#, 1
	note F#, 1
	note F#, 1
	notetype $C, $91
	note C#, 1
	note F#, 2
	note G_, 1
	intensity $78
	note G#, 10
	intensity $77
	note G#, 6
	intensity $91
	note __, 2
	octave 3
	note D#, 3
	intensity $93
	note D#, 5
	intensity $91
	note F_, 3
	intensity $93
	note F_, 7
	dutycycle 2
	intensity $91
	octave 5
	note G#, 1
	note D#, 1
	octave 6
	note C_, 1
	note C#, 1
	note D#, 1
	octave 5
	note D#, 1
	note G#, 1
	octave 6
	note D#, 1
	note C#, 1
	note C_, 1
	octave 5
	note G#, 1
	note D#, 1
	note C#, 1
	note C_, 1
	octave 4
	note G#, 1
	note D#, 1
	note C#, 1
	note C_, 1
	octave 3
	note G#, 1
	note D#, 1
	note G#, 1
	note D#, 1
	octave 4
	note C_, 1
	note C#, 1
	note D#, 1
	note G#, 1
	note A#, 1
	octave 5
	note C_, 3
	octave 3
	note D#, 3
	intensity $93
	note D#, 5
	intensity $91
	note G_, 3
	intensity $93
	note G_, 5
	intensity $91
	note G#, 3
	intensity $93
	note G#, 5
	intensity $91
	note A#, 2
	note A#, 1
	note A#, 2
	note D#, 2
	note D#, 3
	note D#, 1
	note D#, 2
	note F#, 2
	note F#, 3
	note F#, 1
	note F#, 2
	note G#, 2
	note G#, 3
	note G#, 1
	note G#, 2
	note A#, 2
	note A#, 2
	note A#, 1
	note A#, 1
	note A#, 2
	note G#, 1
	dutycycle 1
	intensity $A2
	octave 4
	note A#, 1
	intensity $A7
	note G#, 16
	note __, 5
	octave 2
	note G#, 2
	note C#, 2
	octave 1
	note A#, 2
	note G#, 2
	note D#, 2
	loopchannel 0, Music_Route209N_Ch1_loop

Music_Route209N_Ch2:
	dutycycle 2
	tone $0001
	octave 5
	notetype $C, $A1
	vibrato $08, $25
	note A#, 1
	note G#, 1
	note D#, 1
	note G#, 1
	note A#, 1
	note G#, 1
	note D#, 1
	note G#, 1
	note A#, 1
	note G#, 1
	note D#, 1
	note G#, 1
	note D#, 1
	octave 4
	note A#, 1
	note G#, 1
	note D#, 1
Music_Route209N_Ch2_loop:
	dutycycle 3
	octave 2
	notetype $3, $A7
	note G_, 1
	note G#, 15
	note D#, 16
	octave 3
	note C_, 8
	note C#, 8
	note D#, 8
	notetype $2, $A7
	note G_, 1
	notetype $E, $A7
	note G#, 5
	notetype $C, $A7
	note D#, 4
	note C_, 2
	note C#, 2
	note D#, 2
	note G#, 6
	note D#, 4
	octave 4
	note C_, 2
	note C#, 2
	note D#, 2
	octave 3
	note G#, 6
	note D#, 4
	note A#, 2
	note B_, 2
	note A#, 2
	intensity $A0
	note G#, 16
	note G#, 8
	intensity $A7
	note G#, 8
	intensity $A1
	note __, 2
	dutycycle 2
	intensity $A3
	octave 5
	note C_, 2
	note G#, 2
	note G_, 2
	note G#, 4
	note D#, 2
	note A#, 2
	octave 6
	note D#, 2
	octave 5
	note A#, 2
	note G#, 2
	note G_, 2
	note G#, 4
	note D#, 2
	note A#, 2
	octave 6
	note D#, 2
	octave 3
	note G#, 4
	note D#, 2
	octave 4
	note C_, 1
	note C#, 1
	note D#, 2
	note F_, 2
	note D#, 1
	note C#, 1
	note C_, 1
	octave 3
	note A#, 1
	note G#, 2
	note D#, 2
	note G#, 2
	note A#, 4
	octave 4
	note C#, 2
	note C_, 2
	octave 3
	note G#, 2
	note A#, 2
	note G#, 2
	note D#, 2
	octave 4
	note C_, 1
	note C#, 1
	note D#, 2
	note F_, 2
	note D#, 1
	note C#, 1
	note C_, 1
	octave 3
	note A#, 1
	note G#, 2
	note D#, 2
	note G#, 2
	note A#, 4
	octave 4
	note C_, 2
	octave 3
	note A#, 2
	note G#, 2
	note G_, 2
	note G#, 4
	intensity $A1
	note G_, 1
	note F_, 1
	intensity $A3
	note G_, 2
	note G#, 4
	intensity $A1
	note G_, 1
	note F_, 1
	intensity $A3
	note G_, 2
	note G#, 2
	octave 4
	note D#, 2
	note G#, 4
	dutycycle 0
	intensity $A4
	octave 3
	note D#, 2
	note G#, 2
	note G_, 2
	note G#, 2
	note D#, 2
	note G#, 2
	note G_, 4
	note G#, 2
	note A#, 2
	note B_, 4
	note A#, 2
	note B_, 2
	octave 4
	note C#, 4
	octave 3
	note B_, 2
	octave 4
	note C#, 2
	intensity $5E
	note D#, 4
	intensity $A0
	note D#, 6
	intensity $A7
	note D#, 6
	intensity $A1
	note __, 2
	note G#, 2
	note D#, 2
	note G#, 2
	intensity $A3
	note B_, 4
	intensity $A1
	note A#, 2
	note G#, 2
	intensity $A3
	note A#, 4
	intensity $A1
	note A#, 2
	intensity $A7
	note G#, 16
	note __, 12
	dutycycle 1
	intensity $A2
	note G#, 1
	note D#, 2
	note G#, 3
	octave 5
	note C_, 1
	note C#, 1
	note D#, 1
	note F_, 2
	note D#, 2
	note C#, 1
	note C_, 1
	octave 4
	note A#, 1
	note G#, 1
	note D#, 2
	note G#, 3
	octave 5
	note C#, 1
	note C_, 2
	octave 4
	note G#, 2
	note D#, 2
	note G#, 1
	note A#, 1
	note G#, 2
	note D#, 2
	note G#, 3
	octave 5
	note C_, 1
	note C#, 1
	note C_, 1
	octave 4
	note A#, 1
	note G#, 1
	note D#, 2
	note G#, 1
	octave 5
	note C_, 1
	note C#, 1
	note D#, 1
	note D#, 2
	octave 4
	note G#, 1
	note G#, 2
	octave 5
	note F_, 1
	note D#, 1
	note C_, 1
	octave 4
	note G#, 2
	note D#, 2
	octave 5
	note C#, 1
	note C_, 1
	octave 4
	note G#, 1
	dutycycle 2
	intensity $A1
	octave 5
	note A#, 1
	note G#, 1
	note D#, 1
	note G#, 1
	note A#, 1
	note G#, 1
	note D#, 1
	note G#, 1
	note A#, 1
	note G#, 1
	note D#, 1
	note G#, 1
	note D#, 1
	octave 4
	note A#, 1
	note G#, 1
	note D#, 1
	octave 5
	note A#, 1
	note G#, 1
	note C#, 1
	note G#, 1
	note A#, 1
	note G#, 1
	note C#, 1
	note G#, 1
	note A#, 1
	note G#, 1
	note C#, 1
	note G#, 1
	note C#, 1
	octave 4
	note A#, 1
	note G#, 1
	note D#, 1
	loopchannel 0, Music_Route209N_Ch2_loop

Music_Route209N_Ch3:
	notetype $C, $12
	note __, 16
Music_Route209N_Ch3_loop:
	octave 2
	notetype $E, $12
	note G#, 3
	notetype $6, $12
	note __, 1
	note G#, 7
	note __, 1
	note G_, 7
	note __, 1
	note G_, 7
	note __, 1
	note F_, 7
	note __, 1
	note F_, 7
	note __, 1
	note D#, 7
	note __, 1
	note D#, 7
	note __, 1
	note C#, 7
	note __, 1
	note C#, 7
	note __, 1
	note C_, 7
	note __, 1
	note C_, 7
	note __, 1
	note E_, 7
	note __, 1
	note E_, 7
	note __, 1
	note F#, 7
	note __, 1
	note F#, 7
	note __, 1
	octave 1
	notetype $C, $12
	note G#, 12
	note __, 4
	note G#, 12
	note __, 4
	note G#, 12
	note __, 4
	note G#, 12
	note __, 4
	note G#, 1
	note __, 1
	note G#, 1
	note __, 3
	note G#, 1
	note __, 1
	octave 2
	note C_, 1
	note __, 1
	note C_, 1
	note __, 3
	note C_, 1
	note __, 1
	note C#, 1
	note __, 1
	note C#, 1
	note __, 3
	note C#, 1
	note __, 1
	note D#, 1
	note __, 1
	note D#, 1
	note __, 3
	note D#, 1
	note __, 1
	octave 1
	note G#, 1
	note __, 1
	note G#, 1
	note __, 3
	note G#, 1
	note __, 1
	octave 2
	note C_, 1
	note __, 1
	note C_, 1
	note __, 3
	note C_, 1
	note __, 1
	note C#, 1
	note __, 1
	note C#, 1
	note __, 3
	note C#, 1
	note __, 1
	note C_, 1
	note __, 1
	note C_, 1
	note __, 3
	note C_, 1
	note __, 5
	note F_, 1
	note F_, 2
	note __, 5
	note E_, 1
	note E_, 2
	note __, 1
	note D#, 2
	note D#, 2
	note __, 2
	note D_, 2
	note __, 8
	note C#, 2
	note C#, 2
	note __, 1
	note G#, 1
	note __, 1
	octave 3
	note C#, 1
	octave 2
	note D#, 2
	note D#, 2
	note __, 1
	note A#, 1
	note __, 1
	octave 3
	note D#, 1
	octave 2
	note E_, 2
	note E_, 2
	note __, 1
	note B_, 1
	note __, 1
	octave 3
	note E_, 1
	octave 2
	note F#, 2
	note F#, 2
	note __, 1
	octave 3
	note C#, 1
	note __, 1
	note F#, 1
	octave 2
	note G#, 1
	octave 1
	note G#, 1
	note G#, 12
	octave 2
	note G#, 2
	octave 1
	note G#, 2
	note __, 1
	note G#, 7
	octave 2
	note C#, 4
	note D#, 2
	octave 1
	note G#, 2
	note __, 1
	note G#, 5
	note __, 8
	note G#, 2
	note __, 1
	note G#, 5
	note __, 5
	octave 2
	note D#, 1
	note __, 1
	note D#, 1
	octave 1
	notetype $6, $12
	note G#, 1
	note __, 1
	note G#, 1
	note __, 13
	octave 2
	note C_, 1
	note __, 1
	note C_, 1
	note __, 13
	note C#, 1
	note __, 1
	note C#, 1
	note __, 13
	note D#, 1
	note __, 1
	note D#, 1
	note __, 15
	note G#, 1
	note __, 1
	octave 1
	note G#, 1
	note __, 1
	note G#, 1
	note __, 3
	note G#, 1
	note __, 1
	octave 2
	note C_, 1
	note __, 1
	octave 1
	note G#, 1
	note __, 3
	octave 3
	note C_, 1
	note __, 1
	octave 2
	note C_, 1
	note __, 1
	note C_, 1
	note __, 3
	note D#, 1
	note __, 1
	note F#, 1
	note __, 1
	note D#, 1
	note __, 3
	octave 3
	note C#, 1
	note __, 1
	octave 2
	note C#, 1
	note __, 1
	note C#, 1
	note __, 3
	note C#, 1
	note __, 1
	note G#, 1
	note __, 1
	note F_, 1
	note __, 3
	octave 3
	note D#, 1
	note __, 1
	octave 2
	note D#, 1
	note __, 1
	note D#, 1
	note __, 3
	note D#, 1
	note __, 1
	note A#, 1
	note __, 1
	note G#, 1
	note __, 1
	octave 3
	note G#, 2
	note __, 2
	octave 4
	note D#, 2
	note __, 2
	note G#, 2
	note __, 2
	note A#, 2
	note __, 2
	octave 5
	note C_, 2
	note __, 2
	note D#, 2
	note __, 2
	note G#, 2
	note __, 2
	octave 6
	note C_, 2
	note __, 2
	octave 3
	note G#, 2
	note __, 2
	octave 4
	note F_, 2
	note __, 2
	note G#, 2
	note __, 2
	note A#, 2
	note __, 2
	octave 5
	note C#, 2
	note __, 2
	note F_, 2
	note __, 2
	note G#, 2
	note __, 2
	note A#, 2
	note __, 2
	loopchannel 0, Music_Route209N_Ch3_loop

Music_Route209N_Ch4:
	togglenoise 3
	notetype $C
	note C#, 2
	note C#, 2
	note C#, 2
	notetype $8
	note C#, 1
	note C#, 1
	note C#, 1
	note C#, 3
	note C#, 3
	note C#, 3
	note C#, 1
	note C#, 1
	note C#, 1
Music_Route209N_Ch4_loop:
	note C#, 3
	note C#, 3
	note B_, 3
	note C#, 1
	note C#, 1
	note C#, 1
	note C#, 3
	note C#, 3
	note B_, 3
	note C#, 1
	note C#, 1
	note C#, 1
	note C#, 3
	note C#, 3
	note B_, 3
	note C#, 1
	note C#, 1
	note C#, 1
	note C#, 3
	note C#, 3
	note B_, 3
	note C#, 1
	note C#, 1
	note C#, 1
	note C#, 3
	note C#, 3
	note B_, 3
	note C#, 1
	note C#, 1
	note C#, 1
	note C#, 3
	note C#, 3
	note B_, 3
	note C#, 1
	note C#, 1
	note C#, 1
	note C#, 3
	note C#, 3
	note B_, 3
	note C#, 1
	note C#, 1
	note C#, 1
	note C#, 3
	note C#, 3
	note B_, 3
	note C#, 1
	note C#, 1
	note C#, 1
	notetype $C
	note B_, 16
	note B_, 16
	note __, 16
	note __, 16
	note C#, 2
	note C#, 2
	note G#, 2
	note G_, 2
	note C#, 2
	note C#, 2
	note G#, 2
	note G_, 2
	note C#, 2
	note C#, 2
	note G#, 2
	note G_, 2
	note C#, 2
	note C#, 2
	note G#, 2
	note G_, 2
	note C#, 2
	note C#, 2
	note G#, 2
	note G_, 2
	note C#, 2
	note C#, 2
	note G#, 2
	note G_, 2
	note C#, 2
	note C#, 2
	note G#, 2
	note G_, 2
	note C#, 2
	note C#, 2
	note G#, 2
	note G_, 2
	note C#, 2
	note C#, 6
	note C#, 2
	note C#, 6
	note C#, 2
	note C#, 2
	note C#, 1
	note C#, 1
	note B_, 6
	note C#, 1
	note C#, 2
	note C#, 1
	note C#, 2
	note C#, 2
	note B_, 2
	notetype $8
	note C#, 1
	note C#, 1
	note C#, 1
	note C#, 3
	note C#, 3
	note B_, 3
	note C#, 1
	note C#, 1
	note C#, 1
	note C#, 3
	note C#, 3
	note B_, 3
	note C#, 1
	note C#, 1
	note C#, 1
	note C#, 3
	note C#, 3
	note B_, 6
	notetype $C
	note B_, 12
	note C#, 1
	note C#, 3
	note C#, 2
	note C#, 2
	note C#, 1
	note C#, 5
	note C#, 2
	note C#, 1
	note C#, 3
	note C#, 2
	note C#, 2
	note C#, 2
	note C#, 2
	note C#, 2
	note C#, 2
	note C#, 2
	note C#, 4
	note C#, 2
	note C#, 2
	note C#, 4
	note C#, 2
	note C#, 1
	note C#, 2
	note C#, 1
	note C#, 1
	note C#, 3
	note G#, 4
	note C#, 1
	note C#, 3
	note G#, 4
	note C#, 1
	note C#, 3
	note G#, 4
	note C#, 1
	note C#, 3
	note G#, 4
	note C#, 1
	note C#, 3
	note G#, 4
	note C#, 1
	note C#, 3
	note G#, 4
	note C#, 1
	note C#, 3
	note G#, 4
	note C#, 1
	note C#, 3
	note G#, 4
	note C#, 2
	note C#, 2
	note C#, 2
	notetype $8
	note C#, 1
	note C#, 1
	note C#, 1
	note C#, 3
	note C#, 3
	note C#, 3
	note C#, 1
	note C#, 1
	note C#, 1
	note C#, 3
	note C#, 3
	note C#, 3
	note C#, 1
	note C#, 1
	note C#, 1
	note C#, 3
	note C#, 3
	note C#, 3
	note C#, 1
	note C#, 1
	note C#, 1
	loopchannel 0, Music_Route209N_Ch4_loop
