Music_Route69:
	musicheader 4, 1, Music_Route69_Ch1
	musicheader 1, 2, Music_Route69_Ch2
	musicheader 1, 3, Music_Route69_Ch3
	musicheader 1, 4, Music_Route69_Ch4

Music_Route69_Ch1:
	tempo $8F
	volume $77
	stereopanning $f
Music_Route69_Ch1_loop:
	dutycycle 1
	tone $0001
	octave 2
	notetype $C, $A4
	note C_, 2
	note C_, 2
	note C_, 2
	note __, 2
	note C_, 2
	note __, 1
	note C_, 2
	note __, 1
	intensity $5F
	octave 1
	note A#, 2
	intensity $A4
	octave 2
	note C_, 2
	note C_, 2
	note C_, 2
	note __, 2
	note C_, 2
	note __, 1
	note C_, 2
	note __, 1
	intensity $5F
	note D#, 2
	intensity $A4
	note C_, 2
	note C_, 2
	note C_, 2
	note __, 2
	note C_, 2
	note __, 1
	note C_, 2
	note __, 1
	intensity $5F
	octave 1
	note A#, 2
	intensity $A4
	octave 2
	note D#, 2
	note D#, 2
	note D#, 2
	note __, 2
	note F_, 2
	note __, 1
	note F_, 2
	note __, 1
	intensity $B4
	note B_, 2
	octave 3
	note G_, 2
	note D#, 1
	note G_, 2
	note __, 1
	note D#, 4
	note C_, 2
	note D#, 2
	note F_, 2
	note G_, 2
	note G#, 1
	note G_, 2
	note __, 1
	note D#, 4
	note C_, 2
	note D#, 2
	note F_, 2
	note D_, 2
	note D#, 1
	note D_, 2
	note __, 1
	octave 2
	note A#, 4
	note G_, 2
	note A#, 2
	octave 3
	note D_, 2
	note D#, 2
	note C_, 1
	note F_, 2
	note C_, 1
	note D#, 2
	note A#, 2
	note __, 2
	note G#, 2
	note __, 2
	note G_, 2
	note D#, 1
	note G_, 2
	note __, 1
	note D#, 4
	note C_, 2
	note D#, 2
	note F_, 2
	note G_, 2
	note G#, 1
	note G_, 2
	note __, 1
	note D#, 4
	note C_, 2
	octave 2
	note A#, 2
	octave 3
	note C_, 2
	note D_, 2
	note C_, 1
	note D_, 2
	note __, 1
	note F_, 4
	note D#, 2
	octave 2
	note A#, 2
	octave 3
	note D_, 2
	note D#, 2
	note C_, 1
	note D_, 2
	note C_, 1
	note D#, 2
	note D_, 2
	note C_, 1
	note D#, 2
	note C_, 1
	octave 2
	note A#, 2
	octave 3
	note C_, 2
	octave 2
	note G#, 1
	octave 3
	note C_, 2
	note __, 1
	octave 2
	note G#, 2
	octave 3
	note C_, 1
	note D#, 3
	note __, 2
	note F_, 2
	note D_, 2
	note __, 1
	octave 2
	note A#, 2
	note __, 1
	intensity $B2
	note G_, 2
	note G_, 1
	note A#, 1
	note __, 1
	octave 3
	note D_, 1
	intensity $B4
	octave 2
	note G_, 1
	note __, 1
	note A#, 2
	octave 3
	note C_, 2
	octave 2
	note G#, 1
	octave 3
	note C_, 2
	note __, 1
	note G#, 4
	note D#, 2
	note C_, 1
	octave 2
	note G#, 1
	octave 3
	note D#, 2
	note F_, 2
	note D_, 2
	octave 2
	note A#, 2
	octave 3
	note D_, 2
	note F_, 1
	intensity $B1
	note D_, 1
	note __, 1
	note D_, 1
	note __, 1
	intensity $B4
	octave 2
	note A#, 1
	octave 3
	note D_, 1
	note D#, 1
	note C_, 2
	octave 2
	note G#, 1
	octave 3
	note C_, 2
	note __, 1
	octave 2
	note G#, 2
	octave 3
	note C_, 1
	note D#, 3
	note __, 2
	note F_, 2
	note D_, 2
	note __, 1
	octave 2
	note A#, 2
	note __, 1
	intensity $B2
	note G_, 2
	note G_, 1
	note A#, 1
	note __, 1
	octave 3
	note D_, 1
	intensity $B4
	octave 2
	note G_, 1
	note __, 1
	note A#, 2
	octave 3
	note C_, 2
	octave 2
	note G#, 1
	octave 3
	note C_, 2
	note __, 1
	note G#, 4
	note D#, 2
	note C_, 1
	octave 2
	note G#, 1
	octave 3
	note D#, 2
	note F_, 2
	note D_, 2
	octave 2
	note A#, 2
	octave 3
	note F_, 2
	note A#, 1
	intensity $B1
	note G#, 1
	note __, 1
	intensity $B4
	note F_, 1
	intensity $A4
	note C#, 1
	note D#, 1
	note F_, 1
	intensity $B2
	note F#, 1
	intensity $98
	note G_, 4
	intensity $95
	note G_, 4
	intensity $98
	note A#, 4
	intensity $95
	note A#, 4
	intensity $A8
	octave 4
	note D#, 4
	intensity $A5
	note D#, 4
	intensity $3F
	note G_, 8
	intensity $A4
	octave 2
	note C_, 2
	note C_, 2
	note C_, 2
	note __, 2
	note C_, 2
	note __, 1
	note C_, 2
	note __, 1
	intensity $5F
	octave 1
	note A#, 2
	intensity $A4
	octave 2
	note C_, 2
	note C_, 2
	note C_, 2
	note __, 2
	note C_, 2
	note __, 1
	note C_, 2
	note __, 1
	intensity $5F
	note D#, 2
	intensity $A4
	note C_, 2
	note C_, 2
	note C_, 2
	note __, 2
	note C_, 2
	note __, 1
	note C_, 2
	note __, 1
	intensity $5F
	octave 1
	note A#, 2
	intensity $A4
	octave 2
	note D#, 2
	note D#, 2
	note D#, 2
	note __, 2
	note F_, 2
	note __, 1
	note F_, 2
	note __, 1
	note F_, 1
	notetype $B, $A4
	note F_, 1
	notetype $1, $A4
	note __, 1
	loopchannel 0, Music_Route69_Ch1_loop

Music_Route69_Ch2:
	dutycycle 1
	stereopanning $f0
	tone $0002
	vibrato $00, $15
	octave 3
	notetype $C, $C4
	note C_, 2
	octave 2
	note A#, 1
	octave 3
	note D#, 2
	note __, 1
	note D_, 2
	note __, 2
	note D_, 2
	octave 2
	note A#, 2
	note F_, 2
	octave 3
	note C_, 2
	octave 2
	note A#, 1
	octave 3
	note D#, 2
	note __, 1
	note F_, 2
	note __, 2
	note D#, 2
	note D_, 2
	octave 2
	note A#, 2
	octave 3
	note C_, 2
	octave 2
	note A#, 1
	octave 3
	note D#, 2
	note __, 1
	note D_, 2
	note __, 2
	note D_, 2
	octave 2
	note A#, 2
	note F_, 2
	octave 3
	note C_, 2
	octave 2
	note A#, 1
	octave 3
	note D#, 2
	note __, 1
	note F_, 2
	note __, 2
	note D#, 2
	note D_, 2
	note D#, 2
Music_Route69_Ch2_loop:
	notetype $C, $C4
	octave 4
	note D#, 2
	note __, 1
	note D_, 2
	note __, 1
	note C_, 4
	octave 3
	note A#, 2
	octave 4
	note C_, 1
	octave 3
	note A#, 1
	octave 4
	notetype $9, $C4
	note D_, 2
	notetype $6, $C4
	note F#, 1
	note G_, 4
	note __, 2
	note F_, 4
	note __, 2
	note D#, 8
	note C_, 4
	note F_, 2
	note C_, 2
	note G_, 3
	note E_, 1
	note F_, 4
	note __, 2
	note D#, 4
	note __, 2
	note D_, 8
	note D#, 4
	note D_, 2
	octave 3
	note G#, 2
	note A#, 4
	octave 4
	note G_, 4
	note __, 2
	note F_, 4
	note __, 2
	note D#, 4
	note D_, 4
	octave 3
	note A#, 2
	note __, 2
	octave 4
	note C_, 4
	octave 3
	note B_, 4
	octave 4
	note D#, 4
	note __, 2
	note D_, 4
	note __, 2
	note C_, 8
	octave 3
	note A#, 4
	octave 4
	note C_, 2
	octave 3
	note A#, 2
	octave 4
	note D_, 3
	note F#, 1
	note G_, 4
	note __, 2
	note F_, 4
	note __, 2
	note D#, 8
	note C_, 4
	note D_, 2
	note C_, 2
	note D#, 3
	note C#, 1
	note D_, 4
	note __, 2
	note C_, 4
	note __, 2
	octave 3
	note A#, 8
	note G_, 4
	note __, 4
	note G#, 4
	note __, 4
	octave 4
	note C_, 4
	note __, 4
	note D_, 8
	note C_, 4
	octave 3
	note A#, 4
	note G_, 4
	note G#, 6
	note D#, 6
	octave 4
	note C_, 6
	octave 3
	note A#, 6
	note G#, 2
	note D#, 2
	octave 4
	note C_, 4
	octave 3
	note G_, 8
	note F_, 8
	intensity $C2
	note G_, 2
	intensity $C1
	note G#, 2
	note __, 2
	note G_, 2
	note __, 4
	intensity $C4
	note F_, 4
	note G#, 6
	note D#, 6
	octave 4
	note C_, 6
	octave 3
	note A#, 6
	note G#, 2
	note D#, 2
	note G#, 4
	note A#, 4
	note F_, 4
	intensity $C1
	octave 4
	note C_, 2
	note __, 2
	intensity $C4
	octave 3
	note G#, 4
	intensity $C2
	octave 4
	note D_, 2
	intensity $C1
	note C_, 2
	note __, 2
	octave 3
	note A#, 2
	note __, 2
	intensity $C4
	note G_, 2
	octave 4
	note C_, 4
	octave 3
	note G#, 6
	note D#, 6
	octave 4
	note C_, 6
	octave 3
	note A#, 6
	note G#, 2
	note D#, 2
	octave 4
	note C_, 4
	octave 3
	note G_, 8
	note F_, 8
	intensity $C2
	note G_, 2
	intensity $C1
	note G#, 2
	note __, 2
	note G_, 2
	note __, 4
	intensity $C4
	note F_, 4
	note G#, 6
	note D#, 6
	octave 4
	note C_, 6
	octave 3
	note A#, 6
	note G#, 2
	note D#, 2
	note G#, 4
	note A#, 4
	note F_, 4
	octave 4
	note D_, 4
	octave 3
	note A#, 4
	octave 4
	note A#, 2
	intensity $C1
	note F_, 2
	note __, 2
	note D_, 2
	note __, 2
	intensity $C4
	octave 3
	note A#, 2
	note G_, 3
	note B_, 1
	vibrato $10, $15
	octave 4
	notetype $F, $C8
	note C_, 8
	vibrato $00, $51
	notetype $C, $C7
	note C_, 6
	intensity $2D
	vibrato $00, $15
	octave 5
	note C_, 6
	intensity $C8
	note C_, 2
	intensity $C7
	vibrato $00, $31
	note C_, 4
	intensity $6C
	note C_, 4
	note __, 1
	intensity $C1
	vibrato $00, $15
	octave 3
	note D#, 1
	note D#, 1
	note D#, 1
	note D#, 1
	note __, 1
	note C_, 1
	note D#, 1
	note __, 1
	note D_, 1
	note D#, 1
	note __, 3
	intensity $6C
	note D_, 2
	note __, 1
	intensity $C1
	note D#, 1
	note D#, 1
	note D#, 1
	note D#, 1
	note __, 1
	note C_, 1
	note D#, 1
	note __, 1
	note D_, 1
	note D#, 1
	note __, 3
	intensity $6C
	note F_, 2
	note __, 1
	intensity $C1
	note D#, 1
	note D#, 1
	note D#, 1
	note D#, 1
	note __, 1
	note C_, 1
	note D#, 1
	note __, 1
	note D_, 1
	note D#, 1
	note __, 3
	intensity $6C
	note D_, 2
	note __, 1
	intensity $C1
	note D#, 1
	note D#, 1
	note D#, 1
	note D#, 1
	note __, 1
	note C_, 1
	note D#, 1
	note __, 1
	note D_, 1
	note D#, 1
	note __, 3
	intensity $6C
	note A#, 2
	note __, 1
	intensity $C1
	note D#, 1
	note D#, 1
	note D#, 1
	note D#, 1
	note __, 1
	note C_, 1
	note D#, 1
	note __, 1
	note D_, 1
	note D#, 1
	note __, 3
	intensity $6C
	note D_, 2
	note __, 1
	intensity $C1
	note D#, 1
	note D#, 1
	note D#, 1
	note D#, 1
	note __, 1
	note C_, 1
	note D#, 1
	note __, 1
	note D_, 1
	note D#, 1
	note __, 3
	intensity $6C
	note F_, 2
	note __, 1
	intensity $C1
	note G_, 1
	note G_, 1
	note G_, 1
	note G_, 1
	note __, 1
	note D#, 1
	note G_, 1
	note __, 1
	note F_, 1
	note G_, 1
	note __, 3
	intensity $6C
	note D#, 2
	intensity $C7
	note A#, 6
	note G#, 6
	intensity $C2
	note G_, 1
	note D#, 1
	intensity $C4
	note G_, 2
	loopchannel 0, Music_Route69_Ch2_loop

Music_Route69_Ch3:
Music_Route69_Ch3_loop:
	dutycycle 6
	octave 3
	notetype $C, $26
	note C_, 2
	note __, 2
	note C_, 2
	note __, 2
	note C_, 2
	octave 2
	note A#, 1
	octave 3
	note C_, 2
	note __, 1
	octave 2
	note A#, 2
	octave 3
	note C_, 2
	note __, 2
	note C_, 2
	note __, 2
	note C_, 2
	octave 2
	note A#, 1
	octave 3
	note C_, 2
	note __, 1
	note D#, 2
	note C_, 2
	note __, 2
	note C_, 2
	note __, 2
	note C_, 2
	octave 2
	note A#, 1
	octave 3
	note C_, 2
	note __, 1
	octave 2
	note A#, 2
	note G#, 2
	note __, 2
	note G#, 2
	note __, 2
	note A#, 2
	note G#, 1
	note A#, 3
	note B_, 2
	intensity $16
	octave 3
	note C_, 2
	note __, 1
	octave 2
	note G_, 2
	note __, 1
	octave 3
	note C_, 4
	octave 2
	note G_, 2
	octave 3
	note C_, 2
	note D_, 2
	note D#, 2
	note __, 1
	octave 2
	note A#, 2
	note __, 1
	octave 3
	note G_, 4
	octave 2
	note A#, 2
	octave 3
	note D#, 2
	note F_, 2
	note D_, 2
	note __, 1
	octave 2
	note A#, 2
	note __, 1
	octave 3
	note F_, 4
	note D#, 2
	note D_, 2
	note C_, 2
	octave 2
	note G#, 2
	note __, 1
	octave 3
	note C_, 2
	note __, 1
	octave 2
	note G#, 2
	note A#, 2
	note __, 2
	note A#, 2
	note B_, 2
	octave 3
	note C_, 2
	note __, 1
	octave 2
	note G_, 2
	note __, 1
	octave 3
	note C_, 4
	octave 2
	note G_, 2
	octave 3
	note C_, 2
	note D_, 2
	note D#, 2
	note __, 1
	octave 2
	note A#, 2
	note __, 1
	octave 3
	note G_, 4
	octave 2
	note A#, 2
	octave 3
	note D#, 2
	note F_, 2
	note D_, 2
	note __, 1
	octave 2
	note A#, 2
	note __, 1
	octave 3
	note F_, 4
	note D#, 2
	note D_, 2
	note C_, 2
	octave 2
	note G#, 2
	note __, 1
	octave 3
	note C_, 2
	note __, 1
	octave 2
	note G#, 2
	note A#, 2
	note __, 2
	note A#, 2
	note B_, 2
	octave 3
	note D#, 2
	octave 2
	note G#, 1
	octave 3
	note G#, 1
	note __, 2
	note D#, 2
	octave 2
	note G#, 1
	octave 3
	note G#, 1
	note __, 2
	note D#, 1
	octave 2
	note G#, 1
	octave 3
	note G#, 2
	note D_, 2
	octave 2
	note A#, 1
	octave 3
	note G_, 1
	note __, 2
	note D_, 2
	octave 2
	note A#, 1
	octave 3
	note G_, 1
	note __, 2
	note D_, 1
	octave 2
	note A#, 1
	octave 3
	note G_, 2
	note D#, 2
	octave 2
	note G#, 1
	octave 3
	note G#, 1
	note __, 2
	note D#, 2
	octave 2
	note G#, 1
	octave 3
	note G#, 1
	note __, 2
	note D#, 1
	octave 2
	note G#, 1
	octave 3
	note G#, 2
	note F_, 2
	octave 2
	note A#, 1
	octave 3
	note A#, 1
	note __, 2
	note F_, 2
	octave 2
	note A#, 1
	octave 3
	note A#, 1
	note __, 2
	note F_, 1
	octave 2
	note A#, 1
	octave 3
	note A#, 2
	note D#, 2
	octave 2
	note G#, 1
	octave 3
	note G#, 1
	note __, 2
	note D#, 2
	octave 2
	note G#, 1
	octave 3
	note G#, 1
	note __, 2
	note D#, 1
	octave 2
	note G#, 1
	octave 3
	note G#, 2
	note D_, 2
	octave 2
	note A#, 1
	octave 3
	note G_, 1
	note __, 2
	note D_, 2
	octave 2
	note A#, 1
	octave 3
	note G_, 1
	note __, 2
	note D_, 1
	octave 2
	note A#, 1
	octave 3
	note G_, 2
	note D#, 2
	octave 2
	note G#, 1
	octave 3
	note G#, 1
	note __, 2
	note D#, 2
	octave 2
	note G#, 1
	octave 3
	note G#, 1
	note __, 2
	note D#, 1
	octave 2
	note G#, 1
	octave 3
	note G#, 2
	note F_, 2
	octave 2
	note A#, 1
	octave 3
	note A#, 1
	note __, 2
	note F_, 2
	octave 2
	note A#, 1
	octave 3
	note A#, 1
	note __, 2
	note F_, 1
	octave 2
	note A#, 1
	octave 3
	note A#, 2
	note C_, 1
	octave 2
	note A#, 1
	octave 3
	note C_, 2
	octave 4
	note C_, 1
	note __, 1
	octave 3
	note C_, 1
	note G_, 1
	note __, 1
	note C_, 1
	octave 4
	note C_, 1
	note __, 1
	octave 3
	note G_, 1
	note C_, 1
	octave 4
	note C_, 2
	octave 3
	note C_, 1
	octave 2
	note A#, 1
	octave 3
	note C_, 2
	octave 4
	note C_, 1
	note __, 1
	octave 3
	note C_, 1
	note G_, 1
	note __, 1
	note C_, 1
	octave 4
	note C_, 1
	note __, 1
	octave 3
	note G_, 1
	octave 2
	note A#, 1
	note B_, 2
	intensity $26
	octave 3
	note C_, 2
	note __, 2
	note C_, 2
	note __, 2
	note C_, 2
	octave 2
	note A#, 1
	octave 3
	note C_, 2
	note __, 1
	octave 2
	note A#, 2
	octave 3
	note C_, 2
	note __, 2
	note C_, 2
	note __, 2
	note C_, 2
	octave 2
	note A#, 1
	octave 3
	note C_, 2
	note __, 1
	note D#, 2
	note C_, 2
	note __, 2
	note C_, 2
	note __, 2
	note C_, 2
	octave 2
	note A#, 1
	octave 3
	note C_, 2
	note __, 1
	octave 2
	note A#, 2
	note G#, 2
	note __, 2
	note G#, 2
	note __, 2
	note A#, 2
	note G#, 1
	note A#, 3
	note B_, 1
	notetype $B, $26
	note B_, 1
	notetype $1, $26
	note __, 1
	loopchannel 0, Music_Route69_Ch3_loop

Music_Route69_Ch4:
	togglenoise 2
	notetype $C
	note D#, 2
	note __, 2
	note D#, 2
	note __, 2
	note D#, 2
	note G_, 1
	note D#, 2
	note G_, 1
	note D#, 2
	note D#, 2
	note __, 2
	note D#, 2
	note __, 2
	note D#, 2
	note G_, 1
	note D#, 2
	note G_, 1
	note D#, 2
	note D#, 2
	note G_, 1
	note __, 1
	note D#, 2
	note G_, 1
	note __, 1
	note D#, 2
	note G_, 1
	note D#, 2
	note G_, 1
	note D#, 2
	note D#, 2
	note G_, 1
	note __, 1
	note D#, 2
	note G_, 1
	note __, 1
	note G#, 2
	note D#, 2
	note G#, 2
	note D#, 2
Music_Route69_Ch4_loop:
	notetype $C
	note G#, 2
	note D#, 2
	note G#, 2
	note __, 1
	note D#, 1
	note __, 2
	note D#, 2
	note G#, 2
	note D#, 2
	note D#, 2
	note D#, 2
	note G#, 2
	note __, 1
	note D#, 1
	note __, 2
	note D#, 2
	note G#, 2
	note D#, 2
	note D#, 2
	note D#, 2
	note G#, 2
	note __, 1
	note D#, 1
	note __, 2
	note D#, 2
	note G#, 2
	note D#, 2
	note D#, 2
	note D#, 2
	note G#, 2
	note __, 1
	note D#, 1
	note G#, 2
	note D#, 1
	note __, 1
	note G#, 2
	note D#, 1
	note __, 1
	note G#, 2
	note D#, 2
	note G#, 2
	note __, 1
	note D#, 1
	note __, 2
	note D#, 2
	note G#, 2
	note D#, 2
	note D#, 2
	note D#, 2
	note G#, 2
	note __, 1
	note D#, 1
	note __, 2
	note D#, 2
	note G#, 2
	note D#, 2
	note D#, 2
	note D#, 2
	note G#, 2
	note __, 1
	note D#, 1
	note __, 2
	note D#, 2
	note D#, 2
	note G#, 2
	note D#, 2
	note G#, 2
	note D#, 2
	note G#, 2
	note D#, 2
	note G#, 2
	note G#, 2
	note G#, 2
	note G#, 2
	note D#, 2
	note G#, 2
	note __, 1
	note D#, 1
	note __, 2
	note D#, 2
	note G#, 2
	note D#, 2
	note G#, 2
	note D#, 1
	note D#, 1
	note G#, 2
	note D#, 1
	note D#, 1
	note G#, 2
	note D#, 1
	note G#, 2
	note D#, 1
	note G#, 2
	note G#, 2
	note D#, 2
	note G#, 2
	note __, 1
	note D#, 1
	note __, 2
	note D#, 2
	note G#, 2
	note D#, 2
	note G#, 2
	note D#, 1
	note D#, 1
	note G#, 2
	note D#, 1
	note D#, 1
	note G#, 2
	note D#, 1
	note G#, 1
	note __, 1
	note D#, 1
	note G#, 2
	note G#, 2
	note D#, 2
	note G#, 2
	note __, 1
	note D#, 1
	note __, 2
	note D#, 2
	note G#, 2
	note D#, 2
	note G#, 2
	note D#, 1
	note D#, 1
	note G#, 2
	note D#, 1
	note D#, 1
	note G#, 2
	note D#, 1
	note G#, 2
	note D#, 1
	note G#, 2
	note G#, 2
	note D#, 2
	note G#, 2
	note __, 1
	note D#, 1
	note __, 2
	note D#, 2
	note G#, 2
	note D#, 2
	note G#, 2
	note D#, 1
	note D#, 1
	note G#, 2
	note D#, 1
	note D#, 1
	note G#, 2
	note D#, 1
	note G#, 1
	note __, 1
	note D#, 1
	note G#, 2
	note D#, 2
	note D#, 2
	note G#, 2
	note __, 1
	note D#, 1
	note __, 2
	note D#, 2
	note G#, 2
	note D#, 2
	note D#, 2
	note D#, 2
	note G#, 2
	note __, 1
	note D#, 1
	note __, 2
	note D#, 2
	note G#, 2
	note D#, 2
	note D#, 2
	note __, 2
	note D#, 2
	note __, 2
	note D#, 2
	note G_, 1
	note D#, 2
	note G_, 1
	note D#, 2
	note D#, 2
	note __, 2
	note D#, 2
	note __, 2
	note D#, 2
	note G_, 1
	note D#, 2
	note G_, 1
	note D#, 2
	note D#, 2
	note __, 2
	note D#, 2
	note __, 2
	note D#, 2
	note G_, 1
	note D#, 2
	note G_, 1
	note D#, 2
	note D#, 2
	note __, 2
	note D#, 2
	note __, 2
	note D#, 2
	note G_, 1
	note D#, 2
	note G_, 1
	note D#, 1
	note D#, 1
	note D#, 2
	note G_, 1
	note __, 1
	note D#, 2
	note G_, 1
	note __, 1
	note D#, 2
	note G_, 1
	note D#, 2
	note G_, 1
	note D#, 2
	note D#, 2
	note G_, 1
	note __, 1
	note D#, 2
	note G_, 1
	note __, 1
	note D#, 2
	note G_, 1
	note D#, 2
	note G_, 1
	note D#, 2
	note D#, 2
	note G_, 1
	note __, 1
	note D#, 2
	note G_, 1
	note __, 1
	note D#, 2
	note G_, 1
	note D#, 2
	note G_, 1
	note D#, 2
	note G#, 2
	note __, 4
	note G#, 2
	note F_, 1
	note G_, 1
	note G_, 1
	note __, 1
	note G#, 1
	note D#, 1
	note G_, 1
	note __, 1
	loopchannel 0, Music_Route69_Ch4_loop

