Music_Route62:
	musicheader 4, 1, Music_Route62_Ch1
	musicheader 1, 2, Music_Route62_Ch2
	musicheader 1, 3, Music_Route62_Ch3
	musicheader 1, 4, Music_Route62_Ch4

Music_Route62_Ch1:
	tempo $8D
	volume $77
	stereopanning $f
	dutycycle 1
	tone $0002
	vibrato $10, $26
	octave 3
	notetype $C, $A3
	note E_, 2
	note __, 2
	note E_, 2
	note C#, 2
	note __, 2
	note C#, 2
	intensity $A5
	note E_, 4
	intensity $A3
	note E_, 2
	note __, 2
	note E_, 2
	note C#, 2
	note __, 2
	note C#, 2
	intensity $B5
	note D_, 4
Music_Route62_Ch1_loop:
	notetype $C, $B5
	octave 3
	note E_, 4
	octave 2
	note A_, 2
	octave 3
	note C#, 4
	octave 2
	note A_, 2
	octave 3
	note C#, 2
	octave 2
	note A_, 2
	octave 3
	note D_, 4
	octave 2
	note G_, 2
	octave 3
	note D_, 4
	octave 2
	note G_, 2
	octave 3
	note D_, 2
	note E_, 2
	note C#, 4
	octave 2
	note F#, 2
	note A_, 4
	note F#, 2
	note A_, 2
	note F#, 2
	octave 3
	note C#, 4
	octave 2
	note F#, 2
	note A_, 4
	note F#, 2
	note A_, 2
	note F#, 2
	note G_, 4
	note B_, 2
	octave 3
	note D_, 4
	octave 2
	note G_, 2
	note B_, 2
	note G_, 2
	octave 3
	note D_, 4
	octave 2
	note G_, 2
	octave 3
	note D_, 6
	note E_, 4
	note E_, 4
	octave 2
	note A_, 2
	octave 3
	note C#, 4
	octave 2
	note A_, 2
	octave 3
	note C#, 2
	octave 2
	note A_, 2
	octave 3
	note E_, 4
	octave 2
	note A_, 2
	octave 3
	note C#, 8
	note __, 2
	note D_, 4
	octave 2
	note B_, 2
	octave 3
	note G_, 8
	note __, 2
	octave 2
	note B_, 4
	octave 3
	note D_, 2
	note G_, 4
	note F#, 2
	note E_, 2
	note D_, 2
	note C#, 4
	octave 2
	note A_, 2
	octave 3
	note E_, 8
	note __, 2
	note E_, 2
	note C#, 4
	note E_, 4
	note C#, 2
	octave 2
	note G_, 2
	intensity $B3
	note A_, 2
	intensity $B5
	note A_, 6
	note A_, 6
	note A_, 4
	note G_, 6
	note G_, 6
	note G_, 2
	note F#, 8
	note F#, 6
	note F#, 2
	note F#, 8
	note F#, 6
	note F#, 4
	note A_, 4
	note E_, 2
	note A_, 4
	note E_, 2
	octave 3
	note C#, 2
	octave 2
	note A_, 2
	note G_, 4
	note D_, 2
	note B_, 4
	note D_, 2
	octave 3
	note D_, 2
	note C#, 2
	octave 2
	note F#, 4
	note C#, 2
	note A_, 4
	note F#, 2
	note A_, 2
	octave 3
	note C#, 2
	octave 2
	note B_, 6
	octave 3
	note D_, 6
	note E_, 4
	loopchannel 0, Music_Route62_Ch1_loop

Music_Route62_Ch2:
	dutycycle 1
	stereopanning $f0
	tone $0001
	vibrato $10, $22
	octave 3
	notetype $C, $C3
	note A_, 2
	note __, 4
	intensity $C1
	note A_, 1
	note A_, 1
	intensity $C3
	note A_, 1
	note __, 1
	note A_, 2
	note __, 4
	note A_, 2
	note __, 4
	intensity $C1
	note A_, 1
	note A_, 1
	intensity $C3
	note A_, 1
	note __, 1
	note A_, 2
	intensity $C5
	note E_, 1
	note F#, 1
	note G_, 1
	note G#, 1
	note A_, 6
	note __, 2
Music_Route62_Ch2_loop:
	notetype $C, $C5
	octave 3
	note __, 2
	note E_, 2
	note A_, 2
	note __, 1
	octave 4
	note C#, 1
	note D_, 4
	note __, 2
	note E_, 6
	note D_, 4
	note C#, 2
	intensity $C2
	octave 3
	note A_, 1
	octave 4
	note F#, 1
	note __, 1
	note F#, 1
	intensity $C5
	note C#, 4
	octave 3
	note B_, 4
	note A_, 2
	octave 4
	note C#, 2
	intensity $C2
	octave 3
	note A_, 1
	octave 4
	note F#, 1
	note __, 1
	note F#, 1
	intensity $C5
	note C#, 8
	note __, 2
	octave 3
	note G_, 2
	note B_, 2
	octave 4
	note C#, 2
	note D_, 2
	note G_, 3
	note F#, 3
	note G_, 2
	note D_, 3
	octave 3
	note B_, 3
	octave 4
	note D_, 2
	note G_, 3
	note F#, 3
	note D_, 2
	note C#, 2
	intensity $C2
	octave 3
	note E_, 1
	note A_, 1
	note __, 1
	note A_, 1
	intensity $C5
	octave 4
	note E_, 8
	note __, 2
	note E_, 2
	intensity $C2
	octave 3
	note G_, 1
	intensity $C5
	octave 4
	note G_, 1
	note __, 1
	intensity $C2
	note C#, 1
	intensity $C5
	note A_, 4
	note D_, 2
	note C#, 2
	octave 3
	note A_, 2
	note G_, 2
	note B_, 2
	octave 4
	note C#, 2
	note D_, 2
	note G_, 3
	note F#, 3
	note G_, 2
	note B_, 3
	note A_, 3
	note G_, 2
	note D_, 3
	note G_, 3
	note G#, 2
	note A_, 2
	intensity $C2
	note C#, 1
	note E_, 1
	note __, 1
	note E_, 1
	intensity $C5
	note G_, 4
	note F#, 2
	note E_, 2
	note D_, 2
	note C#, 6
	intensity $C7
	octave 3
	note A_, 8
	note __, 2
	intensity $C5
	note C#, 6
	note E_, 6
	note C#, 4
	octave 2
	note B_, 6
	octave 3
	note D_, 6
	octave 2
	note B_, 2
	octave 3
	note C#, 2
	note F#, 6
	note C#, 6
	octave 2
	note B_, 2
	note A_, 4
	octave 3
	note C#, 4
	note F#, 4
	octave 2
	note A_, 2
	note B_, 2
	octave 3
	note C#, 2
	intensity $C7
	note E_, 8
	intensity $4F
	vibrato $00, $35
	note E_, 8
	intensity $C7
	vibrato $10, $24
	note G_, 8
	intensity $4F
	vibrato $00, $35
	note G_, 8
	intensity $C8
	vibrato $10, $24
	note A_, 2
	intensity $C7
	note A_, 6
	intensity $7F
	vibrato $00, $35
	note A_, 6
	intensity $C6
	vibrato $00, $33
	note A_, 6
	note __, 2
	intensity $C8
	vibrato $10, $24
	note B_, 3
	intensity $C7
	vibrato $00, $33
	note B_, 5
	intensity $5E
	note B_, 2
	intensity $C5
	vibrato $10, $22
	octave 4
	note C#, 6
	note __, 2
	loopchannel 0, Music_Route62_Ch2_loop

Music_Route62_Ch3:
	dutycycle 9
	octave 3
	notetype $C, $19
	note E_, 2
	note __, 1
	octave 2
	note A_, 2
	note __, 1
	octave 3
	note E_, 2
	octave 2
	note A_, 2
	octave 3
	note E_, 2
	octave 2
	note A_, 1
	note __, 1
	note A_, 2
	octave 3
	note E_, 2
	note __, 1
	octave 2
	note A_, 2
	note __, 1
	octave 3
	note E_, 2
	octave 2
	note A_, 2
	octave 3
	note E_, 2
	note D_, 2
	note E_, 2
Music_Route62_Ch3_loop:
	notetype $C, $19
	note C#, 3
	note A_, 3
	note E_, 2
	octave 4
	note C#, 2
	octave 3
	note A_, 2
	note C#, 2
	note E_, 2
	note D_, 3
	note G_, 3
	note D_, 2
	note B_, 2
	note G_, 2
	note D_, 2
	note E_, 2
	note C#, 3
	note F#, 3
	note C#, 2
	note F#, 2
	note C#, 2
	octave 2
	note B_, 2
	octave 3
	note C#, 2
	note C#, 3
	note F#, 3
	note C#, 2
	note A_, 2
	note F#, 2
	note E_, 2
	note C#, 2
	note D_, 3
	note G_, 3
	note D_, 2
	note B_, 2
	note G_, 2
	note D_, 2
	note G_, 2
	octave 4
	note D_, 2
	octave 3
	note B_, 2
	note G_, 2
	note D_, 2
	note B_, 2
	note G_, 2
	note D_, 2
	note G_, 2
	note A_, 3
	octave 2
	note A_, 3
	octave 3
	note E_, 4
	octave 2
	note A_, 2
	octave 3
	note C#, 2
	note E_, 2
	note A_, 3
	octave 2
	note A_, 3
	octave 3
	note E_, 4
	octave 4
	note C#, 2
	octave 3
	note A_, 2
	note E_, 2
	note G_, 3
	note D_, 3
	note G_, 4
	note D_, 2
	note G_, 2
	note D_, 2
	octave 4
	note D_, 2
	octave 3
	note B_, 3
	note __, 1
	note G_, 4
	note D_, 2
	note G_, 2
	note D_, 2
	note E_, 3
	note C#, 3
	octave 4
	note C#, 4
	octave 3
	note E_, 2
	note A_, 2
	note E_, 2
	octave 4
	note C#, 3
	octave 3
	note C#, 3
	note A_, 4
	note C#, 2
	note D_, 4
	note C#, 3
	note A_, 3
	note E_, 4
	note C#, 2
	note A_, 2
	note E_, 2
	note D_, 3
	note G_, 3
	note D_, 4
	octave 2
	note B_, 2
	octave 3
	note E_, 2
	note D_, 2
	note C#, 3
	note F#, 3
	note C#, 4
	octave 2
	note B_, 2
	octave 3
	note F#, 2
	note C#, 2
	note C#, 3
	note F#, 3
	note C#, 4
	octave 2
	note B_, 2
	octave 3
	note E_, 2
	note C#, 2
	note E_, 3
	note A_, 3
	note E_, 4
	note C#, 2
	note A_, 2
	note E_, 2
	note D_, 3
	note G_, 3
	note D_, 4
	note B_, 2
	note E_, 2
	note D_, 2
	note C#, 3
	note F#, 3
	note C#, 4
	note A_, 2
	note F#, 2
	note C#, 2
	note D_, 3
	note G_, 3
	note D_, 4
	octave 2
	note B_, 2
	octave 3
	note E_, 2
	note F#, 2
	loopchannel 0, Music_Route62_Ch3_loop

Music_Route62_Ch4:
	togglenoise 0
	notetype $C
	note G#, 2
	note G_, 2
	note B_, 2
	note G#, 1
	note G#, 1
	note G#, 2
	note G#, 2
	note G_, 2
	note B_, 2
	note G#, 2
	note G_, 2
	note B_, 2
	note G#, 1
	note G#, 1
	note G#, 2
	note G#, 2
	note A#, 2
	note B_, 2
Music_Route62_Ch4_loop:
	notetype $C
	note A#, 2
	note B_, 2
	note G#, 2
	note B_, 2
	note __, 2
	note B_, 2
	note G#, 2
	note B_, 2
	note B_, 2
	note B_, 2
	note G#, 2
	note B_, 2
	note __, 2
	note B_, 2
	note G#, 2
	note B_, 2
	note A#, 2
	note B_, 2
	note G#, 2
	note A#, 2
	note __, 2
	note B_, 2
	note G#, 2
	note B_, 2
	note A#, 2
	note B_, 2
	note G#, 2
	note A#, 2
	note __, 2
	note B_, 2
	note A#, 2
	note B_, 2
	loopchannel 0, Music_Route62_Ch4_loop

