Music_Route206:
	musicheader 4, 1, Music_Route206_Ch1
	musicheader 1, 2, Music_Route206_Ch2
	musicheader 1, 3, Music_Route206_Ch3
	musicheader 1, 4, Music_Route206_Ch4
	
Music_Route206_Ch1:
	tempo $A0
	volume $77
	stereopanning $77
	dutycycle 2
	octave 4
	notetype $8, $B1
	note B_, 1
	note __, 1
	note A_, 1
	note __, 1
	note G#, 1
	note __, 1
	note E_, 1
	note __, 1
	octave 3
	note B_, 1
	note __, 1
	note A_, 1
	note __, 1
	note G#, 1
	note __, 1
	note E_, 1
	note __, 1
	octave 2
	note B_, 1
	note __, 1
	dutycycle 3
	intensity $B5
	octave 3
	note E_, 12
	note F#, 12
	note G_, 12
	note A_, 12
	notetype $C, $B0
	note B_, 12
	intensity $B5
	note B_, 8
	dutycycle 2
	octave 4
	notetype $8, $B1
	note B_, 1
	intensity $81
	note B_, 1
	intensity $B1
	note A_, 1
	intensity $81
	note A_, 1
	intensity $B1
	note G#, 1
	intensity $81
	note G#, 1
	intensity $B1
	note E_, 1
	intensity $81
	note E_, 1
	intensity $B1
	octave 3
	note B_, 1
	intensity $81
	note B_, 1
	intensity $B1
	note A_, 1
	intensity $81
	note A_, 1
	intensity $B1
	note G#, 1
	intensity $81
	note G#, 1
	intensity $B1
	note E_, 1
	intensity $81
	note E_, 1
	intensity $B1
	octave 2
	note B_, 1
	intensity $81
	note B_, 1
Music_Route206_Ch1_loop:
	dutycycle 1
	intensity $B7
	octave 3
	note B_, 10
	intensity $B2
	octave 4
	note C#, 2
	intensity $B5
	octave 3
	note B_, 4
	octave 4
	note C#, 4
	note D#, 4
	note F#, 8
	intensity $B2
	note E_, 2
	octave 3
	note B_, 2
	intensity $B7
	note G#, 12
	intensity $B5
	octave 4
	note C#, 10
	intensity $B2
	note E_, 2
	intensity $B5
	note D#, 4
	note E_, 4
	note F#, 4
	note A_, 8
	intensity $B2
	note G#, 2
	note E_, 2
	intensity $B7
	octave 3
	note B_, 12
	intensity $B5
	octave 4
	note D#, 4
	note F#, 4
	note A_, 4
	intensity $B2
	note G#, 2
	note D#, 2
	note C_, 2
	intensity $B5
	octave 3
	note G#, 6
	octave 4
	note C#, 4
	note E_, 4
	note G_, 4
	intensity $B2
	note F#, 2
	note C#, 2
	octave 3
	note G#, 2
	intensity $B5
	note F#, 4
	intensity $B2
	note G#, 2
	intensity $B5
	note A_, 8
	intensity $B2
	note C#, 2
	note E_, 2
	intensity $B5
	note A_, 4
	note B_, 4
	octave 4
	note F#, 4
	note B_, 9
	notetype $C, $40
	note B_, 1
	intensity $60
	note B_, 1
	intensity $80
	note B_, 1
	intensity $A0
	note B_, 1
	intensity $B0
	note B_, 4
	intensity $B2
	note B_, 2
	intensity $B7
	octave 3
	note E_, 8
	note F#, 8
	notetype $8, $B5
	note G#, 4
	intensity $B2
	note E_, 2
	intensity $B7
	octave 2
	note B_, 12
	intensity $B5
	note B_, 4
	intensity $B2
	note B_, 2
	intensity $B7
	octave 4
	note E_, 12
	note F#, 8
	intensity $B2
	note E_, 2
	note F#, 2
	note A_, 2
	note G#, 2
	note E_, 2
	intensity $B7
	octave 3
	note B_, 12
	intensity $B5
	note B_, 6
	intensity $B0
	octave 4
	note E_, 10
	intensity $B5
	note E_, 8
	intensity $B2
	note E_, 2
	note A_, 2
	note G#, 2
	note E_, 2
	octave 3
	note G_, 2
	octave 4
	note E_, 2
	note F#, 2
	octave 3
	note A_, 2
	octave 4
	note F#, 2
	note G_, 2
	octave 3
	note B_, 2
	octave 4
	note G_, 2
	note C_, 2
	note A_, 2
	octave 5
	note C_, 2
	dutycycle 3
	octave 4
	notetype $6, $B1
	note B_, 1
	octave 5
	note C#, 1
	octave 4
	note B_, 1
	octave 5
	note C#, 1
	octave 4
	note B_, 1
	octave 5
	note C#, 1
	octave 4
	note B_, 1
	octave 5
	note C#, 1
	octave 4
	note B_, 1
	octave 5
	note C#, 1
	octave 4
	note B_, 1
	octave 5
	note C#, 1
	octave 4
	note B_, 1
	octave 5
	note C#, 1
	octave 4
	note B_, 1
	octave 5
	note C#, 1
	octave 4
	note B_, 1
	octave 5
	note C#, 1
	octave 4
	note B_, 1
	octave 5
	note C#, 1
	octave 4
	note B_, 1
	octave 5
	note C#, 1
	octave 4
	note B_, 1
	octave 5
	note C#, 1
	octave 4
	note B_, 1
	octave 5
	note C#, 1
	octave 4
	note B_, 1
	octave 5
	note C#, 1
	octave 4
	note B_, 1
	octave 5
	note C#, 1
	octave 4
	note B_, 1
	octave 5
	note C#, 1
	dutycycle 1
	intensity $B5
	octave 4
	note B_, 8
	dutycycle 2
	notetype $8, $B1
	note B_, 1
	note __, 1
	note A_, 1
	note __, 1
	note G#, 1
	note __, 1
	note E_, 1
	note __, 1
	octave 3
	note B_, 1
	note __, 1
	note A_, 1
	note __, 1
	note G#, 1
	note __, 1
	note E_, 1
	note __, 1
	octave 2
	note B_, 1
	note __, 1
	loopchannel 0, Music_Route206_Ch1_loop

Music_Route206_Ch2:
	notetype $8, $00
	note __, 1
	dutycycle 2
	intensity $81
	octave 4
	note B_, 1
	note __, 1
	note A_, 1
	note __, 1
	note G#, 1
	note __, 1
	note E_, 1
	note __, 1
	octave 3
	note B_, 1
	note __, 1
	note A_, 1
	note __, 1
	note G#, 1
	note __, 1
	note E_, 1
	note __, 1
	octave 2
	note B_, 1
	dutycycle 1
	octave 4
	notetype $4, $81
	note E_, 1
	note F#, 1
	note E_, 1
	note F#, 1
	note E_, 1
	note F#, 1
	intensity $84
	note E_, 6
	intensity $82
	octave 3
	note E_, 4
	note B_, 4
	octave 4
	note E_, 4
	intensity $84
	note F#, 8
	octave 3
	note B_, 8
	octave 4
	note D#, 8
	intensity $81
	note G_, 1
	note A_, 1
	note G_, 1
	note A_, 1
	note G_, 1
	note A_, 1
	intensity $84
	note G_, 6
	octave 3
	note G_, 4
	octave 4
	note C_, 4
	note G_, 4
	note A_, 8
	note D_, 8
	note A_, 8
	note __, 8
	intensity $81
	octave 5
	note F#, 1
	note E_, 1
	note F#, 1
	note E_, 1
	intensity $82
	octave 4
	note E_, 4
	octave 3
	note B_, 4
	octave 4
	note E_, 4
	intensity $85
	note G_, 8
	intensity $81
	octave 5
	note F#, 1
	note E_, 1
	note F#, 1
	note E_, 1
	intensity $82
	octave 3
	note E_, 4
	note B_, 4
	octave 4
	note E_, 4
	intensity $85
	note G#, 12
	note __, 12
	octave 3
	notetype $C, $87
	note A_, 8
Music_Route206_Ch2_loop:
	dutycycle 1
	notetype $C, $87
	intensity $87
	octave 3
	note __, 4
	note D_, 4
	note F#, 4
	octave 5
	note C#, 4
	octave 4
	note B_, 4
	dutycycle 2
	notetype $8, $82
	note B_, 2
	note A_, 2
	note G#, 2
	note E_, 2
	octave 3
	note B_, 2
	note A_, 2
	note G#, 2
	note E_, 2
	octave 2
	note B_, 2
	note __, 6
	dutycycle 1
	intensity $87
	octave 3
	note D_, 6
	note F#, 6
	octave 5
	note C#, 6
	octave 4
	note B_, 6
	dutycycle 2
	intensity $82
	note B_, 2
	note A_, 2
	note G#, 2
	note E_, 2
	octave 3
	note B_, 2
	note A_, 2
	note G#, 2
	note E_, 2
	octave 2
	note B_, 2
	dutycycle 1
	intensity $85
	octave 3
	note G#, 4
	octave 4
	note C_, 4
	note D#, 4
	note C_, 2
	octave 3
	note G#, 2
	note D#, 2
	note C_, 6
	note E_, 4
	note G#, 4
	octave 4
	note C#, 4
	intensity $81
	octave 3
	note A#, 2
	note A#, 2
	note C#, 2
	intensity $85
	octave 2
	note A#, 4
	intensity $81
	note A#, 2
	intensity $85
	note A_, 6
	note E_, 6
	note A_, 6
	note A_, 6
	dutycycle 2
	intensity $81
	note E_, 1
	note F#, 1
	note A_, 1
	note B_, 1
	octave 3
	note E_, 1
	note F_, 1
	intensity $71
	note E_, 1
	note F_, 1
	note A_, 1
	note B_, 1
	octave 4
	note E_, 1
	note F_, 1
	intensity $61
	note E_, 1
	note F_, 1
	note A_, 1
	note B_, 1
	octave 5
	note E_, 1
	note F#, 1
	intensity $51
	octave 4
	note B_, 1
	octave 5
	note E_, 1
	note F#, 1
	intensity $41
	note A_, 1
	note B_, 1
	octave 6
	note E_, 1
	dutycycle 1
	intensity $87
	octave 3
	note C_, 12
	dutycycle 2
	intensity $61
	octave 4
	note D_, 1
	note F#, 1
	note A_, 1
	octave 5
	note D_, 1
	note F#, 1
	note A_, 1
	octave 4
	note F#, 1
	note A_, 1
	octave 5
	note D_, 1
	note F#, 1
	note A_, 1
	octave 6
	note D_, 1
	note E_, 1
	octave 5
	note B_, 1
	note A_, 1
	note G#, 1
	note E_, 1
	octave 4
	note B_, 1
	note A_, 1
	note G#, 1
	note E_, 1
	octave 3
	note B_, 1
	note A_, 1
	note G#, 1
	note E_, 1
	octave 2
	note B_, 1
	note A_, 1
	note B_, 1
	octave 3
	note E_, 1
	note G#, 1
	note A_, 1
	note B_, 1
	octave 4
	note E_, 1
	note G#, 1
	note A_, 1
	note B_, 1
	octave 3
	note A_, 1
	octave 4
	note C#, 1
	note E_, 1
	note C#, 1
	note E_, 1
	note A_, 1
	octave 5
	note C#, 1
	octave 4
	note A_, 1
	note E_, 1
	note A_, 1
	note E_, 1
	note C#, 1
	octave 3
	note B_, 1
	octave 4
	note D#, 1
	note F#, 1
	note D#, 1
	note F#, 1
	note B_, 1
	octave 5
	note D#, 1
	octave 4
	note B_, 1
	note G#, 1
	note B_, 1
	note G#, 1
	note D#, 1
	dutycycle 1
	intensity $82
	octave 3
	note B_, 2
	note A_, 2
	note G#, 2
	dutycycle 2
	intensity $85
	octave 4
	note E_, 6
	intensity $61
	note B_, 1
	note A_, 1
	note G#, 1
	note E_, 1
	octave 3
	note B_, 1
	note A_, 1
	note G#, 1
	note A_, 1
	note B_, 1
	note A_, 1
	note B_, 1
	octave 4
	note E_, 1
	dutycycle 1
	intensity $85
	octave 2
	note A_, 4
	intensity $82
	note A_, 2
	intensity $85
	note B_, 4
	intensity $82
	note B_, 2
	intensity $85
	octave 3
	note E_, 4
	intensity $82
	note E_, 2
	intensity $85
	octave 2
	note B_, 4
	intensity $82
	note B_, 2
	intensity $85
	note G_, 6
	note A_, 6
	note B_, 6
	octave 3
	note C_, 6
	octave 2
	note B_, 6
	octave 3
	note E_, 6
	note F#, 6
	note A_, 6
	note F#, 6
	note __, 1
	dutycycle 2
	intensity $81
	octave 4
	note B_, 1
	note __, 1
	note A_, 1
	note __, 1
	note G#, 1
	note __, 1
	note E_, 1
	note __, 1
	octave 3
	note B_, 1
	note __, 1
	note A_, 1
	note __, 1
	note G#, 1
	note __, 1
	note E_, 1
	note __, 1
	octave 2
	note B_, 1
	loopchannel 0, Music_Route206_Ch2_loop

Music_Route206_Ch3:
	notetype $C, $00
	note __, 12
	dutycycle 4
	intensity $14
	octave 3
	note C#, 8
	note D#, 8
	note E_, 8
	note F#, 8
	octave 2
	note E_, 8
	note G_, 8
	note G#, 8
	note E_, 4
	octave 1
	note G#, 4
Music_Route206_Ch3_loop:
	notetype $C, $00
	intensity $14
	octave 2
	note B_, 4
	notetype $8, $14
	note E_, 2
	note F#, 2
	note A_, 2
	note B_, 6
	octave 1
	note B_, 6
	octave 2
	note E_, 6
	octave 1
	note B_, 2
	octave 2
	note E_, 2
	note G#, 2
	note B_, 6
	note E_, 6
	note A_, 6
	note C#, 2
	note E_, 2
	note A_, 2
	note B_, 6
	octave 1
	note B_, 6
	octave 2
	note E_, 6
	octave 1
	note B_, 2
	octave 2
	note E_, 2
	note A_, 2
	note G#, 6
	note E_, 6
	note D#, 6
	note C_, 2
	note D#, 2
	note F#, 2
	note G#, 6
	note F#, 2
	note D#, 2
	note C_, 2
	note C#, 6
	note C#, 2
	note G_, 2
	octave 3
	note C#, 2
	octave 2
	note A#, 6
	note F#, 2
	note C#, 2
	note F#, 2
	octave 3
	note C#, 12
	octave 2
	note A_, 6
	octave 3
	note C#, 6
	octave 2
	notetype $C, $14
	note B_, 16
	note C_, 8
	note D_, 8
	note E_, 8
	note E_, 8
	note A_, 8
	note B_, 8
	note E_, 8
	note G#, 8
	notetype $8, $14
	note A_, 4
	note __, 2
	note A_, 4
	note __, 2
	octave 3
	note C#, 2
	octave 2
	note A_, 2
	note E_, 2
	note C#, 2
	note E_, 2
	note A_, 2
	note G_, 2
	note C_, 2
	note G_, 2
	note A_, 2
	note D_, 2
	note A_, 2
	note B_, 2
	note E_, 2
	note B_, 2
	octave 3
	note C_, 2
	octave 2
	note G_, 2
	octave 3
	note C_, 2
	octave 1
	note B_, 4
	octave 2
	note F#, 2
	octave 1
	note B_, 4
	octave 2
	note F#, 2
	octave 1
	note B_, 4
	octave 2
	note F#, 2
	octave 1
	note B_, 4
	octave 2
	note F#, 2
	octave 1
	note B_, 2
	octave 2
	note F#, 2
	note A_, 2
	note B_, 2
	note F#, 2
	note B_, 2
	octave 3
	note E_, 6
	octave 2
	note G#, 6
	loopchannel 0, Music_Route206_Ch3_loop
	
Music_Route206_Ch4:
	togglenoise 1
	notetype $C
	note __, 12
	notetype $8
	note A_, 1
	note A_, 1
	note A_, 2
	note E_, 2
	note A_, 2
	note A_, 1
	note A_, 1
	note A_, 2
	note A_, 4
	note B_, 2
	note D#, 2
	note __, 4
	note A_, 1
	note A_, 1
	note A_, 2
	note E_, 2
	note A_, 2
	note A_, 1
	note A_, 1
	note A_, 2
	note A_, 4
	note B_, 2
	note D#, 2
	note __, 4
	note A_, 1
	note A_, 1
	note A_, 1
	note A_, 1
	note A_, 2
	note D#, 2
	note __, 4
	note A_, 1
	note A_, 1
	note A_, 1
	note A_, 1
	note A_, 2
	note D#, 2
	note __, 4
	note A_, 1
	note A_, 1
	note A_, 1
	note A_, 1
	note A_, 2
	note D#, 2
	note __, 4
	note G#, 2
	note __, 4
	notetype $C
	note __, 4
Music_Route206_Ch4_Loop:
	note __, 16
	note __, 16
	note __, 16
	note __, 16
	notetype $8
	note D#, 4
	note D#, 2
	note D#, 2
	note D#, 2
	note D#, 2
	note D#, 4
	note __, 2
	note G#, 2
	note __, 4
	note D#, 4
	note D#, 2
	note D#, 2
	note D#, 2
	note D#, 2
	note D#, 4
	note __, 2
	note G#, 2
	note __, 4
	note D#, 4
	note D#, 2
	note D#, 2
	note D#, 2
	note D#, 2
	note D#, 4
	note D#, 4
	note D#, 4
	notetype $C
	note D#, 4
	note D_, 4
	note D#, 4
	note D_, 4
	notetype $8
	note C#, 2
	note E_, 1
	note E_, 1
	note E_, 2
	note E_, 2
	note E_, 1
	note E_, 1
	note E_, 2
	note C#, 2
	note E_, 1
	note E_, 1
	note E_, 2
	note E_, 2
	note E_, 1
	note E_, 1
	note E_, 2
	note C#, 2
	note E_, 1
	note E_, 1
	note E_, 2
	note E_, 2
	note E_, 1
	note E_, 1
	note E_, 2
	note E_, 2
	note E_, 1
	note E_, 1
	note E_, 2
	note E_, 2
	note E_, 1
	note E_, 1
	note E_, 2
	note C#, 2
	note E_, 1
	note E_, 1
	note E_, 2
	note E_, 2
	note E_, 1
	note E_, 1
	note E_, 2
	note C#, 2
	note E_, 1
	note E_, 1
	note E_, 2
	note E_, 2
	note E_, 1
	note E_, 1
	note E_, 2
	note C#, 2
	note E_, 1
	note E_, 1
	note E_, 2
	note E_, 2
	note E_, 1
	note E_, 1
	note E_, 2
	note E_, 2
	note E_, 1
	note E_, 1
	note E_, 2
	note E_, 2
	note E_, 1
	note E_, 1
	note E_, 2
	note E_, 2
	note E_, 1
	note E_, 1
	note E_, 2
	note E_, 2
	note E_, 1
	note E_, 1
	note E_, 2
	note E_, 2
	note E_, 1
	note E_, 1
	note E_, 2
	note E_, 2
	note E_, 1
	note E_, 1
	note E_, 2
	notetype $C
	note C#, 4
	note C#, 4
	note C#, 4
	note C#, 4
	notetype $8
	note D_, 2
	note D_, 2
	note D_, 2
	note D_, 2
	note D_, 2
	note D_, 2
	note D_, 2
	note D_, 2
	note D_, 2
	note D_, 2
	note D_, 2
	note D_, 2
	note D_, 2
	note D_, 2
	note D_, 2
	notetype $C
	note C#, 4
	note __, 8
	loopchannel 0, Music_Route206_Ch4_Loop
	