Music_SomeRouteOrange:
	musicheader 4, 1, Music_SomeRouteOrange_Ch1
	musicheader 1, 2, Music_SomeRouteOrange_Ch2
	musicheader 1, 3, Music_SomeRouteOrange_Ch3
	musicheader 1, 4, Music_SomeRouteOrange_Ch4

Music_SomeRouteOrange_Ch1:
	tempo $93
	volume $77
	stereopanning $f
	dutycycle 3
	octave 2
	notetype $C, $00
	note E_, 1
	intensity $2E
	note E_, 3
Music_SomeRouteOrange_Ch1_loop:
	notetype $C, $B4
	octave 2
	note G_, 6
	note E_, 6
	note C_, 2
	note E_, 2
	note G_, 6
	note F_, 6
	note E_, 2
	note D_, 2
	note F_, 2
	note A#, 2
	note F_, 2
	note D_, 4
	note A#, 2
	note D_, 2
	note F_, 2
	note G_, 2
	octave 3
	note C_, 2
	octave 2
	note G_, 2
	note E_, 4
	note G_, 2
	note E_, 2
	note G_, 2
	note G_, 6
	note E_, 6
	note C_, 2
	note G_, 2
	note E_, 6
	note G_, 6
	note E_, 2
	note D_, 2
	note F_, 2
	note A#, 2
	note F_, 2
	note A#, 4
	note F_, 2
	octave 3
	note D_, 2
	octave 2
	note A#, 2
	note G_, 2
	octave 3
	note C_, 2
	octave 2
	note F_, 2
	note A#, 2
	note G_, 2
	octave 3
	note C_, 2
	note E_, 2
	note C_, 2
	vibrato $00, $54
	note D_, 3
	note __, 1
	octave 2
	note D_, 2
	note A#, 3
	note __, 1
	note D_, 2
	note F_, 4
	octave 3
	note C_, 3
	note __, 1
	octave 2
	note C_, 2
	note G_, 3
	note __, 1
	note C_, 2
	note E_, 4
	octave 3
	note D_, 3
	note __, 1
	octave 2
	note D_, 2
	octave 3
	note F_, 3
	note __, 1
	octave 2
	note D_, 2
	octave 3
	note D_, 4
	note E_, 3
	note __, 1
	octave 2
	note G_, 2
	octave 3
	note F_, 4
	octave 2
	note G_, 2
	octave 3
	note G_, 4
	intensity $B5
	note F_, 6
	note D_, 6
	octave 2
	note A#, 4
	octave 3
	note D#, 6
	note C_, 6
	octave 2
	note G#, 4
	octave 3
	note D_, 2
	note __, 1
	intensity $B2
	note D#, 1
	intensity $B8
	note D_, 6
	intensity $B5
	note D_, 6
	intensity $B8
	vibrato $00, $33
	note G#, 4
	intensity $B5
	note G#, 2
	note F_, 6
	intensity $B4
	note C_, 2
	note D_, 2
	intensity $B3
	note C_, 2
	note C_, 2
	note C_, 1
	octave 2
	note G#, 1
	note __, 1
	intensity $B4
	octave 3
	note D_, 1
	note __, 1
	octave 2
	notetype $6, $B4
	note G#, 1
	octave 3
	note C_, 1
	note D#, 6
	octave 2
	note G#, 2
	octave 3
	note C_, 2
	note D#, 2
	note A#, 2
	note F_, 2
	note D_, 2
	octave 2
	note A#, 2
	octave 3
	note F_, 4
	note A#, 2
	note G#, 2
	note D_, 2
	note F_, 2
	note D_, 2
	octave 2
	note A#, 2
	octave 3
	note D_, 4
	note F_, 4
	note G_, 4
	note __, 2
	intensity $B2
	note E_, 2
	intensity $B8
	note G_, 12
	intensity $B5
	note G_, 12
	intensity $50
	vibrato $00, $00
	octave 6
	note C_, 2
	octave 5
	note A#, 2
	note G_, 2
	note F_, 2
	note E_, 2
	note G_, 2
	octave 6
	note C_, 2
	octave 5
	note A#, 2
	note G_, 2
	note F_, 2
	intensity $30
	note E_, 2
	note G_, 2
	octave 6
	note C_, 2
	octave 5
	note A#, 2
	note G_, 2
	note F_, 2
	intensity $B4
	vibrato $00, $33
	octave 2
	note G_, 12
	note E_, 12
	note C_, 4
	note E_, 4
	note G_, 12
	note F_, 12
	note E_, 4
	octave 1
	note B_, 4
	loopchannel 0, Music_SomeRouteOrange_Ch1_loop

Music_SomeRouteOrange_Ch2:
	stereopanning $f0
	dutycycle 3
	tone $0001
	octave 3
	notetype $F, $2D
	note C_, 4
	notetype $C, $2D
	note __, 1
Music_SomeRouteOrange_Ch2_loop:
	notetype $C, $C4
	octave 3
	note C_, 2
	octave 2
	note G_, 2
	octave 3
	note C_, 2
	octave 2
	note E_, 2
	note G_, 2
	octave 3
	note C_, 2
	note D_, 2
	note E_, 2
	note __, 1
	note F_, 2
	note __, 1
	note G_, 4
	note E_, 2
	note G_, 1
	note A#, 1
	octave 4
	note C_, 1
	note __, 1
	intensity $C5
	octave 3
	note A#, 6
	note A_, 6
	intensity $C4
	note F_, 4
	note E_, 2
	note __, 1
	intensity $C2
	note F_, 1
	intensity $C8
	vibrato $00, $33
	note E_, 4
	intensity $C5
	note E_, 8
	note __, 2
	intensity $C4
	vibrato $00, $00
	note C_, 2
	octave 2
	note G_, 2
	octave 3
	note C_, 2
	note E_, 2
	note D_, 2
	note C_, 2
	octave 2
	note G_, 2
	octave 3
	note G_, 2
	note __, 1
	note F_, 2
	note __, 1
	note E_, 4
	note C_, 2
	note G_, 1
	note A#, 1
	octave 4
	note C_, 1
	note __, 1
	intensity $C5
	octave 3
	note A#, 6
	note A_, 6
	intensity $C4
	note F_, 4
	note G_, 2
	note __, 1
	intensity $C2
	note F_, 1
	intensity $C8
	vibrato $00, $33
	note E_, 2
	intensity $C5
	note E_, 4
	intensity $C4
	vibrato $00, $00
	note C_, 2
	note G_, 2
	octave 4
	note C_, 2
	intensity $C5
	octave 3
	note A#, 6
	note A_, 6
	intensity $C4
	note F_, 4
	note E_, 2
	note __, 1
	intensity $C2
	note F_, 1
	intensity $C8
	note E_, 2
	intensity $C5
	note E_, 4
	intensity $C4
	note C_, 2
	note E_, 1
	note G_, 1
	octave 4
	note C_, 2
	intensity $C5
	octave 3
	note A#, 6
	octave 4
	note D_, 4
	intensity $C4
	octave 3
	note A#, 2
	note B_, 4
	octave 4
	note C_, 2
	note __, 1
	intensity $C2
	note D_, 1
	intensity $C8
	note C_, 2
	intensity $C5
	note C_, 4
	intensity $C4
	octave 3
	note A#, 2
	octave 4
	note E_, 1
	note G_, 1
	octave 5
	note C_, 2
	intensity $8D
	vibrato $00, $22
	octave 4
	note A#, 3
	intensity $B6
	note A#, 3
	intensity $8D
	note A_, 3
	intensity $B6
	note A_, 3
	intensity $8D
	note F_, 2
	intensity $B6
	note F_, 2
	intensity $8D
	note G#, 3
	intensity $B6
	note G#, 3
	intensity $8D
	note G_, 3
	intensity $B6
	note G_, 3
	intensity $8D
	note D#, 2
	intensity $B6
	note D#, 2
	intensity $5C
	vibrato $00, $23
	note F_, 3
	intensity $B8
	note F_, 7
	intensity $B5
	note F_, 6
	intensity $C4
	vibrato $00, $00
	note C_, 4
	intensity $C2
	octave 3
	note B_, 1
	note A#, 1
	intensity $C4
	note A_, 4
	note F_, 2
	note A_, 2
	octave 4
	note C_, 2
	intensity $C8
	vibrato $00, $33
	note D#, 4
	intensity $C4
	note D#, 6
	vibrato $00, $00
	octave 3
	note G#, 2
	octave 4
	note C_, 2
	note D#, 2
	intensity $C5
	note D_, 6
	note F_, 6
	note D_, 4
	intensity $C4
	note E_, 2
	note __, 1
	intensity $C2
	note D_, 1
	intensity $C8
	vibrato $00, $33
	note C_, 4
	intensity $C5
	note C_, 8
	intensity $6D
	vibrato $00, $22
	note A#, 3
	intensity $96
	note A#, 3
	intensity $6D
	note A_, 3
	intensity $96
	note A_, 3
	intensity $3D
	note F_, 2
	intensity $64
	note F_, 2
	intensity $C3
	vibrato $00, $00
	octave 3
	note C_, 2
	note __, 1
	note C_, 2
	note __, 1
	intensity $C2
	note C_, 1
	note C_, 1
	note C_, 1
	note C_, 1
	note C_, 1
	note __, 1
	intensity $C4
	octave 2
	note G_, 4
	intensity $C3
	octave 3
	note C_, 2
	note __, 1
	note C_, 2
	note __, 1
	intensity $C2
	note C_, 1
	note C_, 1
	note C_, 1
	note C_, 1
	note C_, 1
	note __, 1
	intensity $C4
	octave 2
	note G_, 4
	note __, 2
	loopchannel 0, Music_SomeRouteOrange_Ch2_loop

Music_SomeRouteOrange_Ch3:
	octave 3
	notetype $C, $00
	note C_, 4
Music_SomeRouteOrange_Ch3_loop:
	notetype $C, $19
	vibrato $00, $36
	octave 3
	note C_, 2
	octave 4
	note C_, 1
	octave 3
	note G_, 1
	note E_, 1
	note __, 1
	note C_, 1
	octave 4
	note C_, 1
	note __, 1
	octave 3
	note C_, 1
	note __, 1
	note G_, 1
	note E_, 1
	note __, 1
	note C_, 2
	note E_, 1
	note __, 1
	note C_, 2
	note F_, 1
	note __, 1
	note C_, 1
	note G_, 1
	note C_, 1
	notetype $6, $19
	note __, 1
	note E_, 1
	note G_, 4
	note E_, 2
	note __, 2
	note G_, 4
	octave 2
	note A#, 4
	octave 3
	note F_, 2
	note __, 2
	note D_, 2
	note __, 2
	octave 2
	note A#, 6
	note __, 2
	octave 3
	note F_, 4
	note D_, 2
	note __, 2
	octave 2
	note A#, 4
	octave 3
	note C_, 4
	note G_, 2
	note __, 2
	note E_, 2
	note __, 2
	note C_, 4
	note E_, 2
	note __, 1
	note E_, 1
	note F_, 4
	note E_, 2
	note __, 2
	note C_, 4
	note C_, 4
	octave 4
	note C_, 2
	octave 3
	note G_, 2
	note E_, 2
	note __, 2
	note C_, 2
	octave 4
	note C_, 2
	note __, 2
	octave 3
	note C_, 2
	note __, 2
	note G_, 2
	note E_, 2
	note __, 2
	note C_, 4
	note E_, 2
	note __, 2
	note C_, 2
	note F_, 2
	note __, 2
	note C_, 2
	octave 4
	note C_, 4
	octave 3
	note C_, 2
	note __, 1
	note E_, 1
	note G_, 4
	note E_, 2
	note __, 2
	note G_, 4
	octave 2
	note A#, 4
	octave 3
	note F_, 2
	note __, 2
	note D_, 2
	note __, 1
	note E_, 1
	note F_, 8
	note D_, 4
	note C_, 2
	note __, 2
	octave 2
	note A#, 4
	octave 3
	note C_, 4
	note E_, 2
	note __, 2
	note G_, 2
	note __, 2
	note E_, 4
	note G_, 2
	note __, 1
	note E_, 1
	note F_, 4
	note E_, 2
	note __, 2
	note C_, 4
	note F_, 6
	note D_, 6
	octave 2
	note A#, 8
	note F_, 8
	note B_, 4
	octave 3
	note C_, 6
	octave 2
	note A#, 6
	note G_, 8
	note E_, 8
	octave 3
	note C_, 4
	note F_, 6
	note E_, 6
	note D_, 8
	octave 2
	note B_, 8
	octave 3
	note D_, 4
	note C_, 6
	note D_, 6
	note E_, 4
	note G_, 8
	note E_, 8
	note F_, 4
	note A#, 4
	note F_, 4
	note D_, 8
	octave 2
	note G_, 4
	octave 3
	note C_, 4
	note D_, 4
	note D#, 4
	octave 4
	note C_, 4
	octave 3
	note G#, 4
	note D#, 8
	octave 2
	note G#, 4
	octave 3
	note C_, 4
	octave 2
	note A#, 4
	octave 3
	note A#, 4
	octave 2
	note A#, 1
	note __, 1
	note A#, 2
	note __, 2
	note A#, 2
	note __, 2
	octave 4
	note D_, 4
	octave 2
	note A#, 2
	octave 3
	note A#, 2
	note __, 2
	note F_, 2
	note __, 2
	octave 2
	note A#, 4
	octave 3
	note D#, 4
	note __, 2
	note E_, 4
	note __, 2
	note F_, 8
	note C_, 4
	octave 2
	note A_, 4
	note F_, 4
	octave 3
	note G#, 3
	note __, 1
	note G#, 3
	note G_, 1
	note G#, 4
	octave 2
	note G#, 1
	note __, 1
	note G#, 3
	note __, 2
	octave 3
	note C#, 1
	note D#, 2
	octave 2
	note G#, 2
	octave 3
	note C#, 2
	note D#, 1
	note __, 1
	octave 2
	note G#, 2
	octave 3
	note D#, 2
	note A#, 2
	octave 4
	note C_, 2
	octave 3
	note G#, 2
	note A#, 2
	note D_, 2
	note G#, 2
	octave 2
	note A#, 2
	octave 3
	note A#, 2
	note __, 2
	note D_, 2
	note __, 2
	octave 2
	note A#, 2
	note __, 2
	octave 3
	note F_, 2
	octave 2
	note A#, 4
	octave 3
	note C_, 4
	note __, 2
	note E_, 4
	note C_, 2
	octave 4
	note C_, 4
	octave 3
	note C_, 2
	note G_, 2
	note F_, 4
	note E_, 2
	note __, 2
	note C_, 4
	dutycycle 8
	intensity $28
	octave 2
	note A#, 8
	note __, 4
	dutycycle 9
	intensity $29
	octave 3
	note D_, 8
	note __, 12
	intensity $19
	note C_, 4
	octave 4
	note C_, 2
	octave 3
	note G_, 2
	note E_, 2
	note __, 2
	note C_, 2
	octave 4
	note C_, 2
	note __, 2
	octave 3
	note C_, 2
	note __, 2
	note G_, 2
	note E_, 2
	note __, 2
	note C_, 4
	note C_, 4
	octave 4
	note C_, 2
	octave 3
	note G_, 2
	note E_, 2
	note __, 2
	note C_, 2
	octave 4
	note C_, 2
	note __, 2
	octave 3
	note C_, 2
	note G_, 4
	note D_, 2
	note __, 2
	octave 2
	note B_, 4
	loopchannel 0, Music_SomeRouteOrange_Ch3_loop

Music_SomeRouteOrange_Ch4:
	togglenoise 1
	notetype $6
	note B_, 1
	note B_, 1
	note B_, 1
	note B_, 1
	note A#, 1
	note A#, 1
	note A#, 1
	note A#, 1
Music_SomeRouteOrange_Ch4_loop:
	notetype $6
	note F_, 4
	note A#, 4
	note C#, 2
	note __, 2
	note A#, 2
	note B_, 2
	note A#, 2
	note B_, 2
	note A#, 2
	note __, 2
	note C#, 2
	note __, 2
	note A#, 2
	note A#, 2
	note B_, 4
	note A#, 4
	note C#, 2
	note __, 2
	note A#, 2
	note B_, 2
	note A#, 2
	note B_, 2
	note A_, 2
	note __, 2
	note C#, 2
	note __, 2
	note A#, 2
	note A#, 2
	note D#, 4
	note A#, 4
	note C#, 2
	note __, 2
	note A#, 2
	note B_, 2
	note A#, 2
	note B_, 2
	note A#, 2
	note __, 2
	note C#, 2
	note __, 2
	note A#, 4
	note A_, 4
	note A#, 4
	note C#, 2
	note __, 2
	note A#, 2
	note B_, 2
	note A#, 2
	note B_, 2
	note A_, 2
	note __, 2
	note C#, 2
	note __, 2
	note A#, 2
	note A#, 2
	note F_, 4
	note A#, 4
	note C#, 2
	note __, 2
	note A#, 2
	note B_, 2
	note A#, 2
	note B_, 2
	note A#, 2
	note __, 2
	note C#, 2
	note __, 2
	note A#, 2
	note A#, 2
	note B_, 4
	note A#, 4
	note C#, 2
	note __, 2
	note D#, 4
	note A_, 2
	note A#, 2
	note C#, 2
	note __, 2
	note C#, 2
	note A_, 2
	note A#, 2
	note A#, 2
	note D#, 4
	note A#, 4
	note C#, 2
	note __, 2
	note A#, 2
	note B_, 2
	note A#, 2
	note B_, 2
	note A#, 2
	note __, 2
	note C#, 2
	note __, 2
	note A#, 4
	note A_, 4
	note A#, 4
	note C#, 2
	note __, 2
	note A#, 2
	note B_, 2
	note A#, 2
	note B_, 2
	note A_, 2
	note __, 2
	note C#, 4
	note A#, 2
	note A#, 2
	note C#, 4
	note A#, 2
	note C#, 2
	note __, 4
	note A_, 2
	note __, 2
	note A#, 2
	note C#, 2
	note __, 4
	note F_, 2
	note B_, 2
	note C#, 4
	note C#, 4
	note A#, 2
	note C#, 2
	note __, 4
	note A_, 2
	note __, 2
	note A#, 2
	note C#, 2
	note __, 2
	note A#, 2
	note F_, 2
	note __, 2
	note A_, 2
	note A_, 2
	note C#, 4
	note A#, 2
	note C#, 2
	note __, 4
	note A_, 2
	note __, 2
	note A#, 2
	note C#, 2
	note __, 4
	note F_, 2
	note B_, 2
	note C#, 4
	note C#, 4
	note A#, 4
	note C#, 2
	note __, 2
	note A#, 2
	note B_, 2
	note C#, 2
	note __, 2
	note A#, 2
	note __, 2
	note C#, 2
	note B_, 2
	note A#, 4
	note F#, 4
	note __, 16
	note __, 16
	note __, 16
	note B_, 1
	note B_, 1
	note B_, 1
	note B_, 1
	note B_, 1
	note B_, 1
	note B_, 1
	note B_, 1
	note A#, 1
	note A#, 1
	note A#, 1
	note A#, 1
	note F#, 4
	note A#, 4
	note C#, 2
	note A#, 2
	note __, 2
	note B_, 2
	note __, 2
	note A#, 2
	note __, 2
	note B_, 2
	note C#, 2
	note __, 2
	note A#, 2
	note A#, 2
	note F_, 4
	note __, 2
	note C#, 4
	note __, 2
	note C#, 4
	note __, 4
	note A#, 4
	note B_, 1
	note B_, 1
	note B_, 1
	note B_, 1
	note A#, 1
	note A#, 1
	note A#, 1
	note A#, 1
	note F#, 4
	note A#, 4
	note C#, 2
	note B_, 2
	note A#, 2
	note B_, 2
	note __, 2
	note A#, 2
	note B_, 2
	note A#, 2
	note C#, 2
	note B_, 2
	note A#, 2
	note B_, 2
	note F#, 2
	note A#, 2
	note B_, 2
	note A#, 2
	note C#, 2
	note __, 2
	note F#, 2
	note A#, 2
	note B_, 2
	note A#, 2
	note C#, 2
	note __, 2
	note F#, 2
	note A#, 2
	note C#, 2
	note C#, 2
	note F#, 4
	note A#, 4
	note C#, 2
	note __, 2
	note A#, 2
	note B_, 2
	note A#, 2
	note B_, 2
	note A#, 2
	note B_, 2
	note C#, 2
	note __, 2
	note A#, 4
	note C#, 4
	notetype $C
	note __, 12
	note G#, 1
	note __, 1
	note F_, 2
	note A#, 2
	note C#, 1
	note __, 1
	note A#, 1
	note B_, 1
	note A#, 1
	note B_, 1
	note A#, 1
	note __, 1
	note C#, 1
	note __, 1
	note A#, 1
	note A#, 1
	note B_, 2
	note A#, 2
	note C#, 1
	note __, 1
	note A#, 1
	note B_, 1
	note A#, 1
	note B_, 1
	note A#, 1
	note __, 1
	note C#, 1
	note __, 1
	note A#, 1
	note A#, 1
	loopchannel 0, Music_SomeRouteOrange_Ch4_loop

