Music_SeviiIslands:
	musicheader 4, 1, Music_SeviiIslands_Ch1
	musicheader 1, 2, Music_SeviiIslands_Ch2
	musicheader 1, 3, Music_SeviiIslands_Ch3
	musicheader 1, 4, Music_SeviiIslands_Ch4

Music_SeviiIslands_Ch1:
	tempo $90
	volume $77
	stereopanning $77
	notetype $C, $00
	note __, 4
	sound_duty %01, %01, %01, %01
	tone $0002
	intensity $B4
	vibrato $08, $22
	octave 3
	note E_, 6
	note E_, 10
	note E_, 6
	note E_, 6
	note F#, 4
Music_SeviiIslands_Ch1_loop:
	intensity $B5
	octave 3
	note G#, 6
	note F#, 6
	note E_, 4
	octave 4
	note E_, 6
	note D_, 4
	note F#, 2
	note E_, 4
	note C#, 6
	octave 3
	note A_, 2
	notetype $8, $B5
	note E_, 4
	note A_, 4
	octave 4
	note C#, 4
	octave 3
	notetype $C, $B4
	note E_, 3
	note G#, 1
	intensity $B7
	note B_, 8
	octave 4
	note G#, 1
	intensity $A7
	note F#, 1
	note E_, 1
	note F#, 1
	note G#, 8
	octave 3
	note F#, 4
	note E_, 4
	octave 4
	note E_, 6
	note D_, 4
	note F#, 2
	note E_, 4
	note C#, 6
	octave 3
	note A_, 2
	notetype $8, $B5
	note E_, 4
	note A_, 4
	octave 4
	note C#, 4
	octave 3
	notetype $C, $B4
	note E_, 3
	note G#, 1
	intensity $B7
	note B_, 8
	note G#, 4
	intensity $B4
	note B_, 3
	octave 4
	note D#, 1
	intensity $B7
	note E_, 12
	octave 3
	notetype $8, $B4
	note D_, 4
	note C#, 4
	octave 2
	note B_, 4
	intensity $B7
	note B_, 12
	octave 3
	notetype $C, $B7
	note D_, 12
	intensity $B4
	note F#, 4
	note E_, 2
	intensity $B7
	octave 2
	note B_, 10
	intensity $B4
	octave 3
	note F#, 4
	note E_, 3
	note F#, 1
	intensity $B7
	note G#, 8
	note E_, 6
	note D_, 1
	note F#, 1
	note D_, 8
	note F#, 6
	note F#, 1
	note A_, 1
	note F#, 8
	note A_, 6
	note G#, 1
	note A_, 1
	intensity $A0
	note B_, 7
	intensity $A7
	note B_, 7
	note B_, 1
	octave 4
	note D_, 1
	intensity $A0
	note E_, 6
	intensity $A7
	note E_, 6
	loopchannel 0, Music_SeviiIslands_Ch1_loop

Music_SeviiIslands_Ch2:
	notetype $C, $00
	note __, 4
	dutycycle 2
	intensity $90
	vibrato $20, $44
	octave 3
	note A_, 8
	intensity $97
	note A_, 8
	intensity $A0
	note B_, 8
	intensity $A7
	note B_, 8
Music_SeviiIslands_Ch2_loop:
	octave 4
	notetype $8, $C7
	note E_, 16
	octave 3
	note B_, 4
	octave 4
	note E_, 4
	note B_, 16
	octave 5
	note D_, 4
	note C#, 4
	octave 4
	notetype $C, $C7
	note A_, 12
	octave 5
	note C#, 4
	octave 4
	note B_, 3
	note A_, 1
	notetype $F, $B0
	note G#, 16
	notetype $8, $C7
	note E_, 4
	octave 3
	note B_, 4
	octave 4
	note E_, 4
	note B_, 16
	octave 5
	note D_, 4
	note C#, 4
	octave 4
	notetype $C, $C7
	note A_, 12
	octave 5
	note C#, 4
	octave 4
	note B_, 3
	note A_, 1
	intensity $B0
	note G#, 12
	intensity $C7
	note G#, 16
	octave 3
	notetype $8, $C3
	note A_, 4
	note G#, 4
	note F#, 4
	note D_, 15
	octave 4
	notetype $C, $C3
	note D_, 1
	note F#, 1
	note A_, 1
	note __, 1
	note F#, 1
	note A_, 1
	intensity $C5
	octave 5
	note D_, 10
	intensity $C3
	octave 4
	note B_, 4
	note A_, 4
	note G#, 4
	note F#, 2
	notetype $8, $C3
	note E_, 4
	note F#, 4
	note G#, 4
	intensity $C7
	note B_, 12
	intensity $C3
	octave 3
	note A_, 4
	note G#, 4
	note F#, 4
	octave 4
	note D_, 4
	note C#, 4
	octave 3
	note B_, 4
	octave 4
	note F#, 4
	note E_, 4
	note D_, 4
	note A_, 4
	note G#, 4
	note F#, 4
	intensity $C7
	note G#, 16
	note E_, 4
	note G#, 4
	notetype $C, $C7
	note B_, 16
	loopchannel 0, Music_SeviiIslands_Ch2_loop

Music_SeviiIslands_Ch3:
	notetype $C, $00
	note __, 4
	dutycycle 9
	intensity $19
	octave 3
	note A_, 4
	note __, 2
	note A_, 4
	note __, 6
	note G#, 4
	note __, 2
	note G#, 4
	note __, 2
	note F#, 4
Music_SeviiIslands_Ch3_loop:
	note E_, 4
	octave 2
	note B_, 2
	octave 3
	note E_, 4
	octave 2
	note B_, 2
	octave 3
	note E_, 2
	note F#, 2
	note G_, 4
	note D_, 2
	note G_, 4
	note D_, 2
	note G_, 2
	note G#, 2
	note A_, 4
	note E_, 2
	note A_, 4
	note E_, 2
	note A_, 2
	octave 4
	note C#, 2
	octave 3
	note B_, 2
	note E_, 2
	note G#, 2
	note B_, 4
	note E_, 2
	note F#, 2
	note G#, 2
	note B_, 2
	note G#, 2
	note B_, 2
	octave 4
	note E_, 2
	octave 3
	note E_, 2
	octave 2
	note B_, 2
	octave 3
	note E_, 2
	note F#, 2
	note G_, 4
	note D_, 2
	note G_, 4
	note D_, 2
	note G_, 2
	note G#, 2
	note A_, 4
	note E_, 2
	note A_, 4
	note E_, 2
	note A_, 2
	octave 4
	note C#, 2
	octave 3
	note B_, 2
	note E_, 2
	note G#, 2
	note B_, 4
	note E_, 2
	note F#, 2
	note G#, 2
	note B_, 2
	note G#, 2
	note B_, 2
	octave 4
	note E_, 4
	octave 3
	note B_, 2
	octave 4
	note E_, 2
	note G#, 2
	octave 3
	note F#, 4
	note D_, 2
	note F#, 4
	note D_, 2
	note F#, 2
	note D_, 2
	note A_, 4
	note D_, 2
	note A_, 4
	note D_, 2
	note A_, 2
	note D_, 2
	note G#, 4
	note E_, 2
	note G#, 4
	note E_, 2
	note G#, 2
	note E_, 2
	note B_, 2
	note E_, 2
	note G#, 2
	octave 4
	note E_, 4
	octave 3
	note E_, 2
	note F#, 2
	note G#, 2
	note A_, 4
	note D_, 2
	note A_, 4
	note D_, 2
	note A_, 2
	note D_, 2
	note A_, 4
	note D_, 2
	note A_, 4
	note D_, 2
	note A_, 2
	note D_, 2
	note G#, 4
	note E_, 2
	note G#, 4
	note E_, 2
	note G#, 2
	note E_, 2
	note E_, 4
	octave 2
	note B_, 2
	octave 3
	note E_, 4
	octave 2
	note B_, 2
	octave 3
	note E_, 2
	octave 2
	note B_, 2
	loopchannel 0, Music_SeviiIslands_Ch3_loop

Music_SeviiIslands_Ch4:
	togglenoise 3
	notetype $C
	note G_, 2
	note D_, 1
	note D_, 1
Music_SeviiIslands_Ch4_loop:
	note D_, 2
	note D_, 1
	note D_, 1
	note G_, 2
	note D_, 2
	note D_, 1
	note D_, 1
	note F#, 6
	note D_, 2
	note D_, 1
	note D_, 1
	note G_, 2
	note D_, 2
	note D_, 1
	note D_, 1
	note F#, 3
	note D_, 1
	note D_, 1
	note D_, 1
	loopchannel 0, Music_SeviiIslands_Ch4_loop

