Music_SirdBattle:
	musicheader 3, 1, Music_SirdBattle_Ch1
	musicheader 1, 2, Music_SirdBattle_Ch2
	musicheader 1, 3, Music_SirdBattle_Ch3

Music_SirdBattle_Ch1:
	tempo $6C
	volume $77
	stereopanning $77
	dutycycle 0
	notetype $C, $C7
	vibrato $02, $42
	octave 2
	note D_, 16
	note D#, 16
	note F_, 16
	note G_, 16
Music_SirdBattle_Ch1_loop:
	octave 3
	note A_, 16
	note A#, 16
	octave 4
	note C_, 16
	note D_, 16
	intensity $C5
	octave 3
	note E_, 2
	note __, 2
	note E_, 2
	octave 4
	note C_, 6
	octave 3
	note G_, 4
	note B_, 4
	note A_, 1
	note B_, 1
	octave 4
	note G_, 6
	note E_, 4
	octave 3
	note G_, 4
	note D_, 2
	note E_, 6
	note E_, 4
	intensity $C7
	note F#, 12
	intensity $5A
	note F#, 4
	intensity $C5
	note E_, 2
	note __, 2
	note E_, 2
	octave 4
	note C_, 6
	octave 3
	note G_, 4
	note B_, 4
	note A_, 1
	note B_, 1
	octave 4
	note G_, 6
	note E_, 4
	octave 3
	note G_, 4
	note D_, 2
	note E_, 6
	note E_, 4
	intensity $C7
	note F#, 12
	intensity $5A
	note F#, 4
	dutycycle 1
	intensity $D2
	vibrato $04, $24
	octave 1
	note A_, 2
	note G_, 2
	note A_, 2
	note A_, 2
	note G_, 2
	note A_, 2
	note A_, 2
	note G_, 2
	note G_, 2
	note A_, 2
	note G_, 2
	note A_, 2
	octave 2
	note C_, 2
	octave 1
	note G_, 2
	octave 2
	note D_, 2
	octave 1
	note G_, 2
	note A_, 2
	note G_, 2
	note A_, 2
	note A_, 2
	note G_, 2
	note A_, 2
	note A_, 2
	note G_, 2
	note G_, 2
	note A_, 2
	note G_, 2
	note A_, 2
	octave 2
	note C_, 2
	octave 1
	note G_, 2
	note E_, 2
	note G_, 2
	note A_, 2
	note G_, 2
	note A_, 2
	note A_, 2
	note G_, 2
	note A_, 2
	note A_, 2
	note G_, 2
	note G_, 2
	note A_, 2
	note G_, 2
	note A_, 2
	octave 2
	note C_, 2
	octave 1
	note G_, 2
	octave 2
	note D_, 2
	octave 1
	note G_, 2
	note A_, 2
	note G_, 2
	note A_, 2
	note A_, 2
	note G_, 2
	note A_, 2
	note A_, 2
	note G_, 2
	note G_, 2
	note A_, 2
	note G_, 2
	note A_, 2
	octave 2
	note C_, 2
	octave 1
	note G_, 2
	note E_, 2
	note G_, 2
	octave 2
	note E_, 2
	note __, 2
	note E_, 2
	note E_, 2
	note __, 2
	note E_, 2
	note E_, 2
	note __, 4
	note E_, 2
	note __, 2
	note E_, 2
	note G_, 2
	note __, 2
	dutycycle 2
	octave 3
	note A_, 4
	dutycycle 1
	octave 2
	note E_, 2
	note __, 2
	note E_, 2
	note E_, 2
	note __, 2
	note E_, 2
	note E_, 2
	note __, 4
	note E_, 2
	note __, 2
	note E_, 2
	note G_, 2
	note __, 2
	octave 1
	note B_, 2
	note __, 2
	octave 2
	note E_, 2
	note __, 2
	note E_, 2
	note E_, 2
	note __, 2
	note E_, 2
	note E_, 2
	note __, 4
	note E_, 2
	note __, 2
	note E_, 2
	note G_, 2
	note __, 2
	dutycycle 2
	octave 3
	note A_, 4
	dutycycle 1
	octave 2
	note E_, 2
	note __, 2
	note E_, 2
	note E_, 2
	note __, 2
	note E_, 2
	note E_, 2
	note __, 4
	note E_, 2
	note __, 2
	note E_, 2
	note G_, 2
	note __, 2
	octave 1
	note B_, 2
	note __, 2
	dutycycle 0
	intensity $D1
	vibrato $00, $00
	octave 3
	note A_, 2
	note D_, 2
	note A_, 2
	note A_, 2
	note C_, 2
	note A_, 2
	note A_, 2
	octave 2
	note A_, 2
	octave 3
	note A_, 2
	octave 4
	note A_, 2
	note G#, 2
	note G_, 2
	note F#, 2
	octave 3
	note F#, 2
	octave 4
	note F_, 2
	octave 3
	note F_, 2
	note A_, 2
	note D_, 2
	note A_, 2
	note A_, 2
	note C_, 2
	note A_, 2
	note A_, 2
	octave 2
	note A_, 2
	note A_, 2
	octave 3
	note A_, 2
	note G_, 2
	note A_, 2
	octave 4
	note C_, 2
	octave 3
	note C_, 2
	octave 4
	note D_, 2
	octave 3
	note D_, 2
	note A_, 2
	note D_, 2
	note A_, 2
	note A_, 2
	note C_, 2
	note A_, 2
	note A_, 2
	octave 2
	note A_, 2
	octave 3
	note A_, 2
	octave 4
	note A_, 2
	note G#, 2
	note G_, 2
	note F#, 2
	octave 3
	note F#, 2
	octave 4
	note F_, 2
	octave 3
	note F_, 2
	note A_, 2
	note D_, 2
	note A_, 2
	note A_, 2
	note C_, 2
	note A_, 2
	note A_, 2
	octave 2
	note A_, 2
	note A_, 2
	octave 3
	note A_, 2
	note G_, 2
	note A_, 2
	octave 4
	note C_, 2
	octave 3
	note C_, 2
	octave 4
	note D_, 2
	octave 3
	note D_, 2
	intensity $C5
	note F_, 2
	note D_, 2
	octave 2
	note A_, 2
	octave 3
	note F_, 2
	note D_, 2
	octave 2
	note A_, 2
	octave 3
	note F_, 2
	note D_, 2
	note G_, 2
	note D_, 2
	octave 2
	note A_, 2
	octave 3
	note G_, 2
	note D_, 2
	octave 2
	note A_, 2
	octave 3
	note G_, 2
	note D_, 2
	note A_, 6
	note D_, 6
	note C_, 4
	note F_, 4
	note E_, 4
	note F_, 4
	note G_, 4
	intensity $C7
	vibrato $02, $42
	note A_, 16
	note A#, 16
	octave 4
	note C_, 16
	note D_, 16
	loopchannel 0, Music_SirdBattle_Ch1_loop

Music_SirdBattle_Ch2:
	dutycycle 0
	octave 4
	notetype $C, $C7
	vibrato $02, $42
	octave 1
	note A_, 16
	note A#, 16
	octave 2
	note C_, 16
	note D_, 16
Music_SirdBattle_Ch2_loop:
	vibrato $00, $00
	octave 3
	note F_, 4
	note E_, 4
	note D_, 4
	note F_, 4
	note G_, 4
	note F_, 4
	note D_, 4
	note F_, 4
	note A#, 4
	note F_, 4
	note D_, 4
	note F_, 4
	octave 4
	note C_, 4
	octave 3
	note F_, 4
	note D_, 4
	note F_, 4
	intensity $C5
	note A_, 4
	note D_, 2
	note E_, 6
	octave 4
	note C_, 2
	note __, 2
	note G_, 2
	note F#, 2
	note __, 2
	note E_, 6
	octave 3
	note B_, 2
	octave 4
	note C_, 2
	note D_, 4
	octave 3
	note B_, 2
	note G_, 6
	octave 4
	note D_, 4
	intensity $C7
	vibrato $04, $24
	octave 3
	note A_, 12
	intensity $5A
	note A_, 4
	intensity $C5
	note A_, 4
	note D_, 2
	note E_, 6
	octave 4
	note C_, 2
	note __, 2
	note G_, 2
	note F#, 2
	note __, 2
	note E_, 6
	octave 3
	note B_, 2
	octave 4
	note C_, 2
	note D_, 4
	octave 3
	note B_, 2
	octave 4
	note G_, 6
	intensity $D5
	octave 5
	note D_, 4
	intensity $C7
	octave 4
	note A_, 12
	intensity $5A
	note A_, 4
	dutycycle 1
	intensity $D2
	octave 2
	note E_, 2
	note __, 2
	note E_, 2
	note E_, 2
	note __, 2
	note E_, 2
	note E_, 2
	note __, 4
	note E_, 2
	note __, 2
	note E_, 2
	note G_, 2
	note __, 2
	dutycycle 2
	octave 3
	note A_, 4
	dutycycle 1
	octave 2
	note E_, 2
	note __, 2
	note E_, 2
	note E_, 2
	note __, 2
	note E_, 2
	note E_, 2
	note __, 4
	note E_, 2
	note __, 2
	note E_, 2
	note G_, 2
	note __, 2
	octave 1
	note B_, 2
	note __, 2
	octave 2
	note E_, 2
	note __, 2
	note E_, 2
	note E_, 2
	note __, 2
	note E_, 2
	note E_, 2
	note __, 4
	note E_, 2
	note __, 2
	note E_, 2
	note G_, 2
	note __, 2
	dutycycle 2
	octave 3
	note A_, 4
	dutycycle 1
	octave 2
	note E_, 2
	note __, 2
	note E_, 2
	note E_, 2
	note __, 2
	note E_, 2
	note E_, 2
	note __, 4
	note E_, 2
	note __, 2
	note E_, 2
	note G_, 2
	note __, 2
	octave 1
	note B_, 2
	note __, 2
	dutycycle 0
	intensity $D1
	vibrato $00, $00
	octave 3
	note A_, 2
	note D_, 2
	note A_, 2
	note A_, 2
	note C_, 2
	note A_, 2
	note A_, 2
	octave 2
	note A_, 2
	octave 3
	note A_, 2
	octave 4
	note A_, 2
	note G#, 2
	note G_, 2
	note F#, 2
	octave 3
	note F#, 2
	octave 4
	note F_, 2
	octave 3
	note F_, 2
	note A_, 2
	note D_, 2
	note A_, 2
	note A_, 2
	note C_, 2
	note A_, 2
	note A_, 2
	octave 2
	note A_, 2
	note A_, 2
	octave 3
	note A_, 2
	note G_, 2
	note A_, 2
	octave 4
	note C_, 2
	octave 3
	note C_, 2
	octave 4
	note D_, 2
	octave 3
	note D_, 2
	note A_, 2
	note D_, 2
	note A_, 2
	note A_, 2
	note C_, 2
	note A_, 2
	note A_, 2
	octave 2
	note A_, 2
	octave 3
	note A_, 2
	octave 4
	note A_, 2
	note G#, 2
	note G_, 2
	note F#, 2
	octave 3
	note F#, 2
	octave 4
	note F_, 2
	octave 3
	note F_, 2
	note A_, 2
	note D_, 2
	note A_, 2
	note A_, 2
	note C_, 2
	note A_, 2
	note A_, 2
	octave 2
	note A_, 2
	note A_, 2
	octave 3
	note A_, 2
	note G_, 2
	note A_, 2
	octave 4
	note C_, 2
	octave 3
	note C_, 2
	octave 4
	note D_, 2
	octave 3
	note D_, 2
	dutycycle 2
	intensity $C7
	octave 4
	note C_, 6
	note D_, 6
	octave 3
	note A_, 4
	intensity $9E
	octave 4
	note G_, 4
	note A_, 4
	octave 5
	note C_, 2
	octave 4
	note A_, 2
	octave 5
	note C_, 2
	octave 4
	note G#, 2
	note A_, 4
	intensity $C7
	note A_, 12
	note D_, 4
	note D_, 12
	note C_, 6
	note D_, 6
	octave 3
	note A_, 4
	intensity $9E
	octave 4
	note G_, 4
	note A_, 4
	octave 5
	note C_, 2
	octave 4
	note A_, 2
	octave 5
	note C_, 2
	note C#, 2
	note D_, 4
	intensity $C7
	note D_, 12
	note __, 12
	dutycycle 0
	octave 3
	note A_, 4
	octave 4
	note D_, 16
	note D_, 2
	note C#, 2
	note C_, 2
	octave 3
	note B_, 2
	octave 4
	note D_, 2
	note D#, 2
	note E_, 2
	note F_, 2
	note D_, 6
	octave 3
	note A_, 10
	intensity $9E
	note A_, 4
	intensity $C7
	note B_, 4
	octave 4
	note C_, 4
	octave 3
	note B_, 2
	octave 4
	note C_, 2
	intensity $C5
	octave 3
	note F_, 2
	note D_, 2
	octave 2
	note A_, 2
	octave 3
	note F_, 2
	note D_, 2
	octave 2
	note A_, 2
	octave 3
	note F_, 2
	note D_, 2
	note G_, 2
	note D_, 2
	octave 2
	note A#, 2
	octave 3
	note G_, 2
	note D_, 2
	octave 2
	note A#, 2
	octave 3
	note G_, 2
	note D_, 2
	note A_, 2
	note F_, 2
	note C_, 2
	note A_, 2
	note F_, 2
	note C_, 2
	note G_, 2
	note A_, 2
	note F_, 2
	note D_, 2
	octave 2
	note A_, 2
	octave 3
	note F_, 2
	note D_, 2
	octave 2
	note A_, 2
	octave 3
	note F_, 2
	note D_, 2
	loopchannel 0, Music_SirdBattle_Ch2_loop

Music_SirdBattle_Ch3:
	dutycycle 6
	octave 3
	vibrato $00, $22
	notetype $C, $16
	octave 3
	note D_, 2
	octave 2
	note D_, 2
	note A_, 2
	note D_, 2
	octave 3
	note D_, 2
	octave 2
	note D_, 2
	note A_, 2
	note D_, 2
	octave 3
	note D#, 2
	octave 2
	note D#, 2
	note A#, 2
	note D#, 2
	octave 3
	note D#, 2
	octave 2
	note D#, 2
	note A#, 2
	note D#, 2
	octave 3
	note F_, 2
	octave 2
	note F_, 2
	octave 3
	note C_, 2
	octave 2
	note F_, 2
	octave 3
	note F_, 2
	octave 2
	note F_, 2
	octave 3
	note C_, 2
	octave 2
	note F_, 2
	octave 3
	note G_, 2
	octave 2
	note G_, 2
	octave 3
	note D_, 2
	octave 2
	note G_, 2
	octave 3
	note G_, 2
	octave 2
	note G_, 2
	octave 3
	note D_, 2
	octave 2
	note G_, 2
Music_SirdBattle_Ch3_loop:
	octave 3
	note D_, 2
	octave 2
	note D_, 2
	note A_, 2
	note D_, 2
	octave 3
	note D_, 2
	octave 2
	note D_, 2
	note A_, 2
	note D_, 2
	octave 3
	note D#, 2
	octave 2
	note D#, 2
	note A#, 2
	note D#, 2
	octave 3
	note D#, 2
	octave 2
	note D#, 2
	note A#, 2
	note D#, 2
	octave 3
	note F_, 2
	octave 2
	note F_, 2
	octave 3
	note C_, 2
	octave 2
	note F_, 2
	octave 3
	note F_, 2
	octave 2
	note F_, 2
	octave 3
	note C_, 2
	octave 2
	note F_, 2
	octave 3
	note G_, 2
	octave 2
	note G_, 2
	octave 3
	note D_, 2
	octave 2
	note G_, 2
	octave 3
	note G_, 2
	octave 2
	note G_, 2
	octave 3
	note D_, 2
	octave 2
	note G_, 2
	vibrato $00, $00
	octave 3
	note A_, 2
	octave 2
	note A_, 2
	octave 3
	note G_, 2
	octave 2
	note G_, 2
	octave 3
	note A_, 2
	note C_, 2
	octave 4
	note C_, 2
	octave 3
	note C_, 2
	note A_, 2
	octave 2
	note A_, 2
	octave 3
	note A_, 2
	octave 2
	note A_, 2
	octave 4
	note C_, 2
	octave 3
	note C_, 2
	octave 4
	note D_, 2
	octave 3
	note G_, 2
	note A_, 2
	octave 2
	note A_, 2
	octave 3
	note G_, 2
	octave 2
	note G_, 2
	octave 3
	note A_, 2
	note C_, 2
	octave 4
	note C_, 2
	octave 3
	note C_, 2
	note A_, 2
	octave 2
	note A_, 2
	octave 3
	note A_, 2
	octave 2
	note A_, 2
	octave 3
	note A_, 2
	octave 2
	note A_, 2
	intensity $26
	octave 3
	note A_, 2
	octave 2
	note A_, 2
	intensity $16
	octave 3
	note A_, 2
	octave 2
	note A_, 2
	octave 3
	note G_, 2
	octave 2
	note G_, 2
	octave 3
	note A_, 2
	note C_, 2
	octave 4
	note C_, 2
	octave 3
	note C_, 2
	note A_, 2
	octave 2
	note A_, 2
	octave 3
	note A_, 2
	octave 2
	note A_, 2
	octave 4
	note C_, 2
	octave 3
	note C_, 2
	octave 4
	note D_, 2
	octave 3
	note G_, 2
	note A_, 2
	octave 2
	note A_, 2
	octave 3
	note G_, 2
	octave 2
	note G_, 2
	octave 3
	note A_, 2
	note C_, 2
	octave 4
	note C_, 2
	octave 3
	note C_, 2
	note A_, 2
	octave 2
	note A_, 2
	octave 3
	note A_, 2
	octave 2
	note A_, 2
	octave 3
	note A_, 2
	octave 2
	note A_, 2
	intensity $26
	octave 3
	note A_, 2
	octave 2
	note A_, 2
	intensity $16
	octave 3
	note A_, 2
	octave 2
	note A_, 2
	octave 3
	note A_, 2
	octave 2
	note A_, 2
	octave 3
	note A_, 2
	octave 2
	note A_, 2
	octave 3
	note A_, 2
	octave 2
	note A_, 2
	octave 3
	note A_, 2
	octave 2
	note A_, 2
	octave 3
	note A_, 2
	octave 2
	note A_, 2
	octave 3
	note G_, 2
	octave 2
	note D_, 2
	octave 3
	note G_, 2
	octave 2
	note D_, 2
	octave 3
	note A_, 2
	octave 2
	note A_, 2
	octave 3
	note A_, 2
	octave 2
	note A_, 2
	octave 3
	note A_, 2
	octave 2
	note A_, 2
	octave 3
	note A_, 2
	octave 2
	note A_, 2
	octave 3
	note A_, 2
	octave 2
	note A_, 2
	octave 3
	note A_, 2
	octave 2
	note A_, 2
	octave 3
	note G_, 2
	octave 2
	note D_, 2
	octave 3
	note G_, 2
	octave 2
	note D_, 2
	octave 3
	note A_, 2
	octave 2
	note A_, 2
	octave 3
	note A_, 2
	octave 2
	note A_, 2
	octave 3
	note A_, 2
	octave 2
	note A_, 2
	octave 3
	note A_, 2
	octave 2
	note A_, 2
	octave 3
	note A_, 2
	octave 2
	note A_, 2
	octave 3
	note A_, 2
	octave 2
	note A_, 2
	octave 3
	note G_, 2
	octave 2
	note D_, 2
	octave 3
	note G_, 2
	octave 2
	note D_, 2
	octave 3
	note A_, 2
	octave 2
	note A_, 2
	octave 3
	note A_, 2
	octave 2
	note A_, 2
	octave 3
	note A_, 2
	octave 2
	note A_, 2
	octave 3
	note A_, 2
	octave 2
	note A_, 2
	octave 3
	note A_, 2
	octave 2
	note A_, 2
	octave 3
	note A_, 2
	octave 2
	note A_, 2
	octave 3
	note G_, 2
	octave 2
	note D_, 2
	octave 3
	note G_, 2
	octave 2
	note D_, 2
	octave 3
	note A_, 2
	octave 2
	note A_, 2
	octave 3
	note A_, 2
	octave 2
	note A_, 2
	octave 3
	note A_, 2
	octave 2
	note A_, 2
	octave 3
	note A_, 2
	octave 2
	note A_, 2
	octave 3
	note A_, 2
	octave 2
	note A_, 2
	octave 3
	note A_, 2
	octave 2
	note A_, 2
	octave 3
	note G_, 2
	octave 2
	note D_, 2
	octave 3
	note G_, 2
	octave 2
	note D_, 2
	octave 3
	note A_, 2
	octave 2
	note A_, 2
	octave 3
	note A_, 2
	octave 2
	note A_, 2
	octave 3
	note A_, 2
	octave 2
	note A_, 2
	octave 3
	note A_, 2
	octave 2
	note A_, 2
	octave 3
	note A_, 2
	octave 2
	note A_, 2
	octave 3
	note A_, 2
	octave 2
	note A_, 2
	octave 3
	note G_, 2
	octave 2
	note D_, 2
	octave 3
	note G_, 2
	octave 2
	note D_, 2
	octave 3
	note A_, 2
	octave 2
	note A_, 2
	octave 3
	note A_, 2
	octave 2
	note A_, 2
	octave 3
	note A_, 2
	octave 2
	note A_, 2
	octave 3
	note A_, 2
	octave 2
	note A_, 2
	octave 3
	note A_, 2
	octave 2
	note A_, 2
	octave 3
	note A_, 2
	octave 2
	note A_, 2
	octave 3
	note G_, 2
	octave 2
	note D_, 2
	octave 3
	note G_, 2
	octave 2
	note D_, 2
	octave 3
	note A_, 2
	octave 2
	note A_, 2
	octave 3
	note A_, 2
	octave 2
	note A_, 2
	octave 3
	note A_, 2
	octave 2
	note A_, 2
	octave 3
	note A_, 2
	octave 2
	note A_, 2
	octave 3
	note A_, 2
	octave 2
	note A_, 2
	octave 3
	note A_, 2
	octave 2
	note A_, 2
	octave 3
	note G_, 2
	octave 2
	note D_, 2
	octave 3
	note G_, 2
	octave 2
	note D_, 2
	octave 3
	note A_, 2
	octave 2
	note A_, 2
	octave 3
	note A_, 2
	octave 2
	note A_, 2
	octave 3
	note A_, 2
	octave 2
	note A_, 2
	octave 3
	note A_, 2
	octave 2
	note A_, 2
	octave 3
	note A_, 2
	octave 2
	note A_, 2
	octave 3
	note A_, 2
	octave 2
	note A_, 2
	octave 3
	note G_, 2
	octave 2
	note D_, 2
	octave 3
	note G_, 2
	octave 2
	note D_, 2
	octave 3
	note A_, 2
	octave 2
	note A_, 2
	octave 3
	note A_, 2
	octave 2
	note A_, 2
	octave 3
	note A_, 2
	octave 2
	note A_, 2
	octave 3
	note A_, 2
	octave 2
	note A_, 2
	octave 3
	note A_, 2
	octave 2
	note A_, 2
	octave 3
	note A_, 2
	octave 2
	note A_, 2
	octave 3
	note G_, 2
	octave 2
	note D_, 2
	octave 3
	note G_, 2
	octave 2
	note D_, 2
	octave 3
	note A_, 2
	octave 2
	note A_, 2
	octave 3
	note A_, 2
	octave 2
	note A_, 2
	octave 3
	note A_, 2
	octave 2
	note A_, 2
	octave 3
	note A_, 2
	octave 2
	note A_, 2
	octave 3
	note A_, 2
	octave 2
	note A_, 2
	octave 3
	note A_, 2
	octave 2
	note A_, 2
	octave 3
	note G_, 2
	octave 2
	note D_, 2
	octave 3
	note G_, 2
	octave 2
	note D_, 2
	octave 3
	note A_, 2
	octave 2
	note A_, 2
	octave 3
	note A_, 2
	octave 2
	note A_, 2
	octave 3
	note A_, 2
	octave 2
	note A_, 2
	octave 3
	note A_, 2
	octave 2
	note A_, 2
	octave 3
	note A_, 2
	octave 2
	note A_, 2
	octave 3
	note A_, 2
	octave 2
	note A_, 2
	octave 3
	note G_, 2
	octave 2
	note D_, 2
	octave 3
	note G_, 2
	octave 2
	note D_, 2
	octave 3
	note D_, 16
	octave 2
	note A#, 8
	note A_, 6
	note C#, 2
	note D_, 8
	octave 3
	note D_, 8
	octave 2
	note F_, 8
	note G_, 8
	octave 3
	note D_, 2
	octave 2
	note D_, 2
	note A_, 2
	note D_, 2
	octave 3
	note D_, 2
	octave 2
	note D_, 2
	note A_, 2
	note D_, 2
	octave 3
	note D#, 2
	octave 2
	note D#, 2
	note A#, 2
	note D#, 2
	octave 3
	note D#, 2
	octave 2
	note D#, 2
	note A#, 2
	note D#, 2
	octave 3
	note F_, 2
	octave 2
	note F_, 2
	octave 3
	note C_, 2
	octave 2
	note F_, 2
	octave 3
	note F_, 2
	octave 2
	note F_, 2
	octave 3
	note C_, 2
	octave 2
	note F_, 2
	octave 3
	note G_, 2
	octave 2
	note G_, 2
	octave 3
	note D_, 2
	octave 2
	note G_, 2
	octave 3
	note G_, 2
	octave 2
	note G_, 2
	octave 3
	note D_, 2
	octave 2
	note G_, 2
	loopchannel 0, Music_SirdBattle_Ch3_loop
