Music_SlateportCity:
	musicheader 4, 1, Music_SlateportCity_Ch1
	musicheader 1, 2, Music_SlateportCity_Ch2
	musicheader 1, 3, Music_SlateportCity_Ch3
	musicheader 1, 4, Music_SlateportCity_Ch4

Music_SlateportCity_Ch1:
	tempo 152
	volume $77
	vibrato $6, $23
	notetype $c, $72
	note __, 8
Music_SlateportCity_Ch1_loop:
	intensity $72
	callchannel Music_SlateportCity_Ch1_branch_1
	note __, 2
	intensity $97
	octave 2
	note B_, 2
	note A_, 4
	note B_, 4
	octave 3
	note C#, 4
Music_SlateportCity_Ch1_section_1:
	intensity $87
	dutycycle 0
	octave 3
	note G_, 6
	intensity $82
	note G_, 1
	note G_, 1
	note G_, 2
	note F#, 2
	intensity $87
	note G_, 4
	octave 4
	note C#, 4
	octave 3
	intensity $82
	note A_, 2
	note G#, 1
	note A_, 1
	intensity $87
	note E_, 4
	note A_, 4
	note A_, 6
	intensity $82
	note F#, 1
	note A_, 1
	octave 4
	note C_, 2
	octave 3
	note A_, 2
	note F_, 2
	intensity $87
	note F#, 6
	intensity $82
	note A_, 2
	note G#, 1
	note A_, 1
	note D#, 2
	intensity $87
	note A_, 4
	intensity $82
	note B_, 2
Music_SlateportCity_Ch1_section_2:
	intensity $87
	note G_, 4
	intensity $82
	note D_, 2
	note C#, 1
	note D_, 1
	note B_, 2
	note E_, 1
	note G_, 1
	note G_, 2
	note F#, 1
	note G_, 1
	intensity $87
	note A_, 4
	intensity $82
	note G_, 2
	note F#, 1
	note G_, 1
	octave 4
	note C#, 1
	note C#, 1
	note C_, 1
	note C#, 1
	octave 3
	intensity $87
	note A_, 4
	octave 4
	note D_, 4
	intensity $82
	note D_, 2
	note D_, 1
	note D_, 1
	intensity $87
	note D_, 4
	intensity $82
	note D_, 2
	note D_, 1
	note D_, 1
	intensity $87
	note C#, 6
	intensity $82
	octave 3
	note A_, 1
	octave 4
	note C#, 1
	octave 3
	dutycycle 2
	octave 5
	note G_, 1
	note E_, 1
	note G_, 1
	note A_, 1
	note B_, 1
	octave 6
	note C#, 1
	note D_, 1
	octave 5
	note B_, 1
Music_SlateportCity_Ch1_section_3:
	dutycycle 3
	intensity $75
	octave 3
	note D_, 2
	note G_, 2
	note B_, 2
	octave 4
	intensity $72
	note E_, 2
	intensity $75
	note F#, 4
	intensity $72
	note E_, 2
	intensity $75
	note F#, 4
	intensity $72
	note E_, 2
	note F#, 2
	intensity $75
	note C#, 4
	octave 3
	note A_, 2
	note G_, 4
	note E_, 2
	note A_, 2
	octave 4
	note C_, 2
	intensity $72
	note F#, 2
	intensity $75
	note A_, 4
	intensity $72
	note G_, 2
	intensity $75
	note A_, 4
	note G_, 2
	note A_, 2
	note G_, 2
	note D#, 2
	octave 3
	note B_, 2
	note A_, 2
	note D#, 2
	intensity $72
	octave 4
	note C_, 1
	octave 3
	note G_, 1
	note E_, 1
	note G_, 1
	octave 4
	note C_, 1
	octave 3
	note G_, 1
	octave 4
	note C_, 1
	note E_, 1
	note G_, 1
	note E_, 1
	note C_, 1
	note G_, 1
	octave 5
	note C_, 1
	octave 4
	note G_, 1
	octave 5
	note C_, 1
	note E_, 1
	octave 4
	note C#, 1
	octave 3
	note G_, 1
	note E_, 1
	note G_, 1
	octave 4
	note C#, 1
	octave 3
	note G_, 1
	octave 4
	note C#, 1
	note E_, 1
	note G_, 1
	note E_, 1
	note C#, 1
	note G_, 1
	octave 5
	note C#, 1
	octave 4
	note B_, 1
	octave 5
	note G_, 1
	note A_, 1
	octave 3
	intensity $77
	note B_, 6
	note A_, 1
	note B_, 1
	octave 4
	note C#, 4
	note E_, 2
	note D_, 1
	octave 3
	note A_, 1
	note E_, 1
	note C#, 1
	note E_, 1
	note A_, 1
	octave 4
	note C#, 1
	octave 3
	note A_, 1
	octave 4
	note C#, 1
	note E_, 1
	note A_, 1
	note E_, 1
	note A_, 1
	octave 5
	note C#, 1
	note E_, 1
	note C#, 1
	octave 4
	note A_, 1
	note E_, 1
	intensity $72
	dutycycle 0
	callchannel Music_SlateportCity_Ch1_branch_1
	intensity $97
	octave 2
	note B_, 4
	note A_, 4
	note B_, 4
	octave 3
	note C#, 4
	intensity $72
	dutycycle 0
	callchannel Music_SlateportCity_Ch1_branch_1
	intensity $97
	octave 2
	note B_, 4
	note A_, 4
	note B_, 4
	octave 3
	note E_, 4
	note B_, 4
	note A_, 4
	note B_, 4
	octave 4
	note E_, 4
	octave 2
	note __, 2
	note B_, 2
	note A_, 4
	note B_, 4
	octave 3
	note C#, 4
Music_SlateportCity_Ch1_section_4:
	octave 4
	intensity $50
	note F_, 10
	intensity $57
	note F_, 4
	intensity $52
	note G_, 1
	note F_, 1
	intensity $50
	note E_, 12
	intensity $57
	note E_, 4
	intensity $50
	note D#, 12
	intensity $57
	note D#, 4
	octave 2
	intensity $72
	dutycycle 2
	note G_, 1
	note D_, 1
	note G_, 1
	note B_, 1
	intensity $92
	octave 3
	note D_, 1
	octave 2
	note B_, 1
	octave 3
	note D_, 1
	note F#, 1
	intensity $a2
	note G_, 1
	note D_, 1
	note G_, 1
	note A_, 1
	intensity $c2
	note B_, 1
	octave 4
	note C_, 1
	note D_, 1
	octave 3
	note G_, 1
	dutycycle 0
	intensity $50
	octave 4
	note F_, 10
	intensity $57
	note F_, 4
	octave 5
	intensity $52
	note C_, 1
	octave 4
	note A_, 1
	intensity $50
	note G_, 12
	intensity $57
	note G_, 4
	intensity $50
	note E_, 12
	intensity $57
	note E_, 4
	intensity $50
	note D_, 6
	intensity $57
	note D_, 2
	intensity $50
	note F#, 6
	intensity $57
	note F#, 2
	intensity $72
	octave 3
	note B_, 1
	octave 4
	note E_, 1
	note D#, 1
	note E_, 1
	note B_, 1
	note D#, 1
	note E_, 1
	note D#, 1
	note B_, 1
	note E_, 1
	note D#, 1
	note E_, 1
	note B_, 1
	note E_, 1
	note B_, 1
	note A_, 1
	note G#, 1
	note E_, 1
	note F#, 1
	note E_, 1
	note B_, 1
	note D#, 1
	note E_, 1
	note D#, 1
	octave 5
	note C#, 1
	octave 4
	note E_, 1
	note D#, 1
	note E_, 1
	note B_, 1
	note E_, 1
	note B_, 1
	note A_, 1
	note G#, 1
	note E_, 1
	note F#, 1
	note E_, 1
	note G#, 1
	octave 3
	note B_, 1
	octave 4
	note F#, 1
	octave 3
	note B_, 1
	octave 4
	note E_, 1
	octave 3
	note B_, 1
	octave 4
	note D#, 1
	octave 3
	note B_, 1
	octave 4
	note C#, 1
	octave 3
	note B_, 1
	octave 4
	note D#, 1
	octave 3
	note B_, 1
	intensity $97
	note __, 2
	note C#, 2
	octave 2
	note B_, 4
	note B_, 4
	octave 3
	note C#, 4
	loopchannel 0, Music_SlateportCity_Ch1_loop

Music_SlateportCity_Ch1_branch_1:
	octave 3
	note A_, 1
	octave 4
	note D_, 1
	note C#, 1
	note D_, 1
	note A_, 1
	note C#, 1
	note D_, 1
	note C#, 1
	note A_, 1
	note D_, 1
	note C#, 1
	note D_, 1
	note A_, 1
	note D_, 1
	note A_, 1
	note G_, 1
	note F#, 1
	note D_, 1
	note E_, 1
	note D_, 1
	note A_, 1
	note C#, 1
	note D_, 1
	note C#, 1
	note B_, 1
	note D_, 1
	note C#, 1
	note D_, 1
	note A_, 1
	note D_, 1
	note A_, 1
	note G_, 1
	note F#, 1
	note D_, 1
	note E_, 1
	note D_, 1
	note F#, 1
	octave 3
	note A_, 1
	octave 4
	note E_, 1
	octave 3
	note A_, 1
	octave 4
	note D_, 1
	octave 3
	note A_, 1
	octave 4
	note C#, 1
	octave 3
	note A_, 1
	note B_, 1
	note A_, 1
	octave 4
	note C#, 1
	octave 3
	note A_, 1
	endchannel

Music_SlateportCity_Ch2:
	notetype $c, $b3
	note __, 8
Music_SlateportCity_Ch2_loop:
	intensity $b3
	dutycycle 2
	octave 5
	note F#, 4
	note D_, 4
	note E_, 4
	octave 4
	note A_, 4
	octave 5
	note F#, 4
	note D_, 4
	note E_, 4
	note A_, 4
	note B_, 4
	note G_, 4
	note A_, 4
	note F#, 6
	dutycycle 3
	intensity $a4
	octave 3
	note G_, 2
	intensity $a7
	note F#, 4
	note D_, 4
	note E_, 4
	note __, 6
	dutycycle 2
	intensity $b4
	vibrato $8, $23
	octave 4
	note D_, 1
	note D_, 1
	note D_, 2
	note C#, 2
	note D_, 2
	note E_, 4
	note F#, 1
	note E_, 1
	note C#, 2
	octave 3
	note B_, 2
	octave 4
	note C#, 2
	octave 3
	note A_, 4
	note F#, 1
	note G_, 1
	intensity $b6
	note A_, 6
	intensity $b4
	note F#, 1
	note G_, 1
	note A_, 2
	note B_, 2
	octave 4
	note C_, 2
	octave 3
	note B_, 4
	octave 4
	note C_, 1
	octave 3
	note B_, 1
	note A_, 2
	note G_, 4
	note F#, 4
	note G_, 2
	intensity $b6
	note E_, 6
	intensity $b4
	note E_, 1
	note E_, 1
	note E_, 2
	note G_, 2
	octave 4
	note E_, 2
	note D_, 2
	note C#, 2
	octave 3
	note B_, 2
	octave 4
	note C#, 2
	octave 3
	note A_, 8
	note F_, 1
	note G_, 1
	note A_, 6
	note A_, 1
	note A_, 1
	note A_, 2
	note G_, 4
	note E_, 1
	note G_, 1
	intensity $b0
	note A_, 4
	intensity $b7
	note A_, 12
	dutycycle 3
	octave 1
	intensity $64
	note E_, 6
	note E_, 1
	note E_, 1
	note E_, 2
	note E_, 2
	octave 2
	note C#, 2
	octave 1
	note B_, 2
	note A_, 6
	note A_, 1
	note A_, 1
	note G_, 2
	note A_, 4
	note G_, 2
	note F#, 6
	note F#, 1
	note F#, 1
	note E_, 2
	note F#, 4
	note E_, 2
	note F#, 6
	note F#, 1
	note F#, 1
	note E_, 2
	note F#, 4
	note F_, 2
	octave 2
	note C_, 2
	note C_, 2
	note C_, 2
	note C_, 2
	note C_, 2
	note C_, 2
	note B_, 1
	octave 3
	note C_, 1
	octave 2
	note C_, 2
	note C#, 2
	note C#, 2
	note C#, 2
	note C#, 2
	note C#, 2
	note C#, 2
	octave 3
	note C_, 1
	note C#, 1
	octave 2
	note B_, 2
	note A_, 2
	note A_, 2
	note A_, 2
	note A_, 2
	note A_, 2
	note A_, 2
	note A_, 2
	note A_, 2
	intensity $b3
	vibrato $0, $0
	dutycycle 2
	octave 5
	note A_, 4
	note G_, 4
	note F#, 4
	note G_, 4
	note F#, 4
	note D_, 4
	note E_, 4
	octave 4
	note A_, 4
	octave 5
	note F#, 4
	note D_, 4
	note E_, 4
	note A_, 4
	note B_, 4
	note G_, 4
	note A_, 4
	note F#, 4
	dutycycle 3
	intensity $a7
	octave 3
	note G_, 4
	note F#, 4
	note D_, 4
	note E_, 4
	intensity $b3
	octave 5
	note F#, 4
	note D_, 4
	note E_, 4
	octave 4
	note A_, 4
	octave 5
	note F#, 4
	note D_, 4
	note E_, 4
	note A_, 4
	note B_, 4
	note G_, 4
	note A_, 4
	note F#, 4
	intensity $a7
	octave 4
	note G_, 4
	note F#, 4
	note D_, 4
	note E_, 4
	dutycycle 2
	note G_, 4
	note F#, 4
	note D_, 4
	note E_, 4
	dutycycle 1
	octave 3
	note __, 2
	note G_, 2
	note F#, 4
	note D_, 4
	note E_, 4
Music_SlateportCity_Ch2_section_1:
	note __, 8
	vibrato $8, $23
	intensity $b4
	octave 4
	note F_, 2
	note E_, 2
	note F_, 2
	note G_, 2
	octave 5
	note D_, 4
	note C_, 2
	octave 4
	note A#, 4
	octave 5
	intensity $b3
	note C_, 6
	octave 4
	intensity $b6
	note A#, 6
	note G#, 4
	intensity $b2
	note G_, 2
	note G#, 2
	octave 5
	note C_, 2
	octave 4
	intensity $b0
	note B_, 4
	intensity $b7
	note B_, 16
	note __, 4
	intensity $b4
	octave 5
	note C_, 2
	octave 4
	note B_, 2
	octave 5
	note C_, 2
	note D_, 2
	note E_, 4
	note D_, 2
	note C_, 4
	octave 4
	intensity $b3
	note G_, 6
	intensity $b4
	octave 5
	note C_, 2
	octave 4
	note B_, 2
	note A_, 2
	note B_, 4
	octave 5
	note C_, 2
	octave 4
	note G_, 4
	note F#, 2
	intensity $b2
	note F_, 2
	intensity $b4
	note F#, 2
	intensity $b2
	note G_, 2
	intensity $b4
	note G#, 2
	intensity $b2
	note A_, 2
	intensity $b4
	note A#, 2
	intensity $b2
	note D_, 2
	vibrato $0, $0
	intensity $b3
	note G#, 4
	note E_, 4
	note F#, 4
	octave 3
	note B_, 4
	octave 4
	note G#, 4
	note E_, 4
	note F#, 4
	note B_, 4
	octave 5
	note C#, 4
	octave 4
	note A_, 4
	note B_, 4
	note G#, 6
	octave 3
	intensity $a4
	note A_, 2
	intensity $a7
	note G#, 4
	note D_, 4
	note E_, 4
	loopchannel 0, Music_SlateportCity_Ch2_loop

Music_SlateportCity_Ch3:
	notetype $6, $26
	note __, 16
Music_SlateportCity_Ch3_loop:
	octave 3
	note D_, 4
	note __, 4
	note D_, 2
	note __, 2
	octave 2
	note A_, 2
	note __, 2
	octave 3
	note C#, 2
	note __, 2
	octave 2
	note A_, 2
	note __, 2
	octave 3
	note C#, 2
	note __, 2
	octave 2
	note A_, 2
	note __, 2
	note B_, 4
	note __, 4
	note B_, 2
	note __, 2
	note F#, 2
	note __, 2
	note A_, 2
	note __, 2
	note E_, 2
	note __, 2
	note A_, 2
	note __, 2
	note E_, 2
	note F#, 2
	note G_, 10
	note __, 2
	note A_, 2
	note __, 2
	note F#, 10
	note __, 2
	note D_, 2
	note __, 2
	octave 3
	note E_, 2
	note __, 2
	octave 2
	note E_, 2
	note __, 2
	note E_, 8
	note G_, 8
	note A_, 8
Music_SlateportCity_Ch3_section_1:
	note E_, 2
	note __, 10
	note E_, 1
	note __, 1
	note E_, 1
	note __, 1
	note E_, 2
	note __, 2
	note E_, 2
	note __, 2
	octave 3
	note C#, 2
	note __, 2
	octave 2
	note B_, 2
	note __, 2
	note A_, 2
	note __, 10
	note A_, 1
	note __, 1
	note A_, 1
	note __, 1
	note G_, 1
	note __, 1
	note A_, 1
	note __, 1
	note E_, 2
	note __, 2
	note G_, 1
	note __, 1
	note A_, 1
	note __, 1
	note G#, 2
	note __, 2
	note F#, 2
	note __, 10
	note F#, 1
	note __, 1
	note F#, 1
	note __, 1
	note E_, 2
	note __, 2
	note F#, 2
	note __, 6
	note D#, 2
	note __, 2
	note F#, 2
	note __, 10
	note F#, 1
	note __, 1
	note F#, 1
	note __, 1
	note D#, 2
	note __, 2
	note F#, 4
	note A#, 1
	note __, 1
	note B_, 1
	note __, 1
	note F_, 4
Music_SlateportCity_Ch3_section_2:
	note E_, 2
	note __, 10
	note E_, 1
	note __, 1
	note E_, 1
	note __, 1
	note E_, 2
	note __, 2
	note D_, 8
	note D#, 2
	note __, 2
	note E_, 2
	note __, 10
	note E_, 1
	note __, 1
	note E_, 1
	note __, 1
	note A_, 2
	note __, 2
	note A_, 8
	note G_, 2
	note __, 2
	note A#, 2
	note __, 10
	note A#, 1
	note __, 1
	note A#, 1
	note __, 1
	note E_, 2
	note __, 2
	note D_, 8
	note B_, 2
	note __, 2
	note A_, 2
	note __, 10
	note A_, 1
	note __, 1
	note A_, 1
	note __, 1
	note G_, 2
	note __, 2
	note G_, 2
	note __, 2
	note G_, 1
	note __, 1
	note A_, 1
	note __, 1
	note F_, 4
Music_SlateportCity_Ch3_section_3:
	note __, 16
	intensity $10
	octave 6
	note G_, 4
	note F#, 4
	note E_, 4
	note F#, 8
	note G_, 2
	note F#, 2
	note E_, 8
	note C#, 8
	note E_, 4
	note F#, 4
	intensity $20
	note F#, 12
	intensity $10
	note F#, 1
	note __, 1
	note F#, 1
	note __, 1
	note F#, 4
	note G_, 4
	note A_, 4
	note G_, 8
	note A_, 2
	note G_, 2
	note F#, 8
	note E_, 8
	note F#, 8
	note G_, 4
	note __, 2
	note F#, 4
	note __, 2
	note E_, 12
	intensity $20
	note E_, 8
	intensity $10
	note G_, 4
	note __, 2
	note F#, 4
	note __, 2
	note E_, 8
	intensity $20
	note E_, 8
	intensity $10
	note D#, 2
	note E_, 16
	note E_, 6
	intensity $20
	note E_, 12
	notetype $6, $26
	octave 3
	note A_, 2
	note __, 6
	note A_, 2
	note __, 2
	note A_, 1
	note __, 1
	note A_, 1
	note __, 1
	note G_, 2
	note __, 2
	note A_, 2
	note __, 2
	note G_, 1
	note __, 1
	note A_, 1
	note __, 1
	note E_, 4
Music_SlateportCity_Ch3_section_4:
	note D_, 4
	note __, 4
	note D_, 2
	note __, 2
	octave 2
	note A_, 2
	note __, 2
	octave 3
	note C#, 2
	note __, 2
	octave 2
	note A_, 2
	note __, 2
	octave 3
	note C#, 2
	note __, 2
	octave 2
	note A_, 2
	note __, 2
	note B_, 4
	note __, 4
	note B_, 2
	note __, 2
	note F#, 2
	note __, 2
	note A_, 2
	note __, 2
	note E_, 2
	note __, 2
	note A_, 2
	note __, 2
	note F#, 2
	note __, 2
	note G_, 10
	note __, 2
	note A_, 2
	note __, 2
	note F#, 10
	note __, 2
	note D_, 2
	note __, 2
	note G#, 1
	note __, 1
	note A_, 1
	note __, 1
	note E_, 2
	note __, 2
	note E_, 2
	note __, 2
	note D#, 2
	note __, 2
	note A_, 2
	note __, 2
	note E_, 1
	note __, 1
	note A_, 1
	note __, 1
	octave 3
	note C#, 8
Music_SlateportCity_Ch3_section_5:
	note D_, 4
	note __, 4
	note D_, 2
	note __, 2
	note E_, 2
	note __, 2
	note C#, 2
	note __, 2
	note C#, 4
	note __, 4
	octave 2
	note A_, 2
	note __, 2
	note B_, 4
	note __, 4
	note B_, 2
	note __, 2
	octave 3
	note D_, 2
	note __, 2
	octave 2
	note A_, 2
	note __, 2
	note A_, 4
	note __, 4
	note F#, 2
	note __, 2
	note G_, 4
	note __, 4
	note G_, 2
	note __, 2
	note A_, 2
	note __, 2
	note F#, 2
	note __, 2
	note F#, 8
	note D_, 2
	note __, 2
	note E_, 2
	note __, 2
	note E_, 2
	note __, 2
	note E_, 8
	note G_, 8
	note A_, 4
	note G_, 2
	note G#, 2
	note A_, 2
	note __, 2
	note E_, 2
	note __, 2
	note E_, 8
	note G_, 8
	note A_, 8
	note E_, 2
	note __, 2
	note G_, 2
	note __, 2
	note G_, 8
	note G#, 8
	note A_, 8
Music_SlateportCity_Ch3_section_6:
	note A#, 4
	note __, 8
	note A#, 1
	note __, 1
	note A#, 1
	note __, 1
	note F_, 2
	note __, 2
	note F_, 4
	note A#, 2
	note __, 2
	note F_, 2
	note __, 2
	note A_, 4
	note __, 8
	note A_, 1
	note __, 1
	note A_, 1
	note __, 1
	note E_, 2
	note __, 2
	note E_, 4
	note G#, 1
	note __, 1
	note A_, 1
	note __, 1
	note E_, 4
	note G#, 4
	note __, 8
	note G#, 1
	note __, 1
	note G#, 1
	note __, 1
	note D#, 2
	note __, 2
	note D#, 4
	note G#, 2
	note __, 2
	note D#, 2
	note __, 2
	note G_, 4
	note __, 8
	note G_, 1
	note __, 1
	note G_, 1
	note __, 1
	note D_, 2
	note __, 2
	note D_, 4
	note G_, 2
	note __, 2
	note D_, 2
	note __, 2
	note A#, 4
	note __, 8
	note A#, 1
	note __, 1
	note A#, 1
	note __, 1
	note F_, 2
	note __, 2
	note F_, 4
	note A#, 4
	note __, 4
	octave 3
	note C_, 4
	note __, 8
	note C_, 1
	note __, 1
	note C_, 1
	note __, 1
	octave 2
	note G_, 2
	note __, 2
	note G_, 4
	note B_, 1
	note __, 1
	octave 3
	note C_, 1
	note __, 1
	octave 2
	note G_, 4
	note A_, 2
	note __, 2
	note A_, 3
	note __, 1
	note A_, 2
	note __, 2
	note A_, 3
	note __, 1
	note A_, 2
	note __, 2
	note A_, 3
	note __, 1
	octave 3
	note A_, 2
	note __, 2
	octave 2
	note A_, 3
	note __, 1
	note A_, 2
	note __, 2
	note A_, 3
	note __, 1
	note A_, 2
	note __, 2
	note A_, 3
	note __, 1
	octave 3
	note D_, 2
	note __, 2
	note D_, 3
	note __, 1
	octave 4
	note D_, 2
	note __, 2
	note C_, 3
	note __, 1
	octave 3
	note E_, 10
	note __, 2
	note E_, 2
	note __, 2
	note D#, 10
	note __, 2
	note D#, 2
	note __, 2
	note C#, 10
	note __, 2
	note C#, 2
	note __, 2
	octave 2
	note B_, 10
	note __, 2
	note B_, 2
	note __, 2
	note A_, 10
	note __, 2
	note A_, 2
	note __, 2
	note G#, 10
	note __, 2
	note G#, 2
	note __, 2
	note F#, 2
	note __, 2
	note F#, 2
	note __, 2
	note F#, 8
	note G_, 8
	note A_, 8
	loopchannel 0, Music_SlateportCity_Ch3_loop

Music_SlateportCity_Ch4:
	togglenoise $3
	notetype $6
	note D#, 4
	note D_, 4
	note D#, 2
	note D#, 2
	note D_, 4
Music_SlateportCity_Ch4_loop_main:
Music_SlateportCity_Ch4_loop_0:
	callchannel Music_SlateportCity_Ch4_branch_3
	loopchannel 2, Music_SlateportCity_Ch4_loop_0
Music_SlateportCity_Ch4_loop_1:
	note F#, 4
	note F#, 4
	note D_, 4
	note F#, 2
	note F#, 2
	loopchannel 7, Music_SlateportCity_Ch4_loop_1
	note F#, 4
	note F#, 4
	note D_, 4
	note B_, 4
Music_SlateportCity_Ch4_loop_2:
	note F#, 4
	note F#, 4
	note D_, 4
	note F#, 2
	note F#, 2
	loopchannel 7, Music_SlateportCity_Ch4_loop_2
	note F#, 4
	note B_, 4
	note D_, 4
	note B_, 4
Music_SlateportCity_Ch4_loop_3:
	note F#, 4
	note F#, 4
	note D_, 4
	note F#, 2
	note F#, 2
	loopchannel 2, Music_SlateportCity_Ch4_loop_3
	note F#, 2
	note B_, 2
	note F#, 4
	note D_, 4
	note F#, 2
	note F#, 2
Music_SlateportCity_Ch4_loop_4:
	note F#, 4
	note F#, 4
	note D_, 4
	note F#, 2
	note F#, 2
	loopchannel 3, Music_SlateportCity_Ch4_loop_4
	note F#, 2
	note B_, 2
	note F#, 4
	note D_, 4
	note F#, 2
	note F#, 2
	note F#, 4
	note B_, 4
	note D_, 4
	note B_, 4
Music_SlateportCity_Ch4_loop_5:
	note C_, 4
	note F#, 4
	note C_, 4
	note F#, 2
	note C_, 1
	note C_, 1
	note C_, 4
	note F#, 4
	note C_, 2
	note D_, 2
	note F#, 4
	loopchannel 2, Music_SlateportCity_Ch4_loop_5
Music_SlateportCity_Ch4_loop_6:
	callchannel Music_SlateportCity_Ch4_branch_3
	loopchannel 5, Music_SlateportCity_Ch4_loop_6
Music_SlateportCity_Ch4_loop_7:
	note C_, 4
	note F#, 4
	note C_, 4
	note F#, 2
	note C_, 1
	note C_, 1
	note C_, 4
	note F#, 4
	note C_, 2
	note D_, 2
	note F#, 4
	loopchannel 2, Music_SlateportCity_Ch4_loop_7
	callchannel Music_SlateportCity_Ch4_branch_1
	callchannel Music_SlateportCity_Ch4_branch_2
	callchannel Music_SlateportCity_Ch4_branch_1
	note C_, 4
	note F#, 4
	note C_, 4
	note F#, 2
	note F#, 2
	note C_, 2
	note C_, 2
	note F#, 4
	note C_, 4
	note C_, 2
	note C_, 2
	callchannel Music_SlateportCity_Ch4_branch_1
	callchannel Music_SlateportCity_Ch4_branch_2
	note C_, 4
	note F#, 2
	note C_, 1
	note D_, 1
	note C_, 4
	note F#, 2
	note C_, 1
	note D_, 1
	note C_, 4
	note F#, 2
	note C_, 1
	note D_, 1
	note C_, 2
	note C_, 2
	note F#, 2
	note F#, 2
	note C_, 4
	note F#, 4
	note C_, 4
	note F#, 2
	note C_, 1
	note D#, 1
	note C_, 4
	note F#, 4
	note C_, 2
	note C_, 2
	note F#, 2
	note F#, 2
Music_SlateportCity_Ch4_loop_8:
	callchannel Music_SlateportCity_Ch4_branch_3
	loopchannel 2, Music_SlateportCity_Ch4_loop_8
	loopchannel 0, Music_SlateportCity_Ch4_loop_main

Music_SlateportCity_Ch4_branch_1:
	note D_, 4
	note F#, 2
	note C_, 1
	note C_, 1
	note C_, 4
	note F#, 2
	note F#, 2
	note D_, 4
	note F#, 4
	note C_, 4
	note F#, 2
	note F#, 2
	endchannel

Music_SlateportCity_Ch4_branch_2:
	note D_, 4
	note F#, 2
	note C_, 1
	note C_, 1
	note C_, 4
	note F#, 2
	note F#, 2
	note D#, 2
	note C_, 2
	note D#, 4
	note C_, 2
	note D#, 2
	note F#, 2
	note F#, 2
	endchannel

Music_SlateportCity_Ch4_branch_3:
	note C_, 4
	note F#, 4
	note C_, 4
	note F#, 2
	note C_, 1
	note C_, 1
	note C_, 4
	note F#, 4
	note C_, 4
	note F#, 4
	note C_, 4
	note F#, 4
	note C_, 4
	note F#, 2
	note C_, 1
	note C_, 1
	note C_, 4
	note F#, 4
	note C_, 2
	note D_, 2
	note F#, 4
	endchannel