Music_SootopolisCity:
	musicheader 4, 1, Music_SootopolisCity_Ch1
	musicheader 1, 2, Music_SootopolisCity_Ch2
	musicheader 1, 3, Music_SootopolisCity_Ch3
	musicheader 1, 4, Music_SootopolisCity_Ch4

Music_SootopolisCity_Ch1:
	tempo 152
	volume $77
	vibrato $6, $23
	dutycycle 2
	notetype $8, $72
	note __, 3
Music_SootopolisCity_Ch1_loop_main:
	intensity $72
	octave 2
	note B_, 4
	octave 3
	note F#, 6
	octave 2
	note B_, 2
	octave 3
	note F#, 4
	octave 2
	note B_, 2
	note B_, 4
	note B_, 2
	octave 3
	intensity $74
	note G#, 4
	octave 2
	intensity $72
	note B_, 2
	octave 3
	note F#, 2
	note E_, 2
	note C#, 2
	octave 2
	note B_, 4
	octave 3
	note A_, 6
	octave 2
	note B_, 2
	octave 3
	note A_, 4
	octave 2
	note B_, 2
	note B_, 4
	note B_, 2
	octave 3
	intensity $74
	note G#, 6
	intensity $72
	note G#, 2
	note F#, 2
	note E_, 2
	octave 2
	note B_, 4
	octave 3
	note F#, 6
	octave 2
	note B_, 2
	octave 3
	note F#, 4
	octave 2
	note B_, 2
	note B_, 4
	note B_, 2
	octave 3
	intensity $74
	note G#, 4
	octave 2
	intensity $72
	note B_, 2
	octave 3
	note F#, 2
	note E_, 2
	note C#, 2
	octave 2
	note B_, 4
	octave 3
	note A_, 6
	octave 2
	note B_, 2
	octave 3
	note A_, 4
	octave 2
	note B_, 2
	note B_, 4
	note B_, 2
	octave 3
	intensity $75
	note B_, 12
	intensity $72
	note D_, 4
	note F#, 6
	note F_, 2
	note F#, 4
	note D_, 2
	note C#, 4
	note F#, 6
	note F_, 2
	note F#, 4
	note C#, 2
	note C_, 4
	note F#, 6
	note F_, 2
	note F#, 2
	note E_, 2
	note D_, 2
	intensity $73
	note E_, 4
	octave 2
	intensity $72
	note B_, 2
	octave 3
	intensity $73
	note D#, 4
	octave 2
	intensity $72
	note B_, 2
	octave 3
	intensity $74
	note E_, 6
	intensity $72
	note D_, 4
	note E_, 6
	note F#, 2
	intensity $74
	note E_, 4
	intensity $72
	octave 2
	note B_, 2
	note A_, 4
	octave 3
	note D_, 6
	note C#, 2
	intensity $74
	note D_, 4
	octave 2
	intensity $72
	note A_, 2
	note G#, 4
	octave 3
	note D_, 6
	note E_, 2
	note D_, 2
	note C#, 2
	octave 2
	note B_, 2
	note A#, 2
	note F#, 2
	note C#, 2
	note B_, 2
	note F#, 2
	note C#, 2
	octave 3
	note C#, 2
	octave 2
	note A#, 2
	note F#, 2
	intensity $82
	octave 3
	note F#, 4
	note B_, 6
	note A#, 2
	intensity $84
	note B_, 4
	intensity $82
	note F#, 2
	note F#, 4
	note A#, 6
	note G#, 2
	intensity $84
	note A#, 4
	intensity $82
	note F#, 2
	note F#, 4
	note A_, 6
	note G#, 2
	note A_, 2
	note G#, 2
	note E_, 2
	intensity $83
	note G#, 4
	intensity $82
	note E_, 2
	intensity $83
	note G_, 4
	intensity $82
	note E_, 2
	intensity $84
	note G#, 6
	intensity $82
	note E_, 4
	note G_, 6
	note F#, 2
	intensity $84
	note G_, 4
	intensity $82
	note E_, 2
	intensity $84
	note D_, 4
	intensity $82
	octave 2
	note B_, 2
	octave 3
	intensity $84
	note F#, 4
	intensity $82
	note E_, 2
	intensity $83
	note B_, 4
	note F#, 2
	octave 4
	intensity $84
	note C#, 6
	octave 3
	intensity $82
	note B_, 2
	note A#, 2
	note G#, 2
	note F_, 2
	note F#, 2
	note G#, 2
	note A#, 2
	note F#, 2
	note C#, 2
	note B_, 2
	note F#, 2
	note C#, 2
	octave 4
	note C#, 2
	octave 3
	note A#, 2
	note F#, 2
	intensity $92
	note F#, 4
	octave 4
	note D_, 6
	note C#, 2
	intensity $94
	note D_, 4
	octave 3
	intensity $92
	note F#, 2
	note A_, 4
	octave 4
	note C#, 6
	octave 3
	note B_, 2
	octave 4
	intensity $94
	note C#, 4
	octave 3
	intensity $92
	note A_, 2
	note G_, 4
	octave 4
	note C_, 6
	octave 3
	note B_, 2
	octave 4
	note C_, 2
	octave 3
	note B_, 2
	note G_, 2
	intensity $94
	note B_, 4
	intensity $92
	note D#, 2
	intensity $94
	note A_, 4
	intensity $92
	note D#, 2
	intensity $94
	note F#, 6
	intensity $92
	note C#, 4
	note G_, 6
	note A_, 2
	note G_, 2
	note F#, 2
	note E_, 2
	octave 2
	note A_, 4
	octave 3
	note F#, 6
	note F_, 2
	note F#, 2
	note A_, 2
	octave 4
	note D_, 2
	octave 2
	note G#, 4
	octave 3
	note E_, 6
	octave 2
	note B_, 2
	note B_, 2
	octave 3
	note C#, 2
	note D_, 2
	note C#, 2
	octave 2
	note A_, 2
	note E_, 2
	octave 3
	note D_, 2
	octave 2
	note B_, 2
	note F#, 2
	octave 3
	note E_, 2
	octave 2
	note B_, 2
	note G_, 2
	octave 4
	note D_, 4
	note F#, 6
	note F_, 2
	intensity $94
	note F#, 4
	intensity $92
	note D_, 2
	note C#, 4
	note E_, 6
	note D#, 2
	intensity $94
	note E_, 4
	intensity $92
	note C#, 2
	octave 3
	note B_, 4
	octave 4
	note E_, 6
	note D#, 2
	note C_, 2
	note D_, 2
	note E_, 2
	intensity $94
	note A_, 4
	intensity $92
	note D#, 2
	intensity $94
	note G_, 4
	intensity $92
	note D#, 2
	intensity $94
	note F#, 6
	octave 3
	intensity $92
	note F_, 4
	octave 4
	note G_, 6
	note A_, 2
	note G_, 2
	note F#, 2
	note E_, 2
	octave 3
	note C#, 4
	octave 4
	note F#, 6
	note G_, 2
	note F#, 2
	note E_, 2
	note D_, 2
	intensity $94
	note E_, 4
	octave 3
	intensity $92
	note B_, 2
	intensity $94
	note B_, 4
	intensity $92
	note G#, 2
	octave 4
	intensity $94
	note D_, 4
	octave 3
	intensity $92
	note G#, 2
	octave 4
	note C#, 2
	octave 3
	note A_, 2
	note E_, 2
	octave 4
	note D_, 2
	octave 3
	note B_, 2
	note F#, 2
	octave 4
	note E_, 2
	octave 3
	note B_, 2
	note G#, 2
	octave 4
	note C#, 2
	octave 3
	note A#, 2
	note F#, 2
	octave 4
	note E_, 2
	note C#, 2
	octave 3
	note A#, 2
	octave 4
	note F#, 2
	note C#, 2
	octave 3
	note A#, 2
	loopchannel 0, Music_SootopolisCity_Ch1_loop_main

Music_SootopolisCity_Ch2:
	vibrato $8, $24
	dutycycle 0
	notetype $8, $87
	octave 3
	note B_, 1
	octave 4
	note C_, 1
	note C#, 1
	note D_, 12
	octave 3
	intensity $72
	note B_, 4
	note F#, 2
	octave 4
	intensity $77
	note E_, 15
	octave 3
	note A#, 1
	note B_, 1
	octave 4
	note C_, 1
	note C#, 12
	intensity $72
	note D_, 4
	note C#, 2
	intensity $77
	note E_, 6
	intensity $72
	octave 3
	note B_, 2
	octave 4
	note D_, 2
	octave 3
	note B_, 2
	octave 4
	intensity $77
	note D_, 4
	octave 3
	intensity $72
	note F#, 2
	octave 4
	intensity $77
	note D_, 10
	intensity $72
	note C#, 2
	octave 3
	note B_, 4
	note F#, 2
	octave 4
	intensity $77
	note E_, 10
	intensity $72
	note D_, 2
	note C#, 3
	octave 3
	note A_, 1
	note A#, 1
	note B_, 1
	intensity $77
	octave 4
	note C#, 10
	intensity $72
	octave 3
	note B_, 2
	octave 4
	note D_, 4
	note C#, 2
	intensity $77
	note C#, 6
	note D_, 6
	intensity $61
	dutycycle 2
	octave 4
	note F_, 2
	note B_, 2
	octave 5
	note D_, 2
Music_SootopolisCity_Ch2_loop_1:
	note F#, 1
	octave 3
	note B_, 1
	octave 4
	loopchannel 9, Music_SootopolisCity_Ch2_loop_1
Music_SootopolisCity_Ch2_loop_2:
	note F#, 1
	octave 3
	note A#, 1
	octave 4
	loopchannel 9, Music_SootopolisCity_Ch2_loop_2
Music_SootopolisCity_Ch2_loop_3:
	note F#, 1
	octave 3
	note A_, 1
	octave 4
	loopchannel 9, Music_SootopolisCity_Ch2_loop_3
Music_SootopolisCity_Ch2_loop_4:
	note E_, 1
	octave 3
	note G#, 1
	octave 4
	loopchannel 9, Music_SootopolisCity_Ch2_loop_4
Music_SootopolisCity_Ch2_loop_5:
	note E_, 1
	octave 3
	note G_, 1
	octave 4
	loopchannel 9, Music_SootopolisCity_Ch2_loop_5
Music_SootopolisCity_Ch2_loop_6:
	note D_, 1
	octave 3
	note A_, 1
	octave 4
	loopchannel 9, Music_SootopolisCity_Ch2_loop_6
Music_SootopolisCity_Ch2_loop_7:
	note D_, 1
	octave 3
	note G#, 1
	octave 4
	loopchannel 9, Music_SootopolisCity_Ch2_loop_7
Music_SootopolisCity_Ch2_loop_8:
	note F#, 1
	octave 3
	note A#, 1
	octave 4
	loopchannel 6, Music_SootopolisCity_Ch2_loop_8
	dutycycle 3
	intensity $a2
	octave 3
	note A#, 4
	octave 4
	note D_, 1
	note E_, 1
	note F_, 1
	intensity $a7
	note F#, 9
	octave 3
	intensity $a2
	note B_, 2
	octave 5
	note C#, 4
	octave 4
	note B_, 2
	intensity $a7
	note F#, 12
	octave 3
	intensity $a2
	note F#, 2
	note B_, 2
	octave 4
	note D_, 2
	intensity $a7
	note F#, 10
	intensity $a2
	note E_, 2
	note D#, 4
	note F#, 2
	intensity $a4
	note E_, 4
	intensity $a2
	octave 3
	note G#, 2
	intensity $a2
	note B_, 4
	intensity $a2
	note A#, 2
	intensity $a2
	note B_, 4
	octave 4
	note E_, 2
	intensity $a7
	note G_, 10
	intensity $a2
	note A_, 2
	note G_, 4
	note E_, 2
	intensity $a4
	note F#, 4
	intensity $a2
	note D_, 2
	intensity $a4
	note F#, 4
	intensity $a2
	note A#, 2
	intensity $a4
	note B_, 4
	octave 5
	intensity $a2
	note D_, 2
	intensity $a7
	note C#, 10
	octave 4
	intensity $a2
	note G#, 2
	note G#, 4
	note B_, 2
	note A_, 1
	intensity $a5
	note A#, 5
	note B_, 6
	octave 5
	note C#, 4
	dutycycle 0
	intensity $a0
	octave 3
	note A_, 1
	note G_, 1
	note F#, 10
	intensity $a7
	note F#, 4
	intensity $a1
	note G_, 2
	note F#, 2
	intensity $a0
	note A_, 10
	intensity $a7
	note A_, 4
	intensity $a1
	note A_, 2
	note B_, 2
	octave 4
	intensity $a0
	note C_, 6
	intensity $a7
	note C_, 6
	intensity $a1
	note C_, 2
	octave 3
	note B_, 2
	note A_, 2
	intensity $a4
	note B_, 4
	intensity $a1
	note D#, 2
	intensity $a4
	note A_, 4
	intensity $a1
	note D#, 2
	intensity $a4
	note F#, 4
	intensity $a1
	note D#, 1
	note F_, 1
	note F#, 1
	intensity $a0
	note G_, 9
	intensity $a7
	note G_, 4
	intensity $a1
	note A_, 2
	note G_, 2
	note F#, 2
	octave 4
	intensity $a0
	note D_, 8
	intensity $a7
	note D_, 4
	intensity $a1
	octave 3
	note D_, 2
	note F#, 2
	intensity $a0
	note E_, 8
	intensity $a7
	note E_, 4
	octave 2
	intensity $a4
	note B_, 4
	octave 3
	intensity $a1
	note D_, 2
	intensity $a4
	note C#, 4
	octave 2
	intensity $a1
	note E_, 2
	octave 3
	intensity $a4
	note D_, 4
	octave 2
	intensity $a1
	note F#, 2
	octave 3
	intensity $a4
	note E_, 3
	dutycycle 3
	octave 4
	note B_, 1
	note A_, 1
	note G_, 1
	intensity $a0
	note F#, 6
	intensity $a7
	note F#, 8
	intensity $a1
	note G_, 2
	note F#, 2
	intensity $a0
	note A_, 6
	intensity $a7
	note A_, 8
	intensity $a1
	note A_, 2
	note B_, 2
	octave 5
	intensity $a0
	note C_, 6
	intensity $a7
	note C_, 6
	intensity $a1
	note C_, 2
	note D_, 2
	note E_, 2
	intensity $a5
	note F#, 6
	note E_, 6
	note D#, 6
	intensity $a0
	note G_, 4
	intensity $a7
	note G_, 6
	intensity $a1
	note A_, 2
	intensity $a2
	note G_, 2
	note F#, 2
	note E_, 2
	note D_, 2
	intensity $a0
	note F#, 4
	intensity $a7
	note F#, 6
	intensity $a1
	note D_, 4
	note F#, 2
	intensity $a0
	note E_, 4
	intensity $a7
	note E_, 6
	octave 4
	intensity $a2
	note B_, 2
	octave 5
	note E_, 4
	octave 4
	note B_, 2
	intensity $a4
	note C#, 4
	octave 3
	intensity $a2
	note A_, 2
	octave 4
	intensity $a4
	note D_, 4
	octave 3
	intensity $a2
	note B_, 2
	octave 4
	intensity $a4
	note E_, 4
	octave 3
	intensity $a2
	note G#, 2
	octave 4
	intensity $a4
	note F#, 4
	intensity $a2
	note C#, 2
	intensity $a4
	note G#, 4
	intensity $a2
	note C#, 2
	intensity $a4
	note A#, 3
	loopchannel 0, Music_SootopolisCity_Ch2

Music_SootopolisCity_Ch3:
	vibrato $14, $12
	notetype $8, $10
	octave 4
	note B_, 1
	octave 5
	note F#, 1
	note G#, 1
	note B_, 12
	note F#, 2
	note B_, 1
	note A#, 1
	note F#, 1
	octave 4
	note B_, 1
	octave 5
	note G#, 15
	note E_, 1
	note F#, 1
	note G#, 1
	note A_, 12
	note B_, 2
	note __, 2
	note A_, 1
	note __, 1
	note A_, 6
	note D_, 1
	note __, 1
	note G#, 1
	note __, 1
	note F#, 1
	note __, 1
	note G#, 4
	note D_, 1
	note __, 1
	note B_, 10
	note A#, 1
	note __, 1
	note F#, 2
	note B_, 1
	note A#, 1
	note G#, 1
	octave 4
	note B_, 1
	octave 5
	note G#, 15
	note E_, 1
	note F#, 1
	note G#, 1
	note A_, 12
	note B_, 2
	note __, 2
	note A_, 1
	note __, 1
	note A_, 4
	note D_, 1
	note __, 1
	note B_, 6
	intensity $14
	octave 4
	note F_, 1
	note __, 1
	note B_, 1
	note __, 1
	octave 5
	note D_, 1
	note __, 1
	note F_, 1
	note F#, 10
	octave 6
	note D_, 1
	note C#, 3
	note C_, 1
	octave 5
	note B_, 2
	note F#, 12
	octave 4
	note F#, 1
	note __, 1
	note B_, 1
	note __, 1
	octave 5
	note D_, 1
	note __, 1
	note F#, 10
	note E_, 1
	note __, 1
	note D#, 4
	note F#, 2
	note E_, 4
	note D_, 2
	octave 4
	note G#, 4
	note B_, 2
	octave 5
	note E_, 4
	octave 4
	note B_, 2
	octave 5
	note E_, 10
	note F#, 1
	note __, 1
	note E_, 4
	octave 4
	note B_, 2
	note __, 2
	octave 5
	note D_, 1
	note __, 1
	note C#, 1
	note __, 1
	note D_, 4
	note F#, 2
	note B_, 2
	note A#, 1
	note A_, 1
	note G_, 1
	note F#, 1
	note D_, 10
	note E_, 1
	note __, 1
	note D_, 4
	octave 4
	note B_, 1
	note __, 1
	octave 5
	note C#, 1
	note D_, 5
	note C#, 6
	note __, 6
	intensity $23
	octave 4
	note B_, 4
	note F#, 2
	octave 3
	note B_, 2
	note A#, 2
	note B_, 2
	octave 5
	note B_, 2
	octave 4
	note D_, 2
	octave 5
	note F#, 2
	note D_, 4
	octave 4
	note A#, 2
	note D_, 2
	note C#, 2
	octave 3
	note B_, 2
	octave 4
	note A#, 4
	note F#, 2
	note A_, 4
	note F#, 8
	note B_, 4
	note G#, 1
	note __, 1
	note G#, 4
	note E_, 2
	note D_, 2
	note C#, 2
	octave 3
	note B_, 2
	octave 4
	note C#, 2
	note D_, 2
	note E_, 2
	octave 5
	note D_, 4
	octave 4
	note B_, 2
	octave 3
	note B_, 4
	note A#, 2
	octave 4
	note D_, 4
	octave 3
	note B_, 2
	octave 4
	note B_, 4
	note F#, 2
	note B_, 4
	octave 5
	note D_, 2
	note F_, 4
	note G#, 1
	note __, 1
	note G#, 4
	note C#, 2
	note F_, 4
	octave 4
	note B_, 2
	octave 5
	note C#, 4
	octave 4
	note G#, 2
	octave 5
	note F_, 1
	note F#, 5
	note G#, 6
	note A#, 6
	intensity $26
	note __, 2
	octave 3
	note A_, 2
	note B_, 2
	octave 4
	note C#, 2
	note D_, 2
	note E_, 2
	note F#, 2
	note A_, 2
	note B_, 2
	octave 5
	note C#, 4
	octave 4
	note B_, 2
	note A_, 4
	note G_, 2
	note F#, 4
	note E_, 2
	note A_, 4
	note B_, 2
	note A_, 4
	note F#, 2
	note G_, 4
	note E_, 2
	note G_, 2
	note F#, 2
	note E_, 2
	note F#, 2
	note E_, 2
	note D#, 2
	note E_, 2
	note D#, 2
	note D_, 2
	note C#, 4
	note D_, 2
	note E_, 4
	note D_, 2
	note C#, 4
	octave 3
	note A_, 2
	octave 4
	note D_, 2
	note G_, 2
	note F#, 2
	note E_, 2
	note F#, 2
	note E_, 2
	note D_, 2
	note E_, 2
	note D_, 2
	octave 3
	note B_, 10
	octave 4
	note D_, 1
	note __, 1
	octave 3
	note G_, 4
	note A_, 1
	note __, 1
	note A_, 2
	note G#, 2
	note A_, 2
	note B_, 2
	note A#, 2
	note B_, 2
	octave 4
	note C#, 2
	note C_, 2
	note C#, 2
	note D_, 14
	note E_, 1
	note __, 1
	note D_, 1
	note __, 1
	note C#, 5
	note D_, 1
	note C_, 6
	octave 3
	note B_, 6
	note A_, 10
	note F#, 1
	note __, 1
	note A_, 1
	note __, 1
	note B_, 1
	note __, 1
	octave 4
	note C_, 2
	note F#, 2
	note G_, 2
	note F#, 2
	note E_, 2
	note F#, 2
	note E_, 2
	note D#, 2
	note E_, 2
	note D#, 2
	octave 3
	note A_, 1
	note B_, 1
	octave 4
	note C#, 1
	note D_, 1
	note E_, 1
	note F#, 1
	note G_, 4
	note F#, 1
	note __, 1
	note G_, 4
	note E_, 1
	note __, 1
	note D_, 1
	note __, 1
	octave 5
	note D_, 10
	octave 4
	note A_, 2
	note __, 2
	octave 5
	note D_, 2
	octave 4
	note B_, 10
	note A_, 1
	note __, 1
	note G#, 4
	note B_, 2
	octave 3
	note A_, 4
	note __, 2
	note B_, 4
	note __, 2
	octave 4
	note C#, 4
	note __, 2
	note C#, 4
	note __, 2
	note E_, 4
	note __, 2
	note C#, 1
	note E_, 1
	note F#, 1
	loopchannel 0, Music_SootopolisCity_Ch3

Music_SootopolisCity_Ch4:
	togglenoise $3
	notetype $8
	note __, 3
Music_SootopolisCity_Ch4_loop_main:
Music_SootopolisCity_Ch4_loop_1:
	note D_, 4
	note D_, 2
	note D_, 6
	note D_, 6
	note D_, 4
	note D_, 2
	note C#, 1
	note C#, 1
	note D_, 2
	note D_, 2
	note D_, 2
	note D_, 2
	note D_, 2
	loopchannel 20, Music_SootopolisCity_Ch4_loop_1
	note D_, 4
	note D_, 2
	note C#, 1
	note C#, 1
	note D_, 2
	note D_, 2
	note D_, 2
	note D_, 2
	note D_, 2
	loopchannel 0, Music_SootopolisCity_Ch4_loop_main