Music_StarterOrangeRoute:
	musicheader 4, 1, Music_StarterOrangeRoute_Ch1
	musicheader 1, 2, Music_StarterOrangeRoute_Ch2
	musicheader 1, 3, Music_StarterOrangeRoute_Ch3
	musicheader 1, 4, Music_StarterOrangeRoute_Ch4

Music_StarterOrangeRoute_Ch1:
	tempo $A0
	volume $77
	stereopanning $f
	dutycycle 1
	tone $0001
	octave 2
	notetype $C, $82
	note E_, 1
	note __, 1
	note G_, 1
	note __, 1
	intensity $84
	octave 3
	note C_, 2
	intensity $82
	octave 2
	note G_, 1
	note __, 1
	note E_, 1
	note __, 1
	note G_, 1
	note __, 1
	note D_, 1
	note __, 1
	note G_, 1
	note __, 1
	note E_, 1
	note __, 1
	note G_, 1
	note __, 1
	intensity $84
	octave 3
	note C_, 2
	intensity $82
	octave 2
	note G_, 1
	note __, 1
	note E_, 1
	note __, 1
	note G_, 1
	note __, 1
	note D_, 1
	note __, 1
	note G_, 1
	note __, 1
	note E_, 1
	note __, 1
Music_StarterOrangeRoute_Ch1_loop:
	notetype $C, $82
	octave 2
	note G_, 1
	note __, 1
	intensity $84
	octave 3
	note C_, 2
	intensity $82
	octave 2
	note G_, 1
	note __, 1
	note E_, 1
	note __, 1
	note G_, 1
	note __, 1
	note D_, 1
	note __, 1
	note G_, 1
	note __, 1
	note E_, 1
	note __, 1
	note G_, 1
	note __, 1
	intensity $84
	octave 3
	note C_, 2
	intensity $82
	octave 2
	note G_, 1
	note __, 1
	note E_, 1
	note __, 1
	note G_, 1
	note __, 1
	note D_, 1
	note __, 1
	intensity $94
	note G_, 2
	intensity $A5
	note G_, 2
	note __, 4
	note G_, 2
	note __, 2
	note E_, 2
	note F_, 2
	note G_, 2
	note A_, 2
	note __, 4
	octave 3
	note C_, 2
	note __, 2
	octave 2
	note A_, 4
	note B_, 2
	intensity $A1
	octave 3
	note E_, 1
	intensity $A2
	note E_, 1
	note __, 4
	note D_, 1
	note E_, 1
	note __, 2
	intensity $A5
	note C_, 4
	note D_, 2
	note F_, 2
	note __, 1
	note F_, 2
	note __, 1
	note G_, 4
	note __, 2
	intensity $82
	note G_, 2
	note __, 2
	intensity $B5
	octave 2
	note G_, 2
	note __, 4
	note G_, 2
	note __, 2
	note E_, 2
	note F_, 2
	note G_, 2
	note A_, 2
	note __, 4
	octave 3
	note C_, 2
	note __, 2
	octave 2
	note A_, 4
	note B_, 2
	intensity $A1
	octave 3
	note E_, 1
	intensity $A2
	note E_, 1
	note __, 1
	intensity $93
	octave 2
	note G_, 3
	intensity $A2
	octave 3
	note D_, 1
	note E_, 1
	intensity $A5
	note C_, 4
	octave 2
	note G_, 4
	intensity $A6
	octave 3
	note F_, 8
	note E_, 4
	intensity $B4
	note C_, 2
	note E_, 2
	dutycycle 0
	intensity $A2
	note F_, 2
	note __, 1
	note F_, 2
	note __, 1
	note F_, 2
	note __, 2
	note F_, 2
	note C_, 2
	intensity $A3
	note F_, 2
	intensity $A2
	note E_, 1
	note C_, 1
	note E_, 1
	note G_, 1
	note E_, 1
	note C_, 1
	note G_, 1
	octave 4
	note C_, 1
	octave 3
	note G_, 1
	note E_, 1
	note G_, 1
	octave 4
	note C_, 1
	note D_, 1
	note E_, 1
	note D_, 1
	note C_, 1
	octave 3
	note F_, 2
	note __, 1
	note F_, 2
	note __, 1
	note F_, 2
	note __, 2
	note D_, 2
	note C_, 2
	intensity $A3
	note F_, 2
	intensity $A2
	note G_, 1
	note F_, 1
	note D_, 1
	note C_, 1
	note F_, 1
	note D_, 1
	note C_, 1
	octave 2
	note G_, 1
	note B_, 1
	octave 3
	note C_, 1
	octave 2
	note B_, 1
	octave 3
	note D_, 1
	note G_, 1
	note D_, 1
	note F_, 1
	note G_, 1
	note F_, 2
	note __, 1
	note F_, 2
	note __, 1
	note F_, 2
	note __, 2
	note F_, 2
	note C_, 2
	intensity $A3
	note F_, 2
	intensity $A2
	note E_, 1
	note C_, 1
	note E_, 1
	note G_, 1
	note E_, 1
	note C_, 1
	note G_, 1
	octave 4
	note C_, 1
	octave 3
	note G_, 1
	note E_, 1
	note G_, 1
	octave 4
	note C_, 1
	note D_, 1
	note F_, 1
	note E_, 1
	note D_, 1
	octave 3
	note F_, 2
	note __, 1
	note F_, 2
	note __, 1
	note F_, 2
	note __, 2
	note D_, 2
	note C_, 2
	intensity $A3
	note F_, 2
	intensity $A2
	note G_, 1
	note F_, 1
	note D_, 1
	note C_, 1
	note F_, 1
	note D_, 1
	note C_, 1
	octave 2
	note G_, 1
	intensity $A5
	octave 3
	note A_, 2
	intensity $A2
	note F_, 1
	note D_, 1
	intensity $A3
	note F_, 2
	note D_, 2
	dutycycle 1
	intensity $B4
	note C_, 2
	octave 2
	note G_, 1
	octave 3
	note E_, 2
	note __, 1
	note D_, 2
	note __, 2
	note D_, 2
	octave 2
	note A#, 2
	octave 3
	note D_, 2
	note C_, 2
	octave 2
	note G_, 1
	octave 3
	note E_, 2
	note __, 1
	note D_, 2
	note __, 2
	note D_, 2
	note E_, 2
	note F_, 2
	note C_, 2
	loopchannel 0, Music_StarterOrangeRoute_Ch1_loop

Music_StarterOrangeRoute_Ch2:
	dutycycle 1
	tone $0002
	octave 3
	notetype $C, $B4
	note C_, 2
	octave 2
	note G_, 1
	octave 3
	note E_, 2
	note __, 1
	note D_, 2
	note __, 2
	note D_, 2
	octave 2
	note A#, 2
	octave 3
	note D_, 2
	note C_, 2
	octave 2
	note G_, 1
	octave 3
	note E_, 2
	note __, 1
	note D_, 2
	note __, 2
	note D_, 2
	note E_, 2
	note F_, 2
	note C_, 2
Music_StarterOrangeRoute_Ch2_loop:
	notetype $C, $B4
	octave 2
	note G_, 1
	octave 3
	note E_, 2
	note __, 1
	note D_, 2
	note __, 2
	note D_, 2
	octave 2
	note A#, 2
	octave 3
	note D_, 2
	note C_, 2
	octave 2
	note G_, 1
	octave 3
	note E_, 2
	note __, 1
	note D_, 2
	note __, 2
	note D_, 2
	note E_, 2
	intensity $C2
	octave 4
	note C_, 1
	note D_, 1
	note E_, 2
	note E_, 2
	note D_, 2
	intensity $C4
	note C_, 4
	note C_, 2
	note D_, 2
	intensity $C2
	note C_, 1
	note E_, 1
	note F_, 2
	note F_, 2
	note E_, 2
	intensity $C4
	note D_, 4
	note D_, 2
	note C_, 2
	intensity $C2
	note C_, 1
	note D_, 1
	intensity $C4
	note E_, 2
	intensity $C3
	note C_, 3
	note __, 1
	intensity $C4
	octave 3
	note G_, 4
	intensity $A8
	note E_, 2
	note F_, 2
	note G_, 2
	intensity $B4
	note A_, 2
	octave 4
	note C_, 2
	octave 3
	note A_, 2
	note B_, 4
	intensity $B2
	octave 4
	note G_, 2
	octave 3
	note G_, 2
	intensity $C2
	octave 4
	note C_, 1
	note D_, 1
	note E_, 2
	note E_, 2
	note D_, 2
	intensity $C4
	note C_, 4
	note C_, 2
	note D_, 2
	intensity $C2
	note C_, 1
	note E_, 1
	note F_, 2
	note F_, 2
	note E_, 2
	intensity $C4
	note G_, 4
	note F_, 2
	note E_, 2
	intensity $C2
	note D_, 1
	note D#, 1
	intensity $C4
	note E_, 2
	intensity $C3
	octave 3
	note B_, 3
	note __, 1
	intensity $C4
	octave 4
	note C_, 4
	intensity $B7
	octave 3
	note E_, 2
	note F_, 2
	note G_, 2
	intensity $A8
	note A#, 6
	note A_, 1
	note G#, 1
	intensity $A7
	note G_, 8
	intensity $C2
	note A_, 2
	note A_, 2
	note B_, 2
	intensity $C4
	octave 4
	note C_, 4
	note C_, 2
	note D_, 2
	note C_, 2
	dutycycle 2
	octave 3
	note G_, 4
	note F_, 4
	note E_, 4
	note G_, 4
	dutycycle 1
	intensity $C2
	note A_, 2
	note A_, 2
	note B_, 2
	intensity $C4
	octave 4
	note C_, 4
	octave 3
	note F_, 2
	note A_, 2
	octave 4
	note C_, 2
	dutycycle 2
	octave 3
	note B_, 4
	note G_, 4
	note A_, 2
	note G_, 2
	note B_, 2
	dutycycle 1
	intensity $C2
	note G_, 1
	note G#, 1
	note A_, 2
	note A_, 2
	note B_, 2
	intensity $C4
	octave 4
	note C_, 4
	note C_, 2
	note D_, 2
	note C_, 2
	dutycycle 2
	octave 3
	note G_, 4
	note F_, 4
	note E_, 4
	note G_, 4
	dutycycle 1
	intensity $C2
	note A_, 2
	note A_, 2
	note B_, 2
	intensity $C4
	octave 4
	note C_, 4
	octave 3
	note F_, 2
	note A_, 2
	octave 4
	note C_, 2
	octave 3
	note B_, 4
	note G_, 4
	octave 4
	note D_, 4
	octave 3
	note B_, 2
	octave 4
	note D_, 2
	notetype $6, $C4
	note C_, 1
	note D_, 1
	intensity $C8
	vibrato $01, $25
	note C_, 14
	intensity $A8
	vibrato $00, $25
	note C_, 12
	intensity $88
	note C_, 12
	intensity $78
	note C_, 12
	intensity $4F
	note C_, 12
	intensity $B2
	vibrato $00, $00
	octave 5
	note C_, 4
	loopchannel 0, Music_StarterOrangeRoute_Ch2_loop

Music_StarterOrangeRoute_Ch3:
Music_StarterOrangeRoute_Ch3_loop:
	dutycycle 5
	octave 3
	notetype $C, $25
	note C_, 2
	note __, 1
	note C_, 2
	note __, 1
	note C_, 2
	note __, 2
	note C_, 2
	octave 2
	note A#, 4
	octave 3
	note C_, 2
	note __, 1
	note C_, 2
	note __, 1
	note C_, 2
	note __, 2
	note C_, 2
	octave 2
	note A#, 4
	octave 3
	note C_, 2
	note __, 1
	note C_, 2
	note __, 1
	note C_, 2
	note __, 2
	note C_, 2
	octave 2
	note A#, 4
	octave 3
	note C_, 2
	note __, 1
	note C_, 2
	note __, 1
	note C_, 2
	note __, 2
	note C_, 2
	octave 2
	note A#, 4
	octave 3
	note C_, 2
	note __, 1
	note C_, 2
	note __, 1
	note C_, 2
	note __, 2
	note C_, 2
	octave 2
	note A#, 4
	octave 3
	note D_, 2
	note __, 1
	note D_, 2
	note __, 1
	note D_, 2
	note __, 2
	note C_, 2
	octave 2
	note B_, 4
	octave 3
	note C_, 2
	note __, 1
	note C_, 2
	note __, 1
	note C_, 2
	note __, 2
	note C_, 2
	octave 2
	note A#, 4
	octave 3
	note A_, 4
	note __, 1
	octave 4
	note C_, 1
	octave 3
	note G_, 4
	note __, 2
	note G_, 4
	note C_, 2
	note __, 1
	note C_, 2
	note __, 1
	note C_, 2
	note __, 2
	note C_, 2
	octave 2
	note A#, 4
	octave 3
	note D_, 2
	note __, 1
	note D_, 2
	note __, 1
	note D_, 2
	note __, 2
	note C_, 2
	octave 2
	note B_, 4
	octave 3
	note C_, 2
	note __, 1
	note E_, 2
	note __, 1
	note C_, 2
	note __, 2
	note E_, 4
	note __, 2
	note D_, 2
	note __, 1
	note D_, 2
	note __, 1
	note F_, 1
	note E_, 1
	note C_, 2
	note __, 2
	note C_, 2
	note __, 2
	note F_, 2
	note C_, 2
	note A_, 4
	note F_, 2
	note C_, 2
	note A_, 2
	note F_, 2
	note E_, 2
	note __, 1
	note E_, 2
	note __, 1
	note C_, 2
	note __, 1
	note E_, 2
	note __, 1
	note C_, 4
	note F_, 2
	note C_, 2
	note A_, 4
	note F_, 2
	note C_, 2
	note A_, 2
	note F_, 2
	note G_, 2
	note __, 1
	note F_, 2
	note __, 1
	note F_, 2
	note __, 1
	note D_, 2
	note __, 1
	note D_, 2
	octave 2
	note B_, 2
	octave 3
	note F_, 2
	note C_, 2
	note A_, 4
	note F_, 2
	note C_, 2
	note A_, 2
	note F_, 2
	note E_, 2
	note __, 1
	note E_, 2
	note __, 1
	note C_, 2
	note __, 1
	note E_, 2
	note __, 1
	note C_, 4
	note F_, 2
	note C_, 2
	note A_, 4
	note F_, 2
	note C_, 2
	note A_, 2
	note F_, 2
	note G_, 2
	note __, 1
	note F_, 2
	note __, 1
	note F_, 2
	note D_, 4
	note __, 4
	loopchannel 0, Music_StarterOrangeRoute_Ch3_loop

Music_StarterOrangeRoute_Ch4:
	togglenoise 4
	notetype $C
	note G_, 1
	note __, 1
Music_StarterOrangeRoute_Ch4_loop:
	notetype $C
	note D_, 1
	note __, 1
	note D_, 1
	note __, 1
	note D_, 1
	note __, 1
	note G_, 1
	note __, 1
	note D_, 1
	note __, 1
	note G_, 1
	note __, 1
	note D_, 1
	note __, 1
	note G_, 1
	note __, 1
	note D_, 1
	note __, 1
	note D_, 1
	note __, 1
	note G_, 1
	note __, 1
	note D_, 1
	note __, 1
	note G_, 1
	note __, 1
	note D_, 1
	note __, 1
	note D_, 1
	note D_, 1
	note G_, 1
	note __, 1
	note D_, 1
	note __, 1
	note D_, 1
	note __, 1
	note D_, 1
	note __, 1
	note G_, 1
	note __, 1
	note D_, 1
	note __, 1
	note G_, 1
	note __, 1
	note D_, 1
	note __, 1
	note G_, 1
	note __, 1
	note D_, 1
	note __, 1
	note D_, 1
	note __, 1
	note G_, 1
	note __, 1
	note D_, 1
	note __, 1
	note G_, 1
	note __, 1
	note D_, 1
	note __, 3
	note D_, 1
	note __, 1
	note G_, 1
	note __, 1
	note D_, 1
	note __, 1
	note D_, 1
	note __, 1
	note G_, 1
	note __, 1
	note D_, 1
	note __, 1
	note G_, 1
	note __, 1
	note D_, 1
	note __, 1
	note G_, 1
	note __, 1
	note D_, 1
	note __, 1
	note D_, 1
	note __, 1
	note G_, 1
	note __, 1
	note D_, 1
	note __, 1
	note G_, 1
	note __, 1
	note D_, 1
	note __, 1
	note D_, 1
	note D_, 1
	note D_, 1
	note __, 1
	note G_, 1
	note __, 1
	note D_, 1
	note __, 1
	note D_, 1
	note __, 1
	note G_, 1
	note __, 1
	note D_, 1
	note __, 1
	note G_, 1
	note __, 1
	note D_, 1
	note __, 1
	note D_, 1
	note __, 1
	note D_, 1
	note __, 1
	note D_, 1
	note __, 1
	note D_, 1
	note __, 9
	note D_, 1
	note __, 1
	note G_, 1
	note __, 1
	note D_, 1
	note __, 1
	note D_, 1
	note __, 1
	note G_, 1
	note __, 1
	note D_, 1
	note __, 1
	note G_, 1
	note __, 1
	note D_, 1
	note __, 1
	note G_, 1
	note __, 1
	note D_, 1
	note __, 1
	note D_, 1
	note __, 1
	note G_, 1
	note __, 1
	note D_, 1
	note __, 1
	note G_, 1
	note __, 1
	note D_, 1
	note __, 1
	note D_, 1
	note D_, 1
	note D_, 1
	note __, 1
	note G_, 1
	note __, 1
	note D_, 1
	note __, 1
	note D_, 1
	note __, 1
	note G_, 1
	note __, 1
	note D_, 1
	note __, 1
	note D_, 1
	note __, 1
	note D_, 1
	note __, 1
	note D_, 1
	note __, 1
	note G_, 1
	note __, 1
	note D_, 1
	note __, 1
	note G_, 1
	note G_, 1
	note D_, 1
	note __, 7
	note D_, 1
	note __, 1
	note G_, 1
	note __, 1
	note D_, 1
	note __, 1
	note G_, 1
	note __, 1
	note G_, 1
	note __, 1
	note G_, 1
	note __, 1
	note D_, 1
	note __, 1
	note G_, 1
	note __, 1
	note D_, 1
	note __, 1
	note G_, 1
	note __, 1
	note D_, 1
	note __, 1
	note G_, 1
	note __, 1
	note D_, 1
	note __, 1
	note G_, 1
	note __, 1
	note D_, 1
	note __, 1
	note D_, 1
	note __, 1
	note D_, 1
	note __, 1
	note G_, 1
	note __, 1
	note D_, 1
	note __, 1
	note G_, 1
	note __, 1
	note G_, 1
	note __, 1
	note G_, 1
	note __, 1
	note D_, 1
	note __, 1
	note G_, 1
	note __, 1
	note D_, 1
	note __, 1
	note G_, 1
	note __, 1
	note D_, 1
	note __, 1
	note G_, 1
	note __, 1
	note D_, 1
	note __, 1
	note G_, 1
	note __, 1
	note D_, 1
	note __, 1
	note D_, 1
	note D_, 1
	note D_, 1
	note __, 1
	note G_, 1
	note __, 1
	note D_, 1
	note __, 1
	note G_, 1
	note __, 1
	note G_, 1
	note __, 1
	note G_, 1
	note __, 1
	note D_, 1
	note __, 1
	note G_, 1
	note __, 1
	note D_, 1
	note __, 1
	note G_, 1
	note __, 1
	note D_, 1
	note __, 1
	note G_, 1
	note __, 1
	note D_, 1
	note __, 1
	note G_, 1
	note __, 1
	note D_, 1
	note __, 1
	note D_, 1
	note __, 1
	note D_, 1
	note __, 1
	note G_, 1
	note __, 1
	note D_, 1
	note __, 1
	note G_, 1
	note __, 1
	note G_, 1
	note __, 1
	note G_, 1
	note __, 1
	note D_, 1
	note __, 1
	note G_, 1
	note __, 1
	note G_, 1
	note __, 1
	note D_, 1
	note __, 1
	note D_, 1
	note __, 1
	note D_, 1
	note __, 1
	note D_, 1
	note __, 7
	note D_, 1
	note __, 1
	loopchannel 0, Music_StarterOrangeRoute_Ch4_loop

