Music_TangeloJungle:
	musicheader 4, 1, Music_TangeloJungle_Ch1
	musicheader 1, 2, Music_TangeloJungle_Ch2
	musicheader 1, 3, Music_TangeloJungle_Ch3
	musicheader 1, 4, Music_TangeloJungle_Ch4

Music_TangeloJungle_Ch1:
	tempo $99
	volume $77
	stereopanning $f
	dutycycle 1
	tone $0001
	octave 3
	notetype $C, $00
	note E_, 1
	note __, 16
	note __, 16
	note __, 16
	note __, 16
	note __, 16
	note __, 15
Music_TangeloJungle_Ch1_loop:
	intensity $A5
        octave 3
	note E_, 6
	note C_, 10
	octave 2
	note B_, 6
	note A_, 10
	note __, 2
	octave 3
	note C_, 2
	note F_, 2
	note G#, 2
	note A#, 3
	note G#, 3
	note G_, 2
	note G#, 3
	note G_, 3
	note F_, 2
	note G_, 3
	note F_, 3
	note D#, 2
	note __, 2
	note C_, 2
	note F_, 2
	note G#, 2
	octave 4
	note C#, 3
	note C_, 3
	octave 3
	note A#, 2
	octave 4
	note C_, 3
	octave 3
	note A#, 3
	note G#, 2
	note A#, 3
	note G#, 3
	note E_, 2
	note C_, 2
	octave 2
	note A#, 2
	octave 3
	note C_, 2
	intensity $A2
	note C#, 1
	intensity $A5
	note C_, 2
	intensity $A2
	octave 2
	note A#, 1
	intensity $A5
	octave 3
	note C_, 2
	octave 2
	note A#, 2
	note G#, 2
	octave 3
	note C_, 2
	octave 2
	note A#, 2
	octave 3
	note C_, 2
	intensity $A2
	note F_, 1
	intensity $A5
	note C_, 2
	intensity $A2
	octave 2
	note A#, 1
	intensity $A5
	octave 3
	note C_, 2
	note D#, 2
	note F_, 2
	note F_, 2
	note C_, 2
	octave 2
	note G#, 2
	intensity $A2
	octave 3
	note C_, 1
	intensity $A5
	note D#, 2
	intensity $A2
	note E_, 1
	intensity $A5
	note C_, 2
	octave 2
	note G#, 2
	note A#, 2
	octave 3
	note E_, 6
	note C#, 6
	note C_, 4
	dutycycle 0
	intensity $A1
	octave 5
	note F_, 1
	note C_, 1
	octave 4
	note G#, 1
	octave 5
	note C_, 1
	note F_, 1
	note C_, 1
	octave 4
	note G#, 1
	intensity $A4
	octave 5
	note E_, 2
	intensity $A1
	note C_, 1
	octave 4
	note G_, 1
	octave 5
	note C_, 1
	note E_, 1
	note C_, 1
	octave 4
	note G_, 1
	intensity $A4
	octave 5
	note D#, 2
	intensity $A1
	note C_, 1
	octave 4
	note G_, 1
	octave 5
	note C_, 1
	note D#, 1
	note C_, 1
	octave 4
	note G_, 1
	intensity $A4
	octave 5
	note E_, 2
	intensity $A1
	note C_, 1
	octave 4
	note G_, 1
	octave 5
	note C_, 1
	note E_, 1
	note C_, 1
	octave 4
	note G#, 1
	octave 5
	note C_, 1
	note F_, 1
	note C_, 1
	octave 4
	note G#, 1
	octave 5
	note C_, 1
	note F_, 1
	note C_, 1
	octave 4
	note G#, 1
	intensity $A4
	octave 5
	note E_, 2
	intensity $A1
	note C_, 1
	octave 4
	note G_, 1
	octave 5
	note C_, 1
	note E_, 1
	note C_, 1
	octave 4
	note G_, 1
	intensity $A4
	octave 5
	note D#, 2
	intensity $A1
	note C_, 1
	octave 4
	note G_, 1
	octave 5
	note C_, 1
	note D#, 1
	note C_, 1
	octave 4
	note G_, 1
	intensity $A4
	octave 5
	note E_, 2
	intensity $A1
	note C_, 1
	octave 4
	note G_, 1
	octave 5
	note C_, 1
	note D#, 1
	note C_, 1
	octave 4
	note G_, 1
	note E_, 1
	dutycycle 1
	intensity $A5
	octave 3
	note F_, 6
	note D#, 4
	note C#, 2
	note F_, 2
	note C#, 2
	note C_, 6
	note E_, 6
	note C_, 2
	note E_, 2
	note C#, 6
	octave 2
	note A#, 4
	note G#, 2
	octave 3
	note C#, 2
	octave 2
	note A#, 2
	intensity $A7
	note G_, 8
	note __, 8
	note B_, 4
	octave 3
	note C_, 4
	octave 2
	note B_, 4
	note A_, 4
	note B_, 4
	octave 3
	note C_, 4
	octave 2
	note B_, 4
	octave 3
	note D_, 4
	octave 2
	note B_, 4
	octave 3
	note C_, 4
	octave 2
	note B_, 4
	note E_, 4
	intensity $77
	note F#, 4
	note G_, 4
	note F#, 4
	note E_, 2
	intensity $5B
	note E_, 2
	intensity $A5
	note B_, 6
	octave 3
	note C_, 6
	intensity $A8
	octave 2
	note E_, 4
	intensity $A5
	note B_, 6
	octave 3
	note C_, 6
	intensity $A8
	note D_, 4
	loopchannel 0, Music_TangeloJungle_Ch1_loop

Music_TangeloJungle_Ch2:
Music_TangeloJungle_Ch2_loop:
        stereopanning $f0
	dutycycle 1
	tone $0002
	vibrato $00, $27
	octave 3
	notetype $C, $C1
	note B_, 1
	note __, 1
	octave 4
	note C_, 1
	note __, 1
	octave 3
	note B_, 1
	note __, 2
	note E_, 1
	note __, 16
	note __, 8
	note B_, 1
	note __, 1
	octave 4
	note C_, 1
	note __, 1
	octave 3
	note B_, 1
	note __, 2
	octave 4
	note D_, 1
	note __, 8
	intensity $42
	octave 5
	note E_, 1
	note F_, 1
	intensity $62
	note E_, 1
	note F_, 1
	intensity $82
	note E_, 1
	note F_, 1
	intensity $A2
	note E_, 1
	note F_, 1
	note E_, 1
	note F_, 1
	intensity $82
	note E_, 1
	note F_, 1
	intensity $62
	note E_, 1
	note F_, 1
	intensity $42
	note E_, 1
	note F_, 1
	intensity $C1
	octave 3
	note B_, 1
	note __, 1
	octave 4
	note C_, 1
	note __, 1
	octave 3
	note B_, 1
	note __, 2
	note E_, 1
	intensity $54
	note B_, 1
	intensity $21
	note B_, 1
	intensity $54
	octave 4
	note C_, 1
	intensity $21
	note C_, 1
	intensity $54
	octave 3
	note B_, 1
	intensity $21
	note B_, 1
	note __, 1
	intensity $54
	note E_, 1
	intensity $C1
	note B_, 1
	note __, 1
	octave 4
	note C_, 1
	note __, 1
	octave 3
	note B_, 1
	note __, 2
	octave 4
	note D_, 1
	intensity $54
	octave 3
	note B_, 1
	intensity $21
	note B_, 1
	intensity $54
	octave 4
	note C_, 1
	intensity $21
	note C_, 1
	intensity $54
	octave 3
	note B_, 1
	intensity $21
	note B_, 1
	note __, 1
	intensity $54
	octave 4
	note D_, 1
	intensity $C5
	octave 3
	note B_, 6
	note A_, 6
	note F#, 4
	note E_, 3
	note D#, 3
	note E_, 2
	note B_, 4
	note A_, 4
	intensity $C2
	octave 4
	note C_, 1
	note __, 1
	note C#, 1
	note __, 1
	note C_, 1
	note __, 2
	octave 3
	note F_, 1
	note __, 8
	intensity $42
	octave 5
	note F_, 1
	note F#, 1
	intensity $62
	note F_, 1
	note F#, 1
	intensity $82
	note F_, 1
	note F#, 1
	intensity $A2
	note F_, 1
	note F#, 1
	note F_, 1
	note F#, 1
	intensity $82
	note F_, 1
	note F#, 1
	intensity $62
	note F_, 1
	note F#, 1
	intensity $42
	note F_, 1
	note F#, 1
	intensity $C2
	octave 4
	note C_, 1
	note __, 1
	note C#, 1
	note __, 1
	note C_, 1
	note __, 2
	note D#, 1
	note __, 8
	intensity $42
	octave 5
	note C_, 1
	note C#, 1
	intensity $62
	note C_, 1
	note C#, 1
	intensity $82
	note C_, 1
	note C#, 1
	intensity $A2
	note C_, 1
	note C#, 1
	note C_, 1
	note C#, 1
	intensity $82
	note C_, 1
	note C#, 1
	intensity $62
	note C_, 1
	note C#, 1
	intensity $42
	note C_, 1
	note C#, 1
	intensity $C5
	octave 3
	note F_, 4
	note G_, 4
	note G#, 4
	note G_, 4
	note G#, 4
	note A#, 4
	note G#, 4
	note G_, 4
	note G#, 4
	note A#, 4
	octave 4
	note C_, 4
	note C#, 4
	note C_, 4
	octave 3
	note A#, 4
	note G#, 4
	note G_, 4
	intensity $A8
	note C_, 4
	note F_, 4
	note E_, 4
	note F_, 2
	note G#, 4
	note F_, 4
	note D#, 4
	note C_, 2
	note D#, 2
	note E_, 2
	note F_, 4
	note G#, 4
	note G_, 4
	note G#, 2
	octave 4
	note C_, 4
	octave 3
	note G#, 4
	note G_, 4
	note G#, 2
	note G_, 2
	intensity $A4
	note F_, 2
	intensity $C5
	octave 4
	note C#, 3
	note D#, 3
	note C#, 4
	note C_, 2
	octave 3
	note A#, 2
	note G#, 2
	note G_, 2
	note G#, 2
	note G_, 2
	octave 4
	note C_, 4
	octave 3
	note G_, 2
	note E_, 2
	octave 4
	note C_, 2
	octave 3
	note G#, 3
	note A#, 3
	note G#, 4
	note G_, 2
	note F_, 2
	note C#, 2
	intensity $A7
	note C_, 8
	note __, 8
	loopchannel 0, Music_TangeloJungle_Ch2_loop

Music_TangeloJungle_Ch3:
	dutycycle 4
	octave 3
	notetype $F, $14
	note E_, 2
	notetype $6, $14
	note __, 1
	note E_, 5
	note __, 16
	notetype $1, $14
	note __, 6
	notetype $6, $14
	note E_, 2
	note __, 2
	note E_, 5
	note __, 1
	note E_, 5
	notetype $E, $14
	note __, 9
	notetype $F, $14
	note E_, 2
	notetype $6, $14
	note __, 1
	note E_, 5
	note __, 1
	octave 2
	note B_, 2
	note B_, 2
	notetype $F, $14
	note __, 16
	octave 3
	notetype $C, $14
	note C_, 4
	notetype $F, $14
	note E_, 2
	notetype $6, $14
	note __, 1
	note E_, 5
	note __, 1
	octave 2
	note B_, 2
	note B_, 2
	note __, 4
	note B_, 2
	note __, 2
	octave 3
	note C_, 8
	note E_, 5
	note __, 1
	note E_, 5
	note __, 1
	octave 2
	note B_, 2
	note B_, 2
	note __, 4
	note B_, 2
	note __, 2
	octave 3
	note D_, 8
Music_TangeloJungle_Ch3_loop:
        notetype $6, $14
	note E_, 5
	note __, 1
	note E_, 5
	note __, 1
	octave 2
	note B_, 2
	note B_, 2
	note __, 4
	note B_, 2
	note __, 2
	note A_, 2
	note __, 2
	octave 3
	note C_, 4
	note E_, 5
	note __, 1
	note E_, 5
	note __, 1
	octave 2
	note B_, 2
	note B_, 2
	note __, 4
	note B_, 2
	note __, 2
	octave 3
	note D#, 4
	note E_, 4
	note F_, 5
	note __, 1
	note F_, 5
	note __, 1
	note C_, 2
	note C_, 2
	note __, 4
	note C_, 2
	note __, 2
	octave 2
	note A#, 2
	note __, 2
	octave 3
	note E_, 4
	note F_, 5
	note __, 1
	note F_, 5
	note __, 1
	note C_, 2
	note C_, 2
	note __, 4
	note C_, 2
	note __, 2
	note G#, 4
	note E_, 4
	note F_, 5
	note __, 1
	note F_, 5
	note __, 1
	note C_, 2
	note C_, 2
	note __, 4
	note C_, 2
	note __, 2
	octave 2
	note A#, 2
	note __, 2
	octave 3
	note E_, 4
	note F_, 5
	note __, 1
	note F_, 5
	note __, 1
	note C_, 2
	note C_, 2
	note __, 4
	note C_, 2
	note __, 2
	note G#, 4
	note E_, 4
	note F_, 5
	note __, 1
	note F_, 5
	note __, 1
	note C_, 2
	note C_, 2
	note __, 4
	note C_, 2
	note __, 2
	octave 2
	note A#, 2
	note __, 2
	octave 3
	note E_, 4
	note F_, 5
	note __, 1
	note F_, 5
	note __, 1
	note C_, 2
	note C_, 2
	note __, 4
	note C_, 2
	note __, 2
	octave 2
	note A#, 2
	note __, 2
	octave 3
	note E_, 4
	note F_, 5
	note __, 1
	note F_, 5
	note __, 1
	note C_, 2
	note C_, 2
	note __, 4
	note C_, 2
	note __, 2
	octave 2
	note A#, 2
	note __, 2
	octave 3
	note E_, 4
	note G_, 12
	note E_, 12
	note C_, 8
	note F_, 2
	note __, 2
	note F_, 8
	octave 4
	note C_, 2
	octave 3
	note E_, 2
	note __, 4
	note E_, 8
	octave 4
	note C_, 2
	note __, 2
	octave 3
	note D#, 2
	note __, 2
	note D#, 8
	octave 4
	note C_, 2
	octave 3
	note E_, 2
	note __, 4
	note E_, 4
	octave 4
	note C_, 4
	octave 3
	note E_, 4
	note F_, 2
	note __, 2
	note F_, 8
	octave 4
	note C_, 2
	octave 3
	note E_, 2
	note __, 4
	note E_, 8
	octave 4
	note C_, 2
	note __, 2
	octave 3
	note D#, 2
	note __, 2
	note D#, 8
	octave 4
	note C_, 2
	octave 3
	note E_, 2
	note __, 4
	note E_, 4
	octave 4
	note C_, 4
	octave 3
	note E_, 4
	note C#, 6
	note F_, 6
	note G#, 10
	note __, 2
	note F_, 8
	note E_, 6
	note G_, 6
	note A#, 10
	note __, 2
	note G_, 4
	note E_, 4
	note C#, 6
	note F_, 6
	note C#, 10
	note __, 2
	octave 2
	note A#, 4
	note B_, 4
	octave 3
	note C_, 12
	notetype $F, $14
	note __, 8
	octave 2
	notetype $C, $14
	note B_, 16
	octave 3
	note C_, 16
	note C#, 16
	note __, 16
	notetype $F, $14
	note E_, 2
	notetype $6, $14
	note __, 1
	note E_, 5
	note __, 1
	octave 2
	note B_, 2
	note B_, 2
	note __, 4
	note B_, 2
	note __, 2
	octave 3
	note C_, 8
	note E_, 5
	note __, 1
	note E_, 5
	note __, 1
	octave 2
	note B_, 2
	note B_, 2
	note __, 4
	note B_, 2
	note __, 2
	octave 3
	note D_, 8
	loopchannel 0, Music_TangeloJungle_Ch3_loop

Music_TangeloJungle_Ch4:
        togglenoise 2
Music_TangeloJungle_Ch4_loop:
        notetype $C
	note __, 16
	note __, 16
	note __, 16
	note __, 12
	note G#, 2
	note __, 2
	note G#, 2
	note __, 14
	note G#, 2
	note __, 14
	note G#, 2
	note __, 4
	note G#, 2
	note __, 8
	note G#, 2
	note __, 4
	note G#, 2
	note __, 4
	note G#, 2
	note __, 2
	note G#, 2
	note D#, 1
	note D_, 1
	note D_, 1
	note __, 1
	note D#, 1
	note D_, 1
	note D_, 1
	note __, 1
	note D#, 1
	note D_, 1
	note D_, 1
	note __, 1
	note D#, 1
	note D_, 1
	note D_, 1
	note __, 1
	note D#, 1
	note D_, 1
	note D_, 1
	note __, 1
	note D#, 1
	note D_, 1
	note D_, 1
	note __, 1
	note D#, 1
	note D_, 1
	note D_, 1
	note __, 1
	note D#, 1
	note D_, 1
	note G#, 2
	note D#, 1
	note D_, 1
	note D_, 1
	note __, 1
	note D#, 1
	note D_, 1
	note D_, 1
	note __, 1
	note D#, 1
	note D_, 1
	note D_, 1
	note __, 1
	note D#, 1
	note D_, 1
	note D_, 1
	note __, 1
	note D#, 1
	note D_, 1
	note D_, 1
	note __, 1
	note D#, 1
	note D_, 1
	note D_, 1
	note __, 1
	note D#, 1
	note D_, 1
	note D_, 1
	note __, 1
	note D#, 1
	note D_, 1
	note G#, 2
	note __, 4
	note G#, 2
	note __, 4
	note G#, 2
	note __, 2
	note G#, 2
	note __, 4
	note G#, 2
	note __, 4
	note G#, 2
	note __, 2
	note G#, 2
	note __, 4
	note G#, 2
	note __, 4
	note G#, 2
	note __, 2
	note G#, 2
	note __, 4
	note G#, 2
	note __, 4
	note G#, 2
	note __, 2
	note G#, 2
	note D_, 1
	note __, 1
	note G#, 2
	note D_, 1
	note D_, 1
	note __, 1
	note D_, 1
	note D_, 1
	note __, 1
	note G#, 2
	note D_, 1
	note D_, 1
	note __, 1
	note D_, 1
	note D_, 1
	note __, 1
	note G#, 2
	note D_, 1
	note D_, 1
	note __, 1
	note D_, 1
	note D_, 1
	note __, 1
	note G#, 2
	note D_, 1
	note __, 1
	note G#, 2
	note D_, 1
	note __, 1
	note G#, 2
	note D_, 1
	note D_, 1
	note __, 1
	note D_, 1
	note D_, 1
	note __, 1
	note G#, 2
	note D_, 1
	note D_, 1
	note __, 1
	note D_, 1
	note D_, 1
	note __, 1
	note G#, 2
	note D_, 1
	note D_, 1
	note __, 1
	note D_, 1
	note D_, 1
	note __, 1
	note G#, 2
	note D_, 1
	note __, 1
	note G#, 2
	note __, 16
	note __, 16
	note __, 16
	note __, 14
	loopchannel 0, Music_TangeloJungle_Ch4_loop

