Music_TraceyBattle:
	musicheader 4, 1, Music_TraceyBattle_Ch1
	musicheader 1, 2, Music_TraceyBattle_Ch2
	musicheader 1, 3, Music_TraceyBattle_Ch3
	musicheader 1, 4, Music_TraceyBattle_Ch4

Music_TraceyBattle_Ch1:
	tempo $6D
	volume $77
	stereopanning $77
	dutycycle 1
	tone $0001
	octave 3
	notetype $C, $B2
	note D_, 1
	note C#, 1
	octave 2
	note A_, 1
	octave 3
	note D_, 1
	note C#, 1
	note C_, 1
	octave 2
	note G#, 1
	octave 3
	note C#, 1
	note C_, 1
	octave 2
	note B_, 1
	note G_, 1
	octave 3
	note C_, 1
	octave 2
	note B_, 1
	note A#, 1
	note F#, 1
	note B_, 1
	note A#, 1
	note A_, 1
	note F_, 1
	note A#, 1
	note A_, 1
	note G#, 1
	note E_, 1
	note A_, 1
	note G_, 1
	note F#, 1
	note D#, 1
	note F#, 1
	note F_, 1
	note E_, 1
	note C#, 1
	octave 1
	note A#, 1
	intensity $B4
	octave 3
	note A_, 4
	note __, 2
	intensity $B2
	octave 2
	note A_, 2
	note __, 2
	note A_, 2
	note __, 2
	note A_, 2
	note G_, 2
	note __, 4
	note G_, 2
	note __, 2
	note G_, 2
	note __, 2
	note G_, 2
	note F_, 2
	note __, 4
	note F_, 2
	note __, 2
	note F_, 2
	note __, 2
	intensity $A4
	note F_, 2
	intensity $B4
	note F_, 4
	note __, 2
	note G_, 4
	note __, 2
	note G_, 4
	intensity $B2
	octave 3
	note A_, 2
	note __, 4
	note A_, 2
	note __, 2
	note A_, 2
	note __, 2
	note A_, 2
	note G_, 2
	note __, 4
	note G_, 2
	note __, 2
	note G_, 2
	note __, 2
	note G_, 2
	note F_, 2
	note __, 4
	note F_, 2
	note __, 2
	note F_, 2
	note __, 2
	note F_, 2
	intensity $B4
	octave 2
	note F_, 6
	note A_, 6
	note F_, 4
Music_TraceyBattle_Ch1_loop:
	dutycycle 1
	notetype $C, $B4
	octave 3
	note D_, 2
	note C_, 2
	octave 2
	note A_, 2
	note F_, 4
	note A_, 2
	octave 3
	note D_, 4
	octave 2
	note F_, 2
	note G_, 2
	note A_, 2
	octave 3
	note D_, 2
	octave 2
	note A_, 2
	note F_, 2
	note G_, 2
	note A_, 2
	note F_, 6
	note D_, 6
	note F_, 4
	note A_, 6
	note G_, 6
	note F_, 2
	note G_, 2
	octave 3
	note D_, 2
	note C_, 2
	octave 2
	note A_, 2
	note F_, 4
	octave 3
	note C_, 2
	note F_, 4
	octave 2
	note F_, 2
	note G_, 2
	note A_, 2
	octave 3
	note D_, 2
	note C_, 2
	octave 2
	note A_, 2
	note F_, 2
	note G_, 2
	note F_, 6
	note D_, 6
	note F_, 4
	octave 3
	note D_, 2
	octave 2
	note A_, 2
	octave 3
	note D_, 2
	note C_, 2
	octave 2
	note A_, 2
	octave 3
	note C_, 2
	note D_, 4
	note D_, 4
	note C_, 2
	note D_, 2
	note C_, 4
	octave 2
	note A_, 2
	octave 3
	note C_, 2
	note D_, 4
	note E_, 2
	note D_, 2
	octave 2
	note A_, 2
	octave 3
	note C_, 2
	note F_, 2
	note D_, 2
	note G_, 2
	note F_, 2
	note C_, 2
	note D_, 4
	note C_, 2
	note D_, 2
	note F_, 2
	note G_, 2
	note F_, 2
	note C_, 2
	note D_, 2
	octave 2
	note A_, 2
	note B_, 2
	octave 3
	note D_, 2
	octave 2
	note B_, 2
	note A#, 2
	note G_, 2
	octave 3
	note C_, 2
	octave 2
	note A#, 2
	note A_, 2
	note F_, 2
	note A#, 2
	note A_, 2
	note A#, 2
	note G_, 2
	octave 3
	note C_, 2
	octave 2
	note A#, 2
	octave 3
	note C_, 2
	octave 2
	note A_, 2
	octave 3
	note C_, 2
	note D_, 2
	note C#, 2
	octave 2
	note A_, 2
	note G_, 2
	octave 3
	note C#, 2
	octave 2
	note G_, 2
	note A_, 2
	octave 3
	note C#, 2
	note D_, 2
	octave 2
	note G_, 2
	note A_, 2
	octave 3
	note D_, 2
	note C#, 2
	note E_, 2
	note C#, 2
	note E_, 2
	note G_, 2
	note D_, 6
	intensity $B6
	octave 2
	note A#, 10
	intensity $B4
	octave 3
	note F_, 6
	note G_, 6
	note F_, 4
	note D_, 6
	intensity $B6
	octave 2
	note A_, 10
	intensity $B4
	octave 3
	note F_, 6
	note A_, 6
	note F_, 4
	note D_, 6
	intensity $B6
	octave 2
	note A#, 10
	intensity $A4
	octave 3
	note G_, 6
	note F_, 6
	note D_, 4
	note C#, 2
	note E_, 2
	note A_, 2
	note C#, 2
	note E_, 2
	note G_, 2
	note E_, 2
	note A_, 2
	note C#, 2
	note E_, 2
	note A_, 2
	note C#, 2
	note E_, 2
	note A#, 2
	note E_, 2
	note A_, 2
	dutycycle 2
	intensity $C6
	octave 2
	note A_, 8
	note F#, 8
	note A_, 8
	octave 3
	note C_, 8
	octave 2
	note A#, 8
	note G_, 8
	note F_, 8
	note E_, 8
	note A_, 8
	note F#, 8
	note A_, 8
	octave 3
	note D_, 8
	octave 2
	note A#, 8
	note G_, 8
	note A#, 8
	dutycycle 1
	intensity $B1
	octave 3
	note F_, 2
	note __, 2
	intensity $B4
	octave 2
	note A#, 2
	octave 3
	note C_, 2
	note F#, 6
	note D_, 6
	octave 2
	note A_, 4
	octave 3
	note D_, 2
	note A_, 2
	note E_, 2
	note G_, 2
	note D_, 2
	note A_, 2
	note A#, 2
	note G_, 2
	note E_, 6
	note C_, 6
	octave 2
	note G_, 4
	octave 3
	note C_, 2
	note G_, 2
	note E_, 2
	note A_, 2
	note C_, 2
	note A_, 2
	note B_, 2
	note F#, 2
	note D_, 6
	octave 2
	note B_, 6
	note F#, 4
	note B_, 2
	octave 3
	note F#, 2
	note D_, 2
	note B_, 2
	octave 2
	note B_, 2
	octave 3
	note F#, 2
	note A_, 2
	note E_, 2
	note D_, 6
	octave 2
	note A#, 6
	octave 3
	note F_, 4
	note E_, 6
	note F_, 6
	note E_, 2
	note C_, 2
	note F#, 6
	note D_, 6
	octave 2
	note A_, 4
	octave 3
	note D_, 2
	note A_, 2
	note E_, 2
	note G_, 2
	note D_, 2
	note A_, 2
	note A#, 2
	note G_, 2
	note E_, 6
	note C_, 6
	octave 2
	note G_, 4
	octave 3
	note C_, 2
	note G_, 2
	note E_, 2
	note A_, 2
	note E_, 4
	note C_, 4
	octave 2
	note A#, 4
	octave 3
	note D_, 4
	note F_, 4
	intensity $B2
	note D_, 1
	note __, 1
	intensity $B6
	note C_, 6
	note E_, 4
	note G_, 4
	note E_, 2
	octave 2
	note A#, 6
	octave 3
	note D_, 4
	note F_, 4
	intensity $B2
	note D_, 1
	note __, 1
	intensity $B6
	note C#, 8
	note __, 2
	note E_, 4
	note F_, 2
	intensity $C4
	note A_, 6
	dutycycle 0
	intensity $92
	note D_, 2
	intensity $91
	octave 2
	note G_, 1
	note A_, 1
	octave 3
	note C_, 1
	note __, 1
	intensity $92
	note D_, 2
	intensity $91
	octave 2
	note G_, 1
	note A_, 1
	octave 3
	note C_, 1
	note __, 1
	intensity $92
	note D_, 2
	intensity $91
	octave 2
	note G_, 1
	note A_, 1
	octave 3
	note C_, 1
	note __, 1
	intensity $92
	note D_, 2
	intensity $91
	octave 2
	note G_, 1
	note A_, 1
	octave 3
	note C_, 1
	note __, 1
	note D_, 1
	note __, 1
	note C_, 1
	note __, 2
	octave 2
	note G_, 1
	octave 3
	note C_, 1
	note __, 1
	intensity $92
	note D_, 2
	intensity $91
	octave 2
	note G_, 1
	note A_, 1
	octave 3
	note C_, 1
	note __, 1
	intensity $92
	note D_, 2
	intensity $91
	octave 2
	note G_, 1
	note A_, 1
	octave 3
	note C_, 1
	note __, 1
	intensity $92
	note D_, 2
	intensity $91
	octave 2
	note G_, 1
	note A_, 1
	octave 3
	note C_, 1
	note __, 1
	intensity $92
	note D_, 2
	intensity $91
	octave 2
	note G_, 1
	note A_, 1
	octave 3
	note C_, 1
	note __, 1
	note D_, 1
	note __, 1
	intensity $A4
	note C_, 2
	loopchannel 0, Music_TraceyBattle_Ch1_loop

Music_TraceyBattle_Ch2:
	dutycycle 1
	tone $0002
	vibrato $00, $14
	octave 4
	notetype $C, $D3
	note D_, 2
	intensity $C2
	octave 3
	note F_, 1
	note D_, 1
	intensity $D3
	octave 4
	note D_, 2
	intensity $C2
	octave 3
	note D_, 1
	note F_, 1
	intensity $D3
	octave 4
	note D_, 2
	intensity $C2
	octave 3
	note C_, 1
	note D_, 1
	intensity $D3
	octave 4
	note D_, 2
	intensity $C2
	octave 3
	note D_, 1
	note C_, 1
	intensity $D3
	octave 4
	note D_, 2
	intensity $C2
	octave 3
	note D_, 1
	note F_, 1
	intensity $D3
	octave 4
	note D_, 2
	intensity $C2
	octave 3
	note D_, 1
	note C_, 1
	intensity $D3
	octave 4
	note D_, 2
	intensity $C2
	octave 3
	note C_, 1
	note D_, 1
	intensity $D3
	octave 4
	note D_, 2
	intensity $C2
	octave 2
	note A#, 1
	octave 3
	note D_, 1
	intensity $C4
	octave 4
	note D_, 4
	note __, 2
	octave 3
	note D_, 2
	note __, 2
	note F_, 2
	note __, 2
	note D_, 2
	note E_, 6
	note C_, 6
	note E_, 2
	note F_, 2
	note D_, 2
	note __, 4
	note D_, 2
	note __, 2
	note F_, 2
	note __, 2
	note D_, 2
	note A_, 6
	note G_, 6
	note F_, 2
	note A_, 2
	octave 4
	note D_, 2
	note __, 4
	note D_, 2
	note __, 2
	note F_, 2
	note __, 2
	note D_, 2
	note E_, 6
	note C_, 6
	note E_, 2
	note F_, 2
	note D_, 2
	note __, 4
	note D_, 2
	note __, 2
	note F_, 2
	note __, 2
	note D_, 2
	octave 3
	note D_, 6
	note E_, 6
	note F_, 4
Music_TraceyBattle_Ch2_loop:
	notetype $C, $C4
	octave 3
	note F_, 6
	note D_, 6
	note A_, 6
	note G_, 6
	intensity $C2
	note F_, 2
	note G_, 2
	note F_, 2
	note E_, 2
	intensity $C4
	note D_, 6
	octave 2
	note A#, 6
	octave 3
	note F_, 4
	note A_, 6
	note G_, 6
	note A_, 4
	note F_, 6
	note D_, 6
	octave 4
	note D_, 6
	octave 3
	note A_, 6
	intensity $C2
	note G_, 2
	note A_, 2
	note F_, 2
	note E_, 2
	intensity $C4
	note D_, 6
	octave 2
	note A#, 6
	octave 3
	note F_, 4
	intensity $C2
	note A_, 2
	note G_, 2
	note A_, 2
	note G_, 2
	note __, 2
	note G_, 2
	intensity $C4
	note A_, 4
	note F#, 4
	note A_, 4
	octave 4
	note C_, 4
	note D_, 4
	intensity $C2
	octave 3
	note A_, 2
	note F#, 2
	octave 4
	note C_, 2
	note D_, 2
	note __, 2
	octave 3
	note A_, 2
	octave 4
	note C_, 2
	note D_, 2
	intensity $C4
	note F_, 2
	note E_, 4
	note D_, 4
	note C_, 2
	note D_, 2
	note F_, 4
	note G_, 2
	note F_, 2
	note D_, 4
	octave 3
	note D_, 2
	note F_, 2
	note G_, 2
	note F_, 8
	note E_, 8
	note F_, 8
	note G_, 8
	note F_, 8
	note E_, 8
	note F_, 8
	intensity $C5
	note A_, 4
	intensity $7C
	note A_, 4
	intensity $C4
	note A#, 6
	octave 4
	note D_, 6
	note E_, 4
	note F_, 6
	note E_, 6
	intensity $C7
	note D_, 4
	intensity $C4
	octave 3
	note A_, 6
	octave 4
	note D_, 6
	note E_, 4
	note G_, 6
	note F_, 6
	intensity $C7
	note D_, 4
	intensity $C4
	octave 3
	note A#, 6
	octave 4
	note D_, 6
	note E_, 4
	intensity $C5
	note F_, 8
	note G_, 8
	note E_, 8
	note F_, 8
	note E_, 8
	intensity $B7
	vibrato $00, $24
	note A_, 4
	intensity $8F
	note A_, 4
	intensity $C7
	vibrato $00, $14
	octave 3
	note F#, 16
	note E_, 16
	note D_, 16
	intensity $C6
	octave 2
	note A#, 8
	octave 3
	note E_, 8
	intensity $C7
	note F#, 16
	intensity $C6
	note E_, 8
	note F#, 8
	intensity $C7
	note D_, 16
	note __, 8
	intensity $4E
	note A_, 8
	intensity $C6
	octave 4
	note D_, 8
	note __, 2
	intensity $C2
	octave 3
	note A_, 2
	note A_, 2
	intensity $C4
	octave 4
	note C_, 2
	note D_, 4
	note E_, 4
	note F#, 2
	octave 5
	note D_, 6
	note C_, 8
	octave 4
	note A_, 8
	note G_, 6
	note F#, 4
	note G_, 4
	note F#, 2
	intensity $C6
	octave 3
	note B_, 8
	note __, 2
	intensity $C2
	note F#, 2
	note F#, 2
	intensity $C4
	note A_, 2
	note B_, 4
	octave 4
	note D_, 4
	note F#, 2
	note B_, 6
	note A#, 6
	note A_, 6
	note G_, 4
	note E_, 6
	note F_, 6
	note E_, 4
	dutycycle 2
	tone $0000
	intensity $B6
	vibrato $00, $26
	note D_, 8
	note __, 2
	octave 3
	note A_, 2
	note A_, 2
	octave 4
	note C_, 2
	note D_, 4
	note E_, 4
	note F#, 2
	octave 5
	note D_, 6
	note E_, 6
	note D_, 6
	note C_, 2
	octave 4
	note G_, 10
	note __, 2
	dutycycle 1
	tone $0002
	intensity $C4
	vibrato $00, $14
	octave 3
	note A#, 2
	octave 4
	note D_, 2
	intensity $C2
	note E_, 2
	intensity $C6
	note F_, 6
	intensity $C2
	octave 3
	note A#, 2
	octave 4
	note D_, 2
	octave 3
	note A#, 2
	octave 4
	note F_, 1
	note __, 1
	intensity $C6
	note G_, 8
	intensity $C4
	note C_, 2
	note D_, 2
	note C_, 2
	intensity $C2
	note E_, 2
	intensity $C6
	note F_, 8
	intensity $C2
	octave 3
	note A#, 2
	octave 4
	note D_, 2
	octave 3
	note A#, 2
	octave 4
	note G_, 1
	note __, 1
	intensity $C6
	note A_, 8
	note __, 2
	intensity $C3
	note G_, 4
	intensity $C2
	note A_, 2
	intensity $C8
	octave 5
	note D_, 3
	octave 4
	notetype $6, $98
	note A_, 1
	intensity $78
	note G_, 1
	intensity $58
	note F_, 1
	note D_, 1
	note __, 2
	tone $0001
	intensity $A2
	octave 3
	note D_, 2
	note __, 2
	note E_, 4
	note F_, 4
	note E_, 4
	note D_, 2
	note __, 2
	octave 2
	note A_, 4
	octave 3
	note D_, 4
	octave 2
	note A_, 4
	octave 3
	note D_, 2
	note __, 2
	note E_, 4
	note G_, 4
	note F_, 4
	note D_, 2
	note __, 2
	octave 2
	note A_, 4
	octave 3
	note D_, 4
	octave 2
	note A_, 4
	octave 3
	note D_, 2
	note __, 2
	note E_, 4
	note F_, 4
	note E_, 4
	octave 2
	note A_, 2
	note __, 2
	octave 3
	note C_, 4
	note D_, 4
	note C_, 2
	note D_, 4
	note __, 2
	note D_, 4
	note C_, 2
	note D_, 4
	note __, 2
	note D_, 2
	note C_, 2
	intensity $A5
	note D_, 4
	loopchannel 0, Music_TraceyBattle_Ch2_loop

Music_TraceyBattle_Ch3:
	dutycycle 4
	octave 3
	notetype $C, $14
	note D_, 2
	note E_, 1
	note D_, 1
	note E_, 2
	note F_, 1
	note E_, 1
	note F_, 2
	note G_, 1
	note F_, 1
	note G_, 2
	note A_, 1
	note G_, 1
	note A_, 2
	note A#, 1
	note A_, 1
	note A#, 2
	octave 4
	note C_, 1
	octave 3
	note A#, 1
	octave 4
	note C_, 2
	note C#, 1
	note C_, 1
	note C#, 2
	note D_, 1
	note C#, 1
	octave 3
	note D_, 2
	note A_, 2
	note D_, 2
	note A_, 2
	note D_, 2
	note A_, 2
	note D_, 2
	note A_, 2
	note C_, 2
	note G_, 2
	note C_, 2
	note G_, 2
	note C_, 2
	note G_, 2
	note C_, 4
	octave 2
	note A#, 2
	octave 3
	note F_, 2
	octave 2
	note A#, 2
	octave 3
	note F_, 2
	octave 2
	note A#, 2
	octave 3
	note F_, 2
	octave 2
	note A#, 2
	octave 3
	note F_, 2
	octave 2
	note A#, 2
	octave 3
	note F_, 2
	octave 2
	note A#, 2
	octave 3
	note F_, 2
	note G_, 2
	note F_, 2
	note E_, 2
	octave 2
	note A#, 2
	octave 3
	note D_, 2
	note A_, 2
	note D_, 2
	note A_, 2
	note D_, 2
	note A_, 2
	note D_, 2
	note A_, 2
	note C_, 2
	note G_, 2
	note C_, 2
	note G_, 2
	note C_, 2
	note G_, 2
	note C_, 4
	octave 2
	note A#, 2
	octave 3
	note F_, 2
	octave 2
	note A#, 2
	octave 3
	note F_, 2
	octave 2
	note A#, 2
	octave 3
	note F_, 2
	octave 2
	note A#, 2
	octave 3
	note F_, 2
	octave 2
	note A#, 6
	octave 3
	note C_, 6
	note D_, 4
Music_TraceyBattle_Ch3_loop:
	notetype $C, $14
	octave 3
	note D_, 2
	note A_, 2
	note D_, 2
	note A_, 2
	note D_, 2
	note A_, 2
	note D_, 2
	note A_, 2
	note D_, 2
	note A_, 2
	note D_, 2
	note A_, 2
	note D_, 2
	note A_, 2
	note D_, 2
	note A_, 2
	octave 2
	note A#, 2
	octave 3
	note F_, 2
	octave 2
	note A#, 2
	octave 3
	note F_, 2
	octave 2
	note A#, 2
	octave 3
	note F_, 2
	octave 2
	note A#, 2
	octave 3
	note F_, 2
	note C_, 2
	note G_, 2
	note C_, 2
	note G_, 2
	note C_, 2
	note G_, 2
	note C_, 2
	octave 2
	note A#, 2
	octave 3
	note D_, 2
	note A_, 2
	note D_, 2
	note A_, 2
	note D_, 2
	note A_, 2
	note D_, 2
	note A_, 2
	note D_, 2
	note A_, 2
	note D_, 2
	note A_, 2
	note D_, 2
	note A_, 2
	note D_, 2
	note A_, 2
	octave 2
	note A#, 2
	octave 3
	note F_, 2
	octave 2
	note A#, 2
	octave 3
	note F_, 2
	octave 2
	note A#, 2
	octave 3
	note F_, 2
	octave 2
	note A#, 2
	octave 3
	note F_, 2
	note C_, 2
	note E_, 2
	note C_, 2
	note E_, 4
	note C_, 2
	note F_, 4
	note D_, 2
	note A_, 2
	note D_, 2
	note A_, 2
	note D_, 2
	note A_, 2
	note D_, 2
	note A_, 2
	note D_, 2
	note A_, 2
	note D_, 2
	note A_, 2
	note D_, 2
	note A_, 2
	note D_, 2
	note A_, 2
	note C_, 2
	note G_, 2
	note C_, 2
	note G_, 2
	note C_, 2
	note G_, 2
	note C_, 2
	note G_, 2
	note C_, 2
	note G_, 2
	note C_, 2
	note G_, 2
	note C_, 2
	note G_, 2
	note C_, 2
	note G_, 2
	octave 2
	note A#, 2
	octave 3
	note F_, 2
	octave 2
	note A#, 2
	octave 3
	note F_, 2
	octave 2
	note A#, 2
	octave 3
	note F_, 2
	octave 2
	note A#, 2
	octave 3
	note F_, 2
	octave 2
	note A#, 2
	octave 3
	note F_, 2
	octave 2
	note A#, 2
	octave 3
	note F_, 2
	octave 2
	note A#, 2
	octave 3
	note F_, 2
	octave 2
	note A#, 2
	octave 3
	note F_, 2
	note E_, 2
	note A_, 2
	note E_, 2
	note A_, 2
	note E_, 2
	note A_, 2
	note E_, 2
	note A_, 2
	note E_, 2
	note A_, 2
	note E_, 2
	note A_, 2
	octave 4
	note C#, 2
	octave 3
	note A_, 2
	note E_, 2
	note C#, 2
	note F_, 2
	note A#, 2
	note F_, 2
	note A#, 2
	note F_, 2
	note A#, 2
	note F_, 2
	note A#, 2
	note F_, 2
	note A#, 2
	note F_, 2
	note A#, 2
	note F_, 2
	note A#, 2
	note F_, 2
	note E_, 2
	note D_, 2
	note A_, 2
	note D_, 2
	note A_, 2
	note D_, 2
	note A_, 2
	note D_, 2
	note A_, 2
	note D_, 2
	note A_, 2
	note D_, 2
	note A_, 2
	note D_, 2
	note A_, 2
	note D_, 2
	note E_, 2
	note F_, 2
	note A#, 2
	note F_, 2
	note A#, 2
	note F_, 2
	note A#, 2
	note F_, 2
	note A#, 2
	note F_, 2
	note A#, 2
	note F_, 2
	note A#, 2
	note F_, 2
	note A#, 2
	note F_, 2
	note A#, 2
	note E_, 2
	note A_, 2
	note E_, 2
	note A_, 2
	note E_, 2
	note A_, 2
	note E_, 2
	note A_, 2
	note E_, 2
	note A_, 2
	note E_, 2
	note A_, 2
	note D_, 2
	note E_, 2
	note G_, 2
	note A_, 2
	note D_, 16
	note F#, 16
	octave 2
	note A#, 16
	octave 3
	note C_, 8
	note G_, 8
	note D_, 4
	note F#, 4
	note D_, 2
	note F#, 2
	note A_, 4
	note D_, 2
	note A_, 2
	note D_, 2
	note A_, 2
	note D_, 2
	note G_, 2
	note D_, 2
	note G_, 2
	note F_, 8
	note D_, 8
	note F_, 8
	note G_, 2
	note __, 2
	note F_, 4
	note D_, 2
	note A_, 2
	note D_, 2
	note A_, 2
	note D_, 2
	note A_, 2
	note D_, 2
	note A_, 2
	note D_, 2
	note A_, 2
	note D_, 2
	note A_, 2
	note D_, 2
	note A_, 2
	note D_, 2
	note A_, 2
	note C_, 2
	note G_, 2
	note C_, 2
	note G_, 2
	note C_, 2
	note G_, 2
	note C_, 2
	note G_, 2
	note C_, 2
	note G_, 2
	note C_, 2
	note G_, 2
	note C_, 2
	note G_, 2
	note C_, 2
	note G_, 2
	octave 2
	note B_, 2
	octave 3
	note F#, 2
	octave 2
	note B_, 2
	octave 3
	note F#, 2
	octave 2
	note B_, 2
	octave 3
	note F#, 2
	octave 2
	note B_, 2
	octave 3
	note F#, 2
	octave 2
	note B_, 2
	octave 3
	note F#, 2
	octave 2
	note B_, 2
	octave 3
	note F#, 2
	octave 2
	note B_, 2
	octave 3
	note F#, 2
	octave 2
	note B_, 2
	octave 3
	note F#, 2
	octave 2
	note A#, 2
	octave 3
	note F_, 2
	octave 2
	note A#, 2
	octave 3
	note F_, 2
	octave 2
	note A#, 2
	octave 3
	note F_, 2
	octave 2
	note A#, 2
	octave 3
	note F_, 2
	note C_, 2
	note G_, 2
	note C_, 2
	note G_, 2
	note C_, 2
	note G_, 2
	note C_, 2
	note G_, 2
	note D_, 2
	note A_, 2
	note D_, 2
	note A_, 2
	note D_, 2
	note A_, 2
	note D_, 2
	note A_, 2
	note D_, 2
	note A_, 2
	note D_, 2
	note A_, 2
	note D_, 2
	note A_, 2
	note D_, 2
	note A_, 2
	note C_, 2
	note G_, 2
	note C_, 2
	note G_, 2
	note C_, 2
	note G_, 2
	note C_, 2
	note G_, 2
	note C_, 2
	note G_, 2
	note C_, 2
	note G_, 2
	note C_, 2
	note G_, 2
	note C_, 2
	note G_, 2
	octave 2
	note A#, 2
	octave 3
	note F_, 2
	octave 2
	note A#, 2
	octave 3
	note F_, 2
	octave 2
	note A#, 2
	octave 3
	note F_, 2
	octave 2
	note A#, 2
	octave 3
	note C_, 4
	note G_, 2
	note C_, 2
	note G_, 2
	note C_, 2
	note G_, 2
	note C_, 2
	octave 2
	note A#, 4
	octave 3
	note F_, 2
	octave 2
	note A#, 2
	octave 3
	note F_, 2
	octave 2
	note A#, 2
	octave 3
	note F_, 2
	octave 2
	note A#, 2
	note A_, 4
	octave 3
	note E_, 2
	octave 2
	note A_, 2
	octave 3
	note D_, 2
	octave 2
	note A_, 2
	octave 3
	note E_, 2
	note C_, 2
	note D_, 4
	note F_, 2
	note A_, 2
	note D_, 2
	note F_, 2
	note A_, 2
	note D_, 2
	note F_, 2
	note D_, 2
	note F_, 2
	note A_, 2
	note D_, 2
	note F_, 2
	note A_, 2
	note D_, 2
	note G_, 2
	note D_, 2
	note F_, 2
	note A_, 2
	note D_, 2
	note F_, 2
	note A_, 2
	note D_, 2
	note F_, 2
	note D_, 2
	note F_, 1
	note A_, 2
	note __, 1
	note F_, 3
	note __, 1
	note D_, 2
	note E_, 1
	note D_, 1
	note E_, 2
	loopchannel 0, Music_TraceyBattle_Ch3_loop

Music_TraceyBattle_Ch4:
	togglenoise 2
	notetype $C
	note C#, 1
	note __, 1
	note G_, 1
	note __, 1
	note C#, 1
	note __, 1
	note G_, 1
	note __, 1
	note C#, 1
	note __, 1
	note D#, 1
	note __, 1
	note C#, 1
	note __, 1
	note D#, 1
	note __, 1
	note C#, 1
	note __, 1
	note D#, 1
	note __, 1
	note C#, 1
	note __, 1
	note D#, 1
	note __, 1
	note C#, 1
	note D#, 1
	note C#, 1
	note D#, 1
	note C#, 1
	note D#, 1
	note C#, 1
	note D#, 1
	note C_, 2
	note G_, 1
	note __, 1
	note C#, 1
	note __, 1
	note G_, 1
	note __, 1
	note D_, 1
	note __, 1
	note G_, 1
	note __, 1
	note C#, 1
	note __, 1
	note G_, 1
	note __, 1
	note G#, 1
	note __, 1
	note G_, 1
	note __, 1
	note D_, 1
	note __, 1
	note G#, 1
	note __, 1
	note G_, 1
	note __, 1
	note D_, 1
	note __, 1
	note G#, 1
	note __, 1
	note G_, 1
	note __, 1
	note G#, 1
	note __, 1
	note G_, 1
	note __, 1
	note C#, 1
	note __, 1
	note G_, 1
	note __, 1
	note D_, 1
	note __, 1
	note G_, 1
	note __, 1
	note C#, 1
	note __, 1
	note G_, 1
	note __, 1
	note G#, 1
	note __, 1
	note G_, 1
	note __, 1
	note D_, 1
	note __, 1
	note G#, 1
	note __, 1
	note G_, 1
	note __, 1
	note D_, 1
	note __, 1
	note G#, 1
	note __, 1
	note G_, 1
	note __, 1
	note G#, 1
	note __, 1
	note G_, 1
	note __, 1
	note C#, 1
	note __, 1
	note G_, 1
	note __, 1
	note D_, 1
	note __, 1
	note G_, 1
	note __, 1
	note C#, 1
	note __, 1
	note G_, 1
	note __, 1
	note G#, 1
	note __, 1
	note G_, 1
	note __, 1
	note D_, 1
	note __, 1
	note G#, 1
	note __, 1
	note G_, 1
	note __, 1
	note D_, 1
	note __, 1
	note G#, 1
	note __, 1
	note G_, 1
	note __, 1
	note G#, 1
	note __, 1
	note G_, 1
	note __, 1
	note C#, 1
	note __, 1
	note G_, 1
	note __, 1
	note D_, 1
	note __, 1
	note G_, 1
	note __, 1
	note C#, 1
	note __, 1
	note G_, 1
	note __, 1
	note G#, 1
	note __, 1
	note G_, 1
	note __, 1
	note D_, 1
	note __, 1
	note G#, 1
	note __, 1
	note G_, 1
	note __, 1
	note D_, 1
	note __, 1
	note G#, 1
	note D#, 1
	note C#, 1
	note D#, 1
Music_TraceyBattle_Ch4_loop:
	notetype $C
	note C_, 2
	note G_, 1
	note __, 1
	note C#, 1
	note __, 1
	note G_, 1
	note __, 1
	note D_, 1
	note __, 1
	note G_, 1
	note __, 1
	note C#, 1
	note __, 1
	note G_, 1
	note __, 1
	note D_, 1
	note __, 1
	note G_, 1
	note __, 1
	note C#, 1
	note __, 1
	note G_, 1
	note __, 1
	note D_, 1
	note __, 1
	note G_, 1
	note __, 1
	note C#, 1
	note __, 1
	note G_, 1
	note __, 1
	note D_, 1
	note __, 1
	note G_, 1
	note __, 1
	note C#, 1
	note __, 1
	note G_, 1
	note __, 1
	note D_, 1
	note __, 1
	note G_, 1
	note __, 1
	note C#, 1
	note __, 1
	note G_, 1
	note __, 1
	note D_, 1
	note __, 1
	note G_, 1
	note __, 1
	note C#, 1
	note __, 1
	note G_, 1
	note __, 1
	note D_, 1
	note __, 1
	note G_, 1
	note __, 1
	note C#, 1
	note __, 1
	note G_, 1
	note __, 1
	note G#, 2
	note G_, 1
	note __, 1
	note C#, 1
	note __, 1
	note G_, 1
	note __, 1
	note D_, 1
	note __, 1
	note G_, 1
	note __, 1
	note C#, 1
	note __, 1
	note G_, 1
	note __, 1
	note D_, 1
	note __, 1
	note G_, 1
	note __, 1
	note C#, 1
	note __, 1
	note G_, 1
	note __, 1
	note D_, 1
	note __, 1
	note G_, 1
	note __, 1
	note C#, 1
	note __, 1
	note G_, 1
	note __, 1
	note D_, 1
	note __, 1
	note G_, 1
	note __, 1
	note C#, 1
	note __, 1
	note G_, 1
	note __, 1
	note D_, 1
	note __, 1
	note G_, 1
	note __, 1
	note C#, 1
	note __, 1
	note G_, 1
	note __, 1
	note G#, 1
	note __, 1
	note G_, 1
	note __, 1
	note D_, 1
	note __, 1
	note G#, 1
	note __, 1
	note G_, 1
	note __, 1
	note D_, 1
	note __, 1
	note G#, 1
	note __, 1
	note G_, 1
	note __, 1
	note C_, 2
	note G_, 1
	note __, 1
	note C#, 1
	note __, 1
	note G_, 1
	note __, 1
	note D_, 1
	note __, 1
	note G_, 1
	note __, 1
	note C#, 1
	note __, 1
	note G_, 1
	note __, 1
	note D_, 1
	note __, 1
	note G_, 1
	note __, 1
	note C#, 1
	note __, 1
	note G_, 1
	note __, 1
	note D_, 1
	note __, 1
	note G_, 1
	note __, 1
	note C#, 1
	note __, 1
	note G_, 1
	note __, 1
	note G#, 2
	note G_, 1
	note __, 1
	note C#, 1
	note __, 1
	note G_, 1
	note __, 1
	note D_, 1
	note __, 1
	note G_, 1
	note __, 1
	note C#, 1
	note __, 1
	note G_, 1
	note __, 1
	note D_, 1
	note __, 1
	note G_, 1
	note __, 1
	note C#, 1
	note __, 1
	note G_, 1
	note __, 1
	note D_, 1
	note __, 1
	note G_, 1
	note __, 1
	note G#, 2
	note G_, 1
	note __, 1
	note G#, 2
	note G_, 1
	note __, 1
	note C#, 1
	note __, 1
	note G_, 1
	note __, 1
	note D_, 1
	note __, 1
	note G_, 1
	note __, 1
	note C#, 1
	note __, 1
	note G_, 1
	note __, 1
	note D_, 1
	note __, 1
	note G_, 1
	note __, 1
	note C#, 1
	note __, 1
	note G_, 1
	note __, 1
	note D_, 1
	note __, 1
	note G_, 1
	note __, 1
	note C#, 1
	note __, 1
	note G_, 1
	note __, 1
	note G#, 2
	note G_, 1
	note __, 1
	note C#, 1
	note __, 1
	note G_, 1
	note __, 1
	note G#, 2
	note G_, 1
	note __, 1
	note C#, 1
	note __, 1
	note G_, 1
	note __, 1
	note G#, 2
	note G_, 1
	note __, 1
	note C#, 1
	note __, 1
	note G_, 1
	note __, 1
	note G#, 2
	note G_, 1
	note __, 1
	note G#, 1
	note D#, 1
	note G#, 2
	note C_, 2
	note G_, 1
	note __, 1
	note C#, 1
	note __, 1
	note G_, 1
	note __, 1
	note D_, 1
	note __, 1
	note G_, 1
	note __, 1
	note C#, 1
	note __, 1
	note G_, 1
	note __, 1
	note D_, 1
	note __, 1
	note G_, 1
	note __, 1
	note C#, 1
	note __, 1
	note G_, 1
	note __, 1
	note D_, 1
	note __, 1
	note G_, 1
	note __, 1
	note C#, 1
	note __, 1
	note G_, 1
	note __, 1
	note G#, 2
	note G_, 1
	note __, 1
	note C#, 1
	note __, 1
	note G_, 1
	note __, 1
	note D_, 1
	note __, 1
	note G_, 1
	note __, 1
	note C#, 1
	note __, 1
	note G_, 1
	note __, 1
	note D_, 1
	note __, 1
	note G_, 1
	note __, 1
	note C#, 1
	note __, 1
	note G_, 1
	note __, 1
	note D_, 1
	note __, 1
	note G_, 1
	note __, 1
	note A_, 2
	note C#, 1
	note D#, 1
	note G#, 2
	note G_, 1
	note __, 1
	note C#, 1
	note __, 1
	note G_, 1
	note __, 1
	note D_, 1
	note __, 1
	note G_, 1
	note __, 1
	note C#, 1
	note __, 1
	note G_, 1
	note __, 1
	note D_, 1
	note __, 1
	note G_, 1
	note __, 1
	note C#, 1
	note __, 1
	note G_, 1
	note __, 1
	note D_, 1
	note __, 1
	note G_, 1
	note __, 1
	note C#, 1
	note __, 1
	note G_, 1
	note __, 1
	note G#, 2
	note G_, 1
	note __, 1
	note C#, 1
	note __, 1
	note G_, 1
	note __, 1
	note D_, 1
	note __, 1
	note G_, 1
	note __, 1
	note C#, 1
	note __, 1
	note G_, 1
	note __, 1
	note G#, 1
	note __, 1
	note G_, 1
	note __, 1
	note D_, 1
	note __, 1
	note G#, 1
	note __, 1
	note G_, 1
	note __, 1
	note D_, 1
	note __, 1
	note G#, 2
	note D#, 1
	note __, 1
	note A_, 2
	note __, 16
	note __, 16
	note __, 16
	note __, 6
	note G_, 1
	note G_, 1
	note G_, 1
	note G_, 1
	note G_, 1
	note G_, 1
	note G_, 1
	note G_, 1
	note A_, 2
	note G_, 1
	note __, 1
	note D#, 1
	note __, 1
	note G_, 1
	note __, 1
	note C#, 1
	note __, 1
	note G_, 1
	note __, 1
	note D#, 1
	note __, 1
	note G_, 1
	note __, 1
	note D_, 1
	note __, 1
	note G_, 1
	note __, 1
	note C#, 1
	note __, 1
	note G_, 1
	note __, 1
	note D_, 1
	note __, 1
	note G_, 1
	note __, 1
	note C#, 1
	note __, 1
	note G_, 1
	note __, 1
	note A_, 2
	note __, 16
	note __, 6
	note G_, 1
	note G_, 1
	note G_, 1
	note G_, 1
	note G#, 1
	note G_, 1
	note G_, 1
	note G_, 1
	note C_, 2
	note G_, 1
	note __, 1
	note C#, 1
	note __, 1
	note G_, 1
	note __, 1
	note D_, 1
	note __, 1
	note G_, 1
	note __, 1
	note C#, 1
	note __, 1
	note G_, 1
	note __, 1
	note D_, 1
	note __, 1
	note G_, 1
	note __, 1
	note C#, 1
	note __, 1
	note G_, 1
	note __, 1
	note D_, 1
	note __, 1
	note G_, 1
	note __, 1
	note C#, 1
	note __, 1
	note G_, 1
	note __, 1
	note G#, 2
	note G_, 1
	note __, 1
	note C#, 1
	note __, 1
	note G_, 1
	note __, 1
	note G#, 2
	note G_, 1
	note __, 1
	note C#, 1
	note __, 1
	note G_, 1
	note __, 1
	note G#, 2
	note G_, 1
	note __, 1
	note C#, 1
	note __, 1
	note G#, 2
	note D_, 1
	note __, 1
	note G#, 2
	note C#, 1
	note __, 1
	note D_, 1
	note __, 1
	note C_, 2
	note G_, 1
	note __, 1
	note C#, 1
	note __, 1
	note G_, 1
	note __, 1
	note D_, 1
	note __, 1
	note G_, 1
	note __, 1
	note C#, 1
	note __, 1
	note G_, 1
	note __, 1
	note D_, 1
	note __, 1
	note G_, 1
	note __, 1
	note C#, 1
	note __, 1
	note G_, 1
	note __, 1
	note D_, 1
	note __, 1
	note G_, 1
	note __, 1
	note C#, 1
	note __, 1
	note G_, 1
	note __, 1
	note G#, 2
	note G_, 1
	note __, 1
	note C#, 1
	note __, 1
	note G#, 2
	note D_, 1
	note __, 1
	note G#, 2
	note C#, 2
	note G_, 1
	note __, 1
	note G#, 2
	note G_, 1
	note __, 1
	note C#, 1
	note __, 1
	note G#, 2
	note D_, 1
	note __, 1
	note G#, 2
	note G#, 2
	note G_, 1
	note __, 1
	note C_, 2
	note G_, 1
	note __, 1
	note C#, 1
	note __, 1
	note G_, 1
	note __, 1
	note D_, 1
	note __, 1
	note G_, 1
	note __, 1
	note C#, 1
	note __, 1
	note G_, 1
	note __, 1
	note D_, 1
	note __, 1
	note G_, 1
	note __, 1
	note C#, 1
	note __, 1
	note G_, 1
	note __, 1
	note D_, 1
	note __, 1
	note G_, 1
	note __, 1
	note C#, 1
	note __, 1
	note G_, 1
	note __, 1
	note G#, 2
	note G_, 1
	note __, 1
	note C#, 1
	note __, 1
	note G#, 2
	note D_, 1
	note __, 1
	note G_, 1
	note __, 1
	note G#, 2
	note G_, 1
	note __, 1
	note G#, 2
	note G_, 1
	note __, 1
	note C#, 1
	note __, 1
	note G#, 2
	note D_, 1
	note __, 1
	note G#, 2
	note G#, 2
	note G_, 1
	note __, 1
	note A_, 2
	note G_, 1
	note __, 1
	note C_, 1
	note __, 1
	note G_, 1
	note D_, 1
	note G_, 1
	note __, 1
	note C_, 1
	note __, 1
	note G_, 1
	note __, 1
	note A_, 2
	note D_, 1
	note __, 1
	note G_, 1
	note __, 1
	note C_, 1
	note __, 1
	note G_, 1
	note D_, 1
	note G_, 1
	note __, 1
	note C_, 1
	note __, 1
	note G_, 1
	note __, 1
	note A_, 2
	note D_, 1
	note __, 1
	note G_, 1
	note __, 1
	note C_, 1
	note __, 1
	note G_, 1
	note D_, 1
	note G_, 1
	note __, 1
	note C_, 1
	note __, 1
	note G_, 1
	note __, 1
	note A_, 2
	note D_, 1
	note __, 1
	note G_, 1
	note __, 1
	note C_, 1
	note __, 1
	note G_, 1
	note D_, 1
	note C_, 2
	note C#, 1
	note __, 1
	note C_, 2
	note A_, 2
	note D_, 1
	note __, 1
	note G_, 1
	note G_, 1
	note C#, 1
	note __, 1
	note G_, 1
	note G_, 1
	note D_, 1
	note __, 1
	note G_, 1
	note G_, 1
	note C#, 1
	note __, 1
	note G_, 1
	note G_, 1
	note D_, 1
	note __, 1
	note G_, 1
	note G_, 1
	note C#, 1
	note __, 1
	note G_, 1
	note G_, 1
	note D_, 1
	note __, 1
	note G_, 1
	note G_, 1
	note C#, 1
	note __, 1
	note A_, 2
	note D_, 1
	note __, 1
	note G_, 1
	note G_, 1
	note C#, 1
	note __, 1
	note G_, 1
	note G_, 1
	note D_, 1
	note __, 1
	note G_, 1
	note G_, 1
	note C#, 1
	note __, 1
	note G_, 1
	note G_, 1
	note G#, 2
	note D#, 1
	note C#, 1
	note __, 1
	note G_, 1
	note G#, 2
	note D#, 1
	note C#, 1
	note __, 1
	note G_, 1
	note G#, 1
	note D#, 1
	note G#, 2
	loopchannel 0, Music_TraceyBattle_Ch4_loop

