Music_TraceyEncounter:
	musicheader 4, 1, Music_TraceyEncounter_Ch1
	musicheader 1, 2, Music_TraceyEncounter_Ch2
	musicheader 1, 3, Music_TraceyEncounter_Ch3
	musicheader 1, 4, Music_TraceyEncounter_Ch4

Music_TraceyEncounter_Ch1:
	tempo $85
	volume $77
	stereopanning $f
	octave 3
	notetype $C, $00
	note D_, 1
	note __, 13
	dutycycle 1
	tone $0001
	intensity $A4
	note D_, 2
Music_TraceyEncounter_Ch1_loop:
	notetype $C
	octave 3
	intensity $A2
	note E_, 1
	note G_, 1
	note F_, 1
	note E_, 1
	note __, 1
	note C_, 1
	intensity $A4
	octave 4
	note C_, 3
	note __, 1
	intensity $A2
	octave 3
	note C_, 1
	note __, 1
	note E_, 1
	note __, 1
	octave 4
	note C_, 2
	octave 3
	note A#, 2
	note C_, 1
	note G_, 1
	note __, 1
	note C_, 1
	intensity $A4
	note F_, 3
	note __, 1
	intensity $A2
	note C_, 1
	note __, 1
	note F_, 1
	note __, 1
	note G_, 2
	note E_, 1
	octave 2
	note A_, 1
	octave 3
	note C_, 1
	octave 2
	note A_, 1
	note __, 1
	octave 3
	note C_, 1
	intensity $A4
	note A_, 3
	note __, 1
	intensity $A2
	note C_, 1
	note __, 1
	note D_, 1
	note __, 1
	note E_, 2
	note C_, 1
	note __, 1
	note D_, 1
	note G#, 2
	note __, 1
	note D_, 1
	note __, 1
	note A#, 2
	note D#, 1
	note G_, 2
	note F_, 1
	note C#, 1
	note D#, 1
	note E_, 1
	note G_, 1
	note F_, 1
	note E_, 1
	note __, 1
	note C_, 1
	intensity $A4
	octave 4
	note C_, 3
	note __, 1
	intensity $A2
	octave 3
	note C_, 1
	note __, 1
	note E_, 1
	note __, 1
	octave 4
	note C_, 2
	octave 3
	note G_, 1
	note __, 1
	intensity $A5
	octave 4
	note C_, 2
	intensity $A2
	octave 3
	note C_, 1
	note __, 1
	intensity $A5
	note A#, 2
	intensity $A2
	octave 2
	note A#, 1
	note __, 1
	intensity $A5
	octave 3
	note G_, 2
	intensity $A2
	octave 2
	note A#, 1
	note __, 1
	intensity $A5
	octave 3
	note A#, 2
	intensity $A4
	note A_, 4
	note __, 2
	note E_, 4
	intensity $A2
	note C_, 2
	note D_, 1
	note __, 1
	intensity $A4
	note D#, 3
	note __, 1
	intensity $A2
	note D_, 1
	note __, 1
	note C_, 1
	note __, 1
	intensity $A4
	note F_, 3
	note __, 1
	intensity $A2
	note D_, 2
	note E_, 1
	note D_, 1
	note G_, 2
	note F_, 1
	note C_, 1
	note F_, 1
	note A_, 1
	note __, 2
	intensity $A4
	octave 4
	note C_, 2
	intensity $A2
	octave 3
	note A_, 1
	note F_, 1
	note A_, 2
	intensity $A4
	octave 4
	note C_, 2
	intensity $A7
	octave 3
	note B_, 4
	intensity $A2
	note A#, 1
	note A_, 1
	intensity $A4
	note G_, 2
	intensity $A7
	note B_, 4
	intensity $A2
	note G_, 2
	note E_, 1
	note G_, 1
	note E_, 2
	note G_, 1
	note __, 1
	note A_, 2
	note F_, 1
	note __, 1
	note G_, 2
	note E_, 2
	note F_, 1
	note E_, 1
	note D_, 2
	octave 2
	note B_, 2
	intensity $A4
	octave 3
	note E_, 4
	intensity $A2
	octave 2
	note G_, 2
	intensity $A4
	octave 3
	note E_, 4
	intensity $A2
	octave 2
	note A#, 2
	octave 3
	note C_, 1
	note D_, 1
	note C_, 2
	note F_, 1
	note C_, 1
	note F_, 1
	note A_, 1
	note __, 2
	intensity $A4
	octave 4
	note C_, 2
	intensity $A2
	octave 3
	note A_, 1
	note F_, 1
	note A_, 2
	intensity $A4
	octave 4
	note C_, 2
	octave 3
	note B_, 4
	note G_, 2
	note __, 1
	octave 4
	notetype $6, $A2
	note D_, 1
	note D#, 1
	intensity $A5
	note E_, 8
	intensity $A2
	octave 3
	note D_, 2
	note __, 2
	note E_, 2
	note __, 2
	intensity $A4
	note A_, 4
	intensity $A8
	note G#, 8
	note G_, 8
	note F_, 8
	note D#, 4
	intensity $A2
	note D_, 4
	note __, 12
	intensity $A4
	note D_, 6
	octave 2
	note G_, 6
	note B_, 4
	intensity $A2
	octave 3
	note D_, 4
	notetype $C, $0F
	note E_, 12
	intensity $A7
	note E_, 4
	intensity $0F
	note D_, 12
	intensity $A7
	note D_, 4
	intensity $0F
	note C_, 12
	intensity $A7
	note C_, 4
	intensity $0D
	note C_, 8
	note D_, 8
	intensity $0F
	note E_, 12
	intensity $A7
	note E_, 4
	intensity $0F
	note D_, 12
	intensity $A7
	note D_, 4
	intensity $0F
	note C_, 12
	intensity $A7
	note C_, 4
	intensity $C2
	octave 2
	note G#, 1
	note A#, 1
	octave 3
	note C_, 1
	note __, 3
	note D_, 2
	note __, 8
	loopchannel 0, Music_TraceyEncounter_Ch1_loop

Music_TraceyEncounter_Ch2:
	stereopanning $f0
	octave 3
	notetype $C, $00
	note G_, 1
	note __, 13
	dutycycle 1
	intensity $C5
	octave 4
	note C_, 1
	note D_, 1
Music_TraceyEncounter_Ch2_loop:
	notetype $C, $C5
	octave 4
	note E_, 3
	note C_, 3
	note G_, 3
	note __, 1
	note F_, 2
	note E_, 2
	note F_, 2
	note E_, 3
	note C_, 3
	note G_, 3
	note __, 1
	note F_, 2
	note E_, 1
	note C_, 1
	note G_, 2
	note E_, 3
	note C_, 3
	note A_, 3
	intensity $C2
	note E_, 1
	note __, 1
	intensity $C5
	octave 3
	note A_, 1
	octave 4
	note C_, 2
	note D_, 2
	note D#, 3
	note C_, 3
	note D#, 2
	intensity $C2
	note G_, 2
	note C_, 1
	note F_, 2
	octave 3
	note A#, 1
	intensity $C4
	octave 4
	note D_, 2
	note E_, 3
	note C_, 3
	note G_, 3
	note __, 1
	note F_, 2
	note E_, 1
	note F_, 1
	note E_, 1
	note G_, 1
	note A#, 2
	octave 3
	note D_, 1
	note __, 1
	octave 4
	note A_, 2
	octave 3
	note C_, 1
	note __, 1
	octave 4
	note G_, 2
	octave 2
	note A#, 1
	note __, 1
	octave 4
	note F_, 2
	octave 3
	note C_, 1
	note __, 1
	intensity $C8
	octave 4
	note E_, 4
	intensity $C5
	note D#, 1
	note D_, 1
	intensity $C4
	note C_, 4
	note D_, 2
	note F_, 1
	note __, 1
	note G#, 4
	note G_, 1
	note __, 1
	note F_, 1
	note __, 1
	note D_, 2
	note __, 2
	note C_, 2
	note __, 1
	octave 3
	note A#, 2
	note __, 1
	note A_, 2
	octave 4
	notetype $6, $C5
	note D_, 1
	note E_, 1
	note F_, 1
	note G_, 1
	note A_, 4
	note __, 4
	note A_, 4
	note G_, 4
	note F_, 3
	note F#, 1
	intensity $C7
	note G_, 13
	note __, 2
	intensity $C5
	note D#, 1
	note E_, 8
	note D_, 8
	note C_, 4
	note F_, 8
	note G_, 8
	note E_, 2
	note __, 2
	note D_, 2
	note __, 2
	note C_, 2
	note __, 2
	octave 3
	note G_, 2
	note __, 2
	octave 4
	note C_, 8
	octave 3
	note G_, 4
	octave 4
	note D_, 8
	octave 3
	note G_, 4
	octave 4
	note E_, 2
	note D_, 2
	note E_, 4
	octave 3
	note A_, 4
	octave 4
	note D_, 1
	note E_, 1
	note F_, 1
	note G_, 1
	note A_, 4
	note __, 4
	note A_, 4
	note G_, 4
	note F_, 3
	note F#, 1
	note G_, 12
	note __, 2
	note A#, 1
	note B_, 1
	octave 5
	note C_, 8
	octave 3
	note G_, 4
	octave 4
	note C_, 4
	note D_, 4
	intensity $98
	note D#, 8
	intensity $A8
	vibrato $00, $34
	note D#, 8
	intensity $B8
	note D#, 4
	intensity $C5
	vibrato $10, $34
	note F_, 4
	note D#, 3
	note C#, 1
	note G_, 4
	note __, 12
	note D_, 8
	octave 3
	note D_, 4
	note B_, 4
	note G_, 4
	dutycycle 2
	note C_, 8
	note D_, 8
	note E_, 8
	octave 4
	note C_, 4
	octave 3
	note A#, 8
	note E_, 8
	note G_, 4
	note E_, 4
	note F_, 4
	note E_, 4
	octave 2
	note B_, 4
	note A_, 8
	note B_, 8
	octave 3
	note C_, 8
	note A_, 4
	note G#, 8
	note G_, 8
	note F_, 4
	note D_, 6
	note D#, 6
	note D_, 4
	note C_, 8
	note D_, 8
	note E_, 8
	octave 4
	note C_, 4
	note D_, 8
	note C_, 8
	octave 3
	note A#, 4
	note G_, 4
	note F_, 4
	note G_, 4
	note C_, 4
	octave 2
	note A_, 8
	note B_, 8
	octave 3
	note C_, 8
	note E_, 8
	dutycycle 1
	intensity $C2
	note G#, 2
	note G_, 2
	note G#, 2
	note __, 4
	note C_, 2
	note A#, 4
	note __, 12
	octave 4
	note C_, 2
	note D_, 2
	loopchannel 0, Music_TraceyEncounter_Ch2_loop

Music_TraceyEncounter_Ch3:
	octave 2
	notetype $C, $00
	note G_, 1
	note __, 13
	dutycycle 9
	intensity $19
	note A#, 2
	octave 3
Music_TraceyEncounter_Ch3_loop:
	notetype $C
	octave 3
	note C_, 1
	note __, 1
	note C_, 1
	note __, 1
	note D_, 2
	note C_, 1
	note __, 1
	note E_, 2
	note C_, 1
	note F_, 2
	note C_, 1
	note G_, 2
	octave 2
	note A#, 1
	note __, 1
	note A#, 1
	note __, 1
	octave 3
	note D_, 2
	note C_, 1
	note __, 1
	note E_, 2
	note C_, 1
	note F_, 2
	note C_, 1
	note G_, 2
	octave 2
	note A_, 1
	note __, 1
	note A_, 1
	note __, 1
	octave 3
	note C_, 2
	octave 2
	note A_, 1
	note __, 1
	octave 3
	note C_, 2
	octave 2
	note A_, 1
	octave 3
	note D_, 2
	octave 2
	note A_, 1
	octave 3
	note E_, 2
	octave 2
	note G#, 1
	note __, 1
	note G#, 1
	note __, 1
	octave 3
	note C_, 2
	octave 2
	note G#, 2
	note A#, 2
	note G_, 1
	note __, 1
	octave 3
	note D_, 2
	octave 2
	note B_, 2
	octave 3
	note C_, 1
	note __, 1
	note C_, 1
	note __, 1
	note D_, 2
	note C_, 1
	note __, 1
	note E_, 2
	note C_, 1
	note F_, 2
	note C_, 1
	note G_, 2
	octave 2
	note A#, 1
	note __, 1
	octave 3
	note D_, 2
	octave 2
	note A#, 1
	note __, 1
	octave 3
	note F_, 2
	octave 2
	note A#, 1
	note __, 1
	octave 3
	note D_, 2
	note F_, 2
	note C_, 1
	octave 2
	note A#, 1
	note A_, 1
	note __, 1
	note A_, 1
	note __, 1
	octave 3
	note C_, 2
	octave 2
	note A_, 1
	note __, 1
	octave 3
	note C_, 2
	octave 2
	note A_, 1
	octave 3
	note D_, 2
	octave 2
	note A_, 1
	octave 3
	note E_, 2
	octave 2
	note G#, 1
	note __, 1
	note G#, 1
	note __, 1
	octave 3
	note C_, 2
	octave 2
	note G#, 2
	note G_, 1
	note __, 1
	octave 3
	note D_, 1
	octave 2
	note A#, 1
	octave 3
	note C_, 2
	note D_, 2
	note C_, 2
	octave 2
	note A_, 1
	octave 3
	note C_, 1
	note F_, 1
	note __, 1
	note C_, 2
	octave 2
	note A_, 1
	octave 3
	note C_, 1
	note F_, 1
	note __, 1
	note C_, 1
	octave 2
	note A_, 1
	octave 3
	note F_, 1
	note __, 1
	note C_, 2
	octave 2
	note A_, 1
	octave 3
	note C_, 1
	note E_, 1
	note __, 1
	note C_, 1
	octave 2
	note A_, 1
	octave 3
	note C_, 1
	octave 2
	note A_, 1
	octave 3
	note E_, 1
	note __, 1
	note C_, 1
	octave 2
	note A_, 1
	octave 3
	note E_, 1
	note __, 1
	note D_, 1
	octave 2
	note B_, 1
	octave 3
	note D_, 1
	octave 2
	note B_, 1
	octave 3
	note G_, 1
	note __, 1
	octave 2
	note B_, 1
	octave 3
	note D_, 1
	note __, 1
	octave 2
	note B_, 1
	octave 3
	note G_, 1
	note __, 1
	note E_, 1
	note __, 1
	octave 2
	note G_, 1
	note A#, 1
	octave 3
	note C_, 2
	octave 2
	note G_, 1
	octave 3
	note E_, 2
	note __, 1
	note C_, 2
	octave 2
	note G_, 1
	octave 3
	note E_, 2
	note __, 1
	note D_, 1
	octave 2
	note G_, 1
	octave 3
	note C_, 2
	note C_, 2
	octave 2
	note A_, 1
	octave 3
	note C_, 1
	note F_, 1
	note __, 1
	note C_, 2
	octave 2
	note A_, 1
	octave 3
	note C_, 1
	note F_, 1
	note __, 1
	note C_, 1
	octave 2
	note A_, 1
	octave 3
	note F_, 1
	note __, 1
	note C_, 2
	octave 2
	note A_, 1
	octave 3
	note C_, 1
	note E_, 1
	note __, 1
	note C_, 1
	octave 2
	note A_, 1
	octave 3
	note C_, 1
	octave 2
	note A_, 1
	octave 3
	note E_, 1
	note __, 1
	note C_, 1
	octave 2
	note A_, 1
	octave 3
	note C_, 1
	note E_, 1
	note D#, 1
	note __, 1
	note D#, 1
	note __, 1
	note D#, 1
	note __, 1
	note D#, 1
	note __, 1
	note D#, 1
	note __, 1
	note C_, 2
	note D#, 2
	note G_, 2
	note __, 6
	note D_, 2
	note __, 4
	note D_, 2
	note E_, 2
	note C_, 1
	note __, 1
	note C_, 1
	note __, 1
	note D_, 2
	note C_, 1
	note __, 1
	note E_, 2
	note C_, 1
	note F_, 2
	note C_, 1
	note G_, 2
	octave 2
	note A#, 1
	note __, 1
	note A#, 1
	note __, 1
	octave 3
	note D_, 2
	note C_, 1
	note __, 1
	note E_, 2
	note C_, 1
	note F_, 2
	note C_, 1
	note G_, 2
	octave 2
	note A_, 1
	note __, 1
	note A_, 1
	note __, 1
	octave 3
	note C_, 2
	octave 2
	note A_, 1
	note __, 1
	octave 3
	note C_, 2
	octave 2
	note A_, 1
	octave 3
	note D_, 2
	octave 2
	note A_, 1
	octave 3
	note E_, 2
	octave 2
	note G#, 1
	note __, 1
	note G#, 1
	note __, 1
	octave 3
	note C_, 2
	octave 2
	note G#, 2
	note A#, 2
	note G_, 1
	note __, 1
	octave 3
	note D_, 2
	octave 2
	note B_, 2
	octave 3
	note C_, 1
	note __, 1
	note C_, 1
	note __, 1
	note D_, 2
	note C_, 1
	note __, 1
	note E_, 2
	note C_, 1
	note F_, 2
	note C_, 1
	note G_, 2
	octave 2
	note A#, 1
	note __, 1
	note A#, 1
	note __, 1
	octave 3
	note D_, 2
	note C_, 1
	note __, 1
	note E_, 2
	note C_, 1
	note F_, 2
	note C_, 1
	note G_, 2
	octave 2
	note A_, 1
	note __, 1
	note A_, 1
	note __, 1
	octave 3
	note C_, 2
	octave 2
	note A_, 1
	note __, 1
	octave 3
	note C_, 2
	octave 2
	note A_, 1
	octave 3
	note D_, 2
	octave 2
	note A_, 1
	octave 3
	note E_, 2
	octave 2
	note G#, 1
	note G#, 1
	note __, 1
	octave 3
	note C_, 1
	note C_, 1
	note __, 1
	octave 2
	note A#, 2
	note __, 6
	note B_, 2
	octave 3
	loopchannel 0, Music_TraceyEncounter_Ch3_loop

Music_TraceyEncounter_Ch4:
	togglenoise 3
	notetype $C
	note C#, 1
	note __, 1
	note C#, 1
	note D#, 1
	note C_, 1
	note __, 1
	note C#, 1
	note D#, 1
	note C_, 1
	note __, 1
	note C#, 1
	note C_, 1
	note __, 1
	note C#, 1
	note C_, 1
	note C_, 1
	note C#, 1
Music_TraceyEncounter_Ch4_loop:
	notetype $C
	note __, 1
	note C#, 1
	note __, 1
	note C_, 1
	note __, 1
	note C#, 1
	note D#, 1
	note C#, 1
	note __, 1
	note C#, 1
	note __, 1
	note C#, 1
	note __, 1
	note C_, 1
	note C#, 1
	note C#, 1
	note __, 1
	note C#, 1
	note __, 1
	note C_, 1
	note __, 1
	note C#, 1
	note D#, 1
	note C#, 1
	note __, 1
	note C#, 1
	note __, 1
	note C#, 1
	note __, 1
	note C_, 1
	note C#, 1
	note C#, 1
	note __, 1
	note C#, 1
	note __, 1
	note C_, 1
	note __, 1
	note C#, 1
	note D#, 1
	note C#, 1
	note __, 1
	note C#, 1
	note __, 1
	note C#, 1
	note __, 1
	note C_, 1
	note C#, 1
	note D#, 1
	note __, 1
	note C#, 1
	note D#, 1
	note C#, 1
	note D#, 1
	note C#, 1
	note __, 1
	note C_, 1
	note __, 1
	note C#, 1
	note C#, 1
	note C_, 1
	note D#, 1
	note C_, 1
	note __, 1
	note C_, 1
	note __, 1
	note C#, 1
	note __, 1
	note C_, 1
	note __, 1
	note C#, 1
	note D#, 1
	note C#, 1
	note __, 1
	note C#, 1
	note __, 1
	note C#, 1
	note __, 1
	note C_, 1
	note C#, 1
	note C_, 1
	note __, 1
	note C#, 1
	note C_, 1
	note __, 1
	note C#, 1
	note D#, 1
	note C#, 1
	note C_, 1
	note __, 1
	note C#, 1
	note C_, 1
	note __, 1
	note C#, 1
	note C_, 1
	note __, 1
	note C_, 1
	note __, 1
	note C#, 1
	note __, 1
	note C_, 1
	note __, 1
	note C#, 1
	note D#, 1
	note C#, 1
	note __, 1
	note C#, 1
	note __, 1
	note C#, 1
	note __, 1
	note C_, 1
	note __, 1
	note C#, 1
	note __, 1
	note C_, 1
	note __, 1
	note C#, 1
	note __, 1
	note C_, 1
	note __, 1
	note C#, 1
	note __, 1
	note C_, 1
	note D#, 1
	note C_, 1
	note __, 1
	note C_, 1
	note C_, 1
	note C_, 1
	note __, 1
	note C#, 1
	note __, 1
	note C_, 1
	note __, 1
	note C#, 1
	note D#, 1
	note C#, 1
	note __, 1
	note C#, 1
	note __, 1
	note C#, 1
	note __, 1
	note C_, 1
	note C#, 1
	note C#, 1
	note __, 1
	note C#, 1
	note __, 1
	note C_, 1
	note __, 1
	note C#, 1
	note D#, 1
	note C#, 1
	note __, 1
	note C#, 1
	note __, 1
	note C#, 1
	note __, 1
	note C_, 1
	note C#, 1
	note C#, 1
	note __, 1
	note C#, 1
	note __, 1
	note C_, 1
	note __, 1
	note C#, 1
	note D#, 1
	note C#, 1
	note __, 1
	note C#, 1
	note __, 1
	note C#, 1
	note __, 1
	note C_, 1
	note C#, 1
	note D#, 1
	note C#, 1
	note D#, 1
	note __, 1
	note C_, 1
	note __, 1
	note D#, 1
	note C#, 1
	note D#, 1
	note __, 1
	note C_, 1
	note __, 1
	note D#, 1
	note C#, 1
	note C_, 1
	note __, 1
	note C_, 1
	note __, 1
	note C#, 1
	note __, 1
	note C_, 1
	note __, 1
	note C#, 1
	note D#, 1
	note C#, 1
	note __, 1
	note C#, 1
	note __, 1
	note C#, 1
	note __, 1
	note C_, 1
	note C#, 1
	note C#, 1
	note __, 1
	note C#, 1
	note __, 1
	note C_, 1
	note __, 1
	note C#, 1
	note D#, 1
	note C#, 1
	note __, 1
	note C#, 1
	note __, 1
	note C#, 1
	note __, 1
	note C_, 1
	note C#, 1
	note C#, 1
	note __, 1
	note C#, 1
	note __, 1
	note C#, 1
	note __, 1
	note C#, 1
	note __, 1
	note C#, 1
	note __, 1
	note C_, 1
	note D#, 1
	note C#, 1
	note __, 1
	note C_, 1
	note __, 7
	note D#, 1
	note __, 1
	note C_, 1
	note __, 2
	note C_, 1
	note __, 2
	note C_, 1
	note C_, 1
	note C#, 1
	note __, 1
	note C#, 1
	note __, 1
	note C_, 1
	note __, 1
	note C#, 1
	note D#, 1
	note C#, 1
	note __, 1
	note C#, 1
	note __, 1
	note C#, 1
	note __, 1
	note C_, 1
	note C#, 1
	note C#, 1
	note __, 1
	note C#, 1
	note __, 1
	note C_, 1
	note __, 1
	note C#, 1
	note D#, 1
	note C#, 1
	note __, 1
	note C#, 1
	note __, 1
	note C#, 1
	note __, 1
	note C_, 1
	note C#, 1
	note C#, 1
	note __, 1
	note C#, 1
	note __, 1
	note C_, 1
	note __, 1
	note C#, 1
	note D#, 1
	note C#, 1
	note __, 1
	note C#, 1
	note __, 1
	note C#, 1
	note __, 1
	note C_, 1
	note C#, 1
	note C#, 1
	note __, 1
	note C#, 1
	note __, 1
	note C_, 1
	note __, 1
	note C#, 1
	note D#, 1
	note C#, 1
	note __, 1
	note C#, 1
	note C_, 1
	note __, 1
	note C#, 1
	note C_, 1
	note C#, 1
	note C#, 1
	note __, 1
	note C#, 1
	note __, 1
	note C_, 1
	note __, 1
	note C#, 1
	note D#, 1
	note C#, 1
	note __, 1
	note C#, 1
	note __, 1
	note C#, 1
	note __, 1
	note C_, 1
	note C#, 1
	note C#, 1
	note __, 1
	note C#, 1
	note __, 1
	note C_, 1
	note __, 1
	note C#, 1
	note D#, 1
	note C#, 1
	note __, 1
	note C#, 1
	note __, 1
	note C#, 1
	note __, 1
	note C_, 1
	note C#, 1
	note C#, 1
	note __, 1
	note C#, 1
	note __, 1
	note C_, 1
	note __, 1
	note C#, 1
	note D#, 1
	note C#, 1
	note __, 1
	note C#, 1
	note __, 1
	note C#, 1
	note __, 1
	note C_, 1
	note C#, 1
	note C_, 1
	note D_, 1
	note C_, 1
	note __, 1
	note C_, 1
	note C_, 1
	note C_, 1
	note __, 5
	note C_, 1
	note C#, 1
	note C#, 1
	note __, 1
	note C_, 1
	loopchannel 0, Music_TraceyEncounter_Ch4_loop

