Music_ValenciaTown:
	musicheader 4, 1, Music_ValenciaTown_Ch1
	musicheader 1, 2, Music_ValenciaTown_Ch2
	musicheader 1, 3, Music_ValenciaTown_Ch3
	musicheader 1, 4, Music_ValenciaTown_Ch4

Music_ValenciaTown_Ch1:
	tempo $B5
	volume $77
	stereopanning $f
	tone $0001
Music_ValenciaTown_Ch1_loop:
	dutycycle 2
	vibrato $00, $00
	octave 4
	notetype $C, $42
	note D#, 2
	note D#, 2
	intensity $35
	note D#, 2
	intensity $42
	octave 3
	note G_, 2
	note G_, 2
	note G_, 2
	intensity $37
	note G_, 3
	note __, 1
	intensity $42
	octave 4
	note F#, 2
	note F#, 2
	intensity $35
	note F#, 2
	intensity $42
	note C_, 2
	note C_, 2
	note C_, 2
	intensity $37
	note C_, 3
	note __, 1
	intensity $42
	note D#, 2
	note D#, 2
	intensity $35
	note D#, 2
	intensity $42
	octave 3
	note G_, 2
	note G_, 2
	note G_, 2
	intensity $37
	note G_, 3
	note __, 1
	intensity $42
	octave 4
	note F#, 2
	note F#, 2
	intensity $35
	note F#, 2
	intensity $52
	note D#, 2
	note F_, 2
	note D#, 2
	note C#, 2
	intensity $45
	note D#, 2
	dutycycle 0
	vibrato $00, $25
	intensity $0F
	octave 3
	note C_, 6
	octave 5
	note C_, 6
	intensity $88
	note C_, 4
	intensity $0F
	octave 2
	note B_, 6
	octave 4
	note B_, 6
	intensity $88
	note B_, 4
	intensity $0F
	octave 2
	note A#, 6
	octave 4
	note A#, 5
	intensity $78
	note A#, 3
	intensity $68
	octave 5
	note C_, 1
	octave 4
	note A#, 3
	note G#, 1
	note G_, 3
	intensity $78
	note F_, 1
	note D#, 3
	intensity $68
	note G#, 1
	note A#, 3
	note G#, 2
	dutycycle 1
	intensity $3D
	vibrato $00, $12
	octave 5
	note D#, 2
	intensity $77
	note D#, 4
	dutycycle 0
	intensity $0F
	vibrato $00, $25
	note C_, 6
	intensity $88
	note C_, 4
	intensity $0F
	octave 2
	note B_, 6
	octave 4
	note B_, 6
	intensity $88
	note B_, 4
	intensity $0F
	octave 2
	note A#, 6
	octave 4
	note A#, 6
	intensity $88
	note A#, 4
	intensity $0F
	note B_, 8
	dutycycle 2
	vibrato $00, $33
	octave 3
	note F#, 6
	intensity $98
	note F#, 2
	intensity $A7
	octave 4
	note D#, 4
	note C#, 4
	octave 3
	note A#, 3
	intensity $A2
	note G_, 2
	note __, 1
	intensity $A3
	note G_, 2
	intensity $A7
	octave 4
	note D#, 4
	note C#, 4
	octave 3
	note A#, 3
	intensity $A2
	note G#, 2
	note __, 1
	intensity $A3
	note G#, 2
	intensity $A7
	octave 4
	note C_, 4
	octave 3
	note D#, 2
	note A#, 4
	intensity $A2
	note G#, 2
	intensity $A5
	note G_, 1
	intensity $A2
	note G#, 2
	note __, 1
	intensity $A7
	note B_, 4
	note G#, 3
	note F#, 3
	intensity $A3
	note F_, 2
	note C#, 2
	intensity $A5
	octave 2
	note B_, 2
	intensity $A7
	note A#, 2
	note G_, 2
	octave 3
	note F_, 2
	note D#, 2
	note G_, 3
	intensity $A3
	note G#, 2
	note __, 1
	note G_, 2
	intensity $A7
	note C#, 4
	note D#, 2
	note G_, 3
	note G#, 3
	note G_, 2
	note D#, 2
	note G#, 4
	note G_, 2
	note C_, 4
	note D_, 2
	note D#, 2
	note F_, 2
	intensity $96
	note F#, 6
	note F_, 6
	intensity $95
	note D#, 4
	loopchannel 0, Music_ValenciaTown_Ch1_loop

Music_ValenciaTown_Ch2:
	stereopanning $f0
	dutycycle 2
	tone $0002
	vibrato $00, $23
	octave 2
	notetype $C, $95
	note A#, 4
	note __, 2
	octave 3
	note D#, 4
	note __, 2
	intensity $5E
	note C#, 4
	intensity $95
	note C_, 4
	note __, 2
	note D#, 4
	note __, 2
	intensity $5E
	octave 2
	note B_, 4
	intensity $95
	note A#, 4
	note __, 2
	octave 3
	note D#, 4
	note __, 2
	intensity $5E
	note F_, 4
Music_ValenciaTown_Ch2_loop:
	tone $0002
	dutycycle 2
	notetype $C, $5F
	note F#, 4
	note D#, 4
	note F_, 4
	note G_, 4
	intensity $B6
	note C_, 4
	note D_, 4
	note D#, 3
	note F_, 1
	note __, 2
	note D#, 2
	octave 2
	note B_, 4
	octave 3
	note C#, 4
	note D#, 3
	note F_, 1
	note __, 2
	note D#, 2
	notetype $6, $64
	note D#, 1
	octave 2
	note A#, 1
	octave 3
	note D#, 1
	octave 2
	note A#, 1
	intensity $94
	octave 3
	note D#, 1
	octave 2
	note A#, 1
	octave 3
	note D#, 1
	octave 2
	note A#, 1
	octave 3
	note D#, 1
	octave 2
	note A#, 1
	octave 3
	note D#, 1
	octave 2
	note A#, 1
	intensity $64
	octave 3
	note D#, 1
	octave 2
	note A#, 1
	octave 3
	note D#, 1
	octave 2
	note A#, 1
	octave 3
	note G_, 1
	note D#, 1
	note G_, 1
	note D#, 1
	intensity $94
	note G_, 1
	note D#, 1
	note G_, 1
	note D#, 1
	note G_, 1
	note D#, 1
	note G_, 1
	note D#, 1
	intensity $64
	note G_, 1
	note D#, 1
	note G_, 1
	note D#, 1
	intensity $34
	note G_, 1
	note D#, 1
	note G_, 1
	note D#, 1
	dutycycle 1
	tone $0000
	intensity $4C
	vibrato $00, $12
	octave 4
	note A#, 4
	octave 5
	note D#, 2
	note __, 2
	intensity $88
	note G_, 2
	note __, 2
	intensity $4D
	note G#, 6
	note G_, 6
	note F_, 4
	dutycycle 2
	tone $0002
	intensity $B6
	vibrato $00, $23
	octave 3
	note C_, 8
	note D_, 8
	note D#, 6
	note F_, 2
	note __, 4
	note D#, 4
	note F#, 8
	note F_, 8
	note D#, 6
	note F#, 2
	note __, 4
	note F_, 4
	intensity $64
	note D#, 1
	octave 2
	note A#, 1
	octave 3
	note D#, 1
	octave 2
	note A#, 1
	intensity $94
	octave 3
	note D#, 1
	octave 2
	note A#, 1
	octave 3
	note D#, 1
	octave 2
	note A#, 1
	octave 3
	note D#, 1
	octave 2
	note A#, 1
	octave 3
	note D#, 1
	octave 2
	note A#, 1
	octave 3
	note D#, 1
	octave 2
	note A#, 1
	octave 3
	note D#, 1
	octave 2
	note A#, 1
	octave 3
	note D#, 1
	octave 2
	note A#, 1
	octave 3
	note D#, 1
	octave 2
	note A#, 1
	intensity $64
	octave 3
	note D#, 1
	octave 2
	note A#, 1
	octave 3
	note D#, 1
	octave 2
	note A#, 1
	intensity $34
	octave 3
	note D#, 1
	octave 2
	note A#, 1
	octave 3
	note D#, 1
	octave 2
	note A#, 1
	intensity $0A
	octave 3
	note D#, 4
	intensity $34
	note F#, 1
	octave 2
	note B_, 1
	intensity $64
	octave 3
	note F#, 1
	octave 2
	note B_, 1
	octave 3
	note F#, 1
	octave 2
	note B_, 1
	intensity $94
	octave 3
	note F#, 1
	octave 2
	note B_, 1
	octave 3
	note F#, 1
	octave 2
	note B_, 1
	octave 3
	note F#, 1
	octave 2
	note B_, 1
	intensity $64
	octave 3
	note F#, 1
	octave 2
	note B_, 1
	octave 3
	note F#, 1
	octave 2
	note B_, 1
	intensity $34
	octave 3
	note F#, 1
	octave 2
	note B_, 1
	octave 3
	note F#, 1
	octave 2
	note B_, 1
	dutycycle 3
	intensity $98
	vibrato $00, $00
	octave 1
	note B_, 4
	octave 2
	note F#, 4
	intensity $97
	note F_, 4
	intensity $98
	octave 1
	note A#, 4
	octave 2
	note D#, 2
	octave 1
	note A#, 6
	octave 2
	note G_, 4
	note G#, 4
	octave 1
	note A#, 2
	octave 2
	note G_, 6
	note D#, 4
	note C#, 4
	note F_, 2
	note A#, 6
	note D#, 4
	note G_, 4
	note C#, 4
	note D#, 4
	note F_, 2
	note D#, 2
	octave 1
	note G#, 4
	octave 2
	note C_, 2
	note G#, 6
	octave 1
	note G#, 4
	octave 2
	note C_, 4
	octave 1
	note G#, 2
	octave 2
	note F_, 6
	octave 1
	note A#, 4
	note B_, 4
	octave 2
	note D#, 2
	note F#, 6
	octave 1
	note B_, 2
	octave 2
	note D#, 2
	note B_, 4
	note A#, 4
	note D#, 2
	note F#, 2
	note F_, 4
	note D#, 4
	note C#, 2
	note G_, 6
	note D#, 4
	note F_, 4
	octave 1
	note A#, 2
	octave 2
	note F_, 6
	note G_, 4
	note C#, 4
	octave 1
	note A#, 2
	octave 2
	note G_, 6
	note D#, 4
	note A#, 4
	note C#, 2
	note F_, 6
	note C#, 2
	note G_, 2
	note C_, 4
	octave 3
	note D#, 4
	octave 2
	note G_, 2
	note C_, 4
	note G_, 2
	octave 3
	note C_, 4
	octave 2
	note G_, 2
	note D#, 6
	note C_, 4
	octave 1
	note B_, 10
	note __, 2
	note B_, 10
	note __, 2
	note B_, 8
	note __, 8
	intensity $4F
	vibrato $01, $35
	octave 3
	note A#, 8
	intensity $98
	note A#, 8
	intensity $78
	note A#, 16
	intensity $58
	note A#, 16
	intensity $38
	note A#, 16
	intensity $18
	note A#, 16
	note __, 8
	loopchannel 0, Music_ValenciaTown_Ch2_loop

Music_ValenciaTown_Ch3:	
Music_ValenciaTown_Ch3_loop:
	vibrato $00, $00
	dutycycle 4
	octave 3
	notetype $C, $14
	note D#, 2
	octave 2
	note A#, 1
	note __, 1
	octave 3
	note G_, 1
	note __, 1
	note D#, 2
	octave 2
	note A#, 2
	octave 3
	note D#, 1
	note __, 1
	note C#, 3
	note __, 1
	note D#, 2
	octave 2
	note G#, 1
	note __, 1
	octave 3
	note G#, 1
	note __, 1
	note D#, 2
	octave 2
	note G#, 2
	octave 3
	note D#, 1
	note __, 1
	octave 2
	note B_, 3
	note __, 1
	octave 3
	note D#, 2
	octave 2
	note A#, 1
	note __, 1
	octave 3
	note G_, 1
	note __, 1
	note D#, 2
	octave 2
	note A#, 2
	octave 3
	note C#, 1
	note __, 1
	octave 2
	note B_, 3
	note __, 1
	octave 3
	note D#, 2
	note C#, 1
	note __, 1
	octave 2
	note A#, 1
	note __, 1
	octave 3
	note F#, 2
	note D#, 2
	octave 2
	note A#, 1
	note __, 1
	octave 3
	note C#, 2
	note D#, 2
	octave 2
	note G#, 2
	note A#, 2
	octave 3
	note C_, 2
	note D#, 4
	note C_, 4
	octave 2
	note G#, 2
	note B_, 2
	octave 3
	note C#, 2
	octave 2
	note B_, 2
	octave 3
	note F#, 4
	note F_, 4
	octave 2
	note B_, 2
	note A#, 2
	octave 3
	note D#, 2
	octave 2
	note A#, 2
	octave 3
	note G_, 4
	note C_, 2
	octave 2
	note A#, 2
	octave 3
	note C_, 2
	note D#, 2
	note F_, 2
	note D#, 2
	note G_, 2
	note A#, 2
	note G_, 2
	note D#, 2
	note C#, 2
	octave 2
	note G#, 2
	note A#, 2
	octave 3
	note C_, 2
	note D#, 4
	note C_, 4
	octave 2
	note G#, 2
	note B_, 2
	octave 3
	note C#, 2
	octave 2
	note B_, 2
	octave 3
	note F#, 4
	note F_, 4
	octave 2
	note B_, 2
	note A#, 2
	octave 3
	note D#, 2
	octave 2
	note A#, 2
	octave 3
	note G_, 4
	note C_, 2
	octave 2
	note A#, 2
	octave 3
	note C_, 2
	octave 2
	note B_, 2
	octave 3
	note F_, 2
	octave 2
	note B_, 2
	octave 3
	note D#, 2
	note F#, 2
	tone $0000
	vibrato $00, $12
	octave 4
	note B_, 2
	octave 5
	note C#, 2
	note D#, 2
	note A#, 6
	note G_, 6
	note __, 2
	note G_, 1
	note G#, 1
	note A#, 2
	octave 6
	note C_, 2
	note C#, 2
	note C_, 4
	octave 5
	note G_, 2
	note __, 2
	note G#, 2
	notetype $6, $14
	note A_, 1
	note A#, 7
	note G#, 4
	note G_, 2
	note D#, 10
	note __, 4
	note G_, 2
	note G#, 2
	note A_, 1
	note A#, 7
	note G#, 4
	note G_, 2
	octave 4
	note B_, 10
	octave 5
	note C#, 4
	note D#, 2
	note __, 2
	note D#, 4
	octave 4
	note A#, 4
	octave 5
	note F_, 4
	note F#, 1
	note G_, 15
	note __, 4
	note C#, 4
	note D#, 4
	note C#, 4
	note F#, 1
	note G_, 11
	note G#, 4
	note G_, 4
	note C_, 4
	note D_, 4
	note D#, 4
	note D_, 1
	note D#, 5
	intensity $34
	note D#, 2
	intensity $14
	note D#, 4
	note F_, 4
	note D#, 4
	note E_, 1
	note F_, 5
	note F#, 2
	note F_, 4
	note D#, 12
	octave 4
	note B_, 8
	loopchannel 0, Music_ValenciaTown_Ch3_loop

Music_ValenciaTown_Ch4:
	togglenoise 2
Music_ValenciaTown_Ch4_loop:
	notetype $C
	note __, 16
	note __, 16
	note __, 16
	note __, 16
	note __, 16
	note __, 16
	note __, 16
	note __, 16
	note __, 16
	note __, 16
	note __, 16
	note __, 4
	note C#, 2
	note __, 2
	note D#, 2
	note G_, 2
	note C#, 2
	note C#, 1
	note D#, 1
	note G#, 2
	note G_, 2
	note C#, 2
	note D#, 1
	note G_, 1
	note D#, 2
	note G_, 2
	note C#, 2
	note D#, 1
	note G_, 1
	note D#, 2
	note G_, 2
	note C#, 2
	note D#, 1
	note G_, 1
	note D#, 1
	note G_, 1
	note D#, 2
	note C#, 2
	note D#, 1
	note G_, 1
	note C#, 2
	note G_, 2
	note C#, 2
	note D#, 1
	note G_, 1
	note D#, 2
	note G_, 2
	note C#, 2
	note D#, 1
	note G_, 1
	note D#, 2
	note G_, 2
	note C#, 2
	note D#, 1
	note G_, 1
	note D#, 1
	note G_, 1
	note D#, 2
	note C#, 2
	note G_, 2
	note G#, 2
	note G_, 2
	note C#, 2
	note D#, 1
	note G_, 1
	note D#, 2
	note G_, 2
	note C#, 2
	note D#, 1
	note G_, 1
	note D#, 2
	note G_, 2
	note C#, 2
	note D#, 1
	note G_, 1
	note D#, 1
	note G_, 1
	note D#, 2
	note C#, 2
	note D#, 1
	note G_, 1
	note D#, 2
	note G_, 2
	note C#, 2
	note D#, 1
	note G_, 1
	note D#, 2
	note G_, 2
	note C#, 2
	note D#, 1
	note G_, 1
	note G#, 2
	note __, 14
	loopchannel 0, Music_ValenciaTown_Ch4_loop

