Music_VictoryRoad:
	musicheader 4, 1, Music_VictoryRoad_Ch1
	musicheader 1, 2, Music_VictoryRoad_Ch2
	musicheader 1, 3, Music_VictoryRoad_Ch3
	musicheader 1, 4, Music_VictoryRoad_Ch4

Music_VictoryRoad_Ch1:
	tempo $8F
	volume $77
	stereopanning $77
	dutycycle 2
	tone $0002
	octave 2
	notetype $C, $4F
	note D#, 8
	note E_, 8
	dutycycle 1
	intensity $C2
	note F_, 4
	note __, 4
	note F_, 4
	note __, 4
	note F_, 4
	note F_, 4
	notetype $8, $52
	note D#, 2
	intensity $62
	note D#, 2
	intensity $72
	note D#, 2
	intensity $82
	note D#, 2
	intensity $92
	note D#, 2
	intensity $A2
	note E_, 2
	intensity $C2
	note F_, 6
	note __, 6
	note F_, 6
	note __, 6
	note F_, 6
	note F_, 6
	intensity $92
	note C#, 1
	note D_, 1
	note D#, 1
	note E_, 1
	note F_, 1
	note F#, 1
	note G_, 1
	note G#, 1
	note A_, 1
	note A#, 1
	note B_, 1
	octave 3
	note C_, 1
Music_VictoryRoad_Ch1_loop:
	intensity $94
	note E_, 4
	note C#, 2
	note G#, 6
	note C#, 4
	octave 2
	note G#, 2
	octave 3
	note E_, 6
	note D_, 4
	note G#, 2
	note F#, 6
	octave 2
	note G#, 6
	octave 3
	note F#, 6
	intensity $C0
	note E_, 9
	intensity $C7
	note E_, 15
	intensity $52
	octave 2
	note G#, 2
	intensity $62
	note F#, 2
	intensity $72
	note G#, 2
	intensity $82
	octave 3
	note D_, 2
	intensity $92
	octave 2
	note G#, 2
	intensity $A2
	octave 3
	note D_, 2
	intensity $C5
	note D_, 6
	intensity $C2
	note F#, 2
	note D_, 2
	note F#, 2
	intensity $A0
	octave 1
	note C#, 2
	note D_, 2
	note E_, 2
	note D_, 2
	note C#, 2
	note C_, 2
	note C#, 2
	note D_, 2
	note E_, 2
	note C#, 2
	note D_, 2
	note E_, 2
	note D_, 2
	note E_, 2
	note F#, 2
	note E_, 2
	note D_, 2
	note C#, 2
	note D_, 2
	note E_, 2
	note F#, 2
	note E_, 2
	note D_, 2
	note C#, 2
	note C#, 2
	note D_, 2
	note E_, 2
	note D_, 2
	note C#, 2
	note C_, 2
	note C#, 2
	note D_, 2
	note E_, 2
	note C#, 2
	note D_, 2
	note E_, 2
	note D_, 2
	note E_, 2
	note F#, 2
	note E_, 2
	note D_, 2
	note C#, 2
	note D_, 2
	note E_, 2
	note F#, 2
	note G#, 6
	note __, 6
	intensity $C3
	octave 3
	note G_, 6
	note F#, 6
	note D#, 6
	note E_, 6
	octave 2
	note B_, 6
	octave 3
	note C#, 6
	note E_, 6
	note __, 6
	tone $0001
	intensity $C1
	octave 2
	note A_, 2
	octave 3
	note C#, 2
	note E_, 2
	note G#, 2
	note E_, 2
	note C#, 2
	octave 2
	note A_, 2
	octave 3
	note C_, 2
	note D#, 2
	intensity $C4
	octave 4
	note C#, 6
	octave 3
	note A#, 6
	octave 4
	note C#, 6
	note E_, 6
	note D#, 6
	octave 3
	note D#, 6
	note D#, 12
	intensity $94
	note C#, 4
	octave 2
	note G#, 2
	octave 3
	note C#, 6
	octave 2
	note G#, 2
	octave 3
	note C#, 2
	octave 2
	note G#, 2
	note C#, 2
	note G#, 2
	octave 3
	note C#, 2
	octave 2
	note B_, 4
	note F#, 2
	note B_, 6
	note F#, 2
	note B_, 2
	note F#, 2
	octave 1
	note B_, 2
	octave 2
	note F#, 2
	note B_, 2
	intensity $C4
	octave 3
	note G#, 4
	note F#, 2
	note E_, 6
	intensity $A4
	note D#, 6
	note C#, 6
	dutycycle 0
	intensity $D4
	note A_, 2
	note E_, 2
	note C#, 2
	octave 2
	note A_, 2
	octave 3
	note C#, 2
	note A_, 2
	note F#, 6
	note B_, 6
	dutycycle 1
	intensity $94
	note C#, 4
	octave 2
	note G#, 2
	octave 3
	note C#, 6
	octave 2
	note G#, 2
	octave 3
	note C#, 2
	octave 2
	note G#, 2
	note C#, 2
	note G#, 2
	octave 3
	note C#, 2
	octave 2
	note B_, 4
	note F#, 2
	note B_, 6
	note F#, 2
	note B_, 2
	note F#, 2
	octave 1
	note B_, 2
	octave 2
	note F#, 2
	note B_, 2
	intensity $C4
	octave 3
	note C#, 2
	note C_, 2
	note C#, 8
	note E_, 6
	note F#, 6
	dutycycle 0
	intensity $D4
	note A_, 2
	note E_, 2
	note C#, 2
	octave 2
	note A_, 2
	octave 3
	note C#, 2
	note A_, 2
	note F#, 6
	octave 4
	note C#, 6
	dutycycle 1
	intensity $D2
	octave 3
	note D#, 6
	note __, 6
	note D#, 6
	note __, 6
	note D#, 6
	note D#, 6
	intensity $52
	note C#, 2
	intensity $62
	note C#, 2
	intensity $72
	note C#, 2
	intensity $82
	note C#, 2
	intensity $92
	note C#, 2
	intensity $A2
	note D_, 2
	intensity $D2
	note D#, 6
	note __, 6
	note D#, 6
	note __, 6
	note D#, 6
	note D#, 6
	intensity $92
	octave 2
	note C#, 1
	note D_, 1
	note D#, 1
	note E_, 1
	note F_, 1
	note F#, 1
	note G_, 1
	note G#, 1
	note A_, 1
	note A#, 1
	note B_, 1
	octave 3
	note C_, 1
	loopchannel 0, Music_VictoryRoad_Ch1_loop

Music_VictoryRoad_Ch2:
	octave 4
	notetype $C, $4F
	note D#, 8
	note E_, 8
	intensity $C2
	note F_, 4
	note __, 4
	note F_, 4
	note __, 4
	note F_, 4
	note F_, 4
	notetype $8, $52
	note D#, 2
	intensity $62
	note D#, 2
	intensity $72
	note D#, 2
	intensity $82
	note D#, 2
	intensity $92
	note D#, 2
	intensity $A2
	note E_, 2
	intensity $C2
	note F_, 6
	note __, 6
	note F_, 6
	note __, 6
	note F_, 6
	note F_, 6
	intensity $92
	note G#, 1
	note G_, 1
	note F#, 1
	note F_, 1
	note E_, 1
	note D#, 1
	note D_, 1
	note C#, 1
	note C_, 1
	octave 3
	note B_, 1
	note A#, 1
	note A_, 1
Music_VictoryRoad_Ch2_loop:
	intensity $C4
	vibrato $08, $24
	note C#, 10
	note E_, 2
	intensity $C5
	note G#, 12
	intensity $C4
	note D_, 10
	note F#, 2
	intensity $C5
	note B_, 4
	intensity $C0
	note A#, 1
	note B_, 1
	intensity $C7
	note A_, 4
	note F#, 2
	intensity $C0
	note G#, 9
	intensity $C7
	note G#, 15
	intensity $52
	note D_, 2
	intensity $62
	octave 2
	note A_, 2
	intensity $72
	octave 3
	note D_, 2
	intensity $82
	note F#, 2
	intensity $92
	note D_, 2
	intensity $A2
	note F#, 2
	intensity $C2
	note A_, 2
	intensity $C1
	note A_, 1
	note A_, 1
	intensity $C2
	note A_, 2
	note A_, 2
	note F#, 2
	octave 4
	note D_, 2
	dutycycle 1
	intensity $A5
	octave 3
	note G#, 4
	note E_, 2
	octave 4
	note C#, 6
	octave 3
	note E_, 4
	note C#, 2
	note G#, 6
	note A_, 4
	note F#, 2
	octave 4
	note D_, 4
	note D_, 1
	note C#, 1
	octave 3
	note A_, 6
	note B_, 2
	octave 4
	note C#, 2
	note D_, 2
	note E_, 10
	note D_, 1
	note E_, 1
	note C#, 10
	note E_, 2
	octave 3
	note A_, 10
	note F#, 1
	note B_, 1
	octave 4
	note E_, 6
	note D_, 6
	intensity $A2
	octave 2
	note C#, 6
	intensity $C3
	octave 4
	note E_, 6
	note D#, 6
	note C_, 6
	note C#, 6
	octave 3
	note G#, 6
	note A#, 6
	octave 4
	note C_, 6
	octave 2
	note C#, 6
	intensity $C4
	octave 4
	note E_, 2
	note C#, 2
	octave 3
	note G#, 2
	octave 4
	note D#, 2
	note C_, 2
	octave 3
	note G#, 2
	octave 4
	note D_, 2
	octave 3
	note B_, 2
	note F#, 2
	octave 4
	note E_, 6
	note C#, 6
	note E_, 6
	note G_, 6
	note G#, 6
	octave 3
	note G#, 6
	note G#, 2
	intensity $C1
	note G_, 1
	note G#, 1
	intensity $C4
	note G#, 2
	note G#, 2
	note A#, 2
	octave 4
	note C_, 2
	intensity $A1
	vibrato $00, $00
	note C#, 1
	octave 3
	note G#, 1
	note E_, 1
	note D#, 1
	note C#, 1
	note C_, 1
	note C#, 1
	note D#, 1
	note E_, 1
	note G#, 1
	octave 4
	note C#, 1
	note E_, 1
	note G#, 1
	note A#, 1
	note B_, 1
	note A#, 1
	note G#, 1
	note F#, 1
	note E_, 1
	note D#, 1
	note C#, 1
	octave 3
	note B_, 1
	note A#, 1
	note B_, 1
	octave 4
	note D#, 1
	octave 3
	note B_, 1
	note F#, 1
	note E_, 1
	note D#, 1
	note C#, 1
	octave 2
	note B_, 1
	octave 3
	note C#, 1
	note D#, 1
	note F#, 1
	note G#, 1
	note A#, 1
	note B_, 1
	octave 4
	note C#, 1
	note D#, 1
	note E_, 1
	note F#, 1
	note G#, 1
	note A#, 1
	note B_, 1
	octave 5
	note C#, 1
	octave 4
	note B_, 1
	note F#, 1
	note D#, 1
	octave 3
	note A#, 1
	note G#, 1
	note F#, 1
	note E_, 1
	note D#, 1
	note C#, 1
	note D#, 1
	note E_, 1
	note F#, 1
	note G#, 1
	note A#, 1
	note B_, 1
	octave 4
	note C#, 1
	note D#, 1
	note F_, 1
	note F#, 1
	note G#, 1
	note A_, 1
	note A#, 1
	note A_, 1
	note G#, 1
	note F#, 1
	note E_, 1
	note D#, 1
	intensity $C4
	note C#, 4
	octave 3
	note G#, 2
	octave 4
	note C#, 6
	note D#, 6
	note F#, 6
	intensity $A1
	note C#, 1
	octave 3
	note B_, 1
	note A_, 1
	note G#, 1
	note F#, 1
	note E_, 1
	note D#, 1
	note E_, 1
	note F#, 1
	note G#, 1
	note A_, 1
	note B_, 1
	octave 4
	note C#, 1
	note D#, 1
	note E_, 1
	note F#, 1
	note E_, 1
	note D#, 1
	note C#, 1
	octave 3
	note B_, 1
	note A_, 1
	note G#, 1
	note F#, 1
	note E_, 1
	note B_, 1
	note A_, 1
	note G#, 1
	note F#, 1
	note E_, 1
	note F#, 1
	note G#, 1
	note A_, 1
	note B_, 1
	octave 4
	note C#, 1
	note D#, 1
	note E_, 1
	note F#, 1
	note G#, 1
	note A_, 1
	note B_, 1
	note A_, 1
	note F#, 1
	note E_, 1
	note D#, 1
	note C#, 1
	octave 3
	note B_, 1
	note A_, 1
	note G#, 1
	intensity $94
	octave 2
	note G#, 4
	note F#, 2
	note G#, 6
	note F#, 2
	note G#, 2
	note F#, 2
	note C#, 2
	note F#, 2
	note G#, 2
	dutycycle 0
	intensity $D2
	octave 4
	note C#, 2
	note C_, 2
	note C#, 2
	note C#, 4
	note D_, 2
	note D#, 2
	note D_, 2
	note D#, 2
	note C#, 2
	note D#, 2
	note F#, 2
	note G#, 6
	note __, 6
	note G#, 6
	note __, 6
	note G#, 6
	note G#, 6
	intensity $52
	note F#, 2
	intensity $62
	note F#, 2
	intensity $72
	note F#, 2
	intensity $82
	note F#, 2
	intensity $92
	note F#, 2
	intensity $A2
	note G_, 2
	intensity $D2
	note G#, 6
	note __, 6
	note G#, 6
	note __, 6
	note G#, 6
	note G#, 6
	intensity $92
	note B_, 1
	note A#, 1
	note A_, 1
	note G#, 1
	note G_, 1
	note F#, 1
	note F_, 1
	note E_, 1
	note D#, 1
	note D_, 1
	note C#, 1
	note C_, 1
	octave 3
	loopchannel 0, Music_VictoryRoad_Ch2_loop

Music_VictoryRoad_Ch3:
	dutycycle 6
	tone $0001
	octave 2
	notetype $C, $16
	note G_, 8
	note F#, 8
	note F_, 3
	note __, 5
	note F_, 3
	note __, 5
	note F_, 3
	note __, 1
	note F_, 3
	note __, 1
	octave 3
	notetype $8, $16
	note F_, 2
	note C_, 2
	note F_, 2
	note B_, 4
	octave 4
	note C_, 2
	octave 2
	notetype $C, $16
	note F_, 3
	note __, 5
	note F_, 3
	note __, 5
	note F_, 3
	note __, 1
	note F_, 3
	note __, 1
	octave 3
	note G#, 3
	intensity $26
	note G#, 1
	intensity $36
	note G#, 1
	intensity $26
	note G#, 1
	intensity $16
	note G#, 2
Music_VictoryRoad_Ch3_loop:
	octave 2
	notetype $8, $16
	note C#, 2
	note D_, 2
	note E_, 2
	note G#, 6
	note C#, 2
	note D_, 2
	note E_, 2
	note C#, 2
	note D_, 2
	note E_, 2
	note D_, 2
	note E_, 2
	note F#, 2
	note A_, 6
	note D_, 2
	note E_, 2
	note F#, 2
	note D_, 2
	note E_, 2
	note F#, 2
	note C#, 2
	note D_, 2
	note E_, 2
	note C#, 2
	note D_, 2
	note E_, 2
	note C#, 2
	note D_, 2
	note E_, 2
	note D_, 2
	note C#, 2
	octave 1
	note B_, 2
	intensity $26
	octave 2
	note D_, 2
	note E_, 2
	note F#, 2
	note E_, 2
	note D_, 2
	note C#, 2
	intensity $16
	note D_, 2
	note E_, 2
	note F#, 2
	note E_, 2
	note D#, 2
	note C#, 2
	vibrato $00, $25
	octave 4
	note C#, 4
	note E_, 2
	note G#, 10
	note G_, 1
	note F#, 1
	note E_, 6
	note D_, 4
	note F#, 2
	note A_, 4
	note A_, 1
	note G#, 1
	note F#, 6
	note B_, 2
	note A_, 2
	note F#, 2
	note G#, 10
	note F#, 1
	note G#, 1
	note E_, 10
	note G#, 2
	note F#, 10
	note D_, 1
	note F#, 1
	note B_, 6
	note A_, 6
	vibrato $00, $00
	octave 2
	note C#, 6
	octave 3
	note C#, 2
	note E_, 2
	note G#, 2
	octave 4
	note C#, 2
	octave 3
	note G#, 2
	note E_, 2
	note C#, 2
	note E_, 2
	note G#, 2
	note A#, 2
	note G_, 2
	note E_, 2
	note C#, 2
	note E_, 2
	note G#, 2
	octave 4
	note C#, 2
	octave 3
	note A#, 1
	note A_, 1
	note A#, 2
	note G#, 2
	note G#, 2
	note G#, 2
	octave 2
	note C#, 6
	octave 3
	note C#, 2
	note E_, 2
	note G#, 2
	octave 4
	note C#, 2
	octave 3
	note G#, 2
	note E_, 2
	note C#, 2
	note E_, 2
	note G#, 2
	note A#, 2
	note G_, 2
	note E_, 2
	note C#, 2
	note E_, 2
	note G_, 2
	note B_, 2
	note G_, 2
	note E_, 2
	note C#, 2
	note G_, 2
	octave 4
	note C#, 2
	note D#, 6
	octave 3
	note D#, 6
	note D#, 2
	note D#, 1
	note D_, 1
	note D#, 2
	note D#, 2
	note F_, 2
	note G_, 2
	dutycycle 2
	intensity $12
	vibrato $08, $24
	octave 5
	note C#, 10
	note E_, 2
	note G#, 12
	note D#, 10
	note F#, 2
	note B_, 6
	note A_, 4
	note F#, 2
	notetype $C, $12
	note G#, 12
	intensity $22
	note G#, 4
	notetype $8, $12
	note A_, 4
	note E_, 2
	note A_, 6
	note B_, 6
	octave 6
	note D#, 1
	note C#, 1
	note C_, 1
	octave 5
	note B_, 1
	note A#, 1
	note G#, 1
	note C#, 2
	note C_, 2
	note C#, 2
	note E_, 4
	note F#, 2
	note G#, 12
	note D#, 2
	note D_, 2
	note D#, 2
	note F#, 4
	note G#, 2
	note B_, 6
	note A_, 4
	note F#, 2
	note G#, 2
	note G_, 2
	note G#, 14
	intensity $22
	note G#, 6
	intensity $12
	note A_, 2
	note G#, 2
	note A_, 2
	note A_, 4
	note A#, 2
	note B_, 2
	note A#, 2
	note B_, 2
	octave 6
	note C#, 2
	note D#, 2
	note E_, 2
	dutycycle 6
	octave 2
	notetype $C, $16
	note G#, 3
	note __, 5
	note G#, 3
	note __, 5
	note G#, 3
	note __, 1
	note G#, 3
	note __, 1
	octave 3
	notetype $8, $16
	note G#, 2
	note D#, 2
	note G#, 2
	octave 4
	note D_, 4
	note D#, 2
	octave 2
	notetype $C, $16
	note G#, 3
	note __, 5
	note G#, 3
	note __, 5
	note G#, 3
	note __, 1
	note G#, 3
	note __, 1
	note B_, 3
	intensity $26
	note B_, 1
	intensity $36
	note B_, 1
	intensity $26
	note B_, 1
	intensity $16
	note B_, 2
	loopchannel 0, Music_VictoryRoad_Ch3_loop

Music_VictoryRoad_Ch4:
	notetype $C
	note __, 16
	togglenoise 3
Music_VictoryRoad_Ch4_loop:
	notetype $8
	note B_, 4
	note C#, 1
	note C#, 1
	note C#, 2
	note C#, 1
	note __, 1
	note C#, 2
	note B_, 4
	note C#, 1
	note C#, 1
	note C#, 2
	note C#, 1
	note __, 1
	note C#, 2
	note B_, 4
	note C#, 1
	note C#, 1
	note C#, 2
	note C#, 1
	note __, 1
	note C#, 2
	note C_, 2
	note __, 10
	note B_, 4
	note C#, 1
	note C#, 1
	note C#, 2
	note C#, 1
	note __, 1
	note C#, 2
	note B_, 4
	note C#, 1
	note C#, 1
	note C#, 2
	note C#, 1
	note __, 1
	note C#, 2
	note B_, 4
	note C#, 1
	note C#, 1
	note C#, 2
	note C#, 1
	note __, 1
	note C#, 2
	note C_, 2
	note __, 4
	note C#, 1
	note C#, 1
	note C#, 1
	note C#, 1
	note C#, 1
	note C#, 1
	note C_, 2
	note C#, 2
	note D_, 2
	note D_, 2
	note C#, 2
	note D_, 2
	note C_, 2
	note C#, 2
	note D_, 2
	note D_, 2
	note C#, 2
	note D_, 2
	note C_, 2
	note C#, 2
	note D_, 2
	note D_, 2
	note C#, 2
	note D_, 2
	note C_, 2
	note C#, 1
	note C#, 1
	note D_, 2
	note D_, 2
	note C#, 2
	note D_, 2
	note C_, 2
	note C#, 2
	note D_, 2
	note D_, 2
	note C#, 2
	note D_, 2
	note C_, 2
	note C#, 2
	note D_, 2
	note D_, 2
	note C#, 2
	note D_, 2
	note C_, 2
	note C#, 2
	note D_, 2
	note D_, 2
	note C#, 2
	note D_, 2
	note C_, 2
	note C#, 1
	note C#, 1
	note D_, 2
	note D_, 2
	note C#, 2
	note C_, 2
	note C_, 2
	note C#, 2
	note D_, 2
	note D_, 2
	note C#, 2
	note D_, 2
	note C_, 2
	note C#, 2
	note D_, 2
	note D_, 2
	note C#, 2
	note D_, 2
	note C_, 2
	note C#, 2
	note D_, 2
	note D_, 2
	note C#, 2
	note D_, 2
	note C_, 2
	note C#, 1
	note C#, 1
	note D_, 2
	note D_, 2
	note C#, 2
	note D_, 2
	note C_, 2
	note C#, 2
	note D_, 2
	note D_, 2
	note C#, 2
	note D_, 2
	note C_, 2
	note C#, 2
	note D_, 2
	note D_, 2
	note C#, 2
	note D_, 2
	note C_, 2
	note C#, 2
	note D_, 2
	note D_, 2
	note C#, 2
	note D_, 2
	note C_, 2
	note C#, 1
	note C#, 1
	note D_, 2
	note D#, 2
	note D#, 2
	note D#, 2
	note D#, 5
	note __, 15
	note D#, 2
	note D#, 2
	note B_, 5
	note __, 16
	note __, 3
	note D#, 5
	note __, 15
	note D#, 2
	note D#, 2
	note B_, 5
	note __, 13
	note D#, 5
	note __, 1
	note D#, 5
	note __, 1
	note D#, 5
	note __, 1
	note D#, 2
	note D#, 2
	note D#, 2
	note D#, 2
	note D#, 2
	note D#, 2
	note C_, 2
	note C#, 2
	note D_, 2
	note D_, 2
	note C#, 2
	note D_, 2
	note C_, 2
	note C#, 2
	note D_, 2
	note D_, 2
	note C#, 2
	note D_, 2
	note C_, 2
	note C#, 2
	note D_, 2
	note D_, 2
	note C#, 2
	note D_, 2
	note C_, 2
	note C#, 1
	note C#, 1
	note D_, 2
	note D_, 2
	note C#, 2
	note D_, 2
	note C_, 2
	note C#, 2
	note D_, 2
	note D_, 2
	note C#, 2
	note D_, 2
	note C_, 2
	note C#, 2
	note D_, 2
	note D_, 2
	note C#, 2
	note D_, 2
	note C_, 2
	note C#, 2
	note D_, 2
	note D_, 2
	note C#, 2
	note D_, 2
	note C_, 2
	note C#, 1
	note C#, 1
	note D_, 2
	note D_, 2
	note C#, 2
	note C_, 2
	note C_, 2
	note C#, 2
	note D_, 2
	note D_, 2
	note C#, 2
	note D_, 2
	note C_, 2
	note C#, 2
	note D_, 2
	note D_, 2
	note C#, 2
	note D_, 2
	note C_, 2
	note C#, 2
	note D_, 2
	note D_, 2
	note C#, 2
	note D_, 2
	note C_, 2
	note C#, 1
	note C#, 1
	note D_, 2
	note D_, 2
	note C#, 2
	note D_, 2
	note C_, 2
	note C#, 2
	note D_, 2
	note D_, 2
	note C#, 2
	note D_, 2
	note C_, 2
	note C#, 2
	note D_, 2
	note D_, 2
	note C#, 2
	note D_, 2
	note C_, 2
	note C#, 2
	note D_, 2
	note D_, 2
	note C#, 2
	note D_, 2
	note C_, 2
	note C#, 1
	note C#, 1
	note D_, 2
	note D#, 2
	note D#, 2
	note D#, 2
	loopchannel 0, Music_VictoryRoad_Ch4_loop