Music_XdBattleSimTheme:
	musicheader 4, 1, Music_XdBattleSimTheme_Ch1
	musicheader 1, 2, Music_XdBattleSimTheme_Ch2
	musicheader 1, 3, Music_XdBattleSimTheme_Ch3
	musicheader 1, 4, Music_XdBattleSimTheme_Ch4
Music_XdBattleSimTheme_Ch1:
		tempo $70
		volume $77
		dutycycle 1
		notetype 12, $B8
Music_XdBattleSimTheme_Ch1_Bar1:
		note __, 16
Music_XdBattleSimTheme_Ch1_Bar2:
Music_XdBattleSimTheme_Ch1_Loop:
		dutycycle 0
		note __, 16
Music_XdBattleSimTheme_Ch1_Bar3:
		octave 2
		note E_, 1
		octave 1
		note A_, 1
		note A_, 1
		octave 2
		note E_, 1
		octave 1
		note A_, 1
		note A_, 1
		octave 2
		note E_, 3
		note D_, 1
		note D_, 1
		note E_, 1
		note F_, 1
		note G_, 1
		note F_, 1
		note E_, 1
Music_XdBattleSimTheme_Ch1_Bar4:
		note E_, 1
		octave 1
		note A_, 1
		note A_, 1
		octave 2
		note E_, 1
		octave 1
		note A_, 1
		note A_, 1
		octave 2
		note E_, 3
		note D_, 1
		note D_, 1
		note E_, 1
		note F_, 1
		note G_, 1
		note F_, 1
		note E_, 1
Music_XdBattleSimTheme_Ch1_Bar5:
		note E_, 1
		octave 1
		note A_, 1
		note A_, 1
		octave 2
		note E_, 1
		octave 1
		note A_, 1
		note A_, 1
		octave 2
		note E_, 3
		note D_, 1
		note D_, 1
		note E_, 1
		note F_, 1
		note G_, 1
		note F_, 1
		note E_, 1
Music_XdBattleSimTheme_Ch1_Bar6:
		note E_, 1
		octave 1
		note A_, 1
		note A_, 1
		octave 2
		note E_, 1
		octave 1
		note A_, 1
		note A_, 1
		octave 2
		note E_, 3
		note D_, 1
		note D_, 1
		note E_, 1
		note F_, 1
		note G_, 1
		note F_, 1
		note E_, 1
Music_XdBattleSimTheme_Ch1_Bar7:
		octave 3
		octave 2
		note G_, 6
		octave 3
		note C_, 6
		octave 2
		note G_, 2
		octave 3
		octave 2
		note E_, 4
Music_XdBattleSimTheme_Ch1_Bar8:
		octave 3
		note C_, 4
		octave 2
		note B_, 10
Music_XdBattleSimTheme_Ch1_Bar9:
		octave 3
		octave 2
		note E_, 6
		octave 3
		note C_, 6
		octave 2
		note G_, 2
		octave 3
		octave 2
		note E_, 4
Music_XdBattleSimTheme_Ch1_Bar10:
		octave 3
		octave 2
		note G_, 4
		note B_, 4
		octave 3
		note C_, 2
		octave 2
		note F#, 4
Music_XdBattleSimTheme_Ch1_Bar11:
		octave 3
		octave 2
		note E_, 6
		octave 3
		note C_, 6
		octave 2
		octave 3
		note E_, 2
		octave 2
		note E_, 4
Music_XdBattleSimTheme_Ch1_Bar12:
		octave 3
		octave 2
		note E_, 4
		note B_, 10
Music_XdBattleSimTheme_Ch1_Bar13:
		octave 3
		octave 2
		note E_, 6
		octave 3
		octave 2
		note E_, 6
		octave 3
		note E_, 2
		octave 2
		octave 3
		note C_, 4
Music_XdBattleSimTheme_Ch1_Bar14:
		octave 2
		octave 3
		note C_, 4
		octave 2
		note B_, 4
		octave 3
		octave 2
		note E_, 2
		note B_, 4
Music_XdBattleSimTheme_Ch1_Bar15:
		octave 4
		note E_, 1
		octave 3
		note A_, 1
		note A_, 1
		octave 4
		note E_, 1
		octave 3
		note A_, 1
		note A_, 1
		octave 4
		note E_, 3
		note D_, 1
		note D_, 1
		note E_, 1
		note F_, 1
		note G_, 1
		note F_, 1
		note E_, 1
Music_XdBattleSimTheme_Ch1_Bar16:
		note E_, 1
		octave 3
		note A_, 1
		note A_, 1
		octave 4
		note E_, 1
		octave 3
		note A_, 1
		note A_, 1
		octave 4
		note E_, 3
		note D_, 1
		note D_, 1
		note E_, 1
		note F_, 1
		note G_, 1
		note F_, 1
		note E_, 1
Music_XdBattleSimTheme_Ch1_Bar17:
		note E_, 1
		octave 3
		note A_, 1
		note A_, 1
		octave 4
		note E_, 1
		octave 3
		note A_, 1
		note A_, 1
		octave 4
		note E_, 3
		note D_, 1
		note D_, 1
		note E_, 1
		note F_, 1
		note G_, 1
		note F_, 1
		note E_, 1
Music_XdBattleSimTheme_Ch1_Bar18:
		note E_, 1
		octave 3
		note A_, 1
		note A_, 1
		octave 4
		note E_, 1
		octave 3
		note A_, 1
		note A_, 1
		octave 4
		note E_, 3
		note D_, 1
		note D_, 1
		note E_, 1
		note F_, 1
		note G_, 1
		note F_, 1
		note E_, 1
Music_XdBattleSimTheme_Ch1_Bar19:
		note E_, 1
		octave 3
		note A_, 1
		note A_, 1
		octave 4
		note E_, 1
		octave 3
		note A_, 1
		note A_, 1
		octave 4
		note E_, 3
		note D_, 1
		note D_, 1
		note E_, 1
		note F_, 1
		note G_, 1
		note F_, 1
		note E_, 1
Music_XdBattleSimTheme_Ch1_Bar20:
		note E_, 1
		octave 3
		note A_, 1
		note A_, 1
		octave 4
		note E_, 1
		octave 3
		note A_, 1
		note A_, 1
		octave 4
		note E_, 3
		note D_, 1
		note D_, 1
		note E_, 1
		note F_, 1
		note G_, 1
		note F_, 1
		note E_, 1
Music_XdBattleSimTheme_Ch1_Bar21:
		note E_, 1
		octave 3
		note A_, 1
		note A_, 1
		octave 4
		note E_, 1
		octave 3
		note A_, 1
		note A_, 1
		octave 4
		note E_, 3
		note D_, 1
		note D_, 1
		note E_, 1
		note F_, 1
		note G_, 1
		note F_, 1
		note E_, 1
Music_XdBattleSimTheme_Ch1_Bar22:
		note E_, 1
		octave 3
		note A_, 1
		note A_, 1
		octave 4
		note E_, 1
		octave 3
		note A_, 1
		note A_, 1
		octave 4
		note E_, 3
		note D_, 1
		note D_, 1
		note E_, 1
		note F_, 1
		note G_, 1
		note F_, 1
		note E_, 1
Music_XdBattleSimTheme_Ch1_Bar23:
		octave 3
		octave 2
		note E_, 6
		octave 3
		octave 2
		note A_, 6
		octave 3
		note E_, 2
		octave 2
		octave 3
		note C_, 4
Music_XdBattleSimTheme_Ch1_Bar24:
		octave 2
		octave 3
		note C_, 4
		octave 2
		note G#, 4
		note B_, 6
Music_XdBattleSimTheme_Ch1_Bar25:
		note G_, 6
		note A_, 6
		octave 3
		note D_, 2
		octave 2
		note A_, 4
Music_XdBattleSimTheme_Ch1_Bar26:
		note A_, 4
		note G#, 4
		note G_, 2
		note B_, 4
Music_XdBattleSimTheme_Ch1_Bar27:
		octave 3
		octave 2
		note E_, 6
		octave 3
		octave 2
		note A_, 6
		octave 3
		note E_, 2
		octave 2
		octave 3
		note C_, 4
Music_XdBattleSimTheme_Ch1_Bar28:
		octave 2
		octave 3
		note C_, 4
		octave 2
		note G#, 4
		note B_, 6
Music_XdBattleSimTheme_Ch1_Bar29:
		note G_, 6
		note A_, 6
		octave 3
		note D_, 2
		octave 2
		note A_, 4
Music_XdBattleSimTheme_Ch1_Bar30:
		note A_, 4
		note F#, 4
		note G_, 2
		note C#, 4
Music_XdBattleSimTheme_Ch1_Bar31:
		note E_, 1
		octave 1
		note A_, 1
		note A_, 1
		octave 2
		note E_, 1
		octave 1
		note A_, 1
		note A_, 1
		octave 2
		note E_, 3
		note D_, 1
		note D_, 1
		note E_, 1
		note F_, 1
		note G_, 1
		note F_, 1
		note E_, 1
Music_XdBattleSimTheme_Ch1_Bar32:
		note E_, 1
		octave 1
		note A_, 1
		note A_, 1
		octave 2
		note E_, 1
		octave 1
		note A_, 1
		note A_, 1
		octave 2
		note E_, 3
		note D_, 1
		note D_, 1
		note E_, 1
		note F_, 1
		note G_, 1
		note F_, 1
		note E_, 1
Music_XdBattleSimTheme_Ch1_Bar33:
		note E_, 1
		octave 1
		note A_, 1
		note A_, 1
		octave 2
		note E_, 1
		octave 1
		note A_, 1
		note A_, 1
		octave 2
		note E_, 3
		note D_, 1
		note D_, 1
		note E_, 1
		note F_, 1
		note G_, 1
		note F_, 1
		note E_, 1
Music_XdBattleSimTheme_Ch1_Bar34:
		note E_, 1
		octave 1
		note A_, 1
		note A_, 1
		octave 2
		note E_, 1
		octave 1
		note A_, 1
		note A_, 1
		octave 2
		note E_, 3
		note D_, 1
		note D_, 1
		note E_, 1
		note F_, 1
		note G_, 1
		note F_, 1
		note E_, 1
Music_XdBattleSimTheme_Ch1_Bar35:
		note E_, 1
		octave 1
		note A_, 1
		note A_, 1
		octave 2
		note E_, 1
		octave 1
		note A_, 1
		note A_, 1
		octave 2
		note E_, 3
		note D_, 1
		note D_, 1
		note E_, 1
		note F_, 1
		note G_, 1
		note F_, 1
		note E_, 1
Music_XdBattleSimTheme_Ch1_Bar36:
		note E_, 1
		octave 1
		note A_, 1
		note A_, 1
		octave 2
		note E_, 1
		octave 1
		note A_, 1
		note A_, 1
		octave 2
		note E_, 3
		note D_, 1
		note D_, 1
		note E_, 1
		note F_, 1
		note G_, 1
		note F_, 1
		note E_, 1
Music_XdBattleSimTheme_Ch1_Bar37:
		note E_, 1
		octave 1
		note A_, 1
		note A_, 1
		octave 2
		note E_, 1
		octave 1
		note A_, 1
		note A_, 1
		octave 2
		note E_, 3
		note D_, 1
		note D_, 1
		note E_, 1
		note F_, 1
		note G_, 1
		note F_, 1
		note E_, 1
Music_XdBattleSimTheme_Ch1_Bar38:
		note E_, 1
		octave 1
		note A_, 1
		note A_, 1
		octave 2
		note E_, 1
		octave 1
		note A_, 1
		endchannel

; ===========================================================================
Music_XdBattleSimTheme_Ch2:
		dutycycle 1
		notetype 12, $B8
Music_XdBattleSimTheme_Ch2_Bar1:
		note __, 16
Music_XdBattleSimTheme_Ch2_Bar2:
		dutycycle 12
		note __, 16
Music_XdBattleSimTheme_Ch2_Bar3:
		note __, 16
Music_XdBattleSimTheme_Ch2_Bar4:
		note __, 16
Music_XdBattleSimTheme_Ch2_Bar5:
		note __, 16
Music_XdBattleSimTheme_Ch2_Bar6:
		note __, 16
Music_XdBattleSimTheme_Ch2_Bar7:
		note __, 16
Music_XdBattleSimTheme_Ch2_Bar8:
		note __, 16
Music_XdBattleSimTheme_Ch2_Bar9:
		note __, 16
Music_XdBattleSimTheme_Ch2_Bar10:
		note __, 16
Music_XdBattleSimTheme_Ch2_Bar11:
		note __, 16
Music_XdBattleSimTheme_Ch2_Bar12:
		note __, 16
Music_XdBattleSimTheme_Ch2_Bar13:
		note __, 16
Music_XdBattleSimTheme_Ch2_Bar14:
		note __, 16
Music_XdBattleSimTheme_Ch2_Bar15:
		note __, 16
Music_XdBattleSimTheme_Ch2_Bar16:
		note __, 16
Music_XdBattleSimTheme_Ch2_Bar17:
		note __, 16
Music_XdBattleSimTheme_Ch2_Bar18:
		note __, 16
Music_XdBattleSimTheme_Ch2_Bar19:
		note __, 16
Music_XdBattleSimTheme_Ch2_Bar20:
		note __, 16
Music_XdBattleSimTheme_Ch2_Bar21:
		note __, 16
Music_XdBattleSimTheme_Ch2_Bar22:
		note __, 16
Music_XdBattleSimTheme_Ch2_Bar23:
		octave 3
		note A_, 6
		octave 4
		note E_, 14
Music_XdBattleSimTheme_Ch2_Bar24:
		note A_, 4
		note E_, 4
		note D_, 4
Music_XdBattleSimTheme_Ch2_Bar25:
		note E_, 12
		note C_, 4
Music_XdBattleSimTheme_Ch2_Bar26:
		note D_, 6
		note E_, 10
Music_XdBattleSimTheme_Ch2_Bar27:
		note E_, 12
		note A_, 8
Music_XdBattleSimTheme_Ch2_Bar28:
		note B_, 4
		octave 5
		note D_, 4
		note C_, 4
Music_XdBattleSimTheme_Ch2_Bar29:
		octave 4
		note B_, 12
		note G_, 4
		endchannel

; ===========================================================================
Music_XdBattleSimTheme_Ch3:
		notetype 12, $15
Music_XdBattleSimTheme_Ch3_Bar1:
		note __, 16
Music_XdBattleSimTheme_Ch3_Bar2:
		intensity $1E
		note __, 16
Music_XdBattleSimTheme_Ch3_Bar3:
		note __, 16
Music_XdBattleSimTheme_Ch3_Bar4:
		note __, 16
Music_XdBattleSimTheme_Ch3_Bar5:
		note __, 16
Music_XdBattleSimTheme_Ch3_Bar6:
		note __, 16
Music_XdBattleSimTheme_Ch3_Bar7:
		octave 5
		octave 4
		note G_, 1
		octave 5
		octave 4
		note G_, 1
		octave 5
		note C_, 1
		octave 4
		note G_, 2
		octave 5
		octave 4
		note G_, 2
		octave 5
		note C_, 2
		octave 4
		note G_, 1
		octave 5
		note C_, 2
		octave 4
		note G_, 1
		octave 5
		octave 4
		note G_, 2
		octave 5
		note C_, 2
Music_XdBattleSimTheme_Ch3_Bar8:
		octave 4
		octave 5
		note C_, 2
		octave 4
		octave 5
		note C_, 1
		octave 4
		octave 5
		note C_, 1
		octave 4
		note F#, 2
		octave 5
		note C_, 2
		octave 4
		note F#, 2
		octave 5
		octave 4
		note F#, 2
		octave 5
		octave 4
		note F#, 1
		octave 5
		note C_, 1
		octave 4
		note F#, 1
Music_XdBattleSimTheme_Ch3_Bar9:
		octave 5
		note C_, 1
		octave 4
		note G_, 1
		octave 5
		note C_, 1
		octave 4
		octave 5
		note C_, 2
		octave 4
		note G_, 2
		octave 5
		octave 4
		note G_, 2
		octave 5
		octave 4
		note G_, 1
		octave 5
		octave 4
		note G_, 2
		octave 5
		octave 4
		note G_, 1
		octave 5
		octave 4
		note G_, 2
		octave 5
		octave 4
		note G_, 2
Music_XdBattleSimTheme_Ch3_Bar10:
		octave 5
		note C_, 2
		octave 4
		note G_, 1
		octave 5
		note C_, 1
		octave 4
		note F#, 2
		octave 5
		octave 4
		note F#, 2
		octave 5
		octave 4
		note F#, 2
		octave 5
		octave 4
		note F#, 2
		octave 5
		note C_, 1
		octave 4
		octave 5
		note C_, 1
		octave 4
		note F#, 1
Music_XdBattleSimTheme_Ch3_Bar11:
		octave 5
		octave 4
		note G_, 1
		octave 5
		octave 4
		note G_, 1
		octave 5
		note C_, 1
		octave 4
		note G_, 2
		octave 5
		octave 4
		note G_, 2
		octave 5
		note C_, 2
		octave 4
		note G_, 1
		octave 5
		note C_, 2
		octave 4
		note G_, 1
		octave 5
		octave 4
		note G_, 2
		octave 5
		octave 4
		note G_, 2
Music_XdBattleSimTheme_Ch3_Bar12:
		octave 5
		note C_, 2
		octave 4
		octave 5
		note C_, 1
		octave 4
		octave 5
		note C_, 1
		octave 4
		note F#, 2
		octave 5
		note C_, 2
		octave 4
		note F#, 2
		octave 5
		octave 4
		note F#, 2
		octave 5
		octave 4
		note F#, 1
		octave 5
		note C_, 1
		octave 4
		note F#, 1
Music_XdBattleSimTheme_Ch3_Bar13:
		octave 5
		octave 4
		note G_, 1
		octave 5
		note C_, 1
		octave 4
		note G_, 1
		octave 5
		octave 4
		note G_, 2
		octave 5
		note C_, 2
		octave 4
		octave 5
		note C_, 2
		octave 4
		octave 5
		note C_, 1
		octave 4
		octave 5
		note C_, 2
		octave 4
		note G_, 1
		octave 5
		note C_, 2
		octave 4
		note G_, 2
Music_XdBattleSimTheme_Ch3_Bar14:
		octave 5
		octave 4
		note G_, 2
		octave 5
		note C_, 1
		octave 4
		octave 5
		note C_, 1
		octave 4
		octave 5
		note C_, 2
		octave 4
		octave 5
		note C_, 2
		octave 4
		octave 5
		note C_, 2
		octave 4
		octave 5
		note C_, 2
		octave 4
		note F#, 1
		octave 5
		note C_, 1
		octave 4
		octave 5
		note C_, 1
Music_XdBattleSimTheme_Ch3_Bar15:
		octave 2
		note E_, 16
Music_XdBattleSimTheme_Ch3_Bar16:
		note E_, 16
Music_XdBattleSimTheme_Ch3_Bar17:
		note E_, 16
Music_XdBattleSimTheme_Ch3_Bar18:
		note E_, 16
Music_XdBattleSimTheme_Ch3_Bar19:
		note E_, 16
Music_XdBattleSimTheme_Ch3_Bar20:
		note E_, 16
Music_XdBattleSimTheme_Ch3_Bar21:
		note E_, 16
Music_XdBattleSimTheme_Ch3_Bar22:
		note E_, 16
Music_XdBattleSimTheme_Ch3_Bar23:
		octave 1
		note A_, 3
		octave 2
		note E_, 3
		octave 1
		note A_, 4
		note A_, 2
		octave 2
		note E_, 1
		octave 1
		note A_, 2
		note A_, 1
Music_XdBattleSimTheme_Ch3_Bar24:
		note A_, 3
		octave 2
		note E_, 3
		octave 1
		note A_, 4
		note A_, 2
		octave 2
		note E_, 1
		octave 1
		note A_, 2
		note A_, 1
Music_XdBattleSimTheme_Ch3_Bar25:
		note A_, 3
		octave 2
		note E_, 3
		octave 1
		note A_, 4
		note A_, 2
		octave 2
		note E_, 1
		octave 1
		note A_, 2
		note A_, 1
Music_XdBattleSimTheme_Ch3_Bar26:
		note A_, 3
		octave 2
		note E_, 3
		octave 1
		note A_, 4
		note A_, 2
		octave 2
		note E_, 1
		octave 1
		note A_, 3
Music_XdBattleSimTheme_Ch3_Bar27:
		note A_, 3
		octave 2
		note E_, 3
		octave 1
		note A_, 4
		note A_, 2
		octave 2
		note E_, 1
		octave 1
		note A_, 2
		note A_, 1
Music_XdBattleSimTheme_Ch3_Bar28:
		note A_, 3
		octave 2
		note E_, 3
		octave 1
		note A_, 4
		note A_, 2
		octave 2
		note E_, 1
		octave 1
		note A_, 2
		note A_, 1
Music_XdBattleSimTheme_Ch3_Bar29:
		note A_, 3
		octave 2
		note E_, 3
		octave 1
		note A_, 4
		note A_, 2
		octave 2
		note E_, 1
		octave 1
		note A_, 2
		note A_, 1
Music_XdBattleSimTheme_Ch3_Bar30:
		note A_, 3
		octave 2
		note E_, 3
		octave 1
		note A_, 4
		note A_, 2
		octave 2
		note E_, 1
		octave 1
		endchannel

; ===========================================================================
Music_XdBattleSimTheme_Ch4:
		notetype $C
		togglenoise 0
Music_XdBattleSimTheme_Ch4_Bar1:
		note F#, 4
		note F#, 4
		note F#, 4
		note F#, 4
Music_XdBattleSimTheme_Ch4_Bar2:
		note F#, 4
		note F#, 4
		note C_, 4
		note F#, 2
		note F#, 1
		note F#, 1
Music_XdBattleSimTheme_Ch4_Bar3:
		note B_, 3
		note B_, 1
		note C#, 3
		note B_, 1
		note B_, 2
		note B_, 2
		note F#, 2
		note B_, 2
Music_XdBattleSimTheme_Ch4_Bar4:
		note B_, 3
		note B_, 1
		note C#, 3
		note B_, 1
		note B_, 2
		note B_, 2
		note F#, 2
		note B_, 2
Music_XdBattleSimTheme_Ch4_Bar5:
		note B_, 3
		note B_, 1
		note F#, 3
		note B_, 1
		note B_, 2
		note B_, 2
		note C#, 2
		note B_, 2
Music_XdBattleSimTheme_Ch4_Bar6:
		note B_, 3
		note B_, 1
		note F#, 3
		note B_, 1
		note B_, 1
		note E_, 1
		note B_, 2
		note C#, 2
		note B_, 1
		note F#, 1
Music_XdBattleSimTheme_Ch4_Bar7:
		note B_, 3
		note B_, 1
		note F#, 3
		note B_, 1
		note F#, 2
		note B_, 2
		note E_, 2
		note B_, 2
Music_XdBattleSimTheme_Ch4_Bar8:
		note B_, 3
		note B_, 1
		note F#, 3
		note B_, 1
		note F#, 2
		note B_, 2
		note F#, 1
		note B_, 2
		note E_, 1
Music_XdBattleSimTheme_Ch4_Bar9:
		note B_, 3
		note B_, 1
		note F#, 3
		note B_, 1
		note F#, 2
		note B_, 2
		note F#, 2
		note B_, 2
Music_XdBattleSimTheme_Ch4_Bar10:
		note B_, 3
		note B_, 1
		note F#, 3
		note B_, 1
		note F#, 2
		note B_, 1
		note B_, 1
		note F#, 1
		note B_, 1
		note F#, 1
		note F#, 1
Music_XdBattleSimTheme_Ch4_Bar11:
		note B_, 3
		note B_, 1
		note F#, 3
		note B_, 1
		note F#, 2
		note B_, 2
		note F#, 2
		note B_, 2
Music_XdBattleSimTheme_Ch4_Bar12:
		note B_, 3
		note B_, 1
		note F#, 3
		note B_, 1
		note F#, 2
		note B_, 2
		note F#, 1
		note B_, 2
		note E_, 1
Music_XdBattleSimTheme_Ch4_Bar13:
		note B_, 3
		note B_, 1
		note E_, 3
		note B_, 1
		note F#, 2
		note B_, 2
		note E_, 2
		note B_, 2
Music_XdBattleSimTheme_Ch4_Bar14:
		note B_, 3
		note B_, 1
		note E_, 3
		note B_, 1
		note F#, 2
		note B_, 1
		note B_, 1
		note E_, 1
		note B_, 1
		note F#, 1
		note E_, 1
Music_XdBattleSimTheme_Ch4_Bar15:
		note F#, 4
		note F#, 4
		note F#, 4
		note F#, 4
Music_XdBattleSimTheme_Ch4_Bar16:
		note F#, 4
		note F#, 4
		note C_, 4
		note F#, 2
		note F#, 1
		note F#, 1
Music_XdBattleSimTheme_Ch4_Bar17:
		note F#, 4
		note F#, 4
		note F#, 4
		note F#, 4
Music_XdBattleSimTheme_Ch4_Bar18:
		note F#, 4
		note F#, 4
		note C_, 4
		note F#, 2
		note F#, 1
		note F#, 1
Music_XdBattleSimTheme_Ch4_Bar19:
		note F#, 4
		note F#, 4
		note F#, 4
		note F#, 4
Music_XdBattleSimTheme_Ch4_Bar20:
		note F#, 4
		note F#, 4
		note C_, 4
		note F#, 2
		note F#, 1
		note F#, 1
Music_XdBattleSimTheme_Ch4_Bar21:
		note F#, 4
		note F#, 4
		note F#, 4
		note F#, 4
Music_XdBattleSimTheme_Ch4_Bar22:
		note F#, 4
		note F#, 4
		note C_, 1
		note E_, 1
		note E_, 2
		note E_, 2
		note F#, 1
		note E_, 1
Music_XdBattleSimTheme_Ch4_Bar23:
		note F#, 3
		note B_, 1
		note E_, 3
		note B_, 1
		note F#, 2
		note B_, 2
		note F#, 2
		note B_, 2
Music_XdBattleSimTheme_Ch4_Bar24:
		note B_, 3
		note B_, 1
		note E_, 3
		note B_, 1
		note F#, 2
		note B_, 2
		note E_, 1
		note B_, 2
		note E_, 1
Music_XdBattleSimTheme_Ch4_Bar25:
		note B_, 3
		note B_, 1
		note E_, 3
		note B_, 1
		note F#, 2
		note B_, 2
		note E_, 2
		note B_, 2
Music_XdBattleSimTheme_Ch4_Bar26:
		note B_, 3
		note B_, 1
		note E_, 3
		note B_, 1
		note F#, 2
		note B_, 1
		note B_, 1
		note E_, 1
		note B_, 1
		note F#, 1
		note E_, 1
Music_XdBattleSimTheme_Ch4_Bar27:
		note B_, 3
		note B_, 1
		note E_, 3
		note B_, 1
		note F#, 2
		note B_, 2
		note E_, 2
		note B_, 2
Music_XdBattleSimTheme_Ch4_Bar28:
		note B_, 3
		note B_, 1
		note E_, 3
		note B_, 1
		note F#, 2
		note B_, 2
		note E_, 1
		note B_, 2
		note E_, 1
Music_XdBattleSimTheme_Ch4_Bar29:
		note B_, 3
		note B_, 1
		note F#, 3
		note B_, 1
		note F#, 2
		note B_, 2
		note F#, 2
		note B_, 2
Music_XdBattleSimTheme_Ch4_Bar30:
		note F#, 3
		note B_, 1
		note E_, 3
		note B_, 1
		note F#, 2
		note B_, 1
		note B_, 1
		note F#, 1
		note B_, 1
		note F#, 1
		note E_, 1
Music_XdBattleSimTheme_Ch4_Bar31:
		note B_, 3
		note B_, 1
		note C#, 3
		note B_, 1
		note B_, 2
		note B_, 2
		note F#, 2
		note B_, 2
Music_XdBattleSimTheme_Ch4_Bar32:
		note B_, 3
		note B_, 1
		note C#, 3
		note B_, 1
		note B_, 2
		note B_, 2
		note F#, 2
		note B_, 2
Music_XdBattleSimTheme_Ch4_Bar33:
		note B_, 3
		note B_, 1
		note F#, 3
		note B_, 1
		note B_, 2
		note B_, 2
		note C#, 2
		note B_, 2
Music_XdBattleSimTheme_Ch4_Bar34:
		note B_, 3
		note B_, 1
		note F#, 3
		note B_, 1
		note B_, 2
		note B_, 2
		note C#, 2
		note B_, 1
		note F#, 1
Music_XdBattleSimTheme_Ch4_Bar35:
		note B_, 3
		note B_, 1
		note C#, 3
		note B_, 1
		note B_, 2
		note B_, 2
		note F#, 2
		note B_, 2
Music_XdBattleSimTheme_Ch4_Bar36:
		note B_, 3
		note B_, 1
		note C#, 3
		note B_, 1
		note B_, 2
		note B_, 2
		note F#, 2
		note B_, 2
Music_XdBattleSimTheme_Ch4_Bar37:
		note B_, 3
		note B_, 1
		note F#, 3
		note B_, 1
		note B_, 2
		note B_, 2
		note C#, 2
		note B_, 2
Music_XdBattleSimTheme_Ch4_Bar38:
		note B_, 3
		note B_, 1
		endchannel
